<svg xmlns="http://www.w3.org/2000/svg" width="556.81" height="99.43">
  <path d="M55.14 0c10.85 0 21.7-.02 32.55.02 5.2.02 9.18 2.28 11.8 6.81 1.25 2.19 1.6 4.6 1.6 7.08 0 8.55 0 17.1-.02 25.66 0 .83.24 1.3.94 1.79 5.1 3.54 8.08 8.37 8.21 14.64.15 6.53-2.77 11.58-8.2 15.17-.7.46-1.07.92-.94 1.76.06.42.04.86 0 1.28-.26 2.4.2 4.13 2.54 5.72 3.65 2.48 4.47 6.5 3.53 10.73-.93 4.17-3.73 6.7-7.75 7.89-1.42.41-2.94.13-4.4.17-10 .28-20 .14-29.98.19-.71 0-.91-.21-.99-.9a10.76 10.76 0 0 0-2.19-5.68c-3.66-4.64-11.19-4.1-14.16 1.02a11.37 11.37 0 0 0-1.52 4.72c-.06.65-.27.84-.92.84-10.07-.06-20.14.1-30.2-.2-.59 0-1.18-.06-1.75 0-4.5.47-9.1-3.51-10.14-7.54-1.3-5.06.52-9.87 4.87-12.35.86-.49 1.2-1 1.12-1.98-.1-1.36-.06-2.73 0-4.09.02-.7-.23-1.1-.82-1.48C3.76 68.29.79 64.22.15 58.73c-.85-7.28 1.97-12.96 7.83-17.19.86-.62 1.17-1.23 1.16-2.26-.04-8.48 0-16.96-.03-25.44-.01-4.56 1.55-8.35 5.2-11.17A13.13 13.13 0 0 1 22.58.01h32.56zm0 4.64H22.7c-1.96 0-3.77.43-5.38 1.59-2.64 1.89-3.6 4.55-3.6 7.68 0 9.45-.02 18.9.02 28.36 0 1-.31 1.44-1.2 1.91-4.95 2.65-8.03 6.66-7.92 12.47.1 5.68 3.2 9.48 8.26 11.78.63.28.86.6.85 1.3a404.3 404.3 0 0 0 .01 10.73c.02.96-.24 1.32-1.21 1.52-3.47.72-5.33 3.18-5.15 6.58a5.77 5.77 0 0 0 5.79 5.5c1.94.03 3.88.15 5.82.16 7.47.03 14.93.02 22.4.06.68 0 .94-.24 1.15-.83a14.42 14.42 0 0 1 3.16-5.12c5.32-5.66 17.92-5.65 21.85 4.83.34.91.77 1.12 1.67 1.12 9.29-.05 18.58-.03 27.87-.15 2.25-.03 5.05-2.19 5.55-4.36.89-3.79-1.06-6.97-5.01-7.8-.93-.2-1.17-.55-1.16-1.45.05-3.54.05-7.08 0-10.62 0-.82.24-1.2 1.01-1.54a13.04 13.04 0 0 0 7.23-7.23c2.61-6.5-.51-13.87-7.2-17.03-.8-.37-1.04-.8-1.04-1.65.03-9.57.04-19.14.01-28.7 0-5.56-3.6-9.1-9.14-9.1h-32.2z" clip-rule="evenodd" fill="#262222" fill-rule="evenodd"/>
  <path d="M497.96 66.44c0-10.42.01-20.85-.03-31.27 0-.99.26-1.2 1.21-1.19 6.65.05 13.3.09 19.95 0 2.22-.04 4.33.07 6.29 1.22.84.5 1.61 1.08 2.3 1.77.35.36.52.39.87-.03a7.22 7.22 0 0 1 5.82-2.66c4.12 0 8.24.07 12.36-.02 6.08-.12 10.15 4.32 10.08 10.11-.2 17.89-.09 35.78-.05 53.67 0 1.12-.26 1.4-1.38 1.39-5.1-.07-10.19-.06-15.28-.01-.95.01-1.13-.28-1.12-1.16.02-14.85.02-29.7.02-44.56 0-.31.03-.63-.01-.94-.1-.77-.32-1.45-1.3-1.47-.98-.03-1.54.49-1.76 1.37-.09.37-.04.77-.04 1.16V97.7c0 1.77.24 1.5-1.57 1.5-4.98.02-9.96-.01-14.93.03-.9.01-1.15-.2-1.15-1.13.03-14.81.02-29.63.02-44.45 0-.31.04-.63 0-.93-.15-.94-.63-1.65-1.64-1.65-1.03-.01-1.46.75-1.61 1.66-.05.3-.01.62-.01.93 0 14.7-.02 29.4.02 44.1 0 1.07-.3 1.25-1.28 1.24-4.86-.05-9.72-.06-14.58.01-1.1.02-1.23-.34-1.22-1.3.03-10.42.02-20.84.02-31.26zm29.36-23.34l-.41-.8c-1.72-3.44-4.37-5.25-8.36-5.13-5.29.17-10.57.15-15.86.17-.77 0-.97.22-.97.98.02 18.82.02 37.65 0 56.47 0 .75.24.9.92.89 2.72-.04 5.45-.06 8.17 0 .94.03 1.22-.18 1.22-1.18-.04-11.74-.03-23.49-.03-35.23 0-2.41-.03-4.83.01-7.24a4.36 4.36 0 0 1 3.18-4.13c2.42-.67 4.34-.09 5.5 1.63.78 1.16.89 2.45.89 3.79 0 13.73 0 27.46-.02 41.19 0 .85.12 1.2 1.1 1.18 3-.08 6-.05 8.99-.01.7.01.92-.16.9-.9-.03-3.38-.01-6.76-.01-10.14v-32.1c0-1.94 1.08-3.6 2.8-4.15 1.82-.58 4.6-.69 5.86.96.9 1.2.9 2.53.9 3.89.01 13.77.02 27.53-.01 41.3 0 .92.23 1.16 1.14 1.15 3.08-.06 6.15-.06 9.22 0 .81 0 1.04-.2 1.03-1.03-.02-16.84 0-33.68-.02-50.52 0-4.1-2.28-6.35-6.37-6.36-4.04 0-8.08.04-12.13-.01-2.57-.03-4.55 1.06-6.21 2.9-.6.67-.92 1.5-1.43 2.43z" clip-rule="evenodd" fill="#252223" fill-rule="evenodd"/>
  <path d="M381.54 62.75c0 8.87-.1 17.73.04 26.6.1 6.22-5.12 9.92-9.84 9.85-8.28-.13-16.57-.05-24.85-.02-.86 0-1.18-.14-1.17-1.1.06-4.63.05-9.26.01-13.89 0-.77.22-.96.97-.95 5.1.03 10.19-.02 15.28.04 1 0 1.48-.19 1.28-1.26-.06-.3-.04-.63 0-.94.09-.67-.2-.84-.85-.83-3.27.03-6.53-.1-9.8.03-7.06.26-9.93-4.29-9.96-9.79-.06-11.86-.02-23.72-.03-35.58 0-.61.1-.89.81-.88 5.45.03 10.9.04 16.33-.01.94 0 .86.47.86 1.08v27.3c.01.45-.3 1.2.3 1.32.81.17 1.7.11 2.53-.04.36-.07.18-.7.18-1.06 0-9.06.04-18.12-.03-27.19 0-1.23.37-1.43 1.48-1.41 5.13.06 10.27.05 15.4 0 .87 0 1.08.2 1.08 1.08-.03 9.22-.02 18.43-.02 27.65zm-3.08 1.4c0-8.48-.01-16.96.02-25.44 0-.92-.23-1.16-1.14-1.14a217 217 0 0 1-8.99 0c-.93-.03-1.15.24-1.15 1.15.04 7.86.03 15.71.02 23.57 0 .43 0 .86-.08 1.27-.56 2.91-3.27 4.44-6.58 3.74a3.71 3.71 0 0 1-3.11-3.2c-.11-.68-.18-1.38-.18-2.08-.01-7.74-.02-15.48.02-23.22 0-.93-.18-1.27-1.19-1.24-2.8.08-5.6.08-8.4 0-1.03-.03-1.27.25-1.27 1.27.04 10.39.02 20.77.03 31.16 0 4.79 2.64 7.42 7.4 7.42 4.12 0 8.24.02 12.37-.01.68 0 .98.13.94.89-.07 1.16 0 2.33-.02 3.5a4.44 4.44 0 0 1-1.94 3.66c-1.23.92-2.64 1.06-4.1 1.07-3.61.01-7.23.04-10.84-.03-1-.01-1.23.29-1.2 1.24.08 2.3.08 4.59 0 6.88-.03.92.28 1.07 1.12 1.07 7.07-.04 14.15-.02 21.23-.02 4.7 0 7.04-2.34 7.04-7.01v-24.5zM193.03 67.56c5.63 3.44 11.06 6.76 16.5 10.05.43.27.57.56.56 1.04-.02 1.12-.05 2.25.02 3.38.08 1.26 1.17 1.96 2.3 1.56.72-.25 1.04-.75.96-1.51-.05-.39-.17-.79-.1-1.15.54-2.71-.6-4.25-3.04-5.49-3.56-1.8-6.9-4.01-10.32-6.1-3.7-2.25-6.4-5.28-7.1-9.72-.16-1.06-.1-2.17-.08-3.26.07-4.63-.18-9.25.13-13.88.3-4.51 3.71-7.72 8.27-8.43 1.08-.17 2.16-.22 3.25-.2 5.6.1 11.2-.26 16.79.2 5.22.43 9 3.83 9.9 8.8.05.31.09.62.09.93v23.29l-5.57-3.67c-3.86-2.54-7.71-5.1-11.59-7.61-.56-.37-.79-.75-.75-1.41.05-.9.03-1.8-.03-2.68-.06-.88-.45-1.47-1.47-1.41-1 .06-1.79.35-1.82 1.5-.03 1.25.05 2.5.02 3.74-.01.49.26.7.59.9 4.76 3.08 9.47 6.23 14.3 9.2 4.23 2.6 6.57 6.06 6.35 11.19-.17 3.95-.03 7.93-.03 11.9 0 5.85-4.64 10.48-10.49 10.48-5.64 0-11.29-.2-16.92.05-6.42.28-9.9-4.5-10.58-9.44-.14-1-.13-2.01-.13-3.02V68.71v-1.15zm34.9-7.07V45.1a7.92 7.92 0 0 0-8.06-7.99h-17.03c-3.66 0-6.65 3-6.65 6.67 0 4.63.07 9.26-.03 13.89a7.67 7.67 0 0 0 1.97 5.42 14.36 14.36 0 0 0 3.17 2.72l14.68 9.47c.42.27.82.49.8 1.14-.05 1.98.02 3.96-.05 5.95-.09 2.49-2.33 4.48-4.92 4.45a4.65 4.65 0 0 1-4.77-4.68c0-.5-.05-1.02 0-1.52.07-.63-.18-1-.72-1.3-1.39-.78-2.75-1.6-4.11-2.42l-5.98-3.58c-.04.56-.07.94-.08 1.31-.05 4.47-.04 8.94-.17 13.4-.15 5.17 3.7 7.82 7.8 7.82h16.8c4.54-.02 7.2-2.52 7.3-7.1.1-4.5.01-9.02.06-13.52a5.42 5.42 0 0 0-1.07-3.37 15.89 15.89 0 0 0-4.41-3.93c-4.83-3.11-9.64-6.25-14.5-9.32-.72-.46-.98-.95-.94-1.78.06-1.67.01-3.35.01-5.02 0-2.88 1.67-4.6 4.57-4.7 2.28-.07 4.54 1.68 4.36 3.77-.18 2.06.64 3.16 2.38 3.87.25.1.47.27.7.4l8.89 5.33z" clip-rule="evenodd" fill="#272324" fill-rule="evenodd"/>
  <path d="M301.45 67.57c5.64 3.43 11.1 6.77 16.56 10.08.4.24.49.53.48.95-.02 1.13-.05 2.26.01 3.38.07 1.27 1.12 1.98 2.26 1.63.7-.2 1.05-.63 1.02-1.36-.02-.42-.14-.87-.05-1.27.58-2.8-.7-4.31-3.14-5.56-3.49-1.78-6.76-3.97-10.13-5.98-3.46-2.07-6-4.87-7.1-8.85-.2-.76-.18-1.54-.18-2.31 0-4.6.09-9.18-.03-13.77-.17-6.44 3.69-10.38 9.85-10.59 6.2-.21 12.44-.35 18.65.14 4.99.4 8.66 3.6 9.73 8.29.1.41.14.85.14 1.27l.01 22.75-.04.63-6.37-4.18c-3.53-2.32-7.06-4.67-10.6-6.97-.6-.38-.86-.78-.82-1.5.05-.88.02-1.78-.07-2.67-.08-.85-.44-1.47-1.48-1.39-1.24.1-1.82.55-1.84 1.63-.02 1.2.06 2.4.06 3.61 0 .47.25.69.6.9 4.8 3.1 9.56 6.23 14.4 9.27 2.92 1.85 5.26 4.1 5.98 7.65.14.67.17 1.38.18 2.08v13.53c0 5.65-4.65 10.24-10.34 10.24-5.68 0-11.37-.18-17.04.05-6.1.25-9.5-4.02-10.44-8.64a13.6 13.6 0 0 1-.27-2.78V67.57zm34.93-7.08c.06-.23.1-.33.1-.43-.05-5.25-.09-10.5-.16-15.74a5.67 5.67 0 0 0-1-3.41 8.67 8.67 0 0 0-7.24-3.78c-5.56-.03-11.13-.01-16.69 0a6.68 6.68 0 0 0-6.79 6.76c0 4.67.05 9.33-.02 14-.03 1.9.56 3.5 1.74 4.92.98 1.18 2.1 2.18 3.38 3 4.94 3.16 9.85 6.36 14.78 9.53.45.29.77.54.75 1.17-.05 1.83 0 3.66-.02 5.48a4.26 4.26 0 0 1-1.64 3.58c-1.63 1.23-3.41 1.65-5.35.8-1.63-.7-2.88-1.99-2.7-3.72.27-2.4-.73-3.67-2.76-4.49-.22-.08-.4-.23-.6-.35l-7.46-4.44c-.05.33-.1.52-.1.7-.05 4.74-.03 9.49-.18 14.23-.14 4.55 3.35 7.52 7.55 7.55 5.75.04 11.5.03 17.26 0 4.21-.03 6.84-2.42 7-6.64.17-4.5.01-9.02.13-13.52a6.52 6.52 0 0 0-2.05-5c-.88-.88-1.81-1.7-2.87-2.37-5.03-3.23-10.03-6.5-15.08-9.71-.72-.46-.97-.93-.93-1.76.06-1.71.09-3.43 0-5.14-.1-1.89.6-3.25 2.33-4.03 1.78-.8 3.53-.8 5.17.43a3.7 3.7 0 0 1 1.49 3.59c-.15 1.27.34 1.95 1.44 2.54 2.18 1.19 4.27 2.53 6.4 3.81l4.12 2.44zM385 67.59l13.36 8.14c1.16.7 2.6 1.2 3.39 2.2.77 1 .15 2.55.25 3.85.12 1.42 1 2.18 2.2 1.86.8-.21 1.17-.7 1.1-1.53-.05-.5-.2-1.03-.1-1.5.52-2.54-.66-3.9-2.84-5.05-3.6-1.9-7.02-4.13-10.52-6.21-3.4-2.03-5.84-4.83-6.93-8.7-.19-.65-.19-1.3-.19-1.96 0-4.75.13-9.5-.03-14.24-.2-6.33 3.72-10.35 9.9-10.53 6.17-.18 12.37-.35 18.54.14 5.03.4 8.66 3.54 9.76 8.26.08.33.14.68.15 1.03v23.52c-.51-.04-.85-.39-1.2-.62-5.26-3.46-10.5-6.94-15.77-10.37-.67-.44-.98-.9-.9-1.7.07-.76.04-1.55 0-2.32-.05-.9-.34-1.61-1.45-1.57-1.26.05-1.98.6-1.89 1.7.1 1.16.08 2.32.08 3.49 0 .5.24.75.63 1 4.9 3.14 9.79 6.32 14.7 9.45 2.85 1.83 5.03 4.14 5.66 7.6.1.54.13 1.08.14 1.63 0 4.35-.14 8.71.03 13.06.24 5.9-3.23 9.14-7.92 10.65-.74.24-1.5.35-2.29.34-5.72-.02-11.44-.2-17.15.04-6.2.27-9.6-4.13-10.5-8.73-.15-.76-.22-1.53-.22-2.3V67.58zm34.85-7.1c0-4.6.02-9.05 0-13.5 0-1.37.07-2.75-.18-4.08-.57-3.08-4.27-5.78-7.74-5.79-5.64-.01-11.28.08-16.92-.03-4.41-.08-6.98 3.82-6.95 6.94.05 4.51.07 9.02-.01 13.53-.04 2.25.7 4.1 2.19 5.7.9.98 1.88 1.84 3 2.57 4.91 3.13 9.8 6.3 14.69 9.46.43.28.8.51.78 1.15-.05 1.95.03 3.9-.03 5.84a4.83 4.83 0 0 1-4.96 4.55 4.66 4.66 0 0 1-4.76-4.7c0-.51-.04-1.02.01-1.52.07-.63-.2-.97-.73-1.29-3.08-1.8-6.15-3.63-9.2-5.5-.81-.49-.98-.37-.98.57-.01 4.35.03 8.71-.16 13.06-.28 6.21 4.14 8.52 8.37 8.43 5.41-.1 10.82-.01 16.22-.03 4.66 0 7.32-2.66 7.32-7.3.01-4.4-.06-8.8.04-13.19a5.86 5.86 0 0 0-1.62-4.22 15.96 15.96 0 0 0-3.25-2.81l-15.26-9.86c-.43-.27-.79-.5-.77-1.15.05-2.1.01-4.2.02-6.3 0-.79.2-1.54.73-2.16a5.33 5.33 0 0 1 5.65-1.38c1.78.66 2.64 2.07 2.64 4.34 0 .3.02.62 0 .93-.03.44.14.7.53.94 3.76 2.24 7.51 4.5 11.33 6.8z" clip-rule="evenodd" fill="#262223" fill-rule="evenodd"/>
  <path d="M251.46 78.77v1.27c0 6 0 11.98.02 17.97 0 .8-.18 1.07-1.02 1.06-5.17-.04-10.34-.04-15.52 0-.86 0-1-.28-1-1.06.02-21.04.02-42.09 0-63.13 0-.79.17-1.06 1.01-1.05 5.18.04 10.35.04 15.52 0 .86 0 1.01.29 1.01 1.06-.03 6-.02 11.98-.02 17.98v1.3c1.5-1.5 2.54-2.8 2.44-5-.22-4.78-.05-9.57-.08-14.36 0-.74.15-.98.95-.98 5.13.04 10.27.04 15.4 0 .78 0 .96.23.95.98-.02 7.62-.02 15.25 0 22.87 0 .54-.15.95-.5 1.36-1.83 2.07-3.6 4.19-5.46 6.22-.64.7-.59 1.12 0 1.8 1.8 2.1 3.5 4.27 5.28 6.39.47.56.69 1.13.69 1.88-.03 7.43-.05 14.86.01 22.29 0 1.11-.34 1.3-1.35 1.3-4.98-.05-9.96-.05-14.94 0-.81 0-1.04-.2-1.04-1.03.04-5.02-.11-10.04.09-15.05.08-2.03-.93-2.98-2.44-4.07zm-3-17.1c-.04-.58-.1-1.42-.11-2.26-.11-7.07-.22-14.14-.3-21.21 0-.72-.17-.91-.9-.9-2.99.04-5.98.04-8.98 0-.75-.01-.96.19-.96.96.02 18.66.02 37.32 0 55.98 0 .75.17.98.95.97 2.92-.05 5.84-.06 8.75 0 .9.03 1.07-.25 1.07-1.1-.04-7.19-.02-14.38-.02-21.58V71.1c2.74 2.6 5.26 5.01 7.82 7.38.5.47.68.93.68 1.6-.03 4.7 0 9.41-.03 14.12 0 .78.15 1.07 1 1.05 3.15-.05 6.3-.05 9.45 0 .83.02 1.02-.23 1.01-1.03-.03-6.18-.03-12.36 0-18.55 0-.72-.25-1.23-.7-1.75-2.04-2.35-4.04-4.73-6.1-7.05-.49-.55-.5-.88-.01-1.43 2.13-2.41 4.22-4.88 6.34-7.3.4-.45.67-.88.67-1.54-.03-5.98-.04-11.97 0-17.96 0-.87-.3-1-1.06-.98-2.88.04-5.75.05-8.63-.01-.87-.02-1.09.2-1.09 1.08.02 4.55-.06 9.1-.07 13.64 0 .58-.13 1.04-.57 1.45-2.76 2.62-5.5 5.26-8.22 7.85z" clip-rule="evenodd" fill="#272324" fill-rule="evenodd"/>
  <path d="M463.18 66.54c0-10.5.02-21-.02-31.5 0-.95.2-1.22 1.2-1.21 9.48.04 18.97.03 28.46 0 .91 0 1.17.22 1.16 1.15-.05 5.02-.05 10.03 0 15.05 0 .89-.24 1.09-1.1 1.08-3.46-.06-6.92 0-10.38-.04-.73-.01-.91.18-.9.9.06 1.9.06 3.8 0 5.71-.02.75.22.9.91.89 3.35-.04 6.7.01 10.03-.04.85-.01 1.01.24 1 1.04-.03 5.01-.04 10.03 0 15.04.01.85-.24 1.01-1.03 1-3.42-.05-6.84.02-10.26-.04-.9-.02-1.11.25-1.08 1.1.07 1.7.06 3.42 0 5.13-.01.73.23.93.93.92 3.43-.03 6.85.01 10.27-.03.85-.01 1.2.12 1.18 1.1-.06 4.83-.04 9.65 0 14.47 0 .82-.12 1.13-1.06 1.12-9.48-.1-18.96-.17-28.45-.2-.9 0-.86-.4-.86-1.03V66.54zm3.5.65c0 9.45.02 18.9-.01 28.35 0 .87.2 1.08 1.07 1.08a2464 2464 0 0 1 21.58-.01c.7 0 .93-.16.92-.9-.05-2.8-.05-5.6 0-8.4.01-.8-.2-1.05-1.02-1.04-3.54.05-7.08 0-10.62.03-.7.01-.93-.17-.93-.9.04-4.12.04-8.25 0-12.37 0-.77.22-.97.98-.96 3.57.04 7.15 0 10.73.04.83.01 1.02-.23 1.01-1.03a189.4 189.4 0 0 1 0-8.05c.02-.87-.28-1-1.05-1-3.5.05-7 0-10.5.04-.74 0-.98-.15-.97-.94.04-4.2.03-8.4 0-12.6 0-.74.16-.98.94-.97 3.46.05 6.93 0 10.39.04.8.01 1.06-.17 1.04-1.01a177 177 0 0 1 0-7.81c.02-.85-.25-1.02-1.04-1.01-7.16.02-14.31.03-21.47-.01-.89 0-1.07.23-1.06 1.09.03 9.44.02 18.9.02 28.34z" clip-rule="evenodd" fill="#252122" fill-rule="evenodd"/>
  <path d="M433.42 75.12c0-7.59-.02-15.17.02-22.75 0-.83-.15-1.15-1.07-1.11-1.9.08-3.8 0-5.71.04-.64.01-.88-.15-.88-.83.03-5.3.03-10.58 0-15.87 0-.63.24-.77.82-.76 8.86.12 17.72.21 26.58.32 2.13.02 4.27.1 6.4.1.62 0 .79.2.78.8-.02 5.13-.02 10.26 0 15.4 0 .68-.23.85-.87.84-1.98-.04-3.97.04-5.95-.04-.94-.03-1.23.19-1.22 1.19.04 9.95.02 19.9.02 29.86 0 5.17-.02 10.34.02 15.51.01.92-.16 1.27-1.18 1.26-5.56-.05-11.12-.04-16.68 0-.87 0-1.1-.22-1.1-1.1.03-7.62.02-15.24.02-22.86zm3.63-3.5c0 7.67.02 15.33-.02 22.99 0 .88.21 1.09 1.08 1.07 3.1-.06 6.22-.04 9.33 0 .67 0 1.05-.12.92-.88-.04-.23 0-.47 0-.7 0-15.05 0-30.1-.03-45.14 0-.96.21-1.25 1.2-1.21 2.1.08 4.2 0 6.3.04.67.01.84-.2.83-.85-.03-2.8-.04-5.6 0-8.4.02-.74-.23-.89-.92-.88-3.73.03-7.46.02-11.2.02-4.74 0-9.48.02-14.22-.03-.88 0-1.12.23-1.1 1.1.06 2.57.04 5.14 0 7.7 0 .7.11 1.05.94 1.02 1.94-.05 3.9.04 5.83-.04.9-.03 1.08.25 1.08 1.1-.04 7.7-.02 15.4-.02 23.1z" clip-rule="evenodd" fill="#2b2728" fill-rule="evenodd"/>
  <path d="M128.97 66.36c0-10.5.01-21-.03-31.5 0-1 .28-1.2 1.23-1.2 8.17.05 16.33 0 24.5.04 3.16.01 6.14.61 8.68 2.76a10.7 10.7 0 0 1 4 8.45c.05 14.27-.02 28.55.04 42.82.03 6.08-4.33 9.9-8.23 11.03-.6.18-1.2.3-1.83.3-9.1 0-18.2-.02-27.3.01-.89 0-1.09-.23-1.08-1.1.03-10.53.02-21.07.02-31.61zm3.08.23c0 9.4.01 18.81-.02 28.22 0 .97.26 1.22 1.22 1.22 7.46-.04 14.92-.02 22.39-.03a8.32 8.32 0 0 0 8.53-8.52V45.26a9.1 9.1 0 0 0-1.48-5.06c-1.2-1.84-2.8-3.15-5.13-3.15-8.08 0-16.17.04-24.25.02-.99 0-1.3.24-1.3 1.3.06 9.4.04 18.8.04 28.22zM171.4 66.5c0-10.47.02-20.93-.02-31.39 0-.93.26-1.13 1.16-1.13 5.32.05 10.65.04 15.98 0 .8 0 1.04.2 1.04 1.03-.02 20.96-.02 41.92 0 62.88 0 .83-.25 1.03-1.05 1.02-5.33-.03-10.65-.04-15.98 0-.93.01-1.15-.25-1.15-1.15.04-10.42.03-20.84.03-31.27zm3.05-.08c0 9.21.01 18.43-.03 27.64 0 .99.26 1.21 1.22 1.2 3.22-.07 6.45-.05 9.68-.01.8 0 1.04-.18 1.04-1.02-.02-18.5-.02-37.01 0-55.52 0-.8-.26-.95-.99-.94-3.26.03-6.53.05-9.8 0-.89-.02-1.15.19-1.15 1.12.04 9.18.03 18.35.03 27.53z" clip-rule="evenodd" fill="#292526" fill-rule="evenodd"/>
  <path d="M166 15.33c1.71-3.82 3.49-7.4 4.9-11.12.88-2.34 2-3.53 4.66-3.08 1.58.26 1.61.05 1.61 1.62 0 6.38-.01 12.76.02 19.13 0 .88-.16 1.3-1.13 1.18-1.03-.13-2.39.41-3.04-.2-.66-.63-.19-2-.2-3.03-.03-2.16-.01-4.33-.21-6.56l-2.8 6.04c-.46 1.02-.95 2.03-1.38 3.07-.2.49-.48.7-1.04.67-1.16-.06-2.52.32-3.44-.15-.88-.46-1.02-1.91-1.49-2.93-.99-2.19-1.95-4.4-2.96-6.69-.32.39-.17.78-.18 1.12-.01 2.56-.04 5.13.01 7.7.02.77-.21 1.01-.97.95-.81-.06-1.64-.05-2.45 0-.72.05-1.02-.12-1.01-.94.03-6.68.03-13.37 0-20.06 0-.76.26-.92.94-.89 1.28.06 2.8-.37 3.78.18.99.55 1.16 2.18 1.68 3.35l4.7 10.64zM269.28 13.26c-1.35 2.95-2.72 5.89-4.03 8.85-.31.7-.72.85-1.46.98-2.6.46-3.9-.62-4.68-3.06-.74-2.31-1.92-4.48-3.04-7-.05.55-.09.82-.1 1.08 0 2.65-.01 5.29.02 7.93 0 .7-.07 1.1-.93 1.02-1.07-.12-2.47.43-3.15-.2-.68-.65-.2-2.07-.2-3.14-.03-5.76 0-11.51-.04-17.27 0-.96.2-1.19 1.23-1.33 2.75-.39 4.13.64 5.03 3.27 1.1 3.25 2.71 6.33 4.1 9.49.19.4.4.8.68 1.4l3-6.7c.96-2.17 1.93-4.32 2.86-6.5.27-.65.6-.98 1.37-.92.96.08 1.94.07 2.9 0 .83-.06 1.06.21 1.05 1.03-.04 4.24-.02 8.48-.02 12.72 0 2.4-.03 4.82.02 7.23.01.72-.2.96-.92.91-1.12-.07-2.58.36-3.27-.2-.73-.6-.2-2.11-.22-3.23-.03-2.1 0-4.2 0-6.3l-.2-.06zM250.8 12.4a11.15 11.15 0 0 1-22.3-.09c.03-6.18 5-11.07 11.26-11.06a11.06 11.06 0 0 1 11.04 11.16zm-11.08 6.7a6.8 6.8 0 0 0 6.75-6.72 6.82 6.82 0 0 0-6.72-6.77 6.77 6.77 0 0 0-6.8 6.8 6.77 6.77 0 0 0 6.77 6.7zM333.15 12.48c0 3.25-.03 6.5.02 9.75.01.83-.15 1.2-1.06 1.1-.85-.09-1.71-.06-2.57 0-.64.03-.76-.23-.76-.81.02-6.8.02-13.6 0-20.4 0-.65.23-.77.8-.76 2.65.02 5.3-.03 7.93.02a7.22 7.22 0 0 1 3.36 13.38c-.84.49-.94.8-.44 1.61 1.4 2.23 2.68 4.51 4.11 6.94-1.57 0-2.95-.02-4.33.01-.58.02-.7-.41-.9-.76l-5.93-10.12-.23.04zm2.3-1.11c.63 0 1.25.03 1.87-.01a2.81 2.81 0 0 0 2.59-2.55 2.8 2.8 0 0 0-2.07-2.87c-.44-.1-.92-.09-1.38-.09-1.04 0-2.4-.36-3.05.16-.76.6-.22 2.02-.25 3.08-.05 2.28-.01 2.28 2.3 2.28zM304.05 9.75v6.88a7.07 7.07 0 0 1-7.02 6.96c-3.9.07-7.3-2.96-7.36-6.76-.08-4.9 0-9.8-.03-14.7 0-.62.2-.8.8-.77 1.2.06 2.73-.37 3.5.21.74.56.22 2.18.22 3.34.03 3.77.01 7.54.02 11.31 0 1.72 1.06 2.9 2.62 2.92 1.63.04 2.8-1.15 2.81-2.88.01-4.63.03-9.26-.01-13.89-.01-.83.22-1.08 1.03-1.01.81.06 1.64.07 2.45 0 .86-.1 1.01.26 1 1.04-.06 2.45-.03 4.9-.03 7.35z" clip-rule="evenodd" fill="#fff" fill-rule="evenodd"/>
  <path d="M229.08 7.44h-4.86c-.4.01-.64-.2-.93-.4a6.63 6.63 0 1 0-8.93 9.74 6.6 6.6 0 0 0 8.96.89c.43-.32.83-.49 1.37-.48 1.43.03 2.87.01 4.32.01-1.16 3.84-6.3 6.67-11.1 6.15a11.05 11.05 0 0 1-9.78-10.1 11.06 11.06 0 1 1 20.95-5.81zM140.86 14.45c1.14-1.06 1.86-2.43 2.76-3.67 2.1-2.93 4.14-5.9 6.21-8.86.42-.6 3.15-1.1 3.73-.7.28.2.19.5.19.76l.01 20.28c0 .6-.16.83-.79.8-.85-.06-1.7-.07-2.56 0-.77.06-.87-.3-.88-.95-.01-2.41-.04-2.41-2.5-2.41-.36 0-.71.05-1.05 0-2.53-.4-4.56.16-5.56 2.8-.15.38-.45.56-.91.55-1.4-.03-2.78 0-4.17 0-.19-.49.17-.7.35-.96l4.8-6.87c.17-.24.48-.43.4-.8zm8.69-4.34l-.23-.06-3.8 5.2c1.3 0 2.33-.01 3.37.02.5 0 .67-.17.67-.67-.03-1.5-.01-3-.01-4.49zM316.58 12.35c0-3.34.02-6.68-.02-10.02 0-.74.15-1 .94-.98 3.23.05 6.45.04 9.68 0 .66 0 1 .09.93.87-.08.85-.06 1.72 0 2.57.05.7-.18.94-.9.92-1.8-.05-3.58.02-5.37-.03-.72-.02-.97.2-.9.93.1 1.26-.54 2.9.25 3.67.63.61 2.28.18 3.48.2.85 0 1.71.05 2.56-.02.77-.07.92.24.87.92-.07 1.12.35 2.58-.2 3.27-.6.72-2.12.17-3.24.21-.97.04-1.94.03-2.91 0-.56-.01-.8.1-.83.75-.13 3.38-.16 3.38 3.23 3.38 1.05 0 2.1.03 3.15-.01.59-.02.83.15.8.78a34.1 34.1 0 0 0 0 2.91c.02.52-.17.65-.67.65-3.38-.02-6.76-.03-10.14 0-.69.02-.73-.29-.73-.82.02-3.39.02-6.77.02-10.15zM274.84 12.08c0-3.3.03-6.6-.02-9.9-.01-.84.23-1.06 1.04-1.02 2.32.12 4.67-.22 6.97.16a7.14 7.14 0 0 1 6 8.09 7.15 7.15 0 0 1-7.48 6.2c-2.07-.06-2.07-.06-2.07 2.02 0 1.51-.03 3.03 0 4.54.02.62-.09.93-.8.88-1.16-.07-2.67.38-3.39-.2-.76-.6-.22-2.17-.24-3.31-.04-2.49-.01-4.97-.01-7.46zm4.44-3.62v.46c0 2.29 0 2.29 2.28 2.25 1.72-.02 2.91-1.2 2.88-2.81-.04-1.85-1.3-2.67-4.06-2.68-2.21 0-.61 1.68-1.1 2.43-.05.08 0 .23 0 .35z" clip-rule="evenodd" fill="#fff" fill-rule="evenodd"/>
  <path d="M140.9 14.42c-2.18 0-4.36.05-6.54 0-.73 0-1 .15-.97.95.06 2.25 0 4.5.03 6.76.01.69-.13.98-.89.93-1.11-.09-2.57.35-3.27-.2-.76-.6-.24-2.12-.24-3.23-.03-5.8 0-11.58-.03-17.38 0-.87.22-1.11 1.1-1.1 3.26.06 6.53.05 9.8 0 .76 0 1.02.23.96.99-.08 1.08.33 2.48-.2 3.16-.58.72-2.04.18-3.12.23-1.08.04-2.18.04-3.26 0-.62-.03-.93.08-.88.8.06.97.05 1.94 0 2.91-.03.62.17.8.78.78 1.94-.04 3.89.01 5.83-.03.66-.01.87.18.85.85-.04 1.2 0 2.4.01 3.61zM206.57 1.18c-.88 1.76-1.67 3.39-2.48 5a1124.4 1124.4 0 0 1-4.17 8.19c-.26.5-.35 1.01-.35 1.57.02 2.06-.02 4.12.02 6.18.01.69-.14 1-.9.94-.85-.07-1.71-.07-2.56 0-.71.05-.95-.17-.93-.9.05-2.02 0-4.05.03-6.07a3.87 3.87 0 0 0-.47-1.88l-6.19-12.26c-.1-.2-.18-.41-.34-.77 1.56 0 3.02.02 4.47-.01.64-.02.73.47.93.87l3.83 7.7c1.04-2.16 2.19-4.08 2.92-6.16.72-2.03 1.9-2.77 3.94-2.42.67.11 1.37.02 2.25.02zM312.3 14.56c0 2.6-.02 5.2.02 7.8.02.78-.2 1.03-.97.97-1.12-.08-2.6.36-3.27-.2-.71-.6-.2-2.12-.21-3.24-.03-4.35-.03-8.7 0-13.06.01-.79-.15-1.05-1-1.04-2.53.03-2.53-.01-2.53-2.5 0-1.92 0-1.92 1.86-1.92 2.92 0 5.83.02 8.75-.02.7 0 1.06.1.99.93-.08.88-.08 1.79 0 2.68.06.77-.26.88-.93.87-.88-.02-2.1-.41-2.56.18-.44.55-.14 1.7-.14 2.6v5.95zM183.35 12.06c0-3.3.02-6.6-.02-9.91 0-.72.13-1.06.94-.99.85.08 1.72.08 2.57 0 .85-.08 1 .27 1 1.05-.03 5.13 0 10.26-.03 15.39-.01.89.18 1.25 1.14 1.18 1.16-.09 2.33 0 3.5-.03.55-.01.87.09.84.75-.05.93-.05 1.87 0 2.8.03.65-.28.76-.84.75-2.76-.02-5.52-.03-8.28 0-.67.02-.84-.2-.83-.85.03-3.38.01-6.76.01-10.14zM182.62 12.1c0 3.31-.03 6.62.01 9.92.02.82-.2 1.1-1.03 1.04-.85-.07-1.71-.07-2.56 0-.83.07-1.05-.22-1.04-1.04.04-4.4.02-8.78.02-13.18 0-2.25.03-4.5-.02-6.76-.01-.72.19-.97.92-.92.93.06 1.86.06 2.8 0 .72-.05.92.2.91.92-.03 3.34-.01 6.69-.01 10.03z" clip-rule="evenodd" fill="#fff" fill-rule="evenodd"/>
  <path d="M55.14 4.64h32.2c5.54 0 9.13 3.55 9.15 9.1.02 9.57.01 19.14-.02 28.7 0 .87.25 1.3 1.04 1.67 6.69 3.15 9.81 10.53 7.2 17.03a13.04 13.04 0 0 1-7.23 7.22c-.77.33-1.02.73-1 1.54.04 3.54.04 7.08 0 10.62-.02.9.22 1.25 1.15 1.45 3.95.83 5.9 4.01 5.01 7.8-.5 2.17-3.3 4.33-5.54 4.36-9.3.13-18.59.1-27.88.15-.9 0-1.33-.2-1.67-1.12-3.93-10.48-16.53-10.49-21.85-4.83a14.42 14.42 0 0 0-3.16 5.12c-.21.6-.47.83-1.15.83-7.46-.04-14.93-.03-22.4-.06-1.94-.01-3.88-.13-5.82-.15a5.77 5.77 0 0 1-5.79-5.51c-.17-3.4 1.68-5.86 5.15-6.58.98-.2 1.23-.56 1.21-1.52a408.6 408.6 0 0 1 0-10.74c0-.69-.23-1-.86-1.3-5.06-2.29-8.16-6.1-8.26-11.77-.1-5.8 2.97-9.81 7.93-12.47.88-.47 1.2-.9 1.2-1.91-.05-9.45-.03-18.9-.03-28.36 0-3.13.96-5.8 3.6-7.68a8.92 8.92 0 0 1 5.38-1.6c10.81.02 21.62.01 32.44.01zm38.63 33.1c0-10.13-7.99-18.2-18.05-18.2a18.19 18.19 0 0 0-.08 36.35 18.07 18.07 0 0 0 18.13-18.14zm-41.08-.02A18.1 18.1 0 0 0 34.7 19.54a18.17 18.17 0 1 0-.39 36.35 18.15 18.15 0 0 0 18.38-18.17z" clip-rule="evenodd" fill="#f1bc17" fill-rule="evenodd"/>
  <path d="M527.32 43.1c.5-.92.83-1.76 1.43-2.42 1.66-1.85 3.64-2.95 6.21-2.91 4.05.05 8.1 0 12.14.01 4.08 0 6.36 2.25 6.36 6.36.01 16.84 0 33.68.02 50.52 0 .83-.22 1.03-1.03 1.02-3.07-.05-6.14-.05-9.21 0-.92.02-1.15-.22-1.15-1.14.03-13.77.02-27.53.02-41.3 0-1.36 0-2.7-.9-3.89-1.27-1.65-4.05-1.54-5.87-.96-1.72.54-2.8 2.2-2.8 4.16v32.08c0 3.39-.02 6.77.02 10.15 0 .74-.2.9-.91.9-3-.04-5.99-.07-8.98 0-.99.03-1.11-.32-1.11-1.17.02-13.73.01-27.46.02-41.2 0-1.33-.11-2.63-.89-3.78-1.16-1.72-3.08-2.3-5.5-1.63a4.36 4.36 0 0 0-3.18 4.13c-.03 2.41 0 4.82 0 7.24 0 11.74-.02 23.49.02 35.23 0 1-.28 1.2-1.22 1.18-2.72-.06-5.44-.04-8.17 0-.68 0-.92-.14-.92-.9.02-18.81.02-37.64 0-56.46 0-.76.2-.98.97-.99 5.29-.01 10.58 0 15.86-.16 3.99-.12 6.64 1.68 8.36 5.13l.41.8zM378.46 64.15v24.5c0 4.68-2.35 7-7.04 7-7.08 0-14.16 0-21.23.03-.84 0-1.15-.14-1.12-1.06.08-2.3.08-4.6 0-6.89-.03-.95.2-1.25 1.2-1.23 3.61.06 7.23.03 10.85.02 1.45 0 2.86-.15 4.1-1.07a4.45 4.45 0 0 0 1.93-3.66c.02-1.17-.05-2.33.02-3.5.04-.76-.26-.9-.94-.89-4.12.03-8.25.02-12.37.02-4.76 0-7.4-2.64-7.4-7.43 0-10.38.01-20.77-.03-31.15 0-1.03.24-1.3 1.27-1.28 2.8.08 5.6.08 8.4 0 1.01-.02 1.2.31 1.19 1.25-.04 7.74-.03 15.47-.02 23.22 0 .7.07 1.4.18 2.08a3.71 3.71 0 0 0 3.11 3.2c3.31.7 6.02-.84 6.59-3.74.08-.42.07-.85.07-1.28 0-7.85.02-15.7-.01-23.56 0-.91.22-1.18 1.14-1.16 3 .06 6 .06 8.99 0 .91-.02 1.15.22 1.14 1.14-.03 8.48-.02 16.96-.02 25.44zM227.93 60.49l-8.88-5.32c-.24-.14-.46-.31-.7-.41-1.75-.72-2.57-1.81-2.39-3.88.18-2.08-2.08-3.83-4.36-3.76-2.9.1-4.56 1.82-4.57 4.7 0 1.67.05 3.35-.01 5.02-.04.83.22 1.32.94 1.77 4.86 3.08 9.67 6.22 14.5 9.33a15.89 15.89 0 0 1 4.4 3.93c.74 1 1.1 2.1 1.08 3.36-.05 4.51.04 9.03-.06 13.53-.1 4.58-2.76 7.08-7.3 7.1h-16.8c-4.1 0-7.95-2.65-7.8-7.81.13-4.47.12-8.94.17-13.4 0-.38.04-.76.08-1.32l5.98 3.57c1.36.82 2.72 1.65 4.1 2.43.55.3.8.67.74 1.3-.06.5-.02 1.01-.01 1.52a4.65 4.65 0 0 0 4.77 4.68c2.6.02 4.83-1.96 4.92-4.46.08-1.98 0-3.96.05-5.94.02-.65-.38-.87-.8-1.14l-14.68-9.47a14.36 14.36 0 0 1-3.17-2.72 7.67 7.67 0 0 1-1.97-5.43c.1-4.62.03-9.25.03-13.88a6.69 6.69 0 0 1 6.65-6.67h17.03a7.92 7.92 0 0 1 8.06 7.99v15.38zM336.38 60.49l-4.12-2.44c-2.13-1.28-4.22-2.63-6.4-3.8-1.1-.6-1.59-1.29-1.44-2.55a3.7 3.7 0 0 0-1.49-3.6c-1.63-1.22-3.38-1.22-5.17-.42-1.72.78-2.43 2.14-2.33 4.03.09 1.7.07 3.43 0 5.13-.03.83.21 1.3.94 1.77 5.04 3.2 10.05 6.47 15.07 9.7 1.06.69 2 1.5 2.87 2.38a6.52 6.52 0 0 1 2.05 5c-.12 4.5.04 9.02-.13 13.52-.16 4.22-2.78 6.61-7 6.64-5.75.03-11.5.03-17.26 0-4.2-.04-7.69-3-7.55-7.56.15-4.73.13-9.48.19-14.22 0-.19.04-.37.09-.7l7.46 4.44c.2.12.39.27.6.35 2.03.81 3.03 2.08 2.77 4.49-.19 1.73 1.06 3 2.69 3.72 1.94.85 3.72.43 5.35-.8a4.27 4.27 0 0 0 1.64-3.58c.02-1.83-.03-3.66.02-5.48.02-.63-.3-.89-.75-1.17-4.92-3.17-9.84-6.37-14.77-9.53-1.3-.83-2.41-1.82-3.39-3a7.22 7.22 0 0 1-1.74-4.92c.07-4.67.02-9.34.02-14a6.69 6.69 0 0 1 6.8-6.77c5.56 0 11.12-.02 16.68 0a8.67 8.67 0 0 1 7.24 3.79c.75 1.02.99 2.2 1 3.4.08 5.25.12 10.5.17 15.75 0 .1-.05.2-.11.43zM419.85 60.48l-11.34-6.8c-.38-.22-.55-.5-.52-.93.02-.31 0-.63 0-.94 0-2.26-.86-3.67-2.64-4.34a5.33 5.33 0 0 0-5.65 1.38 3.28 3.28 0 0 0-.73 2.17c-.01 2.1.02 4.2-.03 6.3-.01.64.34.87.78 1.15l15.26 9.85c1.22.79 2.3 1.74 3.25 2.82a5.86 5.86 0 0 1 1.61 4.22c-.09 4.4-.02 8.79-.03 13.19 0 4.63-2.66 7.3-7.32 7.3-5.4.01-10.81-.08-16.22.03-4.23.09-8.65-2.22-8.38-8.43.2-4.35.15-8.7.17-13.06 0-.95.17-1.06.98-.57 3.05 1.87 6.12 3.7 9.2 5.5.53.31.8.65.73 1.29-.05.5-.01 1 0 1.51a4.66 4.66 0 0 0 4.75 4.7c2.63.04 4.89-2 4.96-4.55.06-1.94-.02-3.89.03-5.83.01-.64-.35-.87-.79-1.15-4.9-3.15-9.77-6.33-14.68-9.47a15.26 15.26 0 0 1-3-2.56 7.84 7.84 0 0 1-2.2-5.7c.09-4.51.06-9.02.02-13.53-.03-3.13 2.54-7.02 6.94-6.94 5.64.1 11.28.02 16.92.03 3.48.01 7.18 2.71 7.75 5.8.24 1.31.17 2.7.18 4.06.02 4.46 0 8.92 0 13.5zM248.45 61.67c2.71-2.6 5.46-5.23 8.22-7.85.44-.4.56-.87.57-1.45.01-4.55.09-9.1.07-13.64 0-.88.22-1.1 1.1-1.08 2.87.06 5.74.05 8.62 0 .77 0 1.07.12 1.06.99-.04 5.99-.03 11.97 0 17.96 0 .66-.28 1.08-.67 1.53-2.12 2.43-4.2 4.9-6.34 7.3-.5.56-.48.89.01 1.44 2.06 2.32 4.06 4.7 6.1 7.04.45.52.7 1.03.7 1.76-.03 6.18-.03 12.37 0 18.55 0 .8-.18 1.05-1 1.03-3.16-.05-6.3-.05-9.46 0-.85.02-1.01-.27-1-1.06.03-4.7 0-9.4.03-14.11 0-.67-.18-1.14-.68-1.6-2.56-2.37-5.08-4.79-7.82-7.39v1.44c0 7.2-.02 14.39.02 21.58 0 .85-.17 1.13-1.07 1.1-2.92-.06-5.83-.05-8.75 0-.77.01-.95-.22-.95-.97.02-18.66.02-37.32 0-55.99 0-.76.2-.97.96-.95 3 .04 6 .04 8.98 0 .73-.01.9.18.9.9.08 7.07.19 14.14.3 21.2.01.85.08 1.69.1 2.27z" clip-rule="evenodd" fill="#fdfdfd" fill-rule="evenodd"/>
  <path d="M466.69 67.2c0-9.46.01-18.9-.02-28.35 0-.86.17-1.1 1.06-1.1 7.16.05 14.31.04 21.47.01.79 0 1.06.17 1.04 1.01a177 177 0 0 0 0 7.82c.02.84-.25 1.02-1.04 1.01-3.46-.04-6.93 0-10.39-.04-.78 0-.95.23-.94.97.03 4.2.04 8.4 0 12.6-.01.79.23.95.97.94 3.5-.04 7 0 10.5-.03.77-.01 1.07.12 1.05.99a189.4 189.4 0 0 0 0 8.05c.01.8-.18 1.04-1.01 1.03-3.58-.05-7.16 0-10.73-.04-.76 0-.98.19-.98.96.04 4.12.04 8.24 0 12.37 0 .73.22.91.93.9 3.54-.03 7.08.01 10.62-.03.83-.01 1.03.24 1.02 1.04-.05 2.8-.05 5.6 0 8.4 0 .74-.22.9-.92.9a2464 2464 0 0 0-21.58 0c-.88.01-1.08-.2-1.07-1.07.03-9.45.02-18.9.02-28.35zM437.05 71.63c0-7.7-.02-15.4.02-23.1 0-.85-.18-1.13-1.08-1.1-1.94.08-3.89-.02-5.83.04-.82.03-.94-.31-.93-1.02.03-2.56.05-5.13-.01-7.7-.02-.87.22-1.1 1.1-1.1 4.74.05 9.48.02 14.23.02 3.73 0 7.46.02 11.2-.01.68 0 .93.14.92.88-.05 2.8-.04 5.6 0 8.4 0 .65-.17.86-.84.85-2.1-.05-4.2.04-6.3-.05-.99-.03-1.2.26-1.2 1.22.03 15.05.02 30.1.02 45.14 0 .23-.03.47.01.7.13.76-.25.88-.92.87-3.11-.03-6.22-.05-9.33 0-.87.03-1.09-.18-1.08-1.06.04-7.66.02-15.32.02-22.98z" clip-rule="evenodd" fill="#fefefe" fill-rule="evenodd"/>
  <path d="M132.05 66.59c0-9.41.02-18.82-.03-28.22 0-1.06.3-1.3 1.29-1.3 8.08.01 16.17-.02 24.25-.02 2.34 0 3.93 1.31 5.13 3.15a9.1 9.1 0 0 1 1.48 5.06v42.22a8.32 8.32 0 0 1-8.53 8.52c-7.46 0-14.93-.02-22.4.02-.95 0-1.22-.24-1.21-1.21.03-9.4.02-18.82.02-28.22zm10.92-.53h.2c0 6.07.02 12.13-.03 18.2 0 .97.31 1.16 1.19 1.11 1.24-.06 2.48-.01 3.73-.02 2.04 0 3.42-1.04 4.01-3.02.25-.83.29-1.68.29-2.54V52.85c0-.39-.01-.78-.04-1.16a4.83 4.83 0 0 0-5.06-4.7c-1.05 0-2.1.06-3.15-.02-.9-.06-1.17.2-1.16 1.14.05 5.98.02 11.97.02 17.95zM174.45 66.42c0-9.18.01-18.35-.03-27.53 0-.93.26-1.14 1.15-1.13 3.27.06 6.54.04 9.8 0 .73 0 1 .15 1 .95-.03 18.5-.03 37.02 0 55.52 0 .84-.26 1.03-1.05 1.02-3.23-.04-6.46-.06-9.68 0-.96.02-1.22-.2-1.22-1.19.04-9.21.03-18.43.03-27.64z" clip-rule="evenodd" fill="#fdfdfd" fill-rule="evenodd"/>
  <path d="M93.77 37.75a18.07 18.07 0 0 1-18.13 18.14 18.19 18.19 0 1 1 .08-36.35 18.02 18.02 0 0 1 18.05 18.2zm-33.59-3.06c2.76-1.46 4.66-1.35 6.08.36a4.1 4.1 0 0 1 .04 5.25c-1.45 1.78-3.35 1.9-6.16.38.07 6.58 8.08 13.06 15.98 12.93 8.66-.14 15.58-7.57 15.37-16.49-.21-8.65-7.61-15.56-16.4-15.3-7.35.21-15.13 6.94-14.9 12.87zM52.7 37.72A18.14 18.14 0 0 1 34.3 55.9a18.17 18.17 0 1 1 .4-36.35c9.93.02 18 8.17 17.98 18.18zM50 34.84c-.38-5.1-6-13.15-15.76-13.03a15.98 15.98 0 0 0-15.67 16.1c.15 8.91 7.6 15.97 16.57 15.7 7.23-.21 15.02-7.03 14.82-12.97-2.62 1.61-4.67 1.47-6.22-.44a4.08 4.08 0 0 1 .2-5.25c1.58-1.72 3.67-1.76 6.06-.1z" clip-rule="evenodd" fill="#282320" fill-rule="evenodd"/>
  <path d="M142.97 66.06c0-5.98.03-11.97-.02-17.95 0-.94.26-1.2 1.16-1.14 1.04.08 2.1.02 3.15.02a4.83 4.83 0 0 1 5.06 4.7c.03.38.03.77.03 1.16v26.94c0 .86-.03 1.71-.27 2.54-.6 1.98-1.98 3.02-4.02 3.02-1.25 0-2.5-.05-3.73.02-.88.05-1.2-.14-1.19-1.12.05-6.06.03-12.12.03-18.19h-.2zm3 .2v15.06c0 1.07.41 1.4 1.5 1.19 1.25-.24 1.83-1.11 1.84-2.84V66.5 52.72c0-1.46-.69-2.34-1.9-2.52-1.15-.17-1.43.08-1.43 1.25v14.82z" clip-rule="evenodd" fill="#292526" fill-rule="evenodd"/>
  <path d="M60.18 34.7c-.22-5.94 7.56-12.67 14.9-12.88 8.8-.26 16.2 6.65 16.4 15.3.22 8.92-6.7 16.35-15.36 16.5-7.9.12-15.91-6.36-15.97-12.94 2.8 1.52 4.7 1.4 6.15-.38a4.1 4.1 0 0 0-.04-5.25c-1.42-1.7-3.32-1.82-6.08-.36zM50.01 34.84c-2.39-1.65-4.48-1.61-6.06.11a4.08 4.08 0 0 0-.2 5.25c1.55 1.91 3.6 2.05 6.22.44.2 5.94-7.59 12.76-14.82 12.97a16.03 16.03 0 0 1-16.57-15.7c-.14-8.68 6.99-15.99 15.67-16.1 9.75-.12 15.38 7.92 15.76 13.03z" clip-rule="evenodd" fill="#f1bc17" fill-rule="evenodd"/>
</svg>
