<svg xmlns="http://www.w3.org/2000/svg" viewBox="0 0 285.75 95.25" height="360" width="1080">
  <defs>
    <clipPath id="a">
      <path d="M0 452h610V0H0z"/>
    </clipPath>
  </defs>
  <g fill="#fff">
    <circle r="6.735" cy="57.57" cx="216.347"/>
    <circle r="6.735" cy="57.57" cx="184.916"/>
    <circle r="6.735" cy="42.603" cx="200.896"/>
    <circle r="6.735" cy="72.666" cx="200.896"/>
    <path d="M124.117 65.68h9.79v5.953h-9.79zM147.798 64.621v7.276l11.244-3.571-11.244-3.705zM77.021 40.875h11.51v9.062l-5.755 5.683-5.755-5.683zM77.021 74.742h11.51V65.68l-5.755-5.683-5.755 5.683zM65.843 63.563v-11.51h9.062l5.683 5.755-5.683 5.755zM99.71 52.054v11.51h-9.062l-5.683-5.756 5.683-5.754zM83.709 14.79c-.183 0-.36.004-.541.005l-.29.003-.252.002c-1.419.024-2.698.087-3.82.227a16.83 16.83 0 0 0-2.86.597l-.053.013c-.576.148-1.102.291-1.59.503-.49.212-.941.493-1.308.77-.366.276-.647.549-.852.827-.206.277-.336.56-.43.813-.093.254-.15.478-.178.59l-.029.112.554-.18c.553-.179 1.66-.537 3.118-.896a40.996 40.996 0 0 1 5.16-.928c1.177-.13 2.38-.199 3.533-.228 1.153.03 2.357.098 3.533.228 1.895.21 3.703.57 5.16.928 1.459.359 2.565.717 3.119.897l.553.179-.029-.112c-.028-.112-.085-.336-.178-.59a3.227 3.227 0 0 0-.43-.813 4.168 4.168 0 0 0-.852-.828 6.509 6.509 0 0 0-1.307-.77c-.489-.21-1.014-.354-1.591-.502l-.053-.013a16.83 16.83 0 0 0-2.86-.597c-1.122-.14-2.4-.203-3.82-.227-.082 0-.168 0-.252-.002l-.29-.003a71.286 71.286 0 0 0-.703-.003l-.162-.001zM199.347 14.79c-.182 0-.36.004-.541.005l-.29.003-.252.002c-1.419.024-2.698.086-3.82.227a16.83 16.83 0 0 0-2.86.597l-.053.013c-.576.148-1.102.291-1.59.503-.49.212-.941.493-1.308.77-.366.276-.647.549-.852.827-.206.277-.336.56-.43.813-.093.253-.15.478-.178.59l-.029.112.554-.18c.553-.179 1.66-.537 3.118-.896a40.996 40.996 0 0 1 5.16-.928c1.177-.13 2.38-.199 3.533-.228 1.154.03 2.357.098 3.533.228 1.895.21 3.703.57 5.16.928 1.459.359 2.566.717 3.119.897l.553.179-.028-.112c-.029-.112-.086-.337-.18-.59a3.227 3.227 0 0 0-.428-.813 4.168 4.168 0 0 0-.853-.828 6.509 6.509 0 0 0-1.307-.77c-.489-.21-1.014-.354-1.59-.502l-.054-.013a16.83 16.83 0 0 0-2.86-.597c-1.122-.14-2.4-.203-3.82-.227-.082-.001-.168 0-.251-.002l-.29-.003a71.284 71.284 0 0 0-.704-.003l-.162-.001z"/>
  </g>
</svg>
