<svg xmlns="http://www.w3.org/2000/svg" viewBox="0 0 229.45 42.25" height="159.68" width="867.2">
  <path d="M33.15 42.2c-3.99-.36-6.86-1.24-8.96-2.75-1.95-1.4-2.58-3.3-1.67-5.06.45-.89 1.85-2.02 3.43-2.78 1.42-.68 3.75-1.3 5.97-1.57a35.3 35.3 0 0 1 6.14.05c3.03.42 5.29 1.18 7.15 2.4.81.53 1.7 1.48 2.05 2.21.26.52.28.62.28 1.4 0 .82-.01.88-.3 1.4-1.2 2.23-4.73 3.96-9.22 4.54-.99.13-4.1.22-4.87.15zm87.44-7.7c-2.28-.29-4.2-.55-4.25-.59-.06-.03-.1-.37-.1-.86 0-.64.03-.8.14-.85.07-.03 2.08.17 4.46.43 3.63.4 4.36.5 4.45.62.12.17.14 1.4.01 1.64-.05.1-.17.16-.31.15-.13 0-2.1-.25-4.4-.54zm-55.98.35c-.07-.08-.1-.44-.08-1.08l.03-.96h1.6c.99-.01 1.8-.06 2.08-.13 1.54-.35 2.38-1.2 2.6-2.6l.05-.36h-2.97c-2.43 0-2.98-.02-3.06-.12-.06-.08-.09-.43-.07-1.04l.02-.92 3.79-.02 3.78-.02.1.18c.17.31.05 2.53-.17 3.3l-.23.8c-.03.13.21.53.9 1.48.52.72.93 1.36.91 1.43-.02.11-.19.14-.97.16a4.55 4.55 0 0 1-1.11-.06 2.91 2.91 0 0 1-.53-.64c-.2-.3-.42-.55-.48-.55-.05 0-.28.14-.5.3-.53.4-1.3.77-1.88.88-.25.05-1.19.09-2.08.09-1.3 0-1.65-.03-1.73-.12zm23.99.03c-1.27-.13-2.02-.46-2.69-1.17-.8-.86-.99-1.63-.99-4.05 0-.98.02-1.85.05-1.92.04-.11.2-.14.88-.14.68 0 .84.03.88.14.03.07.05.86.05 1.75 0 .92.04 1.77.1 1.96.12.45.68.99 1.18 1.14.2.06.62.13.92.16.3.02.58.08.62.13.03.06.06.49.06.96 0 .67-.03.9-.13 1-.07.07-.18.12-.23.12l-.7-.08zm10.6 0c-.12-.08-.14-.22-.14-1 0-.6.04-.95.1-1.01.08-.08.7-.1 2.31-.1 2.56 0 2.88-.06 3.47-.6.47-.43.73-1.03.79-1.83l.04-.62h-3.47c-3.05 0-3.5-.02-3.61-.13-.1-.1-.14-.32-.14-.89 0-.4.03-.8.05-.88.05-.12.52-.13 4.4-.13 3.88 0 4.34.01 4.4.13.1.3.04 3.37-.09 3.92a4.11 4.11 0 0 1-3.17 3.1c-.65.15-4.68.18-4.93.04zm9.22-.05c-.17-.16-.19-1.55-.03-1.7.07-.08.46-.11 1.23-.11h1.12l.13-.25c.07-.14.13-.36.13-.5 0-.48.08-.5 1.54-.54a6.68 6.68 0 0 0 1.41-.1c.05-.05.1-.17.11-.26.03-.17-.02-.17-2.98-.2-2.7-.01-3.01-.03-3.1-.16a3.83 3.83 0 0 1-.04-1.61c.05-.08.88-.1 3.87-.08l3.8.02.02 1.35c.02 1.22.01 1.38-.14 1.63-.32.51-1.58 1.04-2.52 1.04-.55 0-.7.08-.91.5-.23.45-.66.89-1 1.02-.14.05-.75.09-1.37.09-.92 0-1.16-.03-1.27-.14zm17.67.07c-.08-.06-.1-.33-.09-1.08l.03-1.01 3.72-.04 3.73-.05v-2.96l-3.64-.02c-2.78-.02-3.65-.05-3.7-.13-.08-.12-.1-1.6-.02-1.79.05-.12.53-.13 4.6-.13h4.57l.05.36c.03.2.04 1.8.03 3.56-.03 2.73-.05 3.2-.16 3.27-.15.1-8.97.11-9.12.02zm10-.04a8.18 8.18 0 0 1-.01-1.13l.02-1 3.05-.05 3.05-.04.4-.23c.83-.5 1-.99 1-3.03 0-1.05.02-1.52.1-1.6.13-.13 1.35-.13 1.49 0 .16.17.14 3.73-.04 4.31a4.02 4.02 0 0 1-2.13 2.56l-.57.28-3.15.02c-2.6.02-3.17 0-3.2-.09zm-56.23-.07c-.07-.08-.1-.4-.1-1.01 0-.63.03-.93.1-1 .06-.04.4-.1.75-.12.84-.05 1.43-.35 1.76-.9.22-.38.22-.43.26-2.21l.05-1.82.84-.03c.61-.01.85 0 .9.09.04.06.08.87.08 1.8 0 1.42-.03 1.82-.17 2.35-.4 1.56-1.18 2.36-2.67 2.72-.78.2-1.67.25-1.8.13zm-29.88-1.7c-.21-.05-.48-.2-.69-.4-.33-.3-.34-.32-.57-1.57a8.56 8.56 0 0 0-1.18-3.43 9.65 9.65 0 0 0-1.9-2.4c-.87-.83-1.78-1.49-2.76-1.99a14 14 0 0 0-3-.95c-1.54-.27-1.87-.5-1.93-1.35-.04-.57.16-1.93.4-2.68.44-1.32 1.71-3.3 2.73-4.23.7-.65 2.1-1.6 2.89-1.97A9.95 9.95 0 0 1 49.15 11c1.88 0 3.32.34 4.96 1.17a11.22 11.22 0 0 1 6.05 8.02c.18 1.03.18 2.91 0 3.89a11.31 11.31 0 0 1-5.47 7.76c-1.6.94-3.66 1.48-4.7 1.25zm70.65-.96c-2.27-.3-4.18-.55-4.26-.58-.1-.04-.12-.2-.1-.88l.02-.82.68.01c.37.01 2.37.21 4.44.44 3.2.36 3.78.44 3.87.57.13.18.15 1.4.02 1.65-.05.1-.17.16-.31.15-.13 0-2.09-.25-4.36-.54zm-47.51 0c-.1-.28-.06-1.71.06-1.81.09-.07 1.07-.09 3.5-.07l3.37.02v1.95l-3.44.02c-3.08.02-3.44 0-3.5-.12zm16.43-.01c-.1-.1-.06-1.77.04-1.88.14-.13 6.52-.14 6.77-.01.14.08.16.18.16.88 0 .44-.02.86-.05.93-.05.12-.43.13-3.46.13-1.87 0-3.43-.02-3.46-.05zm-78.63-.89c-.72-.02-1.64-.11-2.05-.18-3.17-.6-5.18-1.3-6.74-2.4a4.86 4.86 0 0 1-1.38-1.29 2.96 2.96 0 0 1-.67-1.62c-.1-.7.01-1.89.23-2.32.41-.79 1.95-2.03 3.5-2.8 1.27-.64 3.8-1.3 6.01-1.58 1.16-.15 4.69-.15 5.84 0 3.93.48 7.02 1.73 8.7 3.5a3.39 3.39 0 0 1 1.11 2.54c.03.77.01.86-.22 1.36-.3.63-1.27 1.7-2 2.2-1.58 1.08-3.17 1.68-5.8 2.21-1.8.36-3.96.49-6.53.38zm109.43-1.36a62.42 62.42 0 0 1-4.08-.6c-.15-.12-.15-1.53 0-1.66.17-.13 8.75.82 8.92.99.12.12.17 1.39.07 1.66-.08.2-.5.17-4.9-.39zm-32.7.23a1.6 1.6 0 0 1-.7-1.19c0-.43.32-.95.73-1.2.99-.57 2.16.2 2.05 1.36a1.3 1.3 0 0 1-1.27 1.22c-.37.02-.51-.01-.8-.19zm1.06-.82c.06-.06.1-.2.1-.32 0-.29-.14-.43-.43-.43-.24 0-.41.2-.41.46 0 .31.52.51.74.29zm57.93.37a1.71 1.71 0 0 1-.18-2.99c.22-.15.44-.2.87-.23.5-.03.63 0 .96.19.98.57 1.15 1.91.35 2.71-.59.6-1.26.7-2 .32zm1.19-.44c0-.11-.53-.85-.61-.85-.04 0-.07.15-.07.33 0 .22-.04.35-.13.38-.07.03-.11.1-.08.14.07.1.89.11.89 0zm-1.19-1.07c0-.6-.02-.8-.1-.77-.16.05-.32.4-.32.73 0 .3.22.86.35.86.04 0 .07-.37.07-.82zm1.87.48c.14-.34.06-1-.15-1.2-.15-.15-.15-.15-.12.19.02.26-.01.39-.14.53l-.18.18.17.28c.22.34.28.34.42.02zm-.85-.93c0-.05-.1-.09-.21-.09-.12 0-.21.04-.21.09 0 .04.1.08.2.08.12 0 .22-.04.22-.08zm-.1-.74a.7.7 0 0 0-.3 0c-.08.02-.02.04.14.04.17 0 .23-.02.15-.04zm-11.44 2.71c-.1-.1-.07-1.76.04-1.87.16-.16 5.26-.15 5.4.01.06.08.09.43.07 1l-.02.88-2.72.02c-1.5.01-2.74 0-2.77-.04zm64.03-4.19c-1.57-.33-3.04-1.1-3.72-1.95a5.7 5.7 0 0 1-1.12-3.67 4.98 4.98 0 0 1 3.42-5.1 8.74 8.74 0 0 1 3.75-.5 6.9 6.9 0 0 1 2.2.27c2.3.68 3.8 2.31 4.04 4.4a5.9 5.9 0 0 1-1.57 4.96c-1.44 1.44-4.45 2.13-7 1.6zm2.72-2.23c.93-.1 1.83-.7 2.23-1.48.31-.61.41-1.2.36-2.1-.07-1.39-.45-2.2-1.27-2.76-.67-.45-1.26-.59-2.38-.54-1.54.07-2.33.5-2.84 1.53-.34.7-.45 1.36-.4 2.44.02.81.06.97.3 1.46.32.64.7 1 1.36 1.25.8.3 1.31.34 2.64.2zm13.3 2.14c-.08-.07-.1-1.14-.1-4.27v-4.18l-1.3.02-1.28.03-.05 4.19-.04 4.19-1.5.02a7.76 7.76 0 0 1-1.67-.07c-.17-.08-.17-.2-.17-5.41v-5.33l.19-.05c.1-.03 2.97-.04 6.37-.02l6.18.02.49.2c.73.3 1.46.87 1.84 1.46.57.88.6 1.18.57 5.45l-.02 3.73h-3.13l-.05-3.7-.04-3.68-.24-.32c-.37-.48-.86-.66-1.9-.71l-.86-.04v4.12c0 2.68-.03 4.18-.1 4.3-.07.14-.18.15-1.58.15a5.16 5.16 0 0 1-1.6-.1zm-48.47-.17c-.13-.1-.15-.42-.17-4.3l-.02-4.19h-2.54l-.02 4.21-.02 4.21-.2.05c-.1.02-.85.01-1.66-.02l-1.48-.07V14.35l6.26-.02c6.06-.02 6.28-.02 6.76.15a3.64 3.64 0 0 1 2.47 2.6c.17.64.2 7.88.03 8.05-.15.14-2.88.14-3.02 0-.07-.08-.1-1-.1-3.65 0-3.9.02-3.78-.54-4.28-.4-.34-.77-.43-1.72-.44h-.79v4.13c0 2.45-.03 4.18-.08 4.26-.11.17-2.93.23-3.16.06zm20-.03a5.7 5.7 0 0 1-2.34-1.2 5.65 5.65 0 0 1-1.6-4.55c.06-.97.22-1.6.64-2.47a4.44 4.44 0 0 1 2.69-2.39c.56-.18.68-.18 4.05-.16l3.47.03.02 1.06c.02.81 0 1.1-.09 1.16-.08.07-1.05.1-3.04.12l-2.92.03-.35.23c-.69.46-1.04 1.4-1.06 2.86-.01 1.49.37 2.33 1.29 2.8l.45.24h2.73c2 0 2.75.03 2.82.1.07.07.1.44.1 1.1 0 .9-.01 1-.16 1.09-.26.14-6.01.1-6.7-.05zm-36.87-.04a3.76 3.76 0 0 1-2.23-1.13c-.6-.65-.72-1.04-.73-2.13 0-.94 0-.95.34-1.6a3.1 3.1 0 0 1 1.7-1.58c.49-.2.58-.2 3.49-.23 2.48-.02 3-.04 3.03-.14.15-.37-.47-1.25-1.1-1.6-.33-.17-.47-.18-3.48-.22l-3.13-.04v-2.12l3.68-.02c4.1-.03 4.1-.03 5.2.55a4.61 4.61 0 0 1 2.22 2.73c.13.4.15.9.18 3.87.02 2.4 0 3.45-.06 3.57-.1.18-.12.18-4.39.17-2.36 0-4.48-.04-4.72-.08zm5.8-3.33v-1.04l-2.1-.07c-2.42-.07-2.6-.03-2.9.56-.3.58-.18 1.11.31 1.44.23.15.42.16 2.47.16h2.22zm-20.47 3.23c-.07-.07-.1-.98-.1-3.57 0-3.44 0-3.48.2-4.05a4.48 4.48 0 0 1 3.2-3.02c.3-.06 1.7-.09 4.05-.07l3.6.02V16.38l-2.88.05-2.88.04-.56.26c-.65.31-1.12.75-1.26 1.17-.2.59-.4.56 3.66.56 2.74 0 3.7.02 3.77.1.13.12.14 2.08.02 2.27-.07.1-.6.13-3.85.15l-3.77.02v1.97c0 1.42-.03 2-.1 2.07-.07.08-.54.1-1.55.1a4.86 4.86 0 0 1-1.55-.1zm42.84 0c-.07-.1-.1-1.56-.08-5.36l.02-5.24H182.41l.03 5.28c.01 4.17 0 5.3-.09 5.36-.06.03-.81.06-1.68.06-1.23 0-1.6-.02-1.68-.1zm-113.77-.09a8.36 8.36 0 0 1-.02-1.12l.03-1.01 3.77-.04c4.26-.05 4.1-.03 4.35-.72.14-.36.14-.39 0-.7-.1-.17-.3-.4-.46-.49-.28-.16-.49-.17-3.18-.21-2.77-.05-2.9-.06-3.38-.25-1.18-.47-1.94-1.86-1.8-3.29a3.4 3.4 0 0 1 1.97-2.64c.46-.17.6-.17 5.19-.15l4.71.02V16.38l-3.68.05c-3.26.03-3.71.05-3.95.18-.5.28-.68.83-.42 1.32.27.53.17.51 3.31.55 2.34.03 2.95.06 3.27.17 1.39.47 1.96 1.18 2.2 2.7a3.18 3.18 0 0 1-2.31 3.6c-.64.16-9.54.17-9.6 0zm15.3-.02a3.96 3.96 0 0 1-2.2-2.15l-.27-.55v-3.86c0-2.12.04-3.9.07-3.96.06-.08.44-.1 1.63-.08l1.56.02.04 3.76.05 3.75.35.32c.53.46.79.51 2.85.51h1.83v-4.14c0-3.41.03-4.15.12-4.23.08-.07.59-.1 1.63-.08l1.51.03v10.75l-4.4.01c-3.54.02-4.47 0-4.77-.1zm10.88 0c-.03-.08-.05-2.5-.05-5.37 0-4.37.01-5.25.11-5.33.09-.07 1.31-.09 4.64-.07l4.52.02.55.27c.3.15.73.46.96.68.8.8 1.28 2.22 1.09 3.25a3.6 3.6 0 0 1-2.38 2.81c-.44.17-.7.19-3.36.23l-2.87.04-.05 1.78-.04 1.78-1.54.02c-1.34.02-1.54 0-1.58-.11zm7.9-6.09c.3-.28.56-1.02.48-1.32a1.78 1.78 0 0 0-.62-.9c-.2-.14-.45-.15-2.35-.15H94.7l-.02 1.22c-.02.67 0 1.28.02 1.34.03.1.45.1 2.2.09l2.15-.03zm8.39 6.02a4.73 4.73 0 0 1-2.7-1.84c-.73-1.03-.97-2.1-.85-3.8.15-2.24 1.1-3.81 2.83-4.66.98-.48 1.21-.5 4.73-.5 1.88 0 3.28.03 3.35.08.16.1.24 1.83.1 2.1-.1.17-.18.18-2.91.2l-2.82.03-.43.23c-.5.26-1 .8-1.14 1.22-.19.57-.38.54 3.63.54h3.64l.05.26c.08.4.06 1.48-.03 1.72l-.08.22h-3.69c-4.16 0-3.82-.07-3.56.68.2.55.53.92 1 1.15.44.2.47.2 3.28.2 2.1 0 2.87.03 2.94.1.11.1.15 1.88.06 2.14-.05.12-.43.13-3.41.13-3.24 0-3.38-.01-4-.2zm9.03.15c-.03-.04-.06-2.47-.06-5.41 0-4.8.01-5.36.13-5.4.08-.04 2.13-.06 4.56-.06 3.7 0 4.5.02 4.92.13 1.08.28 1.99.98 2.43 1.88.26.53.28.62.28 1.46 0 1-.11 1.38-.6 2.04a3.1 3.1 0 0 1-1.43 1.05c-.26.1-.5.21-.52.24-.03.02.6.9 1.4 1.96.8 1.05 1.43 1.95 1.4 2-.03.04-.8.08-1.86.08h-1.8l-1.33-1.95-1.32-1.95-1.46.02-1.46.02-.04 1.95-.04 1.95-1.57.02c-.87.01-1.6 0-1.63-.03zm8-6.29c.47-.22.66-.52.66-1 0-.44-.29-.87-.72-1.08-.31-.16-.5-.17-2.5-.17h-2.15l-.03 1.14c-.01.62 0 1.19.02 1.25.04.1.44.11 2.18.09 2.05-.03 2.16-.04 2.55-.23zm-97.47 3.22c-.53-.3-.65-.5-.76-1.32a10.9 10.9 0 0 0-1.75-4.68 13.45 13.45 0 0 0-2.27-2.39c-1.54-1.21-3.06-1.86-5.5-2.33-1.13-.21-1.45-.6-1.37-1.63a9.46 9.46 0 0 1 2.02-5.1C19.22 2.36 21.77.79 24.5.24a8.84 8.84 0 0 1 3.03-.16c2.54.28 4.65 1.16 6.44 2.66a11.38 11.38 0 0 1 3.35 5c.68 2.08.7 4.53.05 6.78a11.53 11.53 0 0 1-7.07 7.2c-.82.27-1.1.33-1.86.35-.75.03-.94 0-1.19-.13zm199.38-6.07c-.44-.23-.8-.63-.97-1.12-.26-.73-.09-1.4.51-2.01.81-.8 1.84-.84 2.73-.1.47.4.67 1.4.44 2.2-.3 1.06-1.67 1.57-2.71 1.03zm1.41-.42c.14-.06.2-.11.15-.12-.06 0-.26-.23-.45-.51a1.9 1.9 0 0 0-.42-.51c-.05 0-.08.15-.08.33 0 .46-.07.6-.3.6-.27 0-.3-.13-.3-1.24 0-.88-.01-.97-.13-.87-.27.22-.4.6-.36 1.1.04.58.27.92.77 1.17.41.2.76.22 1.12.05zm.85-.85a1.4 1.4 0 0 0-.64-1.73c-.35-.18-1.05-.23-1.27-.09-.09.06.02.09.38.09.7 0 .88.06 1.02.34.18.36.15.65-.1.9l-.2.22.2.32c.13.18.23.38.23.43 0 .2.24-.1.38-.48zm-.98-1.01c0-.1-.1-.13-.34-.13-.24 0-.33.04-.33.13 0 .1.09.13.33.13.25 0 .34-.04.34-.13z" fill="#ebe81a"/>
  <path d="M120.6 34.5c-2.3-.29-4.2-.55-4.26-.59-.06-.03-.1-.37-.1-.86 0-.64.03-.8.14-.85.07-.03 2.08.17 4.46.43 3.63.4 4.36.5 4.45.62.12.17.14 1.4.01 1.64-.05.1-.17.16-.31.15-.13 0-2.1-.25-4.4-.54zm-56 .35c-.06-.08-.08-.44-.07-1.08l.03-.96h1.6c.99-.01 1.8-.06 2.08-.13 1.54-.35 2.38-1.2 2.6-2.6l.05-.36h-2.97c-2.43 0-2.98-.02-3.06-.12-.06-.08-.09-.43-.07-1.04l.02-.92 3.79-.02 3.78-.02.1.18c.17.31.05 2.53-.17 3.3l-.23.8c-.03.13.21.53.9 1.48.52.72.93 1.36.91 1.43-.02.11-.19.14-.97.16a4.55 4.55 0 0 1-1.11-.06 2.91 2.91 0 0 1-.53-.64c-.2-.3-.42-.55-.48-.55-.05 0-.28.14-.5.3-.53.4-1.3.77-1.88.88-.25.05-1.19.09-2.08.09-1.3 0-1.65-.03-1.73-.12zm24 .03c-1.27-.13-2.02-.46-2.69-1.17-.8-.86-.99-1.63-.99-4.05 0-.98.02-1.85.05-1.92.04-.11.2-.14.88-.14.68 0 .84.03.88.14.03.07.05.86.05 1.75 0 .92.04 1.77.1 1.96.12.45.68.99 1.18 1.14.2.06.62.13.92.16.3.02.58.08.62.13.03.06.06.49.06.96 0 .67-.03.9-.13 1-.07.07-.18.12-.23.12l-.7-.08zm10.6 0c-.12-.08-.14-.22-.14-1 0-.6.04-.95.1-1.01.08-.08.7-.1 2.31-.1 2.56 0 2.88-.06 3.47-.6.47-.43.73-1.03.79-1.83l.04-.62h-3.47c-3.05 0-3.5-.02-3.61-.13-.1-.1-.14-.32-.14-.89 0-.4.03-.8.05-.88.05-.12.52-.13 4.4-.13 3.88 0 4.34.01 4.4.13.1.3.04 3.37-.09 3.92a4.11 4.11 0 0 1-3.17 3.1c-.65.15-4.68.18-4.93.04zm9.22-.05c-.17-.16-.19-1.55-.03-1.7.07-.08.46-.11 1.23-.11h1.12l.13-.25c.07-.14.13-.36.13-.5 0-.48.08-.5 1.54-.54a6.68 6.68 0 0 0 1.41-.1c.05-.05.1-.17.11-.26.03-.17-.02-.17-2.98-.2-2.7-.01-3.01-.03-3.1-.16a3.83 3.83 0 0 1-.04-1.61c.05-.08.88-.1 3.87-.08l3.8.02.02 1.35c.02 1.22.01 1.38-.14 1.63-.32.51-1.58 1.04-2.52 1.04-.55 0-.7.08-.91.5-.23.45-.66.89-1 1.02-.14.05-.75.09-1.37.09-.92 0-1.16-.03-1.27-.14zm17.67.07c-.08-.06-.1-.33-.09-1.08l.03-1.01 3.72-.04 3.73-.05v-2.96l-3.64-.02c-2.78-.02-3.65-.05-3.7-.13-.08-.12-.1-1.6-.02-1.79.05-.12.53-.13 4.6-.13h4.57l.05.36c.03.2.04 1.8.03 3.56-.03 2.73-.05 3.2-.16 3.27-.15.1-8.97.11-9.12.02zm10-.04a8.18 8.18 0 0 1-.01-1.13l.02-1 3.05-.05 3.05-.04.4-.23c.83-.5 1-.99 1-3.03 0-1.05.02-1.52.1-1.6.13-.13 1.35-.13 1.49 0 .16.17.14 3.73-.04 4.31a4.02 4.02 0 0 1-2.13 2.56l-.57.28-3.15.02c-2.6.02-3.17 0-3.2-.09zm-56.23-.07c-.07-.08-.1-.4-.1-1.01 0-.63.03-.93.1-1 .06-.04.4-.1.75-.12.84-.05 1.43-.35 1.76-.9.22-.38.22-.43.26-2.21l.05-1.82.84-.03c.61-.01.85 0 .9.09.04.06.08.87.08 1.8 0 1.42-.03 1.82-.17 2.35-.4 1.56-1.18 2.36-2.67 2.72-.78.2-1.67.25-1.8.13zm-29.88-1.7c-.21-.05-.48-.2-.69-.4-.33-.3-.34-.32-.57-1.57a8.56 8.56 0 0 0-1.18-3.43 9.65 9.65 0 0 0-1.9-2.4c-.87-.83-1.78-1.49-2.76-1.99a14 14 0 0 0-3-.95c-1.54-.27-1.87-.5-1.93-1.35-.04-.57.16-1.93.4-2.68.44-1.32 1.71-3.3 2.73-4.23.7-.65 2.1-1.6 2.89-1.97A9.95 9.95 0 0 1 49.15 11c1.88 0 3.32.34 4.96 1.17a11.22 11.22 0 0 1 6.05 8.02c.18 1.03.18 2.91 0 3.89a11.31 11.31 0 0 1-5.47 7.76c-1.6.94-3.66 1.48-4.7 1.25zm70.65-.96c-2.27-.3-4.18-.55-4.26-.58-.1-.04-.12-.2-.1-.88l.02-.82.68.01c.37.01 2.37.21 4.44.44 3.2.36 3.78.44 3.87.57.13.18.15 1.4.02 1.65-.05.1-.17.16-.31.15-.13 0-2.09-.25-4.36-.54zm-47.51 0c-.1-.28-.06-1.71.06-1.81.09-.07 1.07-.09 3.5-.07l3.37.02v1.95l-3.44.02c-3.08.02-3.44 0-3.5-.12zm16.43-.01c-.1-.1-.06-1.77.04-1.88.14-.13 6.52-.14 6.77-.01.14.08.16.18.16.88 0 .44-.02.86-.05.93-.05.12-.43.13-3.46.13-1.87 0-3.43-.02-3.46-.05zm-78.63-.89c-.72-.02-1.64-.11-2.05-.18-3.17-.6-5.18-1.3-6.74-2.4a4.86 4.86 0 0 1-1.38-1.29 2.96 2.96 0 0 1-.67-1.62c-.1-.7.01-1.89.23-2.32.41-.79 1.95-2.03 3.5-2.8 1.27-.64 3.8-1.3 6.01-1.58 1.16-.15 4.69-.15 5.84 0 3.93.48 7.02 1.73 8.7 3.5a3.39 3.39 0 0 1 1.11 2.54c.03.77.01.86-.22 1.36-.3.63-1.27 1.7-2 2.2-1.58 1.08-3.17 1.68-5.8 2.21-1.8.36-3.96.49-6.53.38zm109.43-1.36a62.42 62.42 0 0 1-4.08-.6c-.15-.12-.15-1.53 0-1.66.17-.13 8.75.82 8.92.99.12.12.17 1.39.07 1.66-.08.2-.5.17-4.9-.39zm-32.7.23a1.6 1.6 0 0 1-.7-1.19c0-.43.32-.95.73-1.2.99-.57 2.16.2 2.05 1.36a1.3 1.3 0 0 1-1.27 1.22c-.37.02-.51-.01-.8-.19zm1.06-.82c.06-.06.1-.2.1-.32 0-.29-.14-.43-.43-.43-.24 0-.41.2-.41.46 0 .31.52.51.74.29zm57.93.37a1.71 1.71 0 0 1-.18-2.99c.22-.15.44-.2.87-.23.5-.03.63 0 .96.19.98.57 1.15 1.91.35 2.71-.59.6-1.26.7-2 .32zm1.19-.44c0-.11-.53-.85-.61-.85-.04 0-.07.15-.07.33 0 .22-.04.35-.13.38-.07.03-.11.1-.08.14.07.1.89.11.89 0zm-1.19-1.07c0-.6-.02-.8-.1-.77-.16.05-.32.4-.32.73 0 .3.22.86.35.86.04 0 .07-.37.07-.82zm1.87.48c.14-.34.06-1-.15-1.2-.15-.15-.15-.15-.12.19.02.26-.01.39-.14.53l-.18.18.17.28c.22.34.28.34.42.02zm-.85-.93c0-.05-.1-.09-.21-.09-.12 0-.21.04-.21.09 0 .04.1.08.2.08.12 0 .22-.04.22-.08zm-.1-.74a.7.7 0 0 0-.3 0c-.08.02-.02.04.14.04.17 0 .23-.02.15-.04zm-11.44 2.71c-.1-.1-.07-1.76.04-1.87.16-.16 5.26-.15 5.4.01.06.08.09.43.07 1l-.02.88-2.72.02c-1.5.01-2.74 0-2.77-.04zm64.03-4.19c-1.57-.33-3.04-1.1-3.72-1.95a5.7 5.7 0 0 1-1.12-3.67 4.98 4.98 0 0 1 3.42-5.1 8.74 8.74 0 0 1 3.75-.5 6.9 6.9 0 0 1 2.2.27c2.3.68 3.8 2.31 4.04 4.4a5.9 5.9 0 0 1-1.57 4.96c-1.44 1.44-4.45 2.13-7 1.6zm2.72-2.23c.93-.1 1.83-.7 2.23-1.48.31-.61.41-1.2.36-2.1-.07-1.39-.45-2.2-1.27-2.76-.67-.45-1.26-.59-2.38-.54-1.54.07-2.33.5-2.84 1.53-.34.7-.45 1.36-.4 2.44.02.81.06.97.3 1.46.32.64.7 1 1.36 1.25.8.3 1.31.34 2.64.2zm13.3 2.14c-.08-.07-.1-1.14-.1-4.27v-4.18l-1.3.02-1.28.03-.05 4.19-.04 4.19-1.5.02a7.76 7.76 0 0 1-1.67-.07c-.17-.08-.17-.2-.17-5.41v-5.33l.19-.05c.1-.03 2.97-.04 6.37-.02l6.18.02.49.2c.73.3 1.46.87 1.84 1.46.57.88.6 1.18.57 5.45l-.02 3.73h-3.13l-.05-3.7-.04-3.68-.24-.32c-.37-.48-.86-.66-1.9-.71l-.86-.04v4.12c0 2.68-.03 4.18-.1 4.3-.07.14-.18.15-1.58.15a5.16 5.16 0 0 1-1.6-.1zm-48.47-.17c-.13-.1-.15-.42-.17-4.3l-.02-4.19h-2.54l-.02 4.21-.02 4.21-.2.05c-.1.02-.85.01-1.66-.02l-1.48-.07V14.35l6.26-.02c6.06-.02 6.28-.02 6.76.15a3.64 3.64 0 0 1 2.47 2.6c.17.64.2 7.88.03 8.05-.15.14-2.88.14-3.02 0-.07-.08-.1-1-.1-3.65 0-3.9.02-3.78-.54-4.28-.4-.34-.77-.43-1.72-.44h-.79v4.13c0 2.45-.03 4.18-.08 4.26-.11.17-2.93.23-3.16.06zm20-.03a5.7 5.7 0 0 1-2.34-1.2 5.65 5.65 0 0 1-1.6-4.55c.06-.97.22-1.6.64-2.47a4.44 4.44 0 0 1 2.69-2.39c.56-.18.68-.18 4.05-.16l3.47.03.02 1.06c.02.81 0 1.1-.09 1.16-.08.07-1.05.1-3.04.12l-2.92.03-.35.23c-.69.46-1.04 1.4-1.06 2.86-.01 1.49.37 2.33 1.29 2.8l.45.24h2.73c2 0 2.75.03 2.82.1.07.07.1.44.1 1.1 0 .9-.01 1-.16 1.09-.26.14-6.01.1-6.7-.05zm-36.87-.04a3.76 3.76 0 0 1-2.23-1.13c-.6-.65-.72-1.04-.73-2.13 0-.94 0-.95.34-1.6a3.1 3.1 0 0 1 1.7-1.58c.49-.2.58-.2 3.49-.23 2.48-.02 3-.04 3.03-.14.15-.37-.47-1.25-1.1-1.6-.33-.17-.47-.18-3.48-.22l-3.13-.04v-2.12l3.68-.02c4.1-.03 4.1-.03 5.2.55a4.61 4.61 0 0 1 2.22 2.73c.13.4.15.9.18 3.87.02 2.4 0 3.45-.06 3.57-.1.18-.12.18-4.39.17-2.36 0-4.48-.04-4.72-.08zm5.8-3.33v-1.04l-2.1-.07c-2.42-.07-2.6-.03-2.9.56-.3.58-.18 1.11.31 1.44.23.15.42.16 2.47.16h2.22zm-20.47 3.23c-.07-.07-.1-.98-.1-3.57 0-3.44 0-3.48.2-4.05a4.48 4.48 0 0 1 3.2-3.02c.3-.06 1.7-.09 4.05-.07l3.6.02V16.38l-2.88.05-2.88.04-.56.26c-.65.31-1.12.75-1.26 1.17-.2.59-.4.56 3.66.56 2.74 0 3.7.02 3.77.1.13.12.14 2.08.02 2.27-.07.1-.6.13-3.85.15l-3.77.02v1.97c0 1.42-.03 2-.1 2.07-.07.08-.54.1-1.55.1a4.86 4.86 0 0 1-1.55-.1zm42.84 0c-.07-.1-.1-1.56-.08-5.36l.02-5.24H182.41l.03 5.28c.01 4.17 0 5.3-.09 5.36-.06.03-.81.06-1.68.06-1.23 0-1.6-.02-1.68-.1zm-113.77-.09a8.36 8.36 0 0 1-.02-1.12l.03-1.01 3.77-.04c4.26-.05 4.1-.03 4.35-.72.14-.36.14-.39 0-.7-.1-.17-.3-.4-.46-.49-.28-.16-.49-.17-3.18-.21-2.77-.05-2.9-.06-3.38-.25-1.18-.47-1.94-1.86-1.8-3.29a3.4 3.4 0 0 1 1.97-2.64c.46-.17.6-.17 5.19-.15l4.71.02V16.38l-3.68.05c-3.26.03-3.71.05-3.95.18-.5.28-.68.83-.42 1.32.27.53.17.51 3.31.55 2.34.03 2.95.06 3.27.17 1.39.47 1.96 1.18 2.2 2.7a3.18 3.18 0 0 1-2.31 3.6c-.64.16-9.54.17-9.6 0zm15.3-.02a3.96 3.96 0 0 1-2.2-2.15l-.27-.55v-3.86c0-2.12.04-3.9.07-3.96.06-.08.44-.1 1.63-.08l1.56.02.04 3.76.05 3.75.35.32c.53.46.79.51 2.85.51h1.83v-4.14c0-3.41.03-4.15.12-4.23.08-.07.59-.1 1.63-.08l1.51.03v10.75l-4.4.01c-3.54.02-4.47 0-4.77-.1zm10.88 0c-.03-.08-.05-2.5-.05-5.37 0-4.37.01-5.25.11-5.33.09-.07 1.31-.09 4.64-.07l4.52.02.55.27c.3.15.73.46.96.68.8.8 1.28 2.22 1.09 3.25a3.6 3.6 0 0 1-2.38 2.81c-.44.17-.7.19-3.36.23l-2.87.04-.05 1.78-.04 1.78-1.54.02c-1.34.02-1.54 0-1.58-.11zm7.9-6.09c.3-.28.56-1.02.48-1.32a1.78 1.78 0 0 0-.62-.9c-.2-.14-.45-.15-2.35-.15H94.7l-.02 1.22c-.02.67 0 1.28.02 1.34.03.1.45.1 2.2.09l2.15-.03zm8.39 6.02a4.73 4.73 0 0 1-2.7-1.84c-.73-1.03-.97-2.1-.85-3.8.15-2.24 1.1-3.81 2.83-4.66.98-.48 1.21-.5 4.73-.5 1.88 0 3.28.03 3.35.08.16.1.24 1.83.1 2.1-.1.17-.18.18-2.91.2l-2.82.03-.43.23c-.5.26-1 .8-1.14 1.22-.19.57-.38.54 3.63.54h3.64l.05.26c.08.4.06 1.48-.03 1.72l-.08.22h-3.69c-4.16 0-3.82-.07-3.56.68.2.55.53.92 1 1.15.44.2.47.2 3.28.2 2.1 0 2.87.03 2.94.1.11.1.15 1.88.06 2.14-.05.12-.43.13-3.41.13-3.24 0-3.38-.01-4-.2zm9.03.15c-.03-.04-.06-2.47-.06-5.41 0-4.8.01-5.36.13-5.4.08-.04 2.13-.06 4.56-.06 3.7 0 4.5.02 4.92.13 1.08.28 1.99.98 2.43 1.88.26.53.28.62.28 1.46 0 1-.11 1.38-.6 2.04a3.1 3.1 0 0 1-1.43 1.05c-.26.1-.5.21-.52.24-.03.02.6.9 1.4 1.96.8 1.05 1.43 1.95 1.4 2-.03.04-.8.08-1.86.08h-1.8l-1.33-1.95-1.32-1.95-1.46.02-1.46.02-.04 1.95-.04 1.95-1.57.02c-.87.01-1.6 0-1.63-.03zm8-6.29c.47-.22.66-.52.66-1 0-.44-.29-.87-.72-1.08-.31-.16-.5-.17-2.5-.17h-2.15l-.03 1.14c-.01.62 0 1.19.02 1.25.04.1.44.11 2.18.09 2.05-.03 2.16-.04 2.55-.23zm-97.47 3.22c-.53-.3-.65-.5-.76-1.32a10.9 10.9 0 0 0-1.75-4.68 13.45 13.45 0 0 0-2.27-2.39c-1.54-1.21-3.06-1.86-5.5-2.33-1.13-.21-1.45-.6-1.37-1.63a9.46 9.46 0 0 1 2.02-5.1C19.22 2.36 21.77.79 24.5.24a8.84 8.84 0 0 1 3.03-.16c2.54.28 4.65 1.16 6.44 2.66a11.38 11.38 0 0 1 3.35 5c.68 2.08.7 4.53.05 6.78a11.53 11.53 0 0 1-7.07 7.2c-.82.27-1.1.33-1.86.35-.75.03-.94 0-1.19-.13zm199.38-6.07c-.44-.23-.8-.63-.97-1.12-.26-.73-.09-1.4.51-2.01.81-.8 1.84-.84 2.73-.1.47.4.67 1.4.44 2.2-.3 1.06-1.67 1.57-2.71 1.03zm1.41-.42c.14-.06.2-.11.15-.12-.06 0-.26-.23-.45-.51a1.9 1.9 0 0 0-.42-.51c-.05 0-.08.15-.08.33 0 .46-.07.6-.3.6-.27 0-.3-.13-.3-1.24 0-.88-.01-.97-.13-.87-.27.22-.4.6-.36 1.1.04.58.27.92.77 1.17.41.2.76.22 1.12.05zm.85-.85a1.4 1.4 0 0 0-.64-1.73c-.35-.18-1.05-.23-1.27-.09-.09.06.02.09.38.09.7 0 .88.06 1.02.34.18.36.15.65-.1.9l-.2.22.2.32c.13.18.23.38.23.43 0 .2.24-.1.38-.48zm-.98-1.01c0-.1-.1-.13-.34-.13-.24 0-.33.04-.33.13 0 .1.09.13.33.13.25 0 .34-.04.34-.13z" fill="#43b9ea"/>
  <path d="M120.6 34.5c-2.3-.29-4.2-.55-4.26-.59-.06-.03-.1-.37-.1-.86 0-.64.03-.8.14-.85.07-.03 2.08.17 4.46.43 3.63.4 4.36.5 4.45.62.12.17.14 1.4.01 1.64-.05.1-.17.16-.31.15-.13 0-2.1-.25-4.4-.54zm-56 .35c-.06-.08-.08-.44-.07-1.08l.03-.96h1.6c.99-.01 1.8-.06 2.08-.13 1.54-.35 2.38-1.2 2.6-2.6l.05-.36h-2.97c-2.43 0-2.98-.02-3.06-.12-.06-.08-.09-.43-.07-1.04l.02-.92 3.79-.02 3.78-.02.1.18c.17.31.05 2.53-.17 3.3l-.23.8c-.03.13.21.53.9 1.48.52.72.93 1.36.91 1.43-.02.11-.19.14-.97.16a4.55 4.55 0 0 1-1.11-.06 2.91 2.91 0 0 1-.53-.64c-.2-.3-.42-.55-.48-.55-.05 0-.28.14-.5.3-.53.4-1.3.77-1.88.88-.25.05-1.19.09-2.08.09-1.3 0-1.65-.03-1.73-.12zm24 .03c-1.27-.13-2.02-.46-2.69-1.17-.8-.86-.99-1.63-.99-4.05 0-.98.02-1.85.05-1.92.04-.11.2-.14.88-.14.68 0 .84.03.88.14.03.07.05.86.05 1.75 0 .92.04 1.77.1 1.96.12.45.68.99 1.18 1.14.2.06.62.13.92.16.3.02.58.08.62.13.03.06.06.49.06.96 0 .67-.03.9-.13 1-.07.07-.18.12-.23.12l-.7-.08zm10.6 0c-.12-.08-.14-.22-.14-1 0-.6.04-.95.1-1.01.08-.08.7-.1 2.31-.1 2.56 0 2.88-.06 3.47-.6.47-.43.73-1.03.79-1.83l.04-.62h-3.47c-3.05 0-3.5-.02-3.61-.13-.1-.1-.14-.32-.14-.89 0-.4.03-.8.05-.88.05-.12.52-.13 4.4-.13 3.88 0 4.34.01 4.4.13.1.3.04 3.37-.09 3.92a4.11 4.11 0 0 1-3.17 3.1c-.65.15-4.68.18-4.93.04zm9.22-.05c-.17-.16-.19-1.55-.03-1.7.07-.08.46-.11 1.23-.11h1.12l.13-.25c.07-.14.13-.36.13-.5 0-.48.08-.5 1.54-.54a6.68 6.68 0 0 0 1.41-.1c.05-.05.1-.17.11-.26.03-.17-.02-.17-2.98-.2-2.7-.01-3.01-.03-3.1-.16a3.83 3.83 0 0 1-.04-1.61c.05-.08.88-.1 3.87-.08l3.8.02.02 1.35c.02 1.22.01 1.38-.14 1.63-.32.51-1.58 1.04-2.52 1.04-.55 0-.7.08-.91.5-.23.45-.66.89-1 1.02-.14.05-.75.09-1.37.09-.92 0-1.16-.03-1.27-.14zm17.67.07c-.08-.06-.1-.33-.09-1.08l.03-1.01 3.72-.04 3.73-.05v-2.96l-3.64-.02c-2.78-.02-3.65-.05-3.7-.13-.08-.12-.1-1.6-.02-1.79.05-.12.53-.13 4.6-.13h4.57l.05.36c.03.2.04 1.8.03 3.56-.03 2.73-.05 3.2-.16 3.27-.15.1-8.97.11-9.12.02zm10-.04a8.18 8.18 0 0 1-.01-1.13l.02-1 3.05-.05 3.05-.04.4-.23c.83-.5 1-.99 1-3.03 0-1.05.02-1.52.1-1.6.13-.13 1.35-.13 1.49 0 .16.17.14 3.73-.04 4.31a4.02 4.02 0 0 1-2.13 2.56l-.57.28-3.15.02c-2.6.02-3.17 0-3.2-.09zm-56.23-.07c-.07-.08-.1-.4-.1-1.01 0-.63.03-.93.1-1 .06-.04.4-.1.75-.12.84-.05 1.43-.35 1.76-.9.22-.38.22-.43.26-2.21l.05-1.82.84-.03c.61-.01.85 0 .9.09.04.06.08.87.08 1.8 0 1.42-.03 1.82-.17 2.35-.4 1.56-1.18 2.36-2.67 2.72-.78.2-1.67.25-1.8.13zm-29.88-1.7c-.21-.05-.48-.2-.69-.4-.33-.3-.34-.32-.57-1.57a8.56 8.56 0 0 0-1.18-3.43 9.65 9.65 0 0 0-1.9-2.4c-.87-.83-1.78-1.49-2.76-1.99a14 14 0 0 0-3-.95c-1.54-.27-1.87-.5-1.93-1.35-.04-.57.16-1.93.4-2.68.44-1.32 1.71-3.3 2.73-4.23.7-.65 2.1-1.6 2.89-1.97A9.95 9.95 0 0 1 49.15 11c1.88 0 3.32.34 4.96 1.17a11.22 11.22 0 0 1 6.05 8.02c.18 1.03.18 2.91 0 3.89a11.31 11.31 0 0 1-5.47 7.76c-1.6.94-3.66 1.48-4.7 1.25zm70.65-.96c-2.27-.3-4.18-.55-4.26-.58-.1-.04-.12-.2-.1-.88l.02-.82.68.01c.37.01 2.37.21 4.44.44 3.2.36 3.78.44 3.87.57.13.18.15 1.4.02 1.65-.05.1-.17.16-.31.15-.13 0-2.09-.25-4.36-.54zm-47.51 0c-.1-.28-.06-1.71.06-1.81.09-.07 1.07-.09 3.5-.07l3.37.02v1.95l-3.44.02c-3.08.02-3.44 0-3.5-.12zm16.43-.01c-.1-.1-.06-1.77.04-1.88.14-.13 6.52-.14 6.77-.01.14.08.16.18.16.88 0 .44-.02.86-.05.93-.05.12-.43.13-3.46.13-1.87 0-3.43-.02-3.46-.05zm-78.63-.89c-.72-.02-1.64-.11-2.05-.18-3.17-.6-5.18-1.3-6.74-2.4a4.86 4.86 0 0 1-1.38-1.29 2.96 2.96 0 0 1-.67-1.62c-.1-.7.01-1.89.23-2.32.41-.79 1.95-2.03 3.5-2.8 1.27-.64 3.8-1.3 6.01-1.58 1.16-.15 4.69-.15 5.84 0 3.93.48 7.02 1.73 8.7 3.5a3.39 3.39 0 0 1 1.11 2.54c.03.77.01.86-.22 1.36-.3.63-1.27 1.7-2 2.2-1.58 1.08-3.17 1.68-5.8 2.21-1.8.36-3.96.49-6.53.38zm109.43-1.36a62.42 62.42 0 0 1-4.08-.6c-.15-.12-.15-1.53 0-1.66.17-.13 8.75.82 8.92.99.12.12.17 1.39.07 1.66-.08.2-.5.17-4.9-.39zm-32.7.23a1.6 1.6 0 0 1-.7-1.19c0-.43.32-.95.73-1.2.99-.57 2.16.2 2.05 1.36a1.3 1.3 0 0 1-1.27 1.22c-.37.02-.51-.01-.8-.19zm1.06-.82c.06-.06.1-.2.1-.32 0-.29-.14-.43-.43-.43-.24 0-.41.2-.41.46 0 .31.52.51.74.29zm57.93.37a1.71 1.71 0 0 1-.18-2.99c.22-.15.44-.2.87-.23.5-.03.63 0 .96.19.98.57 1.15 1.91.35 2.71-.59.6-1.26.7-2 .32zm1.19-.44c0-.11-.53-.85-.61-.85-.04 0-.07.15-.07.33 0 .22-.04.35-.13.38-.07.03-.11.1-.08.14.07.1.89.11.89 0zm-1.19-1.07c0-.6-.02-.8-.1-.77-.16.05-.32.4-.32.73 0 .3.22.86.35.86.04 0 .07-.37.07-.82zm1.87.48c.14-.34.06-1-.15-1.2-.15-.15-.15-.15-.12.19.02.26-.01.39-.14.53l-.18.18.17.28c.22.34.28.34.42.02zm-.85-.93c0-.05-.1-.09-.21-.09-.12 0-.21.04-.21.09 0 .04.1.08.2.08.12 0 .22-.04.22-.08zm-.1-.74a.7.7 0 0 0-.3 0c-.08.02-.02.04.14.04.17 0 .23-.02.15-.04zm-11.44 2.71c-.1-.1-.07-1.76.04-1.87.16-.16 5.26-.15 5.4.01.06.08.09.43.07 1l-.02.88-2.72.02c-1.5.01-2.74 0-2.77-.04zm64.03-4.19c-1.57-.33-3.04-1.1-3.72-1.95a5.7 5.7 0 0 1-1.12-3.67 4.98 4.98 0 0 1 3.42-5.1 8.74 8.74 0 0 1 3.75-.5 6.9 6.9 0 0 1 2.2.27c2.3.68 3.8 2.31 4.04 4.4a5.9 5.9 0 0 1-1.57 4.96c-1.44 1.44-4.45 2.13-7 1.6zm2.72-2.23c.93-.1 1.83-.7 2.23-1.48.31-.61.41-1.2.36-2.1-.07-1.39-.45-2.2-1.27-2.76-.67-.45-1.26-.59-2.38-.54-1.54.07-2.33.5-2.84 1.53-.34.7-.45 1.36-.4 2.44.02.81.06.97.3 1.46.32.64.7 1 1.36 1.25.8.3 1.31.34 2.64.2zm13.3 2.14c-.08-.07-.1-1.14-.1-4.27v-4.18l-1.3.02-1.28.03-.05 4.19-.04 4.19-1.5.02a7.76 7.76 0 0 1-1.67-.07c-.17-.08-.17-.2-.17-5.41v-5.33l.19-.05c.1-.03 2.97-.04 6.37-.02l6.18.02.49.2c.73.3 1.46.87 1.84 1.46.57.88.6 1.18.57 5.45l-.02 3.73h-3.13l-.05-3.7-.04-3.68-.24-.32c-.37-.48-.86-.66-1.9-.71l-.86-.04v4.12c0 2.68-.03 4.18-.1 4.3-.07.14-.18.15-1.58.15a5.16 5.16 0 0 1-1.6-.1zm-48.47-.17c-.13-.1-.15-.42-.17-4.3l-.02-4.19h-2.54l-.02 4.21-.02 4.21-.2.05c-.1.02-.85.01-1.66-.02l-1.48-.07V14.35l6.26-.02c6.06-.02 6.28-.02 6.76.15a3.64 3.64 0 0 1 2.47 2.6c.17.64.2 7.88.03 8.05-.15.14-2.88.14-3.02 0-.07-.08-.1-1-.1-3.65 0-3.9.02-3.78-.54-4.28-.4-.34-.77-.43-1.72-.44h-.79v4.13c0 2.45-.03 4.18-.08 4.26-.11.17-2.93.23-3.16.06zm20-.03a5.7 5.7 0 0 1-2.34-1.2 5.65 5.65 0 0 1-1.6-4.55c.06-.97.22-1.6.64-2.47a4.44 4.44 0 0 1 2.69-2.39c.56-.18.68-.18 4.05-.16l3.47.03.02 1.06c.02.81 0 1.1-.09 1.16-.08.07-1.05.1-3.04.12l-2.92.03-.35.23c-.69.46-1.04 1.4-1.06 2.86-.01 1.49.37 2.33 1.29 2.8l.45.24h2.73c2 0 2.75.03 2.82.1.07.07.1.44.1 1.1 0 .9-.01 1-.16 1.09-.26.14-6.01.1-6.7-.05zm-36.87-.04a3.76 3.76 0 0 1-2.23-1.13c-.6-.65-.72-1.04-.73-2.13 0-.94 0-.95.34-1.6a3.1 3.1 0 0 1 1.7-1.58c.49-.2.58-.2 3.49-.23 2.48-.02 3-.04 3.03-.14.15-.37-.47-1.25-1.1-1.6-.33-.17-.47-.18-3.48-.22l-3.13-.04v-2.12l3.68-.02c4.1-.03 4.1-.03 5.2.55a4.61 4.61 0 0 1 2.22 2.73c.13.4.15.9.18 3.87.02 2.4 0 3.45-.06 3.57-.1.18-.12.18-4.39.17-2.36 0-4.48-.04-4.72-.08zm5.8-3.33v-1.04l-2.1-.07c-2.42-.07-2.6-.03-2.9.56-.3.58-.18 1.11.31 1.44.23.15.42.16 2.47.16h2.22zm-20.47 3.23c-.07-.07-.1-.98-.1-3.57 0-3.44 0-3.48.2-4.05a4.48 4.48 0 0 1 3.2-3.02c.3-.06 1.7-.09 4.05-.07l3.6.02V16.38l-2.88.05-2.88.04-.56.26c-.65.31-1.12.75-1.26 1.17-.2.59-.4.56 3.66.56 2.74 0 3.7.02 3.77.1.13.12.14 2.08.02 2.27-.07.1-.6.13-3.85.15l-3.77.02v1.97c0 1.42-.03 2-.1 2.07-.07.08-.54.1-1.55.1a4.86 4.86 0 0 1-1.55-.1zm42.84 0c-.07-.1-.1-1.56-.08-5.36l.02-5.24H182.41l.03 5.28c.01 4.17 0 5.3-.09 5.36-.06.03-.81.06-1.68.06-1.23 0-1.6-.02-1.68-.1zm-113.77-.09a8.36 8.36 0 0 1-.02-1.12l.03-1.01 3.77-.04c4.26-.05 4.1-.03 4.35-.72.14-.36.14-.39 0-.7-.1-.17-.3-.4-.46-.49-.28-.16-.49-.17-3.18-.21-2.77-.05-2.9-.06-3.38-.25-1.18-.47-1.94-1.86-1.8-3.29a3.4 3.4 0 0 1 1.97-2.64c.46-.17.6-.17 5.19-.15l4.71.02V16.38l-3.68.05c-3.26.03-3.71.05-3.95.18-.5.28-.68.83-.42 1.32.27.53.17.51 3.31.55 2.34.03 2.95.06 3.27.17 1.39.47 1.96 1.18 2.2 2.7a3.18 3.18 0 0 1-2.31 3.6c-.64.16-9.54.17-9.6 0zm15.3-.02a3.96 3.96 0 0 1-2.2-2.15l-.27-.55v-3.86c0-2.12.04-3.9.07-3.96.06-.08.44-.1 1.63-.08l1.56.02.04 3.76.05 3.75.35.32c.53.46.79.51 2.85.51h1.83v-4.14c0-3.41.03-4.15.12-4.23.08-.07.59-.1 1.63-.08l1.51.03v10.75l-4.4.01c-3.54.02-4.47 0-4.77-.1zm10.88 0c-.03-.08-.05-2.5-.05-5.37 0-4.37.01-5.25.11-5.33.09-.07 1.31-.09 4.64-.07l4.52.02.55.27c.3.15.73.46.96.68.8.8 1.28 2.22 1.09 3.25a3.6 3.6 0 0 1-2.38 2.81c-.44.17-.7.19-3.36.23l-2.87.04-.05 1.78-.04 1.78-1.54.02c-1.34.02-1.54 0-1.58-.11zm7.9-6.09c.3-.28.56-1.02.48-1.32a1.78 1.78 0 0 0-.62-.9c-.2-.14-.45-.15-2.35-.15H94.7l-.02 1.22c-.02.67 0 1.28.02 1.34.03.1.45.1 2.2.09l2.15-.03zm8.39 6.02a4.73 4.73 0 0 1-2.7-1.84c-.73-1.03-.97-2.1-.85-3.8.15-2.24 1.1-3.81 2.83-4.66.98-.48 1.21-.5 4.73-.5 1.88 0 3.28.03 3.35.08.16.1.24 1.83.1 2.1-.1.17-.18.18-2.91.2l-2.82.03-.43.23c-.5.26-1 .8-1.14 1.22-.19.57-.38.54 3.63.54h3.64l.05.26c.08.4.06 1.48-.03 1.72l-.08.22h-3.69c-4.16 0-3.82-.07-3.56.68.2.55.53.92 1 1.15.44.2.47.2 3.28.2 2.1 0 2.87.03 2.94.1.11.1.15 1.88.06 2.14-.05.12-.43.13-3.41.13-3.24 0-3.38-.01-4-.2zm9.03.15c-.03-.04-.06-2.47-.06-5.41 0-4.8.01-5.36.13-5.4.08-.04 2.13-.06 4.56-.06 3.7 0 4.5.02 4.92.13 1.08.28 1.99.98 2.43 1.88.26.53.28.62.28 1.46 0 1-.11 1.38-.6 2.04a3.1 3.1 0 0 1-1.43 1.05c-.26.1-.5.21-.52.24-.03.02.6.9 1.4 1.96.8 1.05 1.43 1.95 1.4 2-.03.04-.8.08-1.86.08h-1.8l-1.33-1.95-1.32-1.95-1.46.02-1.46.02-.04 1.95-.04 1.95-1.57.02c-.87.01-1.6 0-1.63-.03zm8-6.29c.47-.22.66-.52.66-1 0-.44-.29-.87-.72-1.08-.31-.16-.5-.17-2.5-.17h-2.15l-.03 1.14c-.01.62 0 1.19.02 1.25.04.1.44.11 2.18.09 2.05-.03 2.16-.04 2.55-.23zm101.9-2.85c-.43-.23-.79-.64-.96-1.12-.26-.73-.09-1.4.51-2.01.81-.8 1.84-.84 2.73-.1.47.4.67 1.4.44 2.2-.3 1.06-1.67 1.57-2.71 1.03zm1.42-.42c.14-.06.2-.11.15-.12-.06 0-.26-.23-.45-.51a1.9 1.9 0 0 0-.42-.51c-.05 0-.08.15-.08.33 0 .46-.07.6-.3.6-.27 0-.3-.13-.3-1.25 0-.87-.01-.96-.13-.86-.27.22-.4.6-.36 1.1.04.58.27.92.77 1.17.41.2.76.22 1.12.05zm.85-.85a1.4 1.4 0 0 0-.64-1.73c-.35-.18-1.05-.23-1.27-.09-.09.06.02.09.38.09.7 0 .88.06 1.02.34.18.36.15.65-.1.9l-.2.22.2.32c.13.18.23.38.23.43 0 .2.24-.1.38-.48zm-.98-1.01c0-.1-.1-.13-.34-.13-.24 0-.33.04-.33.13 0 .1.09.13.33.13.25 0 .34-.04.34-.13z" fill="#9f9f9f"/>
  <path d="M120.72 34.42c-2.27-.3-4.19-.56-4.26-.58-.18-.07-.19-1.48-.01-1.55.15-.06 8.63.89 8.71.98.04.03.06.42.04.86-.02.72-.04.8-.19.8-.1.02-2.03-.22-4.3-.51zm-56.02.4c-.08-.06-.1-.32-.08-.99l.02-.91 1.7-.02c1.55-.02 1.74-.04 2.33-.23 1.36-.45 2.1-1.29 2.25-2.56l.05-.48h-2.91c-2.22 0-2.95-.02-3.07-.1-.12-.1-.14-.23-.12-.96l.03-.84 3.7-.02 3.7-.03.1.24A9.43 9.43 0 0 1 72 31.9c-.03.14.18.5.9 1.51.75 1.02.94 1.34.84 1.4-.16.1-1.65.1-1.85-.01a3.62 3.62 0 0 1-.58-.68 3.9 3.9 0 0 0-.49-.6c-.02 0-.19.12-.36.25-.49.39-.94.65-1.49.86-.46.18-.67.2-2.33.23-1 .02-1.87 0-1.93-.04zm34.58-.07c-.18-.17-.2-1.66-.03-1.8.07-.06.97-.1 2.48-.12 2.25-.02 2.38-.03 2.72-.2.9-.5 1.3-1.13 1.36-2.28l.05-.72h-3.44c-1.89 0-3.5-.02-3.56-.05-.11-.04-.14-.2-.14-.93v-.88h8.54l.06.3c.03.17.04 1.04.02 1.93-.04 1.37-.08 1.7-.23 2.12a3.98 3.98 0 0 1-3.1 2.64c-.88.18-4.55.18-4.73-.01zm9.23 0c-.1-.1-.14-.3-.14-.73 0-.93-.01-.92 1.26-.92 1.26 0 1.32-.02 1.48-.77l.1-.45 1.34-.05c1.3-.04 1.35-.05 1.5-.24.1-.11.16-.27.15-.34-.03-.12-.38-.14-3.08-.18l-3.04-.04-.03-.83-.02-.82 3.75.02 3.75.02.02 1.35.02 1.34-.38.37c-.43.42-1.18.7-2.08.76-.85.07-.86.08-1.13.58-.46.9-.84 1.06-2.35 1.06-.79 0-1.02-.02-1.12-.13zm17.66.06c-.08-.05-.1-.31-.08-1l.02-.92 3.73-.04 3.72-.04v-3.13l-3.63-.03c-2.78-.01-3.66-.04-3.7-.12a5.72 5.72 0 0 1-.03-1.63c.05-.12.53-.13 4.53-.13h4.48v3.5c0 3.12-.01 3.52-.13 3.56-.2.08-8.78.06-8.9-.02zm10.01-.04a7.18 7.18 0 0 1-.02-1.04l.03-.92 3.04-.04c3.36-.05 3.29-.04 3.83-.61.54-.58.57-.71.62-2.57l.04-1.7h1.44v2.04c0 1.92-.01 2.06-.2 2.52a3.85 3.85 0 0 1-2.36 2.26c-.49.16-.71.17-3.45.17-2.34 0-2.93-.02-2.97-.1zm-56.24-.08c-.06-.06-.1-.42-.1-.97 0-.86.02-.93.29-.87.21.03 1.29-.2 1.57-.34.34-.17.72-.57.88-.92.05-.13.11-1 .14-2l.04-1.78.78-.02.79-.03v1.99c0 1.7-.02 2.06-.16 2.5-.31.99-.78 1.57-1.62 2-.72.36-2.4.65-2.61.44zm7.8-.06c-1.48-.39-2.19-1.1-2.57-2.6a8.66 8.66 0 0 1-.16-2.36c0-.94.02-1.78.05-1.85.04-.1.2-.13.8-.13.6 0 .75.02.79.13.03.07.05.87.05 1.77 0 .99.04 1.74.1 1.91.26.78.97 1.24 2.05 1.33.35.02.64.08.65.12a63.58 63.58 0 0 1 0 1.76c-.01.14-1.1.1-1.76-.08zm-38.11-1.8c-.44-.2-.57-.4-.65-.91-.14-.96-.47-2.39-.67-2.9a12.19 12.19 0 0 0-3.27-4.42 11.3 11.3 0 0 0-5.29-2.37c-1.7-.3-1.93-.66-1.6-2.56.3-1.74.98-3.13 2.4-4.88.57-.7 2.3-2 3.35-2.54a10.33 10.33 0 0 1 5.63-1.14 9.7 9.7 0 0 1 4.38 1.08c1.85.9 3.03 1.88 4.3 3.6a11.48 11.48 0 0 1 1.86 4.48 14 14 0 0 1 0 3.74c-.64 3.68-3.2 6.9-6.59 8.32-1.67.7-3.1.88-3.85.5zm71.12-.78c-2.3-.3-4.23-.56-4.3-.59-.17-.06-.17-1.47 0-1.54.16-.06 8.61.87 8.7.96.04.05.07.44.05.88-.02.63-.05.8-.15.8-.07.01-2-.22-4.3-.51zm-47.55-.01c-.1-.25-.05-1.44.06-1.59.1-.13.38-.14 3.4-.12l3.3.02v1.78l-3.35.02c-3 .02-3.36.01-3.4-.11zm16.43 0a4 4 0 0 1-.05-.9v-.83l3.4.02 3.41.02.03.68c.01.37 0 .76-.02.87l-.05.19h-3.33c-1.83 0-3.36-.03-3.39-.06zm-78.54-.89a21.5 21.5 0 0 1-5.81-1.1C2.99 29.34 1.07 28 .45 26.67L.14 26c-.15-.3-.1-1.77.06-2.08.08-.14.14-.3.14-.35 0-.24 1.12-1.38 1.83-1.87a15.45 15.45 0 0 1 6.54-2.4c6.56-1.05 13.74.64 15.98 3.78.52.73.71 1.3.71 2.14 0 .6-.03.73-.3 1.27-.71 1.42-2.67 2.82-5 3.58-1.02.33-2.81.74-4.06.92-.95.14-3.4.22-4.95.16zm109.4-1.38a84.47 84.47 0 0 1-4.14-.59c-.07-.04-.1-.29-.1-.73 0-.43.03-.69.1-.74.07-.06 1.53.08 4.43.4l4.34.5s.02.39.02.85v.85h-.32c-.17-.01-2.13-.25-4.34-.54zm-32.66.34c-.32-.15-.6-.49-.72-.9-.08-.28-.07-.4.05-.72.21-.55.63-.85 1.2-.85.5 0 .8.17 1.11.64.68 1-.5 2.32-1.64 1.83zm.92-.8c.33-.36.13-.86-.34-.86-.46 0-.7.52-.39.86.18.2.56.2.73 0zm58.12.37a1.58 1.58 0 0 1-1.07-1.57c0-.94.66-1.6 1.6-1.6a1.64 1.64 0 0 1 1.48 2.37 2 2 0 0 1-1.03.83c-.41.12-.58.11-.98-.03zm1.13-.43c.43-.22.62-.52.65-1.04.03-.38 0-.54-.14-.76-.67-1.07-2.38-.62-2.38.63 0 1.01.97 1.62 1.87 1.17zm-.4-.59c-.35-.49-.53-.5-.53-.04 0 .28-.03.34-.17.34-.16 0-.17-.06-.17-.9v-.88h.58c.45 0 .6.03.72.15.19.21.17.58-.03.76-.21.18-.21.23 0 .53.18.25.16.42-.03.42-.06 0-.23-.17-.38-.38zm.19-.97c0-.15-.53-.23-.66-.1-.15.15.03.28.35.25.2-.02.3-.07.3-.15zm-11.6 1.83a5.07 5.07 0 0 1-.03-.87l.03-.75h5.33v1.69l-2.65.02c-2.15.02-2.65 0-2.69-.09zm64.09-4.12c-3.35-.69-4.87-2.43-4.87-5.6 0-2.32.95-3.86 2.94-4.79 1.1-.51 1.89-.65 3.66-.66 1.88 0 2.53.12 3.73.7.66.31.92.5 1.44 1.03a4.3 4.3 0 0 1 1.46 3.56c0 1.22-.14 1.93-.54 2.74a4.62 4.62 0 0 1-2.2 2.26 8.82 8.82 0 0 1-5.62.76zm3.22-2.2c1.34-.42 2.07-1.56 2.07-3.23 0-1.77-.58-2.85-1.85-3.45-.45-.2-.55-.22-1.7-.22-1.18 0-1.26 0-1.76.24a3.2 3.2 0 0 0-1.46 1.43c-.4.92-.46 2.93-.11 3.72a3.05 3.05 0 0 0 2.32 1.67 6.9 6.9 0 0 0 2.49-.17zm12.72 2.18c-.01-.01-.04-1.95-.06-4.3l-.05-4.27-1.28-.03c-1-.02-1.3 0-1.37.1-.07.08-.1 1.32-.12 4.25l-.02 4.14-.64.03c-.35.02-1.06 0-1.58-.03l-.96-.06V14.64l6.42.03 6.41.02.57.27c1.07.5 1.8 1.45 2.01 2.57.05.28.08 1.92.07 4.1l-.03 3.64h-2.96l-.04-3.64c-.04-3.39-.06-3.66-.2-3.9-.41-.64-1.03-.88-2.23-.88-.43 0-.8 0-.8.02-.02.01-.05 1.93-.07 4.25l-.05 4.24-1.5.02h-1.52zm-65.26-.32c-2-.3-3.14-1.58-3.03-3.38.1-1.55.98-2.62 2.48-3.02.31-.09 1.17-.12 3.28-.12 2.41 0 2.87-.02 2.91-.12.08-.2-.4-1.13-.71-1.41-.61-.54-.61-.54-4-.58l-3.09-.05v-1.94l3.6-.03 3.6-.02.68.21c1.6.5 2.76 1.73 3.08 3.26.07.33.1 1.52.07 3.86l-.02 3.38-4.2.01c-2.3.01-4.4-.02-4.65-.05zm5.62-2.08c.12-.05.14-.23.14-1.14 0-.7-.04-1.1-.1-1.14-.04-.03-1.04-.08-2.22-.1l-2.13-.05-.3.2c-.82.57-.76 1.72.11 2.11.32.15.57.17 2.37.17 1.1 0 2.06-.02 2.13-.05zm6.57 2.08l-1.48-.04V14.44h12.7l.64.3a3.45 3.45 0 0 1 2.02 2.57c.06.31.1 1.86.1 4.12 0 3.22-.02 3.62-.14 3.66-.26.1-2.7.06-2.81-.05-.08-.07-.1-1-.1-3.67v-3.58l-.28-.36c-.44-.57-.79-.7-1.92-.74-.73-.02-.98 0-1.03.09a66.2 66.2 0 0 0-.08 4.24v4.13l-1.54-.02-1.55-.03-.04-4.23-.04-4.23h-2.71l-.02 4.2c-.02 3.26-.05 4.21-.13 4.23-.06.02-.77.01-1.59 0zm24.05-.11a4.61 4.61 0 0 1-1.92-1.21c-2.38-2.4-1.73-7.33 1.16-8.8.9-.45 1.05-.47 4.7-.44l3.38.02.03.96c.01.64-.01 1-.08 1.08-.08.1-.61.12-2.93.12-2.62 0-2.85.01-3.14.16-.9.46-1.32 1.43-1.32 3.1 0 1.2.18 1.78.73 2.38.64.7.7.7 3.78.7 2.2 0 2.72.03 2.8.13.06.08.09.43.07 1.03l-.02.92-3.35.02c-3.3.02-3.35.02-3.9-.17zm-50.95.06c-.08-.04-.1-.8-.1-3.45 0-3.79 0-3.82.57-4.92.37-.7.99-1.36 1.63-1.72.86-.5 1.25-.53 5.16-.5l3.51.02v1.86l-2.87.04-2.88.04-.58.29c-.67.34-1.21.88-1.29 1.31-.11.6-.35.56 3.65.56 2.32 0 3.66.03 3.77.09.14.08.16.18.16 1.04 0 .52-.03 1-.07 1.05-.05.08-.95.11-3.83.13l-3.76.02-.02 1.98a10.57 10.57 0 0 1-.12 2.1c-.07.08-.42.11-1.46.1-.75 0-1.41-.02-1.47-.04zm42.83-.06c-.07-.09-.09-1.54-.07-5.27l.02-5.16h3.3l.02 5.2c.02 4.1 0 5.22-.08 5.27-.06.04-.78.07-1.6.07-1.16 0-1.52-.02-1.59-.11zm-113.77-.08a7.18 7.18 0 0 1-.01-1.04l.02-.93 3.8-.04 3.8-.04.28-.31c.54-.6.44-1.3-.24-1.69-.35-.2-.4-.2-3.2-.25-2.72-.04-2.85-.05-3.34-.24-.69-.27-1.3-.9-1.56-1.58a4.05 4.05 0 0 1-.06-2.32c.22-.59.7-1.24 1.13-1.52.8-.53.72-.52 5.79-.5l4.6.03v1.86l-3.68.04c-2.68.03-3.73.07-3.86.15-.1.05-.29.22-.41.37-.2.24-.23.33-.2.68.03.26.13.5.27.7l.23.3h2.56c1.4 0 2.8.04 3.09.09 1.26.2 1.95.66 2.4 1.59.27.54.28.6.28 1.54 0 .93 0 1-.27 1.54-.41.83-1.11 1.37-2.07 1.59-.22.05-2.2.08-4.83.08-3.62 0-4.48-.01-4.52-.1zm15.32-.02a3.73 3.73 0 0 1-2.16-1.98l-.28-.56-.02-3.77c-.02-2.07 0-3.85.02-3.96.05-.19.05-.2 1.55-.17l1.5.03.04 3.7c.05 4.23 0 3.97.85 4.4l.45.24h3.95v-4.1c0-3.14.02-4.12.1-4.23.1-.13.27-.14 1.55-.12l1.44.02v10.58l-4.32.02c-3.38.01-4.4 0-4.67-.1zm10.86 0c-.03-.08-.05-2.46-.05-5.29 0-4.3.02-5.16.12-5.24.08-.08 1.29-.1 4.55-.08l4.43.03.56.26c.66.32 1.08.66 1.42 1.2.53.82.75 1.82.6 2.65a3.54 3.54 0 0 1-1.75 2.48c-.8.4-.94.42-3.96.47l-2.88.05-.04 1.78-.04 1.77-1.46.03c-1.26.02-1.45 0-1.5-.12zm7.7-5.8c.32-.19.72-.93.72-1.34a1.5 1.5 0 0 0-.8-1.2c-.3-.15-.57-.17-2.3-.17-1.09 0-2.03.02-2.1.05-.12.05-.14.25-.14 1.38 0 .74.03 1.36.06 1.4.03.02 1.01.05 2.18.05 1.94 0 2.15-.02 2.39-.16zm8.58 5.73a4.71 4.71 0 0 1-3.43-3.44c-.17-.7-.12-2.74.1-3.52a4.96 4.96 0 0 1 3.8-3.6c.53-.09 6.45-.12 6.69-.03.11.04.13.22.13 1.1v1.05h-2.65c-2.95 0-3.23.04-3.88.54-.4.3-.98 1.3-.89 1.53.05.12.46.13 3.74.13h3.69l-.03 1-.02 1-3.73.03-3.72.05.03.25a2.4 2.4 0 0 0 1.24 1.74c.3.15.6.16 3.18.16 2.1 0 2.87.03 2.94.1.1.11.15 1.72.05 1.97-.05.12-.41.14-3.32.13-3.14 0-3.3-.01-3.92-.2zm9.04.14c-.03-.03-.05-2.43-.05-5.33 0-4.72 0-5.27.13-5.32.07-.02 2.08-.05 4.47-.05 4.7 0 4.83.01 5.74.48.65.33 1.28.96 1.56 1.58.22.47.24.62.24 1.37 0 .8-.01.9-.27 1.42-.18.35-.43.7-.67.9-.38.34-1.17.77-1.41.77a.32.32 0 0 0-.21.11c-.07.08.26.57 1.34 2a31.73 31.73 0 0 1 1.44 1.96c0 .05-.68.08-1.76.06l-1.76-.02-1.3-1.93-1.32-1.93-1.52.03-1.53.02-.04 1.95-.04 1.94-1.5.03c-.8.01-1.5 0-1.54-.04zm7.62-5.97c.24-.06.51-.21.72-.4.3-.29.33-.36.33-.74 0-.57-.22-.96-.68-1.22-.38-.2-.42-.2-2.52-.24-1.58-.02-2.18 0-2.27.08-.1.08-.12.36-.12 1.3 0 .67.02 1.23.05 1.26.1.1 4.08.07 4.5-.04zm102.34-3.1a2.02 2.02 0 0 1-1.1-2.04c.2-1.13 1.45-1.88 2.48-1.5 1.2.47 1.65 1.75 1 2.82a1.93 1.93 0 0 1-2.38.71zm1.47-.37a1.53 1.53 0 1 0-1.76-2.44c-.6.6-.62 1.45-.06 2.09.49.55 1.15.68 1.82.35zm-1.42-1.38v-1.06h.67c.6 0 .7.02.8.19.2.27.17.6-.07.82-.25.24-.26.32-.04.6.09.11.16.28.16.36 0 .29-.25.14-.56-.32-.38-.58-.62-.63-.62-.13 0 .4-.07.6-.22.6-.1 0-.12-.22-.12-1.06zm1.13-.32c.28-.2.09-.4-.38-.4-.38 0-.4.01-.4.2 0 .11.04.23.1.25.2.08.54.05.68-.05z" fill="#7bc149"/>
  <path d="M120.72 34.42c-2.27-.3-4.19-.56-4.26-.58-.18-.07-.19-1.48-.01-1.55.15-.06 8.63.89 8.71.98.04.03.06.42.04.86-.02.72-.04.8-.19.8-.1.02-2.03-.22-4.3-.51zm-56.02.4c-.08-.06-.1-.32-.08-.99l.02-.91 1.7-.02c1.55-.02 1.74-.04 2.33-.23 1.36-.45 2.1-1.29 2.25-2.56l.05-.48h-2.91c-2.22 0-2.95-.02-3.07-.1-.12-.1-.14-.23-.12-.96l.03-.84 3.7-.02 3.7-.03.1.24A9.43 9.43 0 0 1 72 31.9c-.03.14.18.5.9 1.51.75 1.02.94 1.34.84 1.4-.16.1-1.65.1-1.85-.01a3.62 3.62 0 0 1-.58-.68 3.9 3.9 0 0 0-.49-.6c-.02 0-.19.12-.36.25-.49.39-.94.65-1.49.86-.46.18-.67.2-2.33.23-1 .02-1.87 0-1.93-.04zm34.58-.07c-.18-.17-.2-1.66-.03-1.8.07-.06.97-.1 2.48-.12 2.25-.02 2.38-.03 2.72-.2.9-.5 1.3-1.13 1.36-2.28l.05-.72h-3.44c-1.89 0-3.5-.02-3.56-.05-.11-.04-.14-.2-.14-.93v-.88h8.54l.06.3c.03.17.04 1.04.02 1.93-.04 1.37-.08 1.7-.23 2.12a3.98 3.98 0 0 1-3.1 2.64c-.88.18-4.55.18-4.73-.01zm9.23 0c-.1-.1-.14-.3-.14-.73 0-.93-.01-.92 1.26-.92 1.26 0 1.32-.02 1.48-.77l.1-.45 1.34-.05c1.3-.04 1.35-.05 1.5-.24.1-.11.16-.27.15-.34-.03-.12-.38-.14-3.08-.18l-3.04-.04-.03-.83-.02-.82 3.75.02 3.75.02.02 1.35.02 1.34-.38.37c-.43.42-1.18.7-2.08.76-.85.07-.86.08-1.13.58-.46.9-.84 1.06-2.35 1.06-.79 0-1.02-.02-1.12-.13zm17.66.06c-.08-.05-.1-.31-.08-1l.02-.92 3.73-.04 3.72-.04v-3.13l-3.63-.03c-2.78-.01-3.66-.04-3.7-.12a5.72 5.72 0 0 1-.03-1.63c.05-.12.53-.13 4.53-.13h4.48v3.5c0 3.12-.01 3.52-.13 3.56-.2.08-8.78.06-8.9-.02zm10.01-.04a7.18 7.18 0 0 1-.02-1.04l.03-.92 3.04-.04c3.36-.05 3.29-.04 3.83-.61.54-.58.57-.71.62-2.57l.04-1.7h1.44v2.04c0 1.92-.01 2.06-.2 2.52a3.85 3.85 0 0 1-2.36 2.26c-.49.16-.71.17-3.45.17-2.34 0-2.93-.02-2.97-.1zm-56.24-.08c-.06-.06-.1-.42-.1-.97 0-.86.02-.93.29-.87.21.03 1.29-.2 1.57-.34.34-.17.72-.57.88-.92.05-.13.11-1 .14-2l.04-1.78.78-.02.79-.03v1.99c0 1.7-.02 2.06-.16 2.5-.31.99-.78 1.57-1.62 2-.72.36-2.4.65-2.61.44zm7.8-.06c-1.48-.39-2.19-1.1-2.57-2.6a8.66 8.66 0 0 1-.16-2.36c0-.94.02-1.78.05-1.85.04-.1.2-.13.8-.13.6 0 .75.02.79.13.03.07.05.87.05 1.77 0 .99.04 1.74.1 1.91.26.78.97 1.24 2.05 1.33.35.02.64.08.65.12a63.58 63.58 0 0 1 0 1.76c-.01.14-1.1.1-1.76-.08zm-38.11-1.8c-.44-.2-.57-.4-.65-.91-.14-.96-.47-2.39-.67-2.9a12.19 12.19 0 0 0-3.27-4.42 11.3 11.3 0 0 0-5.29-2.37c-1.7-.3-1.93-.66-1.6-2.56.3-1.74.98-3.13 2.4-4.88.57-.7 2.3-2 3.35-2.54a10.33 10.33 0 0 1 5.63-1.14 9.7 9.7 0 0 1 4.38 1.08c1.85.9 3.03 1.88 4.3 3.6a11.48 11.48 0 0 1 1.86 4.48 14 14 0 0 1 0 3.74c-.64 3.68-3.2 6.9-6.59 8.32-1.67.7-3.1.88-3.85.5zm71.12-.78c-2.3-.3-4.23-.56-4.3-.59-.17-.06-.17-1.47 0-1.54.16-.06 8.61.87 8.7.96.04.05.07.44.05.88-.02.63-.05.8-.15.8-.07.01-2-.22-4.3-.51zm-47.55-.01c-.1-.25-.05-1.44.06-1.59.1-.13.38-.14 3.4-.12l3.3.02v1.78l-3.35.02c-3 .02-3.36.01-3.4-.11zm16.43 0a4 4 0 0 1-.05-.9v-.83l3.4.02 3.41.02.03.68c.01.37 0 .76-.02.87l-.05.19h-3.33c-1.83 0-3.36-.03-3.39-.06zm30.85-2.27a84.47 84.47 0 0 1-4.13-.59c-.07-.04-.1-.29-.1-.73 0-.43.03-.69.1-.74.07-.06 1.53.08 4.43.4l4.34.5s.02.39.02.85v.85h-.32c-.17-.01-2.13-.25-4.34-.54zm-32.65.34c-.32-.15-.6-.49-.72-.9-.08-.28-.07-.4.05-.72.21-.55.63-.85 1.2-.85.5 0 .8.17 1.11.64.68 1-.5 2.32-1.64 1.83zm.92-.8c.33-.36.13-.86-.34-.86-.46 0-.7.52-.39.86.18.2.56.2.73 0zm58.12.37a1.58 1.58 0 0 1-1.07-1.57c0-.94.66-1.6 1.6-1.6a1.64 1.64 0 0 1 1.48 2.37 2 2 0 0 1-1.03.83c-.41.12-.58.11-.98-.03zm1.13-.43c.43-.22.62-.52.65-1.04.03-.38 0-.54-.14-.76-.67-1.07-2.38-.62-2.38.63 0 1.01.97 1.62 1.87 1.17zm-.4-.59c-.35-.49-.53-.5-.53-.04 0 .28-.03.34-.17.34-.16 0-.17-.06-.17-.9v-.88h.58c.45 0 .6.03.72.15.19.21.17.58-.03.76-.21.18-.21.23 0 .53.18.25.16.42-.03.42-.06 0-.23-.17-.38-.38zm.19-.97c0-.15-.53-.23-.66-.1-.15.15.03.28.35.25.2-.02.3-.07.3-.15zm-11.6 1.83a5.07 5.07 0 0 1-.03-.87l.03-.75h5.33v1.69l-2.65.02c-2.15.02-2.65 0-2.69-.09zm64.09-4.12c-3.35-.69-4.87-2.43-4.87-5.6 0-2.32.95-3.86 2.94-4.78 1.1-.52 1.89-.66 3.66-.67 1.88 0 2.53.12 3.73.7.66.31.92.5 1.44 1.03a4.3 4.3 0 0 1 1.46 3.56c0 1.22-.14 1.93-.54 2.74a4.62 4.62 0 0 1-2.2 2.26 8.82 8.82 0 0 1-5.62.76zm3.22-2.2c1.34-.42 2.07-1.56 2.07-3.23 0-1.77-.58-2.85-1.85-3.45-.45-.2-.55-.22-1.7-.22-1.18 0-1.26 0-1.76.24a3.2 3.2 0 0 0-1.46 1.43c-.4.92-.46 2.93-.11 3.72a3.05 3.05 0 0 0 2.32 1.67 6.9 6.9 0 0 0 2.49-.17zm12.72 2.18c-.01-.01-.04-1.95-.06-4.3l-.05-4.27-1.28-.03c-1-.02-1.3 0-1.37.1-.07.08-.1 1.32-.12 4.25l-.02 4.14-.64.03c-.35.02-1.06 0-1.58-.03l-.96-.06V14.64l6.42.03 6.41.02.57.27c1.07.5 1.8 1.45 2.01 2.57.05.28.08 1.92.07 4.1l-.03 3.64h-2.96l-.04-3.64c-.04-3.39-.06-3.66-.2-3.9-.41-.64-1.03-.88-2.23-.88-.43 0-.8 0-.8.02-.02.01-.05 1.93-.07 4.25l-.05 4.24-1.5.02h-1.52zm-65.26-.32c-2-.3-3.14-1.58-3.03-3.38.1-1.55.98-2.62 2.48-3.02.31-.09 1.17-.12 3.28-.12 2.41 0 2.87-.02 2.91-.12.08-.2-.4-1.13-.71-1.41-.61-.54-.61-.54-4-.58l-3.09-.05v-1.94l3.6-.03 3.6-.02.68.21c1.6.5 2.76 1.73 3.08 3.26.07.33.1 1.52.07 3.86l-.02 3.38-4.2.01c-2.3.01-4.4-.02-4.65-.05zm5.62-2.08c.12-.05.14-.23.14-1.14 0-.7-.04-1.1-.1-1.14-.04-.03-1.04-.08-2.22-.1l-2.13-.05-.3.2c-.82.57-.76 1.72.11 2.11.32.15.57.17 2.37.17 1.1 0 2.06-.02 2.13-.05zm6.57 2.08l-1.48-.04V14.44h12.7l.64.3a3.45 3.45 0 0 1 2.02 2.57c.06.31.1 1.86.1 4.12 0 3.22-.02 3.62-.14 3.66-.26.1-2.7.06-2.81-.05-.08-.07-.1-1-.1-3.67v-3.58l-.28-.36c-.44-.57-.79-.7-1.92-.74-.73-.02-.98 0-1.03.09a66.2 66.2 0 0 0-.08 4.24v4.13l-1.54-.02-1.55-.03-.04-4.23-.04-4.23h-2.71l-.02 4.2c-.02 3.26-.05 4.21-.13 4.23-.06.02-.77.01-1.59 0zm24.05-.11a4.61 4.61 0 0 1-1.92-1.21c-2.38-2.4-1.73-7.33 1.16-8.8.9-.45 1.05-.47 4.7-.44l3.38.02.03.96c.01.64-.01 1-.08 1.08-.08.1-.61.12-2.93.12-2.62 0-2.85.01-3.14.16-.9.46-1.32 1.43-1.32 3.1 0 1.2.18 1.78.73 2.38.64.7.7.7 3.78.7 2.2 0 2.72.03 2.8.13.06.08.09.43.07 1.03l-.02.92-3.35.02c-3.3.02-3.35.02-3.9-.17zm-50.95.06c-.08-.04-.1-.8-.1-3.45 0-3.79 0-3.82.57-4.92.37-.7.99-1.36 1.63-1.72.86-.5 1.25-.53 5.16-.5l3.51.02v1.86l-2.87.04-2.88.04-.58.29c-.67.34-1.21.88-1.29 1.31-.11.6-.35.56 3.65.56 2.32 0 3.66.03 3.77.09.14.08.16.18.16 1.04 0 .52-.03 1-.07 1.05-.05.08-.95.11-3.83.13l-3.76.02-.02 1.98a10.57 10.57 0 0 1-.12 2.1c-.07.08-.42.11-1.46.1-.75 0-1.41-.02-1.47-.04zm42.83-.06c-.07-.09-.09-1.54-.07-5.27l.02-5.16h3.3l.02 5.2c.02 4.1 0 5.22-.08 5.27-.06.04-.78.07-1.6.07-1.16 0-1.52-.02-1.59-.11zm-113.77-.08a7.18 7.18 0 0 1-.01-1.04l.02-.93 3.8-.04 3.8-.04.28-.31c.54-.6.44-1.3-.24-1.69-.35-.2-.4-.2-3.2-.25-2.72-.04-2.85-.05-3.34-.24-.69-.27-1.3-.9-1.56-1.58a4.05 4.05 0 0 1-.06-2.32c.22-.59.7-1.24 1.13-1.52.8-.53.72-.52 5.79-.5l4.6.03v1.86l-3.68.04c-2.68.03-3.73.07-3.86.15-.1.05-.29.22-.41.37-.2.24-.23.33-.2.68.03.26.13.5.27.7l.23.3h2.56c1.4 0 2.8.04 3.09.09 1.26.2 1.95.66 2.4 1.59.27.54.28.6.28 1.54 0 .93 0 1-.27 1.54-.41.83-1.11 1.37-2.07 1.59-.22.05-2.2.08-4.83.08-3.62 0-4.48-.01-4.52-.1zm15.32-.02a3.73 3.73 0 0 1-2.16-1.98l-.28-.56-.02-3.77c-.02-2.07 0-3.85.02-3.96.05-.19.05-.19 1.55-.17l1.5.03.04 3.7c.05 4.23 0 3.97.85 4.4l.45.24h3.95v-4.1c0-3.14.02-4.12.1-4.23.1-.13.27-.14 1.55-.12l1.44.02v10.58l-4.32.02c-3.38.01-4.4 0-4.67-.1zm10.86 0c-.03-.08-.05-2.46-.05-5.29 0-4.3.02-5.16.12-5.24.08-.08 1.29-.1 4.55-.08l4.43.03.56.26c.66.32 1.08.66 1.42 1.2.53.82.75 1.82.6 2.65a3.54 3.54 0 0 1-1.75 2.48c-.8.4-.94.42-3.96.47l-2.88.05-.04 1.78-.04 1.77-1.46.03c-1.26.02-1.45 0-1.5-.12zm7.7-5.8c.32-.19.72-.93.72-1.34a1.5 1.5 0 0 0-.8-1.2c-.3-.15-.57-.17-2.3-.17-1.09 0-2.03.02-2.1.05-.12.05-.14.25-.14 1.38 0 .74.03 1.36.06 1.4.03.02 1.01.05 2.18.05 1.94 0 2.15-.02 2.39-.16zm8.58 5.73a4.71 4.71 0 0 1-3.43-3.44c-.17-.7-.12-2.74.1-3.52a4.96 4.96 0 0 1 3.8-3.6c.53-.09 6.45-.12 6.69-.03.11.04.13.22.13 1.1v1.05h-2.65c-2.95 0-3.23.04-3.88.54-.4.3-.98 1.3-.89 1.53.04.12.46.13 3.74.13h3.69l-.03 1-.02 1-3.73.03-3.72.05.03.25a2.4 2.4 0 0 0 1.24 1.74c.3.15.6.16 3.18.16 2.1 0 2.87.03 2.94.1.1.11.15 1.72.05 1.97-.05.12-.41.14-3.32.13-3.14 0-3.3-.01-3.92-.2zm9.04.14c-.03-.03-.05-2.43-.05-5.33 0-4.72 0-5.27.13-5.31.07-.03 2.08-.06 4.47-.06 4.7 0 4.83.01 5.74.48.65.33 1.28.96 1.56 1.58.22.47.24.62.24 1.37 0 .8-.01.9-.27 1.42-.18.35-.43.7-.67.9-.38.34-1.17.77-1.41.77a.32.32 0 0 0-.21.11c-.07.08.26.57 1.34 2a31.73 31.73 0 0 1 1.44 1.96c0 .05-.68.08-1.76.06l-1.76-.02-1.3-1.93-1.32-1.93-1.52.03-1.53.02-.04 1.95-.04 1.94-1.5.03c-.8.01-1.5 0-1.54-.04zm7.62-5.97c.24-.06.51-.21.72-.4.3-.29.33-.36.33-.74 0-.57-.22-.96-.68-1.22-.38-.2-.42-.2-2.52-.24-1.58-.02-2.18 0-2.27.08-.1.08-.12.36-.12 1.3 0 .67.02 1.23.05 1.26.1.1 4.08.07 4.5-.04zm102.34-3.1a2.02 2.02 0 0 1-1.1-2.04c.2-1.13 1.45-1.88 2.48-1.5 1.2.47 1.65 1.75 1 2.82a1.93 1.93 0 0 1-2.38.71zm1.47-.37a1.53 1.53 0 1 0-1.76-2.44c-.6.6-.62 1.45-.06 2.09.49.55 1.15.68 1.82.35zm-1.42-1.38v-1.06h.67c.6 0 .7.02.8.19.2.27.17.6-.07.82-.25.24-.26.32-.04.6.09.11.16.28.16.36 0 .29-.25.14-.56-.32-.38-.58-.62-.63-.62-.13 0 .4-.07.6-.22.6-.1 0-.12-.22-.12-1.06zm1.13-.32c.28-.2.09-.4-.38-.4-.38 0-.4.01-.4.2 0 .11.04.23.1.25.2.08.54.05.68-.05z" fill="#ec1f24"/>
  <path d="M120.72 34.42c-2.27-.3-4.19-.56-4.26-.58-.18-.07-.19-1.48-.01-1.55.15-.06 8.63.89 8.71.98.04.03.06.42.04.86-.02.72-.04.8-.19.8-.1.02-2.03-.22-4.3-.51zm-56.02.4c-.08-.06-.1-.32-.08-.99l.02-.91 1.7-.02c1.55-.02 1.74-.04 2.33-.23 1.36-.45 2.1-1.29 2.25-2.56l.05-.48h-2.91c-2.22 0-2.95-.02-3.07-.1-.12-.1-.14-.23-.12-.96l.03-.84 3.7-.02 3.7-.03.1.24A9.43 9.43 0 0 1 72 31.9c-.03.14.18.5.9 1.51.75 1.02.94 1.34.84 1.4-.16.1-1.65.1-1.85-.01a3.62 3.62 0 0 1-.58-.68 3.9 3.9 0 0 0-.49-.6c-.02 0-.19.12-.36.25-.49.39-.94.65-1.49.86-.46.18-.67.2-2.33.23-1 .02-1.87 0-1.93-.04zm34.58-.07c-.18-.17-.2-1.66-.03-1.8.07-.06.97-.1 2.48-.12 2.25-.02 2.38-.03 2.72-.2.9-.5 1.3-1.13 1.36-2.28l.05-.72h-3.44c-1.89 0-3.5-.02-3.56-.05-.11-.04-.14-.2-.14-.93v-.88h8.54l.06.3c.03.17.04 1.04.02 1.93-.04 1.37-.08 1.7-.23 2.12a3.98 3.98 0 0 1-3.1 2.64c-.88.18-4.55.18-4.73-.01zm9.23 0c-.1-.1-.14-.3-.14-.73 0-.93-.01-.92 1.26-.92 1.26 0 1.32-.02 1.48-.77l.1-.45 1.34-.05c1.3-.04 1.35-.05 1.5-.24.1-.11.16-.27.15-.34-.03-.12-.38-.14-3.08-.18l-3.04-.04-.03-.83-.02-.82 3.75.02 3.75.02.02 1.35.02 1.34-.38.37c-.43.42-1.18.7-2.08.76-.85.07-.86.08-1.13.58-.46.9-.84 1.06-2.35 1.06-.79 0-1.02-.02-1.12-.13zm17.66.06c-.08-.05-.1-.31-.08-1l.02-.92 3.73-.04 3.72-.04v-3.13l-3.63-.03c-2.78-.01-3.66-.04-3.7-.12a5.72 5.72 0 0 1-.03-1.63c.05-.12.53-.13 4.53-.13h4.48v3.5c0 3.12-.01 3.52-.13 3.56-.2.08-8.78.06-8.9-.02zm10.01-.04a7.18 7.18 0 0 1-.02-1.04l.03-.92 3.04-.04c3.36-.05 3.29-.04 3.83-.61.54-.58.57-.71.62-2.57l.04-1.7h1.44v2.04c0 1.92-.01 2.06-.2 2.52a3.85 3.85 0 0 1-2.36 2.26c-.49.16-.71.17-3.45.17-2.34 0-2.93-.02-2.97-.1zm-56.24-.08c-.06-.06-.1-.42-.1-.97 0-.86.02-.93.29-.87.21.03 1.29-.2 1.57-.34.34-.17.72-.57.88-.92.05-.13.11-1 .14-2l.04-1.78.78-.02.79-.03v1.99c0 1.7-.02 2.06-.16 2.5-.31.99-.78 1.57-1.62 2-.72.36-2.4.65-2.61.44zm7.8-.06c-1.48-.39-2.19-1.1-2.57-2.6a8.66 8.66 0 0 1-.16-2.36c0-.94.02-1.78.05-1.85.04-.1.2-.13.8-.13.6 0 .75.02.79.13.03.07.05.87.05 1.77 0 .99.04 1.74.1 1.91.26.78.97 1.24 2.05 1.33.35.02.64.08.65.12a63.58 63.58 0 0 1 0 1.76c-.01.14-1.1.1-1.76-.08zm33.01-2.58c-2.3-.3-4.23-.56-4.3-.59-.17-.06-.17-1.47 0-1.54.16-.06 8.61.87 8.7.96.04.05.07.44.05.88-.02.63-.05.8-.15.8-.07.01-2-.22-4.3-.51zm-47.55-.01c-.1-.25-.05-1.44.06-1.59.1-.13.38-.14 3.4-.12l3.3.02v1.78l-3.35.02c-3 .02-3.36.01-3.4-.11zm16.43 0a4 4 0 0 1-.05-.9v-.83l3.4.02 3.41.02.03.68c.01.37 0 .76-.02.87l-.05.19h-3.33c-1.83 0-3.36-.03-3.39-.06zm30.85-2.27a84.47 84.47 0 0 1-4.13-.59c-.07-.04-.1-.29-.1-.73 0-.43.03-.69.1-.74.07-.06 1.53.08 4.43.4l4.34.5s.02.39.02.85v.85h-.32c-.17-.01-2.13-.25-4.34-.54zm-32.65.34c-.32-.15-.6-.49-.72-.9-.08-.28-.07-.4.05-.72.21-.55.63-.85 1.2-.85.5 0 .8.17 1.11.64.68 1-.5 2.32-1.64 1.83zm.92-.8c.33-.36.13-.86-.34-.86-.46 0-.7.52-.39.86.18.2.56.2.73 0zm58.12.37a1.58 1.58 0 0 1-1.07-1.57c0-.94.66-1.6 1.6-1.6a1.64 1.64 0 0 1 1.48 2.37 2 2 0 0 1-1.03.83c-.41.12-.58.11-.98-.03zm1.13-.43c.43-.22.62-.52.65-1.04.03-.38 0-.54-.14-.76-.67-1.07-2.38-.62-2.38.63 0 1.01.97 1.62 1.87 1.17zm-.4-.59c-.35-.49-.53-.5-.53-.04 0 .28-.03.34-.17.34-.16 0-.17-.06-.17-.9v-.88h.58c.45 0 .6.03.72.15.19.21.17.58-.03.76-.21.18-.21.23 0 .53.18.25.16.42-.03.42-.06 0-.23-.17-.38-.38zm.19-.97c0-.15-.53-.23-.66-.1-.15.15.03.28.35.25.2-.02.3-.07.3-.15zm-11.6 1.83a5.07 5.07 0 0 1-.03-.87l.03-.75h5.33v1.69l-2.65.02c-2.15.02-2.65 0-2.69-.09zm64.09-4.12c-3.35-.69-4.87-2.43-4.87-5.6 0-2.32.95-3.86 2.94-4.78 1.1-.52 1.89-.66 3.66-.67 1.88 0 2.53.12 3.73.7.66.31.92.5 1.44 1.03a4.3 4.3 0 0 1 1.46 3.56c0 1.22-.14 1.93-.54 2.74a4.62 4.62 0 0 1-2.2 2.26 8.82 8.82 0 0 1-5.62.76zm3.22-2.2c1.34-.42 2.07-1.56 2.07-3.23 0-1.77-.58-2.85-1.85-3.45-.45-.2-.55-.22-1.7-.22-1.18 0-1.26 0-1.76.24a3.2 3.2 0 0 0-1.46 1.43c-.4.92-.46 2.93-.11 3.72a3.05 3.05 0 0 0 2.32 1.67 6.9 6.9 0 0 0 2.49-.17zm12.72 2.18c-.01-.01-.04-1.95-.06-4.3l-.05-4.27-1.28-.03c-1-.02-1.3 0-1.37.1-.07.08-.1 1.32-.12 4.25l-.02 4.14-.64.03c-.35.02-1.06 0-1.58-.03l-.96-.06V14.64l6.42.03 6.41.02.57.27c1.07.5 1.8 1.45 2.01 2.57.05.28.08 1.92.07 4.1l-.03 3.64h-2.96l-.04-3.64c-.04-3.39-.06-3.66-.2-3.9-.41-.64-1.03-.88-2.23-.88-.43 0-.8 0-.8.02-.02.01-.05 1.93-.07 4.25l-.05 4.24-1.5.02h-1.52zm-65.26-.32c-2-.3-3.14-1.58-3.03-3.38.1-1.55.98-2.62 2.48-3.02.31-.09 1.17-.12 3.28-.12 2.41 0 2.87-.02 2.91-.12.08-.2-.4-1.13-.71-1.41-.61-.54-.61-.54-4-.58l-3.09-.05v-1.94l3.6-.03 3.6-.02.68.21c1.6.5 2.76 1.73 3.08 3.26.07.33.1 1.52.07 3.86l-.02 3.38-4.2.01c-2.3.01-4.4-.02-4.65-.05zm5.62-2.08c.12-.05.14-.23.14-1.14 0-.7-.04-1.1-.1-1.14-.04-.03-1.04-.08-2.22-.1l-2.13-.05-.3.2c-.82.57-.76 1.72.11 2.11.32.15.57.17 2.37.17 1.1 0 2.06-.02 2.13-.05zm6.57 2.08l-1.48-.04V14.44h12.7l.64.3a3.45 3.45 0 0 1 2.02 2.57c.06.31.1 1.86.1 4.12 0 3.22-.02 3.62-.14 3.66-.26.1-2.7.06-2.81-.05-.08-.07-.1-1-.1-3.67v-3.58l-.28-.36c-.44-.57-.79-.7-1.92-.74-.73-.02-.98 0-1.03.09a66.2 66.2 0 0 0-.08 4.24v4.13l-1.54-.02-1.55-.03-.04-4.23-.04-4.23h-2.71l-.02 4.2c-.02 3.26-.05 4.21-.13 4.23-.06.02-.77.01-1.59 0zm24.05-.11a4.61 4.61 0 0 1-1.92-1.21c-2.38-2.4-1.73-7.33 1.16-8.8.9-.45 1.05-.47 4.7-.44l3.38.02.03.96c.01.64-.01 1-.08 1.08-.08.1-.61.12-2.93.12-2.62 0-2.85.01-3.14.16-.9.46-1.32 1.43-1.32 3.1 0 1.2.18 1.78.73 2.38.64.7.7.7 3.78.7 2.2 0 2.72.03 2.8.13.06.08.09.43.07 1.03l-.02.92-3.35.02c-3.3.02-3.35.02-3.9-.17zm-50.95.06c-.08-.04-.1-.8-.1-3.45 0-3.79 0-3.82.57-4.92.37-.7.99-1.36 1.63-1.72.86-.5 1.25-.53 5.16-.5l3.51.02v1.86l-2.87.04-2.88.04-.58.29c-.67.34-1.21.88-1.29 1.31-.11.6-.35.56 3.65.56 2.32 0 3.66.03 3.77.09.14.08.16.18.16 1.04 0 .52-.03 1-.07 1.05-.05.08-.95.11-3.83.13l-3.76.02-.02 1.98a10.57 10.57 0 0 1-.12 2.1c-.07.08-.42.11-1.46.1-.75 0-1.41-.02-1.47-.04zm42.83-.06c-.07-.09-.09-1.54-.07-5.27l.02-5.16h3.3l.02 5.2c.02 4.1 0 5.22-.08 5.27-.06.04-.78.07-1.6.07-1.16 0-1.52-.02-1.59-.11zm-113.77-.08a7.18 7.18 0 0 1-.01-1.04l.02-.93 3.8-.04 3.8-.04.28-.31c.54-.6.44-1.3-.24-1.69-.35-.2-.4-.2-3.2-.25-2.72-.04-2.85-.05-3.34-.24-.69-.27-1.3-.9-1.56-1.58a4.05 4.05 0 0 1-.06-2.32c.22-.59.7-1.24 1.13-1.52.8-.53.72-.52 5.79-.5l4.6.03v1.86l-3.68.04c-2.68.03-3.73.07-3.86.15-.1.05-.29.22-.41.37-.2.24-.23.33-.2.68.03.26.13.5.27.7l.23.3h2.56c1.4 0 2.8.04 3.09.09 1.26.2 1.95.66 2.4 1.59.27.54.28.6.28 1.54 0 .93 0 1-.27 1.54-.41.83-1.11 1.37-2.07 1.59-.22.05-2.2.08-4.83.08-3.62 0-4.48-.01-4.52-.1zm15.32-.02a3.73 3.73 0 0 1-2.16-1.98l-.28-.56-.02-3.77c-.02-2.07 0-3.85.02-3.96.05-.19.05-.19 1.55-.17l1.5.03.04 3.7c.05 4.23 0 3.97.85 4.4l.45.24h3.95v-4.1c0-3.14.02-4.12.1-4.23.1-.13.27-.14 1.55-.12l1.44.02v10.58l-4.32.02c-3.38.01-4.4 0-4.67-.1zm10.86 0c-.03-.08-.05-2.46-.05-5.29 0-4.3.02-5.16.12-5.24.08-.08 1.29-.1 4.55-.08l4.43.03.56.26c.66.32 1.08.66 1.42 1.2.53.82.75 1.82.6 2.65a3.54 3.54 0 0 1-1.75 2.48c-.8.4-.94.42-3.96.47l-2.88.05-.04 1.78-.04 1.77-1.46.03c-1.26.02-1.45 0-1.5-.12zm7.7-5.8c.32-.19.72-.93.72-1.34a1.5 1.5 0 0 0-.8-1.2c-.3-.15-.57-.17-2.3-.17-1.09 0-2.03.02-2.1.05-.12.05-.14.25-.14 1.38 0 .74.03 1.36.06 1.4.03.02 1.01.05 2.18.05 1.94 0 2.15-.02 2.39-.16zm8.58 5.73a4.71 4.71 0 0 1-3.43-3.44c-.17-.7-.12-2.74.1-3.52a4.96 4.96 0 0 1 3.8-3.6c.53-.09 6.45-.12 6.69-.03.11.04.13.22.13 1.1v1.05h-2.65c-2.95 0-3.23.04-3.88.54-.4.3-.98 1.3-.89 1.53.04.12.46.13 3.74.13h3.69l-.03 1-.02 1-3.73.03-3.72.05.03.25a2.4 2.4 0 0 0 1.24 1.74c.3.15.6.16 3.18.16 2.1 0 2.87.03 2.94.1.1.11.15 1.72.05 1.97-.05.12-.41.14-3.32.13-3.14 0-3.3-.01-3.92-.2zm9.04.14c-.03-.03-.05-2.43-.05-5.33 0-4.72 0-5.27.13-5.31.07-.03 2.08-.06 4.47-.06 4.7 0 4.83.01 5.74.48.65.33 1.28.96 1.56 1.58.22.47.24.62.24 1.37 0 .8-.01.9-.27 1.42-.18.35-.43.7-.67.9-.38.34-1.17.77-1.41.77a.32.32 0 0 0-.21.11c-.07.08.26.57 1.34 2a31.73 31.73 0 0 1 1.44 1.96c0 .05-.68.08-1.76.06l-1.76-.02-1.3-1.93-1.32-1.93-1.52.03-1.53.02-.04 1.95-.04 1.94-1.5.03c-.8.01-1.5 0-1.54-.04zm7.62-5.97c.24-.06.51-.21.72-.4.3-.29.33-.36.33-.74 0-.57-.22-.96-.68-1.22-.38-.2-.42-.2-2.52-.24-1.58-.02-2.18 0-2.27.08-.1.08-.12.36-.12 1.3 0 .67.02 1.23.05 1.26.1.1 4.08.07 4.5-.04zm102.34-3.1a2.02 2.02 0 0 1-1.1-2.04c.2-1.13 1.45-1.88 2.48-1.5 1.2.47 1.65 1.75 1 2.82a1.93 1.93 0 0 1-2.38.71zm1.47-.37a1.53 1.53 0 1 0-1.76-2.44c-.6.6-.62 1.45-.06 2.09.49.55 1.15.68 1.82.35zm-1.42-1.38v-1.06h.67c.6 0 .7.02.8.19.2.27.17.6-.07.82-.25.24-.26.32-.04.6.09.11.16.28.16.36 0 .29-.25.14-.56-.32-.38-.58-.62-.63-.62-.13 0 .4-.07.6-.22.6-.1 0-.12-.22-.12-1.06zm1.13-.32c.28-.2.09-.4-.38-.4-.38 0-.4.01-.4.2 0 .11.04.23.1.25.2.08.54.05.68-.05z" fill="#fff"/>
</svg>
