<svg xmlns="http://www.w3.org/2000/svg" viewBox="0 0 285.75 95.25" height="360" width="1080">
  <defs>
    <clipPath id="a">
      <path d="M0 452h610V0H0z"/>
    </clipPath>
  </defs>
  <g fill="#fff">
    <circle r="10.317" cy="47.625" cx="109.066"/>
    <path d="M64.91 30.72a.528.528 0 0 0-.53.53v11.297H53.083a.528.528 0 0 0-.53.53v9.097c0 .293.237.529.53.529H64.38V64c0 .294.236.53.53.53h9.098c.293 0 .529-.236.529-.53V52.703h11.297c.294 0 .53-.236.53-.53v-9.097a.528.528 0 0 0-.53-.529H74.537V31.25a.528.528 0 0 0-.53-.53z"/>
    <circle r="6.949" cy="47.625" cx="-245.427" transform="scale(-1 1)"/>
    <circle r="6.949" cy="47.625" cx="-221.46" transform="scale(-1 1)"/>
    <circle r="5.301" cy="47.625" cx="153.351"/>
    <circle r="5.301" cy="64.942" cx="38.675"/>
    <circle r="5.301" cy="29.633" cx="153.351"/>
    <circle r="5.301" cy="65.617" cx="153.351"/>
  </g>
</svg>
