<svg xmlns="http://www.w3.org/2000/svg" viewBox="0 0 285.75 95.25" height="360" width="1080">
  <g fill="#fff">
    <rect transform="rotate(-26.43)" ry="2.65" rx="2.65" y="114.51" x="70.03" height="5.74" width="16.18"/>
    <rect transform="rotate(-26.43)" ry="2.65" rx="2.65" y="126.18" x="91.83" height="5.74" width="16.18"/>
    <circle r="8.82" cy="39.65" cx="170.52"/>
    <circle r="8.82" cy="28.69" cx="194.19"/>
    <path d="M95.1 18.88c-.3 0-.54.24-.54.53v11.3h-11.3c-.29 0-.52.24-.52.53v9.1c0 .3.23.53.52.53h11.3v11.3c0 .29.24.52.53.52h9.1c.3 0 .53-.23.53-.53v-11.3h11.3c.29 0 .53-.23.53-.52v-9.1c0-.3-.24-.53-.53-.53h-11.3v-11.3c0-.29-.24-.53-.53-.53z"/>
  </g>
</svg>
