<svg version="1.2" baseProfile="tiny" xmlns="http://www.w3.org/2000/svg" width="566.93" height="98.57">
  <linearGradient id="a" gradientUnits="userSpaceOnUse" x1="527.77" y1="-.71" x2="527.77" y2="98.79">
    <stop offset=".01" stop-color="#2e5c92"/>
    <stop offset="1" stop-color="#2e3192"/>
  </linearGradient>
  <path fill="url(#a)" d="M488.62.92h24.02l11.87 27.3 17.8-27.3h24.62l-34.71 54-5.63 42.12h-22.25l6.52-48.07z"/>
  <linearGradient id="b" gradientUnits="userSpaceOnUse" x1="290.74" y1="-.71" x2="290.74" y2="98.79">
    <stop offset=".01" stop-color="#2e5c92"/>
    <stop offset="1" stop-color="#2e3192"/>
  </linearGradient>
  <path fill="url(#b)" d="M311.8 97.04l2.96-21.37h-33.8l2.07-16.6h29.36l2.97-21.36H286.3l2.08-15.43h33.81L325.45.92h-56.07l-13.35 96.12z"/>
  <linearGradient id="c" gradientUnits="userSpaceOnUse" x1="127.57" y1="-.71" x2="127.57" y2="98.79">
    <stop offset=".01" stop-color="#2e5c92"/>
    <stop offset="1" stop-color="#2e3192"/>
  </linearGradient>
  <path fill="url(#c)" d="M112.15 49.56l7.41-19.87 2.38 19.87h-9.8zm-8.01 19h20.17l3.56 28.47h36.49l16.91-52.21 8.3 52.21h19.3l21.35-55.18 3.56 55.18h21.36L249.21.91h-25.52l-19.87 50.73L196.1.91h-22.84l-26.1 78.92L137.36.9H108.9l-31.75 79.8 4.16-31.15H42.73l-2.67 19h16.9l-1.18 6.52c-2.97 1.77-9.79 2.07-12.46 2.07-2.67 0-22.54-1.78-21.65-23.14.89-21.36 29.37-41.23 63.18-30.26l3.27-20.47C65.57-4.42 6.35-.12.31 52.83-3.25 83.98 25.23 98.8 44.2 98.52c10.98.59 23.44-3.56 27.89-5.94l-1.48 4.45h22.54l10.98-28.48z"/>
  <linearGradient id="d" gradientUnits="userSpaceOnUse" x1="458.99" y1="-.71" x2="458.99" y2="98.79">
    <stop offset=".01" stop-color="#2e5c92"/>
    <stop offset="1" stop-color="#2e3192"/>
  </linearGradient>
  <path fill="url(#d)" d="M464.58.03c-15.43-.6-37.68 8.3-45.1 44.2-7.4 35.9 12.47 50.43 30.86 52.8 18.4 2.38 44.2-9.19 48.95-43.6C504.04 19 487.12.92 464.6.03zm-2.37 20.47c6.23 0 19.58 4.15 16.31 29.07-3.26 24.92-18.69 27.89-24.32 27.3-5.64-.6-17.21-4.46-13.95-27.3 3.26-22.84 15.43-29.37 21.96-29.07z"/>
  <linearGradient id="e" gradientUnits="userSpaceOnUse" x1="378.92" y1="-.71" x2="378.92" y2="98.79">
    <stop offset=".01" stop-color="#2e5c92"/>
    <stop offset="1" stop-color="#2e3192"/>
  </linearGradient>
  <path fill="url(#e)" d="M370.83 37.7h12.46c9.2 0 10.98-5.93 11.28-8.3.3-2.37-2.38-7.12-7.12-7.12H372.9l-2.08 15.43zm-5.34 37.98h16.92c9.19 0 11.27-7.12 11.56-9.5.3-2.37-2.37-7.11-7.12-7.11h-18.98l-2.38 16.6zm-24.91 21.36L353.93.92h40.93c9.8 0 24.04 11.27 22.26 26.4-1.78 15.13-6.53 16.02-9.8 18.4 5.05 4.44 10.1 11.56 8.02 24.91-2.08 13.36-13.06 26.4-32.34 26.4h-42.42z"/>
  <linearGradient id="f" gradientUnits="userSpaceOnUse" x1="538.6" y1="-.71" x2="538.6" y2="98.79">
    <stop offset=".01" stop-color="#2e5c92"/>
    <stop offset="1" stop-color="#2e3192"/>
  </linearGradient>
  <path fill="url(#f)" d="M538.62 82.5a6.6 6.6 0 1 0-.01 13.24 6.6 6.6 0 0 0 0-13.24v-.9a7.5 7.5 0 0 1 7.5 7.5 7.5 7.5 0 1 1-15.03 0c0-4.14 3.37-7.5 7.54-7.5v.9z"/>
  <linearGradient id="g" gradientUnits="userSpaceOnUse" x1="539.14" y1="-.71" x2="539.14" y2="98.79">
    <stop offset=".01" stop-color="#2e5c92"/>
    <stop offset="1" stop-color="#2e3192"/>
  </linearGradient>
  <path fill="url(#g)" d="M536.84 85.64h2.4c1.05 0 2.18.15 2.18 1.46 0 1.7-1.82 1.51-3 1.51h-1.58v.8h1.9l2.4 3.89h1.21l-2.54-3.88c1.5-.04 2.66-.65 2.66-2.3 0-.71-.31-1.46-.94-1.82a3.89 3.89 0 0 0-2.05-.4h-3.66v8.4h1.02v-7.66z"/>
</svg>
