<svg xmlns="http://www.w3.org/2000/svg" viewBox="23.58 0 290 60" height="60" width="290">
  <defs>
    <linearGradient id="a">
      <stop offset="0" stop-color="#f9f9f9"/>
      <stop offset="1" stop-color="#f9f9f9" stop-opacity="0"/>
    </linearGradient>
  </defs>
  <g aria-label="ALL GAMES" style="line-height:3.25;-inkscape-font-specification:'Erbaum Bold'" font-weight="700" font-size="50.67" font-family="Erbaum" letter-spacing="-2.21" word-spacing="0" fill="#fff" stroke="none" stroke-width="5" stroke-linejoin="round" stroke-opacity="0" text-anchor="middle">
    <path d="M53.2 48.06h9.38l-11.4-36.12H37.86l-11.4 36.12h9.32l2.33-7.75h12.77zM40.5 32.51l4.05-13.38 4 13.38zM75.73 40.31V11.94h-9.12v36.12h25.08v-7.75zM104.89 40.31V11.94h-9.12v36.12h25.08v-7.75zM148.4 34.84h7.4v3.3c0 1.97-.71 2.68-2.79 2.68h-5.93c-2.07 0-2.78-.71-2.78-2.69V21.87c0-2.03.7-2.69 2.78-2.69h5.93c2.08 0 2.79.66 2.79 2.69v.3l9.07-1.06c.05-.2.05-.36.05-.76 0-5.88-3.1-8.92-9.17-8.92h-11.4c-6.08 0-9.17 3.04-9.17 8.97v19.2c0 5.93 3.09 8.97 9.17 8.97h11.4c6.08 0 9.17-3.04 9.17-8.97V27.04H148.4zM194.16 48.06h9.37l-11.4-36.12h-13.32l-11.4 36.12h9.32l2.33-7.75h12.77zm-12.72-15.55l4.06-13.38 4 13.38zM235.88 11.94l-9.78 15.5-9.83-15.5h-8.81v36.12h9.12V27l7.9 12.51h3.2l7.9-12.46v21.02h9.12V11.94zM276.9 19.69v-7.75h-25.63v36.12h25.63v-7.75H260.4v-6.84h14.39v-7.75h-14.4v-6.03zM290.02 48.57h11.5c6.09 0 9.18-3.04 9.18-8.97V34.8c0-5.27-2.28-7.5-8.62-8.41l-8.3-1.22c-3.2-.45-3.7-.76-3.7-2.48v-.81c0-1.98.76-2.69 2.93-2.69h5.63c2.08 0 2.78.66 2.78 2.69v.3l9.07-1.06c.05-.2.05-.26.05-.76 0-5.88-3.09-8.92-9.17-8.92h-11.2c-6.07 0-9.21 3.04-9.21 8.97v4.71c0 5.17 2.43 7.4 8.71 8.31l8.26 1.22c3.04.45 3.65.86 3.65 2.53v.96c0 1.98-.71 2.69-2.79 2.69h-6.03c-2.13 0-2.84-.71-2.84-2.69v-.35l-9.07 1.11c-.05.15-.05.2-.05.71 0 5.93 3.14 8.97 9.22 8.97z" style="line-height:2.25;-inkscape-font-specification:'Erbaum Bold';text-align:center"/>
  </g>
</svg>
