<svg xmlns="http://www.w3.org/2000/svg" viewBox="0 0 285.75 95.25" height="360" width="1080">
  <defs>
    <clipPath id="a">
      <path d="M0 452h610V0H0z"/>
    </clipPath>
  </defs>
  <g fill="#fff">
    <path d="M142.875 48.158a20.58 20.58 0 0 0-20.58 20.58 20.58 20.58 0 0 0 20.58 20.58 20.58 20.58 0 0 0 20.58-20.58 20.58 20.58 0 0 0-20.58-20.58zm0 6.95a13.63 13.63 0 0 1 13.63 13.63 13.63 13.63 0 0 1-13.63 13.63 13.63 13.63 0 0 1-13.63-13.63 13.63 13.63 0 0 1 13.63-13.63z"/>
    <circle cx="142.875" cy="68.738" r="10.205"/>
    <path d="M170.283 5.933v45.772h1.191a1.32 1.32 0 0 0 1.323-1.322V7.255a1.32 1.32 0 0 0-1.323-1.322zM115.467 5.933v45.772h-1.191a1.32 1.32 0 0 1-1.323-1.322V7.255c0-.732.59-1.322 1.323-1.322z"/>
  </g>
</svg>
