<svg xmlns="http://www.w3.org/2000/svg" width="598.19" height="350.26">
  <path d="M24.6 274.1V50.87h557V274.1zm556-.68v-.69zm-554-.69h553V52.24h-553z" fill="#fff"/>
  <path d="M51.32 139.27v-8.25h4.48a4.64 4.64 0 0 1 1.76-2.61l.63-.55H42.82v-50h64.34v50h-16.5c.17.3.45.5.85.87.55.4 1.4 1.13 1.7 2.3h4.49v8.25H51.32zm2-2H95.7v-4.25h-4.38v-1c-.04-.97-.32-1.1-1.06-1.74a4.07 4.07 0 0 1-1.81-3.42v-1h16.7v-46H44.83v46H60.7v1c0 1.67-1.2 2.53-1.86 3.08-.72.64-1.11.96-1.14 2.08v1h-4.38v4.25z" fill="#fff"/>
  <path fill="#fff" d="M49.18 83.52h51.63v37.63H49.18zM43.8 187.52a30.66 30.66 0 1 1 61.33 0 30.67 30.67 0 0 1-61.33 0zm2 0a28.7 28.7 0 0 0 28.66 28.67 28.7 28.7 0 0 0 28.67-28.67 28.7 28.7 0 0 0-28.67-28.66 28.7 28.7 0 0 0-28.67 28.66z"/>
  <path d="M60.21 164.2c.42.57.83.74-.75 2.66-1.58 1.92-5 4.58-5.42 5.33-.41.75-5.5 2.33-5.25 12.33-.08 2.25-.66 3.17-.25 4.34.42 1.16 2.25 3.75 2.5 4.83s.92 1.67 1.5 2.92c.59 1.25 1 2.75 1 2.75s-.41-.09.67.5c1.08.58 1.58-.84 1.75.91.17 1.75-1.83 2-1.42 3.84.42 1.83 5 7.66 10.67 9.5 5.67 1.83 9 .33 9.42-.17.41-.5.41-.83.66-1.25.25-.42 2.34-1.17 1.59-2.08-.75-.92-3.42-1.84-5.17-2.42-1.75-.58-2.67-1.42-3.92-3.08-1.25-1.67-2.25-.25-4.08-2s-3.58-2.25-4.5-2.84a3.69 3.69 0 0 0-2.5-.66c-1.58-.67-2.75-.84-2.83-1.67-.09-.83 1.16-2.25 0-2.92-1.17-.66-1.67-.25-1.09-1.25.59-1 1.09-1.83.42-2-.67-.16-1.67.92-2.08-.33-.42-1.25.41-4.08.41-4.08s1-1.34 2.59-.17c1.58 1.17 2.08 1.92 2.08 2.92s1.17 3.33 1 .75c-.17-2.59.17-2.75 1.58-2.92 1.42-.17 1.42-.58 1.67-1.42.25-.83 1.08-1.33 1.67-1.25.58.09.25-.41 1.5-.91s1.5-.84 1.58-.34c.08.5 1.25.75 1.67.59.41-.17 0-.34-.42-.75-.42-.42-.33-1.75.25-2 .58-.25 1.25.41 1.33 1.33.09.92 1.17 1.42 1.59 1 .41-.42-.34-1.08-.67-1.83s.58-1.42-.08-1.84c-.67-.41-1-1.91-1-3 0-1.08-2 1.09-1.75-.58s-.17-2.33-1.09-.67c-.91 1.67-2 1.17-1.91 1.92.08.75-1.5 1.5-1.09-.17.42-1.66 0-2.08-.25-2.91-.25-.84 1.67-.92 3.17-1.75 1.5-.84 1.75-1.09 2.17-1.75.41-.67 1.33.25 1 1.5-.34 1.25-1.34 1.41-.17 2.33 1.17.92 1.17-.92 1.17-1.25 0-.33.83-.17.41-1.67-.41-1.5-2.5-1.58-.91-2.58 1.58-1 2.41-1.92 2.58-.83.17 1.08.75 2.83.67 4.91-.09 2.09.66 3.25 1.41 3.75.75.5.42-1.41 1.17-2.58.75-1.17 2.5-1.42 2.58-1.92.09-.5 0-2.08-.16-2.91-.17-.84-.5-2.09-1.59-2.5-1.08-.42-2.66-.5-3.16-.59-.5-.08-1.67-.75-3.09.17-1.41.92-1.58 1.75-2.08 1.58-.5-.16-1.67-.5-2.25-1-.58-.5-.75-.75-.92-1.33a2.15 2.15 0 0 1 .25-1.75c.34-.5 1.25-1.33 1-1.92-.25-.58-1.66-.08-2.16.25-.5.34-2.67.92-2.67.92z" fill="#fff"/>
  <path d="M59.66 180.65c.13-.61.37-1.16-1.85-.94.72.6.75.72 1.03.97.29.25.75.25.82-.03zM59.06 181.18c-.5-.04-1.06.69-1.34 1.19s.81-.03 1.03-.5c.22-.47.75-.25.72.15-.03.41-.28 1.22.22.82s.5-.47.69-.32c.18.16.31-.28.06-.59a2.6 2.6 0 0 0-1.38-.75zM59.4 183.4c-.75 0-.52.28-.06.37.47.1 1.7-.37.07-.37zM66.06 160.84c-1 .56-1.37 1.37.32.68 1.68-.68 4.93-1.8 7.75-1.37 2.8.44 4.12 1 4.25 1.19.12.19-1.25.25.87.75 2.13.5 2.5.56 3.25 1.19.75.62.56.62 1.69 1.37a3.39 3.39 0 0 1 1.62 2.38c.2.87 1.75 2.68.75 2.25-1-.44-1.68-1.38-2.25-.88-.56.5-.68.88-.37 2.5.31 1.63.81 2.44 1.31 3.69s1.2.87 1.2.5c0-.38 1.12.19 1.18.44.06.25 1.31.18.87-.44a16.8 16.8 0 0 0-1.8-2.19 3.1 3.1 0 0 1-.88-1.94c0-.62-.13-.25.8.44.95.69 1.76 1.25 2.26 2.25.5 1 .12 2.06-.31 2.63-.44.56-.57.62-1.13 2.12-.56 1.5-.06 2.31-.94 2.69-.87.37-.19.62.44 1 .63.37 1.31.31.75 1.06s-1.81.69-1.87 1.25c-.07.56.43 1.5.56 2 .12.5 1.87 1.69 2.44.63a5.5 5.5 0 0 0 .75-2.88c0-1.06.12-1.25.62-2s1.31-.56 1.81-.5c.5.06 1.57-.19 1.75.56.2.76-.18.75-.5 1.07-.3.31.88.62 1.13.12.25-.5.31-2-.13-2.37-.43-.38-1.25 0-1.87-.57-.63-.56.81-.68 1.37-.56.57.13 1.44 1.19 1.7 1.19.24 0 .37-1.5-.13-2.25s-1-2-.88-3c.13-1 .5-1.69 1.13-1.13.62.57 1.12 1.32.87 2.2-.25.87-.31 1.5.2 2.3.5.82 1.68.2 1.74-.37.06-.56.31 1.13.25 1.69s-.56 1.5-1.19 2.62c-.62 1.13.25 2.07-.81 2.5-1.06.44-2.75.75-3.06.25-.32-.5.5-2.25-1.32-.93a17.34 17.34 0 0 0-3.75 4c-.62.87-.12.75-.93 2.3-.82 1.57-1.57 2.32-1.63 3.5a19.4 19.4 0 0 0 .19 3.57c.12.63 0 1.69 1.37 2.81 1.38 1.13 1.5 1.13 2.63 1.2 1.12.06 2-.07 3.56-1.63 1.56-1.56 2.13-1.94 2.19-1.25.06.69 1.5-1 1.62.31.13 1.31-.43 1.63 0 2.19.44.56 2.38.25 2.38.25s3.69-7.13 4.06-10.63c.38-3.5-.87-6.37-1.62-6.93-.75-.57-2.38-1.88-2.57-2.38-.18-.5.75-.5 1.82 0 1.06.5 1.44 1.5 1.69.81.25-.68-.94-3.43-1.07-4.06-.12-.62-1.06-.87-1.56-1.37-.5-.5-.06-1.82.44-1.75.5.06-.13-1.32-.44-1.63-.31-.31-1.31-1.56-1.56-1s-.5 1.56-.88 1.06c-.37-.5-1.81-1.56-2.5-1.93-.69-.38-.69-1.94-.69-1.94s1.32.87 1.94 1.37c.63.5 1.5.88 1.75.13s-1.69-3-1.69-3-3.56-5.25-7-6.82c-3.43-1.56-10.5-4-13.12-4.12-2.63-.13-8.06.69-8.56.87-.5.2-2.26 1.94-2.26 1.94zM25.6 247.77v26h555.33v-26zm533.76 4.64h2.6v9.9h-2.6zM48.1 257.94c-1.25 1.75-4.09 8.5-4.67 11.66-1.5-4.83 1.08-11.41 1.08-11.41-3.08 4.41-4.33 7.25-5.08 10.16-1.58-2.33 1.75-8.83 2.08-9.83-5.5 2.75-8.75 5.75-9.5 6.67 5.58-7.84 13.67-12.42 15.25-13.42s7.84 9.34 9.67 17c-4.83-8.33-8.58-10.75-8.83-10.83zm465.75 4.91h-2.13l-9.63 5.88v-16.38l9 5.75h2.76zm23.14 3.23s-3.4-1.65-6.79-.05c-.82-.44-1.11-.48-1.11-.48 2.38-2.04 7.27-1.94 8.82-.15-.39.44-.92.68-.92.68zm2.89-2.82s-6.2-3-12.4-.09a8.53 8.53 0 0 0-2.04-.88c4.34-3.72 13.29-3.54 16.12-.27-.7.8-1.68 1.24-1.68 1.24zm1.73-4.05s-7.89-3.83-15.77-.11c-1.92-1.02-2.6-1.13-2.6-1.13 5.53-4.73 16.9-4.5 20.5-.34a7.24 7.24 0 0 1-2.13 1.58zm19.05 10.04a7.22 7.22 0 0 1-1.79-14.22v3.04a4.35 4.35 0 1 0 3.7.05l.03-3.06a7.23 7.23 0 0 1-1.94 14.2z" fill="#fff"/>
</svg>
