<svg xmlns="http://www.w3.org/2000/svg" width="568.93" height="116.14" viewBox="-1 -1 568.93 116.14">
  <g fill="#fff" stroke="#FFF" stroke-width="2">
    <path d="M34.22 86.07v-53.2h47.95c3.21 0 5.95.3 8.2.93 2.26.63 4.07 1.55 5.44 2.77a10.67 10.67 0 0 1 2.99 4.54c.62 1.8.94 3.88.94 6.23V71.6c0 2.35-.32 4.43-.94 6.23a10.65 10.65 0 0 1-2.99 4.53 13.35 13.35 0 0 1-5.43 2.78c-2.26.62-5 .93-8.21.93H34.22zm10.44-10.44h37.58c2.35 0 4.07-.37 5.15-1.11 1.08-.75 1.62-1.86 1.62-3.35v-23.4c0-1.49-.54-2.6-1.62-3.35-1.08-.74-2.8-1.12-5.15-1.12H44.66v32.33zM108.95 86.07v-53.2h65.45V43.3h-55v6.98h45V60h-45v15.62h55.14v10.44h-65.59zM182.18 86.07V75.63h46.08c2.35 0 4.06-.37 5.14-1.11 1.08-.75 1.62-1.86 1.62-3.35V65.7c0-1.5-.54-2.6-1.62-3.35s-2.8-1.12-5.15-1.12h-30.67c-10.27 0-15.4-3.81-15.4-11.45v-6.7c0-6.8 5.08-10.22 15.26-10.22h46.15V43.3h-46.51c-1.58 0-2.66.16-3.24.47-.58.31-.86.8-.86 1.48v3.17c0 .86.28 1.47.86 1.83.58.36 1.68.54 3.31.54h31.03c3.22 0 5.96.31 8.21.94 2.26.62 4.07 1.55 5.44 2.77s2.36 2.74 2.99 4.54.93 3.87.93 6.22v6.34c0 2.35-.31 4.43-.93 6.23-.63 1.8-1.62 3.31-3 4.53s-3.17 2.15-5.43 2.78c-2.25.62-4.99.93-8.2.93h-46.01zM254.82 86.07v-53.2h10.44v20.01h6.34l32.33-20.02h19.87L282.1 57.5l44.2 28.58h-19.29L271.6 62.1h-6.34v23.97h-10.44z"/>
    <path d="M351.3 86.07V43.3h-27.57V32.86h65.59V43.3h-27.58v42.77H351.3zM411.13 86.07c-3.26 0-6-.3-8.24-.93-2.23-.63-4.03-1.55-5.4-2.78s-2.36-2.73-2.99-4.53c-.62-1.8-.93-3.88-.93-6.23V47.34c0-2.35.3-4.43.93-6.23.63-1.8 1.62-3.31 3-4.54s3.16-2.14 5.4-2.77a31.1 31.1 0 0 1 8.23-.93h30.46c3.22 0 5.95.3 8.2.93 2.26.63 4.08 1.55 5.45 2.77s2.36 2.74 2.98 4.54c.63 1.8.94 3.88.94 6.23V71.6c0 2.35-.31 4.43-.94 6.23-.62 1.8-1.62 3.31-2.99 4.53s-3.18 2.15-5.43 2.78c-2.26.62-5 .93-8.2.93h-30.47zm-6.83-14.9c0 1.49.54 2.6 1.61 3.35 1.08.74 2.8 1.11 5.15 1.11h30.6c2.35 0 4.07-.37 5.15-1.11 1.08-.75 1.62-1.86 1.62-3.35v-23.4c0-1.49-.54-2.6-1.62-3.35-1.08-.74-2.8-1.12-5.15-1.12h-30.6c-2.35 0-4.07.38-5.15 1.12-1.07.75-1.61 1.86-1.61 3.35v23.4zM468.38 86.07v-53.2h48.02c3.21 0 5.95.3 8.2.93 2.26.63 4.07 1.55 5.44 2.77s2.37 2.74 3 4.54c.61 1.8.93 3.88.93 6.23v6.9c0 2.36-.32 4.44-.94 6.24a10.66 10.66 0 0 1-2.99 4.53 13.34 13.34 0 0 1-5.43 2.77c-2.26.63-5 .94-8.21.94h-37.58v17.35h-10.44zM478.81 59h37.65c2.35 0 4.07-.37 5.15-1.12 1.08-.74 1.62-1.86 1.62-3.34v-6.77c0-1.49-.54-2.6-1.62-3.35-1.08-.74-2.8-1.12-5.15-1.12h-37.66V59z"/>
  </g>
</svg>
