<svg xmlns="http://www.w3.org/2000/svg" width="700" height="150">
  <path d="M11.19 136.25l.31-3.75 11.68-.5c13.47-.58 16.34-1.9 18.74-8.69 2.56-7.25 2.42-7.31-17.39-7.31H7v-8h42v7.75c-.01 9.38-1.24 14.2-4.66 18.25-4.43 5.27-6.97 6-20.85 6H10.88zm39.81.31c0-3.9.77-4.31 9-4.8 4.07-.23 4.53-.52 4.81-2.97.3-2.6.56-2.71 7-3 3.68-.16 6.69-.74 6.69-1.29 0-.6-5.44-1.11-13.75-1.28L51 122.94V115h34v6.93c0 6.29-.24 7.11-2.63 9-1.78 1.4-4.14 2.08-7.25 2.1-4.1.04-4.85.41-6.64 3.26-1.95 3.11-2.25 3.22-9.75 3.5l-7.73.3zm66.5 2.8l-13-1.4C86.93 136.04 88 136.4 88 132.3v-3.6l9.25.62c5.09.34 10.15.8 11.25 1.03 1.1.23 6.16.74 11.25 1.14l9.25.74V140l-4.25-.15c-2.34-.08-5.6-.3-7.25-.48zm20.5-3.27v-3.91l10.98-.34c10.78-.33 11.05-.4 14.1-3.46 2.9-2.9 3.17-3.76 3.66-11.75.52-8.25.65-8.63 2.9-8.63 2.33 0 2.36.14 2.36 10.35 0 9.9-.13 10.53-2.98 14.46-4.51 6.24-7.17 7.19-19.97 7.19H138zm93.19.16l.31-3.75 17.25-.27 17.25-.28v-15.9l-17.25-.28-17.25-.27v-7l20.75-.27 20.75-.27V140h-42.12zM276 136v-4h27.97l3.26-2.92c3.17-2.83 3.28-3.19 3.62-12l.35-9.08h5.8v8.98c0 11.2-1.78 16.13-7.3 20.12-3.99 2.89-4.05 2.9-18.85 2.9H276zm47.49 2.34c-2.87-2.86-3.49-6.14-3.49-18.4V108h3c2.83 0 3 .22 3 4v4h11.03c8.88 0 11.14.3 11.6 1.5.32.82 1.21 1.5 1.98 1.5 1.6 0 1.86-1.6.39-2.5-1.7-1.05-1.1-5.1 1.03-7.03 4.3-3.88 11.28 2.6 8.17 7.58-.98 1.57-.96 1.95.14 1.95.84 0 1.3 1.03 1.2 2.75l-.14 2.75-17.7.27-17.7.28v2.35c0 1.3.6 2.85 1.32 3.45.8.67 7.7 1.2 17.72 1.37l16.4.28.1 3.75.1 3.75h-18.25c-15.65 0-18.48-.24-19.9-1.66zm32.93-21.95c2.01-.77 2.06-4.27.07-5.03-2.43-.93-4.64 1.49-3.43 3.75 1.13 2.12 1.16 2.13 3.36 1.28zm7.77 19.86l.31-3.75 10.5-.5 10.5-.5.3-3.12c.37-3.8-1.06-4.35-11.61-4.37l-7.31-.01.31-3.75.31-3.75h23l.3 7.75.28 7.75h2.96c2.79 0 2.96.23 2.96 4v4h-33.12zm74.81.95c0-4.65 1.43-5.2 13.62-5.2 11.27 0 14.38-.46 14.38-2.1 0-.5-4.5-.9-10-.9h-10v-7.94l11.74-.28c10.25-.24 11.78-.5 12.07-2.03.3-1.59-.78-1.75-11.76-1.75h-12.1l-1.04 2.75c-1.52 4-4.91 7.25-7.58 7.25-2 0-2.33-.5-2.33-3.6 0-2.7.74-4.29 3-6.4 2.1-1.96 3-3.74 3-5.92v-3.13l17.75.28 17.75.27.3 7.86c.38 10.22-1.65 16.54-6.6 20.63l-3.66 3.01H439zm-320.5-8.22c-3.85-.4-12.29-1.3-18.75-2L88 125.7v-7.91l7.25.64c3.99.35 10.18 1.05 13.75 1.55 3.58.5 9.54 1.2 13.25 1.54l6.75.63v3.92c0 3.12-.36 3.89-1.75 3.77-.96-.08-4.9-.47-8.75-.87zM394 125v-4h40v8h-40zm-262-7v-10h6v20h-6zm44 6v-4h39v8h-39zm-61-5.6c-6.88-.72-15.65-1.68-19.5-2.11l-7-.79-.3-4.24-.31-4.24 4.8.57c2.65.3 7.06.95 9.81 1.42 2.75.48 8.15 1.13 12 1.46 14.6 1.24 14.5 1.2 14.5 5.62 0 2.15-.34 3.85-.75 3.78-.41-.07-6.38-.73-13.25-1.46zm161-6.43v-4.03l11.75.28 11.75.28.31 3.75.31 3.75H276zM6 94v-4h340.06c223.48 0 339.85.34 339.45.99-.34.54-2.58 2.34-5 4L676.15 98H6zm279.5-14.4c-9.74-3.08-17.54-9.9-22.24-19.49-2.45-4.99-2.75-6.66-2.67-15.11.1-11.65 2.67-18.09 10.04-25.2 7.2-6.96 14.46-9.93 24.1-9.89 10.76.06 17.02 2.26 24.16 8.5 2.77 2.43 8.11 9.5 8.11 10.74 0 .47-3.9.85-8.69.85-7.06 0-9.07-.35-10.75-1.86-9.66-8.71-27.4-2.88-31.96 10.51-2.09 6.13-2 8.89.48 14.35 3.94 8.7 10.32 13.01 19.13 12.98 5.19-.02 12.85-2.65 14.23-4.88.72-1.16 15.74-1.59 16.86-.47.97.97-1.13 4.27-6.1 9.59-4.38 4.68-6.24 5.85-14.57 9.22-4.6 1.85-14.52 1.93-20.13.16zm63.5-.8c-15.46-5.86-23.58-17.76-23.4-34.3.1-10.73 3.73-18.88 11.54-26 6.89-6.27 12.93-8.51 22.93-8.5 18.72 0 31.1 10 35.41 28.57 1.37 5.93 1.36 7.16-.13 13.23-1.94 7.9-3.09 10.36-7.29 15.63-9.2 11.55-25.84 16.4-39.06 11.38zm21.1-15.1a22.93 22.93 0 0 0 7.65-7.12C380.62 52.33 381 50.99 381 45c0-6-.37-7.33-3.25-11.57-3.86-5.69-9.05-8.62-16.32-9.23-9.6-.8-18.82 6.09-21.5 16.07C336.6 52.63 347.29 66 360.5 66c3.48 0 6.64-.76 9.6-2.3zm55.8 12.6c-1.13-2.64-4.09-9.75-6.57-15.8-2.49-6.05-4.93-11.43-5.42-11.95-.55-.57-.91 5.54-.91 15.25V80h-14V11h7.83c9.15 0 7.33-2.2 16.18 19.5 7.5 18.42 11.15 26.5 11.95 26.5.58 0 9.67-20.66 14.04-31.92 1.16-2.98 3-7.37 4.08-9.75l1.97-4.33H470v70.1l-6.25-.3-6.25-.3-.27-16.75c-.15-9.21-.68-16.75-1.16-16.75-.49 0-2.98 5.06-5.54 11.25A389.72 389.72 0 0 1 443.2 75l-2.69 5.5-6.26.3-6.27.3zM473 46.05V11h14.54c15.97 0 19.15.86 24.66 6.66 5.87 6.2 7.56 17.1 3.83 24.84-2.58 5.37-3.77 6.7-8.93 9.94-3.5 2.2-5.98 2.88-12.22 3.3l-7.82.54-.28 12.11-.28 12.11-6.75.3-6.75.3zm28.18-8.08c2.45-2.44 2.9-3.54 2.34-5.75-1.27-5.12-3.29-6.34-9.96-6.01l-6.06.29-.3 7.25-.29 7.25h5.62c4.93 0 6-.38 8.65-3.03zM534 78.92c-6.28-2.84-9.67-6.41-12-12.64-1.8-4.83-2-7.8-2-30.32V11h14v23.55c0 19.05.29 24.1 1.51 26.47 2.82 5.46 8.48 6.57 12.84 2.53L551 61.1V11h14v26.68c0 24.98-.13 26.96-2.08 30.98-2.1 4.36-7.14 8.94-12.22 11.13-4.19 1.81-11.64 1.42-16.7-.87zm44.7 1.45c-.38-.38-.7-12.78-.7-27.54V26h-10V11h36v15h-10.97l-.26 27.25-.27 27.25-6.54.3c-3.6.15-6.86-.04-7.25-.43zM606 46V11h37.09l-.3 7.25-.29 7.25-10.75.28-10.75.29V39h22.09l-.3 7.25-.29 7.25-10.75.28-10.75.29V66h22v15h-37zm39 0V11h15.13c8.45 0 16.82.5 18.95 1.14 4.8 1.44 10.28 5.92 13.74 11.24 2.31 3.57 2.67 5.13 2.62 11.62-.04 5.65-.59 8.52-2.2 11.62-2.08 4-7.43 9.38-9.32 9.38-1.8 0-.88 3.16 2.41 8.3 4.6 7.19 8.67 14.58 8.67 15.74 0 .53-3.42.95-7.75.94l-7.75-.03-4-7.17c-2.2-3.95-5.46-9.33-7.25-11.96-1.79-2.62-3.25-5.01-3.25-5.31 0-1.04-4.51-7.49-5.25-7.5-.41 0-.75 7.19-.75 15.99v16h-14zm29.75-3.54c2.02-.85 4.03-2.08 4.45-2.75 1.48-2.32.83-7.68-1.17-9.68-2.59-2.59-5.33-3.2-12.57-2.84l-5.96.31-.3 7.41c-.2 5.26.08 7.65 1 8.24 2.14 1.35 10.61.96 14.55-.69zM6 45V10h39v13.94l-11.75.28-11.75.28-.3 6.75-.3 6.75H43.92l.3 7.25.29 7.25 6-8.21c3.3-4.52 7.58-10.5 9.5-13.3 3.24-4.7 5.05-7.22 12.36-17.24C75 10.15 75.33 10 81.06 10H87v70H73V69H50.24l-4.15 5.5-4.15 5.5h-7.97c-4.38 0-7.97-.28-7.97-.62 0-.56 2.94-4.8 12.72-18.38 6.27-8.7 6.81-8-6.18-8H21v27H6zm67 2c0-8.11-.94-9.85-3.12-5.77a69.92 69.92 0 0 1-5.04 7.09C62.73 50.99 61 53.59 61 54.09s2.7.91 6 .91h6zm16-2V10h16.08l3.36 7.25c1.85 3.99 4.72 10.4 6.39 14.25 5.95 13.8 9.96 22.62 10.55 23.21.33.33 2-2.5 3.7-6.3 1.7-3.8 4.4-9.65 6-12.99 1.6-3.34 2.92-6.37 2.92-6.72 0-.36 1.4-3.7 3.11-7.42 1.71-3.73 3.5-7.8 3.98-9.03.79-2.06 1.5-2.25 8.39-2.25H161v70h-13V63.44c0-10.81-.35-16.34-1-15.94-.55.34-1.96 2.73-3.13 5.31-1.16 2.58-3.78 8.29-5.81 12.69-2.04 4.4-4.34 9.46-5.13 11.25-1.4 3.19-1.54 3.25-7.94 3.25h-6.53L112 64.91c-3.56-8.3-6.81-15.3-7.23-15.55-.43-.27-.77 6.52-.77 15.08V80H89zm75 0V10h14v70h-14zm16.67 34.33c-.84-.83-.9-65.58-.06-67.75.47-1.23 2.13-1.58 7.48-1.58h6.88l.26 27.75.27 27.75 8.5.5 8.5.5.3 6.75.3 6.75H197.2c-8.73 0-16.18-.3-16.54-.67zM218 66.58c0-13.3-.03-13.47-3.35-19.75-10.68-20.16-17.72-34.9-17.14-35.85.4-.64 3.48-1 7.58-.88l6.9.2 5.14 10.1 6.26 12.34c.6 1.24 1.56 2.24 2.11 2.23.55-.01 3.95-5.52 7.56-12.25l6.55-12.22 6.34-.3c10.02-.48 9.97-.66 3.25 12.05-3.28 6.19-8.26 15.63-11.08 20.99L233 52.97V80h-15z" fill="red"/>
</svg>
