<svg xmlns="http://www.w3.org/2000/svg" viewBox="0 0 285.75 95.25" height="360" width="1080">
  <defs>
    <clipPath id="a">
      <path d="M0 452h610V0H0z"/>
    </clipPath>
  </defs>
  <path d="M105.3 25.08a20.95 20.95 0 0 0-20.96 20.96 20.95 20.95 0 0 0 20.95 20.95 20.95 20.95 0 0 0 20.96-20.95 20.95 20.95 0 0 0-20.96-20.96zm0 2.25a18.7 18.7 0 0 1 18.7 18.7 18.7 18.7 0 0 1-18.7 18.71 18.7 18.7 0 0 1-18.71-18.7 18.7 18.7 0 0 1 18.7-18.7z" fill="#fff"/>
  <g transform="matrix(1.34174 0 0 .46043 -85.34 1.2)" fill="#fff" stroke="#fff" stroke-linejoin="round">
    <path stroke-width=".79" d="M108.67 15.88h14.74v5.29h-14.74z"/>
    <rect width="14.72" height="3.97" x="108.69" y="14.2" rx=".99" ry="2.87" stroke-width=".84"/>
  </g>
  <g transform="matrix(1.34174 0 0 -.46043 -85.34 90.87)" fill="#fff" stroke="#fff" stroke-linejoin="round">
    <path stroke-width=".79" d="M108.67 15.88h14.74v5.29h-14.74z"/>
    <rect width="14.72" height="3.97" x="108.69" y="14.2" rx=".99" ry="2.87" stroke-width=".84"/>
  </g>
  <circle r="11.16" cy="46.04" cx="105.29" fill="#fff"/>
  <rect ry=".53" rx=".53" y="19.12" x="59.26" height="14.02" width="10.05" fill="#fff" stroke="#fff" stroke-width=".1" stroke-linejoin="round"/>
  <rect ry=".53" rx=".53" y="38.56" x="59.26" height="14.02" width="10.05" fill="#fff" stroke="#fff" stroke-width=".1" stroke-linejoin="round"/>
  <rect ry=".53" rx=".53" y="58.94" x="59.26" height="14.02" width="10.05" fill="#fff" stroke="#fff" stroke-width=".1" stroke-linejoin="round"/>
  <path d="M166.62 34c0 .29.24.52.53.52h6.37c.3 0 .53-.23.53-.53v-9.8c0-.3-.23-.54-.53-.54h-6.37c-.3 0-.53.24-.53.53zm1.16-4.74c0-.5.12-.9.34-1.17.23-.29.53-.43.89-.43.64 0 1.05.33 1.21.98h.02c.04-.35.17-.62.38-.82.21-.2.47-.3.77-.3.46 0 .83.16 1.1.5.27.34.4.8.4 1.4 0 .5-.08.92-.25 1.24h-.94c.24-.33.36-.71.36-1.16 0-.27-.06-.49-.18-.64a.6.6 0 0 0-.5-.24c-.22 0-.4.1-.51.3-.12.18-.18.45-.18.78v.45h-.83v-.41c0-.65-.22-.97-.64-.97-.4 0-.6.25-.6.74 0 .33.1.65.31.97h-.89a2.66 2.66 0 0 1-.26-1.22zM201.77 50.94c0 .3.23.53.52.53h6.38c.3 0 .53-.23.53-.53v-9.81c0-.3-.24-.53-.53-.53h-6.38c-.29 0-.52.24-.52.53zm1.16-4.93c0-.49.11-.88.35-1.17.23-.29.52-.44.89-.44.54 0 .93.32 1.19.94h.01c.1-.33.27-.6.5-.78.22-.18.47-.28.75-.28.44 0 .79.17 1.04.49.25.32.38.77.38 1.35 0 .5-.13.9-.37 1.21-.25.3-.58.46-.98.46-.6 0-1.03-.33-1.3-1h-.02c-.23.57-.61.85-1.13.85-.38 0-.7-.15-.94-.45a1.8 1.8 0 0 1-.37-1.18zm.78 0c0 .18.05.32.16.43.1.12.23.17.4.17.3 0 .54-.2.7-.59-.17-.4-.4-.6-.7-.6-.18 0-.31.06-.4.17-.11.1-.16.25-.16.42zm2.09.06c.18.46.46.7.83.7.18 0 .33-.08.45-.22a.79.79 0 0 0 .17-.52c0-.21-.06-.39-.17-.52a.57.57 0 0 0-.46-.2c-.37 0-.65.25-.82.76zM184.2 50.94c0 .3.23.53.52.53h6.38c.29 0 .53-.23.53-.53v-9.81c0-.3-.24-.53-.53-.53h-6.38c-.3 0-.53.24-.53.53zm1.2-3.5v-2.73h.89v1.8h.98a4.32 4.32 0 0 1-.02-.4c0-.5.14-.9.4-1.2a1.4 1.4 0 0 1 1.08-.42c.5 0 .9.17 1.22.5.32.35.47.81.47 1.4 0 .48-.07.88-.21 1.2h-.93c.2-.34.3-.7.3-1.08 0-.29-.06-.51-.2-.67a.7.7 0 0 0-.55-.25c-.5 0-.74.35-.74 1.04 0 .23.02.5.07.82zM219.34 34c0 .29.23.52.53.52h6.37c.3 0 .53-.23.53-.53v-9.8c0-.3-.23-.54-.53-.54h-6.37c-.3 0-.53.24-.53.53zm1.46-4.3V29l1.23.26v-.8l-1.23-.25v-.7l1.23.25v-.63l.62.13v.64l.85.19v-.72l.62.16v.68l1.2.27v.7l-1.2-.26v.79l1.2.25v.7l-1.2-.25v.64l-.62-.13v-.65l-.85-.18v.7l-.62-.12v-.7zm1.85-.3l.85.18v-.8l-.85-.19zM219.34 50.94c0 .3.23.53.53.53h6.37c.3 0 .53-.23.53-.53v-9.81c0-.3-.23-.53-.53-.53h-6.37c-.3 0-.53.24-.53.53zm1.16-4.97c0-1.15.84-1.72 2.52-1.72.83 0 1.48.15 1.92.47.45.31.67.76.67 1.35 0 1.17-.83 1.76-2.48 1.76-.85 0-1.5-.16-1.95-.48a1.6 1.6 0 0 1-.68-1.38zm.83.05c0 .47.6.7 1.78.7 1.1 0 1.67-.23 1.67-.69 0-.45-.58-.67-1.73-.67-1.14 0-1.72.22-1.72.66zM219.34 67.9c0 .29.23.52.53.52h6.37c.3 0 .53-.23.53-.53v-9.81c0-.3-.23-.53-.53-.53h-6.37c-.3 0-.53.24-.53.53zm1.53-4.5v-.85l1.88.15-.61-1.64.78-.26.34 1.7 1.51-1.17.47.68-1.64.96 1.64.98-.47.69-1.5-1.18-.35 1.71-.78-.28.61-1.62zM201.77 67.9c0 .29.23.52.52.52h6.38c.3 0 .53-.23.53-.53v-9.81c0-.3-.24-.53-.53-.53h-6.38c-.29 0-.52.24-.52.53zm1.24-3.2v-3.43h.5l4.44 1.74v1.15l-4.05-1.75v2.3zM184.2 67.9c0 .29.23.52.52.52h6.38c.29 0 .53-.23.53-.53v-9.81c0-.3-.24-.53-.53-.53h-6.38c-.3 0-.53.24-.53.53zm1.24-5.12v-1.07h3.11v-.6h.78v.6h1.05v1h-1.05v2.15h-.7zm1.09-.07l.38.19 1.64 1.05V62.7H187l-.47-.01zM166.62 67.9c0 .29.24.52.53.52h6.37c.3 0 .53-.23.53-.53v-9.81c0-.3-.23-.53-.53-.53h-6.37c-.3 0-.53.24-.53.53zm1.2-5.47H172V61.4h.86v3.13h-.86V63.5h-3.08l.23 1.05h-.88zM166.62 50.94c0 .3.24.53.53.53h6.37c.3 0 .53-.23.53-.53v-9.81c0-.3-.23-.53-.53-.53h-6.37c-.3 0-.53.24-.53.53zm1.2-4.94c0-.5.13-.9.39-1.19.25-.28.6-.42 1.02-.42.58 0 1.18.34 1.8 1.03l.9 1.02h.02v-2h.9v3.25H172l-1.35-1.42c-.28-.28-.5-.48-.69-.6a1.08 1.08 0 0 0-.58-.17c-.46 0-.69.24-.69.73 0 .43.17.83.51 1.22h-.96a2.62 2.62 0 0 1-.41-1.45zM201.77 34c0 .29.23.52.52.52h6.38c.3 0 .53-.23.53-.53v-9.8c0-.3-.24-.54-.53-.54h-6.38c-.29 0-.52.24-.52.53zm1.16-4.92c0-.53.2-.95.6-1.26.4-.31.97-.47 1.71-.47.88 0 1.57.19 2.06.57.5.37.74.9.74 1.58 0 .4-.07.75-.2 1.04h-.9c.18-.26.26-.57.26-.93 0-.39-.13-.68-.38-.89-.26-.2-.63-.31-1.1-.31l-.01.02c.32.22.48.55.48 1 0 .4-.14.73-.42 1-.28.26-.65.4-1.1.4-.53 0-.95-.17-1.26-.49a1.71 1.71 0 0 1-.48-1.26zm.83.03c0 .2.07.35.23.47.15.12.35.18.59.18a.9.9 0 0 0 .6-.18.62.62 0 0 0 .2-.5.59.59 0 0 0-.2-.45.76.76 0 0 0-.52-.18c-.26 0-.47.06-.64.19a.56.56 0 0 0-.26.47zM184.2 34c0 .29.23.52.52.52h6.38c.29 0 .53-.23.53-.53v-9.8c0-.3-.24-.54-.53-.54h-6.38c-.3 0-.53.24-.53.53zm1.15-5.41c0-.38.05-.68.14-.9h.9c-.13.26-.2.53-.2.83 0 .36.14.66.42.88.27.23.65.34 1.11.35v-.02a1.17 1.17 0 0 1-.52-1.04c0-.4.14-.74.42-.98.28-.24.65-.36 1.11-.36.5 0 .91.16 1.24.48.33.32.5.73.5 1.23 0 .55-.2.99-.6 1.3-.41.31-.98.47-1.7.47-.86 0-1.54-.2-2.05-.6-.5-.4-.77-.95-.77-1.64zm2.66.47c0 .2.07.36.2.48a.8.8 0 0 0 .55.18c.24 0 .44-.06.62-.18a.57.57 0 0 0 .25-.48c0-.2-.08-.35-.23-.47a.96.96 0 0 0-.6-.18c-.53 0-.8.22-.8.65z" fill="#fff" stroke="#fff" stroke-width=".08" stroke-linejoin="round"/>
  <text y="30.14" x="190.92" style="line-height:1.25" font-weight="400" font-size="10.58" font-family="sans-serif" letter-spacing="0" word-spacing="0" stroke-width=".26"/>
</svg>
