<svg xmlns="http://www.w3.org/2000/svg" viewBox="0 0 285.75 95.25" height="360" width="1080">
  <g fill="#fff">
    <circle r="8.82" cy="20.19" cx="119.29"/>
    <path d="M149.45 32.22a25.83 25.83 0 0 0-25.83 25.83 25.83 25.83 0 0 0 25.83 25.83 25.83 25.83 0 0 0 25.83-25.83 25.83 25.83 0 0 0-25.83-25.83zm0 10.2a15.62 15.62 0 0 1 15.62 15.63 15.62 15.62 0 0 1-15.62 15.62 15.62 15.62 0 0 1-15.63-15.62 15.62 15.62 0 0 1 15.63-15.63z"/>
    <path d="M161.31 54.87l-1.22 9.32-7.46 5.72-9.32-1.22-5.73-7.46 1.23-9.32 7.46-5.73 9.32 1.23z"/>
  </g>
</svg>
