<svg xmlns="http://www.w3.org/2000/svg" version="1.2" width="560.65" height="60.92">
  <g fill="#d70000">
    <path d="M47.8 18.23a21.23 21.23 0 1 0 1.9 21.21H30.96v-9.66h29.93l.02.68a30.44 30.44 0 0 1-30.45 30.46 30.47 30.47 0 1 1 27.89-42.7H47.8zM93.22.6L54.73 58.56h11.92l8.22-12.38h18.35v12.4h9.92V.6h-9.92zM81.45 36.25l11.77-17.7v17.7H81.45zM180.87.6l-26.54 39.95V.6h-9.93l-38.48 57.96h11.92l26.56-40.01v40.03h9.93v-.07l26.54-39.96v40.03h9.92V.6h-9.92zM228.97 10.53V.6h-30.15v58l9.92-.04h20.23v-9.93h-20.23V35.12h20.23v-9.93h-20.23V10.53h20.23zM292.16 39.5l7.96-17.92h-9.73l-5.13 11.55-7.63-7.04c3.5-2.81 6.56-6.36 6.56-12.29 0-3.18-1.26-6.18-3.52-8.46a14.25 14.25 0 0 0-10.02-4.07c-6.55 0-13.34 4.69-13.34 12.53 0 5.46 3.01 9 6 11.6-5.53 3.93-10.35 8.1-10.35 16.7a17.5 17.5 0 0 0 4.97 12.53c3.23 3.23 7.75 5.02 12.72 5.02 9.4 0 14.07-4.56 17.65-11.6l11.54 10.67 6.05-6.53-13.73-12.68zm-25.01-27.97a5.09 5.09 0 0 1 3.5-1.35c1.4 0 2.82.56 3.72 1.45.63.63.93 1.33.93 2.17 0 2.5-1.2 3.86-4.47 6.28-2.87-2.29-4.62-3.89-4.62-6.28 0-.89.3-1.63.94-2.27m14.12 30.6c-3.07 6.84-5.26 8.61-10.62 8.61-2.64 0-4.85-.84-6.43-2.4a8.6 8.6 0 0 1-2.36-6.24c0-4.68 2.4-6.53 8.33-10.63a.66.66 0 0 0 .08-.07l11.17 10.32-.17.4z"/>
    <g>
      <path d="M419.2 2.03L380.74 60h11.91l8.22-12.38h18.35v12.4h9.93V2.03h-9.93zM407.46 37.7l11.76-17.7v17.7h-11.76zM338 60.01l26.53-39.96v39.97h9.93l38.49-57.96h-11.92l-26.57 40V2.03h-9.93v.08l-26.52 39.95V2.03h-9.93v57.99H338zM550.72 2.03v23.35H532.8V2.03h-9.92v57.98h9.92V35.3h17.92V60h9.93V2.03h-9.93zM465.42 2.03h-32.4v9.93h11.24V60h9.92V11.96h11.24V2.03z"/>
      <path d="M508.85 44.38a20.82 20.82 0 1 1-15.47-34.74c6.05 0 11.5 2.72 15.3 6.9h11.63C515.22 6.87 505.07.04 493.38.04a30.42 30.42 0 1 0 27.04 44.34h-11.57z"/>
    </g>
  </g>
</svg>
