<svg xmlns="http://www.w3.org/2000/svg" viewBox="0 0 285.75 95.25" height="360" width="1080">
  <defs>
    <clipPath id="a">
      <path d="M0 452h610V0H0z"/>
    </clipPath>
  </defs>
  <g fill="#fff">
    <circle r="7.35" cy="67.657" cx="193.857"/>
    <path d="M69.939 27.292a.528.528 0 0 0-.53.53v11.297H58.112a.528.528 0 0 0-.53.53v9.097c0 .293.237.53.53.53h11.297v11.297c0 .293.236.529.53.529h9.098c.293 0 .529-.236.529-.53V49.276h11.297c.294 0 .53-.236.53-.529v-9.098a.528.528 0 0 0-.53-.529H79.566V27.822a.528.528 0 0 0-.53-.53z"/>
    <circle r="6.027" cy="50.714" cx="210.224"/>
    <circle r="7.35" cy="51.078" cx="179.346"/>
    <circle r="7.35" cy="47.134" cx="139.836"/>
    <circle r="6.027" cy="27.819" cx="210.055"/>
    <circle r="6.027" cy="38.497" cx="197.572"/>
    <circle r="6.027" cy="39.253" cx="222.14"/>
    <g transform="translate(-3.417 22.301)">
      <path d="M142.875 40.064l-10.024 4.152L128.7 54.24l4.151 10.023 10.024 4.152 10.024-4.152 4.151-10.023-4.151-10.024zm0 3.99A10.185 10.185 0 0 1 153.06 54.24a10.185 10.185 0 0 1-10.185 10.184A10.185 10.185 0 0 1 132.69 54.24a10.185 10.185 0 0 1 10.185-10.185z"/>
      <circle cx="142.875" cy="54.24" r="8.578"/>
    </g>
    <path d="M225.083 19.333c.016-.857.047-2.572.05-3.477.005-.906-.034-1.06-.112-1.153-.078-.093-.203-.156-.749-.562-.546-.405-1.512-1.153-2.697-1.917a34.053 34.053 0 0 0-4.069-2.23c-1.48-.685-3.04-1.278-4.677-1.824a47.36 47.36 0 0 0-5.192-1.434c-1.84-.39-3.804-.67-5.94-.998-2.136-.327-4.443-.701-7.158-1.076a255.768 255.768 0 0 0-8.26-.997c-2.433-.25-4.18-.374-5.068-.359-.889.015-.92.171-.404.968.515.797 1.573 2.228 2.128 2.995.555.767.63.917.77.993.142.076.422.111 1.948.25 1.527.139 4.398.391 7.33.703 2.93.312 5.955.686 8.465 1.045 2.51.358 4.506.701 6.236 1.075 1.73.375 3.196.78 4.709 1.326a38.154 38.154 0 0 1 4.458 1.948 29.61 29.61 0 0 1 3.711 2.261c1.107.795 2.105 1.637 2.722 2.137s.854.657 1.088.797c.234.14.465.264.58.325.116.062.116.062.131-.796zM53.967 19.333c-.016-.857-.047-2.572-.05-3.477-.004-.906.034-1.06.112-1.153.078-.093.203-.156.749-.562.546-.405 1.512-1.153 2.696-1.917a34.054 34.054 0 0 1 4.07-2.23c1.48-.685 3.04-1.278 4.677-1.824a47.361 47.361 0 0 1 5.191-1.434c1.84-.39 3.805-.67 5.94-.998 2.137-.327 4.444-.701 7.159-1.076 2.714-.374 5.829-.748 8.26-.997 2.433-.25 4.179-.374 5.068-.359.888.015.92.171.404.968-.515.797-1.573 2.228-2.128 2.995-.555.767-.63.917-.771.993-.14.076-.42.111-1.948.25-1.526.139-4.397.391-7.328.703-2.931.312-5.956.686-8.466 1.045-2.51.358-4.506.701-6.236 1.075-1.73.375-3.196.78-4.709 1.326a38.155 38.155 0 0 0-4.459 1.948 29.609 29.609 0 0 0-3.71 2.261c-1.107.795-2.105 1.637-2.722 2.137-.618.5-.854.657-1.088.797-.234.14-.465.264-.58.325-.116.062-.116.062-.131-.796z"/>
  </g>
</svg>
