<svg xmlns="http://www.w3.org/2000/svg" width="566.93" height="102.84">
  <path fill="#0222A9" d="M51.5 11.13L39.6 32.33l11.88-4.56 11.34 4.34 3.03-3.4V5.55z"/>
  <path fill="#011DA9" d="M88.4 87.29l-21.46-28v37.02l-15.45 6.53V39.61l15.45-5.92 21.45 30.66V25.37l14.59-5.63v61.42z"/>
  <path fill="#0222A9" d="M14.59 87.29l13.69-6.06-13.7-26.58z"/>
  <g fill="#069330">
    <path d="M29.18 19.74l6.86 13.95 3.57-1.37 11.88-21.2-14.37-5.58zM62.83 32.11L73.8 19.74l14.58 5.63v38.98L66.94 33.7z"/>
    <path d="M14.59 25.37L0 19.74v61.42l14.59 6.13V54.65l21.45 41.66 15.45 6.53V39.61l-15.45-5.92v32.1z"/>
  </g>
  <g fill="#FE2015">
    <path d="M36.04 33.69v32.1L14.6 25.37l14.59-5.63zM88.4 87.29l-21.46-28v15.3l4.38 6.14z"/>
  </g>
  <g fill="#FFC001">
    <path d="M66.94 33.69L51.49 39.6l-15.45-5.92 15.45-5.92zM73.8 19.74l14.6-5.61 14.58 5.61-14.59 5.63zM0 19.74l14.59-5.61 14.59 5.61-14.6 5.63zM65.86 5.55L51.5 0 37.12 5.54l14.37 5.59z"/>
  </g>
  <g>
    <g fill="#7B7692">
      <path d="M154.07 81.25h21.38v-47.5h-14.47V61h-.12l-9.54-27.24h-21.37v47.5h14.45V53.83h.13zM234.71 81.25h21.38v-47.5h-14.45V61h-.13l-9.54-27.24h-21.38v47.5h14.47V53.83h.12zM373.58 81.25h21.38v-47.5H380.5V61h-.13l-9.54-27.24h-21.37v47.5h14.45V53.83h.13zM184.18 33.75H202v47.5h-17.83zM272.6 46.66h-11.34v-12.9h40.52v12.9h-11.36v34.6h-17.83zM307.05 33.74h35.26V46.3H324.6v4.97h16.3v12.18h-16.3v5.33h18.27v12.46h-35.82z"/>
    </g>
    <g fill="#0124A6">
      <path d="M402.63 33.75h21.12c18.02 0 23.75 10.2 23.75 24.28 0 14.34-8.85 23.22-22.68 23.22h-22.19v-47.5zm17.45 36.7h1.74c2.87 0 4.79-.87 5.91-2.78 1.19-1.97 1.32-5.57 1.32-10.17s-.13-8.2-1.32-10.17c-1.12-1.91-3.04-2.8-5.9-2.8h-1.75v25.93zM475.45 32.5c15.52 0 23.25 10.2 23.25 25s-7.73 25-23.25 25-23.24-10.2-23.24-25 7.72-25 23.24-25zm0 37.97c2.74 0 4.8-1.35 4.8-12.97 0-11.36-1.94-12.96-4.8-12.96s-4.8 1.6-4.8 12.96c0 11.62 2.06 12.97 4.8 12.97zM507.02 71.23a5.63 5.63 0 1 0 .01 11.26 5.63 5.63 0 0 0 0-11.26zm0 10.28a4.64 4.64 0 1 1 .01-9.28 4.64 4.64 0 0 1 0 9.28z"/>
      <path d="M506.1 79.96h-1.32v-6.2h2.64c1.06.02 2.15.36 2.15 1.62 0 .8-.52 1.34-1.29 1.5v.02c1.02.11 1.02.73 1.14 1.6.06.39.1 1.12.36 1.46h-1.47c-.11-.55-.18-1.1-.23-1.66-.04-.34-.12-.82-.56-.84h-1.41v2.5zm0-3.53h1.13c.58 0 .93-.3.93-.85 0-.54-.35-.78-.93-.78h-1.12v1.63zM154.07 81.25h21.38v-47.5h-14.47V61h-.12l-9.54-27.24h-21.37v47.5h14.45V53.83h.13zM234.71 81.25h21.38v-47.5h-14.45V61h-.13l-9.54-27.24h-21.38v47.5h14.47V53.83h.12zM373.58 81.25h21.38v-47.5H380.5V61h-.13l-9.54-27.24h-21.37v47.5h14.45V53.83h.13zM184.18 33.75H202v47.5h-17.83zM272.6 46.66h-11.34v-12.9h40.52v12.9h-11.36v34.6h-17.83zM307.05 33.74h35.26V46.3H324.6v4.97h16.3v12.18h-16.3v5.33h18.27v12.46h-35.82z"/>
    </g>
    <g fill="#FF2D1E">
      <path d="M530.58 27.44a23.7 23.7 0 0 0-3.16.01c-7.52.35-10.56 3.55-11.59 7.17h.18c1.88-1.63 4.2-2.4 7.3-2.4 5.96 0 11.4 4.34 11.4 12.48 0 7.79-5.98 13.85-14.01 13.85-10.59 0-15.19-8.08-15.19-16.75 0-7.04 2.5-13 6.6-16.85 3.9-3.61 8.93-5.44 15.09-5.58 1.63-.1 2.6 0 3.38.07v8zm-10.02 23.45c2.44 0 3.92-2.49 3.92-5.67-.02-2.69-1.25-5.61-4.52-5.61-2 0-3.56 1.26-4.14 2.8a5.38 5.38 0 0 0-.32 2.26c.21 3.04 1.68 6.22 5 6.22h.06zM553.37 57.91V49.4h-15.85v-6.81l12.72-22.67h12.66v21.67h4.03v7.8h-4.03v8.53h-9.53zm0-16.33v-6.53c0-2.42.14-4.92.26-7.57h-.2c-1.18 2.57-2.2 5-3.55 7.66l-3.11 6.33-.04.11h6.63z"/>
    </g>
  </g>
</svg>
