<?xml version="1.0" encoding="UTF-8" standalone="no"?>
<!-- Generator: Adobe Illustrator 16.0.3, SVG Export Plug-In . SVG Version: 6.00 Build 0)  -->

<svg
   xmlns:dc="http://purl.org/dc/elements/1.1/"
   xmlns:cc="http://creativecommons.org/ns#"
   xmlns:rdf="http://www.w3.org/1999/02/22-rdf-syntax-ns#"
   xmlns:svg="http://www.w3.org/2000/svg"
   xmlns="http://www.w3.org/2000/svg"
   xmlns:sodipodi="http://sodipodi.sourceforge.net/DTD/sodipodi-0.dtd"
   xmlns:inkscape="http://www.inkscape.org/namespaces/inkscape"
   version="1.1"
   id="Ebene_1"
   x="0px"
   y="0px"
   width="566.929px"
   height="128.211px"
   viewBox="0 0 566.929 128.211"
   enable-background="new 0 0 566.929 128.211"
   xml:space="preserve"
   sodipodi:docname="system.svg"
   inkscape:version="0.92.2 (5c3e80d, 2017-08-06)"><metadata
     id="metadata586"><rdf:RDF><cc:Work
         rdf:about=""><dc:format>image/svg+xml</dc:format><dc:type
           rdf:resource="http://purl.org/dc/dcmitype/StillImage" /></cc:Work></rdf:RDF></metadata><defs
     id="defs584" /><sodipodi:namedview
     pagecolor="#ffffff"
     bordercolor="#666666"
     borderopacity="1"
     objecttolerance="10"
     gridtolerance="10"
     guidetolerance="10"
     inkscape:pageopacity="0"
     inkscape:pageshadow="2"
     inkscape:window-width="1366"
     inkscape:window-height="746"
     id="namedview582"
     showgrid="false"
     inkscape:zoom="24.906116"
     inkscape:cx="572.81309"
     inkscape:cy="0.56300443"
     inkscape:window-x="1912"
     inkscape:window-y="1072"
     inkscape:window-maximized="1"
     inkscape:current-layer="Ebene_1" /><g
     id="Ebene_2" /><g
     id="Layer_1"><g
       id="g578"><g
         id="g453"><g
           id="g451"><g
             enable-background="new    "
             id="g449"><g
               enable-background="new    "
               id="g434"><g
                 id="g432"><g
                   id="g430"><g
                     id="g428"><path
                       id="SVGID_1_"
                       d="M252.629,61.838l3.529,5.3c-0.273-0.412-0.726-0.676-1.179-0.676c-0.478,0-0.955,0.295-1.221,1.027           l-3.529-5.299c0.267-0.732,0.743-1.029,1.222-1.029C251.903,61.161,252.354,61.427,252.629,61.838z" /></g></g></g></g><g
               enable-background="new    "
               id="g443"><g
                 id="g441"><g
                   id="g439"><g
                     id="g437"><path
                       id="SVGID_3_"
                       d="M311.432,60.064l3.53,5.3c-0.172-0.258-0.422-0.391-0.687-0.391c-0.353,0-0.724,0.236-0.964,0.721           l-3.527-5.299c0.239-0.483,0.613-0.72,0.965-0.72C311.011,59.674,311.261,59.807,311.432,60.064z" /></g></g></g></g><g
               id="g447"><path
                 d="M314.466,41.153l29.807,0.189c0.568,0,4.659,0.663-0.453,1.999c-4.084,1.063-7.429,0.661-8.764,5.979l-16.086,64.575        c-1.336,5.768,3.152,10.742,8.955,12.301c1.313,0.32,1.393,1.714-0.157,1.799l-19.586-0.723l-23.796,0.804        c-1.728,0-1.795-1.794,0.085-2.125c5.562-0.567,10.478-5.151,11.548-8.913l15.643-56.077c0.002-0.846-0.435-1.287-0.914-1.287        c-0.35,0-0.724,0.236-0.965,0.719l-44.044,63.917c-1.22,1.967-3.14,3.271-4.838,3.271c-1.835,0-3.412-1.521-3.578-5.375        l-4.433-59.588c-0.048-0.826-0.744-1.454-1.438-1.454c-0.478,0-0.956,0.297-1.222,1.029l-15.107,47.273        c-1.237,3.592-1.325,7.104,0.147,9.645c1.463,2.611,5.229,5.803,9.64,6.701c1.714,0.412,1.628,2.125-0.004,2.209        l-15.824-0.662l-13.293,0.498c-1.561-0.084-1.393-1.631,0.004-1.883c4.578-0.979,9.826-5.637,12.205-12.266l19.571-62.897        c0.821-2.376-0.476-5.236-2.852-5.804l-6.055-1.229c-1.063-0.082-1.215-1.632,0.002-1.632l34.736-0.282l3.482,54.755        l2.548-3.099l33.147-49.173C312.984,43.683,313.968,42.134,314.466,41.153z"
                 id="path445" /></g></g></g></g><g
         id="g463"><g
           id="g461"><g
             enable-background="new    "
             id="g459"><g
               id="g457"><path
                 d="M359.425,40.928l40.013,0.331c1.882,0,2.765,3.332-1,3.664c-4.021,0.354-8.226,3.215-9.214,6.641l-18.747,64.8        c-0.905,3.439,1.593,9.183,8.05,9.669c1.063,0.247,1.061,1.877,0.079,1.877l-23.63-0.906l-22.697,0.685        c-1.232,0-0.896-1.629,0.154-1.795c3.111-0.567,12.154-4.076,13.88-9.633l20.901-64.692c1.309-4.656-3.016-6.949-7.922-8.095        C358.23,43.304,358.447,41.011,359.425,40.928z"
                 id="path455" /></g></g></g></g><g
         id="g473"><g
           id="g471"><g
             enable-background="new    "
             id="g469"><g
               id="g467"><path
                 d="M464.128,36.898c4.105,0,8.133,0.34,12.004,1.062c2.461,0.496,5.475,1.62,4.738,3.746l-5.906,15.057        c-0.467,1.534-1.244,2.462-2.031,2.462c-1.094,0-2.207-1.792-2.551-6.244c-0.195-2.436,0.197-11.205-3.146-11.393        c-0.85-0.046-1.695-0.067-2.543-0.067c-5.363,0-10.688,0.885-15.43,2.396c-18.068,5.767-29.525,15.623-37.079,32.453        c-7.386,16.191-3.739,33.693,1.478,39.662c3.557,4.066,11.865,6.874,18.252,6.874c3.75,0,6.836-0.97,7.904-3.224        c3.457-8.307,5.133-18.494,4.809-23.151c0.014-5.647-2.201-6.086-6.41-6.866c-2.951-0.313-3.896-2.227,1.615-2.227        c0.293,0,0.604,0.006,0.936,0.019c1.77-0.011,3.492-0.017,5.188-0.017c3.881,0,7.602,0.021,11.299,0.039        c3.473,0.018,6.924,0.035,10.473,0.035c3.246,0,6.576-0.017,10.072-0.06c0.98,0.483,0.896,0.897-0.088,1.384        c-5.973,0.897-8.352,2.043-8.924,4.254c-2.309,7.85-4.383,16.438-8.123,24.488c-1.33,2.883-7.604,5.626-9.648,6.204        c-6.354,2.263-16.916,4.063-26.975,4.063c-8.072,0-15.821-1.16-20.812-4.183c-18.713-11.438-22.079-33.127-14.438-47.428        C400.123,54.96,434.261,36.898,464.128,36.898z"
                 id="path465" /></g></g></g></g><g
         opacity="0.78"
         enable-background="new    "
         id="g479"><path
           d="M558.181,127.465v-4.979h-1.861v-0.667h4.477v0.667h-1.867v4.979H558.181z"
           id="path475" /><path
           d="M561.539,127.465v-5.646h1.125l1.338,4c0.123,0.371,0.213,0.65,0.271,0.836c0.063-0.206,0.164-0.508,0.299-0.906     l1.352-3.93h1.006v5.646h-0.719v-4.727l-1.643,4.727h-0.674l-1.633-4.808v4.808H561.539z"
           id="path477" /></g><g
         id="Tick"><g
           id="g523"><linearGradient
             id="SVGID_2_"
             gradientUnits="userSpaceOnUse"
             x1="54.5488"
             y1="1333.5625"
             x2="54.5488"
             y2="1266.4971"
             gradientTransform="matrix(1 0 0 1 8.3501 -1207.1035)"><stop
               offset="0.0604"
               style="stop-color:#53B848"
               id="stop481" /><stop
               offset="0.5549"
               style="stop-color:#65CCEC"
               id="stop483" /><stop
               offset="0.5832"
               style="stop-color:#61C3E7"
               id="stop485" /><stop
               offset="0.6882"
               style="stop-color:#55A7D8"
               id="stop487" /><stop
               offset="0.7933"
               style="stop-color:#4D92CD"
               id="stop489" /><stop
               offset="0.8976"
               style="stop-color:#4886C6"
               id="stop491" /><stop
               offset="1"
               style="stop-color:#4682C4"
               id="stop493" /></linearGradient><polygon
             fill="url(#SVGID_2_)"
             points="28.491,59.393 52.378,59.393 97.306,126.459 73.637,126.459     "
             id="polygon496" /><linearGradient
             id="SVGID_4_"
             gradientUnits="userSpaceOnUse"
             x1="66.5557"
             y1="1333.5"
             x2="173.0129"
             y2="1206.6292"
             gradientTransform="matrix(1 0 0 1 8.3501 -1207.1035)"><stop
               offset="0"
               style="stop-color:#6EBE44"
               id="stop498" /><stop
               offset="0.0011"
               style="stop-color:#6EBE44"
               id="stop500" /><stop
               offset="0.2454"
               style="stop-color:#BCDA20"
               id="stop502" /><stop
               offset="0.4194"
               style="stop-color:#ECEB09"
               id="stop504" /><stop
               offset="0.5055"
               style="stop-color:#FFF200"
               id="stop506" /><stop
               offset="0.5783"
               style="stop-color:#FBCA08"
               id="stop508" /><stop
               offset="0.6794"
               style="stop-color:#F79A11"
               id="stop510" /><stop
               offset="0.7753"
               style="stop-color:#F47419"
               id="stop512" /><stop
               offset="0.8635"
               style="stop-color:#F1581F"
               id="stop514" /><stop
               offset="0.9411"
               style="stop-color:#F04822"
               id="stop516" /><stop
               offset="1"
               style="stop-color:#EF4223"
               id="stop518" /></linearGradient><polygon
             fill="url(#SVGID_4_)"
             points="158.261,0.001 181.93,0.001 97.553,126.459 74.98,126.459     "
             id="polygon521" /></g><g
           id="g567"><linearGradient
             id="SVGID_5_"
             gradientUnits="userSpaceOnUse"
             x1="26.0576"
             y1="1333.5615"
             x2="26.0576"
             y2="1266.4971"
             gradientTransform="matrix(1 0 0 1 8.3501 -1207.1035)"><stop
               offset="0.0604"
               style="stop-color:#53B848"
               id="stop525" /><stop
               offset="0.5549"
               style="stop-color:#65CCEC"
               id="stop527" /><stop
               offset="0.5832"
               style="stop-color:#61C3E7"
               id="stop529" /><stop
               offset="0.6882"
               style="stop-color:#55A7D8"
               id="stop531" /><stop
               offset="0.7933"
               style="stop-color:#4D92CD"
               id="stop533" /><stop
               offset="0.8976"
               style="stop-color:#4886C6"
               id="stop535" /><stop
               offset="1"
               style="stop-color:#4682C4"
               id="stop537" /></linearGradient><polygon
             fill="url(#SVGID_5_)"
             points="0,59.393 23.889,59.393 68.816,126.458 45.147,126.458     "
             id="polygon540" /><linearGradient
             id="SVGID_6_"
             gradientUnits="userSpaceOnUse"
             x1="38.0635"
             y1="1333.498"
             x2="144.5208"
             y2="1206.6272"
             gradientTransform="matrix(1 0 0 1 8.3501 -1207.1035)"><stop
               offset="0"
               style="stop-color:#6EBE44"
               id="stop542" /><stop
               offset="0.0011"
               style="stop-color:#6EBE44"
               id="stop544" /><stop
               offset="0.2454"
               style="stop-color:#BCDA20"
               id="stop546" /><stop
               offset="0.4194"
               style="stop-color:#ECEB09"
               id="stop548" /><stop
               offset="0.5055"
               style="stop-color:#FFF200"
               id="stop550" /><stop
               offset="0.5783"
               style="stop-color:#FBCA08"
               id="stop552" /><stop
               offset="0.6794"
               style="stop-color:#F79A11"
               id="stop554" /><stop
               offset="0.7753"
               style="stop-color:#F47419"
               id="stop556" /><stop
               offset="0.8635"
               style="stop-color:#F1581F"
               id="stop558" /><stop
               offset="0.9411"
               style="stop-color:#F04822"
               id="stop560" /><stop
               offset="1"
               style="stop-color:#EF4223"
               id="stop562" /></linearGradient><polygon
             fill="url(#SVGID_6_)"
             points="129.769,0 153.438,0 69.063,126.458 46.489,126.458     "
             id="polygon565" /></g></g><g
         id="g572"><path
           d="M154.313,97.063l-11.644,16.51c-3.452,5.4,3.078,11.04,10.279,12.354c0.66,0.512,0.548,2.163-0.415,2.163     c-0.105,0-0.219-0.02-0.345-0.062c-0.144-0.063-2.86-1.195-9.034-1.772c-1.652-0.157-4.623-0.663-8.245-0.663     c-1.248,0-2.571,0.061-3.947,0.213l-13.024,1.834c-1.232-0.082-1.229-1.55,0.002-1.881c6.293-0.814,13.835-5.482,18.259-11.771     l52.979-73.901c0.875-1.269,2.745-2.007,4.565-2.007c2.279,0,4.474,1.158,4.517,3.887l1.745,73.983     c0.566,6.205,4.724,8.829,9.962,10.294c0.732,0.495,0.411,1.477-0.086,1.645c-0.34-0.007-6.801-0.106-14.522-1.254     c-1.807-0.267-3.22-0.421-4.946-0.421c-1.493,0-3.221,0.116-5.64,0.373c-3.029,0.32-1.598,0.366-13.862,0.91     c-0.466,0.022-0.919-0.099-1.017-0.888c0.109-0.91,1.48-1.348,1.918-1.465c4.9-1.358,7.317-3.816,8.392-9.846     c1.16-6.631,0.85-12.268,0.694-18.072 M173.393,92.741c2.696,0,5.234,0.015,7.125,0.056L179.816,62     c-0.133-0.4-0.313-0.605-0.519-0.605c-0.169,0-0.357,0.145-0.546,0.439c-6.558,9.313-15.59,20.729-22.065,29.972     c-0.415,0.73-0.001,0.979,0.98,0.979c0.157,0.015,0.688,0.019,1.498,0.019c1.393,0,3.607-0.015,6.142-0.026     C167.84,92.759,170.696,92.741,173.393,92.741"
           id="path570" /></g><g
         id="g576"><path
           d="M551.406,126.374c0.732,0.482,0.398,1.464-0.086,1.632c-0.34-0.006-6.801-0.106-14.521-1.239     c-1.834-0.271-3.254-0.429-5.002-0.429c-1.479,0-3.189,0.113-5.584,0.366c-3.041,0.318-1.598,0.365-13.877,0.91     c-0.457,0.021-0.904-0.098-1.002-0.887c0.107-0.909,1.48-1.338,1.906-1.467c4.908-1.348,7.326-3.815,8.404-9.845     c1.158-6.618,0.838-12.256,0.684-18.069l-26.588-0.153l-11.645,16.512c-3.439,5.392,3.09,11.024,10.289,12.338     c0.662,0.521,0.539,2.168-0.422,2.168c-0.107,0-0.223-0.021-0.352-0.063c-0.145-0.06-2.859-1.183-9.021-1.773     c-1.65-0.156-4.625-0.662-8.246-0.662c-1.248,0-2.57,0.059-3.945,0.213l-13.035,1.834c-1.221-0.084-1.219-1.551,0.004-1.881     c6.305-0.814,13.834-5.472,18.27-11.771l52.98-73.886c0.875-1.274,2.744-2.013,4.563-2.013c2.281,0,4.479,1.163,4.52,3.891     l1.744,73.972C542,122.283,546.169,124.896,551.406,126.374z M514.792,92.873c2.705,0,5.256,0.015,7.152,0.056l-0.689-30.812     c-0.137-0.4-0.318-0.605-0.521-0.605c-0.172,0-0.355,0.144-0.539,0.44c-6.568,9.325-15.592,20.74-22.078,29.97     c-0.404,0.732-0.002,0.98,0.979,0.98c0.191,0.018,0.945,0.022,2.078,0.022c1.377,0,3.32-0.012,5.516-0.022     C509.218,92.888,512.083,92.873,514.792,92.873"
           id="path574" /></g></g></g><path
     style="fill:#ffffff;stroke-width:0.45425421"
     d="m 150.31023,127.2156 c -2.14802,-0.66227 -11.91432,-1.78423 -15.43108,-1.77273 -1.75634,0.006 -5.85073,0.40987 -9.09865,0.89807 -3.24792,0.48819 -6.48448,0.89233 -7.19236,0.89807 -2.13557,0.0173 -1.15115,-0.98557 1.76594,-1.79905 5.09451,-1.42071 11.27904,-5.38042 14.36812,-9.19933 0.86194,-1.06559 13.68138,-18.842277 28.48764,-39.503757 23.93739,-33.403571 27.0959,-37.624223 28.50355,-38.088791 3.22848,-1.065494 5.92852,0.33128 6.29942,3.258794 0.1068,0.842967 0.52263,17.681404 0.92407,37.41875 0.40143,19.737346 0.92725,36.931334 1.16848,38.208854 0.7224,3.82573 3.96557,7.16049 8.19668,8.42816 0.99406,0.29783 1.74262,0.80908 1.74262,1.19017 0,0.771 -4.21433,0.57587 -13.97443,-0.64705 -4.45304,-0.55796 -6.50368,-0.60168 -10.22072,-0.21791 -2.5575,0.26406 -7.18129,0.61898 -10.27509,0.78874 -4.71262,0.25857 -5.5921,0.20551 -5.42167,-0.32707 0.11189,-0.34964 0.69579,-0.84012 1.29755,-1.08996 5.40823,-2.24539 7.15144,-3.93241 8.39686,-8.12619 0.98694,-3.3234 1.72536,-12.53534 1.35817,-16.94343 l -0.31561,-3.788917 -13.42277,0.120259 -13.42277,0.120259 -6.06471,8.605029 c -3.71907,5.27687 -6.178,9.20895 -6.35764,10.1665 -0.66981,3.57037 3.21274,7.84453 8.6884,9.56476 1.56756,0.49246 2.72552,1.11755 2.72552,1.47127 0,0.77534 -0.97448,0.90638 -2.72552,0.3665 z m 30.20671,-40.753117 c -0.002,-13.20012 -0.555,-25.079898 -1.16671,-25.079898 -0.3132,0 -2.16665,2.197454 -4.11879,4.883233 -1.95213,2.685778 -6.9017,9.380349 -10.99903,14.876825 -4.09733,5.496476 -7.556,10.269743 -7.68592,10.607254 -0.12992,0.337516 0.0491,0.794559 0.3978,1.015645 0.3487,0.22109 5.79547,0.396936 12.10393,0.390763 l 11.46991,-0.01122 -0.001,-6.682607 z"
     id="path588"
     inkscape:connector-curvature="0" /><path
     style="fill:#ffffff;stroke-width:0.45425421"
     d="m 215.04168,126.91741 c -1.2e-4,-0.30754 0.56192,-0.68944 1.24897,-0.84868 3.57086,-0.82759 8.73869,-5.5203 10.78044,-9.7893 0.63934,-1.33677 5.66097,-16.923786 11.15918,-34.637828 9.00555,-29.013907 9.94877,-32.352713 9.51289,-33.673448 -0.73226,-2.218778 -1.81481,-2.912277 -5.84784,-3.746218 -2.28121,-0.471702 -3.6869,-0.982676 -3.6869,-1.340198 0,-0.457569 3.62888,-0.577831 17.43587,-0.577831 h 17.43587 l 0.27643,2.839089 c 0.15204,1.561499 0.90017,13.162016 1.66249,25.778927 0.76233,12.616911 1.49846,23.655289 1.63585,24.529728 l 0.24978,1.58989 1.11461,-1.362763 c 1.2731,-1.556529 35.15858,-51.702993 35.99028,-53.261307 l 0.5455,-1.022072 15.08796,0.007 c 13.49915,0.0062 17.19672,0.246523 15.92141,1.03471 -0.21957,0.135697 -1.99556,0.655669 -3.94666,1.155493 -3.69801,0.947342 -4.95368,1.73921 -6.01629,3.794072 -0.92809,1.794728 -16.99187,66.991276 -16.98013,68.915646 0.0226,3.70301 2.85552,7.30234 7.37166,9.36599 1.43658,0.65643 2.61194,1.33185 2.61192,1.50091 -9e-5,0.51393 -44.73561,0.36731 -44.8076,-0.14686 -0.035,-0.24984 1.21849,-0.86968 2.7855,-1.37742 1.56701,-0.50774 3.70867,-1.51883 4.75925,-2.24688 3.83945,-2.66074 3.93927,-2.92781 12.33638,-33.003182 7.75665,-27.781485 7.76416,-27.812964 6.96617,-29.163861 -0.78898,-1.33563 -0.78678,-1.349198 0.17766,-1.09699 0.53709,0.140452 0.86198,0.07002 0.72196,-0.156524 -0.14001,-0.22654 -0.5307,-0.411891 -0.86821,-0.411891 -0.3375,0 -10.07763,13.746868 -21.64471,30.548596 -11.56709,16.801722 -21.85733,31.714202 -22.8672,33.138832 -2.89076,4.07803 -5.77036,5.07791 -7.58481,2.63368 -0.73915,-0.99569 -1.11175,-4.72528 -3.02382,-30.266946 -1.68687,-22.533367 -2.3382,-29.375152 -2.87574,-30.207905 -0.38221,-0.592123 -1.05718,-1.636645 -1.49994,-2.32116 -0.74257,-1.148058 -0.74665,-1.266961 -0.0526,-1.533301 0.45978,-0.176433 1.01868,0.04261 1.43703,0.563191 0.64452,0.802021 0.65561,0.792055 0.18932,-0.170153 -0.56179,-1.159299 -1.46811,-1.319368 -2.23543,-0.394808 -0.28632,0.344994 -4.10757,11.843304 -8.49166,25.551798 -7.53057,23.547114 -7.9624,25.090484 -7.81391,27.927394 0.12271,2.3445 0.43049,3.41587 1.40386,4.88672 1.57581,2.38122 4.25784,4.33288 7.65813,5.57269 5.09982,1.85949 3.86036,2.05501 -12.78829,2.01733 -11.90615,-0.0269 -15.44447,-0.16306 -15.44465,-0.59412 z"
     id="path590"
     inkscape:connector-curvature="0" /><path
     style="fill:#ffffff;stroke-width:0.45425421"
     d="m 365.62673,127.19994 c -3.99744,-0.19452 -13.27454,-0.23199 -20.61579,-0.0833 -14.50316,0.2938 -15.67896,0.0799 -10.03706,-1.82571 4.99954,-1.68866 9.38848,-4.65679 10.73431,-7.25934 0.39457,-0.76301 5.51366,-16.22305 11.37576,-34.355648 11.1996,-34.642552 11.24972,-34.840401 9.35714,-36.934951 -0.93027,-1.029548 -4.28765,-2.796155 -6.18134,-3.25254 -0.97515,-0.235014 -1.24473,-0.537289 -1.13563,-1.273372 l 0.14305,-0.965205 20.21431,0.09999 c 17.00809,0.08413 20.32117,0.2051 20.888,0.762657 1.04704,1.029915 0.0504,2.10186 -2.52316,2.713762 -4.17607,0.992931 -6.84291,2.682683 -8.11289,5.140467 -0.33964,0.6573 -4.95665,16.19291 -10.26002,34.523578 -9.34194,32.289652 -9.625,33.386972 -9.08134,35.204702 1.05882,3.5402 3.33375,5.5738 7.15883,6.39942 0.82321,0.17768 1.47633,0.60413 1.47633,0.96394 0,0.72554 -1.14927,0.73768 -13.4005,0.14153 z"
     id="path592"
     inkscape:connector-curvature="0" /><path
     style="fill:#ffffff;stroke-width:0.45425421"
     d="m 418.09309,127.43127 c -8.08018,-0.98087 -12.12141,-2.25466 -16.54964,-5.21645 -6.59466,-4.41077 -11.78456,-11.20399 -14.4673,-18.93669 -1.78893,-5.156381 -2.24869,-13.444649 -1.04573,-18.851728 4.60018,-20.676925 34.90544,-41.810496 66.62968,-46.464637 3.96167,-0.581201 7.10365,-0.706235 13.35681,-0.53153 8.7447,0.244314 12.3494,0.895155 13.97802,2.523776 l 0.93887,0.938869 -2.86927,7.405763 c -3.43672,8.870348 -4.425,10.9266 -5.14463,10.704091 -1.2523,-0.387208 -2.08809,-3.407074 -2.54161,-9.183313 -0.62036,-7.901114 -0.80479,-8.151004 -6.14685,-8.32865 -7.42698,-0.246977 -16.25331,1.960202 -25.01553,6.255578 -6.06629,2.973791 -9.49395,5.301143 -13.86922,9.417081 -5.00072,4.70432 -8.62639,9.726591 -12.06407,16.711146 -4.54059,9.225408 -6.16945,17.61025 -5.1756,26.642224 0.82145,7.46518 2.68894,12.52387 5.91565,16.02443 4.77168,5.17667 18.64163,8.31205 23.76731,5.37275 1.76262,-1.01078 3.11762,-3.74153 4.62174,-9.31429 2.35422,-8.72237 3.09433,-16.621095 1.83893,-19.625696 -0.81377,-1.947624 -2.08395,-2.75278 -5.40079,-3.423518 -1.63104,-0.329834 -2.5699,-0.735683 -2.46062,-1.063673 0.20638,-0.619407 41.66541,-1.019969 41.66541,-0.402556 0,0.200249 -1.482,0.711767 -3.29334,1.136717 -5.5016,1.290695 -5.4077,1.151889 -8.97796,13.271626 -2.9432,9.99106 -5.21364,15.41524 -7.10509,16.97434 -5.48042,4.51742 -18.11037,7.63399 -32.38663,7.99174 -3.63475,0.0911 -7.3241,0.0787 -8.19854,-0.0274 z"
     id="path594"
     inkscape:connector-curvature="0" /><path
     style="fill:#ffffff;stroke-width:0.45425421"
     d="m 490.77377,127.21804 c -1.62396,-0.4173 -5.71225,-1.022 -9.08509,-1.34378 -5.83846,-0.55702 -6.52439,-0.53013 -14.309,0.56082 -4.49712,0.63024 -8.33982,1.0531 -8.53933,0.93969 -0.71708,-0.40762 0.64073,-1.38016 2.30191,-1.64876 4.38961,-0.70976 12.22551,-5.74932 15.45436,-9.93929 1.01383,-1.31561 13.68969,-18.912699 28.16857,-39.104634 14.47887,-20.191934 26.76929,-37.02364 27.31203,-37.403792 0.54274,-0.380151 1.9105,-0.705148 3.03947,-0.722215 1.60937,-0.02433 2.29801,0.214318 3.18875,1.105057 l 1.13609,1.136087 0.86704,37.434371 c 0.52098,22.492606 1.07167,38.414146 1.3797,39.889046 0.66136,3.16681 3.62507,6.29653 7.23919,7.64472 1.34789,0.5028 2.53843,1.1774 2.64567,1.4991 0.22105,0.66315 -6.58721,0.3974 -13.55692,-0.52918 -2.27637,-0.30263 -6.09853,-0.39769 -9.31221,-0.2316 -17.75356,0.9175 -17.16425,0.90779 -16.9547,0.27912 0.22988,-0.68963 0.54197,-0.87421 4.08891,-2.41837 4.9396,-2.15044 6.27312,-5.88242 6.61251,-18.50571 l 0.22704,-8.444495 -13.24138,-0.317501 c -7.28275,-0.174625 -13.43219,-0.199572 -13.6654,-0.05544 -0.48227,0.298059 -11.40514,15.827996 -12.19992,17.345616 -1.18965,2.27164 -0.14665,5.79079 2.35515,7.94643 1.2616,1.08704 4.5869,2.81715 6.77814,3.52657 1.53248,0.49614 2.25179,1.52728 1.36276,1.95353 -0.18738,0.0898 -1.66938,-0.17809 -3.29334,-0.59539 z M 521.87403,77.8493 c -0.15673,-8.432094 -0.3641,-15.586598 -0.46083,-15.898898 -0.0967,-0.312299 -0.3561,-0.567817 -0.57636,-0.567817 -0.22026,0 -4.69813,5.774706 -9.95082,12.832681 -11.66621,15.675723 -13.3451,18.067853 -13.03402,18.571203 0.1339,0.216652 5.65774,0.393911 12.27522,0.393911 h 12.03175 z"
     id="path596"
     inkscape:connector-curvature="0" /><path
     style="fill:#ffffff;stroke-width:0.04015078"
     d="m 558.20623,124.97395 v -2.48935 h -0.94354 -0.94354 v -0.3212 -0.32121 h 2.22837 2.22836 v 0.32121 0.3212 h -0.92346 -0.92347 v 2.48935 2.48935 h -0.36136 -0.36136 z"
     id="path598"
     inkscape:connector-curvature="0" /><path
     style="fill:#ffffff;stroke-width:0.04015078"
     d="m 561.53875,124.65275 v -2.81056 h 0.5591 0.55909 l 0.79599,2.40741 c 0.4378,1.32407 0.80652,2.40814 0.81937,2.40904 0.0129,9.1e-4 0.0437,-0.0661 0.0686,-0.14892 0.0249,-0.0828 0.39362,-1.16688 0.81947,-2.40905 l 0.77426,-2.25848 h 0.49217 0.49217 v 2.81056 2.81055 h -0.34128 -0.34128 v -2.37693 c 0,-1.30731 -0.015,-2.35976 -0.0334,-2.33878 -0.0184,0.021 -0.36441,0.99574 -0.76897,2.16614 -0.40456,1.17039 -0.77025,2.22284 -0.81264,2.33878 l -0.0771,0.21079 h -0.31359 -0.31359 l -0.30632,-0.89335 c -0.16848,-0.49135 -0.54005,-1.57994 -0.82571,-2.41909 l -0.51938,-1.52573 -0.002,2.41909 -0.002,2.41908 h -0.36135 -0.36136 z"
     id="path600"
     inkscape:connector-curvature="0" /></svg>