<svg xmlns="http://www.w3.org/2000/svg" viewBox="23.58 0 290 60" height="60" width="290">
  <g aria-label="FAVORITES" style="line-height:3.25;-inkscape-font-specification:'Erbaum Bold'" font-weight="700" font-size="50.67" font-family="Erbaum" letter-spacing="-2.21" word-spacing="0" fill="#fff" stroke="none" stroke-width="5" stroke-linejoin="round" stroke-opacity="0" text-anchor="middle">
    <path d="M56.7 19.69v-7.75H31.06v36.12h9.12V34.6h14.4v-7.76h-14.4V19.7zM83.1 48.06h9.38l-11.4-36.12H67.75l-11.4 36.12h9.33L68 40.31h12.77zM70.4 32.51l4.05-13.38 4 13.38zM115.3 11.94l-7.96 27.26-7.95-27.26h-9.32l11 36.12h12.6l10.95-36.12zM147.61 11.43h-11.4c-6.08 0-9.17 3.04-9.17 8.97v19.2c0 5.93 3.1 8.97 9.17 8.97h11.4c6.08 0 9.17-3.04 9.17-8.97V20.4c0-5.93-3.09-8.97-9.17-8.97zm.05 10.44v16.26c0 1.98-.7 2.69-2.78 2.69h-5.93c-2.08 0-2.79-.71-2.79-2.69V21.87c0-2.03.71-2.69 2.79-2.69h5.93c2.07 0 2.78.66 2.78 2.69zM184.93 48.06h10.64l-9.12-13.37c3.5-1.12 5.22-3.9 5.22-8.36V20.9c0-5.93-3.09-8.97-9.22-8.97h-19.6v36.12h9.11V35.24h4.16zM171.96 19.7h7.75c2.13 0 2.84.66 2.84 2.68v2.49c0 1.97-.7 2.63-2.84 2.63h-7.75zM199.72 48.06h9.12V11.94h-9.12zM242.63 11.94h-29.69v7.75h10.29v28.37h9.12V19.7h10.28zM272.3 19.69v-7.75h-25.64v36.12h25.64v-7.75h-16.52v-6.84h14.39v-7.75h-14.39v-6.03zM285.42 48.57h11.5c6.08 0 9.17-3.04 9.17-8.97V34.8c0-5.27-2.28-7.5-8.61-8.41l-8.31-1.22c-3.2-.45-3.7-.76-3.7-2.48v-.81c0-1.98.76-2.69 2.94-2.69h5.62c2.08 0 2.79.66 2.79 2.69v.3l9.07-1.06c.05-.2.05-.26.05-.76 0-5.88-3.1-8.92-9.17-8.92h-11.2c-6.08 0-9.22 3.04-9.22 8.97v4.71c0 5.17 2.43 7.4 8.71 8.31l8.26 1.22c3.04.45 3.65.86 3.65 2.53v.96c0 1.98-.7 2.69-2.79 2.69h-6.03c-2.12 0-2.83-.71-2.83-2.69v-.35l-9.07 1.11c-.05.15-.05.2-.05.71 0 5.93 3.14 8.97 9.22 8.97z" style="line-height:2.25;-inkscape-font-specification:'Erbaum Bold';text-align:center"/>
  </g>
</svg>
