<svg width="1080" height="360" viewBox="0 0 285.75 95.25" xmlns="http://www.w3.org/2000/svg">
  <defs>
    <clipPath id="a">
      <path d="M0 452h610V0H0z"/>
    </clipPath>
  </defs>
  <g fill="#fff" stroke="#fff" stroke-width=".79">
    <path d="M110.72 78.6a20.35 20.35 0 0 1-3.07-.72l-.12-.04v-.12a27.63 27.63 0 0 1 .07-5.4c-.6-.26-1.17-.57-1.75-.9-.53-.35-1.1-.68-1.6-1.1-1.56.96-3.2 1.75-4.98 2.38l-.1.04-.09-.08a20.11 20.11 0 0 1-2.06-2.39l-.07-.1.07-.1a29.44 29.44 0 0 1 3.24-4.32c-.33-.56-.63-1.13-.88-1.74-.3-.6-.46-1.25-.67-1.85a26.57 26.57 0 0 1-5.43-.98l-.1-.04-.03-.11a20.06 20.06 0 0 1-.25-3.1v-.18l.1-.05c1.67-.69 3.45-1.21 5.16-1.58.05-.66.22-1.3.3-1.92l.01-.01v-.01c.2-.6.31-1.25.56-1.88a25.56 25.56 0 0 1-3.8-3.98l-.08-.08.05-.1c.46-.97 1.05-1.84 1.63-2.72l.07-.1.13.03c1.79.44 3.5 1.03 5.1 1.75.45-.45.87-.96 1.4-1.37.49-.44 1.01-.84 1.55-1.2a26.63 26.63 0 0 1-.74-5.47l-.01-.12.11-.06c.94-.44 1.9-.9 2.92-1.2l.11-.04.08.1a28.64 28.64 0 0 1 3.1 4.4c.65-.16 1.3-.22 1.94-.3a23.55 23.55 0 0 1 1.96-.06 26.12 26.12 0 0 1 2.62-4.84l.06-.1.11.02c1.05.15 2.07.41 3.07.72l.12.03.01.13a27.95 27.95 0 0 1-.08 5.39c.6.26 1.18.58 1.75.9.53.35 1.1.68 1.61 1.1 1.55-.96 3.2-1.75 4.97-2.38l.1-.04.09.08c.76.74 1.43 1.55 2.06 2.4l.08.1-.07.1a29.47 29.47 0 0 1-3.24 4.3c.33.57.63 1.14.87 1.75.3.6.47 1.25.68 1.85 1.76.14 3.63.46 5.42.99l.11.03.02.11c.16 1.03.26 2.06.26 3.1v.18l-.12.05c-1.65.7-3.43 1.22-5.15 1.58-.05.66-.21 1.3-.3 1.92v.01l-.01.02c-.19.6-.31 1.25-.56 1.87a25.59 25.59 0 0 1 3.81 3.98l.07.09-.05.1c-.46.96-1.05 1.84-1.63 2.71l-.07.1-.12-.02c-1.8-.45-3.51-1.04-5.11-1.75-.45.45-.87.95-1.4 1.36-.48.45-1 .84-1.55 1.2.45 1.78.67 3.57.75 5.48v.12l-.1.05c-.95.44-1.9.9-2.92 1.2l-.12.04-.08-.09a28.62 28.62 0 0 1-3.1-4.4c-.64.15-1.3.21-1.93.3a24.29 24.29 0 0 1-1.97.05 26.13 26.13 0 0 1-2.61 4.85l-.07.09zm-.06-.38c1.03-1.5 1.9-3.18 2.56-4.8l.05-.13h.13a23.7 23.7 0 0 0 2.04-.05c.68-.08 1.37-.14 2.01-.31l.14-.04.07.12a28.3 28.3 0 0 0 3.05 4.38c.9-.28 1.78-.7 2.65-1.1-.09-1.9-.31-3.65-.77-5.4l-.03-.13.11-.07c.57-.38 1.12-.78 1.63-1.25.53-.4.96-.94 1.46-1.43l.09-.09.11.05c1.58.71 3.27 1.3 5.04 1.75.53-.8 1.07-1.6 1.48-2.46a25.32 25.32 0 0 0-3.78-3.92l-.1-.09.04-.12c.27-.6.4-1.28.6-1.95.1-.69.28-1.35.3-2l.01-.15.14-.03a28.8 28.8 0 0 0 5.11-1.54c0-.96-.09-1.92-.23-2.87a26.34 26.34 0 0 0-5.36-.94l-.12-.01-.04-.11c-.24-.67-.4-1.34-.7-1.93v-.01c-.26-.63-.57-1.23-.92-1.82l-.07-.12.09-.1a28.81 28.81 0 0 0 3.22-4.25 19.8 19.8 0 0 0-1.86-2.17 25.24 25.24 0 0 0-4.9 2.39l-.12.07-.1-.1c-.51-.43-1.1-.78-1.67-1.15-.6-.34-1.2-.67-1.83-.93l-.12-.05.01-.14a30.48 30.48 0 0 0 .1-5.33 20 20 0 0 0-2.78-.65 25.9 25.9 0 0 0-2.56 4.8l-.05.12h-.13l-.56-.02c-.5 0-.99.03-1.47.06-.7.1-1.37.15-2.02.33l-.14.03-.07-.12a28.26 28.26 0 0 0-3.05-4.38c-.9.29-1.77.7-2.64 1.1.08 1.9.3 3.65.76 5.4l.03.13-.1.07c-.58.38-1.12.78-1.64 1.25-.52.4-.96.94-1.46 1.44l-.09.08-.11-.05a30.32 30.32 0 0 0-5.04-1.75c-.53.8-1.06 1.6-1.48 2.46a25.35 25.35 0 0 0 3.79 3.92l.1.09-.05.12c-.26.6-.39 1.28-.6 1.95-.1.7-.28 1.35-.3 2.01v.14l-.15.03c-1.7.35-3.46.87-5.1 1.54 0 .96.08 1.92.22 2.87 1.78.51 3.62.82 5.36.95h.12l.04.12c.24.66.4 1.33.7 1.92v.02c.26.62.58 1.23.93 1.81l.07.12-.1.1a28.8 28.8 0 0 0-3.22 4.25c.58.77 1.19 1.5 1.87 2.17a25.2 25.2 0 0 0 4.9-2.38l.11-.07.1.08c.51.44 1.1.79 1.67 1.16.6.34 1.2.67 1.83.93l.12.05-.01.14a30.45 30.45 0 0 0-.1 5.33 20 20 0 0 0 2.78.66zm-1.7-11.98A9.92 9.92 0 0 1 119.1 49.2a9.92 9.92 0 0 1-4.18 18.39l-.02-.18.02.18c-.29.02-.58.04-.87.04-1.78 0-3.58-.5-5.1-1.4zm4.2-18.02a9.56 9.56 0 0 0-4.02 17.7 9.72 9.72 0 0 0 5.75 1.32 9.56 9.56 0 0 0 4.03-17.71 9.73 9.73 0 0 0-5.75-1.31z"/>
    <path d="M160.22 79.22h-.13l-.04-.12a48 48 0 0 1-1.39-4.93c-.63-.07-1.28-.13-1.91-.25-.65-.1-1.28-.24-1.9-.38a41.95 41.95 0 0 1-3.22 4.13l-.08.08-.11-.03c-.9-.28-1.77-.61-2.62-.97l-.12-.05v-.13c.08-1.72.24-3.41.5-5.1-.59-.28-1.14-.6-1.7-.92-.56-.33-1.1-.67-1.63-1.05a42.66 42.66 0 0 1-4.49 2.7l-.1.05-.1-.07c-.72-.59-1.42-1.2-2.1-1.85l-.08-.09.05-.11c.7-1.6 1.45-3.1 2.3-4.58-.44-.48-.86-.97-1.26-1.48-.39-.5-.78-1.02-1.14-1.56-1.69.4-3.4.7-5.16.89l-.12.01-.06-.1c-.45-.81-.9-1.64-1.28-2.49l-.05-.11.09-.1a46.97 46.97 0 0 1 3.8-3.43 25.4 25.4 0 0 1-1.13-3.7 42.7 42.7 0 0 1-5.13-1.04l-.12-.03-.02-.12a34.7 34.7 0 0 1-.3-2.76l-.01-.13.12-.05c1.58-.7 3.17-1.32 4.78-1.84a26.13 26.13 0 0 1 .27-3.86 41.35 41.35 0 0 1-4.4-2.82l-.1-.07.03-.12c.2-.9.44-1.81.72-2.7l.04-.12h.13a45.57 45.57 0 0 1 5.11.01 25.73 25.73 0 0 1 1.66-3.5 42.15 42.15 0 0 1-3.09-4.21l-.06-.1.06-.1c.52-.78 1.07-1.53 1.65-2.26l.08-.1.12.04c1.65.56 3.22 1.16 4.77 1.87.43-.48.89-.93 1.35-1.38.47-.44.95-.88 1.46-1.29a42.1 42.1 0 0 1-1.37-5.05l-.03-.12.1-.07c.77-.52 1.55-1.04 2.36-1.5l.1-.06.1.08a47.05 47.05 0 0 1 3.78 3.46c.57-.28 1.16-.56 1.76-.8.6-.26 1.21-.46 1.82-.67.08-1.71.26-3.48.56-5.2l.03-.12.1-.03c.91-.23 1.83-.4 2.74-.55l.13-.02.06.1c.84 1.53 1.6 3.03 2.26 4.6a25.84 25.84 0 0 1 3.88-.08c.69-1.59 1.48-3.14 2.39-4.65l.06-.1.12.01c.92.12 1.84.26 2.76.47l.12.03.02.12c.24 1.7.4 3.41.45 5.1a24.86 24.86 0 0 1 3.64 1.33 42.1 42.1 0 0 1 3.92-3.46l.1-.08.1.06c.82.44 1.61.92 2.4 1.43l.1.07-.03.12c-.4 1.7-.86 3.31-1.42 4.92.52.4 1 .8 1.5 1.22.48.44.96.87 1.41 1.33 1.59-.7 3.2-1.3 4.9-1.82l.12-.04.08.1c.6.7 1.17 1.43 1.71 2.2l.08.1-.07.1c-.97 1.43-2.01 2.8-3.1 4.08.33.55.67 1.1.96 1.68.31.57.57 1.16.84 1.75a42 42 0 0 1 5.23.08l.11.01.04.11c.32.88.58 1.78.8 2.68l.04.12-.1.08a46.9 46.9 0 0 1-4.37 2.67c.13.64.2 1.28.3 1.92.04.63.12 1.27.13 1.93a42 42 0 0 1 4.86 1.95l.1.05v.12c-.03.93-.1 1.86-.21 2.79l-.02.12-.12.03c-1.66.4-3.37.71-5.03.93-.13.63-.25 1.26-.43 1.88-.16.64-.36 1.25-.56 1.86 1.32 1.1 2.62 2.3 3.81 3.59l.08.08-.04.11c-.36.86-.78 1.7-1.21 2.52l-.06.11-.13-.02a47.44 47.44 0 0 1-5.03-.96c-.33.56-.7 1.08-1.07 1.61-.39.52-.77 1.03-1.2 1.53.86 1.51 1.6 3.07 2.27 4.71l.05.12-.08.08c-.66.66-1.33 1.3-2.03 1.91l-.1.09-.11-.07a48.25 48.25 0 0 1-4.35-2.7 26.68 26.68 0 0 1-3.25 2.1c.24 1.71.38 3.46.4 5.22v.12l-.1.05c-.85.38-1.7.74-2.6 1.04l-.11.04-.08-.1a46.1 46.1 0 0 1-3.07-4.09 26.88 26.88 0 0 1-3.8.78c-.38 1.7-.88 3.35-1.49 5.02l-.04.11-.12.01a42.21 42.21 0 0 1-2.79.04zm.83-.35c.6 0 1.21-.02 1.82-.05.6-1.66 1.1-3.3 1.47-4.98l.03-.12.13-.02a25.24 25.24 0 0 0 3.98-.82l.13-.04.08.11a46 46 0 0 0 3.04 4.08c.79-.28 1.56-.6 2.33-.94a40.64 40.64 0 0 0-.42-5.18l-.02-.13.12-.06a24.7 24.7 0 0 0 3.42-2.21l.1-.08.11.08c1.37.96 2.81 1.86 4.31 2.7.63-.56 1.24-1.13 1.83-1.73a41.72 41.72 0 0 0-2.26-4.67l-.07-.11.09-.1c.44-.51.85-1.06 1.25-1.6.4-.56.79-1.12 1.13-1.7l.07-.12.13.04c1.65.41 3.3.73 5 .97.39-.75.76-1.5 1.09-2.27a42 42 0 0 0-3.8-3.54l-.09-.08.04-.12c.21-.65.43-1.3.59-1.96.18-.65.31-1.32.44-1.99l.03-.13.13-.01c1.66-.22 3.35-.52 5-.91.1-.83.16-1.67.2-2.51-1.6-.75-3.2-1.4-4.83-1.93l-.13-.04v-.13c0-.67-.08-1.35-.14-2.02-.1-.68-.17-1.36-.31-2.02l-.03-.13.12-.07c1.5-.8 2.93-1.68 4.34-2.64-.2-.82-.44-1.62-.72-2.41a40.3 40.3 0 0 0-5.19-.07h-.12l-.06-.1c-.27-.63-.55-1.25-.87-1.85-.31-.6-.66-1.18-1.02-1.77l-.06-.12.08-.1a47.69 47.69 0 0 0 3.09-4.04c-.5-.68-1.01-1.33-1.55-1.98-1.69.53-3.3 1.12-4.87 1.83l-.11.05-.1-.1c-.46-.48-.96-.93-1.46-1.4-.53-.43-1.05-.87-1.6-1.27l-.1-.08.04-.13c.57-1.6 1.03-3.2 1.43-4.88-.71-.46-1.42-.9-2.16-1.3a41.82 41.82 0 0 0-3.88 3.46l-.09.08-.11-.05a26.66 26.66 0 0 0-3.83-1.4l-.13-.03v-.13a46.4 46.4 0 0 0-.45-5.07c-.81-.18-1.64-.31-2.48-.42-.9 1.5-1.68 3.05-2.36 4.62l-.05.12h-.13a19.53 19.53 0 0 0-2.04-.05c-.68.02-1.36.06-2.03.13l-.14.01-.05-.12a47.34 47.34 0 0 0-2.24-4.57c-.82.14-1.65.3-2.46.5-.29 1.71-.46 3.46-.54 5.16v.12l-.12.04c-.65.23-1.3.44-1.92.7-.63.25-1.24.55-1.86.85l-.12.06-.09-.1a47.23 47.23 0 0 0-3.74-3.44 33 33 0 0 0-2.12 1.36 41.4 41.4 0 0 0 1.37 5l.05.13-.1.08a27.52 27.52 0 0 0-2.95 2.8l-.1.1-.12-.05c-1.54-.71-3.1-1.32-4.73-1.87-.52.66-1.02 1.33-1.49 2.03a41.64 41.64 0 0 0 3.08 4.18l.09.1-.07.1c-.34.6-.65 1.2-.94 1.81-.29.63-.57 1.24-.8 1.88l-.05.13-.13-.01a46.33 46.33 0 0 0-5.09-.04c-.25.8-.47 1.62-.65 2.43a41.07 41.07 0 0 0 4.38 2.79l.11.06-.02.12c-.09.68-.18 1.36-.22 2.03-.05.68-.06 1.36-.07 2.04v.13l-.12.04a48.5 48.5 0 0 0-4.76 1.82c.07.83.15 1.66.28 2.49 1.68.45 3.4.78 5.09 1.01l.12.02.03.12c.16.67.32 1.33.52 1.98.19.65.43 1.28.67 1.92l.05.13-.1.08a46.75 46.75 0 0 0-3.78 3.4c.35.77.74 1.5 1.15 2.24 1.75-.2 3.45-.5 5.12-.9l.13-.03.07.11c.36.57.78 1.1 1.2 1.65.41.53.85 1.05 1.32 1.55l.09.1-.07.11a47.73 47.73 0 0 0-2.3 4.55c.62.57 1.24 1.13 1.89 1.66 1.56-.82 3.03-1.7 4.45-2.69l.1-.07.1.07c.56.4 1.13.76 1.71 1.1.6.35 1.19.69 1.8.98l.12.05-.02.14a46.68 46.68 0 0 0-.5 5.06c.77.32 1.56.62 2.36.88 1.15-1.3 2.22-2.7 3.17-4.1l.07-.11.12.03c.67.15 1.33.3 2 .4.67.13 1.35.19 2.03.27l.13.01.03.13a48 48 0 0 0 1.37 4.9h.7zm-3.36-10.63l.03-.18-.03.18c-1.82-.3-3.6-.85-5.27-1.62l-.19-.08 5.14-8.55.14.05a11 11 0 0 0 4.08.61h.15l2.4 9.65-.2.03a21.1 21.1 0 0 1-6.25-.1zm3.44-.09c.85 0 1.7-.05 2.56-.16l-2.24-8.97h-.3c-1.26 0-2.48-.2-3.62-.59l-4.77 7.94a20.57 20.57 0 0 0 8.37 1.78zm4.68-10.51l.13-.07c1.26-.6 2.38-1.44 3.31-2.45l.1-.1 8.56 5.14-.13.16a21.08 21.08 0 0 1-9.38 6.9l-.2.07zm2.65 9.17a20.53 20.53 0 0 0 8.9-6.55l-7.94-4.78c-.91.96-1.99 1.76-3.19 2.36zm-20-2.54a21.04 21.04 0 0 1-6.99-9.37l-.07-.2 9.75-2.42.06.14c.61 1.25 1.45 2.37 2.46 3.31l.1.1-5.04 8.39-.1.17zm.12-.15l.1-.14zm-3.67-3.84a20.63 20.63 0 0 0 3.62 3.57l4.78-7.95a11.42 11.42 0 0 1-2.36-3.2l-9.06 2.26c.73 1.91 1.75 3.7 3.02 5.32zm26.6-8.86l.06-.14a11 11 0 0 0 .6-4.08v-.15l9.77-2.43.03.2.04.33a21.58 21.58 0 0 1-.55 7.7 20.9 20.9 0 0 1-1.29 3.54l-.08.18zm8.42 4.63a20.57 20.57 0 0 0 1.72-10.86l-.01-.12-9.1 2.27.01.3c0 1.26-.2 2.48-.59 3.62zm-24.33-8.42a5.56 5.56 0 1 1 5.56 5.56v-.36a5.2 5.2 0 1 0-.01-10.4 5.2 5.2 0 0 0 0 10.4v.36a5.56 5.56 0 0 1-5.55-5.56zm-15.26 2.81a21.29 21.29 0 0 1-.16-4.45c.18-2.48.8-4.92 1.84-7.19l.08-.18 8.7 5.23-.05.14a11 11 0 0 0-.61 4.07v.15l-9.58 2.39-.2.04zm.18-.02l.18-.03zm.03-4.4a19.56 19.56 0 0 0 .12 4.17l9.1-2.26v-.3c0-1.27.2-2.48.59-3.62l-8.1-4.87a20.52 20.52 0 0 0-1.71 6.87zm30.55-3.17a11.06 11.06 0 0 0-2.45-3.31l-.11-.1 5.13-8.54.1-.17.17.12a20.7 20.7 0 0 1 6.95 9.5l.07.2-9.8 2.43zm.26-.3l9.12-2.26a20.26 20.26 0 0 0-5.74-8.31c-.28-.25-.57-.48-.86-.71l-4.88 8.1c.96.91 1.77 1.99 2.36 3.19zm-27.11-7.54l.12-.16a20.84 20.84 0 0 1 9.49-7.05l.19-.07 2.46 9.9-.13.06c-1.26.6-2.38 1.44-3.32 2.46l-.1.1zm8.64 4.78c.92-.96 2-1.77 3.2-2.36l-2.3-9.21c-.17.06-.34.12-.5.2a20.6 20.6 0 0 0-6.36 4.11l-.13-.13.12.13c-.77.74-1.48 1.53-2.13 2.38zm11.91-2.57a11 11 0 0 0-3.64-.62l-.43.01h-.15l-2.46-9.9.2-.02a18.93 18.93 0 0 1 2.82-.19 20.98 20.98 0 0 1 8.87 1.97l.18.08-5.25 8.72zm-.02-.4l4.89-8.1a20.41 20.41 0 0 0-8.94-1.85v-.18.18c-.73.01-1.45.06-2.16.15l2.29 9.22h.3c1.27 0 2.48.2 3.62.59z"/>
  </g>
</svg>
