<?xml version="1.0" encoding="UTF-8" standalone="no"?>
<svg
   xmlns:dc="http://purl.org/dc/elements/1.1/"
   xmlns:cc="http://creativecommons.org/ns#"
   xmlns:rdf="http://www.w3.org/1999/02/22-rdf-syntax-ns#"
   xmlns:svg="http://www.w3.org/2000/svg"
   xmlns="http://www.w3.org/2000/svg"
   xmlns:sodipodi="http://sodipodi.sourceforge.net/DTD/sodipodi-0.dtd"
   xmlns:inkscape="http://www.inkscape.org/namespaces/inkscape"
   inkscape:version="1.0 (4035a4fb49, 2020-05-01)"
   sodipodi:docname="system.svg"
   id="svg50"
   viewBox="0 0 1897.28 456.5"
   height="456.5"
   width="1897.3"
   version="1">
  <metadata
     id="metadata56">
    <rdf:RDF>
      <cc:Work
         rdf:about="">
        <dc:format>image/svg+xml</dc:format>
        <dc:type
           rdf:resource="http://purl.org/dc/dcmitype/StillImage" />
        <dc:title></dc:title>
      </cc:Work>
    </rdf:RDF>
  </metadata>
  <defs
     id="defs54" />
  <sodipodi:namedview
     inkscape:current-layer="svg50"
     inkscape:window-maximized="1"
     inkscape:window-y="-11"
     inkscape:window-x="-11"
     inkscape:cy="228.25"
     inkscape:cx="782.84663"
     inkscape:zoom="0.74158012"
     inkscape:pagecheckerboard="true"
     showgrid="false"
     id="namedview52"
     inkscape:window-height="986"
     inkscape:window-width="1920"
     inkscape:pageshadow="2"
     inkscape:pageopacity="0"
     guidetolerance="10"
     gridtolerance="10"
     objecttolerance="10"
     borderopacity="1"
     bordercolor="#666666"
     pagecolor="#ffffff" />
  <g
     style="font-size:400px;line-height:1.25;font-family:'Showcard Gothic';-inkscape-font-specification:'Showcard Gothic';fill:#ffffff"
     id="text60"
     aria-label="Options">
    <path
       id="path62"
       style="font-size:400px;fill:#ffffff"
       d="m 361.60794,222.47531 q 0,68.94531 -35.54687,116.60156 -37.30469,49.80469 -95.50782,49.80469 -59.96093,0 -97.07031,-50.19531 -34.960937,-47.26563 -34.960937,-116.21094 0,-73.63281 38.085937,-115.625 35.9375,-39.453124 93.94531,-39.453124 57.03125,0 92.96875,39.648434 38.08594,42.1875 38.08594,115.42969 z m -93.94531,34.375 q 0,-54.29687 -36.71875,-54.29687 -35.74219,0 -35.74219,54.6875 0,21.875 9.375,40.82031 10.54688,21.28906 25.97656,21.28906 15.03907,0 26.5625,-21.67969 10.54688,-19.72656 10.54688,-40.82031 z" />
    <path
       id="path64"
       style="font-size:400px;fill:#ffffff"
       d="m 629.38138,197.28 q 0,55.46875 -35.54688,88.86719 -35.35156,33.20312 -93.94531,33.20312 l -2.34375,59.57031 H 389.92825 l -5.66406,-145.50781 q -2.53906,-56.25 -8.00781,-154.492186 30.46875,-6.054688 89.25781,-6.054688 71.67969,0 114.84375,28.710934 49.02344,32.61719 49.02344,95.70313 z m -81.05469,32.8125 q 0,-30.46875 -36.13281,-30.46875 -4.29688,0 -8.78906,0.58594 l -1.95313,68.35937 q 46.875,-1.5625 46.875,-38.47656 z" />
    <path
       id="path66"
       style="font-size:400px;fill:#ffffff"
       d="m 881.13919,78.920624 -5.66406,122.851566 q -7.61719,-1.17188 -24.41406,-2.92969 -10.35157,-0.58594 -33.59375,-1.17188 -1.17188,11.52344 -4.10157,55.66407 -2.14843,42.77343 -7.03125,125.58593 h -94.53125 q -1.5625,-39.45312 -5.85937,-124.02343 -1.95313,-29.29688 -4.10156,-57.22657 l -30.85938,1.17188 -27.92969,2.92969 -4.88281,-122.851566 z" />
    <path
       id="path68"
       style="font-size:400px;fill:#ffffff"
       d="m 1028.2095,78.920624 -7.6172,159.570316 q -2.1484,51.5625 -5.0781,140.42968 H 905.94388 L 892.66263,78.920624 Z" />
    <path
       id="path70"
       style="font-size:400px;fill:#ffffff"
       d="m 1306.1392,222.47531 q 0,68.94531 -35.5469,116.60156 -37.3047,49.80469 -95.5078,49.80469 -59.9609,0 -97.0703,-50.19531 -34.9609,-47.26563 -34.9609,-116.21094 0,-73.63281 38.0859,-115.625 35.9375,-39.453124 93.9453,-39.453124 57.0313,0 92.9688,39.648434 38.0859,42.1875 38.0859,115.42969 z m -93.9453,34.375 q 0,-54.29687 -36.7188,-54.29687 -35.7422,0 -35.7422,54.6875 0,21.875 9.375,40.82031 10.5469,21.28906 25.9766,21.28906 15.0391,0 26.5625,-21.67969 10.5469,-19.72656 10.5469,-40.82031 z" />
    <path
       id="path72"
       style="font-size:400px;fill:#ffffff"
       d="m 1560.8267,78.920624 q -2.7344,39.453126 -7.6172,137.695316 -2.9297,72.26562 -4.8828,166.21093 -25.5859,-20.11718 -77.9297,-59.96093 -22.6562,-15.82032 -67.5781,-47.46094 l -1.9531,103.51562 h -62.8907 q -1.5625,-39.64843 -7.2265,-149.60937 -4.8828,-89.0625 -9.961,-150.390626 h 98.0469 l 72.6563,68.749996 q 0,-23.63281 -0.7813,-37.10937 -0.5859,-11.914064 -2.3437,-31.640626 z" />
    <path
       id="path74"
       style="font-size:400px;fill:#ffffff"
       d="m 1762.9751,201.77219 q -14.4531,-3.32032 -21.875,-3.32032 -9.1797,0 -16.7968,6.25 -9.1797,7.61719 -9.1797,19.72657 0,9.375 16.7968,36.13281 16.7969,26.75781 16.7969,49.21875 0,32.61719 -24.8047,53.51562 -23.6328,20.11719 -58.3984,20.11719 -32.0313,0 -47.2656,-4.49219 -1.7578,-8.98437 -6.0547,-29.29687 -2.7344,-10.9375 -7.6172,-29.10156 21.4844,5.27343 28.9062,5.27343 29.1016,0 29.1016,-22.07031 0,-16.01562 -11.7187,-28.71094 -19.1407,-16.79687 -38.2813,-33.78906 -37.1094,-32.8125 -37.1094,-77.92969 0,-47.07031 35.1563,-71.289059 30.664,-21.09375 81.6406,-21.09375 28.9063,0 64.8438,8.398438 z" />
  </g>
</svg>
