<svg xmlns="http://www.w3.org/2000/svg" viewBox="0 0 285.75 95.25" height="360" width="1080">
  <defs>
    <clipPath id="a">
      <path d="M0 452h610V0H0z"/>
    </clipPath>
  </defs>
  <g fill="#fff">
    <circle r="8.82" cy="55.08" cx="167.68"/>
    <circle r="8.82" cy="55.08" cx="192.26"/>
    <path d="M95.25 29.1A10.56 10.56 0 0 0 84.67 39.7v15.87c0 5.87 4.72 10.59 10.58 10.59h15.88c5.86 0 10.58-4.72 10.58-10.59V39.7c0-5.87-4.72-10.59-10.58-10.59zm7.94 4.27c.62 0 1.12.6 1.12 1.33v3.34c0 .73-.5 1.32-1.12 1.32-.62 0-1.12-.59-1.12-1.32V34.7c0-.74.5-1.33 1.12-1.33zm-11.47 4.17l3.07 1.88-1.19 1.2zm21.55 0l-1.88 3.07-1.2-1.19zM89.45 46.5h3.34c.73 0 1.32.5 1.32 1.12 0 .63-.59 1.13-1.32 1.13h-3.34c-.73 0-1.32-.5-1.32-1.13 0-.62.59-1.12 1.32-1.12zm24.14 0h3.34c.73 0 1.32.5 1.32 1.12 0 .63-.6 1.13-1.32 1.13h-3.34c-.74 0-1.33-.5-1.33-1.13 0-.62.6-1.12 1.33-1.12zM93.6 55.66l1.2 1.2-3.08 1.88zm17.79 0l1.88 3.08-3.07-1.89zm-8.2.73c.62 0 1.12.59 1.12 1.32v3.34c0 .73-.5 1.32-1.12 1.32-.62 0-1.12-.59-1.12-1.32v-3.34c0-.73.5-1.32 1.12-1.32z"/>
  </g>
</svg>
