<svg xmlns="http://www.w3.org/2000/svg" width="566.93" height="202.38">
  <path fill="#17569B" d="M126.6 99.04h39.8a29.54 29.54 0 0 0 29.5-29.5 29.47 29.47 0 0 0-29.5-29.42H156c-.81 0-1.47-.65-1.47-1.47 0-.9.66-1.55 1.48-1.55h39.71l.08-12.42h-39.8c-7.68 0-13.89 6.21-13.89 13.9 0 7.76 6.21 14.05 13.9 14.05h10.37c9.32 0 16.92 7.6 16.92 16.92 0 9.31-7.6 16.83-16.92 16.83h-39.8v12.66z"/>
  <path fill="#17569B" d="M126.6 83.52h39.8a13.97 13.97 0 1 0 0-27.95H156a16.95 16.95 0 0 1-16.83-17c0-9.32 7.52-16.83 16.83-16.83h39.8l-.08-12.59H156a29.42 29.42 0 0 0-29.42 29.5 29.4 29.4 0 0 0 29.42 29.42h10.3a1.47 1.47 0 1 1 0 2.94h-39.72v12.5zM226.7 86.46c-6.86 0-12.5-5.48-12.5-12.5V33.99c0-6.7 5.64-12.34 12.5-12.34h42.5V9.16h-42.5a25 25 0 0 0-25 25.01v39.8a25 25 0 0 0 25 25h42.33v-12.5H226.7z"/>
  <path fill="#17569B" d="M217.22 34.16a9.56 9.56 0 0 1 9.48-9.56h42.5v12.5h-36.61c-2.95 0-2.95 2.94-2.95 2.94h30.57v12.5h-42.99V34.16zM226.7 83.44a9.49 9.49 0 0 1-9.48-9.48v-18.4h42.98v12.51h-30.56c0 2.94 2.94 2.94 2.94 2.94h36.45v12.42H226.7zM299.02 86.46a12.58 12.58 0 0 1-12.58-12.5v-39.8c0-6.87 5.64-12.5 12.5-12.5h41.2V9.15h-41.28a25 25 0 0 0-25 25v39.8c0 13.8 11.27 25 25.08 25h41.2V40.04h-35.4v12.5h22.89v33.92h-28.6z"/>
  <path fill="#17569B" d="M289.38 73.96a9.63 9.63 0 0 0 9.56 9.56h25.74V55.49h-19.94v12.58h7.44v2.95h-7.35a2.98 2.98 0 0 1-2.95-2.95V40.04s0-2.94 2.95-2.94h35.3V24.6h-41.19a9.63 9.63 0 0 0-9.56 9.56v39.8zM378.78 24.44a4.05 4.05 0 0 1 7.69 0L406.4 83.6h-29.17V69.7h9.8l-4.41-13.15-14.38 42.41h-14.71l25.24-74.52z"/>
  <path fill="#17569B" d="M410.5 86.46h-33.27v12.5h50.59L401.5 20.92c-2.29-7.6-9.89-13.24-18.88-13.24-8.98 0-16.58 5.56-18.88 13.24l-26.56 78.04h13.24l25.74-75.91a6.91 6.91 0 0 1 6.46-4.25 6.88 6.88 0 0 1 6.37 4.25l21.5 63.4zM420.46 19.53c2.61 0 5.07-.98 6.86-2.86a9.7 9.7 0 0 0 2.86-6.95 9.4 9.4 0 0 0-2.86-6.86A9.38 9.38 0 0 0 420.46 0a9.77 9.77 0 0 0-9.81 9.72c0 2.62 1.06 5.07 2.86 6.95a9.72 9.72 0 0 0 6.95 2.86zm-8.42-9.8c0-2.21.9-4.34 2.46-5.97a8.4 8.4 0 0 1 5.96-2.45c2.2 0 4.33.9 5.97 2.45a8.7 8.7 0 0 1 2.45 5.96 8.4 8.4 0 0 1-8.42 8.42 8.07 8.07 0 0 1-5.96-2.45 8.4 8.4 0 0 1-2.46-5.96z"/>
  <path fill="#17569B" d="M417.93 10.54v4.66h-1.4V4.33h4.01c1.47 0 2.37 0 3.27.65a3.12 3.12 0 0 1 1.15 2.54c0 2.53-2.05 2.86-2.62 2.94l3.02 4.74h-1.71l-2.94-4.66h-2.78zm0-1.14h2.85c.5 0 .9 0 1.31-.17 1.07-.24 1.4-.98 1.4-1.71 0-.25-.09-1.07-.66-1.56-.57-.49-1.3-.4-2.12-.4h-2.78V9.4z"/>
  <g fill="red">
    <path d="M86.58 180.52H55.7v-3.5a51.2 51.2 0 0 0 4.3-.35c1.77-.2 2.97-.47 3.63-.83a6.31 6.31 0 0 0 2.24-2.15c.48-.8.71-1.81.71-3.03v-50.82h-.73L42 179.38h-2.46l-22.7-60.77h-.65v41.72c0 4.03.26 7.1.77 9.2.5 2.1 1.29 3.61 2.34 4.53.72.69 2.21 1.35 4.48 1.98s3.74.95 4.43.98v3.5H0v-3.5c1.48-.13 3.03-.38 4.65-.74a9.01 9.01 0 0 0 3.77-1.62c1.15-.92 1.94-2.33 2.37-4.24.42-1.9.64-5.09.64-9.55V125.1c0-2.07-.25-3.76-.74-5.07a7.94 7.94 0 0 0-2.12-3.2 9.75 9.75 0 0 0-3.74-1.97 19.23 19.23 0 0 0-4.38-.74v-3.5h23.83l20 52.4 17.09-43.83a42.96 42.96 0 0 0 2.31-8.56h22.8v3.5c-.92.03-2.1.17-3.52.44-1.43.26-2.47.5-3.13.73a3.62 3.62 0 0 0-2.26 1.97c-.4.92-.6 1.92-.6 3v50.39c0 1.15.2 2.11.6 2.9.4.79 1.15 1.48 2.26 2.07.6.33 1.65.63 3.16.91 1.5.28 2.7.44 3.59.47v3.5z"/>
    <path d="M130.28 179.63c-1.54.56-2.9 1-4.06 1.36-1.16.34-2.48.51-3.96.51-2.57 0-4.6-.6-6.13-1.8-1.53-1.2-2.5-2.94-2.93-5.24h-.3a23.99 23.99 0 0 1-6.87 5.42c-2.45 1.25-5.4 1.87-8.84 1.87-3.65 0-6.64-1.11-8.99-3.35-2.35-2.23-3.52-5.15-3.52-8.77 0-1.87.26-3.55.79-5.02.53-1.48 1.31-2.8 2.36-3.99.82-.98 1.9-1.86 3.25-2.63a29.52 29.52 0 0 1 3.8-1.85c1.47-.56 4.47-1.6 8.98-3.1 4.52-1.5 7.56-2.7 9.14-3.55v-4.87c0-.43-.1-1.25-.27-2.46a9.85 9.85 0 0 0-3.94-6.62c-1.2-.9-2.9-1.36-5.1-1.36-1.51 0-2.91.25-4.21.76a7.7 7.7 0 0 0-2.73 1.6c0 .66.15 1.63.46 2.9.32 1.29.47 2.47.47 3.55 0 1.15-.52 2.2-1.55 3.15-1.03.96-2.47 1.43-4.3 1.43-1.65 0-2.86-.58-3.63-1.75a6.93 6.93 0 0 1 .45-8.25 16.05 16.05 0 0 1 4.16-3.69 22.8 22.8 0 0 1 5.37-2.34c2.1-.64 4.15-.96 6.15-.96 2.76 0 5.16.2 7.22.57 2.05.38 3.91 1.19 5.59 2.44a11.4 11.4 0 0 1 3.81 4.94c.87 2.1 1.3 4.77 1.3 8.06 0 4.7-.04 8.85-.14 12.48-.1 3.63-.15 7.6-.15 11.9 0 1.27.23 2.3.67 3.05.44.76 1.12 1.4 2.04 1.92.5.3 1.27.46 2.34.49 1.07.03 2.16.05 3.28.05v3.15zm-17.18-26c-2.8.82-5.24 1.62-7.34 2.4-2.1.8-4.05 1.78-5.86 2.96a13.38 13.38 0 0 0-3.9 3.97 10.12 10.12 0 0 0-1.42 5.44c0 2.73.71 4.73 2.14 6a7.85 7.85 0 0 0 5.44 1.93c2.34 0 4.39-.57 6.16-1.7a17.81 17.81 0 0 0 4.48-4.02l.3-16.98z"/>
    <path d="M156.7 156.73a12.46 12.46 0 0 1 3.11 4.08 13.32 13.32 0 0 1 1.08 5.67c0 4.5-1.68 8.18-5.04 11.03-3.37 2.86-7.73 4.29-13.08 4.29-2.82 0-5.42-.52-7.8-1.53-2.39-1.02-4.09-1.95-5.1-2.81l-.99 3.2h-3.69l-.5-16.9h3.4c.27 1.29.83 2.78 1.68 4.49.85 1.7 1.89 3.24 3.1 4.62a17.06 17.06 0 0 0 4.6 3.65c1.8.98 3.8 1.48 6.04 1.48 3.15 0 5.58-.71 7.29-2.15 1.7-1.42 2.56-3.47 2.56-6.13 0-1.38-.27-2.56-.81-3.56a7.95 7.95 0 0 0-2.39-2.64 18.87 18.87 0 0 0-3.99-2.04c-1.57-.61-3.33-1.21-5.27-1.8a47.78 47.78 0 0 1-5.14-1.9c-1.9-.8-3.51-1.75-4.86-2.83a13.9 13.9 0 0 1-3.54-4.24 12.09 12.09 0 0 1-1.38-5.9 13.3 13.3 0 0 1 4.43-10.1c2.96-2.76 6.91-4.14 11.87-4.14 1.9 0 3.85.24 5.84.73 1.98.5 3.6 1.09 4.85 1.78l1.13-2.56h3.55l.73 15.6h-3.4a15.62 15.62 0 0 0-4.45-8.5 11.64 11.64 0 0 0-8.35-3.26c-2.7 0-4.81.67-6.35 2.02a6.26 6.26 0 0 0-2.32 4.87c0 1.48.25 2.71.76 3.7a6.81 6.81 0 0 0 2.3 2.5c.98.67 2.22 1.28 3.71 1.86 1.5.57 3.34 1.22 5.55 1.94a48 48 0 0 1 6.13 2.41c1.92.94 3.5 1.96 4.75 3.07z"/>
    <path d="M187.71 178.4a74.5 74.5 0 0 1-6.06 2.24c-1.9.6-4.23.9-7 .9-4.06 0-6.93-1.01-8.58-3.07-1.66-2.05-2.5-4.95-2.5-8.69v-32.9h-8.76v-4.72h8.96v-15.12h8.97v15.12h13.93v4.73h-13.83v27.13c0 2.04.07 3.74.22 5.1.15 1.36.5 2.56 1.06 3.57a5.05 5.05 0 0 0 2.36 2.17c1.05.49 2.46.73 4.23.73.82 0 2.03-.07 3.63-.22 1.59-.15 2.71-.33 3.37-.57v3.6z"/>
    <path d="M225.26 169.1a24.84 24.84 0 0 1-8.17 9.25 20.57 20.57 0 0 1-11.77 3.44c-3.91 0-7.33-.68-10.27-2.06a20.2 20.2 0 0 1-7.27-5.62 23.84 23.84 0 0 1-4.26-8.27 34.89 34.89 0 0 1-1.4-10c0-3.14.5-6.24 1.5-9.28 1-3.03 2.47-5.77 4.4-8.2 1.88-2.32 4.2-4.2 6.98-5.64a20.09 20.09 0 0 1 9.33-2.14c3.55 0 6.58.56 9.11 1.68a16.25 16.25 0 0 1 6.16 4.57 18.37 18.37 0 0 1 3.37 6.5c.74 2.5 1.1 5.21 1.1 8.13v3.25h-32.15c0 3.19.3 6.08.91 8.67.6 2.6 1.57 4.88 2.88 6.85 1.28 1.9 2.96 3.4 5.02 4.5a15.47 15.47 0 0 0 7.4 1.65c2.91 0 5.43-.68 7.55-2.05 2.12-1.35 4.16-3.8 6.13-7.35l3.45 2.11zm-10.88-18.52c0-1.84-.16-3.81-.47-5.91a18.2 18.2 0 0 0-1.5-5.27 10.07 10.07 0 0 0-3.1-3.7 8.45 8.45 0 0 0-5.08-1.42c-3.45 0-6.31 1.43-8.6 4.3-2.27 2.88-3.51 6.87-3.7 12h22.45z"/>
    <path d="M257.7 138.21c0 1.68-.42 3.16-1.24 4.46-.82 1.3-2.08 1.94-3.79 1.94-1.84 0-3.24-.47-4.21-1.43-.97-.95-1.45-2-1.45-3.15 0-.72.05-1.37.17-1.97l.32-1.77c-1.55 0-3.35.62-5.42 1.87a16.08 16.08 0 0 0-5.27 5.32v28.27c0 1.15.22 2.08.66 2.8a4 4 0 0 0 2.1 1.63c.82.33 1.88.58 3.17.74 1.3.17 2.42.28 3.38.34v3.25H220.5v-3.25c.75-.06 1.53-.12 2.34-.2.8-.05 1.5-.18 2.1-.39.9-.3 1.6-.81 2.03-1.55.45-.73.67-1.7.67-2.88v-29.99c0-1.01-.24-2.02-.71-3a5.99 5.99 0 0 0-2-2.37 6.7 6.7 0 0 0-2.22-.86c-.85-.17-1.77-.3-2.75-.36v-3.2l16.15-1.1.69.7v6.84h.24a22.12 22.12 0 0 1 6.8-6.05c2.5-1.38 4.78-2.07 6.85-2.07a6.7 6.7 0 0 1 5.04 2.02c1.3 1.34 1.95 3.15 1.95 5.41zM310.14 148.46a16.37 16.37 0 0 1 3.27 5.4c.71 1.95 1.07 4.22 1.07 6.81 0 6.18-2.29 11.27-6.85 15.27s-10.23 6-16.99 6c-3.12 0-6.24-.47-9.36-1.44a36.08 36.08 0 0 1-8.07-3.52l-2.12 3.6h-3.94l-.69-23.94h4a52.69 52.69 0 0 0 2.87 8c1.1 2.38 2.56 4.6 4.36 6.67 1.7 1.94 3.7 3.48 5.98 4.63a17.44 17.44 0 0 0 7.95 1.73c2.27 0 4.25-.3 5.94-.9 1.7-.58 3.06-1.42 4.11-2.5a10.32 10.32 0 0 0 2.34-3.82c.51-1.46.77-3.14.77-5.05 0-2.78-.79-5.4-2.36-7.8-1.58-2.42-3.93-4.25-7.05-5.5-2.13-.85-4.58-1.8-7.34-2.83a106.98 106.98 0 0 1-7.14-2.93c-3.93-1.77-7-4.1-9.18-6.97-2.19-2.87-3.28-6.62-3.28-11.25 0-2.66.55-5.14 1.63-7.44a19.37 19.37 0 0 1 4.63-6.16c1.9-1.7 4.15-3.04 6.74-4.01 2.6-.97 5.3-1.45 8.13-1.45 3.22 0 6.1.49 8.64 1.48 2.55.98 4.87 2.13 6.97 3.44l2.02-3.35h3.94l.4 23.2h-4a87.55 87.55 0 0 0-2.43-7.64 26.83 26.83 0 0 0-3.52-6.6 16.2 16.2 0 0 0-5.17-4.56 15.24 15.24 0 0 0-7.48-1.7c-3.12 0-5.78 1-7.98 3-2.2 2.01-3.3 4.46-3.3 7.34 0 3.03.7 5.53 2.12 7.52a15.48 15.48 0 0 0 6.15 4.9 75.85 75.85 0 0 0 7.06 2.97 111 111 0 0 1 6.73 2.69 49.7 49.7 0 0 1 5.69 2.9c1.81 1.1 3.4 2.36 4.74 3.8z"/>
    <path d="M307.76 196.38c0-1.65.44-2.98 1.35-4.02a4.28 4.28 0 0 1 3.37-1.55c1.05 0 1.95.19 2.71.59.76.4 1.43.9 2.02 1.52.5.5 1.02 1.17 1.58 2.02.56.86 1 1.57 1.33 2.12 1.64-.88 3.6-3.2 5.88-6.94a55.81 55.81 0 0 0 4.95-9.85 2605.1 2605.1 0 0 0-16.4-39.94 7.09 7.09 0 0 0-3.15-3.53 13.1 13.1 0 0 0-4.43-1.6v-3.25h22.16v3.45c-.99.03-2.17.24-3.55.61-1.38.38-2.06.82-2.06 1.3 0 .2.07.54.22 1 .15.45.32.93.52 1.42 1.24 3.25 3.14 7.94 5.7 14.06a551.16 551.16 0 0 1 5.97 14.7l4.6-10.9c1.6-3.76 3.38-8.2 5.35-13.32l.98-2.59a8.1 8.1 0 0 0 .64-2.83c0-.85-.74-1.65-2.24-2.39a13.43 13.43 0 0 0-4.26-1.36v-3.15h18.03v3.06c-1 .17-2.3.73-3.9 1.7a8.9 8.9 0 0 0-3.6 4.1c-3.9 9.07-7.38 17.33-10.41 24.78a573.51 573.51 0 0 1-6.92 16.45 90.64 90.64 0 0 1-5.54 10.76 32.2 32.2 0 0 1-4.75 6.08c-1.51 1.38-2.88 2.31-4.11 2.79s-2.51.7-3.81.7c-2.57 0-4.58-.6-6.04-1.81-1.47-1.21-2.2-2.61-2.2-4.18z"/>
    <path d="M382.69 156.73a12.5 12.5 0 0 1 3.1 4.08 13.32 13.32 0 0 1 1.08 5.67c0 4.5-1.68 8.18-5.04 11.03-3.37 2.86-7.73 4.29-13.08 4.29-2.82 0-5.43-.52-7.8-1.53-2.39-1.02-4.09-1.95-5.1-2.81l-1 3.2h-3.68l-.5-16.9h3.4c.26 1.29.82 2.78 1.68 4.49.85 1.7 1.88 3.24 3.1 4.62a17 17 0 0 0 4.6 3.65c1.8.98 3.8 1.48 6.04 1.48 3.15 0 5.58-.71 7.29-2.15 1.7-1.42 2.56-3.47 2.56-6.13 0-1.38-.27-2.56-.82-3.56a7.95 7.95 0 0 0-2.39-2.64 18.8 18.8 0 0 0-3.98-2.04c-1.58-.61-3.34-1.21-5.27-1.8a47.54 47.54 0 0 1-5.15-1.9c-1.9-.8-3.5-1.75-4.85-2.83a13.91 13.91 0 0 1-3.55-4.24 12.06 12.06 0 0 1-1.38-5.9 13.3 13.3 0 0 1 4.44-10.1c2.95-2.76 6.9-4.14 11.86-4.14 1.9 0 3.86.24 5.84.73 1.98.5 3.6 1.09 4.85 1.78l1.14-2.56h3.54l.74 15.6h-3.4a15.65 15.65 0 0 0-4.45-8.5 11.64 11.64 0 0 0-8.35-3.26c-2.7 0-4.82.67-6.36 2.02a6.26 6.26 0 0 0-2.31 4.87c0 1.48.25 2.71.76 3.7a6.83 6.83 0 0 0 2.3 2.5c.98.67 2.22 1.28 3.72 1.86 1.48.57 3.33 1.22 5.53 1.94 2.18.69 4.22 1.5 6.14 2.41 1.91.94 3.5 1.96 4.75 3.07z"/>
    <path d="M413.69 178.4a73.58 73.58 0 0 1-6.06 2.24c-1.9.6-4.23.9-7 .9-4.06 0-6.93-1.01-8.59-3.07-1.66-2.05-2.48-4.95-2.48-8.69v-32.9h-8.77v-4.72h8.96v-15.12h8.97v15.12h13.93v4.73h-13.84v27.13c0 2.04.08 3.74.23 5.1s.5 2.56 1.06 3.57a5.05 5.05 0 0 0 2.36 2.17c1.05.49 2.46.73 4.23.73.82 0 2.03-.07 3.62-.22 1.6-.15 2.72-.33 3.37-.57v3.6z"/>
    <path d="M451.24 169.1a24.82 24.82 0 0 1-8.18 9.25 20.57 20.57 0 0 1-11.77 3.44c-3.9 0-7.32-.68-10.26-2.06a20.24 20.24 0 0 1-7.27-5.62 23.9 23.9 0 0 1-4.26-8.27 34.85 34.85 0 0 1-1.4-10c0-3.14.5-6.24 1.5-9.28 1-3.03 2.47-5.77 4.4-8.2 1.87-2.32 4.2-4.2 6.97-5.64a20.07 20.07 0 0 1 9.33-2.14c3.55 0 6.59.56 9.11 1.68a16.25 16.25 0 0 1 6.16 4.57 18.37 18.37 0 0 1 3.37 6.5c.74 2.5 1.1 5.21 1.1 8.13v3.25H417.9c0 3.19.3 6.08.91 8.67.6 2.6 1.57 4.88 2.89 6.85 1.27 1.9 2.95 3.4 5.02 4.5a15.47 15.47 0 0 0 7.39 1.65c2.92 0 5.44-.68 7.56-2.05 2.11-1.35 4.16-3.8 6.13-7.35l3.45 2.11zm-10.89-18.52c0-1.84-.15-3.81-.46-5.91-.31-2.1-.82-3.86-1.5-5.27a10.02 10.02 0 0 0-3.1-3.7 8.46 8.46 0 0 0-5.08-1.42c-3.45 0-6.31 1.43-8.6 4.3-2.27 2.88-3.52 6.87-3.71 12h22.45z"/>
    <path d="M529.67 180.52h-23.7v-3.26l2.3-.19c.77-.06 1.45-.2 2.04-.4.92-.3 1.6-.8 2.05-1.55.44-.73.66-1.7.66-2.87v-25.07c0-3.41-.78-6.05-2.34-7.9a7.32 7.32 0 0 0-5.83-2.79 13.64 13.64 0 0 0-8.42 2.8c-.96.73-1.75 1.5-2.4 2.35-.64.83-1.12 1.53-1.45 2.09v28.02c0 1.15.2 2.1.6 2.83.39.74 1.06 1.3 2.01 1.7.76.3 1.44.52 2.05.67.6.14 1.4.25 2.39.32v3.25h-23.2v-3.25l2.2-.2c.7-.06 1.35-.2 1.94-.4.92-.3 1.6-.81 2.04-1.55.45-.73.67-1.7.67-2.88v-25.07c0-3.4-.78-6.04-2.35-7.9a7.32 7.32 0 0 0-5.83-2.78c-1.6 0-3.12.25-4.53.76-1.41.52-2.7 1.21-3.89 2.1-.95.72-1.76 1.53-2.41 2.44l-1.48 2.04v27.82c0 1.12.23 2.06.69 2.81a4.31 4.31 0 0 0 2.06 1.73c.7.33 1.4.57 2.12.73.73.17 1.53.28 2.41.35v3.25h-23.59v-3.25l2.34-.2c.8-.06 1.5-.19 2.1-.4.91-.29 1.6-.8 2.04-1.54.44-.74.66-1.7.66-2.88v-30.2c0-1.04-.23-1.98-.71-2.82a6.52 6.52 0 0 0-2-2.15c-.62-.4-1.39-.71-2.3-.96-.93-.24-1.88-.4-2.86-.47v-3.2l16.25-1.08.69.69V139h.34c.82-.81 1.83-1.79 3-2.9a27.26 27.26 0 0 1 3.3-2.71 15.87 15.87 0 0 1 4.32-1.97c1.72-.52 3.59-.79 5.6-.79 3.14 0 5.85.85 8.12 2.54a14.4 14.4 0 0 1 4.87 6.13l3.13-3.03c.9-.87 2.1-1.8 3.57-2.78a16.36 16.36 0 0 1 4.4-2.07c1.7-.52 3.57-.79 5.65-.79 4.1 0 7.35 1.35 9.75 4.04 2.4 2.7 3.6 6.83 3.6 12.41v24.67c0 1.16.19 2.1.59 2.84.4.73 1.06 1.3 2.02 1.7.76.29 1.5.51 2.24.66.74.15 1.56.26 2.49.32v3.25h-.01z"/>
  </g>
  <path fill="red" d="M566.93 143.75h-6.52v-.93l.86-.04c.37-.03.61-.08.74-.13.2-.13.34-.24.41-.32.08-.09.12-.22.12-.4v-8.05h-.29l-4.59 9.48h-.6l-4.48-9.67h-.28v6.5c0 .64.05 1.12.13 1.45.08.32.22.57.42.74.16.1.44.2.83.3.4.1.73.14 1.02.14v.93h-5.94v-.89l.9-.13c.4-.05.69-.14.9-.28.2-.15.35-.37.42-.64.08-.28.12-.78.12-1.53v-6.2c0-.29-.05-.52-.14-.72-.1-.2-.23-.36-.41-.5-.2-.14-.43-.25-.7-.3a5.94 5.94 0 0 0-.98-.15v-.9h5.24l3.97 8.42 3.32-6.9c.14-.31.24-.59.31-.86s.13-.49.16-.67h5.05v.91c-.21 0-.5.05-.82.1-.34.04-.57.09-.7.13-.2.04-.32.12-.36.26-.05.12-.08.26-.08.4v8.64c0 .16.03.3.08.4.05.1.17.2.35.27a6.74 6.74 0 0 0 1.53.22v.93zm-20.34-8.71h-.9c-.14-.4-.39-.89-.77-1.48-.39-.59-.76-.92-1.13-1l-.8-.05-.67-.02h-.92v9.36c0 .17.03.3.09.42.06.11.19.21.39.3l.7.15c.33.06.65.1.93.1v.92h-6.64v-.93a10.37 10.37 0 0 0 1.63-.17c.2-.06.32-.16.38-.29.06-.13.1-.26.1-.4v-9.46h-.93c-.19 0-.44 0-.75.03l-.72.04c-.39.06-.77.4-1.14 1a7.6 7.6 0 0 0-.74 1.47h-.9v-3.54h12.78v3.55z"/>
</svg>
