<svg xmlns="http://www.w3.org/2000/svg" viewBox="0 0 285.75 95.25" height="360" width="1080">
  <path d="M195.99 22.62c-.88 0-1.6.7-1.6 1.59v20.34c0 .88.72 1.59 1.6 1.59h19.54c.88 0 1.59-.7 1.59-1.59V24.21c0-.88-.71-1.6-1.59-1.6zm-26.47 0c-.87 0-1.58.71-1.58 1.6v20.34c0 .88.7 1.58 1.58 1.58h19.55c.88 0 1.59-.7 1.59-1.58V24.2c0-.88-.71-1.59-1.6-1.59zm-105.84.26c-.88 0-1.59.7-1.59 1.59V44.8c0 .88.7 1.6 1.59 1.6h19.54c.88 0 1.59-.72 1.59-1.6V24.47c0-.88-.71-1.59-1.59-1.59zm26.46.27c-.88 0-1.59.71-1.59 1.6v20.34c0 .88.71 1.58 1.59 1.58h19.54c.88 0 1.59-.7 1.59-1.58V24.74c0-.88-.7-1.59-1.59-1.59zm26.46 0c-.88 0-1.59.71-1.59 1.6v20.34c0 .88.71 1.58 1.6 1.58h19.53c.88 0 1.6-.7 1.6-1.58V24.74c0-.88-.72-1.59-1.6-1.59zm26.46 0c-.88 0-1.58.71-1.58 1.6v20.34c0 .88.7 1.58 1.58 1.58h19.55c.88 0 1.58-.7 1.58-1.58V24.74c0-.88-.7-1.59-1.58-1.59zm-75.4 1.92c.86 0 1.55.3 2.07.88.51.57.77 1.35.77 2.33 0 .71-.14 1.33-.43 1.84-.29.5-.7.88-1.25 1.13l1.1 1.2h-1l-.92-.99a54.23 54.23 0 0 1-.35.02c-.87 0-1.56-.3-2.08-.87a3.38 3.38 0 0 1-.78-2.33c0-.98.26-1.76.78-2.33a2.66 2.66 0 0 1 2.08-.88zm23.6.6h.84l1.3 5.22 1.3-5.22h.93l1.3 5.22 1.3-5.22h.84l-1.55 6.18h-1.05l-1.3-5.36-1.32 5.36H92.8zm26.47 0h3.9v.7h-3.07v1.83h2.94v.7h-2.94v2.24h3.14v.7h-3.97zm26.46 0h1.89c.7 0 1.23.15 1.58.45.35.3.52.74.52 1.33 0 .4-.1.71-.27.97-.18.26-.44.43-.79.53.18.06.35.2.52.4.17.19.34.46.52.81l.84 1.69h-.9l-.78-1.59a2.2 2.2 0 0 0-.6-.82c-.19-.13-.45-.2-.78-.2h-.91v2.6h-.84zm26.47 0h5.22v.7h-2.19v5.48h-.84v-5.47h-2.19zm26.47 0h.9l1.71 2.54 1.7-2.54h.9l-2.19 3.24v2.94h-.84V28.9zm-129.48.08c-.6 0-1.09.23-1.45.68a2.91 2.91 0 0 0-.53 1.85c0 .77.18 1.39.53 1.84.36.45.84.68 1.45.68.6 0 1.09-.23 1.44-.68a2.9 2.9 0 0 0 .53-1.84c0-.78-.17-1.4-.53-1.85a1.73 1.73 0 0 0-1.44-.68zm77.38.61v2.2h1.05c.4 0 .7-.1.9-.28.22-.2.32-.47.32-.83s-.1-.63-.31-.81c-.2-.19-.5-.28-.91-.28zm57.5 22.22c-.88 0-1.59.7-1.59 1.58v20.35c0 .88.71 1.59 1.59 1.59h19.54c.88 0 1.59-.71 1.59-1.6V50.17c0-.88-.7-1.58-1.59-1.58zm-26.46 0c-.88 0-1.59.71-1.59 1.59v20.34c0 .88.7 1.6 1.59 1.6h19.54c.88 0 1.59-.72 1.59-1.6V50.17c0-.88-.71-1.59-1.59-1.59zm-105.85.26c-.88 0-1.59.7-1.59 1.59v20.34c0 .88.71 1.59 1.59 1.59h19.54c.88 0 1.6-.71 1.6-1.59V50.43c0-.88-.72-1.6-1.6-1.6zm26.46.27c-.88 0-1.59.7-1.59 1.59v20.34c0 .88.71 1.6 1.6 1.6h19.54c.87 0 1.58-.72 1.58-1.6V50.7c0-.88-.7-1.59-1.58-1.59zm26.46 0c-.88 0-1.58.7-1.58 1.59v20.34c0 .88.7 1.6 1.58 1.6h19.55c.88 0 1.58-.72 1.58-1.6V50.7c0-.88-.7-1.59-1.58-1.59zm26.47 0c-.88 0-1.6.7-1.6 1.59v20.34c0 .88.72 1.6 1.6 1.6h19.54c.88 0 1.59-.72 1.59-1.6V50.7c0-.88-.71-1.59-1.6-1.59zm-77.24 1.2h.95l2.35 6.18h-.87l-.56-1.59h-2.78l-.56 1.59h-.88zm26.53.38a5.15 5.15 0 0 1 1.8.32v.81a5.15 5.15 0 0 0-.89-.34 3.18 3.18 0 0 0-.81-.11c-.46 0-.81.09-1.06.26a.87.87 0 0 0-.37.76c0 .27.08.48.25.62.16.13.47.25.93.33l.5.1c.63.12 1.09.33 1.38.63.3.3.45.7.45 1.2 0 .6-.2 1.05-.6 1.36-.4.31-1 .47-1.77.47-.29 0-.6-.04-.93-.1a6.96 6.96 0 0 1-1.02-.3v-.86c.34.2.67.34 1 .43.32.1.64.15.95.15.48 0 .85-.1 1.1-.28a.93.93 0 0 0 .4-.8c0-.3-.1-.55-.28-.72a1.9 1.9 0 0 0-.92-.38l-.5-.1a2.72 2.72 0 0 1-1.36-.58 1.45 1.45 0 0 1-.42-1.1c0-.55.2-.98.58-1.3.38-.31.92-.47 1.6-.47zm81.07 0c.4 0 .79.05 1.15.15.36.1.7.25 1 .44v.89a3.05 3.05 0 0 0-2.08-.79c-.75 0-1.32.2-1.7.63-.38.42-.57 1.05-.57 1.89 0 .83.2 1.46.57 1.88.38.42.95.63 1.7.63.3 0 .56-.03.8-.07.22-.06.43-.14.62-.24v-1.66h-1.37v-.69h2.2v2.65c-.33.23-.68.4-1.07.52-.4.12-.8.18-1.25.18-.96 0-1.72-.29-2.26-.85a3.26 3.26 0 0 1-.82-2.35c0-1.01.27-1.8.82-2.36a3 3 0 0 1 2.26-.85zm-56.52.11h1.72c1.2 0 2.07.25 2.63.75s.84 1.28.84 2.33c0 1.07-.28 1.85-.84 2.35-.56.5-1.44.75-2.63.75h-1.72zm26.72 0h3.55v.7h-2.71v1.83h2.45v.7H151v2.95h-.84zm53.44 0h.84v2.53h3.03V50.8h.84v6.18h-.84v-2.94h-3.03v2.94h-.84zm-130.77.34l-1.13 3.07h2.27zm51.45.35v4.8h1c.86 0 1.48-.2 1.88-.58.4-.39.6-1 .6-1.83 0-.82-.2-1.43-.6-1.81-.4-.39-1.02-.58-1.87-.58z" fill="#fff"/>
</svg>
