<svg xmlns="http://www.w3.org/2000/svg" width="566.93" height="92.93">
  <path d="M162.73 4.83C166.3.26 173.7-.52 178.08 3.31a11.9 11.9 0 0 1 3.69 5.84c8.12 27.92 16.27 55.83 24.37 83.76h-14.37c-2.26-7.7-4.46-15.4-6.7-23.11-9.25-.03-18.51 0-27.77-.01-2.27 7.7-4.5 15.4-6.73 23.13-4.77-.02-9.53-.01-14.3-.01A61546.2 61546.2 0 0 1 159.46 13c.92-2.79 1.27-5.9 3.28-8.18m8.45 17.11c-3.4 11.57-6.72 23.16-10.1 34.74 6.73.03 13.46 0 20.2 0-3.38-11.57-6.73-23.16-10.1-34.74zM263.61 5.43a10.97 10.97 0 0 1 11.57-4.26c3.9.9 6.87 4.25 7.9 8.02 8.1 27.9 16.23 55.8 24.34 83.7-4.8.04-9.59 0-14.38.02-2.23-7.7-4.44-15.42-6.69-23.12-9.24 0-18.48-.02-27.73 0-2.2 7.72-4.49 15.4-6.7 23.12h-14.27c7.7-26.78 15.5-53.54 23.27-80.3.81-2.42 1.13-5.09 2.7-7.18m-1.17 51.26h20.1c-3.33-11.6-6.72-23.2-10.05-34.8-3.34 11.6-6.72 23.2-10.05 34.8zM195.42 1.03h51.97v14.02h-19.13v77.86h-13.71V15.06h-19.13V1.02zM322.65 1.6c1.32-.45 2.72-.6 4.11-.57 5.46.02 10.93 0 16.4 0A25.4 25.4 0 0 1 365.1 15.2c2.76 5.38 3.04 11.63 2.35 17.53-.48 6.18-3.07 12.35-7.82 16.44-2.5 2.24-5.63 3.6-8.31 5.58-1.48 1.13-1.55 3.3-.79 4.86 7.25 11.2 14.8 22.2 22.2 33.3-5.42.02-10.83 0-16.25.02-7.08-10.65-14.1-21.34-21.16-32a11.84 11.84 0 0 1-1.4-10.52c.98-2.65 3.3-4.6 5.88-5.6 4.94-1.88 9.8-4.84 12.54-9.5 2.07-3.5 1.97-7.81 1.04-11.64-1.1-4.97-5.95-8.89-11.07-8.72-3.54.03-7.07-.02-10.6.02-1.6-.04-3.12 1.35-3.1 2.98v74.98l-13.8-.01c-.02-26.9 0-53.81-.02-80.72a11.5 11.5 0 0 1 7.85-10.59zM379.97 1.03h14.53l-.01 91.88h-14.52V1.03zM40.96.86h6.98v16.41c.03 4.57-.1 9.13-.29 13.7-.31 6.58-.72 13.18-1.81 19.7a50.28 50.28 0 0 1-4.23 12.92c-3.14 6.63-8.08 12.23-13.63 16.94a50.9 50.9 0 0 1-17.13 9.7A58.23 58.23 0 0 1 0 92.91V79.14a40.37 40.37 0 0 0 12.7-4.33A45.82 45.82 0 0 0 25.22 65a52.13 52.13 0 0 0 8.86-13.81c2.63-5.76 4.03-12 4.99-18.23 1.2-7.93 1.7-15.95 1.88-23.96.03-2.71 0-5.43.01-8.14zM50.75.88c4.28-.03 8.56 0 12.85-.02v92.05c-4.27 0-8.55-.02-12.82.02-.05-9.78 0-19.57-.02-29.35L50.75.88zM66.46.86h6.94c-.08 9.36.24 18.73 1.35 28.03.92 7.22 2.2 14.49 5.08 21.21A51.48 51.48 0 0 0 91.6 67.53a45.05 45.05 0 0 0 17.26 10.31c1.8.57 3.63 1.02 5.5 1.3V92.9a57.77 57.77 0 0 1-10.77-2.64 54.65 54.65 0 0 1-11.9-5.74 55.5 55.5 0 0 1-7.53-5.98 51.35 51.35 0 0 1-10-12.3 54.08 54.08 0 0 1-4.7-11.45c-1.08-3.98-1.54-8.1-1.95-12.2-.8-8.85-1.11-17.75-1.05-26.64V.87z"/>
  <path d="M50.75.88v62.7c.02 9.78-.02 19.56.03 29.35 4.27-.04 8.55-.01 12.82-.02V.86c-4.28.01-8.57-.01-12.85.02M66.46.86v15.09a274.9 274.9 0 0 0 1.05 26.64c.41 4.1.87 8.22 1.94 12.2a53.95 53.95 0 0 0 4.71 11.45c2.62 4.62 6.1 8.7 10 12.3a55.4 55.4 0 0 0 7.52 5.98 54.78 54.78 0 0 0 11.91 5.74c3.5 1.2 7.1 2.14 10.77 2.64V79.14a34.9 34.9 0 0 1-5.5-1.3 45.04 45.04 0 0 1-17.25-10.3A51.4 51.4 0 0 1 79.83 50.1c-2.87-6.72-4.16-14-5.07-21.22A220.18 220.18 0 0 1 73.4.86h-6.94M432.91 59.25l1.67 1.31c5.86 4.54 12.9 8.24 20.43 8.24 3.23 0 8.36-1.3 8.36-5.37 0-4.06-4.3-4.42-7.29-5.02l-6.57-1.2c-12.78-2.26-23.53-9.79-23.53-23.88C425.98 11.95 445.45 0 465.04 0a53.6 53.6 0 0 1 28.55 7.88l-8.84 23.06c-5.61-3.82-11.94-6.81-18.99-6.81-2.87 0-7.05 1.07-7.05 4.78 0 3.34 4.07 3.82 6.57 4.41l7.4 1.68c13.86 3.1 23.9 10.51 23.9 25.8 0 21.5-19.6 32.13-39.06 32.13a81.14 81.14 0 0 1-34.64-8.24l10.03-25.44zM498.13 1.43h68.8V26.7l-18.04.05V91.5h-32.73V26.75l-18.03-.05V1.43z"/>
  <path d="M50.89 47.19V1.24h12.64V92.53h-3.86c-2.13 0-4.97.14-6.32.3l-2.46.3zM.43 85.93l.13-6.61 3.51-.9c8.09-2.04 17.1-8.03 22.95-15.25 9.34-11.55 13.21-25.88 13.9-51.51l.28-10.42H47.73l-.25 18.38c-.26 20.1-.92 27.96-2.94 35.23C39.64 72.53 24.83 86.58 6 91.4a51.3 51.3 0 0 1-5.04 1.12c-.54 0-.63-1.2-.53-6.6zM111.05 92.22c-6.82-1.53-15.21-5.08-20.6-8.74-4.06-2.75-11.02-9.66-13.82-13.7-7.81-11.3-9.83-22.25-9.83-53.39V1.24h6.41l.29 10.42c.73 27.24 5.27 42.3 16.22 53.85 4.33 4.56 7.98 7.36 12.66 9.71 3.6 1.8 9.09 3.74 10.62 3.74h1.09v6.78c0 7.49.14 7.19-3.04 6.48zM136.8 91.95c.1-.32 5.38-18.5 11.7-40.38a5608.41 5608.41 0 0 1 12.43-42.63c1.57-4.8 5.43-7.7 10.27-7.7a10.3 10.3 0 0 1 9.25 5.39c.41.77 6.27 20.36 13.02 43.54l12.27 42.13-6.8.13c-3.74.07-6.88.05-6.97-.04-.1-.1-1.44-4.58-3-9.96a840.32 840.32 0 0 0-3.3-11.32l-.5-1.53-14.06.12-14.07.13-3.29 11.35-3.29 11.35h-6.93c-5.35 0-6.9-.13-6.74-.58zm44.6-35.58c-.11-.32-2.4-8.22-5.08-17.55-2.69-9.33-4.99-16.97-5.12-16.97-.17 0-8.35 27.53-10.18 34.28-.21.77.5.82 10.18.82 8.12 0 10.36-.13 10.2-.58zM214.74 53.68V14.82h-19.2V1.24h51.5v13.58h-19.2V92.53h-13.1zM238.15 92.26c0-.25 13.65-47.54 21.93-75.95 3.06-10.5 3.92-12.1 7.6-13.98 2.68-1.37 6.77-1.46 9.26-.18 2.24 1.14 4.95 4.12 5.61 6.17.73 2.25 24.42 83.75 24.42 84 0 .12-3.11.21-6.91.21h-6.91l-3.27-11.35-3.28-11.35-14.08-.13-14.08-.12-3.29 11.36-3.28 11.36-6.86.13c-3.78.07-6.86 0-6.86-.17zm44.47-35.74c0-.65-9.77-34.31-10.04-34.58-.13-.13-.34.06-.46.42-.8 2.35-9.63 33.5-9.63 33.98 0 .49 2.12.61 10.07.61 5.84 0 10.06-.18 10.06-.43zM315.03 50.98l.13-41.54 1-1.88a11.8 11.8 0 0 1 5.79-5.34c1.91-.87 3.05-.96 12.64-.96 7.76 0 11.32.18 13.53.7 8.8 2.08 16.2 9.38 18.52 18.27.92 3.51.92 11.57 0 15.9-.83 3.98-2.86 8.2-5.24 10.9-.97 1.1-3.87 3.43-6.45 5.15-7.1 4.75-7.46 3.31 5.74 23.12 5.89 8.83 10.86 16.33 11.05 16.65.28.46-1.33.58-7.42.58h-7.77l-10.9-16.5c-6-9.08-11.16-17.22-11.46-18.1-.68-1.98-.7-5.65-.04-7.38.87-2.33 3.36-4.36 8.16-6.7 5.25-2.54 8.86-5.71 10.65-9.33.87-1.77 1.05-2.89 1.02-6.36-.03-4.86-.94-7.46-3.5-10.02-2.9-2.9-4.46-3.3-12.73-3.31-6.76 0-7.46.07-8.31.93-.92.92-.94 1.56-.94 38.85v37.92h-13.6zM380 46.89V1.24h14.66l-.3 27.74c-.18 15.26-.32 35.8-.32 45.65v17.9H380zM447.64 92.01a89.49 89.49 0 0 1-21.84-6.21l-2.65-1.18 4.65-11.79a508.9 508.9 0 0 1 5-12.42c.28-.49 1.09-.11 3.41 1.58 6.3 4.6 14.78 7.53 20.01 6.93 5.05-.57 8.05-3.34 7.17-6.63-.6-2.29-2.68-3.23-10.22-4.64-10.53-1.98-15.3-3.94-19.99-8.22-4.73-4.33-6.84-9.35-6.84-16.32 0-12.4 6.77-22.55 18.96-28.43C451 1.94 455.8.77 462.63.45c6.5-.3 12.03.31 17.92 2 4.4 1.27 12.9 5.15 12.65 5.79l-4.34 11.4-4.2 11.02-1.19-.84a39.06 39.06 0 0 0-3.75-2.13c-10.64-5.36-21.07-4.8-21.07 1.12 0 2.55 1.33 3.5 6.69 4.72 10.34 2.38 12.5 3.02 16.6 4.95 7.03 3.3 11.57 8.31 13.45 14.87 1.02 3.52 1.02 11.26 0 15.07-3.23 12.2-13.82 20.82-28.73 23.43-4.25.74-14.4.83-19.02.16zM516.23 58.83v-32.3h-17.8V1.71h68.36v24.8h-18.26v64.6h-32.3z" fill="#fff"/>
</svg>
