<svg xmlns="http://www.w3.org/2000/svg" viewBox="0 0 285.75 95.25" height="360" width="1080">
  <defs>
    <clipPath id="a">
      <path d="M0 452h610V0H0z"/>
    </clipPath>
  </defs>
  <g fill="#fff">
    <path d="M58.3 29.7c-.3 0-.53.24-.53.54v11.3h-11.3c-.29 0-.53.23-.53.52v9.1c0 .3.24.53.53.53h11.3v11.3c0 .29.24.53.53.53h9.1c.3 0 .53-.24.53-.53v-11.3h11.3c.29 0 .52-.24.52-.53v-9.1c0-.3-.23-.53-.53-.53h-11.3v-11.3c0-.29-.23-.52-.52-.52z"/>
    <path d="M62.73 27.9a18.7 18.7 0 0 0-7.28 1.52 18.7 18.7 0 0 0-9.79 24.59 18.7 18.7 0 0 0 24.58 9.79 18.7 18.7 0 0 0 9.8-24.58 18.7 18.7 0 0 0-17.3-11.32zm.01 2.25a16.46 16.46 0 0 1 15.23 9.95 16.46 16.46 0 0 1-8.61 21.63 16.46 16.46 0 0 1-21.63-8.61 16.46 16.46 0 0 1 8.61-21.63 16.46 16.46 0 0 1 6.4-1.34z"/>
    <rect ry="2.65" rx="2.65" y="53.09" x="96.38" height="5.26" width="14.82"/>
    <rect ry="2.65" rx="2.65" y="34.32" x="96.38" height="5.26" width="14.82"/>
    <rect ry="2.65" rx="2.65" y="45.27" x="172.46" height="5.26" width="14.82"/>
    <rect ry="2.65" rx="2.65" y="26.51" x="172.46" height="5.26" width="14.82"/>
    <rect ry="2.65" rx="2.65" y="63.48" x="172.46" height="5.26" width="14.82"/>
    <circle r="9.2" cy="21.45" cx="208.6"/>
    <circle r="9.2" cy="17.67" cx="232.41"/>
    <circle r="9.2" cy="73.8" cx="208.22"/>
    <circle r="9.2" cy="77.58" cx="232.03"/>
  </g>
</svg>
