<svg xmlns="http://www.w3.org/2000/svg" width="566.93" height="104.51">
  <path d="M566.93 84.51c0 11-9 20-20 20H20c-11 0-20-9-20-20V20C0 9 9 0 20 0h526.93c11 0 20 9 20 20v64.51z"/>
  <path fill="red" d="M432.61 68.96l-48.48 17.58h48.8l18.55-10.24zM387.34 18.22h57.6l76.68 38.88h-30.07l-21.15-9.72-13.03 5.3z"/>
  <path fill="#FC0" d="M494.6 36.03l48.5-17.57h-48.8l-18.55 10.23zM539.89 86.77h-57.6L405.6 47.89h30.08l21.14 9.72 13.04-5.3zM23.84 17.75h38.17V64.4H23.84zM23.84 70.11h97.82v14.28H23.84zM85.87 17.75h45.34l31.02 26.18-22.42 16.45zM143.14 62.97v21.42h35.79V62.97l69.2-45.22h-33.41l-69.2 45.22zM252.9 24.89l38.17 23.8v35.7H252.9zM257.67 17.75l97.83 66.64h21.47V17.74h-18.6v46.87l-69.68-46.86z"/>
</svg>
