<svg xmlns="http://www.w3.org/2000/svg" version="1.2" width="566.93" height="124.85">
  <g fill="#fff">
    <path d="M33.98 108.93l-.07-41.59h5.39v49.8H33.9L5.25 75.22l.13 41.92H0v-49.8h5.65l28.33 41.59zM45.31 67.34h26.42v4.91h-20.9v17.3h20.76v4.91H50.83v17.77h20.9v4.9H45.3V67.35zM74.24 92.38c0-15.35 11.91-25.91 25.98-25.91 14.6 0 25.97 11.17 25.97 25.77s-11.3 25.77-25.97 25.77c-14.74 0-25.98-11.37-25.98-25.57v-.06zm5.59-.14c0 11.7 8.81 20.86 20.45 20.86 11.78 0 20.4-9.48 20.4-20.86 0-11.37-8.62-20.86-20.46-20.86-11.71 0-20.4 9.28-20.4 20.8v.06zM172.16 80.26a21.23 21.23 0 0 0-5.59-5.38 20.12 20.12 0 0 0-11.57-3.5c-10.9 0-20.39 8.34-20.39 20.8 0 12.64 9.56 20.99 20.46 20.99 5.25 0 9.89-1.82 13.32-4.51 3.5-2.76 5.92-6.53 6.73-10.43h-27.1v-4.58h33.56c-.07 2.9-.74 6.53-2.22 9.62-4.3 9.36-14.27 14.8-24.3 14.8-14.53 0-26.04-11.16-26.04-25.9 0-14.94 11.71-25.7 26.11-25.7 10.1 0 19.45 5.65 23.35 13.79h-6.32zM184.25 67.34h27.59v4.91h-22.07v17.3h21.94v4.91h-21.94v17.77h22.07v4.9h-27.59V67.35zM214.06 92.38c0-15.35 11.91-25.91 25.98-25.91 14.6 0 25.97 11.17 25.97 25.77s-11.3 25.77-25.97 25.77c-14.74 0-25.98-11.37-25.98-25.57v-.06zm5.59-.14c0 11.7 8.81 20.86 20.45 20.86 11.78 0 20.4-9.48 20.4-20.86 0-11.37-8.62-20.86-20.46-20.86-11.71 0-20.4 9.28-20.4 20.8v.06z"/>
  </g>
  <g fill="#fff">
    <path d="M327.46 92.38c0-15.35 11.91-25.91 25.98-25.91 14.6 0 25.98 11.17 25.98 25.77s-11.3 25.77-25.98 25.77c-14.73 0-25.98-11.37-25.98-25.57v-.06zm5.59-.14c0 11.7 8.81 20.86 20.46 20.86 11.77 0 20.4-9.48 20.4-20.86 0-11.37-8.62-20.86-20.47-20.86-11.7 0-20.4 9.28-20.4 20.8v.06zM435 103.75c-3.23 7.67-11.91 14.27-22.88 14.27-14.74 0-25.97-11.38-25.97-25.78 0-14.2 10.96-25.77 25.9-25.77 12.32 0 20.05 8.21 22.95 14.54h-6c-1.68-2.97-7.33-9.63-16.95-9.63-11.64 0-20.39 9.22-20.39 20.8 0 11.77 8.82 20.92 20.4 20.92 10.42 0 15.74-7.47 16.95-9.35H435zM489.64 67.34h27.6v4.91h-22.08v17.3h21.94v4.91h-21.94v17.77h22.08v4.9h-27.6V67.35zM545.23 72.25h-16.05v-4.9h37.75v4.9H550.8v44.89h-5.58V72.25z"/>
  </g>
  <path fill="#fff" d="M475.57 117.14h6.94l-25.87-24.97 23.78-24.83h-6.06l-26.1 27v-27h-5.52v49.8h5.52V100.9l5.08-5.3 22.24 21.53z"/>
  <path fill="none" d="M302.8 120.94c-10.85-21.55-21.65-43.05-32.47-64.56.06-.04.11-.08.17-.1l8.09-4.14 11.43-5.84c4-2.06 8.21-3.3 12.75-3.15 3.1.1 5.93 1 8.41 2.9a17.06 17.06 0 0 1 4.94 6.3 17.59 17.59 0 0 1 1.98 7.38 17.65 17.65 0 0 1-2.99 9.98 29.84 29.84 0 0 1-4.54 5.58c-1.2 1.15-2.49 2.2-3.74 3.3-4.57-3.24-9.04-6.4-13.53-9.6l2.54-9.28h12.94v-9.83l-19.9.2-7.2 20.34 23.16 19.16a45.93 45.93 0 0 0 8.71-4.4c4.37-2.83 8-6.39 10.67-10.87a26.84 26.84 0 0 0 3.8-13.56c.04-3-.41-5.95-1.3-8.83a25.02 25.02 0 0 0-5.75-10.16 26.84 26.84 0 0 0-19.08-8.62c-4.45-.16-8.66.85-12.63 2.84-1.8.9-3.54 1.87-5.35 2.74-4 1.94-8.04 3.84-12.06 5.75l-10.64 5.05-3.6 1.71 36.1 73.62 9.08-3.9z"/>
  <path fill="#F10000" d="M302.8 120.94l-9.1 3.91-36.1-73.62 3.6-1.71 10.65-5.05c4.02-1.9 8.05-3.8 12.06-5.74 1.8-.88 3.55-1.85 5.34-2.75 3.97-2 8.18-3 12.63-2.84 7.53.27 13.9 3.19 19.08 8.62a25.02 25.02 0 0 1 5.76 10.17 28.54 28.54 0 0 1 1.3 8.82 26.82 26.82 0 0 1-3.8 13.56 33.22 33.22 0 0 1-10.67 10.88 46.1 46.1 0 0 1-8.72 4.39l-23.16-19.16 7.2-20.34 19.9-.2v9.83h-12.94L293.3 69c4.5 3.18 8.96 6.35 13.53 9.6 1.25-1.1 2.54-2.16 3.74-3.3a29.75 29.75 0 0 0 4.55-5.6 17.64 17.64 0 0 0 2.98-9.97 17.64 17.64 0 0 0-1.98-7.38 17 17 0 0 0-4.94-6.3 14.29 14.29 0 0 0-8.4-2.9c-4.55-.14-8.75 1.1-12.76 3.15l-11.43 5.84-8.1 4.13-.15.11 32.46 64.56zM310.44 26.53l-6.42-1.33L307.79 0l11.8 1.72-9.15 24.8zM345.54 19.68l6.24 10.11-20.47 12.67-4.28-6.39c6.17-5.46 12.32-10.9 18.51-16.4zM329.07 6.48l8.95 6.2L321.9 31.9a7284.3 7284.3 0 0 1-5.69-3.5l12.87-21.93z"/>
</svg>
