<svg xmlns="http://www.w3.org/2000/svg" viewBox="0 0 285.75 95.25" height="360" width="1080">
  <defs>
    <clipPath id="a">
      <path d="M0 452h610V0H0z"/>
    </clipPath>
  </defs>
  <g fill="#fff">
    <circle r="5.821" cy="43.636" cx="233.536"/>
    <circle r="5.821" cy="43.636" cx="207.739"/>
    <circle r="5.821" cy="30.407" cx="220.638"/>
    <circle r="5.821" cy="56.336" cx="220.638"/>
    <path d="M208.5 6.68l10.016-.087c2.574-.022 2.761-.022 3.114.06.352.083.87.248 1.36.44.488.192.955.415 1.335.64.38.227.678.458 1.262.993a29.814 29.814 0 0 1 2.415 2.48 47.397 47.397 0 0 1 2.508 3.197c.502.711.458.755-2.12.639-2.58-.117-7.63-.39-10.348-.539-2.718-.149-3.093-.171-3.435-.237a4.871 4.871 0 0 1-1.03-.337c-.37-.16-.789-.369-1.252-.71-.463-.343-.97-.816-1.984-1.864a320.906 320.906 0 0 1-3.318-3.506c-.783-.837-.827-.893-.871-.953-.044-.06-.089-.127-.11-.16-.023-.033-.023-.033 2.458-.055zM193.044 82.907c1.874 0 5.622 0 7.556.003 1.933.003 2.052.008 2.184.007.132-.002.276-.01.34.132.065.141.046.423.008.753-.037.331-.092.706-.264 1.115-.173.41-.462.853-.761 1.246a7.69 7.69 0 0 1-.91 1.011 5.214 5.214 0 0 1-.988.71 6.369 6.369 0 0 1-1.207.523c-.425.132-.876.21-1.34.244a9.19 9.19 0 0 1-1.499-.028c-.529-.05-1.09-.138-1.593-.32a4.975 4.975 0 0 1-1.323-.75c-.38-.291-.7-.6-1.003-.986a8.192 8.192 0 0 1-.81-1.279 5.8 5.8 0 0 1-.463-1.168 3.296 3.296 0 0 1-.11-.794c0-.166.022-.21.044-.254a.261.261 0 0 1 .088-.116c.044-.027.11-.038.143-.043.033-.006.033-.006 1.908-.006zM178.72 82.907c1.874 0 5.622 0 7.537.002s1.996.006 2.137.01c.14.003.337.006.418.144.081.138.042.402-.005.724-.047.321-.1.696-.27 1.11-.171.413-.457.865-.755 1.262a7.388 7.388 0 0 1-.909 1.015 5.214 5.214 0 0 1-.987.71 6.369 6.369 0 0 1-1.208.523c-.424.132-.876.21-1.339.244a9.19 9.19 0 0 1-1.5-.028c-.529-.05-1.09-.138-1.592-.32a4.975 4.975 0 0 1-1.323-.75c-.38-.291-.7-.6-1.004-.986a8.192 8.192 0 0 1-.81-1.279 5.8 5.8 0 0 1-.463-1.168 3.296 3.296 0 0 1-.11-.794c0-.166.022-.21.044-.254a.261.261 0 0 1 .088-.115c.044-.028.11-.039.144-.044.033-.006.033-.006 1.907-.006zM82.114 82.907c1.874 0 5.622 0 7.53.005 1.907.006 1.973.017 2.133.013.16-.003.408-.021.508.13.1.15.043.467-.033.78a5.635 5.635 0 0 1-.358 1.054 8.034 8.034 0 0 1-.73 1.264 6.445 6.445 0 0 1-.897 1.021 5.213 5.213 0 0 1-.987.71 6.368 6.368 0 0 1-1.208.523c-.424.131-.876.21-1.339.244a9.19 9.19 0 0 1-1.5-.028c-.529-.05-1.09-.138-1.592-.32a4.975 4.975 0 0 1-1.323-.75c-.38-.292-.7-.6-1.004-.986a8.193 8.193 0 0 1-.81-1.279 5.8 5.8 0 0 1-.463-1.169 3.298 3.298 0 0 1-.11-.793c0-.166.022-.21.044-.254.022-.044.044-.088.088-.116.044-.027.11-.038.144-.044.033-.005.033-.005 1.907-.005z"/>
    <circle r="7.408" cy="73.534" cx="62.747"/>
    <rect ry="2.646" rx="2.646" y="83.268" x="98.946" height="4.724" width="6.829"/>
    <rect ry="2.646" rx="2.646" y="83.268" x="113.585" height="4.724" width="6.829"/>
    <rect ry="2.646" rx="2.646" y="83.268" x="155.641" height="4.724" width="6.829"/>
    <rect ry="2.646" rx="2.646" y="83.268" x="165.299" height="4.724" width="6.829"/>
    <path d="M74.37 6.68l-10.015-.087c-2.574-.022-2.761-.022-3.114.06-.352.083-.871.248-1.36.44a9.445 9.445 0 0 0-1.335.64c-.38.227-.678.458-1.263.993a29.813 29.813 0 0 0-2.414 2.48 47.396 47.396 0 0 0-2.508 3.197c-.502.711-.458.755 2.12.639 2.579-.117 7.63-.39 10.348-.539 2.718-.149 3.093-.171 3.434-.237a4.871 4.871 0 0 0 1.031-.337c.37-.16.788-.369 1.252-.71.463-.343.97-.817 1.984-1.864a320.917 320.917 0 0 0 3.318-3.506c.783-.837.827-.893.871-.953.044-.06.088-.127.11-.16.022-.033.022-.033-2.458-.055zM57.043 33.701c0-.959 0-2.877.023-3.929s.07-1.24.175-1.415c.106-.175.285-.355.55-.51.265-.156.624-.297 1.091-.421a10.564 10.564 0 0 1 1.7-.296 18.626 18.626 0 0 1 2.112-.063c.725.016 1.443.063 2.09.156.646.094 1.223.234 1.66.367.436.132.733.257.935.381.203.125.312.25.374.39.063.14.078.296.082 1.32.004 1.025-.004 2.944-.043 4.02-.039 1.076-.109 1.321-.193 1.567-.083.246-.18.49-.726 1.107-.546.615-1.54 1.601-2.161 2.196-.622.594-.872.797-1.106.914a1.681 1.681 0 0 1-.631.164c-.18.016-.35.016-.522.008a3.082 3.082 0 0 1-.56-.07 2.005 2.005 0 0 1-.642-.266c-.22-.142-.44-.346-.658-.541-.218-.195-.434-.38-.918-.86a175.11 175.11 0 0 1-1.985-2.032l-.447-.546a1.783 1.783 0 0 1-.167-.35c-.033-.114-.033-.223-.033-.278v-1.013zM57.043 53.086c0 .96 0 2.877.023 3.93.023 1.052.07 1.239.175 1.414.106.175.285.355.55.51.265.156.624.297 1.091.421.468.125 1.045.234 1.7.297.654.062 1.387.078 2.112.062a17.518 17.518 0 0 0 2.09-.156 11.485 11.485 0 0 0 1.66-.366c.436-.133.733-.258.935-.382.203-.125.312-.25.374-.39.063-.14.078-.296.082-1.32.004-1.025-.004-2.944-.043-4.02-.039-1.075-.109-1.32-.193-1.567-.083-.245-.18-.49-.726-1.106-.546-.616-1.54-1.602-2.161-2.197-.622-.594-.872-.797-1.106-.914a1.681 1.681 0 0 0-.631-.164 3.908 3.908 0 0 0-.522-.008 3.082 3.082 0 0 0-.56.07c-.2.046-.423.125-.642.267-.22.141-.44.345-.658.54-.218.195-.434.38-.918.86-.484.481-1.234 1.257-1.985 2.032l-.447.546a1.783 1.783 0 0 0-.167.35c-.033.114-.033.223-.033.278v1.013zM71.8 37.975c.96 0 2.878 0 3.93.023s1.24.07 1.415.175c.175.106.354.285.51.55.156.265.296.624.421 1.091.125.468.234 1.045.296 1.7.063.654.078 1.387.063 2.112a17.518 17.518 0 0 1-.156 2.09 11.485 11.485 0 0 1-.367 1.66c-.132.436-.257.733-.382.935-.124.203-.249.312-.39.374-.14.063-.295.078-1.32.082-1.024.004-2.943-.004-4.019-.043-1.076-.039-1.321-.109-1.567-.193-.246-.083-.49-.18-1.107-.726-.616-.546-1.601-1.54-2.196-2.161-.595-.622-.797-.872-.914-1.106a1.681 1.681 0 0 1-.164-.631 3.908 3.908 0 0 1-.008-.522c.008-.172.024-.359.07-.56.045-.2.125-.423.266-.642.142-.22.346-.44.541-.658.195-.218.38-.434.86-.918.481-.484 1.256-1.234 2.032-1.985l.546-.447c.118-.067.236-.134.35-.167.114-.033.223-.033.278-.033H71.8zM53.033 48.768c-.96 0-2.877 0-3.93-.023-1.052-.024-1.239-.07-1.414-.176a1.533 1.533 0 0 1-.51-.55c-.156-.264-.297-.623-.422-1.09a10.564 10.564 0 0 1-.296-1.7 18.626 18.626 0 0 1-.062-2.113c.015-.724.062-1.442.156-2.089.093-.647.234-1.224.366-1.66.133-.437.257-.733.382-.936.125-.202.25-.311.39-.374.14-.062.296-.078 1.32-.082 1.025-.003 2.943.004 4.02.043 1.075.04 1.32.11 1.566.193.246.084.491.181 1.107.727s1.602 1.54 2.196 2.161c.595.622.798.871.915 1.105.117.234.148.452.163.632.016.18.016.35.008.522a3.082 3.082 0 0 1-.069.559c-.046.2-.126.423-.267.643-.141.219-.346.439-.54.657-.195.218-.38.435-.861.918-.48.484-1.256 1.235-2.032 1.986l-.545.446a1.783 1.783 0 0 1-.35.168c-.114.033-.224.033-.278.033h-1.013z"/>
  </g>
</svg>
