<?xml version="1.0" encoding="UTF-8" standalone="no"?>
<svg
   xmlns:dc="http://purl.org/dc/elements/1.1/"
   xmlns:cc="http://creativecommons.org/ns#"
   xmlns:rdf="http://www.w3.org/1999/02/22-rdf-syntax-ns#"
   xmlns:svg="http://www.w3.org/2000/svg"
   xmlns="http://www.w3.org/2000/svg"
   xmlns:sodipodi="http://sodipodi.sourceforge.net/DTD/sodipodi-0.dtd"
   xmlns:inkscape="http://www.inkscape.org/namespaces/inkscape"
   sodipodi:docname="system.svg"
   inkscape:version="1.0 (4035a4fb49, 2020-05-01)"
   id="svg8"
   version="1.1"
   viewBox="0 0 258.35632 63.794556"
   height="63.794556mm"
   width="258.35632mm">
  <defs
     id="defs2" />
  <sodipodi:namedview
     inkscape:window-maximized="0"
     inkscape:window-y="0"
     inkscape:window-x="76"
     inkscape:window-height="1020"
     inkscape:window-width="1624"
     inkscape:pagecheckerboard="true"
     showgrid="false"
     inkscape:document-rotation="0"
     inkscape:current-layer="layer1"
     inkscape:document-units="mm"
     inkscape:cy="45.607229"
     inkscape:cx="565.78604"
     inkscape:zoom="0.7"
     inkscape:pageshadow="2"
     inkscape:pageopacity="0.0"
     borderopacity="1.0"
     bordercolor="#666666"
     pagecolor="#ffffff"
     id="base" />
  <metadata
     id="metadata5">
    <rdf:RDF>
      <cc:Work
         rdf:about="">
        <dc:format>image/svg+xml</dc:format>
        <dc:type
           rdf:resource="http://purl.org/dc/dcmitype/StillImage" />
        <dc:title></dc:title>
      </cc:Work>
    </rdf:RDF>
  </metadata>
  <g
     transform="translate(17.309761,-125.09128)"
     id="layer1"
     inkscape:groupmode="layer"
     inkscape:label="Layer 1">
    <g
       style="font-size:10.5833px;line-height:1.25;font-family:'Showcard Gothic';-inkscape-font-specification:'Showcard Gothic';fill:#ffffff;stroke-width:0.264583"
       id="text12"
       aria-label="Pico-8">
      <path
         id="path14"
         style="font-size:79.375px;fill:#ffffff;stroke-width:0.264583"
         d="m 32.919731,150.8649 q 0,11.00708 -7.053833,17.63458 -7.015076,6.58875 -18.6422728,6.58875 L 6.7585373,186.90921 H -14.596748 L -15.720711,158.035 q -0.503845,-11.16211 -1.58905,-30.65704 6.046143,-1.20148 17.71209712,-1.20148 14.22393788,0 22.78930688,5.69733 9.728088,6.47247 9.728088,18.99109 z m -16.084289,6.51123 q 0,-6.04614 -7.1701054,-6.04614 -0.8526611,0 -1.7440796,0.11627 l -0.3875732,13.56506 q 9.3017582,-0.31006 9.3017582,-7.63519 z" />
      <path
         id="path16"
         style="font-size:79.375px;fill:#ffffff;stroke-width:0.264583"
         d="m 62.452812,127.37796 -1.511535,31.66473 q -0.426331,10.23194 -1.007691,27.86652 H 38.190727 l -2.635498,-59.53125 z" />
      <path
         id="path18"
         style="font-size:79.375px;fill:#ffffff;stroke-width:0.264583"
         d="m 109.42669,151.75632 q -2.13165,-0.65888 -5.46478,-0.65888 -6.201175,0 -10.076908,3.25562 -4.379578,3.64319 -4.379578,10.50323 0,5.34851 3.449402,8.79792 3.48816,3.41064 9.107974,3.41064 3.83697,0 7.28637,-1.89911 -0.38757,1.58905 -1.31774,5.85236 -0.54261,2.82928 -1.04645,5.89111 -4.34082,1.66657 -11.123354,1.66657 -12.286072,0 -21.00647,-8.25531 -9.456787,-8.9917 -9.456787,-23.40943 0,-13.33252 8.139038,-21.54907 8.681641,-8.75916 23.990784,-8.75916 7.363889,0 10.658259,0.85266 z" />
      <path
         id="path20"
         style="font-size:79.375px;fill:#ffffff;stroke-width:0.264583"
         d="m 164.73339,155.86459 q 0,13.68134 -7.05383,23.13813 -7.40265,9.88311 -18.95233,9.88311 -11.8985,0 -19.26239,-9.96063 -6.93756,-9.37927 -6.93756,-23.06061 0,-14.61151 7.55767,-22.94433 7.13135,-7.82898 18.64228,-7.82898 11.31713,0 18.44848,7.86773 7.55768,8.37159 7.55768,22.90558 z m -18.64227,6.82129 q 0,-10.77453 -7.28638,-10.77453 -7.09259,0 -7.09259,10.85205 0,4.34082 1.86035,8.10028 2.0929,4.22455 5.15473,4.22455 2.98431,0 5.27099,-4.30207 2.0929,-3.91449 2.0929,-8.10028 z" />
      <path
         id="path22"
         style="font-size:79.375px;fill:#ffffff;stroke-width:0.264583"
         d="m 194.22771,161.44565 -1.74408,11.82098 H 172.7174 l -1.89911,-11.82098 z" />
      <path
         id="path24"
         style="font-size:79.375px;fill:#ffffff;stroke-width:0.264583"
         d="m 241.04656,145.63266 q 0,12.1698 -8.56537,16.35559 4.9997,4.14703 4.9997,10.61951 0,6.00738 -5.38727,10.65826 -5.15472,4.41834 -11.27838,4.41834 -6.6275,0 -11.6272,-4.41834 -5.11597,-4.49585 -5.11597,-10.58075 0,-6.54999 4.9997,-10.46448 -8.41034,-4.41833 -8.41034,-16.58813 0,-7.63519 5.38727,-13.29376 5.85235,-6.0849 14.76654,-6.0849 8.48785,0 14.34021,5.69732 5.89111,5.65857 5.89111,13.68134 z m -15.46417,5.46478 q 0,-2.13165 -1.39526,-3.79822 -1.35651,-1.66656 -3.37189,-1.66656 -2.05414,0 -3.37189,1.66656 -1.31775,1.66657 -1.31775,3.87574 0,2.75177 1.31775,4.76715 1.35651,1.97662 3.37189,1.97662 2.24792,0 3.56567,-2.01538 1.20148,-1.89911 1.20148,-4.80591 z m -1.35651,21.58783 q 0,-1.55029 -1.00769,-2.9068 -0.96893,-1.39526 -2.40295,-1.3565 -1.47278,0.0388 -2.48047,1.43402 -1.00769,1.3565 -1.00769,3.02307 0,4.72839 3.48816,4.72839 3.41064,0 3.41064,-4.92218 z" />
    </g>
  </g>
</svg>
