<?xml version="1.0" encoding="UTF-8" standalone="no"?>
<svg
   xmlns:dc="http://purl.org/dc/elements/1.1/"
   xmlns:cc="http://creativecommons.org/ns#"
   xmlns:rdf="http://www.w3.org/1999/02/22-rdf-syntax-ns#"
   xmlns:svg="http://www.w3.org/2000/svg"
   xmlns="http://www.w3.org/2000/svg"
   xmlns:sodipodi="http://sodipodi.sourceforge.net/DTD/sodipodi-0.dtd"
   xmlns:inkscape="http://www.inkscape.org/namespaces/inkscape"
   inkscape:version="1.0 (4035a4fb49, 2020-05-01)"
   sodipodi:docname="buttons.svg"
   id="svg18"
   version="1"
   height="13"
   width="24">
  <metadata
     id="metadata24">
    <rdf:RDF>
      <cc:Work
         rdf:about="">
        <dc:format>image/svg+xml</dc:format>
        <dc:type
           rdf:resource="http://purl.org/dc/dcmitype/StillImage" />
        <dc:title></dc:title>
      </cc:Work>
    </rdf:RDF>
  </metadata>
  <defs
     id="defs22" />
  <sodipodi:namedview
     inkscape:current-layer="svg18"
     inkscape:window-maximized="1"
     inkscape:window-y="-11"
     inkscape:window-x="-11"
     inkscape:cy="7"
     inkscape:cx="12"
     inkscape:zoom="25"
     inkscape:pagecheckerboard="true"
     showgrid="false"
     id="namedview20"
     inkscape:window-height="986"
     inkscape:window-width="1920"
     inkscape:pageshadow="2"
     inkscape:pageopacity="0"
     guidetolerance="10"
     gridtolerance="10"
     objecttolerance="10"
     borderopacity="1"
     bordercolor="#666666"
     pagecolor="#ffffff" />
  <path
     id="path6"
     d="M 7,0 9,3 H 5 L 4.5,5 H 2 L 2.5,2 H 1 L 0,8 H 1.4117647 3.6 L 3,10 H 6.5 L 4,13 h 3 l 2,-3 h 6 l 2,3 h 3 L 17.5,10 H 21 L 20.4,8 H 24 L 23,2 H 21.5 L 22,5 H 19.5 L 19,3 h -4 l 2,-3 h -1.5 l -2,3 h -3 l -2,-3 z"
     style="fill:#565656" />
  <path
     id="path8"
     d="M 7,6 V 8 H 9 V 6 Z"
     style="opacity:0.2" />
  <path
     id="path10"
     d="m 15,6 v 2 h 2 V 6 Z"
     style="opacity:0.2" />
  <path
     id="path12"
     d="m 15,5 v 2 h 2 V 5 Z"
     style="fill:#ffffff" />
  <path
     id="path16"
     d="M 7,5 V 7 H 9 V 5 Z"
     style="fill:#ffffff" />
</svg>
