<?xml version="1.0" encoding="UTF-8" standalone="no"?>
<svg
   xmlns:dc="http://purl.org/dc/elements/1.1/"
   xmlns:cc="http://creativecommons.org/ns#"
   xmlns:rdf="http://www.w3.org/1999/02/22-rdf-syntax-ns#"
   xmlns:svg="http://www.w3.org/2000/svg"
   xmlns="http://www.w3.org/2000/svg"
   xmlns:sodipodi="http://sodipodi.sourceforge.net/DTD/sodipodi-0.dtd"
   xmlns:inkscape="http://www.inkscape.org/namespaces/inkscape"
   inkscape:version="1.0 (4035a4fb49, 2020-05-01)"
   sodipodi:docname="system.svg"
   id="svg50"
   viewBox="0 0 1897.28 456.5"
   height="456.5"
   width="1897.3"
   version="1">
  <metadata
     id="metadata56">
    <rdf:RDF>
      <cc:Work
         rdf:about="">
        <dc:format>image/svg+xml</dc:format>
        <dc:type
           rdf:resource="http://purl.org/dc/dcmitype/StillImage" />
        <dc:title></dc:title>
      </cc:Work>
    </rdf:RDF>
  </metadata>
  <defs
     id="defs54" />
  <sodipodi:namedview
     inkscape:current-layer="svg50"
     inkscape:window-maximized="1"
     inkscape:window-y="-11"
     inkscape:window-x="-11"
     inkscape:cy="228.25"
     inkscape:cx="1059.8568"
     inkscape:zoom="0.74158012"
     inkscape:pagecheckerboard="true"
     showgrid="false"
     id="namedview52"
     inkscape:window-height="986"
     inkscape:window-width="1920"
     inkscape:pageshadow="2"
     inkscape:pageopacity="0"
     guidetolerance="10"
     gridtolerance="10"
     objecttolerance="10"
     borderopacity="1"
     bordercolor="#666666"
     pagecolor="#ffffff" />
  <g
     style="font-size:320px;line-height:1.25;font-family:'Showcard Gothic';-inkscape-font-specification:'Showcard Gothic';fill:#ffffff"
     id="text79"
     aria-label="Retroarch">
    <path
       id="path81"
       d="m 218.93693,208.53729 q 0,28.75 -16.09375,50.9375 -14.21875,19.375 -35.625,27.8125 4.53125,7.03125 22.34375,29.53125 8.90625,10.3125 27.1875,27.1875 -7.34375,2.65625 -32.34375,13.4375 -17.5,7.96875 -32.96875,15.625 -4.53125,-5.625 -20.15625,-29.0625 -7.1875,-11.875 -21.09375,-40 h -0.3125 l -1.5625,54.6875 H 20.343178 q -1.71875,-34.0625 -4.84375,-112.34375 -1.40625,-46.09375 -6.4062502,-127.65625 42.9687502,-4.53125 78.4375002,-4.53125 131.406252,0 131.406252,94.375 z m -70.9375,33.75 q 0,-14.84375 -12.5,-21.25 -9.21875,-4.6875 -23.125,-4.0625 l -0.9375,53.4375 q 12.96875,0 23.125,-5.78125 13.4375,-7.5 13.4375,-22.34375 z" />
    <path
       id="path83"
       d="m 392.06193,118.69354 -6.71875,98.90625 q -5.78125,-0.9375 -25,-3.28125 -13.125,-1.25 -28.75,-1.5625 l -2.34375,29.84375 q 17.1875,0.46875 56.09375,-0.78125 -1.71875,5.78125 -5.46875,21.5625 -2.1875,9.53125 -3.90625,22.03125 -4.53125,-1.09375 -22.65625,-2.8125 -8.4375,-0.46875 -25,-0.3125 l -1.5625,34.84375 q 11.71875,-0.15625 43.125,-2.03125 5.9375,-0.46875 19.53125,-3.75 -1.25,4.84375 -5.78125,23.28125 -2.1875,9.53125 -5.3125,24.0625 H 238.46818 l -4.53125,-122.5 q -1.25,-42.03125 -6.09375,-117.5 z" />
    <path
       id="path85"
       d="m 596.12443,118.69354 -4.53125,98.28125 q -6.09375,-0.9375 -19.53125,-2.34375 -8.28125,-0.46875 -26.875,-0.9375 -0.9375,9.21875 -3.28125,44.53125 -1.71875,34.21875 -5.625,100.46875 h -75.625 q -1.25,-31.5625 -4.6875,-99.21875 -1.5625,-23.4375 -3.28125,-45.78125 l -24.6875,0.9375 -22.34375,2.34375 -3.90625,-98.28125 z" />
    <path
       id="path87"
       d="m 815.18693,208.53729 q 0,28.75 -16.09375,50.9375 -14.21875,19.375 -35.625,27.8125 4.53125,7.03125 22.34375,29.53125 8.90625,10.3125 27.1875,27.1875 -7.34375,2.65625 -32.34375,13.4375 -17.5,7.96875 -32.96875,15.625 -4.53125,-5.625 -20.15625,-29.0625 -7.1875,-11.875 -21.09375,-40 h -0.3125 l -1.5625,54.6875 h -87.96875 q -1.71875,-34.0625 -4.84375,-112.34375 -1.40625,-46.09375 -6.40625,-127.65625 42.96875,-4.53125 78.4375,-4.53125 131.40625,0 131.40625,94.375 z m -70.9375,33.75 q 0,-14.84375 -12.5,-21.25 -9.21875,-4.6875 -23.125,-4.0625 l -0.9375,53.4375 q 12.96875,0 23.125,-5.78125 13.4375,-7.5 13.4375,-22.34375 z" />
    <path
       id="path89"
       d="m 1033.6244,233.53729 q 0,55.15625 -28.4375,93.28125 -29.84372,39.84375 -76.40622,39.84375 -47.96875,0 -77.65625,-40.15625 -27.96875,-37.8125 -27.96875,-92.96875 0,-58.90625 30.46875,-92.5 28.75,-31.5625 75.15625,-31.5625 45.625,0 74.37502,31.71875 30.4687,33.75 30.4687,92.34375 z m -75.15622,27.5 q 0,-43.4375 -29.375,-43.4375 -28.59375,0 -28.59375,43.75 0,17.5 7.5,32.65625 8.4375,17.03125 20.78125,17.03125 12.03125,0 21.25,-17.34375 8.4375,-15.78125 8.4375,-32.65625 z" />
    <path
       id="path91"
       d="m 1236.4369,358.69354 h -85.4687 l -5.7813,-20.78125 q -3.5937,1.40625 -17.9687,9.53125 -9.2188,5.9375 -20.4688,15.78125 l -8.9062,-18.90625 q -2.6563,-5.625 -7.6563,-15.78125 l -8.4375,30.15625 h -45.3125 q 10,-38.59375 30.9375,-127.34375 12.8125,-59.375 21.4063,-112.65625 h 93.9062 q 4.375,24.53125 23.9063,114.21875 10.7812,46.875 29.8437,125.78125 z m -98.5937,-51.25 q -2.6563,-8.28125 -9.375,-26.875 -4.0625,-10.3125 -12.3438,-28.4375 -3.5937,9.0625 -11.25,29.6875 -4.2187,11.875 -10,32.34375 4.6875,0 21.25,-1.875 10,-1.40625 21.7188,-4.84375 z" />
    <path
       id="path93"
       d="m 1452.0619,208.53729 q 0,28.75 -16.0937,50.9375 -14.2188,19.375 -35.625,27.8125 4.5312,7.03125 22.3437,29.53125 8.9063,10.3125 27.1875,27.1875 -7.3437,2.65625 -32.3437,13.4375 -17.5,7.96875 -32.9688,15.625 -4.5312,-5.625 -20.1562,-29.0625 -7.1875,-11.875 -21.0938,-40 h -0.3125 l -1.5625,54.6875 h -87.9687 q -1.7188,-34.0625 -4.8438,-112.34375 -1.4062,-46.09375 -6.4062,-127.65625 42.9687,-4.53125 78.4375,-4.53125 131.4062,0 131.4062,94.375 z m -70.9375,33.75 q 0,-14.84375 -12.5,-21.25 -9.2187,-4.6875 -23.125,-4.0625 l -0.9375,53.4375 q 12.9688,0 23.125,-5.78125 13.4375,-7.5 13.4375,-22.34375 z" />
    <path
       id="path95"
       d="m 1637.5307,216.97479 q -8.5938,-2.65625 -22.0313,-2.65625 -25,0 -40.625,13.125 -17.6562,14.6875 -17.6562,42.34375 0,21.5625 13.9062,35.46875 14.0625,13.75 36.7188,13.75 15.4687,0 29.375,-7.65625 -1.5625,6.40625 -5.3125,23.59375 -2.1875,11.40625 -4.2188,23.75 -17.5,6.71875 -44.8437,6.71875 -49.5313,0 -84.6875,-33.28125 -38.125,-36.25 -38.125,-94.375 0,-53.75 32.8125,-86.875 35,-35.3125 96.7187,-35.3125 29.6875,0 42.9688,3.4375 z" />
    <path
       id="path97"
       d="m 1887.0619,118.69354 q -2.6562,38.4375 -7.0312,125.15625 -1.25,41.25 -4.375,114.84375 h -79.6875 l -1.7188,-52.5 q -2.8125,0.9375 -11.4062,4.53125 -10.1563,4.375 -14.375,7.03125 l -8.125,-19.21875 q -2.5,-6.25 -8.2813,-17.65625 l -1.5625,77.8125 h -87.9687 l -4.5313,-114.84375 q -1.4062,-44.84375 -7.0312,-125.15625 h 109.6875 l -7.3438,147.8125 q 11.4063,1.09375 21.875,0.625 6.7188,-0.15625 18.125,-1.25 l -7.9687,-147.1875 z" />
  </g>
</svg>
