<svg width="1080" height="360" viewBox="0 0 285.75 95.25" xmlns="http://www.w3.org/2000/svg"><defs><clipPath id="a"><path d="M0 452h610V0H0z"/></clipPath></defs><path d="M142.88 17.54a30.12 30.12 0 0 0-30.08 30.09 30.12 30.12 0 0 0 30.08 30.08 30.12 30.12 0 0 0 30.08-30.08 30.12 30.12 0 0 0-30.08-30.09zm9.75 39.83a13.79 13.79 0 1 1 0-19.5c1.23 1.24-.54 3.01-1.77 1.78a11.28 11.28 0 1 0 0 15.95c1.21-1.22 2.98.56 1.77 1.77zm-12.25-10.99h22.04l-2.3-2.29c-1.17-1.17.6-2.96 1.78-1.77l4.43 4.43c.5.49.5 1.28 0 1.77l-4.43 4.43c-1.16 1.17-2.94-.6-1.77-1.77l2.29-2.3h-22.04c-1.68 0-1.68-2.5 0-2.5z" fill="#fff"/></svg>