<svg version="1.2" baseProfile="tiny" xmlns="http://www.w3.org/2000/svg" width="352.68" height="41.96">
  <path fill="#6F685F" d="M20.98 0H331.7a21.04 21.04 0 0 1 20.98 20.98 21.04 21.04 0 0 1-20.98 20.98H21A21.04 21.04 0 0 1 0 20.98 21.04 21.04 0 0 1 20.98 0z"/>
  <path fill="#E2001A" d="M233.27 7.17h44.97v3.07h-44.97z"/>
  <path fill="#E95E38" d="M233.27 13.31h44.97v3.07h-44.97z"/>
  <path fill="#FC0" d="M233.27 19.45h44.97v3.07h-44.97z"/>
  <path fill="#57AB27" d="M233.27 25.59h44.97v3.06h-44.97z"/>
  <path fill="#009EE0" d="M233.27 31.72h44.97v3.07h-44.97z"/>
  <path fill="#FFF" d="M311.99 25.45c0 3.89-3.42 5.83-10.26 5.83h-3.5c-3.86 0-6.53-.67-8.02-2-1.5-1.32-2.24-3.62-2.24-6.9v-4.4c0-3.26.75-5.55 2.24-6.88 1.5-1.33 4.16-2 8.02-2h3.5c3.17 0 5.56.43 7.16 1.29 1.6.85 2.4 2.1 2.4 3.75v1.58h-8.22v-.57c0-.51-.15-.85-.45-1.01-.3-.16-.9-.24-1.79-.24h-1.95c-1.11 0-1.83.09-2.14.27-.31.18-.47.6-.47 1.28v3.03a9.13 9.13 0 0 1 4.44-.98h2.9c2.9 0 5.02.5 6.36 1.47 1.34.99 2.02 2.5 2.02 4.54v1.94zm-114.5-10.66h-3.96v11.36h4.13v-5.94c0-1.55.95-2.32 2.67-2.32s2.15.51 2.24 1.98h3.87c0-3.88-.51-5.34-4.65-5.34-2.5 0-3.35.52-4.3 2.41v-2.15zM34.97 21.62h-6.65v5.45h11.95l-5.3-5.45zm5.3-6.58H28.32v5.46h6.57l5.38-5.46zm176.25 8.88c-3.96 0-4.57-.35-4.57-2.33h10.86c-.18-5.5-.18-6.8-7.5-6.8-6.2 0-7.58 1.12-7.58 6.03 0 4.56 1.81 5.68 6.8 5.77 5.6 0 8.28-.26 8.28-3.97h-4.05c-.18.87-.52 1.3-2.24 1.3zm-4.65-4.74c.17-1.2.51-1.64 3.27-1.64 3.02 0 3.44.18 3.62 1.64h-6.9zm-153.97.43h4.13c-.35-3.88-1.47-4.82-7.23-4.82-6.55 0-8.01 1.03-8.01 5.85 0 4.83 1.38 5.94 7.49 5.94 6.46 0 7.75-.86 7.75-4.9H57.9c0 1.12-.43 1.63-3.62 1.63-2.76 0-3.36-.68-3.36-2.92 0-2.16.6-2.16 3.88-2.16 2.4 0 2.84.26 3.1 1.38zm96.01.69c0-4.65-1.37-5.6-8-5.6-7.15 0-8.01 1.2-8.01 6.03 0 4.82 1.2 5.86 8 5.86 7.24 0 8.01-1.2 8.01-6.3zm-11.8.26c0-2.33.52-2.58 3.54-2.58 3.35 0 3.96.08 3.96 2.58 0 2.32-.43 2.76-3.62 2.76-3.44 0-3.87-.35-3.87-2.76zm48.92-.26c0-4.65-1.3-5.6-7.92-5.6-7.07 0-7.93 1.12-7.93 5.94 0 4.91 1.2 5.95 7.93 5.95 7.23 0 7.92-1.2 7.92-6.3zm-11.71.26c0-2.33.51-2.58 3.53-2.58 3.36 0 3.96.08 3.96 2.58 0 2.32-.43 2.76-3.62 2.76-3.44 0-3.87-.35-3.87-2.76zm-98.95-.26c0-4.65-1.29-5.6-7.92-5.6-7.15 0-8 1.12-8 5.94 0 4.91 1.2 5.95 8 5.95 7.23 0 7.92-1.2 7.92-6.3zm-11.63.26c0-2.33.52-2.58 3.45-2.58 3.36 0 3.96.08 3.96 2.58 0 2.32-.43 2.76-3.62 2.76-3.36 0-3.79-.35-3.79-2.76zm99.55-10.6v6.64c-.94-1.3-1.8-1.98-5.25-1.98-5.5 0-6.54 1.46-6.54 5.94 0 4.56 1.46 5.85 6.8 5.85 3.36 0 4.4-.86 5.17-2.32v2.06h4.13V9.96h-4.3zm-3.01 7.93c2.32 0 3.1.34 3.1 2.15 0 2.76-.17 3.02-3.44 3.02-3.28 0-4.14-.1-4.14-2.41 0-2.67 1.04-2.76 4.48-2.76zM27.94 14.67V7.65c-1.42-.38-2.39-.53-3.8-.53-7.4 0-13.9 6.2-13.9 13.9 0 7.92 6.57 13.82 13.97 13.82 1.34 0 2.09-.15 3.73-.6v-7.17c-1.64.82-2.46 1.05-3.8 1.05a7.3 7.3 0 0 1-7.26-7.25 7.2 7.2 0 0 1 11.06-6.2zm58.98.12h-3.88v11.36h4.13V20.3c0-1.72.87-2.33 3.2-2.33 2.14 0 2.75.78 2.75 2.93v5.25h4.22v-6.02c0-1.64 1.29-2.16 3.27-2.16 1.9 0 2.75.52 2.75 2.16v6.02h4.14v-6.71c0-3.36-2.07-4.91-5.86-4.91-3.27 0-4.48 1.2-4.9 2.5-.87-1.47-2.07-2.5-5.35-2.5-3.1 0-3.96 1.03-4.48 2.93v-2.67zm27.81 0h-3.87v11.36h4.13V20.3c0-1.72 1.03-2.33 3.1-2.33 2.15 0 2.75.7 2.75 2.93v5.25h4.22v-6.02c0-1.64 1.21-2.16 3.2-2.16 1.89 0 2.83.6 2.83 2.16v6.02h4.14v-6.71c0-3.36-2.07-4.91-5.86-4.91-3.27 0-4.4 1.12-4.9 2.5-.87-1.47-2.08-2.5-5.35-2.5-3.01 0-3.79 1.03-4.39 2.93v-2.67zm227.03 12.17h-3.5v4.05h-8.22v-4.05h-14.86l.04-5.89L327 9.37h11.27v12.8h3.5v4.8zm-11.72-4.79V15l-7.12 7.17h7.12zm-26.28 2.95v-1.58c0-.55-.18-.9-.55-1.05a7.88 7.88 0 0 0-2.38-.23h-1.58a8.5 8.5 0 0 0-2.4.21c-.39.14-.58.5-.58 1.07v1.58c0 .6.2.97.57 1.11.38.15 1.18.23 2.4.23h1.6c1.24 0 2.04-.08 2.4-.23.35-.14.52-.51.52-1.11z"/>
</svg>
