<svg xmlns="http://www.w3.org/2000/svg" viewBox="0 0 285.75 95.25" height="360" width="1080">
  <g fill="#fff">
    <circle r="8.82" cy="39.33" cx="172.99"/>
    <circle r="8.82" cy="39.33" cx="196.29"/>
    <circle r="8.82" cy="39.33" cx="149.68"/>
    <circle r="8.82" cy="61.47" cx="172.87"/>
    <circle r="8.82" cy="61.47" cx="196.17"/>
    <circle r="8.82" cy="61.47" cx="149.56"/>
    <circle r="8.82" cy="33.78" cx="100.95"/>
    <rect ry="1.32" rx="3.97" y="36.46" x="97.21" height="23.79" width="7.48"/>
    <path d="M100.95 52.97a20.31 6.15 0 0 0-20.31 6.14 20.31 6.15 0 0 0 20.31 6.15 20.31 6.15 0 0 0 20.31-6.15 20.31 6.15 0 0 0-20.31-6.14zm0 .8a17.22 5.21 0 0 1 17.22 5.21 17.22 5.21 0 0 1-17.22 5.21A17.22 5.21 0 0 1 83.73 59a17.22 5.21 0 0 1 17.22-5.22z"/>
  </g>
</svg>
