<svg xmlns="http://www.w3.org/2000/svg" viewBox="0 0 285.75 95.25" height="360" width="1080">
  <defs>
    <clipPath id="a">
      <path d="M0 452h610V0H0z"/>
    </clipPath>
  </defs>
  <g fill="#fff">
    <circle r="8.82" cy="48.675" cx="189.972"/>
    <circle r="8.82" cy="40.359" cx="215.161"/>
    <path d="M74.125 27.53a.528.528 0 0 0-.529.529v11.297H62.3a.528.528 0 0 0-.53.53v9.097c0 .293.237.53.53.53h11.297V60.81c0 .293.236.529.53.529h9.098c.293 0 .529-.236.529-.53V49.513H95.05c.293 0 .53-.236.53-.529v-9.097a.528.528 0 0 0-.53-.53H83.753V28.06a.528.528 0 0 0-.53-.53z"/>
    <circle r="4.095" cy="68.736" cx="97.718"/>
    <circle r="4.095" cy="83.666" cx="97.718"/>
    <path d="M50.117 27.529c-.508-.11-1.301-.596-1.786-1.125-.486-.53-.662-1.102-.508-1.984.155-.882.64-2.073 1.301-3.374.662-1.3 1.5-2.712 2.646-4.057 1.147-1.344 2.602-2.624 4.278-3.704 1.675-1.08 3.572-1.962 6.107-2.734 2.535-.771 5.71-1.433 11.046-2.47 5.336-1.035 12.833-2.447 18.279-3.307 5.446-.86 8.841-1.168 10.627-1.278 1.786-.11 1.963-.022 1.993.1.03.12-.119.318-.494.694-.375.375-.991.947-1.752 1.665-.761.717-1.709 1.62-3.164 2.546-1.456.926-3.44 1.896-5.645 2.888a130.52 130.52 0 0 1-6.769 2.822c-2.138.816-3.99 1.433-6.416 2.161a320.438 320.438 0 0 1-7.866 2.226c-2.442.66-4.349 1.147-6.025 1.519a74.29 74.29 0 0 1-4.784.885c-1.566.243-3.197.463-4.41.772-1.212.309-2.006.705-2.645 1.146a6.993 6.993 0 0 0-1.544 1.456c-.419.529-.772 1.102-1.007 1.546-.235.443-.382.835-.558 1.143-.177.31-.397.574-.904.464zM231.462 27.529c.507-.11 1.3-.596 1.786-1.125.485-.53.661-1.102.507-1.984-.154-.882-.64-2.073-1.301-3.374-.661-1.3-1.5-2.712-2.646-4.057-1.146-1.345-2.602-2.624-4.277-3.704-1.676-1.08-3.572-1.962-6.108-2.734-2.535-.771-5.71-1.433-11.046-2.47-5.335-1.035-12.833-2.447-18.279-3.307-5.446-.86-8.841-1.168-10.627-1.278-1.786-.11-1.962-.022-1.992.1-.03.12.118.318.493.694.375.375.992.947 1.753 1.665.76.717 1.708 1.62 3.164 2.546 1.455.926 3.439 1.896 5.644 2.888a130.52 130.52 0 0 0 6.769 2.822c2.139.816 3.99 1.433 6.416 2.161a320.44 320.44 0 0 0 7.866 2.226c2.442.66 4.349 1.147 6.025 1.519a74.29 74.29 0 0 0 4.784.885c1.566.243 3.197.463 4.41.772s2.006.705 2.646 1.146c.64.441 1.124.926 1.543 1.456.42.529.772 1.102 1.007 1.546.236.443.382.835.559 1.143.176.31.396.574.904.464z"/>
  </g>
</svg>
