<svg xmlns="http://www.w3.org/2000/svg" width="566.93" height="66.04">
  <path fill="#1F00CC" d="M296.04 8.24l4.35-6.97h-66.25c-5.08.07-9.82 1.5-14.13 4.27l-5.09 3.74a25.5 25.5 0 0 0-6.58-5.86c-2.7-1.5-5.7-2.15-9.13-2.15H87.01l-3.66 11.16-1.8-11.16H57l-.88 2.08-2.31-.81C40.86-1.9 28.42-.54 16.68 6.74 10.7 10.53 6.2 15.31 3.43 21.17.58 27.03-.4 33.54.27 40.94c.46 4.43 2 8.55 4.7 12.28a28.45 28.45 0 0 0 10.4 8.9c6.2 3.24 12.94 4.2 19.98 3.08H57.2l5.46-12.13 2 12.13 131.27-.15c2.86 0 5.7-.7 8.6-1.97a25.1 25.1 0 0 0 7.54-5.31c3.66 3.89 8.02 6.5 13.1 7.55 6.9 1.65 13.56.46 19.84-3.5l.8-.62-.61 3.96h26.73l.66-4.62a6.19 6.19 0 0 0 3.96-2.39h72.68c11.17 0 19.38-2.85 24.39-8.59l5.39 8.6h77.77V47.21l13.98 10.94h96.1V8.3H462.74V19.1L448.95 8.3h-55.38l-6.82 12.95-7.55-13.02h-83.16z"/>
  <path fill="#FFF" d="M313.03 16.56h-8.32l-19.6 33h23.34v-7.31h-9.52l9.52-17.06 13.78 24.42h10.64v-.08h16.6c14.36 0 21.57-5.55 21.57-16.52 0-1.9-.23-3.66-.74-5.32l13.25 21.84h6.36l19.06-32.93h-10.09l-11.9 21.56-12.56-21.56h-10.86l3 4.93c-3.5-3.32-8.54-4.93-15.13-4.93h-21.84v27.38l-16.56-27.42zm25.96 7.47h12.52c6.5 0 9.82 2.85 9.82 8.55 0 3.43-1.04 5.93-3 7.24-1.9 1.35-5.48 2-10.48 2h-8.82v-17.8h-.04zM423.03 16.56h-8.35l-19.53 33H405v-.07h13.48v-7.36h-9.44l9.36-16.98 13.8 24.41h10.74v-.07h5.47V29.57l24.92 19.92h6.47V16.56h-8.63v19.68l-25.15-19.68h-6.43v27.38zM484.74 18.4c-1.35 1.2-2.04 3.36-2.04 6.44v16.33c0 3.16.69 5.31 2 6.5 1.27 1.2 3.58 1.82 6.97 1.82h19.38c3.35 0 5.77-.62 7.04-1.81 1.28-1.2 2-3.35 2-6.51v-4.59l-9.5-.15v5.09h-18.42v-17.3h18.41v4.5h9.52v-3.88c0-3.24-.73-5.4-2-6.44-1.28-1.27-3.51-1.88-7.05-1.88h-19.38c-3.35.04-5.66.62-6.93 1.88zM532.77 28.77v-4.74h25.69v-7.47h-35.2v32.93h35.62v-7.63h-26.11v-5.85h15.06v-7.24zM50.84 10.35C40.52 6.62 30.54 7.81 21 13.71 11.55 19.48 7.43 28.3 8.55 39.82a16.9 16.9 0 0 0 3.74 9.13 21.63 21.63 0 0 0 8.24 6.12 22.7 22.7 0 0 0 10.63 1.89 26.62 26.62 0 0 0 11.52-3.43l.38-.23-1.42 3.16h10.01l6.43-13.98h11.1l2.46 13.98h16.41l8.4-26.2 5.39 26.2h6.5l12.56-29.04 1.28 29.04h9.59L129.8 9.54h-11.67L107.19 35.2l-4.7-25.66H92.9L80.54 47.48 74.18 9.55H62.36l-18.1 40.94 2.61-17.14H29l-1.35 8.82h7.48l-.74 4.7-7.85.54c-3.16-.81-5.4-2.47-6.9-5.09-1.27-2.46-1.88-5-1.58-7.85.39-3.97 2.32-7.55 5.97-10.79 3.32-2.93 7.55-4.58 12.64-5.24 4.85-.73 9.13-.23 12.7 1.35l1.47-9.44zm16.91 22.96h-5.93l4.12-9.05 1.81 9.05zM166.78 9.5h-26.7l-7.5 46.96h26.88l1.73-9.98h-16.94l1.34-8.4h14.68L161.85 28h-14.83l1.27-8.4h16.9zM284.95 9.5h-11.21l-9.59 15.38-5.97-15.37h-11.1l11.48 24.76-3.62 22.19h9.75l2.93-19.57z"/>
  <path fill="#FFF" d="M237.88 9.97c-5.47-1.27-10.48 0-15.33 3.74-4.85 3.58-8.01 8.74-9.67 15.25-1.42 6.43-.73 12.52 1.9 17.87 2.76 5.55 6.73 8.9 12.2 10.1 5.4 1.26 10.4 0 15.25-3.67 4.86-3.73 8.1-8.9 9.6-15.4 1.5-6.44.8-12.44-1.9-17.88-2.69-5.46-6.73-8.82-12.05-10.01zm-.8 9.36c2.61 1.04 4.27 3.43 5.15 6.97a20 20 0 0 1-.61 11.29c-1.27 3.89-3.35 6.81-6.05 8.66-2.77 2-5.4 2.4-7.86 1.27-2.62-1.04-4.35-3.43-5.23-6.97-.97-3.66-.62-7.4.65-11.28 1.27-3.82 3.35-6.82 6.05-8.82 2.65-1.9 5.35-2.31 7.9-1.12zM205.03 11.63a10.39 10.39 0 0 0-5.55-1.81h-17.95l-7.4 46.64h21.58c2.3 0 4.7-.73 7.2-2.23a18.2 18.2 0 0 0 5.85-5.63 12.33 12.33 0 0 0 1.9-7.85c-.32-2.93-1.9-5.7-4.63-8.32 5.47-5.63 6.74-10.94 3.89-16.03a14.89 14.89 0 0 0-4.9-4.77zm-16.68 16.75l1.5-8.66h6.28c1.58 0 2.77.46 3.58 1.34.7.81.96 1.81.8 3a4.8 4.8 0 0 1-1.65 3.01 5.7 5.7 0 0 1-3.81 1.35h-6.7l10.86 11.1a4.23 4.23 0 0 1 1.27 3.3 4.44 4.44 0 0 1-1.81 3.24c-1.12.89-2.7 1.43-4.85 1.43h-8.48l1.5-9.44h8.1c1.8 0 3.23.54 4.27 1.5l-10.86-11.17zM276.44 52.26c0-1.35-.54-2.39-1.35-3.27a4.6 4.6 0 0 0-3.31-1.43c-1.27 0-2.4.54-3.28 1.43a4.45 4.45 0 0 0-1.35 3.27c0 1.27.47 2.31 1.35 3.24.89.88 2 1.42 3.28 1.42a4.73 4.73 0 0 0 4.66-4.66zm-1.9-2.77c.7.7 1.12 1.65 1.12 2.77 0 1.04-.46 1.97-1.11 2.77a3.9 3.9 0 0 1-2.77 1.04 3.79 3.79 0 0 1-3.97-3.81c0-1.12.39-2.08 1.2-2.77.65-.81 1.65-1.2 2.77-1.2 1.15 0 2.11.35 2.77 1.2z"/>
  <path fill="#FFF" d="M273.43 49.87l-1.27-.3h-2.23v5.23h.73v-2.38h1.04l1.43 2.38h.8l-1.58-2.38c1.05 0 1.66-.47 1.66-1.5.04-.47-.12-.9-.58-1.05zm-.15 1.04c0 .62-.62.89-1.73.89h-.89v-1.66h1.42c.85 0 1.2.31 1.2.77z"/>
</svg>
