<svg xmlns="http://www.w3.org/2000/svg" viewBox="0 0 285.75 95.25" height="360" width="1080">
  <defs>
    <clipPath id="a">
      <path d="M0 452h610V0H0z"/>
    </clipPath>
  </defs>
  <g fill="#fff">
    <circle cx="87.042" cy="54.128" r="8.82"/>
    <circle cx="108.45" cy="64.182" r="8.82"/>
    <path d="M47.75 22.248a.528.528 0 0 0-.53.53v11.297H35.924a.528.528 0 0 0-.529.529v9.098c0 .293.236.529.53.529H47.22v11.297c0 .293.236.53.529.53h9.098c.293 0 .53-.237.53-.53V44.231h11.297c.293 0 .529-.236.529-.53v-9.097a.528.528 0 0 0-.53-.53H57.378V22.778a.528.528 0 0 0-.529-.529z"/>
    <circle transform="scale(-1 1)" cx="-198.708" cy="54.128" r="8.82"/>
    <circle transform="scale(-1 1)" cx="-177.299" cy="64.182" r="8.82"/>
    <path d="M238 22.248c.293 0 .53.236.53.53v11.297h11.297c.293 0 .529.236.529.529v9.098c0 .293-.236.529-.53.529H238.53v11.297c0 .293-.236.53-.53.53h-9.097a.528.528 0 0 1-.53-.53V44.231h-11.297a.528.528 0 0 1-.529-.53v-9.097c0-.293.236-.53.53-.53h11.297V22.778c0-.293.236-.529.529-.529zM126.866 35.77c-.25.03-.498.062-.732.171-.234.11-.452.296-.663.506-.21.21-.444.476-.538.757a1.19 1.19 0 0 0 .031.81c.094.22.25.344.808.802.559.459 1.52 1.251 2.846 2.202a74.268 74.268 0 0 0 3.972 2.645c.958.585 1.184.644 1.402.675.219.031.429.034.534.036.105.002.105.002 2.927.002h11.474c3.01 0 3.384 0 3.71-.063.328-.062.61-.187 1.941-1.147 1.332-.96 3.75-2.782 4.979-3.811 1.228-1.03 1.297-1.34 1.313-1.605a1.33 1.33 0 0 0-.156-.764c-.14-.25-.39-.5-.64-.702-.249-.203-.498-.359-.732-.437-.234-.078-.452-.078-5.869-.078zm6.999.52h20.065c4.085 0 4.249 0 4.425.067.177.066.365.2.553.372.188.172.377.384.482.596.106.212.13.425.118.65-.012.226-.064.49-.998 1.28-.934.79-2.76 2.157-3.88 2.98-1.121.823-1.536 1.101-1.918 1.24-.382.139-.733.138-2.893.138h-8.114l-2.064-.001c-.079-.002-.237-.004-.402-.03-.164-.027-.336-.078-1.058-.575a55.986 55.986 0 0 1-2.995-2.25c-1-.81-1.725-1.484-2.146-1.874-.422-.39-.539-.496-.61-.682a1.135 1.135 0 0 1-.023-.69c.07-.24.248-.468.406-.645.158-.178.323-.337.5-.43.176-.092.364-.119.552-.145z"/>
  </g>
</svg>
