<svg xmlns="http://www.w3.org/2000/svg" viewBox="0 0 285.75 95.25" height="360" width="1080">
  <defs>
    <clipPath id="a">
      <path d="M0 452h610V0H0z"/>
    </clipPath>
  </defs>
  <g fill="#fff">
    <path d="M87.5 25.39l-10.48 4.33L72.7 40.2l4.33 10.47L87.5 55l10.47-4.34 4.34-10.47-4.34-10.47zm0 3.18a11.62 11.62 0 0 1 11.62 11.62 11.62 11.62 0 0 1-11.63 11.62A11.62 11.62 0 0 1 75.87 40.2a11.62 11.62 0 0 1 11.62-11.62z" stroke="#fff" stroke-width="1.6" stroke-linejoin="round"/>
    <circle r="8.88" cy="40.19" cx="87.49" stroke="#fff" stroke-width="1.48" stroke-linejoin="round"/>
    <path d="M73.05 15.33c2.04-.87 6.16-2.77 10.27-4.53 4.1-1.77 8.2-3.39 10.23-4.22 2.04-.84 2.03-.89 1.53-1.09-.5-.2-1.5-.55-2.54-.84a19.08 19.08 0 0 0-10.17-.05c-.87.24-1.5.5-2.2.9-.7.4-1.44.95-2.12 1.5-.69.56-1.31 1.13-1.87 1.7-.56.57-1.06 1.14-1.64 1.89a39.75 39.75 0 0 0-3.2 4.92c-.28.52-.33.69 1.7-.18zM190.22 5c.04-.17.26-.44.5-.62.24-.19.51-.29 1.21-.31.7-.03 1.8.02 3.14.18s2.9.43 4.55.8c1.65.37 3.43.86 4.83 1.32 1.4.46 2.41.9 3.63 1.48 1.22.58 2.64 1.32 3.91 2.08 1.28.75 2.42 1.54 3.36 2.18.93.63 1.67 1.12 2.18 1.52a5.9 5.9 0 0 1 1.6 1.85c.16.28.29.59.35.8.06.22.04.35-.13.6-.16.24-.48.59-.69.74-.2.15-.3.1-1.26-.44-.95-.55-2.76-1.58-4.7-2.6a150.87 150.87 0 0 0-10.35-4.89c-1.57-.64-3.4-1.34-5.43-2.07-2.03-.74-4.25-1.5-5.43-1.93-1.18-.43-1.31-.51-1.27-.69z"/>
    <path d="M211.87 9.22c-.57-.29-1.7-.95-2.8-1.52a26.03 26.03 0 0 0-6.42-2.35c-1.06-.27-2.15-.54-2.86-.7-.71-.16-1.04-.2-.83-.26a17.7 17.7 0 0 1 6.84.7c.68.22 1.18.44 1.72.7a23.8 23.8 0 0 1 3.33 2.02 9.71 9.71 0 0 1 1.5 1.45c.09.14.09.24-.48-.04z"/>
    <path d="M191.84 15.25c-.7.2-1.53.44-2.3.82-.76.37-1.48.88-2.18 1.48a18 18 0 0 0-1.91 1.92c-.53.61-.9 1.15-1.1 1.9-.22.75-.27 1.75-.13 2.54.13.78.45 1.37.83 1.88.39.5.84.94 1.38 1.22a4.45 4.45 0 0 0 3.82 0c.7-.31 1.45-.83 2.17-1.26.72-.42 1.4-.76 2.13-1 .74-.24 1.52-.39 2.48-.49.96-.1 2.1-.15 2.9-.32.79-.16 1.24-.45 1.66-.88a5.12 5.12 0 0 0 1.46-3.95 4.55 4.55 0 0 0-.63-2.13 3.52 3.52 0 0 0-1.7-1.35c-.8-.35-1.9-.67-3.12-.8a17.95 17.95 0 0 0-3.49 0c-.96.1-1.56.23-2.27.42zM224.74 34.16c-.23-.9-.63-2.02-1.27-3.15a18.13 18.13 0 0 0-2.23-3.06 5.25 5.25 0 0 0-1.84-1.44 4.3 4.3 0 0 0-3.74.2c-.56.32-1.07.79-1.42 1.24a4.24 4.24 0 0 0-.87 2.92c.06.57.24 1.19.51 1.75.27.55.61 1.02.94 1.74.32.7.63 1.67.8 2.42.16.74.2 1.27.21 1.95.02.68.02 1.5.07 2.22a6 6 0 0 0 .39 1.94c.24.57.63 1.1 1.08 1.56.46.47 1 .88 1.54 1.1.54.22 1.1.24 1.71.12.62-.12 1.3-.37 1.94-.87a6.04 6.04 0 0 0 1.66-2.2c.44-.96.74-2.1.86-3.17.12-1.06.05-2.03 0-2.85-.06-.83-.11-1.52-.34-2.42z" stroke="#fff" stroke-width=".2"/>
  </g>
  <g fill="#fff">
    <circle r="6.68" cy="50.73" cx="178.57"/>
    <circle r="4.2" cy="41.14" cx="143.22"/>
    <path d="M109.93 63.26a.4.4 0 0 0-.4.4v8.55h-8.56a.4.4 0 0 0-.4.4v6.9c0 .22.18.4.4.4h8.56v8.55c0 .23.18.4.4.4h6.9a.4.4 0 0 0 .4-.4v-8.55h8.55a.4.4 0 0 0 .4-.4v-6.9a.4.4 0 0 0-.4-.4h-8.56v-8.55a.4.4 0 0 0-.4-.4z"/>
    <circle r="10.93" cy="40.19" cx="199.49"/>
    <path d="M173.66 62l-10.08 4.18-4.18 10.08 4.18 10.09 10.08 4.18 10.09-4.18 4.18-10.09-4.18-10.08zm0 4.47a9.8 9.8 0 0 1 9.8 9.8 9.8 9.8 0 0 1-9.8 9.8 9.8 9.8 0 0 1-9.8-9.8 9.8 9.8 0 0 1 9.8-9.8z" stroke="#fff" stroke-width="1.6" stroke-linejoin="round"/>
    <circle r="7.93" cy="76.26" cx="173.66"/>
  </g>
</svg>
