<svg xmlns="http://www.w3.org/2000/svg" width="1897.3" height="456.5">
  <switch>
    <g>
      <path fill="#919191" d="M223.09 24.13h206.36v61.64h-70.44v181.05h-68.78V85.77h-67.7zM448.71 24.13h67.7v243.24h-68.8zM537.31 113.28h61.08v47.88h-61.08z"/>
      <g>
        <path fill="#919191" d="M614.02 213.78l71.33-8.39c1.88 9.33 5.05 15.9 9.51 19.74 4.47 3.84 9.93 5.76 16.38 5.76 11.5 0 20.5-5.43 26.95-16.29 4.7-8 8.22-24.95 10.57-50.83-8.57 8.22-17.38 14.26-26.42 18.1-9.04 3.84-19.5 5.75-31.35 5.75-23.13 0-42.65-7.67-58.56-23.03-15.91-15.35-23.87-34.77-23.87-58.24 0-16.01 4.05-30.6 12.16-43.76s19.25-23.12 33.46-29.86c14.2-6.75 32.05-10.12 53.54-10.12 25.83 0 46.56 4.14 62.17 12.42 15.62 8.28 28.1 21.44 37.43 39.48 9.33 18.05 14 41.87 14 71.49 0 43.54-9.8 75.43-29.41 95.67-19.61 20.23-46.8 30.35-81.55 30.35-20.55 0-36.75-2.22-48.6-6.66-11.87-4.44-21.73-10.94-29.6-19.5-7.87-8.55-13.91-19.25-18.14-32.08zm132.1-107.6c0-13.05-3.53-23.28-10.57-30.68-7.05-7.4-15.62-11.1-25.71-11.1-9.52 0-17.41 3.34-23.7 10.03-6.28 6.7-9.42 16.73-9.42 30.1 0 13.5 3.26 23.81 9.78 30.94 6.52 7.13 14.65 10.7 24.4 10.7 10.09 0 18.49-3.46 25.18-10.37 6.69-6.91 10.04-16.78 10.04-29.62zM836.57 213.78l71.33-8.39c1.88 9.33 5.05 15.9 9.52 19.74 4.46 3.84 9.92 5.76 16.37 5.76 11.51 0 20.5-5.43 26.95-16.29 4.7-8 8.22-24.95 10.57-50.83-8.57 8.22-17.38 14.26-26.42 18.1-9.04 3.84-19.5 5.75-31.35 5.75-23.13 0-42.65-7.67-58.56-23.03-15.91-15.35-23.87-34.77-23.87-58.24 0-16.01 4.05-30.6 12.16-43.76a77.4 77.4 0 0 1 33.46-29.86c14.2-6.75 32.05-10.12 53.54-10.12 25.83 0 46.56 4.14 62.17 12.42 15.62 8.28 28.1 21.44 37.43 39.48 9.34 18.05 14 41.87 14 71.49 0 43.54-9.8 75.43-29.4 95.67-19.62 20.23-46.8 30.35-81.56 30.35-20.54 0-36.75-2.22-48.6-6.66-11.87-4.44-21.73-10.94-29.6-19.5-7.86-8.55-13.9-19.25-18.14-32.08zm132.1-107.6c0-13.05-3.52-23.28-10.57-30.68-7.05-7.4-15.62-11.1-25.71-11.1-9.51 0-17.41 3.34-23.7 10.03-6.28 6.7-9.42 16.73-9.42 30.1 0 13.5 3.26 23.81 9.78 30.94 6.52 7.13 14.65 10.7 24.4 10.7 10.09 0 18.49-3.46 25.18-10.37 6.7-6.91 10.04-16.78 10.04-29.62z"/>
      </g>
      <path fill="#919191" d="M1132.2 23.58h33.66l-110.06 250.4h-29.81z"/>
      <g>
        <g>
          <path fill="#919191" d="M1255.07 278.07V233h-130.69v-66.54l135.27-150.2h74.45V164.5h32.4V233h-32.4v45.07h-79.03zm16.5-61.58v45.07h46.02V216.5h32.4V181h-32.4V32.77h-50.6L1140.9 172.8v43.7M1271.58 181h-95.98l95.98-105.5m-58.64 88.99h42.13v-46.31l-42.13 46.3zM1564.83 278.08l-12.91-39.82h-78.54l-12.58 39.82h-99.73l103.69-257.7h98.18l103.66 257.7h-101.77zm-.91-56.33l12.92 39.82h65.32l-90.38-224.69h-75.87l-90.4 224.69h63.2l12.58-39.82h96.63v8.26l-7.85 2.54 7.85-2.54v-8.26h6zm-11.15-35.64h-79.47l39.52-121.52m-16.79 105h33.94l-17.06-51.88-16.88 51.89z"/>
        </g>
      </g>
      <g>
        <path fill="#919191" d="M368.92 381.4l16.97 1.7a32.38 32.38 0 0 1-14.24 21.17c-7.64 5.1-17.02 7.64-28.15 7.64-13.94 0-25.15-3.5-33.62-10.53-8.47-7.02-12.7-17.08-12.7-30.18 0-8.48 1.82-15.9 5.46-22.24 3.65-6.36 9.2-11.13 16.64-14.3a61.3 61.3 0 0 1 24.32-4.77c11.06 0 20.1 2.15 27.14 6.47a29.06 29.06 0 0 1 13.52 18.36l-16.78 2c-1.6-5.28-4.43-9.25-8.5-11.9-4.05-2.66-8.96-4-14.71-4-8.7 0-15.77 2.4-21.2 7.21-5.44 4.8-8.15 12.4-8.15 22.8 0 10.54 2.62 18.2 7.86 22.98 5.24 4.78 12.09 7.17 20.53 7.17 6.77 0 12.43-1.6 16.97-4.8 4.54-3.2 7.42-8.13 8.64-14.78zM394.24 370.9c0-14.53 5.24-25.3 15.73-32.29 8.75-5.81 19.43-8.72 32.03-8.72 14 0 25.45 3.54 34.34 10.6 8.88 7.07 13.33 16.84 13.33 29.3 0 10.1-1.97 18.05-5.9 23.83-3.93 5.8-9.66 10.29-17.17 13.5a62.1 62.1 0 0 1-24.6 4.8c-14.26 0-25.78-3.53-34.58-10.57-8.79-7.05-13.18-17.2-13.18-30.45zm17.74 0c0 10.05 2.84 17.58 8.54 22.58 5.69 5 12.85 7.5 21.48 7.5 8.57 0 15.7-2.52 21.39-7.54 5.69-5.02 8.53-12.69 8.53-22.98 0-9.7-2.86-17.06-8.58-22.06-5.72-5-12.84-7.5-21.34-7.5-8.63 0-15.8 2.49-21.48 7.46-5.7 4.98-8.54 12.5-8.54 22.54zM509.9 410.14v-78.48h15.45v11.01c3.2-3.84 7.44-6.93 12.75-9.27s11.35-3.51 18.13-3.51c7.54 0 13.73 1.2 18.56 3.62 4.83 2.41 8.23 5.79 10.21 10.12 8.06-9.16 18.55-13.74 31.46-13.74 10.1 0 17.87 2.15 23.3 6.47 5.44 4.3 8.16 10.95 8.16 19.91v53.87h-17.17V360.7c0-5.32-.56-9.15-1.68-11.49-1.12-2.34-3.15-4.22-6.09-5.65a23.46 23.46 0 0 0-10.35-2.14c-7.17 0-13.11 1.83-17.84 5.5s-7.1 9.55-7.1 17.63v45.6h-17.26v-51c0-5.9-1.41-10.34-4.22-13.3-2.82-2.95-7.42-4.43-13.82-4.43-4.86 0-9.35.98-13.47 2.95a18.46 18.46 0 0 0-8.97 8.65c-1.85 3.8-2.78 9.26-2.78 16.4v40.72H509.9zM673.53 440.22V331.66h15.73v10.2c3.7-3.99 7.9-6.98 12.56-8.98 4.67-2 10.33-3 16.98-3 8.7 0 16.37 1.74 23.02 5.18a34.87 34.87 0 0 1 15.06 14.6 42.81 42.81 0 0 1 5.08 20.65c0 8.03-1.87 15.26-5.61 21.69-3.74 6.43-9.18 11.36-16.3 14.78a51.32 51.32 0 0 1-22.5 5.13c-5.75 0-10.92-.93-15.49-2.8a34.91 34.91 0 0 1-11.27-7.1v38.2h-17.26zm15.63-68.87c0 10.1 2.66 17.56 7.96 22.39 5.31 4.83 11.74 7.24 19.28 7.24 7.68 0 14.25-2.5 19.71-7.5 5.47-5 8.2-12.75 8.2-23.24 0-10-2.67-17.49-8-22.47a27.1 27.1 0 0 0-19.14-7.46c-7.35 0-13.86 2.65-19.52 7.94-5.66 5.3-8.49 13-8.49 23.1zM849.53 410.14v-11.52c-7.93 8.86-18.7 13.3-32.33 13.3-6 0-11.62-.9-16.83-2.66-5.21-1.78-9.08-4-11.6-6.7a22.43 22.43 0 0 1-5.33-9.86c-.7-2.6-1.05-6.75-1.05-12.41v-48.63h17.26v43.53c0 6.94.35 11.63 1.06 14.04 1.08 3.5 3.39 6.24 6.9 8.24 3.52 2 7.87 3 13.05 3s10.04-1.03 14.58-3.08c4.54-2.04 7.75-4.82 9.63-8.35 1.89-3.52 2.83-8.63 2.83-15.33v-42.05h17.27v78.48h-15.44zM929.7 398.24l2.5 11.75c-4.86.8-9.2 1.19-13.04 1.19-6.27 0-11.13-.77-14.58-2.3-3.45-1.52-5.88-3.53-7.29-6.02-1.4-2.48-2.1-7.72-2.1-15.7v-45.15h-12.67v-10.35h12.66v-19.43l17.17-7.98v27.41h17.36v10.35h-17.36v45.9c0 3.78.3 6.22.9 7.3a6.3 6.3 0 0 0 2.98 2.6c1.38.63 3.34.95 5.9.95 1.92 0 4.45-.17 7.58-.52zM1016.32 384.87l17.84 1.7c-2.82 8.03-8.03 14.26-15.64 18.7-7.6 4.43-17.33 6.64-29.16 6.64-14.9 0-26.7-3.53-35.43-10.6s-13.1-16.98-13.1-29.74c0-13.2 4.42-23.45 13.24-30.74 8.82-7.3 20.27-10.94 34.34-10.94 13.62 0 24.74 3.57 33.37 10.71 8.64 7.15 12.95 17.2 12.95 30.15 0 .8-.03 1.98-.1 3.55h-75.96c.64 8.62 3.8 15.22 9.5 19.8 5.69 4.59 12.79 6.88 21.3 6.88 6.32 0 11.72-1.28 16.2-3.84 4.47-2.56 8.02-6.65 10.65-12.27zm-56.69-21.5h56.88c-.77-6.6-2.95-11.56-6.53-14.86-5.5-5.12-12.62-7.68-21.38-7.68-7.93 0-14.6 2.04-20 6.13a22 22 0 0 0-8.97 16.4zM1055.64 410.14v-78.48h15.54v11.9c3.96-5.57 7.62-9.24 10.98-11.01a23.34 23.34 0 0 1 11.08-2.66c5.81 0 11.73 1.43 17.74 4.29l-5.95 12.34a30.33 30.33 0 0 0-12.66-2.89c-3.77 0-7.16.88-10.16 2.63-3.01 1.75-5.15 4.17-6.43 7.28a40.91 40.91 0 0 0-2.88 15.51v41.1h-17.26z"/>
      </g>
    </g>
  </switch>
</svg>
