<svg xmlns="http://www.w3.org/2000/svg" viewBox="0 0 285.75 95.25" height="360" width="1080">
  <circle cx="192.13" cy="46.43" r="8.82" fill="#fff"/>
  <circle cx="214.9" cy="45.37" r="8.82" fill="#fff"/>
  <circle cx="168.82" cy="51.03" r="8.82" fill="#fff"/>
  <circle cx="148.5" cy="61.47" r="8.82" fill="#fff"/>
  <circle cx="100.95" cy="33.78" r="8.82" fill="#fff"/>
  <rect width="7.48" height="23.79" x="97.21" y="36.46" rx="3.97" ry="1.32" fill="#fff"/>
  <path d="M100.95 52.97a20.31 6.15 0 0 0-20.31 6.14 20.31 6.15 0 0 0 20.31 6.15 20.31 6.15 0 0 0 20.31-6.15 20.31 6.15 0 0 0-20.31-6.14zm0 .8a17.22 5.21 0 0 1 17.22 5.21 17.22 5.21 0 0 1-17.22 5.21A17.22 5.21 0 0 1 83.73 59a17.22 5.21 0 0 1 17.22-5.22z" fill="#fff"/>
</svg>
