<svg xmlns="http://www.w3.org/2000/svg" version="1.2" width="566.93" height="96.83">
  <g fill="#fff">
    <path d="M353.81 58.21h2.25c2.1 0 5.68.43 7.15 1.3 1.48.86 2.45 1.82 2.92 2.89.47 1.06.71 3.42.71 7.05v14.27c0 4.3-4.55 6.5-6.74 6.97-2.2.47-4.34.71-6.42.71-6 0-11.2-1.56-15.56-4.69-4.37-3.13-7.53-8.02-9.5-14.69-1.95-6.66-2.93-14.4-2.93-23.25 0-7.3.9-14.4 2.68-21.34 1.8-6.94 4.85-12.34 9.16-16.22 4.3-3.87 9.7-5.8 16.2-5.8 6.78 0 10.75 1.7 15.74 6.9 5.11 5.3 10.01 11.34 12.88 20.19h4.17V0h-2.37c-.86 2.6-1.8 4.37-2.82 5.3A4.86 4.86 0 0 1 378 6.7c-.77 0-3.26-.84-7.46-2.53-4.2-1.7-7.24-2.72-9.12-3.09A45.68 45.68 0 0 0 350.97 0c-13.91 0-25.46 4.78-34.64 14.34-9.17 9.57-13.76 21.28-13.76 35.15 0 7.74 1.49 14.75 4.48 21 2.34 4.85 5.6 9.2 9.76 13.09 4.16 3.87 8.97 7 14.4 9.38 5.45 2.38 12.29 3.57 20.53 3.57 6.44 0 12.66-.67 18.66-2 6-1.34 11.76-3.31 17.32-5.93V69.43c0-3.36.2-5.47.58-6.33a6.86 6.86 0 0 1 2.9-3.52c1.26-.7 4.69-1.16 7.89-1.4v-3.13h-45.3v3.14l.02.02z"/>
    <path d="M457.91 83.04c-5.16 3.95-12.03 5.93-20.6 5.93h-4.88c-2.62 0-4.5-.36-5.68-1.08a5.57 5.57 0 0 1-2.4-2.76c-.43-1.13-.64-4.2-.64-9.23V50.15c4.4 0 9.55.57 11.86 1.72 2.31 1.15 4.34 3.39 6.08 6.72 1.75 3.33 2.9 7 3.44 12.23h3.72V23.43h-3.72c-.73 7.12-2.4 11.9-5.03 15.55-2.63 3.65-6.87 5.47-12.72 5.47h-3.64V12.67c-.03-5.53 4.9-4.89 4.9-4.89h5.75c6.96 0 11.7.4 14.22 1.22 4.34 1.35 7.7 3.46 10.07 6.34s4.2 7.62 5.52 14.23h3.11V2.51h-77.42v3.7h2.44c2.98 0 5.32.63 7.04 1.9a6.44 6.44 0 0 1 2.5 3.63c.23.94.34 3.48.34 7.62v57.26c0 4.59-.25 7.42-.75 8.5a6.17 6.17 0 0 1-2.7 3.23c-1.63.95-3.77 1.42-6.42 1.42h-2.45v4.3h78.73l4.73-29.11H469c-2.26 8.1-5.97 14.13-11.13 18.08"/>
    <path d="M518.83 1.07c-13.2-.54-24.32 3.76-33.34 12.9-9.05 9.15-13.56 20.59-13.56 34.3 0 12.22 3.47 22.77 10.42 31.67 8.8 11.26 21.24 16.9 37.34 16.9 16.05 0 28.48-5.9 37.28-17.72 6.64-8.89 9.96-19.2 9.96-30.92 0-13.7-4.46-25.13-13.35-34.26-8.91-9.13-20.49-13.42-34.74-12.87m21.05 73.29c-2.16 6.37-5.17 11.02-9.04 13.91-3.03 2.28-6.82 3.41-11.35 3.41-6.73 0-11.96-2.63-15.7-7.9-5.37-7.53-8.06-19.17-8.06-34.92 0-13.25 1.74-23.42 5.22-30.5 4.26-8.62 10.48-12.93 18.66-12.93a19.4 19.4 0 0 1 11.78 3.75c3.4 2.5 6.21 6.77 8.4 12.83 2.21 6.06 3.3 15.2 3.3 27.4 0 10.26-1.07 18.58-3.23 24.96M226.5 96.3c16.05 0 28.48-5.9 37.28-17.71 6.64-8.9 9.96-19.2 9.96-30.92 0-13.71-4.46-25.13-13.36-34.26C251.48 4.28 239.9-.01 225.65.54c-13.19-.54-24.3 3.75-33.34 12.9-9.04 9.15-13.55 20.59-13.55 34.3 0 12.21 3.47 22.77 10.42 31.67 8.8 11.26 21.24 16.9 37.34 16.9m-18.9-78.43c4.27-8.62 10.5-12.93 18.67-12.93a19.4 19.4 0 0 1 11.78 3.75c3.4 2.5 6.21 6.77 8.41 12.83 2.2 6.06 3.3 15.19 3.3 27.4 0 10.25-1.08 18.57-3.23 24.95-2.16 6.37-5.17 11.02-9.04 13.92-3.03 2.27-6.82 3.4-11.35 3.4-6.73 0-11.96-2.63-15.7-7.9-5.37-7.52-8.06-19.16-8.06-34.91 0-13.26 1.74-23.42 5.21-30.5"/>
    <path d="M180 64.23h-4.32c-2.25 8.1-5.96 14.13-11.12 18.08-5.17 3.95-12.03 5.92-20.6 5.92h-4.88c-2.61 0-4.5-.36-5.68-1.07a5.58 5.58 0 0 1-2.4-2.77c-.42-1.12-.64-4.2-.64-9.23V49.41c4.4 0 9.55.58 11.87 1.73 2.3 1.14 4.34 3.38 6.08 6.71 1.75 3.34 2.9 7.01 3.44 12.23h3.71V22.7h-3.71c-.73 7.11-2.4 11.9-5.04 15.54-2.62 3.65-6.87 5.47-12.71 5.47h-3.64V11.93c-.03-5.53 4.9-4.88 4.9-4.88H141c6.97 0 11.7.4 14.24 1.21 4.34 1.35 7.69 3.47 10.06 6.34 2.38 2.88 4.21 7.63 5.53 14.24h3.1V1.74H96.53v3.74h2.44c2.97 0 5.32.63 7.03 1.88a6.45 6.45 0 0 1 2.5 3.65c.23.94.34 3.48.34 7.61v57.26c0 4.59-.25 7.42-.74 8.5a6.16 6.16 0 0 1-2.7 3.23c-1.63.94-3.77 1.42-6.43 1.42h-2.44v4.3h78.73l4.73-29.11h.02zM31.41 88.98h-2.09c-3 0-5.66-.92-7.99-2.76-2.32-1.85-3.48-5.39-3.48-10.65v-55.3l59.9 74.68h3.89V18.8c0-4.33.36-5.6 1.07-7.37a7.72 7.72 0 0 1 3-3.86c1.27-.8 3.77-1.43 7.5-1.93V1.75H63.5v3.88c4.9-.09 8.4 1.17 10.47 3.79 1.52 1.94 2.28 3.86 2.28 9.37v39.89L29.6 1.75H1.23v3.08c2.7.09 2.8 1 4.23 1.75l7.6 7.65-.01 61.34c0 4.85-.96 8.28-2.87 10.3-1.92 2.02-5.31 3.05-10.18 3.1v3.7h31.4v-3.7h.01z"/>
    <path stroke="#000" stroke-width=".1214239" d="M299.3 48.42a11.02 11.02 0 1 1-22.03 0 11.02 11.02 0 0 1 22.03 0z"/>
  </g>
</svg>
