<svg xmlns="http://www.w3.org/2000/svg" viewBox="0 0 285.75 95.25" height="360" width="1080">
  <defs>
    <clipPath id="a">
      <path d="M0 452h610V0H0z"/>
    </clipPath>
  </defs>
  <g fill="#fff">
    <path d="M122.15 9.4c-3.84.48-7.16 2.69-10.51 4.44-8.6 5.18-15.7 13.1-19.27 22.54-.46 4.78.43 9.55.5 14.3.24 2.44.18 5.13 1.5 7.27 2.14 2.54 5.84 1.83 8.73 2.5a99.54 99.54 0 0 1 22.2 5.78c6.2 2.1 12.27 4.77 18.78 5.82 8.84 1.7 17.82 2.74 26.81 3.1 7.98 0 15.97-.58 23.84.81 3.6.47 7.12 1.56 10.67 2.38 2.23.25 4.52-1.42 4.64-3.74.41-2.99.12-6.02.4-9.02.4-15.26.57-30.58-.52-45.81-.7-2.26-3.57-2.75-5.5-1.83-10.47 2.38-21.28 2.75-32 3.4-8.8.45-17.62.64-26.4 1.4-2.22.65-4.57 1.65-6.89.71a24.24 24.24 0 0 1-11.98-7.17c-.97-2.04-.44-5.1-2.77-6.32a4.36 4.36 0 0 0-2.23-.56zm.13 3.29c1.34.34.8 2.13 1.21 3.15 1.08 4.1 5.2 6.22 8.53 8.28 4.02 2.24 9.02 4.02 13.52 2.14 4.54-1.09 9.26-.6 13.88-1.06 14.68-.7 29.47-.96 43.96-3.64 1.11-.19 2.4-.76 3.41-.63.35 1.35-.04 2.78.23 4.16a523.8 523.8 0 0 1-.28 49.43c-1 1.24-2.7-.05-3.92-.22-9.9-2.7-20.23-2.82-30.4-2.4-9.07-.12-18.1-1.42-27.04-2.93-4.86-.79-9.53-2.34-14.13-4.1-8.05-2.86-16.11-5.93-24.62-7.16-3.04-.6-6.19-.77-9.2-1.41-1.45-1.18-.82-3.33-1.19-4.96-.34-4.8-.88-9.62-.56-14.41 3.5-8.9 10.46-16.17 18.7-20.91a33.37 33.37 0 0 1 7.9-3.33z"/>
    <path d="M145.18 24.76l-.1-.45c.17-.1.5-.9.62-5.16v-.1l.03-.68v-.15c0-.33-.08-.77-.36-.95-.28-.19-.67-.05-.78 0-.2.07-.74.29-.93.33-5.9 1.17-13.13-.72-15.1-2.14l-.67-.5-.25-.18c-.92-.68-2.48-.1-2.5-.1l-.16-.43c.08-.03 1.82-.68 2.94.15l.25.19.66.49c1.63 1.17 8.6 3.27 14.74 2.06.1-.03.52-.18.84-.31.21-.09.76-.26 1.22.04.36.24.55.7.57 1.34v.18l-.03.67v.1c-.12 3.96-.38 5.47-.99 5.6zM75 47.1a23 23 0 0 1 1.13-7.21c.15-.46.48-.74.89-.74 1.67-.02 10.1-.13 11.72-.34a5.9 5.9 0 0 0 2.74-1l.3.36c-.05.03-1.1.86-2.98 1.1-1.6.21-9.42.32-11.78.35-.27 0-.4.26-.45.42a22.5 22.5 0 0 0-1.1 7.05zm17.7 0c-.07-4.7.35-7.72.53-8.8l-.03-.05h-1.3c-.16.8-.73 4.15-.69 8.84h-.46c-.06-5.18.67-9.12.79-9.23l.06-.07h1.71l.05.02c.15.07.39.26.33.57a48.9 48.9 0 0 0-.51 8.71zm-1.22 9.1s-1-.78-2.74-1c-1.62-.21-10.05-.32-11.72-.34-.4 0-.74-.28-.9-.74A23 23 0 0 1 75 46.9h.47c-.03 3.32.76 6.04 1.1 7.06.05.16.18.42.45.42 2.36.03 10.17.14 11.78.34a6.25 6.25 0 0 1 2.98 1.11zm1.83.02h-1.8l-.04-.18c0-.04-.78-3.75-.72-9.13h.46c-.04 4.65.53 8.04.68 8.84h1.3c.03-.01.05-.03.04-.05-.18-1.07-.6-4.09-.52-8.8l.47.02c-.08 4.79.37 7.87.52 8.7.05.31-.2.51-.34.58z"/>
    <path d="M94.68 56.27h-.26c-.57 0-1.12-.46-1.22-1.02 0-.04-.61-3.52-.6-8.4l.47.01a52.4 52.4 0 0 0 .6 8.3c.05.35.4.64.75.64h.26a.5.5 0 0 0 .3-.1l.28.38a.97.97 0 0 1-.58.19z"/>
    <g>
      <path d="M92.6 47.1c-.01-4.88.6-8.35.6-8.39.05-.27.2-.53.43-.72l.3.36a.77.77 0 0 0-.27.45c0 .03-.6 3.47-.59 8.3z"/>
    </g>
    <path d="M93.09 38.3c-.46 0-1.37.02-2.03.13-.66.1-1.07.3-1.62.44-.54.15-1.22.24-3.3.33-2.08.08-5.6.15-7.43.2-1.83.04-1.98.07-2.1.15-.11.07-.2.2-.42 1.21-.23 1.02-.6 2.92-.77 4.53-.16 1.62-.12 2.94.07 4.38.2 1.44.54 3 .8 3.85.26.85.44.99 2.37 1.1 1.93.12 5.65.22 7.78.3 2.14.07 2.72.13 3.6.34.9.21 2.08.59 3.06.78.98.19 1.75.2 1.95-.7.21-.88-.14-2.66-.4-4.75-.25-2.09-.42-4.48-.6-6.58-.16-2.1-.34-3.91-.51-5.72l.4.06-.33-.05h-.52zM124.98 14.23c.32 0 .97-.02 1.45 0 .49.04.81.1 1.24.33.43.23.96.62 1.55.96.59.33 1.22.6 2.31.93 1.1.33 2.66.7 4.12.93a26.31 26.31 0 0 0 6.84.13c.76-.1 1.36-.23 1.76-.34.4-.1.6-.2.79-.2.18-.02.35.04.5.17.15.14.3.36.34 1.22.04.86-.01 2.37-.1 3.48-.1 1.1-.25 1.8-.35 2.21-.1.42-.18.57-.67.77a8.7 8.7 0 0 1-5.5.33c-1.32-.32-3.06-.9-4.4-1.47a20.15 20.15 0 0 1-3.46-1.87 45.96 45.96 0 0 1-3.55-2.54A9.92 9.92 0 0 1 126 17.4c-.36-.5-.55-.92-.75-1.43-.2-.52-.4-1.13-.5-1.44-.1-.3-.1-.3.23-.31z" stroke="#fff" stroke-width=".23"/>
  </g>
</svg>
