<svg xmlns="http://www.w3.org/2000/svg" width="568.93" height="116.14">
  <path fill="#FFF" d="M358.58 26.9v-2.48h17.19v21.97h-12.2v4.33h-4.2v4.85h-4.84v21.1h4.18v4.46h4.6v4.72h12.45v22.25h-17.05v-2.74h-5.25v-2.57h-4.2V99.2h-3.8v-4.76H341v-4.69h-4.2v-5.64h-4.07V48.14h4.07v-5.42h4.07v-4.9h4.72v-4.7h3.68v-3.38h3.8V26.9z"/>
  <path d="M376.51 108.84h-18.55v-2.73h-5.25v-2.57h-4.2v-3.59h-3.8V95.2h-4.46V90.5h-4.2v-5.64h-4.07V47.4h4.07v-5.42h4.07v-4.9h4.72v-4.7h3.68V29h3.8v-2.84h5.51v-2.48h18.69v23.47h-12.2v4.32h-4.2v4.86h-4.84v19.6h4.18v4.46h4.6v4.72h12.46v23.75zm-17.05-1.5h15.55V86.6h-12.46v-4.72h-4.59v-4.46h-4.18v-22.6h4.84v-4.85h4.2v-4.33h12.2V25.17h-15.69v2.48h-5.51v2.84h-3.8v3.38h-3.68v4.7h-4.72v4.9h-4.07v5.42h-4.07v34.47h4.07V89h4.2v4.7h4.46v4.75h3.8v3.6h4.2v2.56h5.25v2.73z"/>
  <path fill="#FFF" d="M405.2 26.49V24.3h18.36v2.18h5.25v2.75h3.94v3.94h4.2v4.2h4.33v4.85h4.46v65.81h-20.27V51.02h-4.4v-4.07h-10.62v3.8h-4.72v4.6h-4.86V76.6h4.59v4.72h4.2v3.8h11.28v22.92H405.2v-1.79h-5.51v-2.75h-3.54v-3.8h-4.2v-4.47h-4.07v-5.12h-4.07v-5.64h-4.46v-36.2h3.8v-5.55h4.6V37.9h4.2v-4.85h3.93V29.5h4.07v-3.02z"/>
  <path d="M446.49 108.8h-21.77V51.76h-4.4V47.7h-9.12v3.8h-4.72v4.59h-4.86v19.75h4.59v4.73h4.2v3.8h11.28v24.41h-17.24V107h-5.51v-2.75h-3.55v-3.8h-4.2v-4.47h-4.06v-5.11h-4.07v-5.65h-4.46v-37.7h3.8v-5.55h4.6v-4.82h4.2V32.3h3.94v-3.55h4.06v-3.02h5.25v-2.17h19.86v2.18h5.25v2.75h3.94v3.94h4.2v4.2h4.33v4.85h4.46v67.31zm-20.27-1.5h18.77V42.97h-4.46v-4.85h-4.33v-4.2H432v-3.94h-3.94v-2.75h-5.25v-2.18h-16.86v2.18h-5.25v3.01h-4.06v3.55h-3.94v4.85h-4.2v4.82h-4.6V49h-3.8v34.71h4.46v5.64h4.07v5.12h4.07v4.46h4.2v3.8h3.54v2.76h5.5v1.8h14.25V85.87h-11.28v-3.8h-4.2v-4.73h-4.6V54.6h4.87V50h4.72v-3.8h12.12v4.07h4.4v57.02z"/>
  <path fill="#F2B101" d="M29.04 26.49V24.3h18.37v2.18h5.25v2.75h3.93v3.94h4.2v4.2h4.33v4.85h4.46v65.81H49.31V51.02h-4.4v-4.07H34.3v3.8h-4.72v4.6h-4.86V76.6h4.6v4.72h4.2v3.8h11.27v22.92H29.04v-1.79h-5.5v-2.75h-3.55v-3.8h-4.2v-4.47h-4.06v-5.12H7.65v-5.64H3.2v-36.2H7v-5.55h4.6V37.9h4.2v-4.85h3.93V29.5h4.06v-3.02z"/>
  <path d="M70.33 108.8H48.56V51.76h-4.4v-4.06h-9.12v3.8h-4.72v4.6h-4.86v19.74h4.6v4.73h4.2v3.8h11.28v24.41H28.28V107h-5.5v-2.75h-3.55v-3.8h-4.2v-4.47h-4.07v-5.11H6.91v-5.64H2.45V47.52h3.8v-5.55h4.6v-4.82h4.2V32.3h3.93v-3.55h4.06v-3.02h5.25v-2.17h19.87v2.18h5.25v2.75h3.93v3.94h4.2v4.2h4.33v4.85h4.46v67.31zm-20.27-1.5h18.77V42.97h-4.46v-4.85h-4.33v-4.2h-4.2v-3.94h-3.93v-2.75h-5.25v-2.18H29.79v2.18h-5.25v3.01h-4.06v3.55h-3.94v4.85h-4.2v4.82H7.76V49h-3.8v34.71H8.4v5.64h4.07v5.12h4.06v4.46h4.2v3.8h3.54v2.76h5.51v1.8h14.25V85.87H32.75v-3.8h-4.2v-4.73h-4.59V54.6h4.86V50h4.72v-3.8h12.13v4.07h4.4v57.02z"/>
  <path fill="#FFF" d="M491.37 46.08V24.3h-15.95v2.29h-5.03v2.7h-4.36v3.69h-4.37v4.7h-3.86v4.7h-4.2v5.87h-4.36v35.92h4.53v5.7h4.03v5.2h4.2v4.87h4.2v3.7h4.19v2.51h5.7v1.88h19.14v-1.7h5.2v-3.03h3.53v-4.2h3.86v-4.86h4.7v-4.7h4.2V7.14h-21.66v74.18h-3.7v3.87h-11.4v-3.87h-3.86V76.3h-4.54V55.3h4.87v-4.37h4.2v-4.86z"/>
  <path d="M495.98 108.8h-20.63v-1.89h-5.71v-2.51h-4.2v-3.7h-4.19v-4.86h-4.2v-5.2h-4.03v-5.71h-4.53V47.5h4.37v-5.87h4.2v-4.7h3.85v-4.7h4.37v-3.7h4.36v-2.68l5.03-.01v-2.29h17.45v23.27h-10.74v4.87h-4.2v4.36h-4.87v19.48h4.54v5.03h3.85v3.87h9.92v-3.87h3.69V6.4h23.15v83.9h-4.2V95h-4.7v4.88h-3.85v4.19h-3.53v3.02h-5.2v1.71zm-19.13-1.5h17.63v-1.72h5.2v-3.02h3.53v-4.2h3.86V93.5h4.7v-4.7h4.2V7.89H495.8v74.18h-3.7v3.87h-12.9v-3.87h-3.86v-5.03h-4.54V54.56h4.87v-4.37h4.2v-4.86h10.74V25.06h-14.45v2.28l-5.03.02v2.68h-4.36v3.7h-4.37v4.7h-3.86v4.7h-4.2V49H450v34.42h4.54v5.7h4.02v5.2h4.2v4.87h4.2v3.7h4.19v2.51h5.7v1.88z"/>
  <path fill="#FFF" d="M525.33 47.7v-5.28h3.65v-4.6h4.34v-4.74h3.8v-3.8h4.33v-3.11h4.87v-1.86h19.77v22.18h-13.8v3.38h-4.48v2.58h-4.06v2.98h22.35v20.72h-22.22v3.25h4.2v2.57h3.93v3.25h14.09v22.82h-19.78v-1.83h-4.6v-2.84h-4.2v-3.8h-3.93v-4.2H529v-5.4h-3.66V84h-4.88V47.7z"/>
  <path d="M566.85 108.8h-21.28v-1.84h-4.6v-2.84h-4.2v-3.8h-3.93v-4.2h-4.6v-5.4h-3.66v-5.97h-4.88V46.94l4.88.01v-5.28h3.66v-4.6h4.33v-4.74h3.8v-3.8h4.33v-3.11h4.87v-1.86h21.28v23.68h-13.82v3.38h-4.47v2.58h-4.06v1.48h22.35V76.9h-22.22v1.75h4.2v2.57h3.93v3.25h14.09v24.32zm-19.78-1.5h18.27V85.96h-14.08v-3.25h-3.93v-2.57h-4.2V75.4h22.21V56.18H543V51.7h4.07v-2.58h4.47v-3.38h13.81V25.06h-18.27v1.86h-4.87v3.11h-4.34v3.8h-3.8v4.74h-4.33v4.6h-3.65v5.29l-4.88-.02v34.81h4.88v5.96h3.65v5.42h4.61v4.2h3.92v3.8h4.2v2.83h4.61v1.83z"/>
  <g>
    <path fill="#F2B101" d="M136.84 55.95V42.49h-4.16v-4.98h-4.27v-4.58h-3.86v-3.55h-4.07v-2.8h-5.02v-2.27H94.69v2.27h-5.54v2.8h-3.72v3.55h-3.9v4.58h-4.5v4.72h-3.72v21.94h4.16v4.28h4.24v3.93h29.16v4.37h4.33v4.28h-4.5v4.46H99.54v-4.63h-3.98V76.5H73.3v13.37h4.16v4.55h4.33v4.54h4.32v3.59h3.81v2.8h5.2v2.7h20.59v-2.7h4.67v-2.8h4.16v-3.59h4.15V94.5h4.07v-4.55h4.07V68.97h-5.02v-4.1h-4.24v-4.9H99.45V55.6h-4.24v-4.28h4.24v-4.63h11.16v4.98h4.16v4.28z"/>
    <path d="M116.47 108.8h-22.1v-2.72h-5.19v-2.8h-3.8V99.7h-4.33v-4.54h-4.33V90.6h-4.16V75.74h23.75v4.37h3.98v4.63h9.66V80.3h4.5V77.5h-4.33v-4.37H80.96V69.2h-4.24v-4.28h-4.16V41.48h3.73v-4.72h4.5v-4.58h3.9v-3.55h3.71v-2.8h5.54v-2.27h22.27v2.27h5.02v2.8h4.07v3.55h3.86v4.58h4.27v4.98h4.16V56.7h-23.57v-4.28h-4.16v-4.98h-9.66v4.63h-4.24v2.78h4.24v4.37h28.13v4.9h4.24v4.1h5.02V90.7h-4.07v4.54h-4.07v4.46h-4.15v3.59h-4.16v2.8h-4.67v2.7zm-20.6-1.5h19.1v-2.72h4.67v-2.8h4.16V98.2h4.15v-4.46h4.07V89.2h4.07V69.72h-5.02v-4.1h-4.24v-4.9H98.7v-4.37h-4.24v-5.78h4.24v-4.63h12.66v4.98h4.16v4.28h20.57V43.24h-4.16v-4.98h-4.27v-4.58h-3.86v-3.55h-4.07v-2.8h-5.02v-2.27H95.44v2.27H89.9v2.8h-3.72v3.55h-3.9v4.58h-4.5v4.72h-3.72v20.44h4.16v4.28h4.24v3.93h29.16V76h4.33v5.79h-4.5v4.45H98.79v-4.63H94.8v-4.37H74.06v11.87h4.16v4.55h4.32v4.54h4.33v3.59h3.81v2.8h5.2v2.7z"/>
  </g>
  <g>
    <path fill="#F2B101" d="M183.47 86.1v-4.63h-4.23v-4.36h-3.89V46.84h12.87v-7.77h-5v-4.8h-4.67v-3.66h-3.2V16.9h-22.1v13.7h-2.86v3.66h-4.32v4.8h-5.44v7.77h12.61v37.25h4.32v5.24h3.63v5.06h4.23v5.15h3.71v3.83h3.72v2.8h5.61V108h15.63V86.1z"/>
    <path d="M194.84 108.75h-17.13v-1.83h-5.61v-2.8h-3.72v-3.83h-3.71v-5.15h-4.23v-5.06h-3.63v-5.24h-4.32V47.6h-12.6v-9.27h5.43v-4.8h4.32v-3.66h2.85v-13.7h23.61v13.7h3.2v3.66h4.66v4.8h5.01v9.27H176.1v28.77H180v4.36h4.23v4.63h10.63v23.4zm-15.63-1.5h14.14v-20.4h-10.63v-4.63h-4.23v-4.35h-3.89V46.09h12.87v-6.27h-5v-4.8h-4.67v-3.66h-3.2v-13.7H154v13.7h-2.86v3.66h-4.32v4.8h-5.44v6.27H154v37.25h4.32v5.24h3.63v5.06h4.23v5.15h3.71v3.83h3.72v2.8h5.61v1.83z"/>
  </g>
  <g>
    <path fill="#F2B101" d="M243.01 72.02h4.72V67.3h3.93v-5.33h2.36V42.3h-2.89v-4.37h-3.67v-4.63h-4.28v-3.67h-4.72v-2.8h-4.54v-2.53h-14.07v2.53h-3.94v2.8h-4.37v3.67h-4.72v4.63h-4.19v4.28h-4.72v65.8h21.5V46.67h14.5v11.7h-4.45v3.15h-6.73v15.64l13.1 30.84h22.2z"/>
    <path d="M259.16 108.77h-23.82l-13.36-31.45V60.78h6.73v-3.15h4.46v-10.2h-13.01v61.34h-23v-67.3h4.72V37.2h4.2v-4.63h4.71v-3.67h4.37v-2.8h3.94v-2.53h15.57v2.53h4.54v2.8h4.72v3.67h4.28v4.63h3.67v4.37h2.89v21.16h-2.36v5.33h-3.93v4.72h-4.34l15.02 36zm-22.83-1.5h20.58l-15.02-36h5.09v-4.72h3.93v-5.33h2.36V43.06h-2.89v-4.37h-3.67v-4.63h-4.28v-3.67h-4.72v-2.8h-4.54v-2.53H220.6v2.53h-3.94v2.8h-4.37v3.67h-4.71v4.63h-4.2v4.28h-4.72v64.3h20V45.92h16v13.2h-4.45v3.15h-6.73v14.74l12.86 30.25z"/>
  </g>
  <g>
    <path fill="#F2B101" d="M325.39 48.17v-5.6h-4.33v-4.72h-4.4v-4.72h-3.9v-3.39h-3.98v-2.81h-5.02v-2.62h-20.84v2.62H278v2.62h-4.32v3.59h-3.55v4.72h-4.58v4.72h-3.98v5.6h-4.24v36.01h4.24v5.58h3.98v4.73h4.58v4.72h3.55v3.58H278v2.63h4.93v2.62h20.84v-2.62h5.02v-2.63h3.97v-3.58h3.9V94.5h4.4v-4.73h4.33v-5.65h3.9V48.17h-3.9zM303.17 76.4v4.73h-4.33v4.37h-11.06v-4.37h-3.98V76.4h-4.67V55.95h4.67v-4.73h3.98v-4.36h11.06v4.37h4.33v4.73h4.32V76.4h-4.32z"/>
    <path d="M304.52 108.8h-22.25l-.1-.75v-1.88h-4.92v-2.62h-4.32v-3.58h-3.55v-4.72h-4.58v-4.73h-3.98v-5.59h-4.24V47.51l.75-.09h3.5v-5.6h3.97v-4.71h4.58v-4.72h3.55V28.8h4.32v-2.62h4.92v-2.62h22.34v2.62h5.02v2.81h3.98v3.4h3.9v4.72h4.4v4.72h4.33v5.6h3.9v37.35l-.76.09h-3.14v5.66h-4.32v4.72h-4.41v4.72h-3.9v3.58h-3.97v2.63h-5.02v2.61zm-20.84-1.5h19.34v-2.63h5.01v-2.62h3.98v-3.58h3.9v-4.72h4.4v-4.73h4.33v-5.65h3.9V48.92h-3.9v-5.6h-4.33V38.6h-4.4v-4.72H312V30.5h-3.98v-2.81h-5.02v-2.62h-19.34v2.62h-4.92v2.62h-4.32v3.59h-3.55v4.72h-4.58v4.72h-3.98v5.6h-4.24v34.5h4.24v5.6h3.98v4.72h4.58v4.72h3.55v3.58h4.32v2.63h4.93v2.61zm15.91-21.05h-12.56v-4.37h-3.98v-4.73h-4.67V55.2h4.67v-4.73h3.98v-4.36h12.56v4.37h4.33v4.73h4.32v21.94h-4.32v4.73h-4.33v4.37zm-11.06-1.5h9.56v-4.37h4.33v-4.73h4.32V56.7h-4.32v-4.72h-4.33V47.6h-9.56v4.36h-3.98v4.73h-4.67v18.95h4.67v4.73h3.98v4.37z"/>
  </g>
</svg>
