<svg xmlns="http://www.w3.org/2000/svg" viewBox="0 0 285.75 95.25" height="360" width="1080">
  <defs>
    <clipPath id="a">
      <path d="M0 452h610V0H0z"/>
    </clipPath>
  </defs>
  <g fill="#fff">
    <path d="M75.35 42.52c-.3 0-.53.24-.53.53v11.3h-11.3c-.29 0-.52.23-.52.53v9.1c0 .29.23.52.53.52h11.3v11.3c0 .3.23.53.52.53h9.1c.3 0 .53-.24.53-.53V64.5h11.3c.29 0 .53-.23.53-.53v-9.1c0-.29-.24-.52-.53-.52h-11.3v-11.3c0-.3-.24-.53-.53-.53z"/>
    <circle r="7.35" cy="52.24" cx="211.84"/>
    <circle r="7.35" cy="35.88" cx="230"/>
    <circle r="7.35" cy="35.68" cx="193.93"/>
    <circle r="7.35" cy="18.53" cx="213.2"/>
    <path d="M64.35 5.1A15.96 15.96 0 0 0 48.4 21.06a15.96 15.96 0 0 0 15.95 15.96 15.96 15.96 0 0 0 15.96-15.96A15.96 15.96 0 0 0 64.35 5.1zm0 2.25a13.71 13.71 0 0 1 13.71 13.71 13.71 13.71 0 0 1-13.7 13.71 13.71 13.71 0 0 1-13.72-13.7A13.71 13.71 0 0 1 64.35 7.34z"/>
    <circle r="12.21" cy="21.06" cx="64.35"/>
    <path d="M153.33 84.82c-.74 1.27-20.17 1.27-20.9 0-.74-1.27 8.98-18.1 10.44-18.1 1.47 0 11.19 16.83 10.46 18.1z"/>
  </g>
</svg>
