<svg xmlns="http://www.w3.org/2000/svg" viewBox="0 0 285.75 95.25" height="360" width="1080">
  <defs>
    <clipPath id="a">
      <path d="M0 452h610V0H0z"/>
    </clipPath>
  </defs>
  <g style="line-height:1.25;-inkscape-font-specification:Wingdings">
    <path style="-inkscape-font-specification:Wingdings" d="M142.88 77.09q12.22 0 20.82-8.6 8.64-8.64 8.64-20.86 0-12.23-8.64-20.83-8.6-8.64-20.82-8.64-12.23 0-20.87 8.64-8.6 8.6-8.6 20.82 0 12.19 8.6 20.83 8.64 8.64 20.86 8.64zm0-1.95q-11.4 0-19.47-8.05-8.05-8.08-8.05-19.46 0-11.4 8.05-19.43 8.08-8.09 19.47-8.09 11.38 0 19.42 8.09 8.09 8.04 8.09 19.43 0 11.38-8.09 19.46-8.04 8.05-19.43 8.05zm0-53.08l-3.43 6.9h1.95v17.79l-8.56 4.98-1-1.72-4.21 6.41 7.64-.47-.96-1.68 7.1-4.1v1.87h2.94v-3.58l3.06-1.75-1.47-2.55-1.6.96V28.95h1.96zm22.41 26.92h2.7v-2.7h-2.7zm-44.8 0v-2.7h-2.7v2.7zm23.74 20.98h-2.7v2.7h2.7zm18.71-32.37l2.35-1.35-1.35-2.35-2.35 1.35zM124.2 59.97l-1.35-2.35-2.35 1.35 1.35 2.35zm8.64-32.45l-1.35-2.31-2.35 1.35 1.35 2.35zm22.38 38.78l-2.35 1.35 1.35 2.35 2.35-1.35zm.04-37.43l1.35-2.3-2.35-1.36-1.35 2.3zm-22.42 38.78l-2.3-1.35-1.36 2.35 2.3 1.35zm-8.72-32.4l-2.3-1.36-1.36 2.35 2.3 1.35zm38.78 22.37l-1.35 2.35 2.35 1.35 1.35-2.35z" aria-label="¾" font-weight="400" font-size="81.54" font-family="Wingdings" letter-spacing="0" word-spacing="0" fill="#fff" stroke-width=".31"/>
  </g>
</svg>
