<svg xmlns="http://www.w3.org/2000/svg" viewBox="23.58 0 290 60" height="60" width="290">
  <g aria-label="LAST" style="line-height:3.25;-inkscape-font-specification:Erbaum" font-weight="400" font-size="29.33" font-family="Erbaum" letter-spacing="7.44" word-spacing="0" fill="#fff" stroke="none" stroke-width="5" stroke-linejoin="round" stroke-opacity="0" text-anchor="middle">
    <path d="M125.72 22.37V4.07h-2.78v20.7h13.96v-2.4zM163.3 24.78h2.85l-7.42-20.71h-4.02l-7.42 20.7h2.84l2.15-6.04h8.88zm-10.14-8.45l3.57-10.03 3.55 10.03zM182.97 25.07h5.07c3.9 0 5.63-1.61 5.63-5.31v-1.44c0-3.1-1.26-4.34-4.92-4.87l-5.26-.76c-2.64-.41-3.25-.94-3.25-2.93v-.3c0-2.43.9-3.28 3.58-3.28h3.37c2.67 0 3.58.82 3.58 3.23v.2l2.76-.35c.03-.06.03-.09.03-.24 0-3.63-1.74-5.25-5.67-5.25h-4.8c-3.94 0-5.64 1.62-5.64 5.31v1.32c0 3.08 1.3 4.32 4.96 4.84l5.22.77c2.58.38 3.26.96 3.26 2.93v.44c0 2.43-.91 3.28-3.58 3.28h-3.64c-2.67 0-3.55-.85-3.55-3.22v-.2l-2.79.34v.24c0 3.64 1.7 5.25 5.64 5.25zM221.74 4.07h-16.66v2.4H212v18.3h2.79V6.48h6.95z" style="line-height:2.25;-inkscape-font-specification:Erbaum;text-align:center"/>
  </g>
  <g aria-label="PLAYED" style="line-height:1.25;-inkscape-font-specification:'Erbaum Bold'" font-weight="700" font-size="40" font-family="Erbaum" letter-spacing="0" word-spacing="0" fill="#fff">
    <path d="M103.89 30.2h-15.4v28.53h7.2V48.8h8.2c4.8 0 7.24-2.4 7.24-7.08v-4.44c0-4.68-2.44-7.08-7.24-7.08zm.04 10.37c0 1.56-.56 2.12-2.2 2.12h-6.04v-6.36h6.04c1.64 0 2.2.52 2.2 2.12zM123.58 52.6V30.2h-7.2v28.53h19.8V52.6zM160.3 58.73h7.4l-9-28.52h-10.52l-9 28.52h7.36l1.84-6.12h10.08zm-10.04-12.28l3.2-10.56 3.16 10.56zM194.48 30.2h-8l-5.8 10.97-5.84-10.96h-8l10.2 18.8v9.72h7.24V49zM219.74 36.33V30.2H199.5v28.52h20.24V52.6H206.7v-5.4h11.36v-6.12H206.7v-4.76zM241.39 30.2H225.9v28.53h15.48c4.84 0 7.28-2.4 7.28-7.08V37.29c0-4.68-2.44-7.08-7.28-7.08zm.08 20.29c0 1.56-.56 2.12-2.24 2.12h-6.12V36.33h6.12c1.68 0 2.24.52 2.24 2.12z"/>
  </g>
</svg>
