<svg xmlns="http://www.w3.org/2000/svg" width="169.5" height="67.61" viewBox="187.96 0 169.5 67.61">
  <path fill="#fff" d="M192.7 4.1H354v60.59H192.7z"/>
  <path fill="#fff" d="M194.13 5.43h48.98v57.88h-48.98z"/>
  <path d="M265.56 28.5c0 5.62-4.4 8.44-13.23 8.44-1.53 0-3.92-.05-7.15-.13a354.04 354.04 0 0 0 0-27.62h3.29c.62 0 1.67-.02 3.14-.06s2.62-.07 3.44-.07c6 0 9 2.04 9 6.11 0 3.14-1.53 5.22-4.6 6.24v.32c1.63.27 3.06.93 4.28 2 1.22 1.07 1.83 2.66 1.83 4.77zm-6.97-11.65c0-2.53-1.52-3.8-4.55-3.8-1.4 0-2.64.1-3.72.32.15 1.43.22 3.88.22 7.36a30 30 0 0 0 1.63.04c4.28 0 6.42-1.3 6.42-3.92zm1.49 11.88c0-2.82-2.37-4.22-7.1-4.22-.93 0-1.74.03-2.42.1 0 2.96.06 5.68.19 8.17a9.3 9.3 0 0 0 2.07.17c2.5 0 4.34-.31 5.5-.94s1.75-1.73 1.75-3.28zM290.44 28.5c0 5.62-4.4 8.44-13.23 8.44-1.53 0-3.92-.05-7.15-.13a354.17 354.17 0 0 0 0-27.62h3.29c.62 0 1.67-.02 3.14-.06 1.47-.04 2.62-.07 3.44-.07 6 0 9 2.04 9 6.11 0 3.14-1.53 5.22-4.6 6.24v.32c1.63.27 3.06.93 4.28 2 1.22 1.07 1.83 2.66 1.83 4.77zm-6.97-11.65c0-2.53-1.52-3.8-4.55-3.8-1.4 0-2.64.1-3.72.32.15 1.43.22 3.88.22 7.36a30 30 0 0 0 1.63.04c4.28 0 6.42-1.3 6.42-3.92zm1.48 11.88c0-2.82-2.36-4.22-7.09-4.22-.93 0-1.74.03-2.42.1 0 2.96.06 5.68.19 8.17a9.3 9.3 0 0 0 2.07.17c2.5 0 4.34-.31 5.5-.94s1.75-1.73 1.75-3.28zM313.88 31.78l-.35 4.88c-1.92.48-3.82.72-5.69.72-4.65 0-8.19-1.34-10.62-4.02a14.01 14.01 0 0 1-3.65-9.77c0-3.97 1.3-7.43 3.87-10.37 2.59-2.94 6.13-4.41 10.62-4.41 1.66 0 3.22.2 4.7.6l-.71 4.9a14.4 14.4 0 0 0-4.6-.81c-2.75 0-4.8.9-6.13 2.72a10.85 10.85 0 0 0-2.02 6.63c0 2.66.8 4.97 2.4 6.92 1.58 1.95 3.82 2.92 6.69 2.92 1.68 0 3.5-.3 5.49-.9zM250.92 50.96l-3.2-9.1c0-.03-.05-.07-.12-.07s-.16.05-.16.13v9.04h-1.49V41h2.75l2.8 7.74c.03.08.09.12.16.12.1 0 .2-.06.21-.14L254.6 41h2.78v9.96h-1.49v-8.98c0-.08-.07-.12-.12-.12-.08 0-.15.02-.18.1l-3.16 9h-1.5zM261.06 50.08h1.1v-8.17h-1.1v-.9h4.14v.9h-1.16v8.17h1.16v.88h-4.14v-.88zM274.42 43.9c-.14-.97-.75-1.84-2.19-1.84-1.3 0-1.86.77-2.15 1.3-.48.9-.54 2.28-.54 2.4 0 2.18.52 4.3 2.7 4.3a2.2 2.2 0 0 0 1.73-.75c.36-.46.43-1.03.47-1.36l1.8.24a3.16 3.16 0 0 1-1.24 2.24c-1.13.86-2.43.86-2.93.86-1.08 0-4.32-.42-4.32-5.21 0-2.3.77-5.2 4.48-5.2.85 0 1.94.19 2.75.81.9.7 1.07 1.48 1.16 1.96l-1.72.24zM279.73 41h4.05c3.68 0 4.47 1.68 4.47 2.7 0 1.87-1.63 2.38-2.82 2.66l3.45 4.6h-2.15l-3.12-4.42h-2.03v4.42h-1.85V41zm1.83 1.17v3.3c1 .01 2.3.01 2.98-.1.72-.12 1.84-.4 1.84-1.52 0-1.17-1.03-1.68-3-1.68h-1.82zM298.96 43.27c.4.88.5 2.05.5 2.74 0 2.38-.88 5.25-4.43 5.25-3.23 0-4.45-2.45-4.45-5.11 0-1.52.33-2.9 1.08-3.82a4.03 4.03 0 0 1 3.37-1.48c2.23 0 3.4 1.22 3.93 2.42zm-3.9-1.22c-1.12 0-1.82.6-2.2 1.53a6.8 6.8 0 0 0-.4 2.52c0 1.27.24 3.93 2.54 3.93 1.86 0 2.58-1.46 2.58-3.98 0-1.32-.16-4-2.51-4z"/>
  <circle cx="199.29" cy="10.04" r="1.86"/>
  <circle cx="204.2" cy="10.04" r="1.86"/>
  <circle cx="209.12" cy="10.04" r="1.86"/>
  <circle cx="214.04" cy="10.04" r="1.86"/>
  <circle cx="218.96" cy="10.04" r="1.86"/>
  <circle cx="223.87" cy="10.04" r="1.86"/>
  <circle cx="228.79" cy="10.04" r="1.86"/>
  <circle cx="233.71" cy="10.04" r="1.86"/>
  <circle cx="238.62" cy="10.04" r="1.86"/>
  <circle cx="201.71" cy="12.85" r="1.86"/>
  <circle cx="216.47" cy="12.85" r="1.86"/>
  <circle cx="221.38" cy="12.85" r="1.86"/>
  <circle cx="236.13" cy="12.85" r="1.86"/>
  <circle cx="199.29" cy="15.58" r="1.86"/>
  <circle cx="209.12" cy="15.58" r="1.86"/>
  <circle cx="218.96" cy="15.58" r="1.86"/>
  <circle cx="228.79" cy="15.58" r="1.86"/>
  <circle cx="238.62" cy="15.58" r="1.86"/>
  <circle cx="206.63" cy="18.4" r="1.86"/>
  <circle cx="211.55" cy="18.4" r="1.86"/>
  <circle cx="226.3" cy="18.4" r="1.86"/>
  <circle cx="231.22" cy="18.4" r="1.86"/>
  <circle cx="199.29" cy="21" r="1.86"/>
  <circle cx="209.12" cy="21" r="1.86"/>
  <circle cx="228.79" cy="21" r="1.86"/>
  <circle cx="238.62" cy="21" r="1.86"/>
  <circle cx="201.71" cy="23.82" r="1.86"/>
  <circle cx="216.47" cy="23.82" r="1.86"/>
  <circle cx="221.38" cy="23.82" r="1.86"/>
  <circle cx="236.13" cy="23.82" r="1.86"/>
  <circle cx="199.29" cy="26.54" r="1.86"/>
  <circle cx="204.2" cy="26.54" r="1.86"/>
  <circle cx="218.96" cy="26.54" r="1.86"/>
  <circle cx="233.71" cy="26.54" r="1.86"/>
  <circle cx="238.62" cy="26.54" r="1.86"/>
  <circle cx="201.71" cy="29.36" r="1.86"/>
  <circle cx="206.63" cy="29.36" r="1.86"/>
  <circle cx="211.55" cy="29.36" r="1.86"/>
  <circle cx="216.47" cy="29.36" r="1.86"/>
  <circle cx="221.38" cy="29.36" r="1.86"/>
  <circle cx="226.3" cy="29.36" r="1.86"/>
  <circle cx="231.22" cy="29.36" r="1.86"/>
  <circle cx="199.29" cy="32.22" r="1.86"/>
  <circle cx="204.2" cy="32.22" r="1.86"/>
  <circle cx="209.12" cy="32.22" r="1.86"/>
  <circle cx="214.04" cy="32.22" r="1.86"/>
  <circle cx="218.96" cy="32.22" r="1.86"/>
  <circle cx="238.62" cy="32.22" r="1.86"/>
  <circle cx="201.71" cy="35.04" r="1.86"/>
  <circle cx="206.63" cy="35.04" r="1.86"/>
  <circle cx="211.55" cy="35.04" r="1.86"/>
  <circle cx="216.47" cy="35.04" r="1.86"/>
  <circle cx="221.38" cy="35.04" r="1.86"/>
  <circle cx="204.2" cy="37.77" r="1.86"/>
  <circle cx="209.12" cy="37.77" r="1.86"/>
  <circle cx="214.04" cy="37.77" r="1.86"/>
  <circle cx="218.96" cy="37.77" r="1.86"/>
  <circle cx="238.62" cy="37.77" r="1.86"/>
  <circle cx="206.63" cy="40.58" r="1.86"/>
  <circle cx="211.55" cy="40.58" r="1.86"/>
  <circle cx="216.47" cy="40.58" r="1.86"/>
  <circle cx="221.38" cy="40.58" r="1.86"/>
  <circle cx="209.12" cy="43.18" r="1.86"/>
  <circle cx="214.04" cy="43.18" r="1.86"/>
  <circle cx="218.96" cy="43.18" r="1.86"/>
  <circle cx="223.87" cy="43.18" r="1.86"/>
  <circle cx="238.62" cy="43.18" r="1.86"/>
  <circle cx="211.55" cy="46" r="1.86"/>
  <circle cx="216.47" cy="46" r="1.86"/>
  <circle cx="221.38" cy="46" r="1.86"/>
  <circle cx="226.3" cy="46" r="1.86"/>
  <circle cx="214.04" cy="48.73" r="1.86"/>
  <circle cx="218.96" cy="48.73" r="1.86"/>
  <circle cx="223.87" cy="48.73" r="1.86"/>
  <circle cx="228.79" cy="48.73" r="1.86"/>
  <circle cx="238.62" cy="48.73" r="1.86"/>
  <circle cx="216.47" cy="51.54" r="1.86"/>
  <circle cx="226.3" cy="51.54" r="1.86"/>
  <circle cx="231.22" cy="51.54" r="1.86"/>
  <circle cx="214.04" cy="54.28" r="1.86"/>
  <circle cx="223.87" cy="54.28" r="1.86"/>
  <circle cx="233.71" cy="54.28" r="1.86"/>
  <circle cx="238.62" cy="54.28" r="1.86"/>
  <circle cx="201.71" cy="57.1" r="1.86"/>
  <circle cx="206.63" cy="57.1" r="1.86"/>
  <circle cx="211.55" cy="57.1" r="1.86"/>
  <circle cx="216.47" cy="57.1" r="1.86"/>
  <circle cx="221.38" cy="57.1" r="1.86"/>
  <circle cx="226.3" cy="57.1" r="1.86"/>
  <circle cx="236.13" cy="57.1" r="1.86"/>
  <circle cx="238.62" cy="59.83" r="1.86"/>
</svg>
