<svg xmlns="http://www.w3.org/2000/svg" width="566.92" height="121.75">
  <path d="M207.01 5.28c4.73-6.05 14.5-7.08 20.3-2 2.37 1.99 4.03 4.74 4.88 7.7 10.73 36.93 21.5 73.83 32.22 110.75h-19c-2.98-10.17-5.9-20.37-8.85-30.56-12.24-.02-24.48 0-36.73-.01-3 10.18-5.96 20.38-8.9 30.58-6.3-.02-12.6 0-18.9 0 10.2-35.23 20.4-70.45 30.65-105.66 1.22-3.68 1.68-7.8 4.33-10.8M218.2 27.9c-4.49 15.3-8.89 30.62-13.35 45.92 8.9.05 17.8.02 26.7.02-4.46-15.31-8.9-30.63-13.35-45.94zM340.41 6.07c3.3-4.79 9.68-7.1 15.3-5.63 5.14 1.18 9.07 5.62 10.43 10.6 10.72 36.9 21.48 73.78 32.2 110.67-6.35.05-12.68 0-19.02.03-2.95-10.2-5.87-20.4-8.84-30.58-12.22 0-24.45-.02-36.67.01-2.92 10.2-5.94 20.37-8.86 30.56h-18.87c10.19-35.4 20.5-70.79 30.77-106.18 1.07-3.2 1.49-6.72 3.56-9.48m-1.54 67.77h26.58c-4.4-15.34-8.89-30.66-13.28-46-4.43 15.33-8.9 30.65-13.3 46zM250.24.26h68.72v18.53h-25.3v102.94h-18.13V18.8h-25.3V.26zM418.48 1.01c1.74-.6 3.6-.8 5.43-.76 7.22.02 14.45 0 21.67 0 12.16.23 23.77 7.78 29.03 18.73 3.65 7.1 4.03 15.37 3.1 23.17-.63 8.16-4.05 16.33-10.33 21.74-3.31 2.95-7.44 4.74-10.99 7.38-1.95 1.48-2.05 4.36-1.04 6.42 9.59 14.8 19.55 29.37 29.34 44.04-7.16.01-14.32-.01-21.47.01-9.37-14.07-18.65-28.21-27.98-42.3a15.65 15.65 0 0 1-1.85-13.91c1.29-3.51 4.35-6.08 7.77-7.4 6.53-2.5 12.96-6.4 16.57-12.57 2.75-4.62 2.61-10.33 1.37-15.4-1.45-6.57-7.85-11.74-14.62-11.52-4.68.04-9.36-.02-14.03.03-2.12-.05-4.11 1.79-4.08 3.93-.03 33.05 0 66.1-.01 99.14H408.1c-.01-35.58.01-71.16-.01-106.73.04-6.24 4.47-12.1 10.39-14zM494.26.26h19.21c0 40.5.01 80.98-.01 121.48-6.4-.02-12.8 0-19.2 0V.25zM54.17 0h9.23c.02 7.23 0 14.47 0 21.7.04 6.04-.13 12.08-.38 18.1-.41 8.72-.96 17.45-2.4 26.06a66.27 66.27 0 0 1-5.6 17.1c-4.15 8.76-10.68 16.17-18.02 22.4-6.57 5.78-14.4 9.99-22.65 12.84A77.4 77.4 0 0 1 0 121.73v-18.2a53.4 53.4 0 0 0 16.8-5.73 60.62 60.62 0 0 0 16.56-12.96 69.01 69.01 0 0 0 11.71-18.27c3.47-7.62 5.33-15.86 6.6-24.1a250.8 250.8 0 0 0 2.49-31.7c.03-3.58 0-7.17.01-10.76zM67.12.02C72.78-.02 78.44.02 84.1 0v121.73c-5.65.01-11.3-.03-16.95.02-.08-12.94-.01-25.88-.03-38.81L67.11.02zM87.89 0h9.17c-.1 12.38.33 24.77 1.8 37.06 1.2 9.55 2.91 19.17 6.71 28.06 3.6 8.6 8.8 16.6 15.57 23.05a59.61 59.61 0 0 0 22.82 13.64c2.37.76 4.8 1.35 7.27 1.71v18.2a76.18 76.18 0 0 1-14.24-3.49 72.5 72.5 0 0 1-15.74-7.59 74.29 74.29 0 0 1-9.95-7.92 67.87 67.87 0 0 1-13.22-16.26 71.24 71.24 0 0 1-6.23-15.14c-1.42-5.27-2.03-10.72-2.58-16.14a363.42 363.42 0 0 1-1.38-35.23V0z"/>
  <path d="M54.17 0c0 3.6.02 7.19-.01 10.78-.25 10.6-.9 21.2-2.5 31.68-1.26 8.25-3.12 16.49-6.59 24.11a68.95 68.95 0 0 1-11.71 18.27A60.56 60.56 0 0 1 16.79 97.8 53.3 53.3 0 0 1 0 103.53v18.2a77.4 77.4 0 0 0 14.35-3.53c8.24-2.85 16.08-7.06 22.65-12.84 7.34-6.23 13.87-13.64 18.03-22.4a66.3 66.3 0 0 0 5.59-17.1c1.44-8.61 1.99-17.34 2.4-26.05.25-6.03.42-12.07.39-18.1V0h-9.24M67.12.02c.02 27.64 0 55.27 0 82.92.03 12.93-.04 25.87.04 38.81 5.65-.05 11.3-.01 16.95-.02V0c-5.67.01-11.33-.02-17 .02M87.89 0v19.95a363.4 363.4 0 0 0 1.38 35.23c.55 5.42 1.16 10.87 2.58 16.14a71.26 71.26 0 0 0 6.23 15.14 67.87 67.87 0 0 0 13.22 16.26 74.12 74.12 0 0 0 9.95 7.92 72.41 72.41 0 0 0 15.74 7.6 76.18 76.18 0 0 0 14.24 3.47v-18.19c-2.47-.36-4.9-.95-7.27-1.71a59.6 59.6 0 0 1-22.82-13.64c-6.77-6.45-11.96-14.44-15.57-23.05-3.8-8.9-5.5-18.51-6.7-28.06-1.48-12.29-1.9-24.68-1.8-37.06h-9.18M562.21 99.3h3.97v22.45l-18.67-15.21c-1.75-1.43-3.92-3.1-6.23-3.1-3.64 0-6.64 3.24-6.64 6.83a6.79 6.79 0 0 0 6.36 6.69v4.33c-6.17-.69-10.32-4.7-10.32-11.02 0-5.9 4.38-10.97 10.42-10.97 2.58 0 5.16.97 7.14 2.58l13.97 11.43v-14zM532.8 79.43l12.54 9.27.1-.1a7.59 7.59 0 0 1-.84-3.4c0-5.72 5.3-10.05 10.88-10.05 6.36 0 11.44 5.16 11.44 11.47 0 6-4.98 11.58-11.11 11.58-3.5 0-6.46-1.76-9.18-3.78l-15.95-11.85 2.12-3.14zm23.14-.14a7.54 7.54 0 0 0-7.47 7.38c0 3.78 3.46 7.38 7.24 7.38a7.45 7.45 0 0 0 7.33-7.38c0-3.88-3.22-7.38-7.1-7.38zM530.68 56.26c0 9.95 8.16 18.05 18.2 18.05 9.95 0 18.04-8.1 18.04-18.05a18 18 0 0 0-18.12-18.27 18 18 0 0 0-18.12 18.27zm18.2-14c7.85 0 14 6.24 14 14.22 0 7.48-6.28 13.56-14 13.56-7.8 0-14.15-6.08-14.15-13.56 0-8.11 6.08-14.22 14.15-14.22zM530.68 18.3c0 9.95 8.16 18.05 18.2 18.05 9.95 0 18.04-8.1 18.04-18.05A18 18 0 0 0 548.8.03a18 18 0 0 0-18.12 18.27zm18.2-14c7.85 0 14 6.24 14 14.22 0 7.48-6.28 13.56-14 13.56-7.8 0-14.15-6.08-14.15-13.56 0-8.1 6.08-14.22 14.15-14.22z"/>
  <path d="M.33 112.6v-8.92l1.29-.27c.7-.15 3.28-.88 5.73-1.63 18.52-5.66 34.04-21.95 40.67-42.7 3.83-12 6.13-30.75 6.14-50.1V.2h9l-.23 23.53c-.36 34.95-1.7 45.27-7.61 58.24-5.36 11.75-16.77 23.74-29.43 30.94-6 3.41-16.65 7.16-23.57 8.3l-2 .33zM67.27 60.83V.2h16.86v121.25H67.27zM145.6 120.5c-15-3.38-26.75-10.05-37.63-21.35C96.26 86.98 91.21 74.63 89.3 53.5c-.8-8.72-1.4-26.26-1.42-40.3V.2h8.77l.32 10.42c1.19 38.28 6.1 56.5 19.71 72.91a60.22 60.22 0 0 0 31 19.4l3.39.84v8.84c0 10.16.62 9.27-5.47 7.9zM172.6 121.02c0-.24 7.3-25.58 16.2-56.3 12.75-44.01 16.49-56.33 17.61-58.1 3.26-5.12 10.1-7.56 16-5.7 3.06.95 6.32 3.6 7.98 6.47.83 1.45 31.07 103.88 33.29 112.79l.32 1.3-9.25-.13-9.26-.13-3.6-12.4c-1.97-6.83-3.95-13.63-4.38-15.1l-.8-2.7-18.57.12-18.57.12-3.89 13.34c-2.14 7.34-4.1 14.13-4.37 15.1l-.48 1.75h-9.11c-5.33 0-9.11-.18-9.11-.43zm59-47.32c0-.35-9.68-34.05-12.96-45.13-.21-.72-.34-.76-.63-.24-.52.94-13.1 44.3-13.1 45.14 0 .6 1.8.7 13.34.7 8.71 0 13.34-.16 13.34-.47zM275.6 69.96v-51.5h-25.28V.67h68.35v17.8h-25.28V121.45h-17.8zM306.67 120.64l4.28-14.87C326.77 50.8 339 9.13 339.73 7.72c.47-.92 1.67-2.43 2.66-3.37 6.8-6.46 17.2-5.01 21.9 3.04.93 1.6 33.5 112.08 33.5 113.64 0 .27-3.7.4-9.2.32l-9.2-.13-4.32-14.98-4.32-14.98-18.54-.12-18.53-.13-.95 3.17c-.53 1.74-2.5 8.54-4.4 15.1l-3.45 11.94-9.23.13c-8.64.12-9.2.07-8.98-.7zm58.81-46.98c0-.74-12.66-44.54-13.1-45.34-.26-.46-.68.36-1.33 2.57-4.81 16.44-12.25 42.45-12.25 42.82 0 .3 4.86.46 13.34.46 9.28 0 13.34-.15 13.34-.5zM408.4 111.27c-.16-5.6-.24-30.2-.19-54.65l.1-44.48 1.25-2.64a17.31 17.31 0 0 1 7.05-7.52C418.57.93 419 .9 433.96.77c17.58-.17 18.4-.05 25.58 3.48 7.86 3.86 13.8 10.83 16.83 19.75 1.14 3.37 1.21 4.12 1.17 12.02-.05 9.56-.72 13.08-3.6 18.81-2.75 5.45-5.33 8.15-11.95 12.5-3.28 2.16-6.26 4.3-6.64 4.75-.39.47-.69 1.78-.69 3 0 2.09.66 3.18 14.52 23.89a2033.21 2033.21 0 0 1 14.66 22.09c.09.22-4.5.4-10.2.4H463.3l-13.86-20.96c-7.63-11.52-14.4-21.96-15.05-23.2-1.73-3.3-1.97-8.6-.55-11.92 1.46-3.4 3.7-5.22 10.38-8.44 7.25-3.5 11.7-7.34 14.07-12.17 1.47-2.99 1.53-3.34 1.5-8.51-.02-6.76-1.06-9.8-4.49-13.24-3.92-3.92-5.27-4.3-15.78-4.48-9.84-.16-10.85-.05-12.25 1.34-.9.9-.92 1.76-.92 51.25v50.32H408.7zM494.69 61.06V.67H513.42v120.78H494.68zM544.32 73.42c-8.9-2.4-14.81-11.54-13.13-20.32 2.26-11.76 14.56-18.14 25.25-13.09 5.2 2.46 8.73 7.1 9.89 12.97 1.85 9.4-4.39 18.63-13.96 20.66-3.18.68-4.88.63-8.05-.22zm10.53-4.58c3.21-1.47 4.95-3.05 6.57-5.98 1.23-2.22 1.38-2.95 1.38-6.48 0-3.2-.2-4.4-1.06-6.14-3.46-7.02-11.9-10.1-18.86-6.87-8.69 4.03-11.09 14.91-4.83 21.88 4.5 5 10.77 6.34 16.8 3.59zM545.27 35.74a17.82 17.82 0 0 1-9.54-5.58 17.67 17.67 0 0 1 5.46-28.12c8.57-4 18.82-.74 23.13 7.38 5.69 10.72.33 23.07-11.33 26.1-3.05.8-4.55.84-7.72.22zm9.62-4.86c8.2-3.65 10.66-13.9 5.13-21.39-3.62-4.9-11.35-6.74-17.14-4.06-8.68 4-11.09 14.93-4.83 21.9 2.55 2.82 4.81 4.1 8.24 4.62 3.29.51 5.72.2 8.6-1.07zM552.46 97.4a20.7 20.7 0 0 1-4.22-2.18c-4.35-2.97-17.04-12.64-17.03-12.98.01-.2.38-.82.83-1.4l.81-1.06 6.04 4.45c3.31 2.45 6.19 4.45 6.38 4.45.2 0 .13-.75-.15-1.67-1.11-3.6 1.28-8.24 5.3-10.27 8.31-4.22 17.96 3.15 15.94 12.18-1.44 6.43-7.98 10.42-13.9 8.49zm7.24-4.38a7.63 7.63 0 0 0 3.34-6.44c0-8.72-12.17-10.16-14.5-1.72-.88 3.2 1.2 7.35 4.41 8.8 1.85.85 5.17.53 6.75-.64zM537.29 120.01c-5.2-2.36-7.47-7.34-5.87-12.85 1.85-6.37 8.7-9.42 14.46-6.46.81.42 4.78 3.47 8.82 6.78 4.04 3.3 7.47 6.02 7.61 6.02.14 0 .26-3.16.26-7.03v-7.02h3.28v10.83c0 8.59-.12 10.73-.59 10.36l-9.91-8.04c-10.48-8.53-12.22-9.62-14.84-9.27-6.86.92-8.2 10.6-1.82 13.15 1.75.7 1.88.88 1.88 2.63 0 2.17-.3 2.25-3.28.9z" fill="#fff"/>
</svg>
