<svg xmlns="http://www.w3.org/2000/svg" version="1.2" width="598.19" height="350.26">
  <path d="M160.63 170.67c0 31.52 6.47 36.66 6.47 36.66h12.1c1.83 27.54 13.78 27.54 24.06 27.54h304.58c17.25 0 21.56-7.8 22.23-13.94.66-6.14 1.82-27.87 1.82-46.61v-24.06c0-18.74-1.16-40.47-1.82-46.61-.67-6.14-4.98-13.94-22.23-13.94H203.26c-10.28 0-22.23 0-24.05 27.54H167.1s-6.47 5.14-6.47 36.66zM160.63 145.18c-1.33-2.22-7.74-3.32-12.17-4.65a39.07 39.07 0 0 1-25.88-26.54c-5.75-19.24-1.77-23.67-15.04-26.54-.88-.45-2.1.44-3.43 6.74-1.32 6.3-13.16 82.4-2.32 121.77 1.33 2.65 7.3 5.53 18.36-2 11.06-7.52 5.09-21.9 23.67-29.41 3.1-1.1 14.37.22 16.8-4.43" fill="none" stroke="#fff" stroke-width="6.34"/>
  <path d="M104.67 91.43c-.89-3.1-1.55-4.43-5.75-1.55-4.2 2.87-24.33 23.67-31.63 67.02-7.3 43.35 27.42 63.48 37.6 61.93" fill="none" stroke="#fff" stroke-width="6.34"/>
</svg>
