<svg xmlns="http://www.w3.org/2000/svg" width="568.93" height="116.14" viewBox="-1 -1 568.93 116.14">
  <path d="M483.84 9.47c11.22.1 29.63.34 43.3 1.6 13.67 1.26 22.6 3.55 27.15 6.18 4.55 2.63 4.72 5.61 5.44 10.37.72 4.77 2.03 11.53 2.2 21.89.17 10.35-.77 24.4-1.54 32.36-.76 7.97-1.35 9.86-2.5 11.8a13.24 13.24 0 0 1-5.7 5.35c-2.84 1.39-6.79 2.15-13.08 3.22a224.37 224.37 0 0 1-25.2 3c-10.3.6-22.28.42-31.96-.05a199.94 199.94 0 0 1-23.42-2.3c-6.37-1.07-11.72-2.43-15.03-3.78-3.3-1.35-4.55-2.69-5.67-4.47-1.12-1.78-2.14-4.06-2.93-10.24-.8-6.17-1.38-16.28-1.5-26.46-.13-10.18.2-20.45 1.14-27.06.94-6.62 2.49-9.58 3.92-11.66a12.55 12.55 0 0 1 4.78-4.37c2-1.06 4.68-1.98 8.35-2.86 3.67-.87 8.35-1.71 12.7-2.15 4.33-.43 8.34-.47 19.55-.37z" fill="#fff" stroke="#fff"/>
  <path d="M485.8 107.25c-15.82 0-31.14-2.53-38.52-4.05-3.8-.78-7.37-2.1-10.22-5.02-2.84-2.91-4.77-7.22-5.8-13.58-1.07-6.54-1.7-19.05-1.7-31.32.02-11.65.55-22.88 1.98-28.65a17.84 17.84 0 0 1 4.15-8.03c2.15-2.32 5.1-4.16 9.05-5.58 7.9-2.83 19.89-4.12 38.8-4.13h26c14.19 0 24.48.74 32.07 2.3 7.57 1.54 12.55 3.93 15.78 7.4a17.83 17.83 0 0 1 4.16 8.04c1.42 5.77 1.95 17 1.97 28.65 0 12.27-.63 24.78-1.69 31.32-1.04 6.36-2.97 10.67-5.81 13.58-2.84 2.92-6.42 4.23-10.22 5.01-7.37 1.53-22.7 4.06-38.52 4.06v-3.76c15.42 0 30.58-2.5 37.76-3.98 3.48-.72 6.17-1.8 8.28-3.96 2.12-2.16 3.82-5.63 4.8-11.56 1-6.08 1.64-18.6 1.63-30.7.01-11.48-.6-22.78-1.85-27.75a14.05 14.05 0 0 0-3.27-6.38c-1.65-1.78-4-3.32-7.56-4.6-7.08-2.56-18.8-3.91-37.53-3.9h-26c-14.05 0-24.15.74-31.31 2.2-7.19 1.48-11.32 3.64-13.78 6.3a14.05 14.05 0 0 0-3.26 6.38c-1.27 4.97-1.88 16.27-1.86 27.74 0 12.1.64 24.63 1.64 30.71.97 5.93 2.67 9.4 4.79 11.56 2.11 2.17 4.8 3.24 8.28 3.96 7.18 1.49 22.34 3.98 37.76 3.98h21.48v3.76z" fill="#fff"/>
  <path fill="#ba2025" d="M492.72 49.99V34.3h26.1V17.5l-44.8.12v79.03h18.7V66.67h26.34V49.99z"/>
  <path d="M123.26 84.1V20.88H105.2v27.84H83.38V20.88H64.56v73h18.82V66.03h22.57v27.85h32.36c7.86-15.04 8.05-15.6 15.06-27.85 5.15.07 9.8-.05 14.3 0v27.85h18.8v-73h-28.6c-12.25 20.35-22.17 43.05-34.6 63.22zm42.33-45.6h2.26v9.78h-6.02c1.34-3.17 2.53-5.76 3.76-9.77zM3.6 53.25l-.19 4.4.19 4.63c3.3 23.75 26.62 39.41 53.43 30.1V69.8c-3.78 2.85-7.9 7.43-15.8 7.52-27.36.33-23.62-38.1-.76-38.38 8.21-.1 11.35 2.8 16.56 8.28V23.89C31.56 12.9 6.45 29.63 3.6 53.24zm233.3 5.27c-10.5-13.8-17.9-24.59-28.6-37.63h-15.8v73h18.82V57c11.02 10.8 17.55 26.1 28.6 36.88h15.8v-73H236.9v37.63zm158.8 19.57v-57.2h-18.82v73h39.89v-15.8zm-65.47 15.8h41.39V77.32h-21.83V66.8h21.83V48.72h-21.83V38.2h21.83V20.9h-41.4v73zm-24.84-35.37c-11.38-14.3-17.52-23.33-28.6-37.63h-15.8v73h18.8V57c10.96 12.8 17.6 23.72 28.6 36.88h15.81v-73H305.4z" fill="#fff"/>
</svg>
