<svg xmlns="http://www.w3.org/2000/svg" width="568.93" height="116.14" viewBox="-1 -1 568.93 116.14">
  <path d="M533.06 31.85l-.23-.13H348.34L329.32-1h-90.95l-19.02 32.72H34.1L-1 51.6v43.66l34.88 19.76.23.13h498.72l34.84-19.75.26-.14V51.6z"/>
  <path fill="#CED1DD" d="M0 52.19v42.49l34.37 19.46h498.19l34.37-19.46V52.19l-34.37-19.47h-184.8L328.75 0h-89.8l-19.02 32.72H34.37z"/>
  <linearGradient id="a" gradientUnits="userSpaceOnUse" x1="308.14" y1="1410.96" x2="308.14" y2="1515.98" gradientTransform="translate(-24.42 -1406.4)">
    <stop offset="0" stop-color="#d9dde9"/>
    <stop offset=".39" stop-color="#777489"/>
    <stop offset=".98" stop-color="#d9dde9"/>
  </linearGradient>
  <path fill="url(#a)" d="M344.72 37.29L325.7 4.56h-83.96L222.72 37.3H36.78L4.56 55.36v36.15l32.22 18.07h493.88l32.21-18.07V55.36l-32.2-18.07H344.71z"/>
  <path fill="#202066" d="M309.46 13.47l-7.13 21.72h3.52L313 14.23c.26-.96 1.04-1.66 1.96-1.66.93 0 1.71.7 1.97 1.66l6.04 17.74h-9.48v3.23h14.11l-7.13-21.72a5.73 5.73 0 0 0-11.01 0zm4.18 13.5l1.25-3.72 1.3 3.71h-2.55zm-.52-10.65l-6.39 18.88h4.12l2.64-7.83v3.7h8.3l-4.93-14.75c-.25-.82-1-3.18-1.87-3.18-.88 0-1.63 2.36-1.87 3.18zm-22.55-2.88h12.35V9.9h-12.64a6.18 6.18 0 0 0-6.17 6.18v12.93c0 3.41 2.76 6.18 6.17 6.18h12.64V18.73h-10v3.23h6.46v9.7h-8.8a2.93 2.93 0 0 1-2.94-2.94V16.37c0-1.62 1.3-2.93 2.93-2.93zm2.35 9.4v3.54h2.06v.88h-2.06a.88.88 0 0 1-.88-.89v-7.64c0-.49.4-.89.88-.89h10v-3.52h-11.47a2.94 2.94 0 0 0-2.94 2.94v10.58a2.94 2.94 0 0 0 2.94 2.94h7.06v-7.94h-5.59zm-22.63-9.4h12.35V9.9h-12.65a6.18 6.18 0 0 0-6.17 6.18v12.79c0 3.4 2.77 6.18 6.17 6.18h12.65v-3.53h-12.35a2.94 2.94 0 0 1-2.94-2.94V16.38a2.94 2.94 0 0 1 2.94-2.94zm9.7 8.52v-3.23h-8.23c0-.49.4-.89.88-.89h10v-3.52h-11.47a2.94 2.94 0 0 0-2.93 2.94v4.7h11.75zm0 1.18v3.23h-8.23c0 .49.4.89.88.89h10v3.52h-11.47a2.94 2.94 0 0 1-2.93-2.94v-4.7h11.75zm-30.2 4.4h-7.42v3.24h11.46a3.97 3.97 0 0 0-.14-7.94h-4.46a5.09 5.09 0 0 1-3.34-4.56c0-2.68 2.47-4.85 5.15-4.85h11.03V9.91H250.6a8.23 8.23 0 0 0-8.23 8.23c0 4.55 3.98 8.23 8.52 8.23v-.03l.03.03h2.62a.59.59 0 0 1 0 1.18h-3.76zm4.86-9.99h7.42v-3.23H250.6a3.97 3.97 0 0 0 .15 7.94h4.46c1.8.7 3.33 2.47 3.33 4.56 0 2.68-2.47 4.85-5.15 4.85h-11.02v3.53h11.46a8.23 8.23 0 0 0 8.24-8.24c0-4.54-3.98-8.23-8.53-8.23v.05l-.02-.05h-2.62a.59.59 0 0 1 0-1.17h3.75z"/>
  <linearGradient id="b" gradientUnits="userSpaceOnUse" x1="220.79" y1="1450.03" x2="270.31" y2="1499.54" gradientTransform="translate(-24.42 -1406.4)">
    <stop offset="0" stop-color="#d9dde9"/>
    <stop offset=".39" stop-color="#777489"/>
    <stop offset=".98" stop-color="#d9dde9"/>
  </linearGradient>
  <path fill="url(#b)" d="M260.67 47.43v52.18H243.1V80.33l-33.67-19.16v38.44h-17.57V47.43h18.3l32.94 18.74V47.43z"/>
  <linearGradient id="c" gradientUnits="userSpaceOnUse" x1="221.69" y1="1450.8" x2="269.72" y2="1498.84" gradientTransform="translate(-24.42 -1406.4)">
    <stop offset="0"/>
    <stop offset=".11" stop-color="#181c4e"/>
    <stop offset=".22" stop-color="#181818"/>
    <stop offset=".34" stop-color="#181c4e"/>
    <stop offset=".47"/>
    <stop offset=".59" stop-color="#181c4e"/>
    <stop offset=".72"/>
    <stop offset=".84" stop-color="#181c4e"/>
    <stop offset=".98"/>
  </linearGradient>
  <path fill="url(#c)" d="M259.7 48.16v50.49h-17.07V79.99L209.9 61.46v37.2h-17.07v-50.5h17.78l32.02 18.14V48.16z"/>
  <linearGradient id="d" gradientUnits="userSpaceOnUse" x1="449.51" y1="1461.43" x2="499.75" y2="1514.88" gradientTransform="translate(-24.42 -1406.4)">
    <stop offset="0" stop-color="#d9dde9"/>
    <stop offset=".39" stop-color="#777489"/>
    <stop offset=".98" stop-color="#d9dde9"/>
  </linearGradient>
  <path fill="url(#d)" d="M433.25 47.18h18.26v52.51h-18.26z"/>
  <linearGradient id="e" gradientUnits="userSpaceOnUse" x1="450.21" y1="1462.18" x2="498.42" y2="1513.46" gradientTransform="translate(-24.42 -1406.4)">
    <stop offset="0"/>
    <stop offset=".11" stop-color="#181c4e"/>
    <stop offset=".22" stop-color="#181818"/>
    <stop offset=".34" stop-color="#181c4e"/>
    <stop offset=".47"/>
    <stop offset=".59" stop-color="#181c4e"/>
    <stop offset=".72"/>
    <stop offset=".84" stop-color="#181c4e"/>
    <stop offset=".98"/>
  </linearGradient>
  <path fill="url(#e)" d="M433.72 48.16h17.33v50.56h-17.33z"/>
  <g>
    <linearGradient id="f" gradientUnits="userSpaceOnUse" x1="300.5" y1="1450.36" x2="350.31" y2="1500.17" gradientTransform="translate(-24.42 -1406.4)">
      <stop offset="0" stop-color="#d9dde9"/>
      <stop offset=".39" stop-color="#777489"/>
      <stop offset=".98" stop-color="#d9dde9"/>
    </linearGradient>
    <path fill="url(#f)" d="M320.92 57.68h-30v10.5h36l-17.25 10.5h-18.75v10.5h48.75l-17.25 10.5h-49.5v-40.5l18-12h47.25z"/>
    <linearGradient id="g" gradientUnits="userSpaceOnUse" x1="301.62" y1="1451.46" x2="349.58" y2="1499.42" gradientTransform="translate(-24.42 -1406.4)">
      <stop offset="0"/>
      <stop offset=".11" stop-color="#181c4e"/>
      <stop offset=".22" stop-color="#181818"/>
      <stop offset=".34" stop-color="#181c4e"/>
      <stop offset=".47"/>
      <stop offset=".59" stop-color="#181c4e"/>
      <stop offset=".72"/>
      <stop offset=".84" stop-color="#181c4e"/>
      <stop offset=".98"/>
    </linearGradient>
    <path fill="url(#g)" d="M320.38 58.27h-28.9v10.1h34.68L309.54 78.5H291.5V88.6h46.94l-16.6 10.11h-47.68v-39l17.34-11.55h45.5z"/>
  </g>
  <g>
    <linearGradient id="h" gradientUnits="userSpaceOnUse" x1="141.23" y1="1450.64" x2="190.76" y2="1500.17" gradientTransform="translate(-24.42 -1406.4)">
      <stop offset="0" stop-color="#d9dde9"/>
      <stop offset=".39" stop-color="#777489"/>
      <stop offset=".98" stop-color="#d9dde9"/>
    </linearGradient>
    <path fill="url(#h)" d="M161.4 57.88h-29.84v10.44h35.8l-17.15 10.44h-18.65V89.2h48.49l-17.16 10.45h-49.23V59.37l17.9-11.94h47z"/>
    <linearGradient id="i" gradientUnits="userSpaceOnUse" x1="142.08" y1="1451.47" x2="190.21" y2="1499.59" gradientTransform="translate(-24.42 -1406.4)">
      <stop offset="0"/>
      <stop offset=".11" stop-color="#181c4e"/>
      <stop offset=".22" stop-color="#181818"/>
      <stop offset=".34" stop-color="#181c4e"/>
      <stop offset=".47"/>
      <stop offset=".59" stop-color="#181c4e"/>
      <stop offset=".72"/>
      <stop offset=".84" stop-color="#181c4e"/>
      <stop offset=".98"/>
    </linearGradient>
    <path fill="url(#i)" d="M160.98 58.32H132v10.15h34.78L150.11 78.6H132v10.15h47.1L162.44 98.9H114.6V59.77l17.4-11.6h45.65z"/>
  </g>
  <g>
    <linearGradient id="j" gradientUnits="userSpaceOnUse" x1="64.99" y1="1454.77" x2="113.87" y2="1503.64" gradientTransform="translate(-24.42 -1406.4)">
      <stop offset="0" stop-color="#d9dde9"/>
      <stop offset=".39" stop-color="#777489"/>
      <stop offset=".98" stop-color="#d9dde9"/>
    </linearGradient>
    <path fill="url(#j)" d="M29.56 59.37l17.91-11.94h54.47L84.78 57.88H47.47v31.34h33.58V76.53h-20.9L77.33 66.1h21.64v21.64L81.05 99.67H29.56z"/>
    <linearGradient id="k" gradientUnits="userSpaceOnUse" x1="65.69" y1="1455.46" x2="113.2" y2="1502.98" gradientTransform="translate(-24.42 -1406.4)">
      <stop offset="0"/>
      <stop offset=".11" stop-color="#181c4e"/>
      <stop offset=".22" stop-color="#181818"/>
      <stop offset=".34" stop-color="#181c4e"/>
      <stop offset=".47"/>
      <stop offset=".59" stop-color="#181c4e"/>
      <stop offset=".72"/>
      <stop offset=".84" stop-color="#181c4e"/>
      <stop offset=".98"/>
    </linearGradient>
    <path fill="url(#k)" d="M30.56 59.76l17.41-11.6h52.95L84.24 58.3H47.97v30.47h32.64V76.44h-20.3L76.97 66.3h21.04v21.03l-17.4 11.61H30.55z"/>
  </g>
  <g>
    <path fill="#C2C4D2" d="M422.09 89.03l-17.5 10.66h-54.03l17.5-10.66h34.24V78.38h-51.74V57.84l17.5-10.66h54.8l-17.51 10.66h-35.77v9.88h52.5z"/>
    <linearGradient id="l" gradientUnits="userSpaceOnUse" x1="350.52" y1="-651.4" x2="422.82" y2="-651.4" gradientTransform="matrix(1 0 0 -1 .04 -577.97)">
      <stop offset="0" stop-color="#d9dde9"/>
      <stop offset=".39" stop-color="#777489"/>
      <stop offset=".98" stop-color="#d9dde9"/>
    </linearGradient>
    <path fill="url(#l)" d="M402.3 89.03V78.38h-51.74V57.84l17.5-10.66h54.8l-17.51 10.66h-35.77v9.88h52.5v21.31l-17.5 10.66h-54.02l17.5-10.66z"/>
    <linearGradient id="m" gradientUnits="userSpaceOnUse" x1="381.43" y1="1450.13" x2="430.44" y2="1499.15" gradientTransform="translate(-24.42 -1406.4)">
      <stop offset="0"/>
      <stop offset=".11" stop-color="#181c4e"/>
      <stop offset=".22" stop-color="#181818"/>
      <stop offset=".34" stop-color="#181c4e"/>
      <stop offset=".47"/>
      <stop offset=".59" stop-color="#181c4e"/>
      <stop offset=".72"/>
      <stop offset=".84" stop-color="#181c4e"/>
      <stop offset=".98"/>
    </linearGradient>
    <path fill="url(#m)" d="M401.72 88.45V78.2H351.9V58.4l16.85-10.25h52.76L404.66 58.4h-34.44v9.53h50.55v20.51l-16.85 10.26H351.9l16.85-10.26z"/>
  </g>
  <g>
    <path fill="#C2C4D2" d="M533.45 89.03l-17.5 10.66H461.9l17.5-10.66h34.25V78.38h-51.75V57.84l17.5-10.66h54.8l-17.5 10.66h-35.77v9.88h52.5z"/>
    <linearGradient id="n" gradientUnits="userSpaceOnUse" x1="491.64" y1="1448.98" x2="542.55" y2="1499.89" gradientTransform="translate(-24.42 -1406.4)">
      <stop offset="0" stop-color="#d9dde9"/>
      <stop offset=".39" stop-color="#777489"/>
      <stop offset=".98" stop-color="#d9dde9"/>
    </linearGradient>
    <path fill="url(#n)" d="M513.66 89.03V78.38h-51.75V57.84l17.5-10.66h54.8l-17.5 10.66h-35.77v9.88h52.5v21.31l-17.5 10.66h-54.03l17.5-10.66z"/>
    <linearGradient id="o" gradientUnits="userSpaceOnUse" x1="492.78" y1="1450.13" x2="541.8" y2="1499.15" gradientTransform="translate(-24.42 -1406.4)">
      <stop offset="0"/>
      <stop offset=".11" stop-color="#181c4e"/>
      <stop offset=".22" stop-color="#181818"/>
      <stop offset=".34" stop-color="#181c4e"/>
      <stop offset=".47"/>
      <stop offset=".59" stop-color="#181c4e"/>
      <stop offset=".72"/>
      <stop offset=".84" stop-color="#181c4e"/>
      <stop offset=".98"/>
    </linearGradient>
    <path fill="url(#o)" d="M513.08 88.45V78.2h-49.82V58.4l16.85-10.25h52.75L516.01 58.4h-34.43v9.53h50.55v20.51l-16.85 10.26h-52.02l16.85-10.26z"/>
  </g>
</svg>
