<svg xmlns="http://www.w3.org/2000/svg" viewBox="0 0 285.75 95.25" height="360" width="1080">
  <defs>
    <clipPath id="a">
      <path d="M0 452h610V0H0z"/>
    </clipPath>
  </defs>
  <g fill="#fff">
    <circle cx="128.011" cy="132.315" r="8.82" transform="rotate(-24.882)"/>
    <path d="M78.121 32a.528.528 0 0 0-.529.529v11.297H66.295a.528.528 0 0 0-.53.53v9.097c0 .293.237.53.53.53h11.297V65.28c0 .293.236.529.53.529h9.098c.293 0 .529-.236.529-.53V53.983h11.297c.293 0 .53-.236.53-.529v-9.097a.528.528 0 0 0-.53-.53H87.75V32.53a.528.528 0 0 0-.53-.53z"/>
    <circle cx="149.767" cy="127.916" r="8.82" transform="rotate(-24.882)"/>
    <circle cx="171.919" cy="129.203" r="8.82" transform="rotate(-24.882)"/>
    <path d="M82.552 30.196a18.709 18.709 0 0 0-7.276 1.522 18.709 18.709 0 0 0-9.791 24.58 18.709 18.709 0 0 0 24.58 9.792 18.709 18.709 0 0 0 9.791-24.58 18.709 18.709 0 0 0-17.304-11.314zm.014 2.245a16.464 16.464 0 0 1 15.228 9.956 16.464 16.464 0 0 1-8.617 21.63 16.464 16.464 0 0 1-21.63-8.616 16.464 16.464 0 0 1 8.617-21.63 16.464 16.464 0 0 1 6.402-1.34z"/>
    <circle cx="132.256" cy="109.531" r="6.87" transform="rotate(-24.882)"/>
    <circle cx="149.203" cy="106.105" r="6.87" transform="rotate(-24.882)"/>
    <circle cx="166.459" cy="107.107" r="6.87" transform="rotate(-24.882)"/>
    <ellipse ry="3.742" rx="8.045" cy="65.17" cx="136.388"/>
  </g>
</svg>
