<svg xmlns="http://www.w3.org/2000/svg" viewBox="0 0 285.75 95.25" height="360" width="1080">
  <defs>
    <clipPath id="a">
      <path d="M0 452h610V0H0z"/>
    </clipPath>
  </defs>
  <g fill="#fff">
    <circle r="5.83" cy="37.6" cx="272.04"/>
    <circle r="8.82" cy="40.21" cx="15.04"/>
    <circle r="8.82" cy="53.34" cx="220.64"/>
    <circle r="8.82" cy="53.34" cx="61.72"/>
    <circle r="8.82" cy="62.35" cx="14.92"/>
    <circle r="8.82" cy="29.4" cx="141.18"/>
    <rect ry="1.32" rx="3.97" y="32.07" x="137.44" height="23.79" width="7.48"/>
    <path d="M141.18 48.58a20.31 6.15 0 0 0-20.31 6.15 20.31 6.15 0 0 0 20.31 6.15 20.31 6.15 0 0 0 20.31-6.15 20.31 6.15 0 0 0-20.3-6.15zm0 .8a17.22 5.21 0 0 1 17.22 5.22 17.22 5.21 0 0 1-17.22 5.2 17.22 5.21 0 0 1-17.22-5.2 17.22 5.21 0 0 1 17.22-5.22z"/>
    <circle r="5.83" cy="50.91" cx="272.04"/>
    <circle r="5.83" cy="64.23" cx="272.04"/>
  </g>
</svg>
