<svg xmlns="http://www.w3.org/2000/svg" xmlns:xlink="http://www.w3.org/1999/xlink" width="566.93" height="129.21">
  <defs>
    <path id="a" d="M171.64 13.56l4.73 11.33a4.3 4.3 0 0 0-1.69 3.29c-.03.7.05 1.5.23 2.46s.46 2.07.83 3.4l-4.76-10.98a43.35 43.35 0 0 1-.86-3.54c-.2-1-.28-1.82-.24-2.55a4.45 4.45 0 0 1 1.76-3.41z"/>
  </defs>
  <clipPath id="b">
    <use xlink:href="#a" overflow="visible"/>
  </clipPath>
  <g clip-path="url(#b)">
    <path fill="#856125" d="M171.64 13.56l4.73 11.33a4.3 4.3 0 0 0-1.69 3.29c-.03.7.05 1.5.23 2.46s.46 2.07.83 3.4l-4.76-10.98a43.35 43.35 0 0 1-.86-3.54c-.2-1-.28-1.82-.24-2.55a4.45 4.45 0 0 1 1.76-3.41"/>
  </g>
  <defs>
    <path id="c" d="M87.14 25.83l8.06 10.88c-.23-.31-.48-.58-.75-.82s-.57-.43-.88-.58a4.32 4.32 0 0 0-1.02-.35 5.54 5.54 0 0 0-1.68-.1 8.21 8.21 0 0 0-1.7.28l-8.3-10.94a14.1 14.1 0 0 1 1.77-.29 7.55 7.55 0 0 1 1.75.1 4.56 4.56 0 0 1 2.75 1.82z"/>
  </defs>
  <clipPath id="d">
    <use xlink:href="#c" overflow="visible"/>
  </clipPath>
  <g clip-path="url(#d)">
    <path fill="#856125" d="M87.14 25.83l8.06 10.88c-.23-.31-.48-.58-.75-.82s-.57-.43-.88-.58a4.32 4.32 0 0 0-1.02-.35 5.54 5.54 0 0 0-1.68-.1 8.21 8.21 0 0 0-1.7.28l-8.3-10.94a14.1 14.1 0 0 1 1.77-.29 7.55 7.55 0 0 1 1.75.1 4.56 4.56 0 0 1 2.75 1.82"/>
  </g>
  <defs>
    <path id="e" d="M191.48 27.94l3.96 10.8a3.83 3.83 0 0 0-1.14-1.63c-.47-.4-1-.67-1.5-.84a6.49 6.49 0 0 0-2.05-.35L186.6 25c.06 0 .33 0 .71.04.39.05.89.14 1.41.32.53.19 1.09.46 1.58.88.48.4.91.96 1.18 1.7z"/>
  </defs>
  <clipPath id="f">
    <use xlink:href="#e" overflow="visible"/>
  </clipPath>
  <g clip-path="url(#f)">
    <path fill="#856125" d="M191.48 27.94l3.96 10.8a3.83 3.83 0 0 0-1.14-1.63c-.47-.4-1-.67-1.5-.84a6.49 6.49 0 0 0-2.05-.35L186.6 25c.06 0 .33 0 .71.04.39.05.89.14 1.41.32.53.19 1.09.46 1.58.88.48.4.91.96 1.18 1.7"/>
  </g>
  <defs>
    <path id="g" d="M149.3 21.5l5.6 11.05a20.6 20.6 0 0 0-3.6-5.16 14.88 14.88 0 0 0-4.3-3.07c-1.54-.74-3.2-1.2-4.96-1.49a35 35 0 0 0-6.68-.37 71.92 71.92 0 0 0-2.27.07l-1.16.05c-5.28.27-9.13 1.5-11.95 3.37a14.97 14.97 0 0 0-5.7 7.11 27.44 27.44 0 0 0-1.7 8.75c-.17 2.96-.04 5.83 0 8.27l-7.36-10.35c-.04-2.54-.17-5.53 0-8.6.17-3.07.63-6.22 1.8-9.09 1.15-2.87 3-5.45 5.93-7.39 2.93-1.93 6.95-3.22 12.44-3.5a133 133 0 0 1 4.72-.14c2.03 0 3.97.1 5.8.4 1.83.3 3.56.78 5.17 1.54 1.6.77 3.1 1.8 4.47 3.2a21.33 21.33 0 0 1 3.75 5.36z"/>
  </defs>
  <clipPath id="h">
    <use xlink:href="#g" overflow="visible"/>
  </clipPath>
  <g clip-path="url(#h)">
    <path fill="#856125" d="M149.3 21.5l5.6 11.05a20.6 20.6 0 0 0-3.6-5.16 14.88 14.88 0 0 0-4.3-3.07c-1.54-.74-3.2-1.2-4.96-1.49a35 35 0 0 0-6.68-.37 71.92 71.92 0 0 0-2.27.07l-1.16.05c-5.28.27-9.13 1.5-11.95 3.37a14.97 14.97 0 0 0-5.7 7.11 27.44 27.44 0 0 0-1.7 8.75c-.17 2.96-.04 5.83 0 8.27l-7.36-10.35c-.04-2.54-.17-5.53 0-8.6.17-3.07.63-6.22 1.8-9.09 1.15-2.87 3-5.45 5.93-7.39 2.93-1.93 6.95-3.22 12.44-3.5a133 133 0 0 1 4.72-.14c2.03 0 3.97.1 5.8.4 1.83.3 3.56.78 5.17 1.54 1.6.77 3.1 1.8 4.47 3.2a21.33 21.33 0 0 1 3.75 5.36"/>
  </g>
  <defs>
    <path id="i" d="M224.02 32l2.69 10.64-.03-.12a1.45 1.45 0 0 0-.08-.21l-.04-.1a5.3 5.3 0 0 0-.63-.97 4.34 4.34 0 0 0-2.17-1.45 5.88 5.88 0 0 0-2.44-.18 10.5 10.5 0 0 0-1.77.32 17.46 17.46 0 0 0-4.63 1.95c-1.2.72-2.4 1.64-3.68 2.87a46.2 46.2 0 0 0-4.19 4.68 124.93 124.93 0 0 0-5.17 7.1l-3.71-10.1c2.02-2.95 3.8-5.38 5.4-7.38 1.59-2 3.02-3.6 4.36-4.87a22.14 22.14 0 0 1 3.82-2.98 18.16 18.16 0 0 1 5.78-2.24 10.53 10.53 0 0 1 1.69-.16c.65 0 1.23.08 1.73.23a4.58 4.58 0 0 1 3.07 2.96z"/>
  </defs>
  <clipPath id="j">
    <use xlink:href="#i" overflow="visible"/>
  </clipPath>
  <g clip-path="url(#j)">
    <path fill="#856125" d="M224.02 32l2.69 10.64-.03-.12a1.45 1.45 0 0 0-.08-.21l-.04-.1a5.3 5.3 0 0 0-.63-.97 4.34 4.34 0 0 0-2.17-1.45 5.88 5.88 0 0 0-2.44-.18 10.5 10.5 0 0 0-1.77.32 17.46 17.46 0 0 0-4.63 1.95c-1.2.72-2.4 1.64-3.68 2.87a46.2 46.2 0 0 0-4.19 4.68 124.93 124.93 0 0 0-5.17 7.1l-3.71-10.1c2.02-2.95 3.8-5.38 5.4-7.38 1.59-2 3.02-3.6 4.36-4.87a22.14 22.14 0 0 1 3.82-2.98 18.16 18.16 0 0 1 5.78-2.24 10.53 10.53 0 0 1 1.69-.16c.65 0 1.23.08 1.73.23a4.58 4.58 0 0 1 3.07 2.96"/>
  </g>
  <g>
    <defs>
      <path id="k" d="M223.75 52.44l2.7 9.88a181.62 181.62 0 0 0-3.45-.05c-2.12 0-4.41.04-6.71.1a535.82 535.82 0 0 0-12.48.46c-1.64.07-2.94.13-3.74.15l-3.79-9.85c.83-.02 2.19-.08 3.89-.15a1229.35 1229.35 0 0 1 13-.48 274.35 274.35 0 0 1 9.72-.08l.86.02z"/>
    </defs>
    <clipPath id="l">
      <use xlink:href="#k" overflow="visible"/>
    </clipPath>
    <g clip-path="url(#l)">
      <path fill="#856125" d="M223.75 52.44l2.7 9.88a181.62 181.62 0 0 0-3.45-.05c-2.12 0-4.41.04-6.71.1a535.82 535.82 0 0 0-12.48.46c-1.64.07-2.94.13-3.74.15l-3.79-9.85c.83-.02 2.19-.08 3.89-.15a1229.35 1229.35 0 0 1 13-.48 274.35 274.35 0 0 1 9.72-.08l.86.02"/>
    </g>
  </g>
  <g>
    <defs>
      <path id="m" d="M199.64 111.9l-1.88-3.88-1.95-4.04a56.28 56.28 0 0 1-5.26-17.14 53.73 53.73 0 0 1 .06-14.68 63 63 0 0 1 2.77-11.48c1.1-3.2 2.2-5.77 2.9-7.55l3.8 9.85c-.68 1.72-1.75 4.18-2.79 7.26a60.65 60.65 0 0 0-2.65 11.05 51.78 51.78 0 0 0-.06 14.12 54.22 54.22 0 0 0 5.06 16.48z"/>
    </defs>
    <clipPath id="n">
      <use xlink:href="#m" overflow="visible"/>
    </clipPath>
    <g clip-path="url(#n)">
      <path fill="#856125" d="M196.28 53.13l3.8 9.85c-.68 1.72-1.75 4.18-2.79 7.27a60.65 60.65 0 0 0-2.65 11.04 51.78 51.78 0 0 0-.06 14.12 54.21 54.21 0 0 0 5.06 16.48l-3.83-7.9a56.27 56.27 0 0 1-5.26-17.15 53.73 53.73 0 0 1 .06-14.68 63 63 0 0 1 2.77-11.48c1.09-3.2 2.2-5.77 2.9-7.55"/>
    </g>
  </g>
  <g>
    <defs>
      <path id="o" d="M240.93 23.02l2.02 10.99c.04.19.02.4-.04.61-.07.22-.18.44-.32.66a3.7 3.7 0 0 1-1.26 1.19 2.9 2.9 0 0 0-1.43 2.24c-.08.48-.1 1.02-.1 1.64 0 .62.02 1.31.01 2.09l-.1 11.05-.19 21.75-.2 22.2-.1 12.15a13.18 13.18 0 0 0 .42 3.33c0-.12-.08-.26-.1-.38l-.97-3.48-1.12-4.01a10.99 10.99 0 0 1-.4-2.54c-.02-.3-.03-.6-.03-.93l.12-12.63.2-23.08.22-22.6.1-11.5v-2.16c0-.64.02-1.2.1-1.7.07-.51.2-.95.44-1.33s.57-.72 1.05-1a4.39 4.39 0 0 0 1.3-1.24c.16-.22.27-.46.34-.68s.08-.44.04-.64z"/>
    </defs>
    <clipPath id="p">
      <use xlink:href="#o" overflow="visible"/>
    </clipPath>
    <g clip-path="url(#p)">
      <path fill="#856125" d="M240.93 23.02l2.02 10.99c.04.19.02.4-.04.61-.07.22-.18.44-.32.66a3.7 3.7 0 0 1-1.26 1.19 2.9 2.9 0 0 0-1.43 2.24c-.08.48-.1 1.02-.1 1.64 0 .62.02 1.31.01 2.09l-.1 11.05-.19 21.75-.2 22.2-.1 12.15a13.18 13.18 0 0 0 .42 3.33l-2.19-7.87a10.99 10.99 0 0 1-.4-2.53c-.02-.3-.03-.62-.03-.94l.12-12.63.2-23.08.22-22.6.1-11.49v-2.17c0-.64.01-1.2.1-1.7.07-.51.2-.95.44-1.33s.57-.72 1.05-1a4.39 4.39 0 0 0 1.3-1.23c.15-.23.27-.47.33-.7s.09-.43.05-.63"/>
    </g>
  </g>
  <g>
    <defs>
      <path id="q" d="M105.22 39.73l7.37 10.36c.04 2.44.28 7.6.64 14.03.35 6.45.8 14.17 1.27 21.69a8342.91 8342.91 0 0 0 1.94 30.8l-7.28-7.71a6585.82 6585.82 0 0 1-3.29-54.58 501.2 501.2 0 0 1-.65-14.6z"/>
    </defs>
    <clipPath id="r">
      <use xlink:href="#q" overflow="visible"/>
    </clipPath>
    <g clip-path="url(#r)">
      <path fill="#856125" d="M105.22 39.73l7.37 10.36c.04 2.44.28 7.6.64 14.03.35 6.45.8 14.17 1.27 21.69a8342.91 8342.91 0 0 0 1.94 30.8l-7.28-7.71a6585.82 6585.82 0 0 1-3.29-54.58 501.2 501.2 0 0 1-.65-14.6"/>
    </g>
  </g>
  <g>
    <defs>
      <path id="s" d="M242.44 110.31l1.99 7.67a1967.59 1967.59 0 0 0-20.44.09l-2.52.02-2.93-7.66a1246.53 1246.53 0 0 1 8.44-.06 3330.59 3330.59 0 0 1 15.46-.06z"/>
    </defs>
    <clipPath id="t">
      <use xlink:href="#s" overflow="visible"/>
    </clipPath>
    <g clip-path="url(#t)">
      <path fill="#856125" d="M242.44 110.31l1.99 7.67a1967.59 1967.59 0 0 0-20.44.09l-2.52.02-2.93-7.66a1246.53 1246.53 0 0 1 8.44-.06 3330.59 3330.59 0 0 1 15.46-.06"/>
    </g>
  </g>
  <g>
    <defs>
      <path id="u" d="M170.98 23.05l4.77 10.99a64.43 64.43 0 0 1 2.48 17.14 69 69 0 0 1-1.4 14.36 78.04 78.04 0 0 1-5.69 17.23 58.53 58.53 0 0 1-11.7 16.62 75.33 75.33 0 0 1-17.35 12.92 91.08 91.08 0 0 1-21.5 8.37 98.91 98.91 0 0 1-24.12 2.98H95.1l-8.17-7.45h.35l.35.01h.7c8.65 0 17.12-1.08 25.13-3.1a95.08 95.08 0 0 0 22.4-8.7 78.62 78.62 0 0 0 18.09-13.44 60.96 60.96 0 0 0 12.19-17.28 81.18 81.18 0 0 0 5.94-17.91 71.6 71.6 0 0 0 1.47-14.92 66.8 66.8 0 0 0-2.58-17.81z"/>
    </defs>
    <clipPath id="v">
      <use xlink:href="#u" overflow="visible"/>
    </clipPath>
    <g clip-path="url(#v)">
      <path fill="#856125" d="M170.98 23.05l4.77 10.99a64.43 64.43 0 0 1 2.48 17.14 69 69 0 0 1-1.4 14.36 78.04 78.04 0 0 1-5.69 17.23 58.53 58.53 0 0 1-11.7 16.62 75.33 75.33 0 0 1-17.35 12.92 91.08 91.08 0 0 1-21.5 8.37 98.91 98.91 0 0 1-24.12 2.98H95.1l-8.17-7.45h.35l.35.01h.7c8.65 0 17.12-1.08 25.13-3.1a95.08 95.08 0 0 0 22.4-8.7 78.62 78.62 0 0 0 18.09-13.44 60.96 60.96 0 0 0 12.19-17.28 81.18 81.18 0 0 0 5.94-17.91 71.6 71.6 0 0 0 1.47-14.92 66.8 66.8 0 0 0-2.58-17.81"/>
    </g>
  </g>
  <g>
    <path fill="#DEBA27" d="M170.98 23.05a66.79 66.79 0 0 1 2.57 17.81 71.6 71.6 0 0 1-1.46 14.93 81.18 81.18 0 0 1-5.94 17.91 60.97 60.97 0 0 1-12.2 17.28 78.6 78.6 0 0 1-18.08 13.44 95.08 95.08 0 0 1-22.4 8.7 103.18 103.18 0 0 1-25.13 3.1H86.93c1.41-1.01 2.54-1.87 3.44-2.82a8.7 8.7 0 0 0 2-3.36c.46-1.37.72-3.07.8-5.34a95.2 95.2 0 0 0-.2-8.76c-.2-3.64-.45-8.83-.73-14.69l-.89-18.65c-.3-6.29-.62-12.37-.92-17.4-.3-5-.59-8.96-.84-11a36.7 36.7 0 0 0-.81-4.55c-.34-1.29-.74-2.36-1.24-3.21-.5-.85-1.1-1.49-1.81-1.91a4.93 4.93 0 0 0-3.09-.62 8.9 8.9 0 0 0-1.78.3c5.83-4.5 10.95-8.02 15.58-10.76a76.1 76.1 0 0 1 12.62-6.13A53.12 53.12 0 0 1 120 4.56c3.51-.5 6.96-.65 10.56-.65a173.18 173.18 0 0 1 6.98.13l3.72.1c1.27.03 2.57.05 3.92.06 5.63.06 10.09.64 13.6 1.49a28.6 28.6 0 0 1 8 3.1 14.56 14.56 0 0 1 3.8 3.14c.73.88 1 1.51 1.05 1.63a4.46 4.46 0 0 0-1.76 3.42c-.03.72.05 1.55.24 2.54.18 1 .48 2.16.86 3.54zM148.6 77.44c2.4-4.4 4.05-9.06 5.1-13.79 1.05-4.71 1.5-9.5 1.48-14.15a73.25 73.25 0 0 0-1.28-13.37c-.79-4.2-1.9-8.09-3.21-11.47-1.12-2.9-2.4-5.2-3.83-7.02a16.14 16.14 0 0 0-10.35-6.12 34.92 34.92 0 0 0-7.55-.5 93.83 93.83 0 0 0-3.56.13c-5.5.28-9.51 1.57-12.44 3.5a15.57 15.57 0 0 0-5.94 7.39 28.5 28.5 0 0 0-1.8 9.1c-.17 3.06-.03 6.05 0 8.59.04 2.54.3 7.9.65 14.59a7806.9 7806.9 0 0 0 3.28 54.58c3.69-.3 7.04-.68 10.24-1.53 3.2-.84 6.25-2.15 9.32-4.28 3.06-2.14 6.14-5.1 9.4-9.26 3.26-4.15 6.7-9.5 10.5-16.39"/>
  </g>
  <g>
    <defs>
      <path id="w" d="M189.77 106.21l-4.24-8.13a71.3 71.3 0 0 0 4.1 6.9 53.95 53.95 0 0 0 4.8 6.15 30 30 0 0 0 5.17 4.6 13.15 13.15 0 0 0 5.21 2.26l3.5 7.37a12.64 12.64 0 0 1-5.02-2.17 28.88 28.88 0 0 1-4.96-4.42 52 52 0 0 1-4.6-5.92 68.34 68.34 0 0 1-3.96-6.64z"/>
    </defs>
    <clipPath id="x">
      <use xlink:href="#w" overflow="visible"/>
    </clipPath>
    <g clip-path="url(#x)">
      <path fill="#856125" d="M204.81 118l3.5 7.36a12.64 12.64 0 0 1-5.02-2.17 28.88 28.88 0 0 1-4.96-4.42 52 52 0 0 1-4.6-5.92 68.67 68.67 0 0 1-3.96-6.64l-4.24-8.14a71.3 71.3 0 0 0 4.1 6.91 54.04 54.04 0 0 0 4.8 6.15 30 30 0 0 0 5.17 4.6 13.16 13.16 0 0 0 5.21 2.26"/>
    </g>
  </g>
  <g>
    <path fill="#DEBA27" d="M218.54 110.43c.06-.03.42-.19.92-.5a9.37 9.37 0 0 0 3.55-4.15c.5-1.11.84-2.46.89-4.08.04-1.61.06-5.35.06-10.07a3449.58 3449.58 0 0 0-.22-39.2 107.5 107.5 0 0 0-2.65-.03h-.94c-2.2 0-4.6.04-6.98.1a538.95 538.95 0 0 0-13 .48c-1.7.07-3.06.13-3.89.15-.83 2.12-2.24 5.33-3.5 9.42a59.16 59.16 0 0 0-2.65 14.77 53.33 53.33 0 0 0 2.55 18.89c2.2 6.85 6 14.19 12.13 21.78-2.23-.35-4.55-1.6-6.82-3.45a40.56 40.56 0 0 1-6.56-7.05 68.62 68.62 0 0 1-9.55-17.77 63.57 63.57 0 0 1-2.73-29.03 57.76 57.76 0 0 1 5.95-18.44 32.4 32.4 0 0 1 3-4.5c.9-1.14 1.68-2.05 2.3-3.05s1.05-2.09 1.29-3.61a5.96 5.96 0 0 0-.37-3.52c-.4-.86-1.04-1.43-1.72-1.8s-1.38-.58-1.95-.67c-.56-.1-.97-.1-1.05-.1 5.31-.34 11.04-.68 16.7-1l16.28-.86 12.87-.65c3.39-.17 5.71-.3 6.48-.35h.1l.1-.01h.18c.65 0 1.09.14 1.35.38.25.24.33.57.28.93a2.6 2.6 0 0 1-.55 1.13c-.3.38-.69.73-1.14 1-.48.3-.81.63-1.05 1s-.37.83-.44 1.33c-.08.5-.1 1.07-.1 1.71v2.17l-.1 11.48-.21 22.6-.21 23.1-.12 12.62c0 1.24.14 2.37.4 3.39.28 1 .68 1.9 1.17 2.65s1.08 1.37 1.74 1.82c.65.45 1.36.75 2.1.87a1936.66 1936.66 0 0 0-15.45.05l-5.83.04-2.61.03zm5.45-68.98c.04-.77.1-1.7.14-2.66s.1-1.98.12-2.94c.01-.95 0-1.86-.05-2.6a5.01 5.01 0 0 0-.33-1.7c-.18-.35-.39-.7-.65-1.02a4.53 4.53 0 0 0-2.26-1.5 6.12 6.12 0 0 0-2.55-.19 10.53 10.53 0 0 0-1.84.34c-.33.08-.68.19-1.04.3-1.3.44-2.54.97-3.78 1.72-1.24.75-2.48 1.71-3.82 2.98a48.07 48.07 0 0 0-4.37 4.87c-1.6 2-3.37 4.43-5.4 7.37a194.9 194.9 0 0 0 5.8.1 457.81 457.81 0 0 0 11.27-.1l3.5-.1c.96-.04 1.7-.08 2.14-.12a4 4 0 0 0 1.5-.4c.4-.22.7-.51.93-.9.23-.38.38-.85.48-1.42.11-.58.17-1.25.2-2.03"/>
  </g>
  <g>
    <defs>
      <path id="y" d="M340.35 39.1l1.95-10.79c.1-.57.32-1.14.64-1.68a7.1 7.1 0 0 1 1.3-1.6c.56-.52 1.24-1.02 2.05-1.5.8-.48 1.75-.95 2.82-1.39l-2.22 11.02c-1.04.42-1.94.87-2.71 1.33-.78.47-1.43.95-1.97 1.44-.53.5-.95 1.02-1.25 1.54-.31.53-.51 1.08-.61 1.63z"/>
    </defs>
    <clipPath id="z">
      <use xlink:href="#y" overflow="visible"/>
    </clipPath>
    <g clip-path="url(#z)">
      <path fill="#856125" d="M349.11 22.14l-2.22 11.02c-1.04.42-1.94.87-2.72 1.33-.77.47-1.42.95-1.96 1.45-.53.5-.95 1-1.26 1.54-.3.52-.5 1.07-.6 1.62l1.95-10.79c.1-.57.32-1.14.64-1.68a7.1 7.1 0 0 1 1.3-1.6c.56-.52 1.24-1.02 2.05-1.5.8-.48 1.75-.95 2.82-1.39"/>
    </g>
    <defs>
      <path id="A" d="M380.4 40.15l3.59-10.74c.2-.62.44-1.15.69-1.62.25-.46.53-.86.84-1.23.31-.38.65-.72 1.02-1.06s.78-.69 1.23-1.07l-3.74 10.93c-.43.37-.82.7-1.18 1.03-.36.33-.68.66-.98 1.02s-.57.74-.81 1.19-.47.95-.67 1.55z"/>
    </defs>
    <clipPath id="B">
      <use xlink:href="#A" overflow="visible"/>
    </clipPath>
    <g clip-path="url(#B)">
      <path fill="#856125" d="M387.77 24.43l-3.74 10.93c-.43.37-.82.7-1.18 1.03-.36.33-.68.66-.98 1.02s-.56.74-.81 1.19-.47.95-.67 1.55l3.6-10.74c.2-.63.44-1.15.69-1.62.25-.46.53-.86.84-1.24.31-.37.65-.7 1.02-1.05s.78-.69 1.23-1.07"/>
    </g>
    <defs>
      <path id="C" d="M439.07 43.2l6-10.62c.17-.3.38-.58.62-.84s.54-.52.88-.77.73-.53 1.17-.83l1.5-1-6.15 10.75-1.44.97c-.43.29-.8.54-1.13.8-.33.24-.6.48-.84.73a4 4 0 0 0-.6.81z"/>
    </defs>
    <clipPath id="D">
      <use xlink:href="#C" overflow="visible"/>
    </clipPath>
    <g clip-path="url(#D)">
      <path fill="#856125" d="M449.25 29.14l-6.16 10.75-1.44.97c-.43.28-.8.54-1.13.8-.33.24-.6.48-.84.73-.24.26-.44.52-.6.81l5.99-10.62c.17-.3.38-.58.63-.84s.53-.52.87-.77.73-.53 1.17-.83l1.5-1"/>
    </g>
    <defs>
      <path id="E" d="M250.87 40.02l1.64 10.34c-.3-1.74-.63-3.03-1.02-3.99s-.82-1.57-1.29-1.97c-.46-.41-.96-.6-1.48-.7s-1.06-.11-1.61-.15l-1.86-10.61c.58.04 1.14.05 1.68.15.54.1 1.06.3 1.55.73.48.42.93 1.06 1.33 2.05.4 1 .76 2.33 1.06 4.15z"/>
    </defs>
    <clipPath id="F">
      <use xlink:href="#E" overflow="visible"/>
    </clipPath>
    <g clip-path="url(#F)">
      <path fill="#856125" d="M250.87 40.02l1.64 10.34c-.3-1.74-.63-3.03-1.02-3.99s-.82-1.57-1.29-1.97c-.46-.41-.96-.6-1.48-.7s-1.06-.11-1.61-.15l-1.86-10.61c.58.04 1.14.05 1.68.15.54.1 1.06.3 1.55.73.48.42.93 1.06 1.33 2.05.4 1 .76 2.33 1.06 4.15"/>
    </g>
    <defs>
      <path id="G" d="M368.47 44.57l-2.99 10.18.01-1.65-.01-3.49c-.02-1.34-.05-2.8-.1-4.2a52 52 0 0 0-.28-3.75 7.4 7.4 0 0 0-2.51-4.74 10.46 10.46 0 0 0-2.07-1.4 16.1 16.1 0 0 0-2.18-.93l2.69-10.96c.73.26 1.51.57 2.27.97.75.4 1.5.87 2.15 1.45a7.64 7.64 0 0 1 2.61 4.93c.14 1.09.23 2.46.3 3.9a141.52 141.52 0 0 1 .12 7.99v1.7z"/>
    </defs>
    <clipPath id="H">
      <use xlink:href="#G" overflow="visible"/>
    </clipPath>
    <g clip-path="url(#H)">
      <path fill="#8A6625" d="M368.47 44.57l-2.99 10.18.01-1.4a208 208 0 0 0-.08-6.8 76.5 76.5 0 0 0-.19-3.66l2.98-10.63c.1 1.15.16 2.46.2 3.8a166.3 166.3 0 0 1 .08 7.06v1.45"/>
      <path fill="#856125" d="M368.2 32.26l-2.98 10.63-.03-.32-.03-.31-.03-.3-.03-.3a7.4 7.4 0 0 0-2.51-4.74 10.46 10.46 0 0 0-2.07-1.4 16.1 16.1 0 0 0-2.18-.93l2.69-10.96c.73.26 1.51.57 2.27.97.75.4 1.5.87 2.15 1.45a7.64 7.64 0 0 1 2.61 4.93l.04.3.03.31.03.33.03.34"/>
    </g>
    <defs>
      <path id="I" d="M463.09 54.82l6.99-10.17c.66-.97 1.41-1.95 2.25-2.88.84-.94 1.78-1.82 2.8-2.59s2.13-1.4 3.34-1.85a11.05 11.05 0 0 1 6.74-.37 16.7 16.7 0 0 1 6.15 2.78 12.71 12.71 0 0 1 4.7 6.93c.23.88.27 1.49.28 1.6l-8.03 10.03a11.98 11.98 0 0 0-4.77-8.2 16.01 16.01 0 0 0-7.97-3 10.5 10.5 0 0 0-4.41.67c-1.16.44-2.23 1.06-3.22 1.8s-1.87 1.58-2.68 2.48c-.81.9-1.53 1.84-2.17 2.77z"/>
    </defs>
    <clipPath id="J">
      <use xlink:href="#I" overflow="visible"/>
    </clipPath>
    <g clip-path="url(#J)">
      <path fill="#8A6625" d="M496.34 48.27l-8.03 10.03v-.02-.04-.05l-.01-.05 8.02-10.04.01.06v.08l.01.03"/>
      <path fill="#856125" d="M496.33 48.1l-8.03 10.04a12.05 12.05 0 0 0-5.04-8.25 16.24 16.24 0 0 0-7.7-2.78 10.5 10.5 0 0 0-4.4.66c-1.16.44-2.23 1.06-3.22 1.8s-1.87 1.58-2.68 2.48c-.81.9-1.53 1.84-2.17 2.77l7-10.17c.65-.97 1.4-1.95 2.25-2.88.84-.94 1.77-1.82 2.79-2.58s2.13-1.41 3.34-1.86a11.05 11.05 0 0 1 6.74-.36c2.46.59 4.37 1.5 5.86 2.56a12.8 12.8 0 0 1 4.84 6.62c.28.92.38 1.63.42 1.95"/>
    </g>
    <defs>
      <path id="K" d="M368.2 51.4l-2.98 9.91a1588.46 1588.46 0 0 1-23.04.22h-2.3l1.94-9.9h2.4a1646.22 1646.22 0 0 0 23.99-.24z"/>
    </defs>
    <clipPath id="L">
      <use xlink:href="#K" overflow="visible"/>
    </clipPath>
    <g clip-path="url(#L)">
      <path fill="#856125" d="M368.2 51.4l-2.98 9.91a1588.46 1588.46 0 0 1-23.04.22h-2.3l1.94-9.9h2.4a1646.22 1646.22 0 0 0 23.99-.24"/>
    </g>
    <defs>
      <path id="M" d="M438.52 52.9l-5.76 9.86c.17-3.57.21-6.66.12-9.33-.1-2.66-.31-4.9-.67-6.76a15.35 15.35 0 0 0-1.46-4.46 5.91 5.91 0 0 0-2.27-2.43l5.56-10.75a6.15 6.15 0 0 1 2.36 2.52c.65 1.17 1.16 2.7 1.53 4.63.37 1.93.6 4.26.7 7.03.1 2.77.06 5.98-.11 9.69z"/>
    </defs>
    <clipPath id="N">
      <use xlink:href="#M" overflow="visible"/>
    </clipPath>
    <g clip-path="url(#N)">
      <path fill="#8A6625" d="M438.52 52.9l-5.76 9.86a151.66 151.66 0 0 0 .17-7.08 81.6 81.6 0 0 0-.26-5.67l5.74-10.36a80.94 80.94 0 0 1 .25 9.38c-.03 1.22-.08 2.51-.14 3.87"/>
      <path fill="#856125" d="M438.4 39.65L432.68 50a33.6 33.6 0 0 0-.57-3.86c-.24-1.14-.53-2.11-.88-2.95a8.59 8.59 0 0 0-1.2-2.1c-.46-.57-.97-1-1.53-1.32l5.55-10.76c.6.33 1.12.78 1.6 1.37.47.59.9 1.31 1.25 2.18.37.87.68 1.89.93 3.06.25 1.18.45 2.51.59 4.02"/>
    </g>
    <defs>
      <path id="O" d="M320.26 32.41l-1.09 10.63a70.25 70.25 0 0 1-12.61 10.92 74.28 74.28 0 0 1-12.92 6.92 103.77 103.77 0 0 1-12.37 4.22c-3.94 1.1-7.64 1.95-10.97 2.79l-.9-9.66c3.46-.87 7.31-1.76 11.41-2.9 4.1-1.14 8.44-2.52 12.88-4.38a77.3 77.3 0 0 0 13.44-7.2 73.1 73.1 0 0 0 13.13-11.34z"/>
    </defs>
    <clipPath id="P">
      <use xlink:href="#O" overflow="visible"/>
    </clipPath>
    <g clip-path="url(#P)">
      <path fill="#856125" d="M320.26 32.41l-1.09 10.63a70.25 70.25 0 0 1-12.61 10.92 74.28 74.28 0 0 1-12.92 6.92 103.77 103.77 0 0 1-12.37 4.22c-3.94 1.1-7.64 1.95-10.97 2.79l-.9-9.66c3.46-.87 7.31-1.76 11.41-2.9 4.1-1.14 8.44-2.52 12.88-4.38a77.3 77.3 0 0 0 13.44-7.2 73.1 73.1 0 0 0 13.13-11.34"/>
    </g>
    <defs>
      <path id="Q" d="M488.73 57.65L481 67.33a25.63 25.63 0 0 1-3.15 3.14c-.5.45-1.08.93-1.72 1.44l7.55-9.5a57.94 57.94 0 0 0 3.2-2.78 26.33 26.33 0 0 0 1.86-1.98z"/>
    </defs>
    <clipPath id="R">
      <use xlink:href="#Q" overflow="visible"/>
    </clipPath>
    <g clip-path="url(#R)">
      <path fill="#856125" d="M488.73 57.65L481 67.33a25.63 25.63 0 0 1-3.15 3.14c-.5.45-1.08.93-1.72 1.44l7.55-9.5a57.94 57.94 0 0 0 3.2-2.78 26.33 26.33 0 0 0 1.86-1.98"/>
    </g>
    <g>
      <defs>
        <path id="S" d="M457.3 69.1l6.77-9.61c.18-.26.4-.47.69-.63.28-.16.62-.28 1.03-.37s.88-.14 1.45-.18c.56-.04 1.21-.07 1.96-.08h.35l.35-.01h.7c1.29 0 2.56.04 3.8.16 1.22.11 2.4.3 3.53.61 1.12.3 2.17.72 3.13 1.28s1.84 1.26 2.6 2.14l-7.54 9.5a9.73 9.73 0 0 0-2.5-2.06c-.92-.54-1.93-.94-3-1.23s-2.22-.48-3.4-.6c-1.19-.1-2.4-.15-3.65-.15h-1l-.34.02c-.72.01-1.34.03-1.88.07-.55.04-1 .1-1.4.18s-.72.2-.99.35c-.27.16-.48.36-.66.6z"/>
      </defs>
      <clipPath id="T">
        <use xlink:href="#S" overflow="visible"/>
      </clipPath>
      <g clip-path="url(#T)">
        <path fill="#856125" d="M483.67 62.4l-7.55 9.5a9.73 9.73 0 0 0-2.5-2.05c-.92-.53-1.94-.93-3.01-1.23s-2.21-.48-3.4-.6c-1.18-.1-2.4-.15-3.64-.15h-.67l-.33.01h-.34c-.72.02-1.34.04-1.89.08-.54.04-1 .1-1.4.18s-.71.2-.98.36c-.27.15-.49.35-.66.6l6.77-9.61c.18-.26.4-.46.69-.63.28-.16.62-.28 1.03-.36s.88-.15 1.45-.2l1.96-.07h.35l.35-.01h.7c1.29 0 2.56.04 3.79.16s2.42.3 3.54.61c1.12.3 2.17.72 3.13 1.28s1.84 1.26 2.6 2.14"/>
      </g>
    </g>
    <g>
      <defs>
        <path id="U" d="M267.31 110.77l-1.04-7.96a7.65 7.65 0 0 1-.08-1.32v-.5-8.66a210598.13 210598.13 0 0 0 .1-53 12.66 12.66 0 0 1 4.45-9.7 19.18 19.18 0 0 1 5.14-3.19 29.62 29.62 0 0 1 9-2.26 22.59 22.59 0 0 1 2.08-.1c1.7 0 3.17.22 4.47.61s2.43.97 3.44 1.67c1.01.7 1.9 1.55 2.73 2.48.82.94 1.58 1.97 2.32 3.06l-.29 10.65a30.85 30.85 0 0 0-2.23-2.94c-.8-.9-1.65-1.71-2.63-2.39a11.56 11.56 0 0 0-3.3-1.6 14.68 14.68 0 0 0-5.26-.57 22.18 22.18 0 0 0-3.23.37 28.38 28.38 0 0 0-6.45 1.87 18.44 18.44 0 0 0-4.93 3.08 12.2 12.2 0 0 0-4.28 9.33l-.03 12.34a54547.4 54547.4 0 0 0-.05 38.64l-.01 8.34a37.13 37.13 0 0 0 .04 1.35l.04.4z"/>
      </defs>
      <clipPath id="V">
        <use xlink:href="#U" overflow="visible"/>
      </clipPath>
      <g clip-path="url(#V)">
        <path fill="#856125" d="M299.92 31.9l-.3 10.65a30.85 30.85 0 0 0-2.23-2.94c-.79-.9-1.65-1.71-2.62-2.39a11.56 11.56 0 0 0-3.3-1.6 14.68 14.68 0 0 0-5.27-.57 22.18 22.18 0 0 0-3.22.37 28.38 28.38 0 0 0-6.45 1.87 18.44 18.44 0 0 0-4.93 3.08 12.2 12.2 0 0 0-4.28 9.33 54547.4 54547.4 0 0 0-.07 50.99l-.02 8.33a37.13 37.13 0 0 0 .04 1.35l.04.4-1.04-7.95a7.65 7.65 0 0 1-.08-1.33v-.5-8.66a210598.13 210598.13 0 0 0 .1-53 12.66 12.66 0 0 1 4.45-9.7 19.18 19.18 0 0 1 5.14-3.19 29.62 29.62 0 0 1 9-2.26 22.59 22.59 0 0 1 2.08-.1c1.7 0 3.17.22 4.47.61s2.43.97 3.44 1.67c1.01.7 1.9 1.55 2.73 2.49a31.9 31.9 0 0 1 2.32 3.05"/>
      </g>
    </g>
    <g>
      <defs>
        <path id="W" d="M325.17 103.81a21748.91 21748.91 0 0 1-1.22 7.37 22.89 22.89 0 0 0 .15-1.81 2586.89 2586.89 0 0 0 1.25-34.28c.22-7.36.39-14.64.45-20.53.06-5.87 0-10.35-.23-12.12a16.73 16.73 0 0 0-1.25-4.55 13.43 13.43 0 0 0-1.94-3.16c-.7-.84-1.41-1.48-2.05-1.96a8.14 8.14 0 0 0-1.6-.94l1.07-11.07c.41.17 1 .49 1.67.98.66.5 1.41 1.16 2.14 2.04.72.87 1.43 1.95 2.01 3.28a17.36 17.36 0 0 1 1.3 4.72c.25 1.84.3 6.5.24 12.6-.06 6.12-.24 13.69-.46 21.33a2833.38 2833.38 0 0 1-1.33 36.3 22.52 22.52 0 0 1-.2 1.8z"/>
      </defs>
      <clipPath id="X">
        <use xlink:href="#W" overflow="visible"/>
      </clipPath>
      <g clip-path="url(#X)">
        <path fill="#8F6B25" d="M325.17 103.81l-1.3 7.92c0-.09.02-.18.04-.27l.03-.27.04-.28.03-.29 1.3-7.96-.02.3a6.65 6.65 0 0 1-.08.58l-.04.27"/>
        <path fill="#8A6625" d="M325.32 102.66l-1.3 7.96.02-.3.02-.31a16.02 16.02 0 0 0 .04-.65 2716.66 2716.66 0 0 0 1.2-32.61c.21-7.08.4-14.19.47-20.14.08-5.94.07-10.73-.1-13.19l1.35-10.62c.19 2.56.2 7.54.12 13.71-.08 6.19-.27 13.58-.49 20.94a2851.96 2851.96 0 0 1-1.25 34.24l-.02.34-.03.32-.03.31"/>
        <path fill="#856125" d="M327.02 32.8l-1.36 10.62-.02-.28-.02-.26-.02-.23-.03-.21a16.73 16.73 0 0 0-1.25-4.55 13.43 13.43 0 0 0-1.93-3.16c-.7-.84-1.42-1.49-2.06-1.96a8.14 8.14 0 0 0-1.6-.94l1.07-11.07c.41.17 1 .49 1.67.98.67.5 1.41 1.16 2.14 2.03.72.88 1.43 1.96 2.01 3.28a17.36 17.36 0 0 1 1.3 4.73l.03.22.03.25.02.26.02.3"/>
      </g>
    </g>
    <g>
      <defs>
        <path id="Y" d="M392.02 105.26l-3.96 7.86a9.66 9.66 0 0 0 .84-2.37 17.08 17.08 0 0 0 .47-3.09c.15-1.78.4-5.97.72-11.32a3644.94 3644.94 0 0 0 1.89-35.69c.23-4.9.36-8.45.35-9.45-.02-1-.07-1.83-.19-2.5-.12-.69-.31-1.22-.62-1.63s-.72-.7-1.29-.88a7.73 7.73 0 0 0-2.19-.32l3.91-10.52c.94.03 1.7.13 2.28.33.6.2 1.03.5 1.34.92.32.43.52.98.65 1.68s.18 1.56.2 2.6c.02 1.04-.13 4.74-.36 9.83a4006.96 4006.96 0 0 1-1.94 37.1c-.32 5.56-.6 9.92-.74 11.77a24.87 24.87 0 0 1-.48 3.22 12.84 12.84 0 0 1-.88 2.46z"/>
      </defs>
      <clipPath id="Z">
        <use xlink:href="#Y" overflow="visible"/>
      </clipPath>
      <g clip-path="url(#Z)">
        <path fill="#997526" d="M392.02 105.26l-3.96 7.86.08-.16.08-.16.07-.17.07-.17 3.97-7.89-.07.18-.08.17-.08.17-.08.17"/>
        <path fill="#947026" d="M392.33 104.57l-3.97 7.9a11.21 11.21 0 0 0 .53-1.64l3.99-7.96a15.73 15.73 0 0 1-.55 1.7"/>
        <path fill="#8F6B25" d="M392.88 102.87l-4 7.95a12.76 12.76 0 0 0 .28-1.34 20.36 20.36 0 0 0 .19-1.51l4-8.07a25.97 25.97 0 0 1-.32 2.3l-.15.67"/>
        <path fill="#8A6625" d="M393.35 99.9l-4 8.06v-.07l.01-.07v-.08l.01-.08c.15-1.78.4-5.97.72-11.31a3644.94 3644.94 0 0 0 1.89-35.7c.23-4.9.36-8.45.35-9.45l-.01-.44a25.4 25.4 0 0 0-.07-1.18l4.1-10.37a19.6 19.6 0 0 1 .04.79l.02.43v.45c.03 1.04-.12 4.74-.35 9.83a4006.96 4006.96 0 0 1-1.94 37.1c-.32 5.56-.59 9.92-.74 11.77v.08l-.01.08v.08l-.02.08"/>
        <path fill="#856125" d="M396.34 39.2l-4.09 10.38a7.05 7.05 0 0 0-.32-1.71c-.17-.47-.4-.84-.71-1.13s-.73-.5-1.25-.63a8.58 8.58 0 0 0-1.93-.24l3.9-10.52c.81.02 1.47.1 2.02.25.54.14.96.36 1.3.66s.57.68.74 1.17.28 1.07.34 1.78"/>
      </g>
    </g>
    <g>
      <defs>
        <path id="aa" d="M365.63 105.27l-2.9 7.86a10.4 10.4 0 0 0 .58-2.46c.04-.31.07-.64.09-.97.12-2.04.29-5.97.48-10.75a4385.4 4385.4 0 0 0 1.1-30.42l.24-7.22 2.99-9.92-.25 7.51a8703.17 8703.17 0 0 1-1.13 31.62c-.2 4.97-.37 9.06-.5 11.18a15.12 15.12 0 0 1-.45 2.79c-.07.27-.16.53-.25.78z"/>
      </defs>
      <clipPath id="ab">
        <use xlink:href="#aa" overflow="visible"/>
      </clipPath>
      <g clip-path="url(#ab)">
        <path fill="#947026" d="M365.63 105.27l-2.9 7.86a8.12 8.12 0 0 0 .24-.77l.07-.27 2.93-7.9-.08.28-.08.27a14.18 14.18 0 0 1-.18.53"/>
        <path fill="#8F6B25" d="M365.97 104.18l-2.93 7.9a12.13 12.13 0 0 0 .32-1.85l2.93-7.98a11.52 11.52 0 0 1-.32 1.93"/>
        <path fill="#8A6625" d="M366.3 102.25l-2.94 7.98.01-.13.01-.13.01-.14.01-.13c.12-2.04.29-5.97.48-10.75a4385.4 4385.4 0 0 0 1.1-30.42l.24-7.22 2.99-9.92-.25 7.51a8703.17 8703.17 0 0 1-1.13 31.62c-.2 4.97-.37 9.06-.5 11.18v.14l-.01.14-.01.13-.02.14"/>
      </g>
    </g>
    <g>
      <defs>
        <path id="ac" d="M272.43 109.49l.79 7.7h-24.04l-1.8-7.7h25.04z"/>
      </defs>
      <clipPath id="ad">
        <use xlink:href="#ac" overflow="visible"/>
      </clipPath>
      <g clip-path="url(#ad)">
        <path fill="#856125" d="M272.43 109.49l.79 7.7h-24.04l-1.8-7.7h25.04"/>
      </g>
    </g>
    <g>
      <path fill="#DEBA27" d="M269.4 58.23c5.02-3.13 9.22-5.93 12.75-8.48 3.53-2.54 6.39-4.82 8.72-6.92A50.9 50.9 0 0 0 296.5 37a32.74 32.74 0 0 0 3.43-5.12 31.86 31.86 0 0 0-2.32-3.05 15.37 15.37 0 0 0-2.73-2.48c-1.01-.7-2.14-1.27-3.44-1.67a15.1 15.1 0 0 0-5.48-.59 25.76 25.76 0 0 0-3.36.39 29.62 29.62 0 0 0-6.71 1.95 19.18 19.18 0 0 0-5.14 3.2 12.66 12.66 0 0 0-4.46 9.7l-.03 12.81a53157.1 53157.1 0 0 0-.05 40.17l-.01 8.67c0 .89.02 1.63.16 2.3.14.67.38 1.27.8 1.88s1.03 1.22 1.89 1.92 1.96 1.47 3.39 2.4h-25.04a4.62 4.62 0 0 0 3.02-1.5c.5-.56.94-1.3 1.27-2.29.33-1 .54-2.25.55-3.82a2193.06 2193.06 0 0 0-.21-31.48c-.1-6.74-.24-13.44-.43-18.9-.18-5.45-.42-9.67-.72-11.48-.3-1.82-.65-3.16-1.06-4.15-.4-1-.85-1.63-1.33-2.06-.49-.42-1-.62-1.55-.72-.54-.1-1.1-.12-1.68-.16 5.28-2.91 9.96-5.25 14.2-7.12a96.01 96.01 0 0 1 11.53-4.3 64.63 64.63 0 0 1 18.83-2.7h.32a33.5 33.5 0 0 1 .63 0h.32c3.09.05 5.88.33 8.47.87 2.6.54 5 1.34 7.29 2.44 2.3 1.1 4.5 2.48 6.7 4.19 2.2 1.7 4.41 3.73 6.72 6.1a73.05 73.05 0 0 1-13.13 11.34 77.33 77.33 0 0 1-13.44 7.2 108.2 108.2 0 0 1-12.88 4.38c-4.1 1.14-7.95 2.03-11.42 2.9z"/>
    </g>
    <g>
      <defs>
        <path id="ae" d="M247.38 109.49l1.8 7.7h-.14l-.12.02H248.71l-1.82-7.7h.23l.13-.01.13-.01z"/>
      </defs>
      <clipPath id="af">
        <use xlink:href="#ae" overflow="visible"/>
      </clipPath>
      <g clip-path="url(#af)">
        <path fill="#856125" d="M247.38 109.49l1.8 7.7h-.14l-.12.02H248.71l-1.82-7.7h.23l.13-.01.13-.01"/>
      </g>
    </g>
    <g>
      <path fill="#E0BC27" d="M246.89 109.51a4.95 4.95 0 0 1-.41-.02h-.04H247.4h-.14l-.13.02H246.89z"/>
    </g>
    <g>
      <defs>
        <path id="ag" d="M246.89 109.51l1.81 7.7a3.22 3.22 0 0 1-.31-.01l-.09-.01h-.03l-1.83-7.7h.04a1.4 1.4 0 0 0 .22.02h.19z"/>
      </defs>
      <clipPath id="ah">
        <use xlink:href="#ag" overflow="visible"/>
      </clipPath>
      <g clip-path="url(#ah)">
        <path fill="#856125" d="M246.89 109.51l1.81 7.7a3.22 3.22 0 0 1-.31-.01l-.09-.01h-.03l-1.83-7.7h.04a1.4 1.4 0 0 0 .22.02h.19"/>
      </g>
    </g>
    <g>
      <defs>
        <path id="ai" d="M344.22 110.78l-2.06 7.65H318.53l1.08-7.65h24.61z"/>
      </defs>
      <clipPath id="aj">
        <use xlink:href="#ai" overflow="visible"/>
      </clipPath>
      <g clip-path="url(#aj)">
        <path fill="#856125" d="M344.22 110.78l-2.06 7.65H318.53l1.08-7.65h24.61"/>
      </g>
    </g>
    <g>
      <defs>
        <path id="ak" d="M403.25 111.25l-4.4 7.63a144.9 144.9 0 0 1-5.5-.31 328.3 328.3 0 0 1-12.54-1.16l3.66-7.69 2.23.23a456.6 456.6 0 0 0 10.83.97c2.03.15 4.02.27 5.72.33z"/>
      </defs>
      <clipPath id="al">
        <use xlink:href="#ak" overflow="visible"/>
      </clipPath>
      <g clip-path="url(#al)">
        <path fill="#856125" d="M403.25 111.25l-4.4 7.63a144.9 144.9 0 0 1-5.5-.31 328.3 328.3 0 0 1-12.54-1.16l3.66-7.69 2.23.23a456.6 456.6 0 0 0 10.83.97c2.03.15 4.02.27 5.72.33"/>
      </g>
    </g>
    <g>
      <defs>
        <path id="am" d="M383.9 111.02l-3.64 7.64-8.95-.08-7.64-.08-5.43-.05-2.3-.02 2.62-7.65 2.4.02 5.66.06 7.96.07 9.31.09z"/>
      </defs>
      <clipPath id="an">
        <use xlink:href="#am" overflow="visible"/>
      </clipPath>
      <g clip-path="url(#an)">
        <path fill="#856125" d="M383.9 111.02l-3.64 7.64-8.95-.08-7.64-.08-5.43-.05-2.3-.02 2.62-7.65 2.4.02 5.66.06 7.96.07 9.31.09"/>
      </g>
    </g>
    <g>
      <path fill="#DEBA27" d="M319.8 20.76l29.31 1.38a20.37 20.37 0 0 0-3.22 1.63c-.9.57-1.6 1.16-2.16 1.78a6 6 0 0 0-1.2 1.91 5 5 0 0 0-.3 2.03c.03.69.05 1.93.06 3.43a537.74 537.74 0 0 1-.03 9.42l-.02 2.23h26.23l.01-1.7a217.23 217.23 0 0 0-.13-8c-.06-1.43-.15-2.8-.29-3.9a7.64 7.64 0 0 0-2.6-4.92 10.9 10.9 0 0 0-2.16-1.45c-.76-.4-1.54-.71-2.27-.97a612.45 612.45 0 0 1 26.74.8c-.84.72-1.55 1.31-2.14 2a8.11 8.11 0 0 0-1.5 2.58c-.41 1.1-.74 2.51-1.03 4.45a102.4 102.4 0 0 0-.74 7.65c-.21 3.23-.49 8.27-.77 14.1A3283.93 3283.93 0 0 0 380 91.62c-.19 4.93-.3 8.6-.32 9.96 0 1.35.08 2.54.25 3.57.18 1.04.45 1.93.8 2.69a6.5 6.5 0 0 0 3.15 3.17l-9.31-.09-7.96-.07-5.65-.06-2.4-.02c.09-.01.59-.05 1.3-.24.7-.19 1.61-.52 2.53-1.13s1.84-1.47 2.57-2.71a11.1 11.1 0 0 0 1.37-5c.12-2.11.3-6.2.49-11.18a4862.13 4862.13 0 0 0 1.13-31.62l.25-7.5a1655.49 1655.49 0 0 1-23.99.23h-2.4l-.37 8.31c-.2 4.55-.45 10.45-.69 16.42-.24 5.99-.47 12.05-.62 16.9-.15 4.86-.23 8.5-.16 9.62.07 1.12.2 2.11.4 2.99.2.87.49 1.63.83 2.28a5.52 5.52 0 0 0 3.01 2.62H319.61c.07 0 .44 0 .96-.16.53-.16 1.2-.46 1.88-1.06s1.37-1.48 1.91-2.8c.55-1.32.95-3.08 1.05-5.4a2445.58 2445.58 0 0 0 1.3-35.64c.22-7.65.4-15.22.45-21.33.07-6.1 0-10.76-.24-12.6-.24-1.84-.71-3.4-1.3-4.73a13.93 13.93 0 0 0-2.01-3.28 12.11 12.11 0 0 0-2.14-2.03 8.64 8.64 0 0 0-1.67-.98z"/>
    </g>
    <g>
      <defs>
        <path id="ao" d="M431.41 109.89l-5.53 7.68a51 51 0 0 1-3.25 4.05 32.56 32.56 0 0 1-2.9 2.83l5.28-7.41a34.31 34.31 0 0 0 3.02-2.94 44.72 44.72 0 0 0 3.38-4.21z"/>
      </defs>
      <clipPath id="ap">
        <use xlink:href="#ao" overflow="visible"/>
      </clipPath>
      <g clip-path="url(#ap)">
        <path fill="#856125" d="M431.41 109.89l-5.53 7.68a51 51 0 0 1-3.25 4.05 32.56 32.56 0 0 1-2.9 2.83l5.28-7.41a34.31 34.31 0 0 0 3.02-2.94 44.72 44.72 0 0 0 3.38-4.21"/>
      </g>
    </g>
    <g>
      <defs>
        <path id="aq" d="M398.69 53.34l4.35-10.23c.1-.22.2-.4.31-.56.11-.15.23-.28.37-.38.13-.1.28-.17.44-.21.15-.05.33-.07.51-.07.23 0 .48.03.75.09s.57.14.9.25c.32.1.67.23 1.06.37l1.24.47c1.37.52 3.5 1.82 5.97 3.67a78.55 78.55 0 0 1 8.06 6.97 65.9 65.9 0 0 1 7.62 8.9c2.2 3.15 3.9 6.38 4.68 9.46a38.06 38.06 0 0 1 1.16 9.6c-.02 3.33-.43 6.8-1.25 10.47a77.9 77.9 0 0 1-3.7 11.68c-1.63 4.13-3.68 8.52-6.15 13.22l-5.28 7.4c2.37-4.51 4.35-8.73 5.93-12.7a74.9 74.9 0 0 0 3.55-11.23c.8-3.53 1.2-6.87 1.21-10.07.02-3.2-.35-6.26-1.1-9.23-.75-2.97-2.38-6.08-4.48-9.1a63.33 63.33 0 0 0-7.32-8.56 75.57 75.57 0 0 0-7.73-6.71c-2.38-1.78-4.42-3.03-5.74-3.53l-1.2-.46a23.09 23.09 0 0 0-1.87-.6c-.26-.05-.5-.08-.72-.08-.18 0-.34.02-.5.06-.15.05-.28.11-.41.2-.13.1-.25.22-.36.37-.11.15-.21.33-.3.54z"/>
      </defs>
      <clipPath id="ar">
        <use xlink:href="#aq" overflow="visible"/>
      </clipPath>
      <g clip-path="url(#ar)">
        <path fill="#997526" d="M425 117.04l-5.27 7.4a167.02 167.02 0 0 0 4.51-9.32c.43-.99.84-1.96 1.23-2.92l5.5-7.9a112.22 112.22 0 0 1-2.7 6.17 146.67 146.67 0 0 1-3.26 6.57"/>
        <path fill="#947026" d="M430.97 104.3l-5.5 7.9a98 98 0 0 0 2.02-5.5 75.13 75.13 0 0 0 1.49-5.2l5.63-8.33a65.77 65.77 0 0 1-1.54 5.4 87.36 87.36 0 0 1-2.1 5.73"/>
        <path fill="#8F6B25" d="M434.62 93.17l-5.64 8.32a53.88 53.88 0 0 0 1.28-7.68l5.69-8.64a49.62 49.62 0 0 1-1.33 8"/>
        <path fill="#8A6625" d="M435.95 85.17l-5.69 8.63a40.58 40.58 0 0 0 0-7.09l5.68-8.91a39.42 39.42 0 0 1 0 7.37"/>
        <path fill="#856125" d="M435.94 77.8l-5.68 8.91a37.62 37.62 0 0 0-.95-5.5c-.75-2.97-2.38-6.08-4.48-9.1a63.33 63.33 0 0 0-7.32-8.57 75.57 75.57 0 0 0-7.73-6.7c-2.37-1.79-4.42-3.04-5.73-3.54l-1.2-.45a23.09 23.09 0 0 0-1.87-.6c-.27-.06-.5-.09-.72-.09-.18 0-.35.03-.5.07-.15.04-.29.11-.42.2-.13.1-.24.22-.35.37-.11.15-.2.33-.3.54l4.35-10.23c.1-.21.2-.4.31-.56.11-.15.24-.28.37-.38.13-.1.28-.17.44-.21.16-.05.33-.07.51-.07.23 0 .48.03.75.1.27.05.57.13.9.24.32.1.68.23 1.06.37l1.24.47c1.37.52 3.5 1.82 5.98 3.67a78.55 78.55 0 0 1 8.05 6.97 65.9 65.9 0 0 1 7.62 8.9c2.2 3.15 3.9 6.38 4.68 9.46a36.37 36.37 0 0 1 .99 5.73"/>
      </g>
    </g>
    <g>
      <path fill="#DEBA27" d="M402.33 24.4a6.5 6.5 0 0 1 1.77.32 14.11 14.11 0 0 1 2.06.97c1.49.86 3.86 2.2 6.69 3.93 2.82 1.73 6.1 3.84 9.38 6.23a79.99 79.99 0 0 1 9.43 7.96c2.87 2.87 5.3 5.93 6.86 9.09.17-3.7.2-6.92.11-9.7a46.2 46.2 0 0 0-.7-7.02 15.94 15.94 0 0 0-1.53-4.64 6.17 6.17 0 0 0-2.36-2.52l1.26-.01 1.23-.01H438.88a427.05 427.05 0 0 1 10.37.13c-1.25.84-2.18 1.43-2.88 2-.7.56-1.18 1.1-1.5 1.84s-.49 1.68-.58 3.04c-.1 1.36-.12 3.14-.15 5.56a552.73 552.73 0 0 1-.64 21.33c-.22 4.26-.51 8.65-.9 12.84-.39 4.19-.87 8.18-1.47 11.63a50.37 50.37 0 0 1-2.81 9.89 58.86 58.86 0 0 1-9 15.34 33.07 33.07 0 0 1-4.31 4.44c2.46-4.7 4.51-9.09 6.15-13.22 1.64-4.13 2.87-8 3.7-11.68a48.85 48.85 0 0 0 1.24-10.48c.02-3.32-.37-6.5-1.15-9.59-.79-3.09-2.49-6.32-4.68-9.46a65.9 65.9 0 0 0-7.63-8.9 78.67 78.67 0 0 0-8.05-6.97c-2.48-1.85-4.6-3.15-5.98-3.67l-1.24-.47-1.06-.38c-.32-.1-.62-.19-.9-.24a3.63 3.63 0 0 0-.74-.1c-.47 0-.84.14-1.15.46-.3.31-.54.8-.74 1.53s-.34 1.66-.48 2.88c-.14 1.22-.25 2.72-.38 4.53-.19 2.69-.45 7-.74 12.02a4243.28 4243.28 0 0 0-2.04 38.76c-.01.73.08 1.58.26 2.47.18.9.46 1.82.82 2.7s.8 1.7 1.31 2.4 1.09 1.26 1.72 1.62c-1.7-.06-3.69-.18-5.72-.33a333.02 333.02 0 0 1-10.83-.97l-2.23-.23c1.31-.18 2.48-.44 3.52-.84a7.53 7.53 0 0 0 2.68-1.72 8.07 8.07 0 0 0 1.8-2.97c.46-1.24.76-2.76.91-4.6.15-1.86.42-6.22.74-11.78a3876.9 3876.9 0 0 0 1.94-37.1c.23-5.09.37-8.8.36-9.83a17.1 17.1 0 0 0-.2-2.6 3.91 3.91 0 0 0-.65-1.68 2.66 2.66 0 0 0-1.34-.93c-.59-.2-1.34-.3-2.28-.33 1.2-1.79 2.25-3.37 3.2-4.73.93-1.36 1.77-2.5 2.56-3.42a10.3 10.3 0 0 1 2.28-2.08c.75-.46 1.51-.7 2.34-.7z"/>
    </g>
    <g>
      <defs>
        <path id="as" d="M492.07 119.76l-7.95 7.3c-1.3-.2-3.23-.54-5.58-1.27a40.76 40.76 0 0 1-8.13-3.53c-3-1.7-6.22-4.01-9.45-7.14a60.86 60.86 0 0 1-9.53-12.09c-3.04-5-4.97-10.2-6.1-15.33A59.46 59.46 0 0 1 444.05 73c.16-4.59.79-8.76 1.59-12.2.8-3.44 1.75-6.16 2.56-7.82.8-1.67 1.4-3.12 1.8-4.4.4-1.28.58-2.38.56-3.32-.02-.95-.24-1.75-.67-2.43s-1.05-1.24-1.89-1.71l6.36-10.7a5.35 5.35 0 0 1 1.97 1.77c.44.7.68 1.54.7 2.52s-.18 2.13-.58 3.45a32.93 32.93 0 0 1-1.87 4.57 40.65 40.65 0 0 0-2.66 8.13 66.72 66.72 0 0 0-1.64 12.68 61.7 61.7 0 0 0 1.36 15.3A51.87 51.87 0 0 0 458 94.77a63.42 63.42 0 0 0 9.93 12.56 48.88 48.88 0 0 0 9.85 7.43 42.47 42.47 0 0 0 8.48 3.68 40 40 0 0 0 5.8 1.32z"/>
      </defs>
      <clipPath id="at">
        <use xlink:href="#as" overflow="visible"/>
      </clipPath>
      <g clip-path="url(#at)">
        <path fill="#856125" d="M492.07 119.76l-7.95 7.3c-1.3-.2-3.23-.54-5.58-1.27a40.76 40.76 0 0 1-8.13-3.53c-3-1.7-6.22-4.01-9.45-7.14a60.86 60.86 0 0 1-9.53-12.09 48.11 48.11 0 0 1-4.97-11.07 53.25 53.25 0 0 1-2.18-11.03l6.25-9.14a59.13 59.13 0 0 0 2.28 11.46A52.07 52.07 0 0 0 458 94.77a63.42 63.42 0 0 0 9.94 12.57 48.88 48.88 0 0 0 9.84 7.43 42.47 42.47 0 0 0 8.48 3.67 40 40 0 0 0 5.8 1.32"/>
        <path fill="#8A6625" d="M450.53 71.79l-6.25 9.14a59.02 59.02 0 0 1-.22-8.52c.04-.9.1-1.8.17-2.66l6.24-9.58a66.62 66.62 0 0 0 .06 11.62"/>
        <path fill="#8F6B25" d="M450.46 60.17l-6.23 9.58a63.94 63.94 0 0 1 1.51-9.47l6.3-9.95a60.08 60.08 0 0 0-1.3 7.15c-.1.87-.2 1.77-.28 2.69"/>
        <path fill="#947026" d="M452.03 50.33l-6.29 9.95a55.48 55.48 0 0 1 1.39-4.73c.16-.44.31-.86.47-1.24l6.35-10.19a34.25 34.25 0 0 0-.97 2.76 49.83 49.83 0 0 0-.95 3.45"/>
        <path fill="#997526" d="M453.95 44.12l-6.35 10.2.15-.38.15-.34.14-.33.15-.3.31-.66a33.58 33.58 0 0 0 .8-1.84l6.43-10.34a31.55 31.55 0 0 1-.54 1.25l-.3.66a50.44 50.44 0 0 1-.63 1.34l-.15.36-.16.38"/>
        <path fill="#947026" d="M455.73 40.12l-6.42 10.35a28.98 28.98 0 0 0 .77-2.2l.17-.66 6.46-10.45a16.06 16.06 0 0 1-.68 2.17l-.3.8"/>
        <path fill="#8F6B25" d="M456.7 37.16l-6.45 10.45a17.76 17.76 0 0 0 .23-1.23l.04-.38L457 35.48a9.55 9.55 0 0 1-.28 1.68"/>
        <path fill="#8A6625" d="M456.99 35.48L450.52 46a7.15 7.15 0 0 0 0-1.22L457 34.2a5.83 5.83 0 0 1 .02.94l-.02.33"/>
        <path fill="#856125" d="M456.99 34.21l-6.47 10.57c-.04-.41-.12-.8-.25-1.15a4.09 4.09 0 0 0-1.26-1.82c-.3-.25-.64-.49-1.02-.7l6.36-10.7c.4.22.75.46 1.06.72a4.5 4.5 0 0 1 1.58 3.08"/>
      </g>
    </g>
    <g>
      <path fill="#DEBA27" d="M457.08 30.12c.67 0 1.45.03 2.4.1s2.03.15 3.32.29c1.29.13 2.77.3 4.48.51 1.71.21 3.65.47 5.86.76a497 497 0 0 0 15.62 1.83c2.13.2 4.01.35 5.6.45 1.59.1 2.89.15 3.86.15H498.92a13.5 13.5 0 0 0 2.87-.41l1.05-.24c.31-.06.57-.1.79-.1.11 0 .21 0 .3.03s.16.07.22.13c.07.06.11.13.15.23s.05.21.05.35c.02.4-.17.9-.54 1.56-.37.67-.91 1.5-1.61 2.57a107.33 107.33 0 0 0-5.86 9.94 12.44 12.44 0 0 0-4.98-8.53 16.69 16.69 0 0 0-8.3-3.1 11.35 11.35 0 0 0-6.52 1.61c-1.72 1-3.21 2.37-4.49 3.84a31.94 31.94 0 0 0-3.18 4.45c-.85 1.41-1.49 2.66-1.92 3.47-.48.9-.75 1.56-.78 2.07-.04.5.15.85.6 1.08s1.16.35 2.15.43c.98.07 2.25.1 3.82.13 1.56.02 3.41.13 5.3.29 1.88.15 3.81.36 5.54.57 1.73.22 3.27.45 4.37.67s1.78.4 1.78.55c0 .15-.05.38-.22.7s-.46.76-.9 1.3a21.7 21.7 0 0 1-1.85 1.94c-.8.77-1.82 1.65-3.1 2.67-.76-.88-1.63-1.58-2.6-2.14s-2.01-.97-3.13-1.27c-1.12-.3-2.31-.5-3.54-.62s-2.5-.16-3.8-.16h-1.04l-.35.01c-1.42.03-2.48.09-3.29.24-.8.16-1.35.42-1.73.87a4 4 0 0 0-.74 2c-.14.9-.22 2.09-.33 3.63A76.23 76.23 0 0 0 465.3 85c1.5 5.89 3.7 11 6.4 15.44 2.7 4.45 5.88 8.21 9.35 11.4a58.26 58.26 0 0 0 11.02 7.92c-1.36-.2-3.36-.56-5.81-1.32a42.41 42.41 0 0 1-8.48-3.67 48.84 48.84 0 0 1-9.85-7.43A63.49 63.49 0 0 1 458 94.77a51.83 51.83 0 0 1-6.37-15.94 61.64 61.64 0 0 1-1.36-15.3c.16-4.76.81-9.1 1.64-12.68.82-3.57 1.82-6.4 2.65-8.12a32.93 32.93 0 0 0 1.87-4.57c.41-1.33.6-2.47.59-3.46a4.7 4.7 0 0 0-2.67-4.3 6.66 6.66 0 0 1 1.15-.2 12.64 12.64 0 0 1 1.58-.08z"/>
    </g>
  </g>
</svg>
