<svg xmlns="http://www.w3.org/2000/svg" viewBox="0 0 285.75 95.25" height="360" width="1080">
  <defs>
    <clipPath id="a">
      <path d="M0 452h610V0H0z"/>
    </clipPath>
  </defs>
  <circle r="17.51" cy="47.63" cx="91.68" fill="#fff"/>
  <g transform="translate(3.33 1.01)" fill="#fff" stroke="#fff" stroke-linejoin="round">
    <path stroke-width=".79" d="M108.67 15.88h14.74v5.29h-14.74z"/>
    <rect width="14.72" height="3.97" x="108.69" y="14.2" rx="1.32" ry="1.32" stroke-width=".84"/>
  </g>
  <g transform="matrix(1 0 0 -1 3.33 94.24)" fill="#fff" stroke="#fff" stroke-linejoin="round">
    <path stroke-width=".79" d="M108.67 15.88h14.74v5.29h-14.74z"/>
    <rect width="14.72" height="3.97" x="108.69" y="14.2" rx="1.32" ry="1.32" stroke-width=".84"/>
  </g>
  <path d="M138.78 72.13a2.64 2.64 0 0 0 2.65 2.64h10.49a2.64 2.64 0 0 0 2.64-2.64V60.7a2.64 2.64 0 0 0-2.64-2.65h-10.49a2.64 2.64 0 0 0-2.65 2.65zm3.97-5.63v-.71h7.3v-1.35h.55v3.73h-.55v-1.34h-6.41l1 1.55h-.67zM138.78 53.34a2.64 2.64 0 0 0 2.65 2.65h10.49a2.64 2.64 0 0 0 2.64-2.65V41.91a2.64 2.64 0 0 0-2.64-2.65h-10.49a2.64 2.64 0 0 0-2.65 2.65zm3.97-5.5c0-.8.2-1.43.58-1.9.39-.46.92-.7 1.59-.7.75 0 1.65.53 2.7 1.59l.19.18 1.94 1.95v-3.22h-.95v-.6h1.8v4.97h-.56l-2.34-2.34a5.94 5.94 0 0 0-1.42-1.1 2.97 2.97 0 0 0-1.36-.33c-.52 0-.93.13-1.22.4-.3.27-.44.64-.44 1.12 0 .5.12.87.37 1.14.24.27.6.43 1.1.48v.58h-1.38c-.2-.37-.34-.74-.45-1.11-.1-.38-.15-.75-.15-1.1zM138.78 34.55a2.64 2.64 0 0 0 2.65 2.65h10.49a2.64 2.64 0 0 0 2.64-2.65V23.12a2.64 2.64 0 0 0-2.64-2.65h-10.49a2.64 2.64 0 0 0-2.65 2.65zm3.97-5.74c0-.75.16-1.34.49-1.76a1.6 1.6 0 0 1 1.35-.64c.47 0 .86.15 1.17.44.31.3.52.7.63 1.25a2.4 2.4 0 0 1 .7-1.48 2 2 0 0 1 1.43-.52 2 2 0 0 1 1.66.72c.38.49.57 1.18.57 2.1a5.42 5.42 0 0 1-.52 2.32h-1.5v-.58c.5-.04.87-.2 1.13-.5.25-.3.38-.72.38-1.27 0-.53-.15-.94-.45-1.24a1.7 1.7 0 0 0-1.26-.46c-.6 0-1.06.15-1.37.47-.32.31-.48.77-.48 1.38v.49h-.52v-.26c0-.6-.13-1.05-.37-1.35-.26-.3-.63-.46-1.14-.46-.45 0-.8.12-1.03.37-.24.25-.36.6-.36 1.07 0 .47.1.83.33 1.09.22.25.55.4.98.45v.58h-1.36c-.15-.4-.26-.8-.34-1.16a5.03 5.03 0 0 1-.12-1.05zM157.8 34.55a2.64 2.64 0 0 0 2.64 2.65h10.49a2.64 2.64 0 0 0 2.64-2.65V23.12a2.64 2.64 0 0 0-2.64-2.65h-10.5a2.64 2.64 0 0 0-2.64 2.65zm3.95-6.4a5.05 5.05 0 0 1 .31-1.77h1.27v.58c-.34.05-.6.18-.8.4-.17.23-.26.53-.26.9 0 .68.25 1.17.75 1.5.51.33 1.29.5 2.34.5a2.3 2.3 0 0 1-.77-1.8c0-.76.23-1.37.7-1.81a2.6 2.6 0 0 1 1.88-.67c.79 0 1.41.24 1.89.72.46.48.7 1.12.7 1.92 0 .87-.33 1.54-.97 2.01-.65.47-1.58.7-2.79.7-1.35 0-2.4-.27-3.14-.83a2.76 2.76 0 0 1-1.1-2.34zm3.35.43c0 .5.17.87.52 1.13.34.26.84.39 1.5.39a2.7 2.7 0 0 0 1.57-.4c.37-.26.56-.63.56-1.12 0-.48-.18-.86-.54-1.12-.35-.26-.87-.4-1.54-.4-.66 0-1.18.14-1.53.4a1.3 1.3 0 0 0-.54 1.12zM157.8 53.34a2.64 2.64 0 0 0 2.64 2.65h10.49a2.64 2.64 0 0 0 2.64-2.65V41.91a2.64 2.64 0 0 0-2.64-2.65h-10.5a2.64 2.64 0 0 0-2.64 2.65zm4.1-3.75v-4.08h.84v3.53h2.21a1.95 1.95 0 0 1-.28-.62c-.06-.24-.09-.51-.09-.8 0-.84.23-1.5.7-1.98a2.5 2.5 0 0 1 1.88-.73c.82 0 1.46.25 1.92.74.45.48.68 1.17.68 2.05 0 .35-.04.72-.13 1.09-.09.37-.22.75-.4 1.14h-1.5v-.58a1.6 1.6 0 0 0 1.13-.47c.26-.28.39-.67.39-1.18 0-.54-.18-.96-.54-1.26-.36-.29-.87-.44-1.55-.44-.66 0-1.18.15-1.53.44-.36.3-.54.71-.54 1.26 0 .31.06.58.17.82.1.24.28.44.5.63v.44zM157.8 72.13a2.64 2.64 0 0 0 2.64 2.65h10.49a2.64 2.64 0 0 0 2.64-2.65V60.7a2.64 2.64 0 0 0-2.64-2.65h-10.5a2.64 2.64 0 0 0-2.64 2.65zm3.95-6.22V64.9H167v-1.47h.56v1.47h1.51v-1.24h.55v3.51h-.55v-1.24h-1.51v3.37h-.57zm1.14.01l4.1 2.64v-2.64zM176.8 72.13a2.64 2.64 0 0 0 2.64 2.64h10.5a2.64 2.64 0 0 0 2.64-2.64V60.7a2.64 2.64 0 0 0-2.65-2.65h-10.49a2.64 2.64 0 0 0-2.64 2.65zm4.1-3.4v-5.08h.53l7.19 3.02v.77l-6.87-2.88v3.57h.95v.6zM176.8 53.34a2.64 2.64 0 0 0 2.64 2.65h10.5a2.64 2.64 0 0 0 2.64-2.65V41.91a2.64 2.64 0 0 0-2.65-2.65h-10.49a2.64 2.64 0 0 0-2.64 2.65zm3.96-5.87c0-.75.18-1.34.54-1.77a1.8 1.8 0 0 1 1.46-.64c.47 0 .85.14 1.16.42.3.28.5.67.59 1.2.08-.6.3-1.05.65-1.38.35-.33.8-.49 1.35-.49.72 0 1.28.23 1.67.69.4.46.59 1.11.59 1.97 0 .85-.2 1.5-.59 1.97-.4.45-.95.68-1.67.68-.55 0-1-.16-1.35-.49a2.2 2.2 0 0 1-.65-1.37c-.1.52-.3.92-.6 1.2-.3.27-.68.41-1.15.41a1.8 1.8 0 0 1-1.46-.64 2.66 2.66 0 0 1-.54-1.76zm.51 0c0 .42.13.75.4 1 .26.23.62.35 1.1.35.46 0 .83-.12 1.1-.36.25-.24.38-.57.38-1 0-.42-.13-.75-.39-.99a1.58 1.58 0 0 0-1.1-.36c-.47 0-.83.12-1.1.36-.26.24-.39.57-.39 1zm3.5 0c0 .5.15.88.46 1.15.3.28.73.41 1.28.41s.98-.13 1.29-.4c.3-.28.45-.67.45-1.16 0-.5-.15-.88-.45-1.16-.3-.27-.74-.4-1.3-.4-.54 0-.97.13-1.27.4-.31.28-.46.66-.46 1.16zM176.8 34.55a2.64 2.64 0 0 0 2.64 2.65h10.5a2.64 2.64 0 0 0 2.64-2.65V23.12a2.64 2.64 0 0 0-2.65-2.65h-10.49a2.64 2.64 0 0 0-2.64 2.65zm3.96-5.82c0-.87.33-1.54.98-2a4.7 4.7 0 0 1 2.78-.7c1.35 0 2.4.27 3.13.83a2.75 2.75 0 0 1 1.11 2.34 5.05 5.05 0 0 1-.3 1.77h-1.29v-.57c.35-.05.62-.18.8-.4.19-.23.28-.53.28-.9 0-.67-.25-1.17-.75-1.5-.5-.33-1.29-.5-2.34-.5.26.22.45.49.58.79.12.3.19.64.19 1.01a2.4 2.4 0 0 1-.7 1.82c-.46.44-1.09.66-1.89.66a2.5 2.5 0 0 1-1.87-.72 2.64 2.64 0 0 1-.71-1.93zm.51.04c0 .5.18.87.54 1.13.35.26.87.39 1.53.39a2.6 2.6 0 0 0 1.54-.39c.36-.26.54-.64.54-1.13 0-.49-.17-.86-.52-1.12-.34-.26-.84-.4-1.5-.4a2.7 2.7 0 0 0-1.58.4 1.3 1.3 0 0 0-.55 1.12zM195.8 72.13a2.64 2.64 0 0 0 2.65 2.64h10.49a2.64 2.64 0 0 0 2.64-2.64V60.7a2.64 2.64 0 0 0-2.64-2.65h-10.49a2.64 2.64 0 0 0-2.65 2.65zm4.04-5.16v-1.12l3.15.1-1.8-2.87 1-.63 1.5 3.23 1.53-3.23.97.63-1.8 2.88 3.16-.11v1.12l-3.15-.1 1.8 2.87-.98.63-1.52-3.23-1.52 3.23-.98-.63 1.8-2.87zM195.8 53.34a2.64 2.64 0 0 0 2.65 2.65h10.49a2.64 2.64 0 0 0 2.64-2.65V41.91a2.64 2.64 0 0 0-2.64-2.65h-10.49a2.64 2.64 0 0 0-2.65 2.65zm3.97-5.87c0-.84.35-1.5 1.05-1.97.7-.47 1.69-.7 2.95-.7 1.26 0 2.24.23 2.95.7.7.47 1.05 1.13 1.05 1.97 0 .83-.35 1.49-1.05 1.96-.7.47-1.69.7-2.95.7a5.29 5.29 0 0 1-2.95-.7 2.24 2.24 0 0 1-1.05-1.96zm.5 0c0 .52.3.92.88 1.18.58.26 1.45.4 2.62.4 1.17 0 2.04-.14 2.62-.4.58-.26.87-.66.87-1.18 0-.53-.29-.92-.87-1.19a6.66 6.66 0 0 0-2.62-.39c-1.17 0-2.04.13-2.62.4-.58.26-.87.65-.87 1.18zM198.45 20.47a2.64 2.64 0 0 0-2.65 2.65v11.43a2.64 2.64 0 0 0 2.65 2.65h10.49a2.64 2.64 0 0 0 2.64-2.65V23.12a2.64 2.64 0 0 0-2.64-2.65zm3.59 4.75h.79v1.82l1.72.43v-1.66h.8v1.86l2.14.53v.84l-2.14-.54V30l2.14.55v.83l-2.14-.53v1.6h-.8v-1.8l-1.72-.43v1.64h-.8v-1.84l-2.13-.54v-.83l2.14.54v-1.52l-2.14-.53v-.83l2.14.54zm.79 2.65v1.52l1.72.42v-1.5z" fill="#fff"/>
  <text y="31.42" x="202.22" style="line-height:1.25;-inkscape-font-specification:serif;text-align:center" font-weight="400" font-size="10.58" font-family="serif" letter-spacing="0" word-spacing="0" text-anchor="middle" stroke-width=".26"/>
</svg>
