<svg xmlns="http://www.w3.org/2000/svg" width="566.93" height="178.65">
  <path d="M95.96 11.47C99.7 7.85 104.66 0 124.96 0h49.44c9.84 0 21.03 3.67 24.17 9.76.23-2.96-.33-9.76 6.65-9.76h28.05c3.35 0 6.64 2.54 6.64 5.9v45.65c0 5.97 3.17 5.33 6.76 5.29h21.3V0H369.1v9.54C371.34 7.37 376.7 0 393.22 0h57.81c3.3 0 5.02 4.94 5.17 7.32v3.7C460.63 6.37 468.94 0 483.96 0h49.99c20.11 0 32.98 14.02 32.98 28.67v35.45c0 15.2-14.05 29.63-33.5 29.63h-4.89c9.06 9.81 8.84 15.38 9.6 21.4V172c0 3.15-3.7 6.64-6.64 6.64h-28.8c-4.15 0-6.62-4.53-6.64-6.64v-41.34c0-5.6-5.15-8.85-9.6-8.86h-22.88V172c0 4.56-5.36 6.64-7.38 6.64h-28.05c-2.6 0-6.96.74-6.65-9.48-2.21 3.18-10.4 8.86-23.73 9.48h-51.8c-15.09 0-19.97-6.7-24.13-10.22 0 10.86-.72 10.22-7.38 10.22h-28.05c-4.83 0-5.9-4.78-5.9-7.38-2.78 3.34-10.44 7.4-16.25 7.38h-108.5c-4.8 0-6.62-3.26-6.65-7.38v-58.32l-41.34 65.7H75.3L23.62 93.01C9.3 90.17 0 77.85 0 58.5V30.09C0 17.23 8.88 0 33.16 0H90.8c3.38 0 5.16 4.03 5.16 5.56v5.9zm20.96 81.43c-11.81-1.54-16.86-7.9-20.96-13.74v9.42c-.09 3.65-1.62 5.17-5.16 5.17H71.6l19.94 36.9 25.38-37.75z"/>
  <linearGradient id="a" gradientUnits="userSpaceOnUse" x1="7.48" y1="846.32" x2="561.12" y2="846.32" gradientTransform="translate(-.1 -757)">
    <stop offset="0" stop-color="#f090a7"/>
    <stop offset=".15" stop-color="#ef7b75"/>
    <stop offset=".26" stop-color="#ee6e5e"/>
    <stop offset=".59" stop-color="#fce72c"/>
    <stop offset=".81" stop-color="#acdee4"/>
    <stop offset="1" stop-color="#a3ddf2"/>
  </linearGradient>
  <path fill="url(#a)" d="M279.77 91.54v22.88h-64.96c-7.42 0-7 7.38 0 7.38h42.82c33.36 0 33.35 49.46 0 49.46h-67.18v-22.14h64.22c7.7 0 7.17-7.39 0-7.39h-39.86c-34.27 0-34.15-50.2 0-50.2h64.96zm149.12 0h76.03c13.65 0 25.8 10.6 25.84 25.1v54.62h-27.32v-47.24c0-7.89-4.69-9.48-10.33-9.6H456.2v56.84h-27.31V91.54zm-71.6 22.23c-7.26.04-10.34 4.6-10.34 10.25v14.76c0 6.13 5.27 10.33 10.34 10.33h30.26c3.6 0 9.6-2.43 9.6-10.33v-14.76c0-4.97-3.02-10.47-9.6-10.43l-30.26.18zm-10.34-22.23h50.94c16.17 0 26.57 11 26.57 24.35v29.53c0 20.94-18.1 25.84-26.57 25.84h-50.94c-19.13 0-27.31-15.4-27.31-25.84V115.9c0-17 15.21-24.36 27.3-24.36zm-59.8 0h27.32v79.72h-27.31V91.54zm-131.4 0h27.32v79.72h-27.31V91.54zm-124 0H62l29.52 51.67 34.7-51.67h25.1l-47.25 79.72H79.27L31.74 91.54zm243.6-84.16h86.36v19.93h-59.8v7.39h59.8v19.93h-59.8c0 7.32 5.4 10.33 11.08 10.33h48.72v21.4h-62.74c-14.06 0-23.73-11.66-23.7-24.35l.08-54.63zm-69.4 0h26.58v47.25c0 6.78 5.11 10.4 11.07 10.33h28.8v21.4h-41.35c-11.73 0-25.1-5.27-25.1-24.35V7.38zm245.09 0h-59.8c-17.2 0-24.32 15.82-24.36 24.36v29.53c0 19.15 15.76 25.95 24.36 25.83h59.8V64.96h-45.77c-3.26 0-11.08-2.41-11.08-9.6v-15.5c0-7.38 5.56-10.33 11.08-10.33h45.77V7.38zm42.8 22.24c-7.25.04-10.33 4.6-10.33 10.24v14.77c0 6.13 5.28 10.33 10.34 10.33h30.26c3.6 0 9.6-2.43 9.6-10.33V39.86c0-4.96-3.02-10.46-9.6-10.42l-30.26.18zM483.52 7.38h50.94c16.17 0 26.57 11.01 26.57 24.36v29.53c0 20.94-18.09 25.83-26.57 25.83h-50.94c-19.13 0-27.31-15.39-27.31-25.83V31.74c0-17 15.22-24.36 27.31-24.36zm-349.9 22.24c-7.26.04-10.33 4.6-10.33 10.24v14.77c0 6.13 5.27 10.33 10.33 10.33h30.27c3.58 0 9.6-2.43 9.6-10.33V39.86c0-4.96-3.03-10.46-9.6-10.42l-30.27.18zM123.28 7.38h50.93c16.17 0 26.58 11.01 26.58 24.36v29.53c0 20.94-18.1 25.83-26.58 25.83h-50.93c-19.14 0-26.58-15.39-26.58-25.83V31.74c0-17 14.48-24.36 26.58-24.36zm-31.75 0H31.74c-17.2 0-24.32 15.83-24.36 24.36v29.53c0 19.15 15.76 25.95 24.36 25.83h59.8V64.97H45.02c-3.26 0-11.07-2.41-11.07-9.6v-15.5c0-7.38 5.56-10.33 11.07-10.33h46.5V7.38z"/>
</svg>
