<svg xmlns="http://www.w3.org/2000/svg" viewBox="0 0 285.75 95.25" height="360" width="1080">
  <defs>
    <clipPath id="a">
      <path d="M0 452h610V0H0z"/>
    </clipPath>
  </defs>
  <g fill="#fff">
    <rect ry="2.65" rx="2.65" y="23.56" x="48.13" height="5.26" width="14.82"/>
    <circle r="8.82" cy="62.93" cx="205.12"/>
    <circle r="8.82" cy="46.46" cx="228.8"/>
    <circle r="4.7" cy="14.66" cx="228.19"/>
    <path d="M69.1 43.53a19.3 19.3 0 0 0-19.3 19.3 19.3 19.3 0 0 0 19.3 19.29 19.3 19.3 0 0 0 19.3-19.3 19.3 19.3 0 0 0-19.3-19.3zm0 4.86a14.43 14.43 0 0 1 14.43 14.43A14.43 14.43 0 0 1 69.1 77.26a14.43 14.43 0 0 1-14.43-14.44A14.43 14.43 0 0 1 69.1 48.4z"/>
    <circle r="11.81" cy="62.82" cx="69.1"/>
  </g>
</svg>
