<svg xmlns="http://www.w3.org/2000/svg" width="566.93" height="167.47">
  <g fill="#fff">
    <path d="M33.98 108.93l-.07-41.59h5.39v49.8H33.9L5.25 75.22l.13 41.92H0v-49.8h5.65l28.33 41.59zM45.31 67.34h26.42v4.91h-20.9v17.3h20.76v4.91H50.83v17.77h20.9v4.9H45.3V67.35zM74.24 92.38c0-15.35 11.91-25.91 25.98-25.91 14.6 0 25.97 11.17 25.97 25.77s-11.3 25.77-25.97 25.77c-14.74 0-25.98-11.37-25.98-25.57v-.06zm5.59-.14c0 11.7 8.81 20.86 20.45 20.86 11.78 0 20.4-9.48 20.4-20.86 0-11.37-8.62-20.86-20.46-20.86-11.71 0-20.4 9.28-20.4 20.8v.06zM172.16 80.26a21.23 21.23 0 0 0-5.59-5.38 20.12 20.12 0 0 0-11.57-3.5c-10.9 0-20.39 8.34-20.39 20.8 0 12.64 9.56 20.99 20.46 20.99 5.25 0 9.89-1.82 13.32-4.51 3.5-2.76 5.92-6.53 6.73-10.43h-27.1v-4.58h33.56c-.07 2.9-.74 6.53-2.22 9.63-4.3 9.35-14.27 14.8-24.3 14.8-14.53 0-26.04-11.17-26.04-25.9 0-14.95 11.71-25.71 26.11-25.71 10.1 0 19.45 5.65 23.35 13.79h-6.32zM184.25 67.34h27.59v4.91h-22.07v17.3h21.94v4.91h-21.94v17.77h22.07v4.9h-27.59V67.35zM214.06 92.38c0-15.35 11.91-25.91 25.98-25.91 14.6 0 25.97 11.17 25.97 25.77s-11.3 25.77-25.97 25.77c-14.74 0-25.98-11.37-25.98-25.57v-.06zm5.59-.14c0 11.7 8.81 20.86 20.45 20.86 11.78 0 20.4-9.48 20.4-20.86 0-11.37-8.62-20.86-20.46-20.86-11.71 0-20.4 9.28-20.4 20.8v.06z"/>
  </g>
  <g fill="#fff">
    <path d="M327.47 92.38c0-15.35 11.9-25.91 25.97-25.91 14.6 0 25.98 11.17 25.98 25.77s-11.3 25.77-25.98 25.77c-14.73 0-25.97-11.37-25.97-25.57v-.06zm5.58-.14c0 11.7 8.82 20.86 20.46 20.86 11.78 0 20.39-9.48 20.39-20.86 0-11.37-8.61-20.86-20.46-20.86-11.7 0-20.39 9.28-20.39 20.8v.06zM435 103.75c-3.23 7.67-11.9 14.27-22.88 14.27-14.73 0-25.97-11.38-25.97-25.78 0-14.2 10.97-25.77 25.9-25.77 12.31 0 20.06 8.21 22.95 14.54h-6c-1.68-2.97-7.33-9.63-16.95-9.63-11.64 0-20.39 9.22-20.39 20.8 0 11.77 8.81 20.92 20.4 20.92 10.42 0 15.74-7.47 16.95-9.35h6zM489.64 67.34h27.6v4.91h-22.08v17.3h21.94v4.91h-21.94v17.77h22.08v4.9h-27.6V67.35zM545.23 72.25h-16.05v-4.9h37.75v4.9H550.8v44.89h-5.58V72.25z"/>
  </g>
  <path fill="#F10000" d="M214.25 155.51c-2.06 6.98-8.63 11.96-16.53 11.96a17.49 17.49 0 0 1-17.7-17.57 17.4 17.4 0 0 1 17.66-17.48 17.2 17.2 0 0 1 16.56 12.14h-7.16a10.5 10.5 0 0 0-9.45-6.16c-6.57 0-10.81 5.52-10.81 11.5 0 6.16 4.42 11.6 10.86 11.6 6.02 0 8.76-4.75 9.4-5.99h7.16zM232.45 150.22c0-10.82 8.31-17.8 17.71-17.8 10.23 0 17.76 7.94 17.76 17.52s-7.49 17.52-17.8 17.52a17.35 17.35 0 0 1-17.67-17.2v-.04zm6.8-.28c0 6.17 4.43 11.55 11 11.55 6.85 0 10.87-5.93 10.87-11.5 0-5.66-4.02-11.6-10.91-11.6-6.76 0-10.96 5.57-10.96 11.5v.05zM288 133.06h6.8v27.8h11.08v5.97H288v-33.77zM322.6 150.22c0-10.82 8.31-17.8 17.71-17.8 10.23 0 17.76 7.94 17.76 17.52s-7.49 17.52-17.8 17.52a17.35 17.35 0 0 1-17.66-17.2v-.04zm6.8-.28c0 6.17 4.43 11.55 11 11.55 6.85 0 10.87-5.93 10.87-11.5 0-5.66-4.02-11.6-10.91-11.6-6.75 0-10.95 5.57-10.95 11.5v.05z"/>
  <path fill="#fff" d="M475.57 117.14h6.94l-25.87-24.97 23.78-24.83h-6.06l-26.1 27v-27h-5.52v49.8h5.52V100.9l5.08-5.3 22.23 21.53z"/>
  <path fill="#F10000" d="M385.8 133.06c3.8.1 7.16.29 10.18 2.82.78.64 1.51 1.46 2.05 2.29a11.41 11.41 0 0 1 1.7 5.99c0 .82-.1 3.11-1.36 5.2-.34.54-.78 1.27-1.8 2.2a10.84 10.84 0 0 1-2.73 1.7c-.83.34-1.65.58-3.46.97l9.94 13.2h-7.65l-9.54-13v13h-6.86v-34.37h9.54zm-2.67 16.3h3.4c.4 0 .74 0 1.13-.04.73 0 3.16-.1 4.77-2.04a4.93 4.93 0 0 0 1.07-3.17 5.2 5.2 0 0 0-.92-3.07c-1.52-2.04-3.85-2.23-6.2-2.29h-3.25v10.62z"/>
  <path fill="none" d="M302.8 120.94l-32.47-64.56c.06-.04.11-.08.17-.1l8.09-4.15 11.43-5.83c4-2.06 8.21-3.3 12.75-3.15 3.1.1 5.93 1 8.41 2.9a17.02 17.02 0 0 1 4.94 6.3 17.56 17.56 0 0 1 1.98 7.38 17.65 17.65 0 0 1-2.99 9.98 29.8 29.8 0 0 1-4.54 5.58c-1.2 1.14-2.5 2.2-3.74 3.3l-13.53-9.6 2.54-9.29h12.94v-9.82l-19.9.2-7.2 20.34 23.16 19.15a46 46 0 0 0 8.71-4.38c4.37-2.84 8-6.4 10.67-10.89a26.83 26.83 0 0 0 3.8-13.55c.04-3-.41-5.95-1.3-8.83a25.04 25.04 0 0 0-5.75-10.16 26.84 26.84 0 0 0-19.08-8.62c-4.45-.16-8.66.84-12.64 2.84-1.79.9-3.54 1.87-5.34 2.74-4 1.94-8.04 3.84-12.06 5.75l-10.64 5.05-3.6 1.7 36.1 73.63 9.08-3.9z"/>
  <path fill="#F10000" d="M302.8 120.94l-9.1 3.91-36.1-73.62 3.6-1.71 10.65-5.05c4.02-1.9 8.05-3.8 12.06-5.75 1.8-.87 3.55-1.84 5.34-2.74 3.97-2 8.18-3 12.63-2.84 7.53.27 13.9 3.19 19.08 8.62a25.02 25.02 0 0 1 5.76 10.16 28.52 28.52 0 0 1 1.3 8.83 26.81 26.81 0 0 1-3.8 13.56 33.23 33.23 0 0 1-10.67 10.88 46.04 46.04 0 0 1-8.72 4.38l-23.15-19.15 7.2-20.34 19.9-.2v9.83h-12.95L293.3 69l13.53 9.59c1.25-1.1 2.54-2.15 3.74-3.3a29.75 29.75 0 0 0 4.55-5.58 17.64 17.64 0 0 0 2.98-9.98 17.61 17.61 0 0 0-1.98-7.38 17 17 0 0 0-4.93-6.3 14.28 14.28 0 0 0-8.41-2.9c-4.55-.15-8.75 1.09-12.76 3.15l-11.43 5.84-8.09 4.13-.16.11 32.46 64.56zM310.44 26.53l-6.42-1.33L307.79 0l11.8 1.72-9.15 24.8z"/>
  <path fill="#07B8F9" d="M345.54 19.68l6.24 10.11-20.47 12.67-4.28-6.39c6.17-5.46 12.32-10.9 18.5-16.4z"/>
  <path fill="#069211" d="M329.07 6.48l8.95 6.2L321.9 31.9l-5.69-3.5 12.87-21.93z"/>
  <g fill="#fff">
    <path d="M412.07 158.44h-1.98v-1.62h5.8v1.62h-1.97v7.54h-1.85v-7.54zM416.85 165.98v-9.16h2.49l2.35 6.57 2.31-6.57h2.5v9.16h-1.7l.05-7.34-2.57 7.34h-1.21l-2.57-7.34.05 7.34h-1.7z"/>
  </g>
</svg>
