<svg xmlns="http://www.w3.org/2000/svg" width="565.2" height="186.79" viewBox="1.74 0 565.2 186.79">
  <linearGradient id="a" gradientUnits="userSpaceOnUse" x1="-749.87" y1="1590.82" x2="-1296.23" y2="1590.82" gradientTransform="translate(1307.82 -1510.63)">
    <stop offset="0" stop-color="#013a67"/>
    <stop offset="1" stop-color="#6cd1ff"/>
  </linearGradient>
  <path fill="url(#a)" d="M491.2 27.66l45.58.29 21.17-22.02-78-.29-73.29 73.58-10.26.56.29-70.78-41.21 42.05-9.86 1.17V9.37l-84.36 83.47-10.48 1.12.89-85.88-73.73 74.86-9.69.05-1.13-71.9-39.78 40.06-11.06.57.42-42.78L11.6 114.9l34.6-.57 45.4-44.05h8.7l-.42 44.26 36.16-37h8.64v37.69l-39.79 39.5 38.13-.56 75.02-75.87h10.1v37.27l46.76.28 45.22-45.5 8.72-.56-.13 43 36.13-36.12h8.54l.56 36.43-.74 1.9h109.18l20.9-21.19-67.88-1.15-.62-9.85 10.58-11.14h25.6l22.26-22.54-13.45-.57v-9.48z"/>
  <linearGradient id="b" gradientUnits="userSpaceOnUse" x1="-1243.29" y1="1574.01" x2="-1247.24" y2="1570.06" gradientTransform="translate(1307.82 -1510.63)">
    <stop offset="0" stop-color="#08406f"/>
    <stop offset="1" stop-color="#60c5f5"/>
  </linearGradient>
  <path fill="url(#b)" d="M114.7 13.21L13.57 114.33 2.1 118.64s-.6.04-.28-.44C1.83 118.2 119.1.9 119.31.73c.2-.19.46-.03.46-.03L114.7 13.2z"/>
  <linearGradient id="c" gradientUnits="userSpaceOnUse" x1="-1184.7" y1="1649.13" x2="-1188.33" y2="1645.5" gradientTransform="translate(1307.82 -1510.63)">
    <stop offset="0" stop-color="#08406f"/>
    <stop offset="1" stop-color="#60c5f5"/>
  </linearGradient>
  <path fill="url(#c)" d="M145.81 115.8l-37.51 37.52-11.07 4.45s-.58.07-.24-.4l43.93-43.75 4.9 2.18z"/>
  <linearGradient id="d" gradientUnits="userSpaceOnUse" x1="-1282.28" y1="1629.27" x2="-1282.28" y2="1624.96" gradientTransform="translate(1307.82 -1510.63)">
    <stop offset="0" stop-color="#08406f"/>
    <stop offset="1" stop-color="#60c5f5"/>
  </linearGradient>
  <path fill="url(#d)" d="M48.98 118.64H2.11l11.5-4.31h32.6z"/>
  <linearGradient id="e" gradientUnits="userSpaceOnUse" x1="-1186.81" y1="1668.4" x2="-1186.81" y2="1663.94" gradientTransform="translate(1307.82 -1510.63)">
    <stop offset="0" stop-color="#08406f"/>
    <stop offset="1" stop-color="#60c5f5"/>
  </linearGradient>
  <path fill="url(#e)" d="M144.78 157.77H97.23l11.07-4.46h33.87z"/>
  <linearGradient id="f" gradientUnits="userSpaceOnUse" x1="-880.31" y1="1629.24" x2="-880.31" y2="1624.78" gradientTransform="translate(1307.82 -1510.63)">
    <stop offset="0" stop-color="#08406f"/>
    <stop offset="1" stop-color="#60c5f5"/>
  </linearGradient>
  <path fill="url(#f)" d="M484.79 118.61l-114.55-.03 3.81-4.43h107.48z"/>
  <linearGradient id="g" gradientUnits="userSpaceOnUse" x1="-1056.94" y1="1630.11" x2="-1056.94" y2="1625.64" gradientTransform="translate(1307.82 -1510.63)">
    <stop offset="0" stop-color="#08406f"/>
    <stop offset="1" stop-color="#60c5f5"/>
  </linearGradient>
  <path fill="url(#g)" d="M277.05 119.48l-51.52-.02c-.34 0-.81-.34-.81-.34l4.56-4.11h45.05l2.72 4.47z"/>
  <linearGradient id="h" gradientUnits="userSpaceOnUse" x1="-785.72" y1="1517.41" x2="-785.72" y2="1512.54" gradientTransform="translate(1307.82 -1510.63)">
    <stop offset="0" stop-color="#08406f"/>
    <stop offset="1" stop-color="#60c5f5"/>
  </linearGradient>
  <path fill="url(#h)" d="M477.38 1.91h88.65c.79 0 .79.32.79.32l-10.57 4.55h-75.17l-3.7-4.87z"/>
  <linearGradient id="i" gradientUnits="userSpaceOnUse" x1="-792.99" y1="1541.93" x2="-792.99" y2="1537.72" gradientTransform="translate(1307.82 -1510.63)">
    <stop offset="0" stop-color="#08406f"/>
    <stop offset="1" stop-color="#60c5f5"/>
  </linearGradient>
  <path fill="url(#i)" d="M539.04 31.3H492.7l-2.07-4.2h45.3z"/>
  <linearGradient id="j" gradientUnits="userSpaceOnUse" x1="-848.63" y1="1585.45" x2="-848.63" y2="1581.73" gradientTransform="translate(1307.82 -1510.63)">
    <stop offset="0" stop-color="#08406f"/>
    <stop offset="1" stop-color="#60c5f5"/>
  </linearGradient>
  <path fill="url(#j)" d="M473.59 74.82H448.9l-4.12-3.72h25.61z"/>
  <linearGradient id="k" gradientUnits="userSpaceOnUse" x1="-817.84" y1="1560.33" x2="-817.84" y2="1554.78" gradientTransform="translate(1307.82 -1510.63)">
    <stop offset="0" stop-color="#08406f"/>
    <stop offset="1" stop-color="#60c5f5"/>
  </linearGradient>
  <path fill="url(#k)" d="M491.8 49.7h-13.58l-1.2-5.55h25.47c.35-.04.45.15.45.15l-11.14 5.4z"/>
  <linearGradient id="l" gradientUnits="userSpaceOnUse" x1="-1233.61" y1="1604.05" x2="-1237.15" y2="1600.5" gradientTransform="translate(1307.82 -1510.63)">
    <stop offset="0" stop-color="#08406f"/>
    <stop offset="1" stop-color="#60c5f5"/>
  </linearGradient>
  <path fill="url(#l)" d="M96.87 70.63l-47.89 48.01-2.77-4.3 46.6-46.38c2-2.3 4.67-1.73 4.67-1.73l-.6 4.4z"/>
  <linearGradient id="m" gradientUnits="userSpaceOnUse" x1="-1187.74" y1="1539.59" x2="-1193.11" y2="1539.59" gradientTransform="translate(1307.82 -1510.63)">
    <stop offset="0" stop-color="#08406f"/>
    <stop offset="1" stop-color="#60c5f5"/>
  </linearGradient>
  <path fill="url(#m)" d="M114.71 51.67V13.19L119.77.7s.3.08.3.57v53.65l-.3 2.31s-4.5.03-5.06-5.55z"/>
  <linearGradient id="n" gradientUnits="userSpaceOnUse" x1="-1134.92" y1="1555.18" x2="-1141.58" y2="1555.18" gradientTransform="translate(1307.82 -1510.63)">
    <stop offset="0" stop-color="#08406f"/>
    <stop offset="1" stop-color="#60c5f5"/>
  </linearGradient>
  <path fill="url(#n)" d="M172.9 88.84s-6.54 1.95-6.62-5.62c-.08-7.31-.01-69.3-.01-69.3L171.48.04s.18-.03.18.73l-.01 81.79 1.25 6.3z"/>
  <linearGradient id="o" gradientUnits="userSpaceOnUse" x1="-1052.01" y1="1560.44" x2="-1058" y2="1560.44" gradientTransform="translate(1307.82 -1510.63)">
    <stop offset="0" stop-color="#08406f"/>
    <stop offset="1" stop-color="#60c5f5"/>
  </linearGradient>
  <path fill="url(#o)" d="M255.8 98.91s-5.88.58-5.95-6.09l-.03-80.06L254.47.69s.58.15.58.9l-.02 91.14.78 6.18z"/>
  <linearGradient id="p" gradientUnits="userSpaceOnUse" x1="-958.72" y1="1539.84" x2="-964.42" y2="1539.84" gradientTransform="translate(1307.82 -1510.63)">
    <stop offset="0" stop-color="#08406f"/>
    <stop offset="1" stop-color="#60c5f5"/>
  </linearGradient>
  <path fill="url(#p)" d="M349.1 57.42s-4.87.46-5.7-4.56V13.14L347.79.99s.56.14.56.89v49.66l.75 5.88z"/>
  <linearGradient id="q" gradientUnits="userSpaceOnUse" x1="-907.04" y1="1553.66" x2="-912.84" y2="1553.66" gradientTransform="translate(1307.82 -1510.63)">
    <stop offset="0" stop-color="#08406f"/>
    <stop offset="1" stop-color="#60c5f5"/>
  </linearGradient>
  <path fill="url(#q)" d="M400.78 85.33s-4.94.65-5.8-4.37v-67.7L399.83.7s.27.22.27 1.7v77.23l.68 5.7z"/>
  <linearGradient id="r" gradientUnits="userSpaceOnUse" x1="-1206.23" y1="1604.16" x2="-1211.35" y2="1604.16" gradientTransform="translate(1307.82 -1510.63)">
    <stop offset="0" stop-color="#08406f"/>
    <stop offset="1" stop-color="#60c5f5"/>
  </linearGradient>
  <path fill="url(#r)" d="M97.76 120.82s-.83-.07-.81-1.15l-.08-49.04s-1.22-1.57.61-4.4c.55.14 3.5.73 4.1 4.26v40.37l-3.82 9.96z"/>
  <linearGradient id="s" gradientUnits="userSpaceOnUse" x1="-1186.75" y1="1609.06" x2="-1190.3" y2="1605.5" gradientTransform="translate(1307.82 -1510.63)">
    <stop offset="0" stop-color="#08406f"/>
    <stop offset="1" stop-color="#60c5f5"/>
  </linearGradient>
  <path fill="url(#s)" d="M140.84 78.6l-41.88 41.94c-.35.37-1.2.28-1.2.28l3.82-9.97 36.06-36.08s1.34-1.73 3.83-1.64l-.63 5.47z"/>
  <linearGradient id="t" gradientUnits="userSpaceOnUse" x1="-754.56" y1="1527.72" x2="-758.23" y2="1524.05" gradientTransform="translate(1307.82 -1510.63)">
    <stop offset="0" stop-color="#08406f"/>
    <stop offset="1" stop-color="#60c5f5"/>
  </linearGradient>
  <path fill="url(#t)" d="M566.6 3.64L539.05 31.3l-3.11-4.2 20.31-20.33 10.58-4.54s.35.84-.21 1.4z"/>
  <linearGradient id="u" gradientUnits="userSpaceOnUse" x1="-1162.01" y1="1605.1" x2="-1167.4" y2="1605.1" gradientTransform="translate(1307.82 -1510.63)">
    <stop offset="0" stop-color="#08406f"/>
    <stop offset="1" stop-color="#60c5f5"/>
  </linearGradient>
  <path fill="url(#u)" d="M140.92 113.62l-.07-35.03s-1.3-2.63.63-5.45c.59-.01 3.7.42 4.34 4.14v38.52l-4.9-2.18z"/>
  <linearGradient id="v" gradientUnits="userSpaceOnUse" x1="-1159.22" y1="1542.23" x2="-1163.71" y2="1537.74" gradientTransform="translate(1307.82 -1510.63)">
    <stop offset="0" stop-color="#08406f"/>
    <stop offset="1" stop-color="#60c5f5"/>
  </linearGradient>
  <path fill="url(#v)" d="M166.27 13.93L124.8 55.39c-1.99 1.99-5.05 1.84-5.05 1.84-1.8-3.54.32-6.07.32-6.07S170.58.67 170.94.29c.33-.42.54-.26.54-.26l-5.21 13.9z"/>
  <linearGradient id="w" gradientUnits="userSpaceOnUse" x1="-1092.15" y1="1557.54" x2="-1096.31" y2="1553.38" gradientTransform="translate(1307.82 -1510.63)">
    <stop offset="0" stop-color="#08406f"/>
    <stop offset="1" stop-color="#60c5f5"/>
  </linearGradient>
  <path fill="url(#w)" d="M249.81 12.76l-74.37 74.38c-1.55 1.55-2.54 1.7-2.54 1.7-3.78-1.88-1.21-6.26-1.21-6.26S252.34 1.95 252.7 1.57c.94-1.1 1.76-.88 1.76-.88l-4.66 12.07z"/>
  <linearGradient id="x" gradientUnits="userSpaceOnUse" x1="-1003.68" y1="1563.03" x2="-1008.07" y2="1558.64" gradientTransform="translate(1307.82 -1510.63)">
    <stop offset="0" stop-color="#08406f"/>
    <stop offset="1" stop-color="#60c5f5"/>
  </linearGradient>
  <path fill="url(#x)" d="M343.4 13.14L259.23 97.3c-1.43 1.43-3.42 1.6-3.42 1.6-3.12-1.55-.78-6.17-.78-6.17s90.61-90.5 90.98-90.88c.94-1.1 1.78-.86 1.78-.86l-4.4 12.15z"/>
  <linearGradient id="y" gradientUnits="userSpaceOnUse" x1="-931.03" y1="1542.08" x2="-935.24" y2="1537.87" gradientTransform="translate(1307.82 -1510.63)">
    <stop offset="0" stop-color="#08406f"/>
    <stop offset="1" stop-color="#60c5f5"/>
  </linearGradient>
  <path fill="url(#y)" d="M394.98 13.25l-42.51 42.52c-1.43 1.43-3.37 1.65-3.37 1.65-2.93-1.9-.6-5.98-.6-5.98s49.6-49.69 49.96-50.07c1.04-1.03 1.37-.66 1.37-.66l-4.85 12.54z"/>
  <linearGradient id="z" gradientUnits="userSpaceOnUse" x1="-819.26" y1="1570.48" x2="-822.72" y2="1567.03" gradientTransform="translate(1307.82 -1510.63)">
    <stop offset="0" stop-color="#08406f"/>
    <stop offset="1" stop-color="#60c5f5"/>
  </linearGradient>
  <path fill="url(#z)" d="M502.96 45.45l-29.37 29.37-3.19-3.72 21.4-21.4 11.13-5.4s.42.3.03 1.15z"/>
  <linearGradient id="A" gradientUnits="userSpaceOnUse" x1="-808.19" y1="1614.6" x2="-812.15" y2="1610.64" gradientTransform="translate(1307.82 -1510.63)">
    <stop offset="0" stop-color="#08406f"/>
    <stop offset="1" stop-color="#60c5f5"/>
  </linearGradient>
  <path fill="url(#A)" d="M513.63 89.96l-28.84 28.65-3.26-4.47 20.05-20.04 12.29-5.39c0 .01.4.44-.24 1.25z"/>
  <linearGradient id="B" gradientUnits="userSpaceOnUse" x1="-866.16" y1="1556.84" x2="-870.45" y2="1552.55" gradientTransform="translate(1307.82 -1510.63)">
    <stop offset="0" stop-color="#08406f"/>
    <stop offset="1" stop-color="#60c5f5"/>
  </linearGradient>
  <path fill="url(#B)" d="M481.08 6.78l-76.9 76.91a6.25 6.25 0 0 1-3.4 1.64c-2.45-3.09-.7-5.97-.7-5.97l77.3-77.44 3.7 4.86z"/>
  <linearGradient id="C" gradientUnits="userSpaceOnUse" x1="-821.14" y1="1551.87" x2="-826.25" y2="1546.76" gradientTransform="translate(1307.82 -1510.63)">
    <stop offset="0" stop-color="#08406f"/>
    <stop offset="1" stop-color="#60c5f5"/>
  </linearGradient>
  <path fill="url(#C)" d="M492.7 31.3L480.02 44.1c-2.77 2.28-1.8 5.6-1.8 5.6-2.25-.2-3.13-2.06-3.41-3.69a5.3 5.3 0 0 1 1.35-4.46l14.47-14.44 2.07 4.2z"/>
  <linearGradient id="D" gradientUnits="userSpaceOnUse" x1="-1122.02" y1="1627.55" x2="-1125.67" y2="1623.91" gradientTransform="translate(1307.82 -1510.63)">
    <stop offset="0" stop-color="#08406f"/>
    <stop offset="1" stop-color="#60c5f5"/>
  </linearGradient>
  <path fill="url(#D)" d="M142.17 153.31l77.91-77.94s1.44-1.87 4.27-1.77l-.46 5.23-79.1 78.94-2.62-4.46z"/>
  <linearGradient id="E" gradientUnits="userSpaceOnUse" x1="-1004.97" y1="1604.36" x2="-1008.61" y2="1600.72" gradientTransform="translate(1307.82 -1510.63)">
    <stop offset="0" stop-color="#08406f"/>
    <stop offset="1" stop-color="#60c5f5"/>
  </linearGradient>
  <path fill="url(#E)" d="M274.33 115l47.64-47.66s1.44-1.87 4.27-1.77l-.86 5.62-48.32 48.3-2.73-4.49z"/>
  <linearGradient id="F" gradientUnits="userSpaceOnUse" x1="-958.11" y1="1608.3" x2="-961.62" y2="1604.79" gradientTransform="translate(1307.82 -1510.63)">
    <stop offset="0" stop-color="#08406f"/>
    <stop offset="1" stop-color="#60c5f5"/>
  </linearGradient>
  <path fill="url(#F)" d="M330.13 110.25l36.77-36.79c.85-.84 1.78-1.77 3.4-1.77l-.1 5.5-43.09 43.04c-.57.57-1.02.4-1.02.4l4.04-10.38z"/>
  <linearGradient id="G" gradientUnits="userSpaceOnUse" x1="-937.19" y1="1628.86" x2="-941.62" y2="1624.44" gradientTransform="translate(1307.82 -1510.63)">
    <stop offset="0" stop-color="#08406f"/>
    <stop offset="1" stop-color="#60c5f5"/>
  </linearGradient>
  <path fill="url(#G)" d="M361.98 118.06l7.25-7.28 5.56 2.32-.73 1.05-3.82 4.44-.27.3h-7.72c-.34.01-.52-.27-.52-.27s-.15-.15.25-.56z"/>
  <linearGradient id="H" gradientUnits="userSpaceOnUse" x1="-1078.54" y1="1606.99" x2="-1084.58" y2="1606.99" gradientTransform="translate(1307.82 -1510.63)">
    <stop offset="0" stop-color="#08406f"/>
    <stop offset="1" stop-color="#60c5f5"/>
  </linearGradient>
  <path fill="url(#H)" d="M223.98 117.34l-.09-38.52s-1.73-2.01.46-5.22c.67-.01 4.2.48 4.93 4.7V115l-4.56 4.12s-.73-.48-.74-1.78z"/>
  <linearGradient id="I" gradientUnits="userSpaceOnUse" x1="-977.7" y1="1603.74" x2="-982.91" y2="1603.74" gradientTransform="translate(1307.82 -1510.63)">
    <stop offset="0" stop-color="#08406f"/>
    <stop offset="1" stop-color="#60c5f5"/>
  </linearGradient>
  <path fill="url(#I)" d="M325.45 119.94l-.08-48.75s-1.47-2.68.87-5.62c.6 0 3.24.48 3.88 4.7v39.98l-4.02 10.4c0-.01-.6-.15-.65-.7z"/>
  <linearGradient id="J" gradientUnits="userSpaceOnUse" x1="-933.03" y1="1603.03" x2="-939.27" y2="1603.03" gradientTransform="translate(1307.82 -1510.63)">
    <stop offset="0" stop-color="#08406f"/>
    <stop offset="1" stop-color="#60c5f5"/>
  </linearGradient>
  <path fill="url(#J)" d="M369.23 110.77V78.15s-2.1-3.38 1.07-6.46c.7 0 4.13.24 4.49 4.32v37.09l-5.56-2.33z"/>
  <linearGradient id="K" gradientUnits="userSpaceOnUse" x1="-867.36" y1="1594.9" x2="-871.78" y2="1590.48" gradientTransform="translate(1307.82 -1510.63)">
    <stop offset="0" stop-color="#08406f"/>
    <stop offset="1" stop-color="#60c5f5"/>
  </linearGradient>
  <path fill="url(#K)" d="M448.91 74.82L435.46 88.3l-3.84 4.8c-3.9-2.45-1.96-6.86-.92-7.92l14.1-14.08 4.11 3.72z"/>
  <linearGradient id="L" gradientUnits="userSpaceOnUse" x1="-835.08" y1="1604.73" x2="-835.08" y2="1598.93" gradientTransform="translate(1307.82 -1510.63)">
    <stop offset="0" stop-color="#08406f"/>
    <stop offset="1" stop-color="#60c5f5"/>
  </linearGradient>
  <path fill="url(#L)" d="M501.58 94.1h-66.4c-2.5-.2-3.57-1-3.57-1 0-3.56 3.85-4.8 3.85-4.8h77.74c.55 0 .67.42.67.42l-12.29 5.38z"/>
  <path fill="#C0392B" d="M199.03 180.49c3.23 0 5.85 2.92 5.85 6.15h-17.97v-58.28h5.96v52.13h6.16zM215.7 186.64a6.3 6.3 0 0 1-6.05-6.15v-40.46h6.06v46.61zM233.68 140.03h-6.16v-11.67h-6.05v58.28h12.2c3.24 0 5.86-2.92 5.86-6.15v-34.75c0-3.24-2.62-5.71-5.85-5.71zm-.1 40.46h-6.06v-34.65h6.06v34.65z"/>
  <path fill="#231F20" d="M246.09 128h48.47c2.01 0 2.76.45 3.65 2.09.9 1.64 7.9 16.08 8.57 17.72.67 1.64.07 2.83-.9 4.1-.97 1.27-11.02 12.73-11.02 12.73l12.28 21.65H288.6s-14.52-24.85-15.34-26.04c-.82-1.2-.82-3.13.97-3.13h6.33c.82 0 1.2-.15 2.16-.97.97-.82 5.96-6.85 5.96-6.85s-2.39-6.4-2.9-7.6-1.65-1.56-2.69-1.56H264.4v46.15H246.1V128z"/>
  <path fill="#FFF" d="M288.32 186.79l-.15-.25-7.36-12.57a948.23 948.23 0 0 0-7.95-13.44 3.48 3.48 0 0 1-.62-1.91c0-.5.13-1 .47-1.39.35-.4.89-.62 1.52-.61h6.33c.75-.02.86-.05 1.84-.85.4-.34 1.93-2.08 3.28-3.68 1.06-1.23 2.03-2.41 2.43-2.89-.46-1.23-2.35-6.29-2.8-7.3-.41-.95-1.27-1.25-2.21-1.26H264.9v46.14h-19.32V127.5h48.97c2.07-.05 3.21.62 4.1 2.35.9 1.69 7.88 16.07 8.58 17.77.22.54.32 1.05.32 1.54 0 1.18-.59 2.13-1.28 3.05-.91 1.2-9.3 10.76-10.8 12.5L308 186.78h-19.7zm17.97-1l-12.04-21.21.23-.27c.02-.01 10.07-11.49 11-12.7.67-.88 1.08-1.63 1.08-2.45 0-.35-.07-.73-.25-1.16a650.7 650.7 0 0 0-8.54-17.67c-.9-1.55-1.25-1.77-3.2-1.82h-47.98v57.27h17.31v-46.14h19.2c1.14-.01 2.51.44 3.13 1.86.54 1.23 2.91 7.62 2.92 7.62l.1.28-.19.22c-.02.02-4.94 6-6.02 6.91-.95.84-1.59 1.11-2.48 1.09h-6.33c-.8.04-.94.35-1 1 0 .42.17.95.45 1.34.8 1.18 13.7 23.23 15.21 25.82h17.4z"/>
  <path fill="#231F20" d="M432.83 128h48.48c2.01 0 2.76.45 3.65 2.09.9 1.64 7.9 16.08 8.56 17.72.67 1.64.08 2.83-.9 4.1-.96 1.27-11.01 12.73-11.01 12.73l12.28 21.65h-18.54s-14.52-24.85-15.34-26.04c-.82-1.2-.82-3.13.97-3.13h6.33c.82 0 1.19-.15 2.16-.97.97-.82 5.95-6.85 5.95-6.85s-2.38-6.4-2.9-7.6c-.52-1.18-1.64-1.56-2.68-1.56h-18.69v46.15h-18.32V128z"/>
  <path fill="#FFF" d="M475.06 186.78l-.14-.24c0-.02-3.63-6.21-7.36-12.57a967.57 967.57 0 0 0-7.96-13.44 3.47 3.47 0 0 1-.61-1.92c0-.49.13-.99.47-1.38.34-.4.88-.62 1.52-.61h6.33c.75-.02.85-.05 1.84-.85.4-.34 1.93-2.08 3.28-3.68 1.05-1.23 2.03-2.41 2.43-2.89-.46-1.23-2.35-6.29-2.8-7.3-.42-.95-1.27-1.25-2.22-1.26h-18.19v46.14h-19.32v-59.27h48.98c2.07-.06 3.21.61 4.09 2.34.92 1.69 7.89 16.07 8.59 17.77.22.54.32 1.05.32 1.54 0 1.18-.59 2.13-1.28 3.05-.92 1.2-9.3 10.76-10.81 12.5l12.53 22.07h-19.69zm17.98-1L481 164.58l.23-.27c.01-.01 10.07-11.49 11-12.7.66-.88 1.08-1.63 1.08-2.45a3 3 0 0 0-.25-1.16 643.12 643.12 0 0 0-8.54-17.67c-.9-1.55-1.25-1.77-3.21-1.82h-47.97v57.27h17.3v-46.14H469.85c1.14-.01 2.52.44 3.14 1.86.54 1.24 2.9 7.62 2.91 7.62l.1.27-.18.23c-.02.02-4.95 6-6.02 6.91-.95.84-1.59 1.11-2.48 1.09h-6.33c-.81.04-.94.35-1 1 0 .42.17.95.44 1.34.81 1.18 13.7 23.23 15.22 25.82h17.4z"/>
  <path fill="#231F20" d="M310.5 186.29v-38.55c0-1.27.3-1.79.9-3.06.6-1.26 7.44-13.85 8.19-15.04.74-1.19 1.78-1.64 3.8-1.64h48.23v12.07h-36.25c-1.35 0-1.94.07-2.83 2s-3.72 8.8-3.72 8.8h36.7V163h-36.7v11.02h42.8v12.27H310.5z"/>
  <path fill="#FFF" d="M310.5 186.79v-.5h.5-.5v.5h-.5v-.5-38.55c0-1.36.35-2.04.94-3.27.63-1.32 7.44-13.85 8.22-15.1.82-1.35 2.16-1.9 4.22-1.87h48.74v13.07h-.5-36.25c-1.34.08-1.42-.14-2.37 1.72-.72 1.54-2.7 6.29-3.43 8.07h36.46v13.14h-36.71v10.02h42.8v13.26H310.5zm60.62-1v-11.27h-42.8V162.5h36.7v-11.13h-36.95l.28-.7s2.83-6.84 3.73-8.8c.84-2.02 1.95-2.39 3.29-2.3h35.75V128.5h-47.74c-1.96.03-2.7.38-3.37 1.4-.71 1.14-7.6 13.79-8.17 15-.6 1.3-.83 1.66-.84 2.84v38.04h60.12z"/>
  <path fill="#231F20" d="M411.85 146.32v-18.31h-21.86v18.31h-18.37v21.41H390v18.56h21.86v-18.56h17.94v-21.4h-17.94zm-11.02 17.17a6.44 6.44 0 1 1 0-12.88 6.44 6.44 0 0 1 0 12.88z"/>
  <path fill="#FFF" d="M389.49 186.79v-18.56h-18.37v-22.4h18.37V127.5h22.85v18.32h17.95v22.41h-17.95v18.56H389.5zm-17.37-19.56h18.37v18.55h20.85v-18.55h17.95v-20.4h-17.45v-.5h.5-.5v.5h-.5V128.5H390.5v18.32h-18.37v20.41zm28.7-3.24v-1a5.95 5.95 0 0 0 0-11.88 5.95 5.95 0 0 0 0 11.88v1a6.95 6.95 0 0 1 0-13.88 6.94 6.94 0 0 1 0 13.88z"/>
  <path fill="#FFF" d="M407.08 173.58H394.5l6.18 6.18zM417.4 150.68v12.58l6.17-6.18zM384.18 163.26v-12.58l-6.18 6.18z"/>
  <g>
    <path fill="#231F20" d="M543.2 128h-35.05c-6.5 0-11.76 5.27-11.76 11.77v34.75c0 6.5 5.27 11.77 11.76 11.77h35.05c6.5 0 11.77-5.27 11.77-11.77v-34.75c0-6.5-5.27-11.77-11.77-11.77zm-17.53 46.67a17.57 17.57 0 1 1 0-35.15 17.57 17.57 0 0 1 0 35.15z"/>
    <path fill="#FFF" d="M508.15 186.78c-6.77 0-12.26-5.49-12.26-12.26v-34.75c0-6.78 5.49-12.27 12.26-12.27h35.05v1h-35.05a11.29 11.29 0 0 0-11.26 11.27v34.75a11.28 11.28 0 0 0 11.26 11.26h35.05a11.28 11.28 0 0 0 11.27-11.26v-34.75c0-6.22-5.05-11.27-11.27-11.27v-1c6.77 0 12.26 5.5 12.26 12.27v34.75c0 6.77-5.49 12.26-12.26 12.26h-35.05zm-.55-29.69a18.08 18.08 0 0 1 36.15 0c0 9.99-8.1 18.08-18.08 18.08v-1a17.1 17.1 0 0 0 17.08-17.08 17.1 17.1 0 0 0-17.08-17.07 17.1 17.1 0 0 0-17.07 17.07 17.1 17.1 0 0 0 17.07 17.08v1c-9.98 0-18.07-8.1-18.07-18.08z"/>
  </g>
  <path fill="#C0392B" d="M209.65 128.36h6.06v6.27h-6.06z"/>
  <path fill="#FFF" d="M394.5 140.37h12.58l-6.18-6.18z"/>
</svg>
