<svg xmlns="http://www.w3.org/2000/svg" viewBox="0 0 285.75 95.25" height="360" width="1080">
  <g fill="#fff">
    <rect ry="2.65" rx="2.65" y="54.3" x="145.19" height="5.26" width="14.82"/>
    <rect ry="2.65" rx="2.65" y="54.3" x="119.69" height="5.26" width="14.82"/>
    <circle r="8.82" cy="56.24" cx="185.07"/>
    <circle r="8.82" cy="56.24" cx="209.12"/>
    <path d="M80.16 30.19c-.3 0-.53.23-.53.52v11.3h-11.3c-.29 0-.52.24-.52.53v9.1c0 .3.23.53.52.53h11.3v11.3c0 .29.24.53.53.53h9.1c.3 0 .53-.24.53-.53v-11.3h11.3c.29 0 .53-.24.53-.53v-9.1c0-.3-.24-.53-.53-.53h-11.3v-11.3c0-.29-.24-.52-.53-.52z"/>
  </g>
</svg>
