<svg xmlns="http://www.w3.org/2000/svg" width="290.5" height="85.79" viewBox="23.58 0 290.5 85.79">
  <path fill="#D61616" d="M277.24 70.45H62.09c-19.43 0-35.23-15.8-35.23-35.23S42.66 0 62.09 0h215.14a35.27 35.27 0 0 1 35.23 35.23 35.27 35.27 0 0 1-35.22 35.22zM62.09 8.33a26.92 26.92 0 0 0-26.9 26.9 26.93 26.93 0 0 0 26.9 26.9h215.14a26.93 26.93 0 0 0 26.9-26.9 26.93 26.93 0 0 0-26.9-26.9H62.1z"/>
  <path fill="#D61616" d="M89.72 51.56V19.05h-9.78v22.73L65.52 19.05H55v32.51h9.78V28.1l15.16 23.47h9.78zM105.61 51.56v-22h-9.78v22h9.78zM105.61 24.91v-5.86h-9.78v5.86h9.78zM139.83 51.56V36.4c0-3.17-6.1-7.57-9.29-7.57h-2.93c-2.2 0-4.65 1.95-6.85 2.93v-2.2H111v22h9.77V36.4c0-1.46 3.43-3.17 4.9-3.17 1.46 0 4.15 1.7 4.15 3.17v15.16h10.02zM221.66 52.32V37.16c0-3.18-6.11-7.58-9.3-7.58h-2.93c-2.2 0-4.65 1.96-6.85 2.94v-2.2h-9.77v22h9.77V37.16c0-1.46 3.43-3.18 4.9-3.18s4.15 1.72 4.15 3.18v15.16h10.03zM155.72 51.56v-22h5.14v-2.93h-5.14v-4.65H145.7v4.65h-5.13v2.93h5.13v22h10.03zM174.55 28.83c-7.82 0-14.42 5.37-14.42 11.98 0 6.84 6.6 12.22 14.42 12.22 6.84 0 12.47-3.91 13.93-9.05h-10.02v2.94c0 2.44-1.7 3.18-3.9 3.18s-3.67-.74-3.67-3.18V40.8h18.09c0-6.6-6.36-11.98-14.43-11.98zm0 2.2c2.2 0 3.91 1.46 3.91 3.9v2.2h-7.58v-2.2c0-2.44 1.47-3.9 3.67-3.9zM270.88 28.83c-8.07 0-14.43 5.37-14.43 11.98 0 6.84 6.35 12.22 14.42 12.22 7.82 0 14.43-5.38 14.43-12.23 0-6.6-6.6-11.97-14.43-11.97zm0 2.2c2.19 0 3.66 1.46 3.66 3.9v11.99c0 2.44-1.47 3.18-3.67 3.18-2.44 0-3.9-.74-3.9-3.18V34.94c-.01-2.45 1.46-3.91 3.9-3.91zM242.76 19.05v11.98s-2.94-2.2-6.85-2.2c-6.11 0-11.24 5.38-11.24 11.24 0 6.11 5.13 12.23 11.24 12.23 3.91 0 6.85-1.47 6.85-1.47v.73h9.78V19.05h-9.78zm-3.67 13.44c2.2 0 3.67 1.72 3.67 3.92v9.04c0 2.2-1.47 2.93-3.67 2.93-2.44 0-3.91-.73-3.91-2.93v-9.04c0-2.2 1.47-3.92 3.91-3.92zM286.52 29.22a5.04 5.04 0 0 1-5.04-5.04 5.1 5.1 0 0 1 5.04-5.28c2.73 0 5.03 2.42 5.03 5.28a5.17 5.17 0 0 1-5.03 5.04zm0-9.54c-2.43 0-4.26 1.94-4.26 4.5 0 2.35 1.91 4.26 4.26 4.26a4.42 4.42 0 0 0 4.25-4.26c0-2.4-1.98-4.5-4.25-4.5zm.88 6.65l-.86-1.52h-1.1v1.33h-.78v-4.55h2.1c.99 0 1.5.81 1.5 1.61 0 .62-.3 1.24-.89 1.5l.71 1.24-.68.39zm-1.96-2.3h1.32c.22 0 .4-.07.52-.23a.97.97 0 0 0 .2-.6c0-.3-.16-.83-.72-.83h-1.32v1.67z"/>
  <g fill="#8C8C8C">
    <path d="M48.07 85.79h-9.1c-2.6 0-3.9-1.3-3.9-3.9v-7.8h13v2.6h-10.4v1.95h10.4v2.6h-10.4v.65c0 .87.43 1.3 1.3 1.3h9.1v2.6zM49.37 85.79v-11.7h9.1c2.6 0 3.9 1.3 3.9 3.9v7.8h-2.6v-7.8c0-.87-.43-1.3-1.3-1.3h-6.5v9.1h-2.6zM63.68 74.08h13v2.6h-5.2v9.11h-2.6v-9.1h-5.2v-2.6zM90.98 85.79h-9.1c-2.6 0-3.9-1.3-3.9-3.9v-7.8h13v2.6h-10.4v1.95h10.4v2.6h-10.4v.65c0 .87.44 1.3 1.3 1.3h9.1v2.6zM94.89 81.24v4.55h-2.6v-11.7h9.1c2.6 0 3.9 1.18 3.9 3.56 0 1.12-.19 1.95-.56 2.48.37.62.56 1.42.56 2.4v3.26h-2.6v-3.25c0-.87-.44-1.3-1.3-1.3h-6.5zm0-2.6h7.8v-1.95h-7.8v1.95zM106.59 74.08h13v2.6h-5.2v9.11h-2.6v-9.1h-5.2v-2.6zM123.5 82.54v3.25h-2.6v-7.8c0-2.6 1.3-3.9 3.9-3.9h5.2c2.6 0 3.9 1.3 3.9 3.9v7.8h-2.6v-3.25h-7.8zm7.8-2.6v-1.95c0-.87-.44-1.3-1.3-1.3h-5.2c-.87 0-1.3.43-1.3 1.3v1.95h7.8zM135.2 85.79v-11.7h2.6v11.7h-2.6zM139.1 85.79v-11.7h9.1c2.6 0 3.9 1.3 3.9 3.9v7.8h-2.6v-7.8c0-.87-.43-1.3-1.3-1.3h-6.5v9.1h-2.6zM153.4 85.79v-11.7h10.4c2.6 0 3.9 1.3 3.9 3.9v7.8h-2.6v-7.8c0-.87-.43-1.3-1.3-1.3h-1.94v9.1h-2.6v-9.1H156v9.1h-2.6zM182.01 85.79h-9.1c-2.6 0-3.9-1.3-3.9-3.9v-7.8h13v2.6h-10.4v1.95h10.4v2.6h-10.4v.65c0 .87.43 1.3 1.3 1.3h9.1v2.6zM183.31 85.79v-11.7h9.1c2.6 0 3.9 1.3 3.9 3.9v7.8h-2.6v-7.8c0-.87-.43-1.3-1.3-1.3h-6.5v9.1h-2.6zM197.62 74.08h13v2.6h-5.2v9.11h-2.6v-9.1h-5.2v-2.6zM217.13 83.19h10.4v-1.95h-6.5c-2.6 0-3.9-1.18-3.9-3.52 0-2.42 1.3-3.63 3.9-3.63h9.1v2.6h-10.4v1.95h6.5c2.6 0 3.9 1.19 3.9 3.57s-1.3 3.58-3.9 3.58h-9.1v-2.6zM236.63 81.24h-1.3c-2.6 0-3.9-1.3-3.9-3.9v-3.25h2.6v3.25c0 .86.43 1.3 1.3 1.3h5.2c.87 0 1.3-.44 1.3-1.3v-3.25h2.6v3.25c0 2.6-1.3 3.9-3.9 3.9h-1.3v4.55h-2.6v-4.55zM245.73 83.19h10.4v-1.95h-6.5c-2.6 0-3.9-1.18-3.9-3.52 0-2.42 1.3-3.63 3.9-3.63h9.1v2.6h-10.4v1.95h6.5c2.6 0 3.9 1.19 3.9 3.57s-1.3 3.58-3.9 3.58h-9.1v-2.6zM260.04 74.08h13v2.6h-5.2v9.11h-2.6v-9.1h-5.2v-2.6zM287.35 85.79h-9.1c-2.6 0-3.9-1.3-3.9-3.9v-7.8h13v2.6h-10.4v1.95h10.4v2.6h-10.4v.65c0 .87.43 1.3 1.3 1.3h9.1v2.6zM288.65 85.79v-11.7h10.4c2.6 0 3.9 1.3 3.9 3.9v7.8h-2.6v-7.8c0-.87-.43-1.3-1.3-1.3h-1.95v9.1h-2.6v-9.1h-3.25v9.1h-2.6z"/>
  </g>
</svg>
