<svg xmlns="http://www.w3.org/2000/svg" viewBox="0 0 285.75 95.25" height="360" width="1080">
  <defs>
    <clipPath id="a">
      <path d="M0 452h610V0H0z"/>
    </clipPath>
  </defs>
  <g fill="#fff">
    <path d="M95.3 61.66V63h3.03v1.93H95.3v2.9h-2.26v-8.1h5.77v1.93z"/>
    <g clip-path="url(#a)" transform="matrix(.2672 0 0 -.2672 61.69 109.51)">
      <path d="M173.07 173.6h5.84c1.27 0 1.7.43 1.7 1.65v2.2c0 1.23-.43 1.66-1.7 1.66h-5.84zm2.92-7.2h-2.92v-10.37h-8.47v30.28h16.9c4.95 0 7.57-2.59 7.57-7.46v-5c0-3.38-1.27-5.67-3.73-6.73l7.25-11.1h-9.87zM226.05 179.1v-4.02h11.35v-7.2h-11.35v-4.65h13.12v-7.2h-21.6v30.28h21.6v-7.2zM279.54 179.1v-4.02h11.35v-7.2h-11.35v-4.65h13.13v-7.2h-21.6v30.28h21.6v-7.2zM338.15 177.45c0 1.23-.42 1.66-1.7 1.66h-5.7v-5.68h5.7c1.28 0 1.7.42 1.7 1.65zm8.47 1.4v-5.16c0-4.87-2.62-7.46-7.58-7.46h-8.3v-10.2h-8.47v30.28h16.77c4.96 0 7.58-2.59 7.58-7.46M391.9 163.23v-7.2h-21.17v30.28h8.46v-23.08zM431.12 169.2l-2.97 10.37-3-10.37zm2.07-7.2h-10.08l-1.73-5.97h-8.68l9.23 30.28h12.4l9.24-30.28h-8.69zM479.74 166.28v-10.25h-8.52v10.25L460.6 186.3h9.4l5.5-10.76 5.46 10.76h9.4zM257.06 139.01h-6.66v-17.53h-2.67v17.53h-6.63v2.3h15.96zM278.45 139.01v-6.15h9.97v-2.3h-9.97v-6.77h11.15v-2.3h-13.82v19.83h13.82v-2.3zM308.4 126.29v10.22c0 3.54 1.63 5.09 5.4 5.09h4.8c3.77 0 5.4-1.55 5.4-5.03v-.22l-2.67-.34v.2c0 2.3-.85 3.08-3.4 3.08h-3.46c-2.55 0-3.4-.78-3.4-3.14v-9.5c0-2.33.85-3.14 3.4-3.14h3.46c2.55 0 3.4.81 3.4 3.09v.2l2.67-.34v-.23c0-3.48-1.63-5.03-5.4-5.03h-4.8c-3.77 0-5.4 1.55-5.4 5.09M359.29 141.32v-19.84h-2.67v8.96h-10v-8.96h-2.67v19.84h2.67v-8.54h10v8.54zM253.61 260.01L301.5 225v35.3zM349.3 306.47v35.54l-95.69.03 47.34-35.57zM320.94 288.25h-67.79v-7.07h77.45zM340.24 274.13h-87.09v-7.2l96.43.37zM311.3 295.3l-9.8 7.16h-48.35v-7.16z"/>
    </g>
  </g>
</svg>
