<svg xmlns="http://www.w3.org/2000/svg" viewBox="0 0 144.94 32.47" height="122.72" width="547.8">
  <defs>
    <clipPath id="a">
      <path d="M0 312h631.33V0H0z"/>
    </clipPath>
  </defs>
  <path d="M43.63 11.34v1.4h3.15v2h-3.15v3.01h-2.35V9.34h6v2z" fill="#ea2923"/>
  <g clip-path="url(#a)" transform="matrix(.35278 0 0 -.35278 -38.68 71.1)">
    <path d="M270.56 165.07h4.6c1 0 1.34.34 1.34 1.3v1.74c0 .96-.34 1.3-1.34 1.3h-4.6zm2.3-5.67h-2.3v-8.17h-6.67v23.85h13.3c3.9 0 5.98-2.04 5.98-5.87v-3.94c0-2.67-1-4.47-2.94-5.3l5.7-8.74h-7.77zM312.3 169.4v-3.16h8.93v-5.67h-8.94v-3.67h10.34v-5.67h-17v23.85h17v-5.67zM354.43 169.4v-3.16h8.94v-5.67h-8.94v-3.67h10.34v-5.67h-17.01v23.85h17.01v-5.67zM400.6 168.1c0 .97-.33 1.3-1.33 1.3h-4.5v-4.46h4.5c1 0 1.33.33 1.33 1.3zm6.67 1.1v-4.06c0-3.84-2.07-5.87-5.97-5.87h-6.54v-8.04h-6.67v23.85h13.21c3.9 0 5.97-2.04 5.97-5.87M442.94 156.9v-5.67h-16.68v23.85h6.67V156.9zM473.83 161.6l-2.34 8.18-2.36-8.18zm1.64-5.67h-7.94l-1.37-4.7h-6.84l7.27 23.85h9.77l7.28-23.85h-6.84zM512.13 159.3v-8.07h-6.7v8.07l-8.38 15.78h7.4l4.34-8.47 4.3 8.47h7.41zM336.72 137.83h-5.24v-13.81h-2.1v13.8h-5.23v1.82h12.57zM353.57 137.83v-4.85h7.85v-1.82h-7.85v-5.33h8.78v-1.81h-10.88v15.62h10.88v-1.81zM377.17 127.8v8.05c0 2.8 1.28 4.01 4.25 4.01h3.78c2.96 0 4.25-1.22 4.25-3.96v-.18l-2.1-.26v.15c0 1.82-.67 2.44-2.68 2.44h-2.72c-2.02 0-2.68-.62-2.68-2.48v-7.48c0-1.84.66-2.48 2.68-2.48h2.72c2.01 0 2.68.64 2.68 2.43v.16l2.1-.27v-.17c0-2.75-1.29-3.96-4.25-3.96h-3.78c-2.97 0-4.25 1.21-4.25 4M417.25 139.64v-15.62h-2.1v7.06h-7.88v-7.06h-2.1v15.62h2.1v-6.73h7.88v6.73zM110.01 137.03l37.65-27.53v27.75zM185.26 173.57v27.94l-75.25.03 37.23-27.97zM162.96 159.24h-53.31v-5.56h60.9zM178.14 148.13h-68.49v-5.66l75.83.3zM155.38 164.78l-7.7 5.64h-38.03v-5.64z" fill="#ea2923"/>
  </g>
</svg>
