<svg xmlns="http://www.w3.org/2000/svg" viewBox="0 0 285.75 95.25" height="360" width="1080">
  <defs>
    <clipPath id="a">
      <path d="M0 452h610V0H0z"/>
    </clipPath>
  </defs>
  <g fill="#fff">
    <circle cx="200.896" cy="60.894" r="6.735"/>
    <circle cx="200.896" cy="29.144" r="6.735"/>
    <circle cx="216.771" cy="45.019" r="6.735"/>
    <circle cx="185.021" cy="45.019" r="6.735"/>
    <path d="M119.592 42.216h9.79v5.953h-9.79zM154.914 41.157v7.276l11.244-3.571-11.244-3.705zM79.069 28.272h9.547v7.518l-4.773 4.714-4.774-4.714zM79.069 59.204h9.547v-7.517l-4.773-4.714-4.774 4.714zM68.377 48.512v-9.547h7.517l4.714 4.773-4.714 4.774zM99.309 38.965v9.547H91.79l-4.714-4.774 4.714-4.773zM84.894 6.937c-.183 0-.36.003-.541.005-.097 0-.194.001-.29.003-.083 0-.17 0-.252.002-1.419.023-2.698.086-3.82.226a16.83 16.83 0 0 0-2.86.598l-.053.013c-.576.148-1.102.29-1.59.502-.49.212-.941.493-1.308.77-.366.277-.647.55-.852.827-.206.278-.336.56-.43.814-.093.253-.15.477-.178.59l-.029.111.554-.179c.553-.18 1.66-.538 3.118-.897a40.996 40.996 0 0 1 5.16-.927c1.177-.131 2.38-.2 3.533-.229 1.153.03 2.357.098 3.533.229 1.895.21 3.703.569 5.16.927 1.459.359 2.565.718 3.119.897l.553.18-.029-.113c-.028-.112-.085-.336-.178-.59a3.227 3.227 0 0 0-.43-.813 4.168 4.168 0 0 0-.852-.827 6.509 6.509 0 0 0-1.307-.77c-.489-.211-1.014-.354-1.591-.502-.017-.005-.036-.01-.053-.013a16.83 16.83 0 0 0-2.86-.598c-1.122-.14-2.4-.203-3.82-.226-.082-.002-.168-.001-.252-.002-.096-.002-.192-.002-.29-.003a71.286 71.286 0 0 0-.703-.004h-.162zM200.532 6.937c-.182 0-.36.003-.541.005-.097 0-.194.001-.29.003-.083 0-.17 0-.252.002-1.419.023-2.698.086-3.82.226a16.83 16.83 0 0 0-2.86.598l-.053.012c-.576.149-1.102.291-1.59.503-.49.212-.941.493-1.308.77-.366.276-.647.55-.852.827-.206.278-.336.56-.43.813-.093.254-.15.478-.178.59l-.029.112.554-.18c.553-.178 1.66-.537 3.118-.896a40.996 40.996 0 0 1 5.16-.927c1.177-.131 2.38-.2 3.533-.229 1.154.03 2.357.098 3.533.229 1.895.21 3.703.569 5.16.927 1.459.359 2.566.718 3.119.897l.553.18-.028-.113c-.029-.112-.086-.336-.18-.59a3.227 3.227 0 0 0-.428-.813 4.168 4.168 0 0 0-.853-.827 6.509 6.509 0 0 0-1.307-.77c-.489-.212-1.014-.354-1.59-.503l-.054-.012a16.83 16.83 0 0 0-2.86-.598c-1.122-.14-2.4-.203-3.82-.226-.082-.002-.168-.001-.251-.002l-.29-.003a71.284 71.284 0 0 0-.704-.004l-.162-.001zM137.98 60.078h9.79v5.953h-9.79z"/>
    <circle r="13.096" cy="75.217" cx="113.689"/>
    <circle r="13.096" cy="75.217" cx="172.061"/>
  </g>
</svg>
