<svg xmlns="http://www.w3.org/2000/svg" viewBox="0 0 285.75 95.25" height="360" width="1080">
  <defs>
    <clipPath id="a">
      <path d="M0 452h610V0H0z"/>
    </clipPath>
  </defs>
  <g fill="#fff">
    <circle cx="224.269" cy="17.995" r="7.697"/>
    <path d="M51.492 21.171a.528.528 0 0 0-.53.53v11.297H39.666a.528.528 0 0 0-.529.53v9.097c0 .293.236.529.53.529h11.297v11.298c0 .293.236.529.529.529h9.098c.293 0 .53-.236.53-.53V43.155h11.297c.293 0 .529-.236.529-.53v-9.097a.528.528 0 0 0-.53-.529H61.12V21.701a.528.528 0 0 0-.529-.53z"/>
    <circle cx="204.924" cy="65.927" r="4.095"/>
    <circle cx="204.924" cy="80.857" r="4.095"/>
    <circle cx="71.659" cy="80.467" r="4.095"/>
    <circle cx="224.269" cy="47.385" r="7.697"/>
    <circle cx="238.917" cy="32.463" r="7.697"/>
    <circle cx="209.731" cy="32.463" r="7.697"/>
  </g>
</svg>
