<svg xmlns="http://www.w3.org/2000/svg" viewBox="0 0 285.75 95.25" height="360" width="1080"><defs><clipPath id="a"><path d="M0 452h610V0H0z"/></clipPath></defs><path d="M150.641 77.503a86.121 86.121 0 0 0 7.64-6.3c2.837-2.65 5.394-5.518 7.749-8.429 2.354-2.91 4.567-5.945 6.612-9.35a92.692 92.692 0 0 0 5.283-10.283c1.278-2.963 1.902-5.02 2.276-7.047.374-2.027.499-4.023.228-5.96a13.215 13.215 0 0 0-2.302-5.812c-1.325-1.888-3.352-3.788-5.503-5.129-2.152-1.34-4.46-2.151-7.234-2.463-2.776-.312-6.018-.125-8.045.25-2.027.374-2.837.935-4.132 2.013-1.294 1.077-3.133 2.726-4.537 4.16a33.78 33.78 0 0 0-3.242 3.836c-.842 1.153-1.528 2.213-2.017 3.152-.49.94-.821 1.868-1.226 2.304-.406.437-.904.437-1.404.094-.499-.343-.997-1.029-2.213-2.526-1.216-1.496-3.15-3.804-5.343-5.816s-4.73-3.787-6.945-4.933c-2.216-1.146-4.27-1.723-5.798-1.91-1.527-.187-2.588 0-3.71.374a11.243 11.243 0 0 0-3.524 1.902c-1.216.967-2.463 2.338-3.648 3.96-1.185 1.621-2.307 3.492-3.025 5.082-.717 1.59-1.029 2.9-1.216 4.96-.187 2.058-.25 4.862-.124 7.014.124 2.152.436 3.648.954 5.151.518 1.503 1.29 3.112 2.663 5.046 1.372 1.933 3.367 4.24 5.971 6.815 2.604 2.574 5.878 5.47 8.972 7.764 3.095 2.294 6.135 4.067 8.928 5.65 2.794 1.583 5.44 3.032 7.497 4.061 2.058 1.029 3.555 1.653 4.646 2.12 1.092.468 1.778.78 2.308.998.53.218.904.343 1.216.405.312.063.561.063 2.245-1.153z" fill="#fff"/></svg>