<svg width="400" height="120" xmlns="http://www.w3.org/2000/svg">
  <path d="M163.3 37.02l-23 34.02 18.84 17.38 39.9-29.86z" fill="#fff" fill-rule="evenodd"/>
  <circle cx="189.57" cy="36.78" r="28.75" fill="#fff"/>
  <g fill-rule="evenodd">
    <path d="M211.58 36.78a22.01 22.01 0 1 1-44.02 0 22.01 22.01 0 1 1 44.02 0z"/>
    <path d="M207.12 36.8a17.55 17.55 0 0 1-35.11 0 17.55 17.55 0 1 1 35.11 0zM161.11 85.02a17.62 17.62 0 1 1-35.25 0 17.62 17.62 0 1 1 35.25 0z" fill="#fff"/>
    <path d="M156.64 85.02a13.16 13.56 0 0 1-26.32 0 13.16 13.56 0 1 1 26.32 0z"/>
    <path d="M48.26 38.98a17.62 17.62 0 1 1-35.25 0 17.62 17.62 0 1 1 35.25 0z" color="#000" fill="#fff" solid-color="#000000" style="isolation:auto;mix-blend-mode:normal"/>
    <path d="M43.87 38.98a13.23 12.83 0 1 1-26.46 0 13.23 12.83 0 1 1 26.46 0z" color="#000" solid-color="#000000" style="isolation:auto;mix-blend-mode:normal"/>
    <rect transform="rotate(22.2)" x="33.12" y="13.31" width="141.7" height="22.78" rx="13.68" fill="#fff"/>
  </g>
  <g fill="#fff">
    <path d="M250.14 27.88v6.82q-2.4-1.19-4.68-1.8-2.29-.6-4.32-.6-2.7 0-3.99.83-1.28.82-1.28 2.54 0 1.3.86 2.03.87.72 3.16 1.24l3.2.7q4.87 1.09 6.92 3.3 2.05 2.2 2.05 6.25 0 5.34-2.87 7.95-2.86 2.6-8.73 2.6-2.78 0-5.57-.59t-5.59-1.73V50.4q2.8 1.65 5.4 2.49 2.61.82 5.03.82 2.46 0 3.77-.9 1.31-.92 1.31-2.6 0-1.51-.9-2.33-.88-.82-3.53-1.47l-2.91-.71q-4.38-1.04-6.4-3.3-2.02-2.28-2.02-6.12 0-4.82 2.81-7.41 2.81-2.6 8.09-2.6 2.4 0 4.94.42 2.54.39 5.25 1.19zM257.87 26.86h26.87v6.29h-9.67V59.1h-7.52V33.15h-9.68v-6.29zM291.27 26.86h20.3v6.29h-12.78v6h12.01v6.29h-12v7.38H312v6.29h-20.73V26.86zM338.96 53.23h-11.75l-1.86 5.88h-7.56l10.8-32.25h8.97l10.8 32.25h-7.56l-1.84-5.88zm-9.88-5.98h7.99l-3.98-12.83-4 12.83zM354.87 26.86h9.57l6.64 17.26 6.68-17.26h9.55v32.25h-7.1V35.52l-6.72 17.39h-4.77L362 35.52v23.59h-7.13V26.86z"/>
  </g>
</svg>
