<svg xmlns="http://www.w3.org/2000/svg" viewBox="0 0 285.75 95.25" height="360" width="1080">
  <defs>
    <clipPath id="a">
      <path d="M0 452h610V0H0z"/>
    </clipPath>
  </defs>
  <g fill="#fff">
    <path d="M116.49 9.283a2.64 2.64 0 0 0-2.646 2.645v21.208h23.853V9.283H116.49zM148.925 43.015c-1.248-.005-3.89 3.2-5.044 3.672-1.155.473-5.286.042-6.172.921-.886.879-.488 5.013-.97 6.164-.482 1.151-3.707 3.767-3.712 5.015-.005 1.248 3.199 3.89 3.672 5.044.473 1.155.042 5.286.92 6.172.88.886 5.014.488 6.165.97 1.15.482 3.767 3.708 5.015 3.713 1.248.005 3.89-3.2 5.044-3.673 1.155-.473 5.286-.042 6.172-.92.886-.88.487-5.013.97-6.164.482-1.151 3.707-3.768 3.712-5.016.005-1.248-3.2-3.889-3.672-5.044-.473-1.155-.042-5.286-.92-6.171-.88-.886-5.014-.488-6.165-.97-1.15-.483-3.767-3.708-5.015-3.713zm-.063 7.603a8.232 8.232 0 0 1 8.232 8.232 8.232 8.232 0 0 1-8.232 8.232 8.232 8.232 0 0 1-8.232-8.232 8.232 8.232 0 0 1 8.232-8.232z"/>
    <circle r="5.051" cy="58.85" cx="148.862"/>
  </g>
</svg>
