<svg xmlns="http://www.w3.org/2000/svg" viewBox="0 0 285.75 95.25" height="360" width="1080">
  <defs>
    <clipPath id="a">
      <path d="M0 452h610V0H0z"/>
    </clipPath>
  </defs>
  <g opacity=".99" fill="#fff">
    <circle transform="rotate(-24.88)" r="8.82" cy="130.08" cx="132.3"/>
    <path d="M79.94 37.84c-.29 0-.53.24-.53.53v11.3h-11.3c-.29 0-.52.24-.52.53v9.1c0 .3.23.53.53.53h11.3v11.3c0 .29.23.52.52.52h9.1c.3 0 .53-.23.53-.52v-11.3h11.3c.3 0 .53-.24.53-.53v-9.1c0-.3-.24-.53-.53-.53h-11.3v-11.3c0-.29-.24-.53-.53-.53z"/>
    <circle transform="rotate(-24.88)" r="8.82" cy="128.96" cx="151.96"/>
    <circle transform="rotate(-24.88)" r="8.82" cy="133.72" cx="171"/>
    <path d="M84.37 36.04a18.7 18.7 0 0 0-7.27 1.52 18.7 18.7 0 0 0-9.8 24.58 18.7 18.7 0 0 0 24.59 9.8 18.7 18.7 0 0 0 9.79-24.58 18.7 18.7 0 0 0-17.3-11.32zm.02 2.25a16.46 16.46 0 0 1 15.23 9.95A16.46 16.46 0 0 1 91 69.87a16.46 16.46 0 0 1-21.63-8.61 16.46 16.46 0 0 1 8.62-21.63 16.46 16.46 0 0 1 6.4-1.34z"/>
    <circle transform="rotate(-24.88)" r="4.76" cy="120.62" cx="83.62"/>
    <circle transform="rotate(-24.88)" r="4.76" cy="128.73" cx="101.11"/>
    <path d="M67.24 23.14l26.14-6.48c1.1-.27 2.43 0 2.6.72l.47 1.93-30.39 7.52-.5-1.92c-.17-.71.58-1.5 1.68-1.78zM205.62 23.14l-26.14-6.48c-1.1-.27-2.42 0-2.6.72l-.47 1.93 30.39 7.52.5-1.92c.17-.71-.57-1.5-1.68-1.77z"/>
  </g>
</svg>
