<?xml version="1.0" encoding="UTF-8" standalone="no"?>
<svg
   xmlns:dc="http://purl.org/dc/elements/1.1/"
   xmlns:cc="http://creativecommons.org/ns#"
   xmlns:rdf="http://www.w3.org/1999/02/22-rdf-syntax-ns#"
   xmlns:svg="http://www.w3.org/2000/svg"
   xmlns="http://www.w3.org/2000/svg"
   xmlns:sodipodi="http://sodipodi.sourceforge.net/DTD/sodipodi-0.dtd"
   xmlns:inkscape="http://www.inkscape.org/namespaces/inkscape"
   sodipodi:docname="system.svg"
   inkscape:version="1.0 (4035a4fb49, 2020-05-01)"
   version="1.1"
   id="svg4889"
   height="36.453869"
   width="416.78885">
  <defs
     id="defs4891">
    <clipPath
       id="clipPath3233"
       clipPathUnits="userSpaceOnUse">
      <path
         id="path3235"
         d="m 48.31931,790.01367 -1.99415,-7.90137 4.20311,-16.92822 2.07422,8.20801 -4.28318,16.62158"
         inkscape:connector-curvature="0" />
    </clipPath>
    <linearGradient
       id="linearGradient3249"
       spreadMethod="pad"
       gradientTransform="matrix(0,24.82961,10.2773,0,44.3252,765.18408)"
       gradientUnits="userSpaceOnUse"
       y2="0"
       x2="0.69999999"
       y1="0"
       x1="0.30000001">
      <stop
         id="stop3251"
         offset="0"
         style="stop-opacity:1;stop-color:#cb7033" />
      <stop
         id="stop3253"
         offset="1"
         style="stop-opacity:1;stop-color:#8c502d" />
    </linearGradient>
    <clipPath
       id="clipPath3205"
       clipPathUnits="userSpaceOnUse">
      <path
         id="path3207"
         d="m 58.61038,786.67969 -0.47859,-1.83008 4.20898,-16.34082 4.74032,18.1709 h -8.47071"
         inkscape:connector-curvature="0" />
    </clipPath>
    <linearGradient
       id="linearGradient3221"
       spreadMethod="pad"
       gradientTransform="matrix(0,18.1709,12.9492,0,56.13177,768.50879)"
       gradientUnits="userSpaceOnUse"
       y2="0"
       x2="0.69999999"
       y1="0"
       x1="0.30000001">
      <stop
         id="stop3223"
         offset="0"
         style="stop-opacity:1;stop-color:#cb7033" />
      <stop
         id="stop3225"
         offset="1"
         style="stop-opacity:1;stop-color:#8c502d" />
    </linearGradient>
    <clipPath
       id="clipPath3169"
       clipPathUnits="userSpaceOnUse">
      <path
         id="path3171"
         d="m 35.0596,793.33008 -8.29303,-33.93506 h 8.49222 l 4.07809,16.71051 -4.27728,17.22455"
         inkscape:connector-curvature="0" />
    </clipPath>
    <clipPath
       id="clipPath3177"
       clipPathUnits="userSpaceOnUse">
      <path
         id="path3179"
         d="M 0,793.26001 H 612 V -0.06 H 0 Z"
         inkscape:connector-curvature="0" />
    </clipPath>
    <linearGradient
       id="linearGradient3193"
       spreadMethod="pad"
       gradientTransform="matrix(0,33.9351,16.5703,0,24.7666,759.45251)"
       gradientUnits="userSpaceOnUse"
       y2="0"
       x2="0.69999999"
       y1="0"
       x1="0.30000001">
      <stop
         id="stop3195"
         offset="0"
         style="stop-opacity:1;stop-color:#cb7033" />
      <stop
         id="stop3197"
         offset="1"
         style="stop-opacity:1;stop-color:#8c502d" />
    </linearGradient>
    <clipPath
       id="clipPath3121"
       clipPathUnits="userSpaceOnUse">
      <path
         id="path3123"
         d="m 48.31931,790.01367 h 8.48249 l 5.53897,-21.50488 H 53.8604 l -5.54109,21.50488"
         inkscape:connector-curvature="0" />
    </clipPath>
    <linearGradient
       id="linearGradient3137"
       gradientTransform="matrix(0,-28.1628,-18.0215,0,64.34079,793.35107)"
       gradientUnits="userSpaceOnUse"
       y2="0"
       x2="0.39998999"
       y1="0"
       x1="0.14999001">
      <stop
         id="stop3139"
         offset="0"
         style="stop-opacity:1;stop-color:#e2e9df" />
      <stop
         id="stop3141"
         offset="1"
         style="stop-opacity:1;stop-color:#9bc59d" />
    </linearGradient>
    <linearGradient
       id="linearGradient3157"
       gradientTransform="matrix(0,-28.1628,-18.0215,0,64.34079,793.35107)"
       gradientUnits="userSpaceOnUse"
       y2="0"
       x2="0.85000998"
       y1="0"
       x1="0.39998999">
      <stop
         id="stop3159"
         offset="0"
         style="stop-opacity:1;stop-color:#9bc59d" />
      <stop
         id="stop3161"
         offset="1"
         style="stop-opacity:1;stop-color:#38984d" />
    </linearGradient>
    <clipPath
       id="clipPath3065"
       clipPathUnits="userSpaceOnUse">
      <path
         id="path3067"
         d="m 35.0596,793.33008 h 8.48038 l 6.98829,-28.146 h -8.48039 l -6.98828,28.146"
         inkscape:connector-curvature="0" />
    </clipPath>
    <clipPath
       id="clipPath3073"
       clipPathUnits="userSpaceOnUse">
      <path
         id="path3075"
         d="M 0,793.26001 H 612 V -0.06 H 0 Z"
         inkscape:connector-curvature="0" />
    </clipPath>
    <linearGradient
       id="linearGradient3089"
       gradientTransform="matrix(0,-28.146,-19.4688,0,52.52829,793.33008)"
       gradientUnits="userSpaceOnUse"
       y2="0"
       x2="0.39998999"
       y1="0"
       x1="0.14999001">
      <stop
         id="stop3091"
         offset="0"
         style="stop-opacity:1;stop-color:#e2e9df" />
      <stop
         id="stop3093"
         offset="1"
         style="stop-opacity:1;stop-color:#9bc59d" />
    </linearGradient>
    <linearGradient
       id="linearGradient3109"
       gradientTransform="matrix(0,-28.146,-19.4688,0,52.52829,793.33008)"
       gradientUnits="userSpaceOnUse"
       y2="0"
       x2="0.85000998"
       y1="0"
       x1="0.39998999">
      <stop
         id="stop3111"
         offset="0"
         style="stop-opacity:1;stop-color:#9bc59d" />
      <stop
         id="stop3113"
         offset="1"
         style="stop-opacity:1;stop-color:#38984d" />
    </linearGradient>
  </defs>
  <sodipodi:namedview
     inkscape:pagecheckerboard="true"
     inkscape:document-rotation="0"
     inkscape:window-maximized="1"
     inkscape:window-y="-11"
     inkscape:window-x="-11"
     inkscape:window-height="986"
     inkscape:window-width="1920"
     fit-margin-bottom="0"
     fit-margin-right="0"
     fit-margin-left="0"
     fit-margin-top="0"
     showgrid="false"
     inkscape:current-layer="layer1"
     inkscape:document-units="px"
     inkscape:cy="51.955956"
     inkscape:cx="348.17461"
     inkscape:zoom="1.979899"
     inkscape:pageshadow="2"
     inkscape:pageopacity="0.0"
     borderopacity="1.0"
     bordercolor="#666666"
     pagecolor="#ffffff"
     id="base" />
  <metadata
     id="metadata4894">
    <rdf:RDF>
      <cc:Work
         rdf:about="">
        <dc:format>image/svg+xml</dc:format>
        <dc:type
           rdf:resource="http://purl.org/dc/dcmitype/StillImage" />
        <dc:title></dc:title>
      </cc:Work>
    </rdf:RDF>
  </metadata>
  <g
     transform="translate(-184.79367,-203.02091)"
     id="layer1"
     inkscape:groupmode="layer"
     inkscape:label="Layer 1">
    <path
       d="m 583.66748,229.99641 h 7.69419 v 1.13516 h -3.20956 v 8.33818 h -1.27504 v -8.33818 h -3.20959 z"
       style="fill:#ffffff;fill-opacity:1;fill-rule:nonzero;stroke:none"
       id="path3037"
       inkscape:connector-curvature="0" />
    <path
       d="m 600.3427,239.46975 v -5.59266 c 0,-0.27883 0.0275,-1.47946 0.0275,-2.36225 h -0.0275 l -2.66012,7.95491 h -1.26742 l -2.66805,-7.94314 h -0.0275 c 0,0.87102 0.0275,2.07165 0.0275,2.35048 v 5.59266 h -1.23976 v -9.47334 h 1.83628 l 2.70332,8.009 h 0.0273 l 2.69164,-8.009 h 1.81662 v 9.47334 h -1.23985 z"
       style="fill:#ffffff;fill-opacity:1;fill-rule:nonzero;stroke:none"
       id="path3039"
       inkscape:connector-curvature="0" />
    <path
       d="m 357.19122,239.47478 c -2.51491,0 -4.02156,-2.0432 -3.36625,-4.5582 l 8.32955,-31.89567 h 12.14746 l -9.51463,36.45387 z"
       style="fill:#ffffff;fill-opacity:1;fill-rule:nonzero;stroke:none"
       id="path3041"
       inkscape:connector-curvature="0" />
    <path
       d="m 351.52562,203.02091 h -44.04985 l -9.5186,36.45387 h 12.15123 l 8.32594,-31.89837 h 4.5551 c 0.83975,0 1.34594,0.68147 1.12618,1.52013 l -7.92961,30.37824 h 12.15146 l 8.32174,-31.89837 h 4.5593 c 0.83953,0 1.33792,0.68147 1.12217,1.52013 l -7.92957,30.37824 h 12.1474 l 8.32973,-31.89837 c 0.65913,-2.51745 -0.84752,-4.5555 -3.36262,-4.5555 z"
       style="fill:#ffffff;fill-opacity:1;fill-rule:nonzero;stroke:none"
       id="path3043"
       inkscape:connector-curvature="0" />
    <path
       d="m 396.48585,222.76528 c 0.2158,-0.83866 -0.28243,-1.51866 -1.12214,-1.51866 h -15.18826 c -2.51487,0 -4.02152,-2.04099 -3.3662,-4.55477 l 3.56653,-13.67094 h 32.34194 l -1.18504,4.5555 h -20.19072 l -1.98513,7.59678 c -0.21982,0.83768 0.28241,1.51866 1.11813,1.51866 h 15.19202 c 2.51491,0 4.02558,2.04001 3.37027,4.55477 l -4.7632,18.22816 h -33.4131 l 1.18886,-4.5582 h 21.26187 z"
       style="fill:#ffffff;fill-opacity:1;fill-rule:nonzero;stroke:none"
       id="path3045"
       inkscape:connector-curvature="0" />
    <path
       d="m 300.37806,207.57641 c 0.65529,-2.51745 -0.85136,-4.5555 -3.36646,-4.5555 h -28.86178 l -8.32577,31.89567 c -0.6591,2.515 0.85137,4.5582 3.37028,4.5582 h 28.85397 z m -19.28834,27.34017 h -7.59592 c -0.83976,0 -1.34193,-0.67953 -1.12219,-1.51843 l 6.74059,-25.82174 h 7.59208 c 0.84373,0 1.34594,0.68147 1.12619,1.52013 z"
       style="fill:#ffffff;fill-opacity:1;fill-rule:nonzero;stroke:none"
       id="path3047"
       inkscape:connector-curvature="0" />
    <path
       d="m 414.90698,239.47478 h 44.04981 l 9.51078,-36.45387 h -12.14741 l -8.32576,31.89567 h -4.55906 c -0.83976,0 -1.34579,-0.67953 -1.12221,-1.51843 l 7.92942,-30.37724 h -12.14722 l -8.32977,31.89567 h -4.55533 c -0.8397,0 -1.34192,-0.67953 -1.12213,-1.51843 l 7.92959,-30.37724 h -12.15122 l -8.32597,31.89567 c -0.65911,2.515 0.84754,4.5582 3.36648,4.5582 z"
       style="fill:#ffffff;fill-opacity:1;fill-rule:nonzero;stroke:none"
       id="path3049"
       inkscape:connector-curvature="0" />
    <path
       d="m 558.65466,234.91658 c -0.8395,0 -1.34167,-0.67953 -1.12191,-1.51843 l 3.1702,-12.15153 h 18.22885 l 1.18479,-4.55477 h -18.22481 l 2.3777,-9.11544 h 20.19454 l 1.18885,-4.5555 h -32.34199 l -8.32572,31.89567 c -0.65933,2.515 0.85134,4.5582 3.36618,4.5582 h 28.858 l 1.19271,-4.5582 z"
       style="fill:#ffffff;fill-opacity:1;fill-rule:nonzero;stroke:none"
       id="path3051"
       inkscape:connector-curvature="0" />
    <path
       d="m 224.8768,203.02091 0.93771,4.5555 h 13.19887 l -7.14472,27.34017 c -0.65531,2.515 0.85536,4.5582 3.37028,4.5582 h 7.59612 l 8.32957,-31.89837 h 12.28866 l 1.18883,-4.5555 z"
       style="fill:#ffffff;fill-opacity:1;fill-rule:nonzero;stroke:none"
       id="path3053"
       inkscape:connector-curvature="0" />
    <path
       d="m 221.40447,206.05088 c -0.16473,-1.76855 -1.52232,-3.02997 -3.50385,-3.02997 h -23.58831 l -9.51864,36.45387 h 12.15527 l 2.37769,-9.1132 h 12.42988 l 0.93751,9.1132 h 12.15144 z m -20.88918,19.75322 4.75934,-18.22769 h 3.06434 c 0.671,0 1.12598,0.43134 1.17318,1.03264 l 1.77346,17.19505 z"
       style="fill:#ffffff;fill-opacity:1;fill-rule:nonzero;stroke:none"
       id="path3055"
       inkscape:connector-curvature="0" />
    <path
       d="m 501.6374,206.05088 c -0.16472,-1.76855 -1.52231,-3.02997 -3.50367,-3.02997 h -23.5845 l -9.52264,36.45387 h 12.15143 l 2.3775,-9.1132 h 12.43392 l 0.93769,9.1132 h 12.15529 z m -20.88898,19.75322 4.75536,-18.22769 h 3.07215 c 0.66694,0 1.12217,0.43134 1.16916,1.03264 l 1.77746,17.19505 z"
       style="fill:#ffffff;fill-opacity:1;fill-rule:nonzero;stroke:none"
       id="path3057"
       inkscape:connector-curvature="0" />
    <path
       d="m 526.75605,234.91658 h -3.06429 c -0.67079,0 -1.12598,-0.43257 -1.16916,-1.03116 l -3.18589,-30.86451 h -12.15123 l 3.44079,33.42586 c 0.16874,1.76364 1.52254,3.02801 3.50769,3.02801 h 23.5885 l 9.5148,-36.45387 h -12.15143 z"
       style="fill:#ffffff;fill-opacity:1;fill-rule:nonzero;stroke:none"
       id="path3059"
       inkscape:connector-curvature="0" />
  </g>
</svg>
