<svg xmlns="http://www.w3.org/2000/svg" width="1080" height="360" viewBox="0 0 285.75 95.25"><defs><clipPath id="a"><path d="M0 452h610V0H0z"/></clipPath></defs><g><path d="M95.8755 61.563l-.0342-6.7485-6.747 6.5357-6.7468 6.5358-8.3785.0037c-4.788.0021-8.3595-.0463-8.3343-.113.0786-.2081 38.1118-40.6291 38.229-40.6291.0624 0 .1135 4.1672.1135 9.2604s.0446 9.256.0992 9.2508c.0546-.0053 3.6102-3.9344 7.9014-8.7313 4.2912-4.7969 7.8482-8.7216 7.9044-8.7216.0563 0 .1023 6.0722.1023 13.4938v13.4937h1.0063l5.7474-12.7661 5.7474-12.7662h13.472c7.4095 0 13.452.0496 13.4277.1102-.0242.0607-.9027 2.0247-1.9522 4.3647l-1.9082 4.2544-8.0639.034-8.0639.0341-1.3058 3.016c-.7182 1.6587-1.3058 3.042-1.3058 3.074 0 .0319 1.956.0737 4.3468.0929l4.3467.0348-1.9407 4.498-1.9406 4.4979-3.6852.0661-3.6851.0662-1.3006 2.8998c-.7154 1.5949-1.3007 2.9194-1.3007 2.9435 0 .024 7.6052.0422 16.9003.0404l16.9003-.0032 1.2163-2.7418c.669-1.508 1.2558-2.846 1.304-2.9734.0829-.2188-.3332-.2315-7.5994-.2315-4.2279 0-7.687-.0292-7.687-.065 0-.055 9.8414-22.5928 10.3263-23.6483l.1671-.3638h13.5528c12.8528 0 13.5483.012 13.465.2315-.0483.1274-.8959 2.092-1.8834 4.3657l-1.7956 4.134h-16.6012l-1.287 2.9436c-.7078 1.6189-1.3167 3.0174-1.3532 3.1078-.0522.1295 1.56.1715 7.614.1984l7.6803.0341-3.2348 7.3947c-1.7791 4.067-3.2348 7.4454-3.2348 7.5075 0 .0621 4.4854.113 9.9675.113h9.9675l1.2773-2.8561c.7025-1.5709 1.2773-2.9099 1.2773-2.9755 0-.0693-3.2184-.1338-7.6623-.1536l-7.6623-.0341 5.248-12.0044 5.248-12.0044 13.3284-.001c7.3306-.0006 13.328.0435 13.3277.098 0 .0546-.8303 2.0043-1.8445 4.3326l-1.844 4.2334-7.9884.034-7.9885.0341-1.2801 2.9425c-.7041 1.6184-1.2799 3.0169-1.2795 3.1078 0 .1304 1.584.1654 7.4751.1654 4.111 0 7.475.0447 7.4758.0992.0013.0546-2.2764 5.292-5.0602 11.6388l-5.0614 11.5396-46.9954.0028-46.9953.003-.0344-6.5119-.0343-6.5117-6.3994 6.6771c-3.5196 3.6724-6.451 6.6968-6.5141 6.7209-.0636.0242-.13-2.9633-.149-6.7049z" fill="#fff"/></g></svg>