<svg xmlns="http://www.w3.org/2000/svg" viewBox="0 0 285.75 95.25" height="360" width="1080"><defs><clipPath id="a"><path d="M0 452h610V0H0z"/></clipPath></defs><g fill="#fff"><path d="M73.902 66.87c0 2.58.293 4.802.722 5.893 1.091.43 3.312.722 5.893.722 2.58 0 4.8-.293 5.892-.722.43-1.091.722-3.312.722-5.892 0-2.58-.293-4.802-.722-5.893-1.091-.43-3.312-.722-5.892-.722-2.58 0-4.802.293-5.893.722-.429 1.091-.722 3.312-.722 5.893zm3.765.117v-.212l.27-1.333h5.43v2.01h-4.589l.239 1.123-.588.783a25.105 25.105 0 0 0-.206-.91c-.069-.254-.13-.459-.183-.614a2.745 2.745 0 0 0-.167-.423 7.75 7.75 0 0 0-.206-.424zM131.729 66.87c0 2.58.293 4.802.722 5.893 1.091.43 3.312.722 5.893.722 2.58 0 4.8-.293 5.892-.722.43-1.091.722-3.312.722-5.892 0-2.58-.293-4.802-.722-5.893-1.091-.43-3.312-.722-5.892-.722-2.58 0-4.802.293-5.893.722-.429 1.091-.722 3.312-.722 5.893zm5.113 2.85v-.678h2.948v.678zm.775 1.241a1.905 1.905 0 0 1 .117-.652h.554c-.063.093-.11.186-.14.28a.916.916 0 0 0-.046.287c0 .19.056.337.167.443.11.105.264.158.462.158s.353-.053.464-.158c.11-.106.165-.254.165-.443a.946.946 0 0 0-.188-.566h.555c.04.106.069.214.088.324.02.108.03.217.03.327 0 .383-.098.682-.294.898-.197.216-.47.324-.82.324s-.623-.108-.818-.324c-.198-.216-.296-.515-.296-.898zm0-3.592c0-.334.1-.6.301-.8.201-.2.47-.301.805-.301h.194v1.586a.504.504 0 0 0 .358-.173c.08-.098.12-.236.12-.413 0-.142-.022-.288-.063-.437a2.289 2.289 0 0 0-.194-.463h.523c.061.16.106.321.137.482.031.16.047.32.047.481 0 .384-.097.683-.292.896-.195.212-.47.318-.822.318-.346 0-.619-.104-.817-.312-.198-.21-.297-.498-.297-.864zm0-2.516c0-.383.076-.659.227-.828.15-.17.395-.256.735-.256h1.211v.684h-.314a.881.881 0 0 1 .282.307.904.904 0 0 1 .087.415c0 .22-.064.398-.191.536a.657.657 0 0 1-.5.205c-.25 0-.432-.086-.548-.256-.116-.172-.175-.441-.175-.807v-.4h-.052c-.108 0-.186.042-.235.127-.05.084-.076.216-.076.396 0 .145.015.28.044.405.029.125.072.242.13.349h-.517a3.743 3.743 0 0 1-.108-.877zm0-3.104a1.458 1.458 0 0 1 .015-.19l.614-.002a.825.825 0 0 0-.081.354c0 .175.056.31.169.404.11.093.27.14.479.14h.977v.678h-2.121v-.678h.348a.86.86 0 0 1-.303-.3.813.813 0 0 1-.097-.407zm.45 5.624c0 .131.038.238.113.32.073.082.18.133.318.153v-.88a.429.429 0 0 0-.311.113.384.384 0 0 0-.12.294zm.768-2.568c0 .142.024.248.072.32a.24.24 0 0 0 .212.106.255.255 0 0 0 .203-.085.366.366 0 0 0 .072-.24.43.43 0 0 0-.136-.323.482.482 0 0 0-.345-.13h-.078zM131.729 28.38c0 2.58.293 4.8.722 5.892 1.091.43 3.312.722 5.893.722 2.58 0 4.8-.293 5.892-.722.43-1.091.722-3.312.722-5.893 0-2.58-.293-4.8-.722-5.892-1.091-.43-3.312-.722-5.892-.722-2.58 0-4.802.293-5.893.722-.429 1.091-.722 3.312-.722 5.892zm5.225.191v-.678h.602v-.7h.485v.7h.9c.099 0 .166-.02.201-.06.034-.038.051-.116.051-.232v-.349h.485v.582c0 .268-.055.458-.166.57-.113.111-.303.167-.57.167h-.9v.337h-.486v-.337zm.55 4.441c0-.333.101-.6.302-.8.201-.2.47-.3.806-.3h.193v1.585a.504.504 0 0 0 .358-.172c.08-.099.12-.236.12-.413 0-.143-.021-.289-.063-.438a2.289 2.289 0 0 0-.193-.462h.523c.06.16.106.321.136.481.032.16.047.321.047.482 0 .384-.097.682-.291.896-.196.212-.47.318-.823.318-.346 0-.618-.104-.816-.313-.199-.21-.298-.497-.298-.864zm0-2.997c0-.245.076-.43.227-.557.15-.128.368-.192.655-.192h1.292v.682h-.989c-.183 0-.309.005-.378.014a.382.382 0 0 0-.154.042.272.272 0 0 0-.102.108.313.313 0 0 0-.039.155c0 .141.055.253.165.334.109.08.26.12.453.12h1.044v.679h-2.122v-.679h.311a1.036 1.036 0 0 1-.273-.325.817.817 0 0 1-.09-.381zm0-4.256c0-.334.101-.6.302-.8.201-.2.47-.3.806-.3h.193v1.585a.504.504 0 0 0 .358-.172c.08-.099.12-.236.12-.413 0-.143-.021-.289-.063-.438a2.288 2.288 0 0 0-.193-.463h.523c.06.16.106.322.136.482.032.16.047.32.047.481 0 .384-.097.683-.291.896-.196.213-.47.319-.823.319-.346 0-.618-.105-.816-.313-.199-.21-.298-.498-.298-.864zm0-2.997c0-.023.003-.048.005-.074 0-.027.005-.065.011-.116l.614-.002a.825.825 0 0 0-.081.354c0 .175.056.31.168.404.111.094.271.14.48.14h.977v.679h-2.122v-.679h.349a.86.86 0 0 1-.304-.3.813.813 0 0 1-.096-.406zm.452 10.254c0 .132.037.238.112.32.073.082.179.134.318.154v-.881a.428.428 0 0 0-.31.113.384.384 0 0 0-.12.294zm0-7.253c0 .131.037.238.112.32.073.082.179.133.318.153v-.88a.427.427 0 0 0-.31.113.384.384 0 0 0-.12.294zM93.178 28.38c0 2.58.293 4.8.722 5.892 1.091.43 3.312.722 5.892.722 2.58 0 4.802-.293 5.893-.722.429-1.091.722-3.312.722-5.893 0-2.58-.293-4.8-.722-5.892-1.091-.43-3.312-.722-5.893-.722-2.58 0-4.8.293-5.892.722-.43 1.091-.722 3.312-.722 5.892zm3.765.793v-1.46c0-1.552.325-2.329.976-2.329h.564v2.032h-.595c-.17 0-.255.233-.255.699v.74c0 .41.085.614.255.614h1.507l-.016-1.27v-.613c0-1.553.326-2.329.977-2.329h1.326c.64 0 .96.776.96 2.329v1.587c0 1.552-.294 2.329-.881 2.329h-3.842c-.65 0-.976-.777-.976-2.329zm3.127.296h1.628c.169 0 .253-.204.253-.613v-.953c0-.41-.082-.614-.246-.614h-1.373c-.174 0-.262.233-.262.699zM112.453 47.625c0 2.58.293 4.801.722 5.893 1.092.429 3.313.722 5.893.722 2.58 0 4.801-.293 5.893-.722.429-1.092.722-3.313.722-5.893 0-2.58-.293-4.801-.722-5.893-1.092-.429-3.313-.722-5.893-.722-2.58 0-4.801.293-5.893.722-.429 1.092-.722 3.313-.722 5.893zm3.765.624v-1.248c0-1.623.326-2.435.977-2.435h1.214c.328 0 .532.445.61 1.334.054-.988.308-1.482.763-1.482h1.167c.646 0 .968.812.968 2.434v1.546c0 1.622-.322 2.434-.968 2.434h-1.175c-.439 0-.693-.537-.762-1.61-.08.974-.283 1.462-.611 1.462h-1.206c-.651 0-.977-.812-.977-2.435zm.699-.296c0 .466.082.699.246.699h1.254c.18 0 .27-.205.27-.614v-.805c-.011-.409-.103-.62-.278-.635h-1.246c-.164 0-.246.24-.246.72zm2.428.19c.005.438.101.657.286.657h1.183c.275 0 .413-.304.413-.91v-.53c0-.606-.138-.91-.413-.91h-1.183c-.19 0-.286.254-.286.762zM131.729 47.625c0 2.58.293 4.801.722 5.893 1.091.429 3.312.722 5.893.722 2.58 0 4.8-.293 5.892-.722.43-1.092.722-3.313.722-5.893 0-2.58-.293-4.801-.722-5.893-1.091-.429-3.312-.722-5.892-.722-2.58 0-4.802.293-5.893.722-.429 1.092-.722 3.313-.722 5.893zm3.765.71v-1.419c0-1.623.325-2.434.976-2.434h3.747c.65 0 .976.811.976 2.434v1.419c0 1.622-.325 2.433-.976 2.433h-3.747c-.65 0-.976-.81-.976-2.433zm.69-.297c0 .466.088.699.263.699h3.785c.18 0 .27-.205.27-.614v-.974c0-.423-.092-.635-.277-.635h-3.778c-.175 0-.262.247-.262.741zM93.178 47.625c0 2.58.293 4.801.722 5.893 1.091.429 3.312.722 5.892.722 2.58 0 4.802-.293 5.893-.722.429-1.092.722-3.313.722-5.893 0-2.58-.293-4.801-.722-5.893-1.091-.429-3.312-.722-5.893-.722-2.58 0-4.8.293-5.892.722-.43 1.092-.722 3.313-.722 5.893zm3.765 2.942v-5.736h.706v3.831h1.603v-1.799c0-1.495.26-2.243.779-2.243h1.603c.672 0 1.008.811 1.008 2.434v1.143c0 1.622-.323 2.434-.969 2.434h-.444v-2.032h.5c.148 0 .222-.198.222-.593v-.783c0-.381-.074-.572-.222-.572h-1.556c-.153 0-.23.24-.23.72v3.196zM93.178 66.87c0 2.58.293 4.802.722 5.893 1.091.43 3.312.722 5.892.722 2.58 0 4.802-.293 5.893-.722.429-1.091.722-3.312.722-5.892 0-2.58-.293-4.802-.722-5.893-1.091-.43-3.312-.722-5.893-.722-2.58 0-4.8.293-5.892.722-.43 1.091-.722 3.312-.722 5.893zm3.765.35v-2.625h3.96V63.43h.644v1.164h1.095v1.99h-1.095v2.92c0 .184-.014.325-.04.424a.312.312 0 0 1-.175.212l-.388.17zm.96-.91l3 2.095V66.52l-3-.318zM73.902 28.38c0 2.58.293 4.8.722 5.892 1.091.43 3.312.722 5.893.722 2.58 0 4.8-.293 5.892-.722.43-1.091.722-3.312.722-5.893 0-2.58-.293-4.8-.722-5.892-1.091-.43-3.312-.722-5.892-.722-2.58 0-4.802.293-5.893.722-.429 1.091-.722 3.312-.722 5.892zm3.765.72v-1.186c0-1.623.326-2.434.976-2.434h1.215c.333 0 .526.444.58 1.333.057-1.058.245-1.587.563-1.587h1.397c.645 0 .968.811.968 2.434v1.376c0 1.623-.323 2.434-.968 2.434h-.524v-2.032h.547c.17 0 .255-.197.255-.592v-.975c0-.409-.085-.613-.255-.613h-1.27c-.238 0-.357.325-.357.974v.761h-.643v-.592c0-.593-.103-.89-.31-.89H78.62c-.17 0-.255.22-.255.657v.74c0 .396.085.593.255.593h.658v2.032h-.635c-.65 0-.976-.81-.976-2.434zM112.453 66.87c0 2.58.293 4.802.722 5.893 1.092.43 3.313.722 5.893.722 2.58 0 4.801-.293 5.893-.722.429-1.091.722-3.312.722-5.892 0-2.58-.293-4.802-.722-5.893-1.092-.43-3.313-.722-5.893-.722-2.58 0-4.801.293-5.893.722-.429 1.091-.722 3.312-.722 5.893zm3.766 2.943V64.5l.412-.571 5.286 2.709v2.01l-4.992-2.624v3.789zM73.902 47.625c0 2.58.293 4.801.722 5.893 1.091.429 3.312.722 5.893.722 2.58 0 4.8-.293 5.892-.722.43-1.092.722-3.313.722-5.893 0-2.58-.293-4.801-.722-5.893-1.091-.429-3.312-.722-5.892-.722-2.58 0-4.802.293-5.893.722-.429 1.092-.722 3.313-.722 5.893zm3.765.53v-1.06c0-1.622.326-2.433.976-2.433h1.342c.106 0 .198.042.277.126.08.071.167.205.262.403l1.223 2.794c.064.127.121.197.174.212h.762v-3.43h.683v5.461H81.97a.472.472 0 0 1-.349-.127c-.085-.084-.18-.254-.286-.508l-1.183-2.645c-.053-.127-.095-.198-.127-.212-.032-.028-.084-.042-.158-.042h-1.294c-.143 0-.214.183-.214.55v.698c0 .41.074.614.222.614h.699v2.032h-.636c-.65 0-.976-.811-.976-2.434zM112.453 28.38c0 2.58.293 4.8.722 5.892 1.092.43 3.313.722 5.893.722 2.58 0 4.801-.293 5.893-.722.429-1.091.722-3.312.722-5.893 0-2.58-.293-4.8-.722-5.892-1.092-.43-3.313-.722-5.893-.722-2.58 0-4.801.293-5.893.722-.429 1.091-.722 3.312-.722 5.892zm3.766.667v-1.334c0-1.623.333-2.434 1-2.434h3.682c.678 0 1.016.811 1.016 2.434v1.206c0 1.623-.338 2.434-1.016 2.434h-.396v-2.031h.468c.17 0 .254-.205.254-.614v-.868c0-.353-.085-.53-.254-.53h-1.151l.008 1.737c0 1.622-.339 2.434-1.016 2.434h-1.595c-.667 0-1-.812-1-2.434zm.69-.297c0 .466.076.699.23.699h1.723c.185 0 .277-.233.277-.699v-1.44h-2c-.154 0-.23.262-.23.784z"/><circle r="22.285" cy="47.625" cx="189.563"/><path d="M91.63 8.611h16.949v1.412H91.63zM111.288 8.611h16.949v1.412h-16.949zM91.63 85.227h16.949v1.412H91.63zM111.288 85.227h16.949v1.412h-16.949z"/></g></svg>