<svg xmlns="http://www.w3.org/2000/svg" viewBox="0 0 285.75 95.25" height="360" width="1080">
  <defs>
    <clipPath id="a">
      <path d="M0 452h610V0H0z"/>
    </clipPath>
  </defs>
  <g fill="#fff">
    <path d="M96.714 32.097a15.528 15.528 0 0 0-15.528 15.528 15.528 15.528 0 0 0 15.528 15.528 15.528 15.528 0 0 0 15.528-15.528 15.528 15.528 0 0 0-15.528-15.528zm0 5.243a10.285 10.285 0 0 1 10.285 10.285A10.285 10.285 0 0 1 96.714 57.91a10.285 10.285 0 0 1-10.285-10.285A10.285 10.285 0 0 1 96.714 37.34z"/>
    <circle r="7.7" cy="47.625" cx="96.714"/>
    <circle r="8.82" cy="47.625" cx="195.744"/>
    <circle r="8.82" cy="47.625" cx="174.853"/>
    <circle r="8.82" cy="47.625" cx="153.961"/>
    <circle r="8.82" cy="47.625" cx="133.07"/>
  </g>
</svg>
