<svg xmlns="http://www.w3.org/2000/svg" viewBox="0 0 285.75 95.25" height="360" width="1080">
  <defs>
    <clipPath id="a">
      <path d="M0 452h610V0H0z"/>
    </clipPath>
  </defs>
  <g fill="#fff">
    <rect transform="rotate(-35.097)" ry="2.646" rx="2.646" y="118.179" x="54.242" height="5.743" width="16.181"/>
    <circle r="7.35" cy="71.7" cx="194.671"/>
    <path d="M76.8 40.028a.528.528 0 0 0-.53.53v11.297H64.974a.528.528 0 0 0-.529.529v9.098c0 .293.236.529.53.529H76.27v11.297c0 .293.236.53.529.53h9.098c.293 0 .53-.237.53-.53V62.011h11.297c.293 0 .529-.236.529-.53v-9.097a.528.528 0 0 0-.53-.53H86.428V40.558a.528.528 0 0 0-.529-.529z"/>
    <circle r="7.35" cy="57.591" cx="213.956"/>
    <circle r="7.35" cy="57.388" cx="176.758"/>
    <circle r="7.35" cy="43.227" cx="196.035"/>
    <rect transform="rotate(-35.097)" ry="2.646" rx="2.646" y="130.706" x="71.823" height="5.743" width="16.181"/>
    <path d="M193.333 19.239c-4.178 0-12.534 0-16.756-.011-4.223-.011-4.311-.033-4.388-.133a.704.704 0 0 1-.122-.496c.022-.22.133-.485.232-.672.1-.187.188-.298.375-.386.187-.088.474-.154 4.89-.187 4.416-.033 12.98-.033 21.535-.033 1.169.154 2.337.308 3.44.496 1.102.187 2.138.408 3.219.694 1.08.287 2.205.64 3.458 1.09 1.252.45 2.65 1.005 3.763 1.457 1.113.452 1.951.805 2.524 1.113.573.31.882.574 1.036.794.155.22.155.44.122.673-.033.231-.1.495-.243.661-.143.165-.363.232-.64.202-.278-.03-.65-.169-1.146-.411-.496-.243-1.135-.596-1.952-.956-.818-.36-1.851-.742-2.954-1.117-1.102-.375-2.293-.75-3.402-1.083a86.593 86.593 0 0 0-3.075-.872c-.94-.245-1.789-.442-2.73-.57-.942-.13-1.974-.191-2.49-.222-.518-.031-.518-.031-4.696-.031zM82.433 19.239c4.178 0 12.534 0 16.756-.011 4.223-.011 4.311-.033 4.388-.133a.704.704 0 0 0 .122-.496c-.022-.22-.133-.485-.232-.672-.1-.187-.187-.298-.375-.386-.187-.088-.474-.154-4.89-.187-4.416-.033-12.98-.033-21.535-.033a95.431 95.431 0 0 0-3.44.496 35.586 35.586 0 0 0-3.219.694 41.91 41.91 0 0 0-3.458 1.09c-1.252.45-2.65 1.005-3.763 1.457-1.113.452-1.951.805-2.524 1.113-.573.31-.882.574-1.036.794-.155.22-.155.44-.122.673.033.231.1.495.243.661.143.165.363.232.64.202.278-.03.65-.169 1.146-.411.496-.243 1.135-.596 1.952-.956.818-.36 1.851-.742 2.954-1.117 1.102-.375 2.293-.75 3.402-1.083a86.595 86.595 0 0 1 3.075-.872c.94-.245 1.789-.442 2.73-.57.942-.13 1.974-.191 2.491-.222.517-.031.517-.031 4.695-.031z"/>
  </g>
</svg>
