<svg xmlns="http://www.w3.org/2000/svg" height="70.47" width="343.64">
  <path d="M273.13 70.47h28.18L343.64 0h-28.17l-42.34 70.47" fill="#498cc1"/>
  <path d="M110.59 19.22v38.4h23.04c7.16-1.17 11.26-5.19 12.82-11.52.02-5.12 0-10.23 0-15.36-1.56-6.32-5.66-10.34-12.82-11.51h-23.04zm9 7.71h10.22c3.21.57 6.25 1.58 7.7 6.4l-.02 10.24c-1.46 4.82-4.5 5.83-7.7 6.4h-10.22l.03-23.04zM12 57.63V28.2H.46v-8.96h35.86l-3.85 8.96h-8.96v29.43H11.99M40.16 19.25L26.08 57.62h11.55l4.45-14.05 4.48 6.4h7.68l2.56 7.65h11.63L54.24 19.25H40.16zm7 10.21l4.52 11.55h-8.96l4.43-11.55zM69.6 57.63V19.24h14.1L97.8 47.41V19.24h8.96v38.4H92.66L78.58 29.48v28.14h-8.99" stroke="#000" stroke-width=".9092676000000001" fill="#666"/>
  <path d="M156.68 39.74l-15.35-20.5h11.51l8.35 12.78 8.31-12.78h12.79l-15.4 20.44.02 17.95H156.7V39.74" stroke="#000" stroke-width=".9092676000000001" fill="#666"/>
  <path d="M236.15 70.47h28.17L306.65 0h-28.17l-42.34 70.47" fill="#197123"/>
  <path d="M199.15 70.47h28.18L269.66 0h-28.17l-42.34 70.47" fill="#ae1f19"/>
  <text font-size="40" y="32.58" x="295.3" font-family="Open Sans Light" letter-spacing="0" word-spacing="0"/>
</svg>
