<svg xmlns="http://www.w3.org/2000/svg" viewBox="0 0 285.75 95.25" height="360" width="1080">
  <defs>
    <clipPath id="a">
      <path d="M0 452h610V0H0z"/>
    </clipPath>
  </defs>
  <g fill="#fff">
    <path d="M134.4 56.04a72.54 72.54 0 0 0-4.56-1.87c-1.12-.4-1.53-.4-1.98-.33-.45.06-.95.19-1.4.6-.44.4-.86 1.14-1.94 2.8-1.07 1.65-2.82 4.24-4.17 6.38a45.98 45.98 0 0 0-2.81 4.95c-.49 1.08-.49 1.51-.43 1.92.06.4.2.84.4 1.18.2.35.48.63.84.9.36.29.8.57 1.43.74.64.17 1.48.24 4.29.26 2.8.02 7.58 0 10.48-.04 2.9-.05 3.93-.13 4.6-.27.67-.15.98-.37 1.34-.73.36-.36.76-.86 1.46-2 .7-1.13 1.7-2.9 2.28-4.1.58-1.21.73-1.83.73-2.47 0-.64-.15-1.3-.39-1.84a3.56 3.56 0 0 0-1.07-1.42 13.7 13.7 0 0 0-2.12-1.33 140.72 140.72 0 0 0-6.98-3.34zM138.91 52.83c-1.24-.67-3.74-2.02-5.13-2.84-1.38-.83-1.67-1.14-1.85-1.53a2.12 2.12 0 0 1-.19-1.33c.1-.46.38-.93 1.01-1.79.64-.85 1.64-2.1 2.6-3.3.97-1.2 1.91-2.36 2.67-3.25a16.9 16.9 0 0 1 1.86-1.92c.5-.41.97-.65 1.4-.76.44-.1.88-.1 1.36-.01.48.09 1.01.28 3.38 1.65a233.3 233.3 0 0 1 8.76 5.36c2.19 1.44 2.34 1.75 2.45 2.1a4.71 4.71 0 0 1 .04 2.44c-.13.4-.4.8-1.03 1.57s-1.67 1.97-2.57 3.07c-.9 1.1-1.7 2.14-2.25 2.87a8.42 8.42 0 0 1-1.27 1.45c-.36.28-.73.41-1.17.46-.43.04-.93.01-1.43-.08-.5-.1-1-.25-2.23-.84-1.23-.6-3.2-1.62-4.18-2.14l-2.23-1.18zM157.2 21.67a6.07 6.07 0 0 0-3.05.8c-.95.54-1.97 1.37-3.4 2.73-1.41 1.35-3.22 3.2-5.64 5.77l-.19.2c-.03.43-.03.8.06 1.15.1.44.36.85.98 1.36.62.52 1.62 1.14 3.48 2.17 1.85 1.03 4.56 2.46 6.5 3.43 1.93.96 3.08 1.46 3.91 1.77a7.7 7.7 0 0 0 1.7.49c.37.05.69.01 1.08-.14.23-.08.55-.24 1-.5 1.2-1.23 2.3-2.3 3.27-3.24 1.47-1.43 2.65-2.57 3.45-3.43a5.8 5.8 0 0 0 1.39-2.03c.2-.6.2-1.21.02-1.8-.18-.6-.55-1.2-2.59-2.6a91.13 91.13 0 0 0-8.13-4.84c-2.04-1.04-3.04-1.28-3.85-1.29z"/>
  </g>
  <g fill="#fff">
    <path d="M31.6 27.34c-.29 0-.52.23-.52.53v11.3h-11.3c-.3 0-.53.23-.53.52v9.1c0 .3.24.53.53.53h11.3v11.3c0 .3.23.53.53.53h9.1c.29 0 .52-.24.52-.53v-11.3h11.3c.3 0 .53-.23.53-.53v-9.1c0-.29-.23-.52-.53-.52h-11.3v-11.3c0-.3-.23-.53-.52-.53z"/>
    <path d="M36.04 25.53a18.7 18.7 0 0 0-7.28 1.53 18.7 18.7 0 0 0-9.79 24.58 18.7 18.7 0 0 0 24.58 9.79 18.7 18.7 0 0 0 9.8-24.58 18.7 18.7 0 0 0-17.31-11.32zm.01 2.25a16.46 16.46 0 0 1 15.23 9.96 16.46 16.46 0 0 1-8.62 21.63 16.46 16.46 0 0 1-21.63-8.62 16.46 16.46 0 0 1 8.62-21.63 16.46 16.46 0 0 1 6.4-1.34z"/>
    <rect ry="2.65" rx="2.65" y="72.11" x="197.07" height="5.26" width="15.88"/>
    <rect transform="rotate(-59.16)" ry="2.65" rx="2.65" y="98.39" x="-18.14" height="5.26" width="15.88"/>
    <rect transform="rotate(-59.16)" ry="2.65" rx="2.65" y="112.52" x="-9.7" height="5.26" width="15.88"/>
    <rect ry="2.65" rx="2.65" y="72.11" x="224.75" height="5.26" width="15.88"/>
    <rect ry="2.65" rx="2.65" y="72.11" x="252.43" height="5.26" width="15.88"/>
    <rect ry="2.65" rx="2.65" y="54.03" x="252.43" height="5.26" width="15.88"/>
    <rect ry="2.65" rx="2.65" y="54.03" x="224.75" height="5.26" width="15.88"/>
    <rect ry="2.65" rx="2.65" y="54.03" x="197.07" height="5.26" width="15.88"/>
    <rect ry="2.65" rx="2.65" y="35.96" x="197.07" height="5.26" width="15.88"/>
    <rect ry="2.65" rx="2.65" y="35.96" x="224.75" height="5.26" width="15.88"/>
    <rect ry="2.65" rx="2.65" y="35.96" x="252.43" height="5.26" width="15.88"/>
    <rect ry="2.65" rx="2.65" y="17.88" x="252.43" height="5.26" width="15.88"/>
    <rect ry="2.65" rx="2.65" y="17.88" x="224.75" height="5.26" width="15.88"/>
    <rect ry="2.65" rx="2.65" y="17.88" x="197.07" height="5.26" width="15.88"/>
  </g>
</svg>
