<svg xmlns="http://www.w3.org/2000/svg" width="566.93" height="197.12">
  <g fill="#F50005">
    <path d="M88.7 89.43c2.71-8.08 5.13-16.25 7.66-24.39.62-2 1.2-4.03 1.8-6.04.09-.43 2.3-8.2 3.15-11.7 1.02-4.18 2.1-8.38 2.61-12.64.31-2.63 1.47-4 3.75-4.7 1.33-.4 2.06-1.08 3.44-1.18 1.13-.09 1.92-.37 2.44-1.4.44-.89 1.58-1.43 2.17-2.21.44-.59 1-1.28 1.63-1.47 1.83-.55 3.78-.73 5.58-1.32 2.28-.76 4.9-1.3 6.56-2.83 1.7-1.56 3.27-2.4 5.46-2.58 2.03-.15 3.79-.93 4.44-3.06.4-1.31 1.41-1.9 2.43-2.56.93-.18 1.45-.56 1.56-1.67.11-1.12-4.08-.5-4.35-.78-1.3-1.3-1.17-1.57.53-2.2 1.1-.42 2.32-.56 3.48-.82l2.12-.5c1.67-.22 3.35-.46 5.02-.65 2.9-.35 5.81-.64 8.71-1.02a4.7 4.7 0 0 0 1.97-.66A3.78 3.78 0 0 0 162.09.9c.02-.6-1.14-.93-1.7-.91-2.32.08-4.64.24-6.94.56-3.57.51-7.13 1.14-10.68 1.79-2.95.55-5.9 1.2-8.84 1.81-.41.05-5.73 1.29-6.11 1.4l-3.42.81-.25.04-3.35.59c-3.46.72-6.91 1.47-10.38 2.14-1.88.36-3.8.83-5.67 1.23-2.67.57-5.28 1.07-7.96 1.6-5.91 1.15-11.85 2.2-17.78 3.28-.57.02-21.06 3.66-31.97 3.98-2.52.08-5.06.03-7.6.01-.87 0-1.57.14-1.85 1.15-.36 1.29-.07 1.71 1.43 2.3.68.28 1.23.84 1.84 1.28-.7.47-1.35 1.05-2.12 1.37-.52.22-1.2.02-1.8.1-.48.07-1.02.18-1.4.46-1.6 1.22-1.1 2.66 1.24 3.74 3.12 1.42 3.3 2.08 1.36 4.9-.37.26-1.12.5-1.12.77s.67.64 1.06.75c.34.1.76-.11 1.14-.18.52.56 1.2 1.05 1.5 1.71.63 1.4 1.54 1.96 3.09 1.84 4.31-.34 8.68-.3 12.95-.92 4.47-.65 8.8-2.07 13.35-2.47 3.7-.33 7.38-1.05 11.08-1.6 1-.14 1.57.24 1.53 1.3-.04 1.42.08 2.92-.17 4.24-.25 1.32-1.03 5.7-1.73 8.8-.93 4.09-2.28 8.7-2.3 8.95l-1.23 4.23a710.79 710.79 0 0 0-4.89 16.15c-1.2 4.92-6.45 17.54-7.21 19.18-1.74 3.75-3.5 7.53-5.6 11.09-2.09 3.5-4.61 6.75-6.95 10.1-1.8 2.58-6.36 7.09-6.42 7.16-6.82 7.77-14.56 9.43-14.73 9.49-5.07 1.75-9.91 1.7-14.88-.8-2.24-1.14-4.62-2.14-6.56-3.67-2.08-1.63-4.34-3.74-6.25-5.45-.57-.5-.98-1.24-1.76-1.65-1.17-.61-1.98-.09-2.03 1.26-.03.58.02 1.27.3 1.76 2.19 3.67 4.62 7.2 8.3 9.52a89.46 89.46 0 0 0 12.53 6.26 53.42 53.42 0 0 0 9.2 2.97c2.77.56 7.45 1.35 11.35.2 3.9-1.16 8.23-2.94 14.27-7.86 6.03-4.93 18.13-18.74 22.8-27.33 2-3.7 3.8-7.5 5.63-11.28 1.52-3.17 3.2-6.31 4.31-9.63zM268.58 99.11v.01l-.01.01z"/>
    <path d="M164.39 26.52l-1.84-.47-.07-.02c-.13-1.7-.2-3.4-.4-5.09-.1-.91.24-2.16-1.26-2.37l-.01.02c-.96-.8-3.02-.16-3.02-.16s-2.08.39-2.5 1.48c-1.29.17-2.58.46-3.87.47-4.37.05-4.35.02-5.96 4.06-.2.52-.62.94-.95 1.41-.36-.42-.95-.8-1.05-1.27-.3-1.58-1.32-1.89-2.67-1.77-1.33.11-1.34 1.1-1.62 2.13-.67 2.51-1.34 5.15-3.56 6.82-2.68 2.02-3.75 4.88-4.63 7.9-.67 2.3-.91 4.79-3.13 6.35-.31.22-.6 1.71-.51 1.9-1.9 2.53-7.7 11.11-8.54 12.81-.93 1.86-2.05 3.72-2.48 5.71-.35 1.64-.81 3.03-1.97 4.2-2.25 1.23-1.71 3.44-1.88 5.4l-1.13 1.82-.85 1.21-.43.46c-.38.45-.43 1-1.14 1.34a48.2 48.2 0 0 1-4.86 1.7c-2.5.7-3.04 1.04-2.96 2.39.12 1.83 1.49 1.9 2.85 1.98 1.14.07 1.37.77.95 1.68-1.32 2.83-2.62 5.68-4.06 8.44-3.41 6.52-10.54 20.05-10.63 20.33l-1.95 4.94-.01.63-.78 1.07-.44.71-.13.6c-.72 1.33-1.79 2.58-2.07 3.98a8.18 8.18 0 0 1-1.88 4.01c-2.1 2.34-1.34 4.89-.76 7.44.2.82.91.91 1.36.38.76-.9 1.4-1.94 1.94-3 .58-1.15.91-2.43 1.5-3.58.16-.34.84-.65 1.21-.58.27.04.69.8.6 1.12-.33 1.14-.87 2.2-1.25 3.33-.1.29-.06.94.2 1.02s.84-.18.96-.43c.74-1.53 1.37-3.13 2.1-4.68 1.26-2.72 2.54-5.43 3.87-8.13.13-.28.66-.62.88-.55.28.1.5.56.62.9.1.27.08.61.03.9-.52 3.14-1.06 6.27-1.57 9.4-.03.17.08.52.14.52.27.01.69.02.78-.14.29-.49.46-1.05.66-1.59.9-2.42 1.09-5.19 3.57-6.82.44-.29.86-1 .85-1.52 0-2.26 5.25-13.5 5.87-14.7l.01-.02c.5-1.24 6.42-13.4 7.58-16.51.14-.39 2.03-4.52 2.16-4.69l2.5-5.46c1.25-.62 2.47-1.34 3.77-1.84 6.64-2.58 22.22-8.98 23-8.79 0 .2 0 1.7.02 1.9l.04 1.22c-.01 2.8-.07 5.62-.02 8.43.05 2.22.61 9.44.45 10.8-.27 2.15-.35 4.15.61 6.22a8.86 8.86 0 0 1 .68 6.21l-.04.06-.04 2.47c.15 1.5.14 2.98 1.35 4.2.83.84 1.47 1.1 2.17.06.5-.75.8-.63 1.33-.04 1.35 1.52 2.1 3.15 1.72 5.26-.13.7.19 1.54.5 2.2.19.38.49 1.07 1.22.8.73-.26.66-.95.72-1.46.11-1-.04-2.03.06-3.03.09-.87.27-1.77.6-2.58.2-.47.74-.9 1.23-1.09.18-.07.71.59.96.98.32.5.42 1.17.78 1.62.87 1.1 2.08.9 2.48-.43.26-.85.37-1.79.35-2.68-.1-3.74-.43-7.48-.4-11.22.08-7.48.35-14.97.52-22.46.18-7.39.3-14.78.5-22.16.07-2.22.48-4.42.5-6.63.07-7.2.71-14.34 1.85-21.44a8.45 8.45 0 0 0-1.16-5.96l-.12-.04zm-21.87 39.67c-1.21.5-2.5.8-3.72 1.29-.52.2-1.67 1.02-1.67 1.02s-.49.58-.63.77c-.87.41-1.75 1.19-2.62 1.18-2.19 0-3.67.93-4.79 2.68-.27.42-.47.93-.82 1.26-.26.24-.77.4-1.08.32-.28-.09-.65-.58-.62-.85.08-.89.17-1.83.54-2.62a196.2 196.2 0 0 1 4.6-9.54c2.58-4.92 5.3-9.77 7.95-14.64.44-.8.77-1.66 2.05-1.32.43.12 1.05-.29 1.53-.57.45-.27.82-.68 1.23-1.02.1.59.29 1.17.3 1.76.01 5.58-.06 11.17.03 16.75.03 1.8-.73 2.9-2.28 3.53zM279.9 21.7l-1.83-.7a.58.58 0 0 0-.14-.38c-.03-.03 1.82-2.27.77-3.35-.29-.22-1.86-.77-2.15-.99-.14-.88-.3-1.76-.42-2.65-.19-1.43-1.06-1.78-2.34-1.55l-1.24.88h-.18l-1.93-.15c-1.38.4-.83 1.15-2.22 1.56l-.94.7c-.95.8-1.62 1.25-2.78 2.86-1.16 1.61-2.5 4.24-3.3 5.7-.82 1.46-4.14 10.11-4.2 10.22-.26.24-5.82 12.54-7.65 16.65-1.43 3.2-3.3 7.05-4.7 10.91-1.4 3.87-2.74 9.76-3.05 10.12l-.32.8-.41 1.23-.16 1.21c-.4 2.22-1 5.25-1.42 6.6-.42 1.35-1.33 2.87-1.85 4.37-.42 2.87-.9 5.73-1.24 8.6-.25 2.2-.3 4.43-.43 6.65l.26 2.4c.4 1.44.5 2.12 1.22 4.3.71 2.19 3.73 4.24 3.73 4.24 3.57 2 9.58 2 12.29.14 2.7-1.86 4.56-3.1 5.73-4.12 1.17-1.02 7.07-5.7 9.86-8.82 2.8-3.12 3.84-4.61 4.67-5.44.42 1.44.01 2.69-.88 3.83l-.58 1.63c-.15 2.49-.41 4.97-.42 7.46-.01 3.34 1.32 10.35 4.8 10.95 3.5.6 4.07.63 6.12-.41 1.6-.82 3.43-1.23 5.2-1.64 1.27-.29 1.7.32 1.15 1.54a46.3 46.3 0 0 1-2.14 4.02c-3.06 5.24-6.1 10.48-9.23 15.68-1.24 2.07-.53 2.35 1.15 2.38.3 0-.3 1.69-.25 2.24.16 1.79 1.03 2.32 2.5 1.3a9.32 9.32 0 0 0 2.14-2.47c.62-.91 1.01-1.97 1.63-2.88.11-.18 1.05-.1 1.2.13.4.56-.2 1.91 1.1 1.68.61-.11 1.1-1 1.61-1.57.34-.38.58-.84.9-1.23.55-.65 1.06-.9 1.62.05.58.98 1.42.76 2.01.1a18.68 18.68 0 0 0 2.55-3.38c1.78-3.28 3.45-6.62 5.08-9.98.59-1.22 1.23-2.13 2.74-1.73 1.27.33 1.81-.26 2.22-1.4.57-1.62 1.2-3.24 2.02-4.74 2.71-4.95 5.52-9.85 8.28-14.77 2.22-3.96 4.42-7.93 6.63-11.9 1.19-2.13 2.12-4.44 3.55-6.44 1.88-2.61 5.52-3.16 6.65-3.04a3.93 3.93 0 0 0 2.85-1.09c.52-.52.65-.45 1.38-.93.74-.47 1.21-.87 1.56-1.12.36-.26 5.76-2.4 6.9-3.5 2.2-2.15 5.59-3.4 8.61-3.64.3 1.4.36 2.9.38 4.32.03 3.2-.04 6.39-.06 9.58l-.07 1.25c-.82 2.05.06 3.9.6 5.83.25.9.51 2.07.18 2.85-1.12 2.58-.6 5.2-.54 7.8.02 1.03.42 2.08 1.81 1.94 1.15-.11 1.33.49 1.4 1.44.15 1.81.43 3.61.65 5.42.22 1.7.39 3.4.67 5.1.16.9.53 1.6 1.58 2 1.7.66 1.76.94.91 2.65-.47.97-.97 1.82.01 2.72 1.63 1.49 1.7 3.1.47 4.86-.73 1.06-.6 1.94.8 2.25 1.17.27 1.25 1.23 1.37 2.1.1.69-.03 1.4-.09 2.1-.06.96.25 1.62 1.31 1.64.92.02 1.17-.58 1.2-1.4.23-4.43.41-8.87.74-13.3.13-1.89.94-6.36.96-6.72.19-1.86.75-6.42.84-6.84.19-4.87.63-17.3.9-21.88.28-4.57 1.73-26.03 1.82-29.26-.1-.2 2.68-20.38 3.62-24.96.94-4.58.88-8.7.77-9.18-.11-.47-2.11-1.02-3.23-1.2-2.23-.36-4.5-.5-6.76-.73-1.47-.18-1.17-1.98-1.3-2.3-.11-.32-4.9-1.69-5.85-1.19s-1.19 5.12-1.42 7.25l-1.78 3.07-1.32 1.2-.52.53-3.54 2.22-5.04 5.38c-.11.12-.97 1.2-1.22 1.52-.91 1.27-3.06 4-3.08 4.22l-1.01 1.38s-.76.3-.88.5c-1.44 2.63-2.84 5.27-4.26 7.92l-1.56.75-1.4 1.1c-.2.05-3.1 3.86-4.66 5.48-.31.34-.9 1.53-.88 1.72-2.09.87-1.83 4.14-2.13 4.53-.3.4-1.72 1.05-2.08 1.73-1.06 1.98-2.33 5.49-2.82 6.13-.48.64-1.22 1.28-1.68 1.71l-.93.37c-1.33.14-1.95 1.85-2.13 2.21-.17.36-.63.43-.95.65-.23.15-.46.3-.69.47l.04-.04-1.4.61c-2.92 1.77-5.85 3.53-8.76 5.34-.24.16-.47.8-.35 1.02 1.02 1.96.38 3.5-1.07 4.91-.12.12-.2.5-.17.53.24.15.57.38.78.31 1.24-.4 2.45-.94 3.7-1.33.44-.14 1.27-.16 1.39.06.23.44.25 1.12.1 1.62-.16.56-.6 1.03-.93 1.54-1.16 1.76-4.16 5.73-4.38 6.04-1.66 2.28-3.27 4.6-4.93 6.86-.98 1.34-2.06 2.04-3.59.87-1.1-.84-2.16-1.76-3.23-2.64l-.23-1.86c.43-2.35.56-4.7 1.67-7 1.57-3.21 2.52-6.73 3.7-10.13 1.3-3.71 2.56-7.43 3.83-11.15.65-1.9 1.28-3.8 1.9-5.72 2.14-4.26 4.3-8.5 6.4-12.79 1.1-2.25 2.06-4.57 3.09-6.85.17-.05.24-.17.21-.34 1.89-3.65 3.93-7.23 5.58-10.98.6-1.38.52-3.2.28-4.75-.12-.74-1.32-1.33-2.1-1.92-.8-.63-.8-1.19-.24-2.05 1.12-1.75.95-2.84-.25-4.28-.96-1.16-2.22-1.33-3.57-1.28-1.7.07-3.3.05-5.02-.44-1.42-.4-3.42-1.05-4.69.81l-.12.12c-.48.86-8.01 13.94-8.43 14.61l-2.13 3.27c-.55.82.7 2.13.44 2.79-.27.65-.93-.32-1.97.71-.07.02-.91 3.02-1.61 5.77-.06.23.85.48.79.72-.05.2-1.08 1.05-1.13 1.25-.52 2.05-1.1 3.7-1.65 5.83-.1.39.12.45.02.82-.1.37-.52.09-.6.44-.54 1.98-1 4.6-1.3 5.44-.08.24.16.48.07.73-.12.33-.56.67-.68 1-1.4 4.06-2.73 8.12-3.95 12.23l-.34.82-2.97 4-1.7 1.5-1.32 1.52-.87.7a.45.45 0 0 0-.36.38l-.68.71v-.07l-2.04 2.04-.84.74-1.02 1.07c-.18.06-1.07.91-1.46 1.17-.18.1-.38.16-.53.28-4.5 3.39-9 6.79-13.48 10.19-.36.11-.35.14-1.07.35-.72.22-2.78-.08-2.85-.96s.68-5.9 1.46-8.86a85.19 85.19 0 0 1 6.49-17.1c1.09-2.13 2.15-5.03 3.1-6.45s2.82-3.94 3.5-5.29c.67-1.35 1.03-3.91 1.93-5.67 1.65-3.21 3.53-6.32 5.46-9.37 1.26-1.99 2.32-3.93 2.56-6.36a9.88 9.88 0 0 1 1.21-3.84c.38-.56 1.33-1.38 1.52-1.74 1.23-2.4 2.37-4.86 3.54-7.3 0 0 2.43-3.9 3.36-5.97.96-2.1.86-2.14-1.5-3.24m-6.16 63.62v0zm18.78-47.87l.1.14-.1-.12v-.02zM353.3 47.6c-.57 1.56-1.1 2.98-.96 4.65.06.77-.2 1.59-.4 2.35-.27 1-.91 1.51-2.02 1.41-2.92-.27-4.94 1.32-6.77 3.32-.4.44-.86.92-1.4 1.11-1.1.42-2.29.66-3.43.97.24-1.03.37-2.1.77-3.08a18.73 18.73 0 0 1 2.02-4c3.26-4.49 6.64-8.88 10-13.28 1.48-1.94 1.23-.03 1.93.14.2.05.74-.92.93-.86.25.08.33.33.44.53.1.2.19.4.25.61.14.5.18 1.03.16 1.55-.06 1.05-.46 2.03-.86 2.99-.22.53-.46 1.06-.66 1.6zM427.13 79.6c.92.3 3.03.85 4.56 1.24a9.28 9.28 0 0 1 4.91 2.78c1.74 1.95 3.61 3.77 5.41 5.66.41.43.87.86 1.1 1.39 1.54 3.47 3.48 6.5 7.36 7.8.81.27 1.48 1.01 2.19 1.57.53.42.98.96 1.55 1.32 2.36 1.54 4.8 2.96 7.13 4.55 1.65 1.13 3.16 2.48 4.73 3.73l.64.5 4.24 3.73c8.37 8.36 16.43 17.08 26.83 23.08l2.44 1.5 1.67 1 1.42 1.07c2.42 1.82 4.9 3.56 7.24 5.47 3.93 3.17 7.76 6.46 11.67 9.67 1.17.96 12.33 8.49 13.58 9.35.12.09 3.43.99.82-1.23-1.69-1.42-9.67-6.29-9.74-6.35-2.29-1.98-5.23-3.59-7.48-5.6-3.02-2.67-5.99-5.4-8.97-8.12-3.56-3.24-6.58-7.14-11.07-9.29a3.14 3.14 0 0 1-1.31-1.22c-2.12-3.8-5.54-6.4-8.66-9.22-2.15-1.94-4.86-3.25-7.18-5.02-2.97-2.25-5.81-4.68-8.7-7.03l-.8-.82-3.86-3.53c-2.26-1.67-4.5-3.37-6.8-4.99-.98-.7-2.08-1.2-3.1-1.86-.34-.21-1.11-.58-.2-1.01 1.47-.69.57-1.08-.1-1.6-4.09-3.12-8.08-6.33-11.5-10.24-1.27-1.47-3.22-2.33-4.86-3.48-.57-.4-1.18-.78-1.63-1.29-2.27-2.55-3.55-5.9-6.48-7.91-.3-.2-.46-.67-.57-1.05-.1-.34-.03-.73-.03-1.09.36.04.85-.07 1.06.13 1.07.93 2.03 1.98 3.07 2.93.58.52 1.22 1.24 1.9 1.34 1.34.18 2.22.6 2.73 1.95.22.55 1.07.88 1.65 1.27 1.67 1.13 3.4 2.17 5.02 3.37.9.68 1.59 1.58 2.9.77.25-.16.98.08 1.25.37 3.29 3.56 6.51 7.17 9.79 10.73 1.48 1.6 2.69 3.49 4.81 4.45 1.15.52 2.28 1.23 3.17 2.11a48.9 48.9 0 0 1 4.4 5 10.22 10.22 0 0 0 5.87 4l1.97 1.43 2.64 1.98 7.01 5.23 1.23 1.04.69.57 1.13.9.6.36c2.82 2.26 5.68 4.5 8.47 6.8 3.73 3.1 7.37 6.3 11.12 9.38 2.8 2.3 5.94 4.17 8.33 6.96.31.38.78.78 1.23.85.74.11 1.79.26 2.23-.14.74-.67.05-1.42-.56-2.02-1.06-1.07-2.38-2.04-3.02-3.33a4.2 4.2 0 0 0-2.56-2.34c-4.76-1.62-8.15-5.14-11.7-8.43l-9.08-8.43-2.55-2.4a159.17 159.17 0 0 1-2-1.99l-.98-1.1c-1.19-1.07-2.3-2.24-3.58-3.18-1.94-1.43-4.1-2.56-5.97-4.07-1.85-1.5-3.75-3.1-5.08-5.03-1.6-2.35-3.23-4.34-6.15-4.94-.56-.11-1.04-.6-1.57-.9-2.81-1.53-4.68-4.1-6.75-6.4-2.01-2.23-3.73-4.74-5.57-7.12l-.7-.68c-1-1.36-1.87-2.87-3.07-4.04-1.65-1.6-3.56-2.94-5.36-4.38-1.65-1.32-1.67-2.02.14-3.16 1.01-.65 2.25-.93 3.26-1.57 6.25-3.94 12.26-8.18 16.56-14.37 1.3-2.12 2.84-4.14 3.84-6.39 1.83-4.12 2.08-8.45 1.73-13-.35-4.55-2-8.3-4.86-11.68-.03-.2-1.5-1.64-1.66-1.8-.57-.58-1.9-1.7-5.6-4.53-3.7-2.84-8.95-5.64-13.56-6.24-4.6-.6-10.96.33-13.74.58-.46.05-1.05.3-1.32.65-1.3 1.68-3.25 1.94-5.05 2.54-1.5-.03-3.01-.13-4.51-.08-1.57.05-3.14.25-4.7.38-.57.04-2.05.23-2.22.29-.73.11-3.29.72-3.76.88-2.75 1.25-10.55 4.2-12.17 4.83-1.61.63-2.3.62-4.52 1.1-.95.2-2.05.9-3.04 1.5l-.32.25-3.22 1.64-1.75 1.05-3.09 1.35c-.38.15-1.25.32-1.79.64-.54.33-1.96 1.7-2.12 2.4l-.41 1.8-.42 1.44-.1.23c-.32.75-1.48 1.08-2.15 1.37-.92.39-2.1.72-2.9 1.36-.72.58-.86 1.52-1.19 2.34-.25.62-.18 1.6.1 2.2.26.58 1.42 1.67 2.04 1.77.71.1 1.8.18 2.14.32s1.38 1.3 1.32 1.77.31 1.71 1.29 2.06l2.1.34 2.13.1.5.57c.31.93.81 1.57 1.93 1.3.82 0 2.36.32 3.99-.02s2.43-.9 3.56-1.5c1.22-.63 2.34-1.46 3.5-2.2.68-.54 1.45-.77 1.39.42a13.7 13.7 0 0 1-2.07 6.83l-.28.66c-.62 3.26-7.89 21.36-8.86 25-.97 3.64-1.91 7.41-2.2 8.06l-.17.8c-.4 1.24-.87 2.47-1.15 3.74-.18.83-.65 2.85-.02 2.55 2-.93.7 1.22-1.08 2.43-1.07.07-4 6.64-4.35 10.05-.22 2.1-1.63 5.17-1.1 6.03.12.17.5.54.28.63-1.45.58-2.48 6.55-2.48 6.55s.48.26.24.5-.27.3-.44.45a39.3 39.3 0 0 0-2.22 4.43l-1.83 3.67c-1.06 1.49-1.41 5.32-1.02 7.2.27 1.24.53-.24.55 1.04 0 .3-.07.48-.07.77 0 .6.37 4.1.88 4.34.96.43 1.02-.6 1.33-1.17.1-.17.25-.3.38-.46-.06-.22.87-1.2 1.06-1.3.2.06-.89 3.1-.13 2.89.75-.2 2.97-7.67 3.23-8.22l1.3-2.5 1.13-.34 1.15.35.4.6c0 .6-.06 1.2.05 1.77.06.3.43.53.65.8l.72-.8.55-1.36 6.07-14.34c.44-1.05.7-2.16 1.16-3.2.08-.17 1.66-2.68 1.93-2.25.2.32.56.63.6.97.05.59-.2 1.2-.12 1.78.06.42.38 1.07.67 1.13.36.06.92-.3 1.2-.64.42-.54.81-1.19 1-1.85.4-1.52 2.97-14.92 6-28 2.99-12.81 7.07-26.53 7.48-26.53.94 0 1.38-.45 1.55-1.29l1.25-5.5.65-2.24.63-1.43c.63-1.15 1.2-2.33 1.89-3.45.54-.9 1.17-1.22 1.58.13.3 1.01.98 1.19 1.44.3 1.01-1.94 2.13-3.92 2.6-6.02a3.72 3.72 0 0 1 2.3-2.87c7.31-3.43 14.48-3.12 21.5.87 2.89 1.65 4.13 3.95 3.43 6.72a18.8 18.8 0 0 1-3.24 7.1 232.61 232.61 0 0 0-6.58 9.09c-1.77 2.53-6.14 2.96-8.39.77a38.43 38.43 0 0 0-3.4-3.02c-1.04-.8-2.48-.5-2.82.58-.32 1.03-.63 2.18.46 3.07 1.1.9 2.3 1.73 3.21 2.79.52.6.86 1.67.7 2.42-.1.52-1.13 1.16-1.8 1.21-1.28.1-2.6-.22-3.9-.25-.66-.02-1.65 0-1.94.41-.65.9-1.66 2.09-1.72 3.24-.07 1.47 3.55 4.65 4.36 4.92z"/>
    <path d="M527.17 165.85c-3.2-1.9-6.45-3.74-9.65-5.65-2.06-1.22-4.33-2.22-6.03-3.82-7.81-7.33-15.4-14.9-23.19-22.25-2.99-2.83-6.08-5.58-10.19-6.86a25.8 25.8 0 0 1-5.19-2.47 7.25 7.25 0 0 1-2.62-2.35c-2.2-3.78-5.78-6.05-9-8.73-3.79-2.88-6.08-7.38-10.45-9.64-.35-.18-.65-.5-.9-.8a73.77 73.77 0 0 0-9.52-10.46c-3.66-3.25-6.72-7.17-10.97-9.78-1-.6-1.78-1.62-2.6-2.51-.08-.1-1.86-1.8-3-2.44-1.13-.64-3.77-1.31-5.68-1.9-2.36-.73-3.34-.04-3.7 2.48-.14.9-.2 1.81-.2 2.72 0 1.89.32 2.18 2.28 2.44.8.11 1.82.03 2.31.5 1.22 1.15 2.57 1.1 3.97.88 1.4-.23 2.2.34 3.04 1.42 1.6 2.06 3.2 4.24 5.25 5.78 2.62 1.98 4.68 4.43 6.96 6.7 2.64 2.62 4.86 5.66 8.38 7.38 1.31.65 2.13 2.3 3.18 3.5 1.05 1.2 1.93 2.65 3.18 3.57 2.02 1.5 4.29 2.66 6.45 3.96.78.62 1.58 1.22 2.34 1.87 1.6 1.38 3.41 2.6 4.7 4.23a7.65 7.65 0 0 0 3.96 2.92c1.79.56 3.56 1.56 5 2.76 4.5 3.76 8.87 7.7 13.26 11.6 3.01 2.68 5.83 5.6 9.97 6.65.9.22 1.68 1.06 2.45 1.68 1.7 1.4 3.38 2.82 5.07 4.23l1.44 1.11c.13.15.24.33.4.46 4.84 3.97 10.4 6.97 15 11.28.87.82 2.69.45 3.64 1.34 14.72 13.77 15.03 10.62 15.54 10.39-.28-.39-14.5-11.96-14.88-12.19z"/>
    <path d="M504.12 163.15c-.48-1.45-1.5-2.1-2.5-2.8-1.31-.93-2.79-1.6-4.18-2.41-1.98-1.17-4.08-2.16-4.92-4.63-.23-.66-1.05-1.47-1.7-1.58-2.78-.48-4.27-3.45-7.2-3.6-.37-.01-.69-.68-1.04-1.03-.72-.7-1.5-1.36-2.16-2.12-1.46-1.7-3.96-2.39-4.72-4.84-.11-.35-.97-.53-1.51-.65-2.91-.65-5.28-2.08-6.37-4.94-.78-2.07-2.3-3.48-3.7-5.04-1.2-1.33-2.53-1.93-4.27-1.7-1.45.18-2.54-.25-3.23-1.67-.3-.6-.93-1.04-1.41-1.55l-1.99-2.27-.5-.7a.74.74 0 0 0-.23-.5 5.23 5.23 0 0 0-2.7-4c-2.5-2.05-5.11-3.97-7.42-6.2-3.11-3.04-6.1-6.18-7.13-10.71-.31-1.35-1.4-2.72-2.5-3.66a34.78 34.78 0 0 0-5.97-4.1c-3.17-1.72-6.25-3.73-9.92-4.36-1.16-.2-2.34-.66-3.14.6-.52.8.12 1.37.8 1.85.4.29.89.63 1.34.64 2.13.02 3.04 1.46 3.59 3.14.75 2.3 2.19 3.35 4.6 3.68 1.96.27 4.07.98 4.77 3.18 1.22 3.85 3.84 6.56 6.88 8.91a37.1 37.1 0 0 1 7.36 7.52c.4.56.8 1.17 1.33 1.6 2.1 1.7 4.24 3.34 6.37 5l.64.6 1.84 1.84a10.54 10.54 0 0 0 7.35 5.44l1.27.5c.73.62 1.53 1.18 2.18 1.89 1.13 1.24 2.1 2.64 3.27 3.85.83.87 1.86 1.54 2.81 2.29 3.27 2.56 6.48 5.2 9.83 7.64 3.4 2.5 6.98 4.77 10.44 7.2 1.57 1.1 3.1 2.26 4.51 3.54 2.4 2.18 4.73 4.36 7.66 5.84 1.2.6 2.2 1.58 3.29 2.38.18.03 14.17 9.48 15.5 10.62.79.67 6.46 4.3 11.63 8.29 3.67 2.83 6.8 6.07 8.96 7.53 9.77 6.57 6.08 1.77 6.39 1.8-.28-.42-36.23-26.54-36.5-26.96-.99-1.01-7.3-4.15-7.7-5.35zM397.46 121.35c-.77 0-1.57.56-2.27 1.02-.28.18-.4.7-.48 1.09-.26 1.17-.45 2.36-.7 3.53-.33 1.63-.1 3.43-1.79 4.6-.76.51-.3 1.27.2 1.81.64.68 1.4.52 1.8-.13.8-1.27 1.52-2.62 2.1-4 .8-1.92 1.9-4.89 2.23-6.09.33-1.2-.73-1.83-1.1-1.83zM193.98 117.27a24 24 0 0 0 14.06 1.33c1.99-.4 2.45-.54 5.68-2.44 3.23-1.9 5.44-6.48 6.1-6.71.66-.24 2.72-.36 3.36.18.37.31 1.36 1.6 2.61 2.57 1.25.97.01.88.96 2.2.94 1.31 2.3-.13 2.32.53.02.65.51 1.18 1.59 1.18 1.07 0 .85-4.18.62-6.6-.22-1.39-.71-6.8-.61-7.98.1-1.18.43-3.2.64-4.82-.07-2.06 1.74-8.89 2.04-10.36-.14-.2 1.29-4.12 2.11-7.93a76.1 76.1 0 0 0 1.5-9.75c.08-2.2.5-5.9.25-6.6-.25-.7-1.6-.42-2.12-.13-.51.28-.26.47-.4.7l-.02.11a.24.24 0 0 0-.25.1c-1.9.34-2.88-1.56-3.63-1.84a3.8 3.8 0 0 0-2.2-.2c-.91.15-4.29 3.52-5.9 4.27s-7.07 3.2-8.95 2.92a.58.58 0 0 1-.56.16c-.73.75-1.4 2.08-2.2 2.16-3.91.41-6.15 3.32-8.9 5.5-.47.62-1.15 1.17-1.4 1.88-.73 2.1-1.53 3.46-3.66 4.58-.11.07-.22.39-.16.48.1.14.33.25.5.25 1.35.05 2.95-1.1 2.95-1.1s6.6-2.84 9.9-4.3c1.42-.62 2.76-.98 4.32-.23.6.29 1.5-.09 2.27-.16l.9-.53.93-.24.57-.06 1.26.2c-.76 2.3-1.11 6.32-1.22 7.05-.11.72-.38 1.13-.54 1.7-.25.87-.51 1.73-.65 2.61-.42 2.86-.99 5.71-1.1 8.58a10.5 10.5 0 0 0 1.54 5.17c.55.65 1.17 1.56.21 2.36-.96.8-1.71 1.54-2.57 2.31-1.07.4-3.17 2.03-6.27 2.5-3.1.48-5.77.36-10.15-1.6-4.38-1.95-7.94-5.5-10.36-7.7-2.42-2.18-5.95-10.58-6.2-14.38-.25-3.8.1-7.66.23-9.2.11-1.54.97-6.73 2.36-10.32 1.39-3.58 5.42-8.56 5.98-9.19l6.27-6.06c2.37-1.8 6.13-5.06 11.49-8.03 1.21-.6 7.93-4.43 13.02-4.83 1.49-.12 2.94-.7 4.35-1.21 1.3-.46 2.03-1.37 1.43-2.82-.42-1-.41-1.97.71-2.25 1.41-.35.14-2.52-.53-2.37-.72.17-1.44.48-2.46-.19a6.26 6.26 0 0 1-2.45-4.04c-.15-.77 1.05-.73.3-1.76-.77-1.02-2.25-.39-2.88-.9l-.63-.23-2.37-.3-.36-.32c-.8-.94-1.71-1.05-2.96-.95-3.67.3-7.04 1.71-10.56 2.55l-3.77 1.33c-.55.43-1.08.88-1.65 1.28-1.48 1.04-2.97 2.05-4.46 3.07l-.55.57-.06.08-1.4 1.8-.43.56-1.22 1.2-.65.58-1.1.7-.04.04-.7 1.18-.04.24-.96.99-.84.98-.63.77-.58.51-1.05 1.38-.07.08-1.38 1.66-.46.77-2.17 3.6a.5.5 0 0 0-.33.46l-.59 1.38-.62 1.1c-2.06 1.59-3.16 3.77-3.83 6.21l-.42.53-.73 1.91-1.1 2.97c-2.25 4.05-2.82 8.56-3.12 13.02-.39 5.85-.31 11.73 1.1 17.49.46 1.9 3.73 9.27 5.36 11.72 1.62 2.45 5.97 7.3 8.74 9.2 2.78 1.89 5.3 3.34 9.64 5.14zM541.03 154.92c-2.76-2.04-5.56-4.03-8.35-6.02-.58-.4-.99-1.63-1.84-.83-.3.27.1 1.48.41 2.16.24.52.79.93 1.28 1.29 2.94 2.14 5.88 4.3 8.9 6.33.8.54 1.86.7 2.82.98.16.04.42-.24.7-.41-.28-.34-.45-.59-.67-.77-1.07-.93-2.12-1.89-3.25-2.73zM560.7 167.27c-.15-.2-4.12-2.33-4.3-2.46-.83-.59-1.35-.36-2.18-.96-1.58-1.14-3.09-2.38-4.62-3.59-.8-.63-2.03-1.1-2.16.15-.09.8.1 1.8.86 2.22l.82.47 4.65 2.41c.68.35 10.73 7.4 12.37 7.1 1.64-.32.2-2.16.2-2.16s-5.37-2.85-5.63-3.18z"/>
  </g>
  <path fill="#F50005" d="M540.5 167.99s7.08 4.82 9.75 6.05c2.66 1.23 4.2 2.26 3.28.82-.92-1.44 0-1.13-2.98-2.87-2.97-1.74-4.6-2.36-5.94-3.7-1.34-1.33-4-2.45-4.1-1.53-.1.92 0 1.23 0 1.23zM546.46 183.68c2.97 1.74 4.4 3.07 3.38.4-1.02-2.66-2.67-2.14-4.92-3.27-2.26-1.13-2.35-.02-1.83.6l3.37 2.27z"/>
</svg>
