<svg xmlns="http://www.w3.org/2000/svg" height="547.75" width="1249.5" version="1.2">
  <path d="M405.65 52.16h166.68c37.58 0 66.24 2.88 85.96 8.63a151.17 151.17 0 0 1 68.1 41.65c18.89 19.94 33.27 44.37 43.13 73.25 9.86 28.9 14.79 64.52 14.79 106.88 0 37.22-4.63 69.3-13.87 96.24-11.3 32.9-27.42 59.53-48.37 79.88-15.82 15.43-37.18 27.46-64.09 36.1-20.13 6.37-47.03 9.55-80.72 9.55H405.65zm91.38 76.67v298.84h68.12c25.48 0 43.87-1.44 55.18-4.31 14.79-3.7 27.07-9.95 36.83-18.77 9.76-8.82 17.72-23.34 23.89-43.55 6.16-20.2 9.25-47.76 9.25-82.63 0-34.88-3.09-61.65-9.25-80.33-6.17-18.67-14.8-33.24-25.9-43.7-11.1-10.46-25.17-17.54-42.22-21.24-12.74-2.87-37.71-4.3-74.9-4.3h-41z" fill="#db1f26"/>
  <path d="M401.97 508.02V48.48h170.36c37.78 0 66.67 2.87 87 8.78a154.89 154.89 0 0 1 69.72 42.65c19.29 20.36 33.94 45.27 43.95 74.6 10.03 29.4 14.98 65.41 14.98 108.06 0 37.52-4.66 70-14.07 97.43-11.44 33.34-27.85 60.51-49.27 81.32-16.33 15.92-38.23 28.2-65.55 36.97-20.7 6.54-47.91 9.72-81.83 9.73h-175.3zm7.35-7.35h167.94c33.45 0 60.04-3.18 79.6-9.39 26.5-8.5 47.33-20.28 62.65-35.22 20.46-19.89 36.3-45.98 47.45-78.45 9.07-26.43 13.67-58.12 13.67-95.04 0-42.08-4.9-77.32-14.6-105.7-9.7-28.44-23.81-52.37-42.32-71.9a147.48 147.48 0 0 0-66.45-40.65c-19.13-5.6-47.54-8.5-84.93-8.49h-163v444.84zm84.03-69.33V125.16h44.67c37.33.01 62.31 1.4 75.69 4.39 17.59 3.8 32.34 11.19 43.96 22.15 11.65 10.99 20.56 26.13 26.87 45.22 6.36 19.32 9.42 46.39 9.43 81.49 0 35.1-3.08 62.93-9.4 83.7-6.3 20.57-14.44 35.68-24.95 45.2-10.26 9.28-23.13 15.8-38.39 19.61-11.92 3.01-30.45 4.41-56.08 4.42zm7.35-7.35h64.45c25.32.01 43.57-1.46 54.28-4.2 14.32-3.58 26-9.56 35.27-17.93 9-8.11 16.79-22.04 22.83-41.89 6-19.65 9.1-46.9 9.09-81.56.01-34.65-3.1-61.14-9.06-79.18-6.03-18.25-14.39-32.24-24.93-42.18-10.57-9.95-23.96-16.73-40.51-20.32-12.08-2.75-37.04-4.24-74.1-4.22h-37.31zm-3.67-291.48v-3.67z"/>
  <path d="M752.86 418.15c18.16 10.9 38.95 16.34 62.38 16.34 36.51 0 66.49-13.14 89.91-39.44 23.42-26.3 35.14-65.75 35.14-118.35 0-51.98-11.4-90.75-34.2-116.33-22.8-25.57-53.1-38.36-90.85-38.36-37.77 0-68.21 12.95-91.32 38.83-23.12 25.88-34.67 64.92-34.67 117.1 0 6.95.22 13.67.65 20.16-1.35 29.07-3.98 105.92-59.33 122.08-23.56-37.18-35.33-83.56-35.33-139.15 0-46.19 6.9-84.96 20.69-116.32a213.5 213.5 0 0 1 42.14-62.18c17.8-18.34 37.3-31.96 58.51-40.83 28.2-11.96 60.73-17.95 97.57-17.95 66.7 0 120.06 20.73 160.1 62.19 40.03 41.46 60.05 99.1 60.05 172.93 0 73.22-19.87 130.5-59.6 171.86-39.73 41.35-92.83 62.02-159.32 62.02-48.42 0-89.71-10.65-123.86-31.95 26.96-14.1 50.33-41.59 61.34-62.65z" fill="#8461a9"/>
  <path d="M815.38 516.42c-48.95 0-90.99-10.78-125.8-32.5l-5.46-3.4 5.7-2.98c26.02-13.55 49.17-40.7 59.78-61.1l1.81-3.45 3.34 2c17.56 10.53 37.63 15.82 60.49 15.83 35.63-.05 64.35-12.67 87.16-38.22 22.59-25.33 34.21-63.8 34.21-115.9 0-51.48-11.32-89.28-33.27-113.88-22.15-24.77-51.15-37.1-88.1-37.14-36.94.05-66.12 12.51-88.58 37.6-22.27 24.92-33.74 62.98-33.74 114.66 0 6.87.22 13.5.65 19.91l.01.2v.22c-.52 10.9-1.2 28.72-4.84 47.66-3.66 18.95-10.22 39.12-22.88 54.76-8.43 10.42-19.66 18.77-34.26 23.02l-2.65.77-1.48-2.34c-24.01-37.89-35.91-85.02-35.9-141.1 0-46.56 6.93-85.84 21-117.83a217.27 217.27 0 0 1 42.86-63.24c18.11-18.66 38.03-32.59 59.72-41.66 28.73-12.19 61.76-18.24 99-18.24 67.43-.03 122 21.08 162.74 63.31 40.83 42.27 61.1 101.02 61.08 175.48.02 73.85-20.1 132.25-60.62 174.4-40.4 42.1-94.65 63.16-161.8 63.16h-.17zm0-7.35c65.75-.04 117.65-20.33 156.67-60.9 38.94-40.54 58.55-96.71 58.57-169.3-.02-73.2-19.79-129.73-59.02-170.38-39.33-40.68-91.5-61.02-157.45-61.06-36.45 0-68.47 5.92-96.15 17.66-20.7 8.67-39.78 21.97-57.29 40a209.8 209.8 0 0 0-41.42 61.1c-13.53 30.74-20.38 69.01-20.37 114.84 0 53.88 11.15 98.72 33.26 134.78 11.78-4 20.82-10.95 27.97-19.75 7.66-9.44 13.05-21.04 16.82-33.17 7.53-24.14 8.58-50.16 9.25-64.73-.43-6.53-.65-13.26-.65-20.22 0-52.69 11.65-92.7 35.6-119.55 23.76-26.67 55.47-40.1 94.07-40.06 38.57-.05 70.13 13.22 93.6 39.6 23.63 26.55 35.12 66.3 35.12 118.77 0 53.1-11.81 93.54-36.06 120.8-24.03 27.04-55.27 40.72-92.66 40.67-22.6 0-43-4.97-60.96-14.96-11.13 19.66-31.4 43.28-55.45 57.7 32.42 18.73 71.19 28.15 116.55 28.16z"/>
  <path d="M939.55 298.72c-33.39-10.5-57.8-22.7-73.26-36.63-27.7-24.95-41.54-55.37-41.54-91.27 0-23.1 6.51-44.7 19.54-64.81s31.81-35.43 56.34-45.95c24.52-10.52 54.12-15.78 88.81-15.78 56.64 0 99.27 12.55 127.9 37.64 28.62 25.1 43.66 58.6 45.1 100.48l-91.38 3.16c-3.9-23.33-12.24-40.1-25.04-50.32-12.8-10.22-32-15.33-57.6-15.33h-1.83c-25.55.26-45.62 5.73-60.22 16.41-9.64 7.03-14.44 16.41-14.44 28.18 0 10.74 4.51 19.93 13.54 27.56l.85.7c15.28 38.08 15.65 77.2 13.23 105.96zm91.19-70.93c33.61 8.85 59.26 17.94 76.92 27.27 21.25 11.23 37.88 26.58 49.9 46.04 12 19.48 18.01 43.53 18.01 72.17 0 25.96-7.2 50.28-21.59 72.94-14.39 22.67-34.75 39.5-61.07 50.53-26.31 11.02-59.1 16.54-98.38 16.54-57.16 0-101.06-13.24-131.7-39.71-30.63-26.48-48.93-65.06-54.89-115.75l88.76-8.4c5.34 29.8 16.18 51.7 32.53 65.69 16.34 13.98 38.4 20.96 66.14 20.96 29.4 0 51.55-6.22 66.46-18.67 14.9-12.45 22.36-27.01 22.36-43.68 0-10.7-3.14-19.8-9.39-27.32-6.26-7.5-17.18-14.03-32.77-19.6-2.65-.92-6.13-2.01-10.45-3.3 3.85-30.38 3.94-61.1-.84-95.71z" fill="#fdc20f"/>
  <path d="M860.44 476.35c-31.47-27.17-50.14-66.79-56.15-118.1l-.44-3.74 95.87-9.08.6 3.33c5.25 29.3 15.8 50.3 31.3 63.55 15.54 13.29 36.59 20.07 63.75 20.09 28.92 0 50.16-6.15 64.1-17.83 14.28-11.99 21-25.32 21.04-40.85-.02-10-2.85-18.1-8.53-24.96-5.56-6.71-15.93-13.07-31.16-18.49-2.56-.89-6-1.97-10.28-3.24l-3-.88.4-3.1a345.8 345.8 0 0 0 2.79-43.76c0-16.27-1.16-33.1-3.63-51l3.64-.5-3.64.5-.76-5.46 5.34 1.4c33.77 8.9 59.6 18.04 77.7 27.58 21.77 11.5 38.95 27.34 51.3 47.36 12.45 20.18 18.57 44.96 18.57 74.1.01 26.65-7.42 51.72-22.16 74.91-14.79 23.31-35.83 40.69-62.76 51.95-26.92 11.27-60.19 16.82-99.8 16.82-57.7 0-102.57-13.36-134.1-40.6zm4.8-5.57c29.74 25.71 72.66 38.81 129.29 38.82 38.93 0 71.25-5.48 96.96-16.26 25.71-10.77 45.39-27.07 59.39-49.1 14.04-22.14 21-45.69 21.02-70.97-.01-28.14-5.9-51.46-17.48-70.24-11.67-18.9-27.75-33.76-48.48-44.72-16.32-8.63-39.99-17.2-70.84-25.56a374.2 374.2 0 0 1 2.98 46.54c0 14.16-.86 27.93-2.48 41.58 3.02.92 5.56 1.73 7.66 2.46 15.92 5.7 27.4 12.4 34.37 20.72 6.82 8.17 10.26 18.26 10.23 29.67.05 17.8-8.15 33.59-23.68 46.5-15.86 13.23-38.93 19.52-68.8 19.53-28.35.01-51.4-7.17-68.54-21.85-16.57-14.18-27.5-35.84-33.14-64.51l-81.64 7.73c6.34 48.2 24.11 84.53 53.18 109.66zm73.2-168.55c-33.66-10.6-58.5-22.93-74.6-37.4-28.39-25.5-42.82-57.15-42.77-94-.01-23.8 6.75-46.18 20.14-66.83 13.44-20.75 32.88-36.57 57.97-47.32 25.1-10.77 55.2-16.08 90.26-16.08 57.14 0 100.74 12.65 130.32 38.56 29.41 25.73 44.93 60.43 46.35 103.12l.13 3.67-98.28 3.4-.53-3.19c-3.8-22.8-11.86-38.6-23.7-48.05-11.82-9.46-30.17-14.54-55.3-14.53l-1.8.01c-25.07.24-44.33 5.62-58.1 15.7-8.79 6.5-12.85 14.45-12.93 25.2.05 9.7 3.88 17.63 12.25 24.77l.76.61.76.61.37.9c11.34 28.3 14.6 57.02 14.6 81.76 0 9.26-.46 17.97-1.12 25.89l-.39 4.58zm1.11-3.5l1.1-3.52zm-37.47-235.3C878.1 73.74 860 88.56 847.38 108c-12.68 19.59-18.95 40.42-18.96 62.82.05 34.94 13.31 64.13 40.33 88.54 14.14 12.76 36.66 24.37 67.5 34.44.44-6.47.73-13.4.73-20.66 0-23.84-3.12-51.29-13.72-78.13l-.16-.14c-9.7-8.13-14.9-18.57-14.85-30.37-.08-12.78 5.48-23.61 15.95-31.15 15.43-11.29 36.32-16.85 62.36-17.1l1.86-.02c26.06.01 46.11 5.16 59.9 16.13 13.14 10.51 21.6 27.17 25.8 49.41l84.48-2.91c-2.18-39.35-16.68-70.45-43.68-94.17-27.68-24.28-69.35-36.74-125.48-36.73h-.02c-34.3 0-63.41 5.2-87.34 15.48z"/>
  <g>
    <path d="M338.4 508.3H78.36v-78.58l177.37-47.18L78.37 335.9v-78.75h260.02v48.78H133.7l204.7 51.61v50.55l-204.7 51.44h204.7z" fill="#c0bfbf"/>
    <path d="M74.69 511.97V426.9l166.67-44.33-166.67-43.84v-85.26h267.38v56.13H163.32l178.75 45.08v56.28l-178.65 44.9h178.65V511.96H74.69zm263.7-3.67v-3.68zM82.04 333.05l188.08 49.47-188.08 50.02v72.08h252.68v-41.43H133.7l-.9-7.24 201.9-50.74V360.4l-201.9-50.91.9-7.24h201V260.8H82.05z"/>
    <g>
      <path d="M253.79 245.9l-4.97-51.08c17.15-3.08 29.74-9.31 37.78-18.71 8.04-9.4 12.06-22.09 12.06-38.05 0-16.91-3.57-29.65-10.73-38.22-7.15-8.58-15.52-12.86-25.1-12.86-6.15 0-11.38 1.8-15.7 5.4-4.31 3.61-8.07 9.91-11.26 18.9-2.13 6.15-5.91 20.16-11.35 42.03-6.98 28.15-15.55 47.9-25.72 59.25-14.3 15.96-31.75 23.94-52.32 23.94-13.25 0-25.63-3.75-37.16-11.26-11.53-7.51-20.31-18.33-26.34-32.46-6.03-14.13-9.05-31.19-9.05-51.17 0-32.64 7.16-57.2 21.46-73.7 14.31-16.5 33.4-25.16 57.3-25.99l2.3 52.5c-13.36 2.25-22.97 7.07-28.82 14.46-5.86 7.4-8.78 18.48-8.78 33.26 0 15.25 3.13 27.2 9.4 35.83 4.02 5.56 9.4 8.33 16.14 8.33 6.15 0 11.41-2.6 15.78-7.8 5.56-6.62 11.36-22.7 17.39-48.25 6.03-25.54 12.26-44.43 18.7-56.67 6.45-12.23 15.26-21.81 26.44-28.73 11.17-6.92 24.98-10.38 41.41-10.38 14.9 0 28.86 4.14 41.86 12.42 13.01 8.28 22.68 19.98 29 35.12 6.33 15.14 9.5 34 9.5 56.58 0 32.87-7.6 58.12-22.8 75.74-15.2 17.62-37.33 28.14-66.42 31.57z" fill="#c0bfbf"/>
      <path d="M244.83 191.8l3.34-.6c16.63-2.99 28.33-8.94 35.63-17.49 7.35-8.6 11.17-20.28 11.18-35.65 0-16.43-3.5-28.26-9.88-35.87-6.7-7.94-13.83-11.5-22.27-11.54-5.44.02-9.68 1.53-13.34 4.56-3.51 2.9-7.1 8.64-10.15 17.27-2.03 5.85-5.83 19.9-11.26 41.72-7.07 28.43-15.68 48.62-26.54 60.8-14.86 16.65-33.53 25.22-55.07 25.18-13.94 0-27.1-4-39.16-11.86-12.18-7.92-21.46-19.4-27.72-34.1-6.27-14.7-9.34-32.26-9.34-52.61 0-33.14 7.25-58.66 22.36-76.11 14.94-17.28 35.25-26.44 59.94-27.25l3.65-.13 2.6 59.4-3.2.53c-12.84 2.16-21.47 6.69-26.55 13.11-5.11 6.41-8 16.65-7.99 30.98 0 14.77 3.05 25.9 8.7 33.67 3.52 4.72 7.45 6.74 13.17 6.82 5.08-.05 9.09-1.96 12.97-6.5 2.27-2.67 5.06-8.07 7.87-15.9 2.82-7.85 5.75-18.14 8.75-30.82 6.08-25.7 12.34-44.8 19.04-57.54 6.7-12.76 16-22.89 27.74-30.15 11.87-7.35 26.41-10.93 43.35-10.92 15.59-.01 30.3 4.36 43.84 12.99 13.65 8.67 23.85 21.06 30.41 36.8 6.58 15.74 9.77 35.08 9.78 58 0 33.4-7.73 59.62-23.69 78.14-15.88 18.45-39.06 29.34-68.78 32.82l-3.72.44zm8.96 54.1l3.65-.36zm3.29-4.14c26.59-3.8 46.49-13.78 60.35-29.83 14.43-16.73 21.89-41 21.9-73.34 0-22.24-3.13-40.63-9.21-55.16-6.08-14.53-15.21-25.55-27.58-33.44-12.48-7.93-25.67-11.83-39.89-11.84-15.93 0-29 3.34-39.48 9.83-10.61 6.57-18.93 15.6-25.11 27.32-6.2 11.73-12.4 30.42-18.39 55.8-3.03 12.86-6.02 23.38-8.98 31.62-3 8.25-5.88 14.2-9.16 18.14-4.87 5.88-11.39 9.17-18.6 9.12a22.68 22.68 0 0 1-19.12-9.85c-6.88-9.5-10.1-22.26-10.1-38 0-15.23 2.97-27.16 9.57-35.53 6.11-7.7 15.58-12.65 27.9-15.2l-2-45.6c-21.34 1.53-38.06 9.64-51.01 24.52-13.5 15.54-20.57 39.15-20.56 71.29 0 19.62 2.96 36.18 8.75 49.72 5.8 13.58 14.08 23.73 24.96 30.83 11 7.15 22.61 10.65 35.15 10.66 19.62-.04 35.83-7.44 49.6-22.72 9.47-10.52 18-29.82 24.88-57.67 5.46-21.93 9.22-35.91 11.46-42.39 3.33-9.31 7.25-16.16 12.37-20.48 4.97-4.18 11.2-6.28 18.05-6.26 10.72-.05 20.31 4.98 27.92 14.18 7.94 9.53 11.58 23.19 11.59 40.58.01 16.55-4.2 30.23-12.95 40.43-8.22 9.6-20.56 15.94-36.59 19.3z"/>
    </g>
  </g>
</svg>
