<svg xmlns="http://www.w3.org/2000/svg" width="1080" height="360" viewBox="0 0 285.75 95.25">
  <defs>
    <clipPath id="a">
      <path d="M0 452h610V0H0z"/>
    </clipPath>
  </defs>
  <g fill="#fff">
    <rect width="14.82" height="5.26" x="146.12" y="73.72" rx="2.65" ry="2.65"/>
    <rect width="14.82" height="5.26" x="123.26" y="73.72" rx="2.65" ry="2.65"/>
    <circle cx="168.53" cy="37.3" r="8.82"/>
    <circle cx="196.03" cy="28.31" r="8.82"/>
    <path d="M93.26 16.27c-.3 0-.53.24-.53.53v11.3h-11.3c-.3 0-.53.23-.53.53v9.1c0 .29.24.52.53.52h11.3v11.3c0 .3.24.53.53.53h9.1c.29 0 .53-.24.53-.53v-11.3h11.3c.29 0 .52-.23.52-.53v-9.1c0-.29-.23-.52-.53-.52h-11.3V16.8c0-.3-.23-.53-.52-.53z"/>
  </g>
</svg>
