<svg xmlns="http://www.w3.org/2000/svg" width="566.93" height="65.44">
  <path fill="#2D288B" d="M437.05 26.36c-1.2-3.61-4.34-7.05-4.34-7.05s-4.73-6.15-14.03-8.24c-7.95-1.67-14.2 1.84-14.2 1.84s-5.68 2.28-9.95 6.98c-6.8 6.54-8.75 16.09-8.75 16.09s-2.6 8.31 1.52 14.9l4.48 5.42c6.33 5.28 13.1 5.82 13.1 5.82s5.45 1.23 11.82-.44c5.56-1.12 9.61-3.87 9.61-3.87s9.22-5.1 11.75-15.5l-1.01-15.95zm-14.36 17.32s-3.69 6.43-11.78 5.67c-9.51-.97-10.63-9.32-10.63-9.32s-1.3-6.15 4.55-11.5c5.93-4.99 12.12-4.23 12.12-4.23s4.15.4 6.29 7.27c2.74 8.74-.55 12.1-.55 12.1"/>
  <path fill="#639D01" d="M467.77 43.79c-3.04-.68-7.91.57-7.91.57s-6.8 2.5-7.85 2.46c-.4-.58-1.26-11.68-1.01-16.12.15-7.85-.51-14.25-.51-14.25s-.32-7.55-4.37-12.03c-4.77-4.82-8.1-2.75-10.02-1.6-4.59 4.12-2.46 9.15-2.46 9.15l2.4 6.76s1.15 2.9 1 7.63l1.02 15.94c0 2.14 1.73 16.49 1.73 16.49s.18 4.66 4.67 5.5c4.59.75 9.1-1.53 11.02-2.43 1.92-.9 4.45-1.7 4.45-1.7s2.1-.47 4.2-.65c4.9-.47 6.68-1.34 6.68-1.34s1.9-.28 3.18-2.1c1.28-1.8 2.83-10.3-6.22-12.28"/>
  <path fill="#94012C" d="M387.3 50.87c-3.23-.97-6.94-.32-6.94-.32s-10.48 1-15.94-.15c-8.46-1.48-8.18-10.6-8.18-10.6s-.28-6.03 4.82-14.2c6.29-10.09 13.23-11.9 13.23-11.9s1.73-.64 3.36.22c1 5.86 6.68 5.82 6.68 5.82s8.18.54 7.78-9.36c-.94-8.14-8.79-9.26-12.08-10.02-9.86-1.77-16.27 3.51-16.27 3.51s-6.61 3.58-14.53 16.05c-5.39 7.74-6.04 13.81-6.04 13.81s-.65 1.45-.4 7.89c-.14 5.02 1.74 8.67 1.74 8.67s2.86 8.65 11.9 12.19c5.49 2.27 13.52 2.24 13.52 2.24s7.77-.1 13.73-.44c3.26.26 4.81-1.44 4.81-1.44s3.65-2.39 3.3-6.55c0 0-.72-4.3-4.49-5.42"/>
  <path fill="#2E3192" d="M152.79 62.49h-11.96l-1.6-36.01-15.54 36h-7.98l-6.64-32.55L98.71 62.5H78.36l-3.05-17.4H61.5l-7.85 17.4H41.16l25.65-58.2h14.75l7.84 47.04 15.29-47.04h11.82l5.85 31.89 13.56-31.9h14.35l2.52 58.2zm-79.27-28.7l-2.2-11.3-5.04 11.3h7.23M187.07 62.49l2-12.49H168.2l1.66-10.37H188L190 27.14h-18.34l1.6-10.37h20.85l2-12.48h-33.09l-9.3 58.2h33.35M342.42 4.29h-13.96l-11.82 19-7.44-19h-13.69l14.09 30.69-4.34 27.5h11.96l3.67-24.3 21.53-33.9"/>
  <path fill="#2E3192" d="M253.3 28.38c3.72-16.1 17.48-26.65 30.72-23.59 13.26 3.06 21 18.59 17.28 34.68-3.71 16.09-17.47 26.65-30.72 23.59-13.25-3.06-20.98-18.6-17.27-34.68zm18.1 23.03c6.33 2.83 14.08-2.73 17.3-12.4 3.23-9.69.72-19.83-5.6-22.66-6.34-2.83-14.08 2.72-17.3 12.4-3.23 9.69-.72 19.82 5.6 22.66"/>
  <path fill="#2E3192" d="M224.6 16.88h7.78c8.44 0 6.73 10.8-1.31 10.8h-8.32l1.84-10.8zm-3.7 22.68h10.03c9.5 0 9.23 11.6-1.32 11.6h-10.55l1.85-11.6zM214.32 4.6l-9.23 57.76h26.9c11.08 0 27.28-16.32 12.54-29.67 15.16-15.69.12-27.95-7.92-28.1-6.46-.1-22.42 0-22.42 0h.13M15.65 9.47C4.25 16.52-1.23 27.27.23 41.89 1.93 58.85 23.9 69.53 42.5 58.77c1.63-.94 1-.8 1.6-1.33l3.72-23.66H25.6l-1.7 10.9h9.28l-1.07 5.85c-5.31 2.12-14.35 1.33-18.2-5.58-2.44-4.38-4.7-14.15 5.58-23.13 8.37-7.3 22.86-8.63 31.23-4.78 0 0 1.06-6.1 1.86-11.83C36.5-.37 24.02 4.3 15.65 9.47"/>
  <path fill="#C8A601" d="M518.64 24.44c-6.32-10.34-17.46-11.9-17.46-11.9s-3.54-1.18-11.13-.17c-14.25 2.7-19.2 13.66-19.2 13.66s-5.1 8.03-3.07 17.75l6.22 12.3c4.59 4.3 6.47 4.3 6.76 4.55 6.07 2.75 13.12 1.16 13.12 1.16s8.9-.87 17.03-7.2a30.4 30.4 0 0 0 9.33-11.78l.86-9.41-2.46-8.96zm-17.31 21.12c-10.23 6.14-16.67-.58-16.67-.58s-2.86-1.88-3.47-7.6c-.44-6.61 6.14-10.05 6.14-10.05s3.48-2.13 7.81-1.8c4.34.32 5.71.03 9.22 2.64 3.33 3 3.11 5.2 3.11 5.2s1.2 7.45-6.14 12.19"/>
  <path fill="#00766A" d="M520.23 42.8s.22 5.8-.68 7.2c-1.23 2.64-1.05 5.2-1.05 5.2s-.84 7.82 8.2 9.12c6.22-.04 6.98-5.21 7.09-7.41.36-1.74.22-9.8.22-9.8l8.06 6.58s5.85 4.92 9.3 7.77c3.57 2.82 4.47 3.33 4.47 3.33s.77.9 3.5.57c2.22.04 4.24-1.95 4.24-1.95s2.57-1.88 3.22-5.17c.8-3.9-2.24-5.82-2.24-5.82s-11.2-9.04-18.8-15.26c5.1-2.78 7.56-4.7 7.56-4.7s7.08-4.7 8.6-11.9c2.1-7.9-3.87-11.01-3.87-11.01s-3.72-2.68-6.87-4.1c-7.92-3.86-15.3-3.06-15.3-3.06s-10.47-.73-17.3 7.7c-3.15 4.08-1.2 9.43-1.2 9.43s.4.86 1.27 4.92c1.75 8.17 1.58 18.37 1.58 18.37zm13.74-16.04l-.69-9.44s6.62-.15 9.37.32c5.42.84 5.13 2.36 5.13 2.36s-.18 1.91-4.3 3.8c-4.48 2.16-9.5 2.96-9.5 2.96"/>
</svg>
