<svg xmlns="http://www.w3.org/2000/svg" version="1.2" width="566.94" height="354.331">
  <path d="M57.901 241.664c-.39 0-.787-.088-1.16-.27-37.98-18.436-57.59-39.923-56.713-62.149.714-18.296 15.645-35.57 43.177-49.959 26.123-13.65 62.97-24.482 106.557-31.33a2.663 2.663 0 0 1 .826 5.261C62.296 117.084 6.645 146.298 5.351 179.458c-.777 19.66 18.3 39.956 53.715 57.145a2.665 2.665 0 0 1-1.165 5.061zm331.08-136.498c-.146 0-.29-.01-.437-.035-28.057-4.606-57.67-7.68-88.022-9.133a2.66 2.66 0 0 1-2.533-2.787c.07-1.468 1.341-2.589 2.787-2.53 30.558 1.462 60.38 4.556 88.636 9.195a2.661 2.661 0 0 1-.432 5.29zm-83.82 181.866c-.746 0-1.486 0-2.232-.003a2.657 2.657 0 0 1-2.65-2.67 2.657 2.657 0 0 1 2.657-2.653h.013c.73.002 1.48.002 2.215.002 142.504.002 254.953-37.04 256.436-84.646.521-16.658-12.86-33.56-38.709-48.873-25.734-15.25-62.619-28.25-106.66-37.589a2.667 2.667 0 0 1-2.053-3.157 2.665 2.665 0 0 1 3.158-2.052c44.6 9.46 82.04 22.674 108.27 38.217 27.615 16.364 41.902 34.907 41.316 53.62-.787 25.316-28.754 48.396-78.748 64.975-48.339 16.026-113.257 24.83-183.013 24.83z" fill="#c61717"/>
  <path d="M341.115 127.775l-23.204-24.152 7.398 33.467-70.299 53.584 82.571-32.967 23.2 24.153-7.398-33.457 70.3-53.586z" fill="#c61717"/>
  <g fill="#c61717">
    <path d="M265.344 215.295c1.008-4.96 2.846-4.239 7.877-5.039l4.683-.737-1.458 7.81-4.683.747c-5.03.797-7.246 2.143-6.419-2.78zm-10.153-7.148l-3.645 19.605c-.998 5.354.62 7.078 5.772 6.264l29.831-4.732 6.395-34.387-29.833 4.726c-5.155.817-7.53 3.172-8.52 8.524zm189.368-30.95l-.348 1.896 30.771-4.885c2.43-.39 4.796-2.845 5.291-5.5.485-2.653-1.075-4.492-3.507-4.104l-7.902 1.248-12.609 2.007-3.195.5c-3.696.591-7.75 4.805-8.5 8.838zm-215.887 88.67l.25-1.368c1.058.08 2.476.49 3.714.305l31.98-5.017c-1.188 6.38-9.615 7.98-22.475 10.017l-14.637 2.325-7.848 42.202 19.23-3.047c47.344-4.674 65.356-29.143 71.138-58.313l57.688-9.156 9.295-50.02 4.692-.75c5.142-.816 4.384-1.747 3.396 3.596l-8.508 45.77 41.416-6.572.567-3.033c3.126 1.38 6.778 1.865 10.646 1.258l71.625-11.36 6.68-35.953-4.643-3.306c4.023-4.764 7.158-10.593 8.066-15.485l1.13-5.67c3.571-21.207-15.98-26.838-24.9-25.42l-41.105 6.521c-7.279 1.156-15.295 6.23-21.127 12.95-5.395-5.343-13.72-7.419-18.563-6.65l-45.76 7.26 5.123 11.321 41.27-6.54c5.951-.948 9.928 1.428 11.02 6.14-.439 1.248-11.02 57.58-11.02 57.58l-14.797 2.348 7.934-42.646c.982-5.34-.633-7.067-5.77-6.25l-28.357 4.504-9.304 50.021-16.266 2.59 10.645-57.272-13.39-15.796-48.204 17.425 22.846-3.625.37-.05-14.528 78.154c-3.69 19.854-24.877 38.84-43.668 41.823l-19.229 3.048 2.916-15.642 14.627-2.313c12.86-2.047 27.336-14.916 29.833-28.375l1.578-8.468-38.09 6.041c-8.167 1.298-12.6-3.663-10.993-12.29l6.83-36.742c1.208-6.529 5.282-11.95 10.733-14.769l.09-.979 19.11-14.707-11.164 1.877c-5.939.938-16.953 5.392-23.95 14.317-5.293-6.313-14.548-8.786-19.76-7.959L176 186.238l6.69-35.962 29.953-4.752c15.944-2.526 33.586-20.458 36.721-37.3l4.503-24.233c3.135-16.854-8.716-30.104-24.66-27.576L163.747 66.8l-13.946 75.04-60.275 9.565c-5.102.81-10.064 5.841-11.062 11.231L55.936 283.79c-.999 5.394 2.326 9.112 7.43 8.31l115.007-18.252 9.305-50.02 4.682-.749c5.152-.81 4.393-1.735 3.395 3.604l-8.506 45.756zM143.33 238.44l-38.459 6.101 1.448-7.808 31.061-4.938 7.558-40.646-31.06 4.936 1.446-7.814 38.46-6.104zm-2.327 12.51l-3.195 17.191-68.042 10.795 21.207-114.12 56.211-8.917-2.906 15.635-39.937 6.342-6.1 32.828 32.54-5.162-2.906 15.627-32.539 5.162-6.11 32.836zm78.156 4.296l-16.274 2.571 7.927-42.633c1-5.344-.619-7.078-5.77-6.262l-28.356 4.504-9.294 50.021-16.275 2.586 12.201-65.652.38-.063 53.983-8.563c8.167-1.299 12.6 3.652 10.993 12.29zM324.92 174.74l15.905-2.516-12.21 65.652-16.268 2.578 12.2-65.646zm98.686 30.943l5.647-30.372c1.791-9.604 12.113-19.04 20.908-20.438l38.05-6.029c6.411-1.02 10.864 6.14 9.556 13.147l-1.865 9.774c-1.31 7.01-8.469 14.458-14.875 15.476l-39.498 6.271-.568 3.545c-.75 4.03 1.926 7.18 5.621 6.59l44.147-7.029-2.976 16.02-49.8 7.896c-8.797 1.392-16.125-5.239-14.347-14.85zm-235.398-85.116l5.522-29.703 20.707-3.285c2.716-.43 4.104 1.12 3.564 3.983l-3.774 20.33c-.54 2.874-2.596 4.96-5.312 5.39z"/>
    <path d="M320.566 134.465l-4.396-17.412-2.479.3-.797 4.292c-.552 2.977-2.943 5.4-5.753 5.852l-17.015 2.695c-2.808.45-4.414-1.348-3.862-4.323l8.575-46.117c.55-2.965 2.943-5.392 5.748-5.84l17.02-2.696c2.807-.448 4.412 1.35 3.857 4.313l-1.098 5.87 34.396-5.462 1.308-7.029c3.296-17.74-8.767-31.229-25.562-28.574l-32.906 5.223c-16.782 2.666-34.753 20.917-38.047 38.658l-9.154 49.243c-3.295 17.741 8.766 31.23 25.56 28.564l11-1.737zm24.381-10.504c.897-2.416 1.52-3.334 1.98-5.812l1.167-6.26-13.688 2.176z"/>
  </g>
</svg>
