<svg width="1080" height="360" viewBox="0 0 285.75 95.25" xmlns="http://www.w3.org/2000/svg">
  <defs>
    <clipPath id="a">
      <path d="M0 452h610V0H0z"/>
    </clipPath>
  </defs>
  <path d="M181.49 63.42q0 6.27-2.18 10.13-1.95 3.51-4.53 3.51h-58.21q-7.46 0-9.9-2.66-2.4-2.71-2.4-10.62v-45.6h70.51v5.74h6.71zm-8.04 12.31V19.52h-67.86v44.26q0 7.42 2.05 9.68t8.93 2.27zm-9.16-43.5h-23.6V30h23.6zm-14.22-6.31h-9.37V23.7h9.37zm14.22 12.62h-23.6v-2.22h23.6zm0 24.57h-23.6V60.9h23.6zm-9.77-13.33H140.7v-2.22h13.82zm-19.78-17.55h-24.92V30h24.92zm-14.22-6.31h-10.7V23.7h10.7zm14.22 12.62h-24.92v-2.22h24.92zm35.24 16.66q0 6.89-3.87 11.6-4.17 5.02-10.88 5.02-7.25 0-13.73-4.26-7.11-4.67-7.96-11.47h-23.72v-2.22h23.68q.31-6.18 6.4-10 5.33-3.38 11.95-3.38 9.96 0 16.93 5.2l-1.29 1.25q-6.66-4.98-16.48-4.98-6.49 0-10.84 2.58-5.25 3.1-5.25 9.2 0 5.82 6.22 11.24 6.27 5.38 14.98 5.38 12.4 0 12.4-14.31 0-8.67-8.62-10l1.37-1.42q8.71 1.38 8.71 10.57zm-40.57-5.42h-19.6v-2.22h19.6zm1.33 10.4v2.22h-20.92v-2.22zm9.96-6.31v2.22h23.6v-2.22z" fill="#fff" aria-label="ª"/>
</svg>
