<svg xmlns="http://www.w3.org/2000/svg" viewBox="23.58 0 290 60" height="60" width="290">
  <g style="line-height:1.25;-inkscape-font-specification:Erbaum" aria-label="CUSTOM" font-weight="400" font-size="29.33" font-family="Erbaum" letter-spacing="5.67" word-spacing="0" fill="#fff">
    <path d="M95.85 22.74h5.01c3.93 0 5.63-1.61 5.63-5.25v-.23l-2.78-.36v.2c0 2.39-.88 3.24-3.55 3.24h-3.61c-2.67 0-3.55-.85-3.55-3.29V7.14c0-2.47.88-3.29 3.55-3.29h3.6c2.68 0 3.56.82 3.56 3.23v.2l2.78-.35V6.7c0-3.64-1.7-5.25-5.63-5.25h-5.01c-3.93 0-5.64 1.6-5.64 5.3v10.68c0 3.7 1.7 5.31 5.64 5.31zM134.19 1.74h-2.79v15.31c0 2.44-.9 3.29-3.58 3.29h-3.13c-2.67 0-3.55-.85-3.55-3.29V1.74h-2.8v15.7c0 3.69 1.71 5.3 5.64 5.3h4.55c3.93 0 5.66-1.61 5.66-5.3zM151.7 22.74h5.07c3.9 0 5.63-1.61 5.63-5.3v-1.45c0-3.1-1.26-4.34-4.93-4.86l-5.25-.77c-2.64-.4-3.25-.94-3.25-2.93v-.3c0-2.43.9-3.28 3.58-3.28h3.37c2.67 0 3.58.82 3.58 3.23v.2l2.76-.35c.03-.06.03-.09.03-.23 0-3.64-1.74-5.25-5.67-5.25h-4.8c-3.94 0-5.64 1.6-5.64 5.3v1.32c0 3.08 1.3 4.32 4.96 4.84l5.22.77c2.58.38 3.26.97 3.26 2.93v.44c0 2.44-.91 3.29-3.58 3.29h-3.64c-2.67 0-3.55-.85-3.55-3.23v-.2l-2.79.35v.23c0 3.64 1.7 5.25 5.64 5.25zM188.7 1.74h-16.66v2.4h6.92v18.3h2.79V4.15h6.95zM209.25 1.45h-5.02c-3.93 0-5.63 1.6-5.63 5.3v10.68c0 3.7 1.7 5.31 5.63 5.31h5.02c3.93 0 5.63-1.61 5.63-5.3V6.74c0-3.7-1.7-5.3-5.63-5.3zm2.85 5.69v9.91c0 2.44-.88 3.29-3.55 3.29h-3.61c-2.67 0-3.55-.85-3.55-3.29V7.14c0-2.47.88-3.29 3.55-3.29h3.6c2.68 0 3.56.82 3.56 3.29zM244.12 1.74l-7.15 10.97-7.16-10.97h-2.79v20.7h2.79V6.2l6.57 10.09h1.17l6.6-10.1v16.26h2.79V1.74z"/>
  </g>
  <g style="line-height:1.25;-inkscape-font-specification:'Erbaum Bold'" aria-label="COLLECTIONS" font-weight="700" font-size="40" font-family="Erbaum" letter-spacing="0" word-spacing="0" fill="#fff">
    <path d="M32.03 58.55h9c4.8 0 7.24-2.4 7.24-7.08 0-.32 0-.4-.04-.56l-7.16-.88v.28c0 1.56-.56 2.12-2.2 2.12h-4.68c-1.64 0-2.2-.56-2.2-2.12V37.47c0-1.6.56-2.12 2.2-2.12h4.68c1.64 0 2.2.52 2.2 2.12v.24l7.16-.84c.04-.16.04-.28.04-.6 0-4.64-2.44-7.04-7.24-7.04h-9c-4.8 0-7.24 2.4-7.24 7.08v15.16c0 4.68 2.44 7.08 7.24 7.08zM70.09 29.23h-9c-4.8 0-7.24 2.4-7.24 7.08v15.16c0 4.68 2.44 7.08 7.24 7.08h9c4.8 0 7.24-2.4 7.24-7.08V36.31c0-4.68-2.44-7.08-7.24-7.08zm.04 8.24v12.84c0 1.56-.56 2.12-2.2 2.12h-4.68c-1.64 0-2.2-.56-2.2-2.12V37.47c0-1.6.56-2.12 2.2-2.12h4.68c1.64 0 2.2.52 2.2 2.12zM91.06 52.03v-22.4h-7.2v28.52h19.8v-6.12zM115.83 52.03v-22.4h-7.2v28.52h19.8v-6.12zM153.63 35.75v-6.12H133.4v28.52h20.24v-6.12H140.6v-5.4h11.36v-6.12H140.6v-4.76zM165.93 58.55h9c4.8 0 7.24-2.4 7.24-7.08 0-.32 0-.4-.04-.56l-7.16-.88v.28c0 1.56-.56 2.12-2.2 2.12h-4.68c-1.64 0-2.2-.56-2.2-2.12V37.47c0-1.6.56-2.12 2.2-2.12h4.68c1.64 0 2.2.52 2.2 2.12v.24l7.16-.84c.04-.16.04-.28.04-.6 0-4.64-2.44-7.04-7.24-7.04h-9c-4.8 0-7.24 2.4-7.24 7.08v15.16c0 4.68 2.44 7.08 7.24 7.08zM209.56 29.63h-23.44v6.12h8.12v22.4h7.2v-22.4h8.12zM214.48 58.15h7.2V29.63h-7.2zM244.47 29.23h-9c-4.8 0-7.24 2.4-7.24 7.08v15.16c0 4.68 2.44 7.08 7.24 7.08h9c4.8 0 7.24-2.4 7.24-7.08V36.31c0-4.68-2.44-7.08-7.24-7.08zm.04 8.24v12.84c0 1.56-.56 2.12-2.2 2.12h-4.68c-1.64 0-2.2-.56-2.2-2.12V37.47c0-1.6.56-2.12 2.2-2.12h4.68c1.64 0 2.2.52 2.2 2.12zM275.35 29.63v16.6l-10.24-16.6h-6.96v28.52h7.2v-16.6l10.2 16.6h7V29.63zM296.05 58.55h9.08c4.8 0 7.24-2.4 7.24-7.08v-3.8c0-4.16-1.8-5.92-6.8-6.64l-6.56-.96c-2.52-.36-2.92-.6-2.92-1.96v-.64c0-1.56.6-2.12 2.32-2.12h4.44c1.64 0 2.2.52 2.2 2.12v.24l7.16-.84c.04-.16.04-.2.04-.6 0-4.64-2.44-7.04-7.24-7.04h-8.84c-4.8 0-7.28 2.4-7.28 7.08v3.72c0 4.08 1.92 5.84 6.88 6.56l6.52.96c2.4.36 2.88.68 2.88 2v.76c0 1.56-.56 2.12-2.2 2.12h-4.76c-1.68 0-2.24-.56-2.24-2.12v-.28l-7.16.88c-.04.12-.04.16-.04.56 0 4.68 2.48 7.08 7.28 7.08z"/>
  </g>
</svg>
