<svg xmlns="http://www.w3.org/2000/svg" viewBox="0 0 285.75 95.25" height="360" width="1080"><defs><clipPath id="a"><path d="M0 452h610V0H0z"/></clipPath></defs><g fill="#fff"><rect transform="rotate(-45)" ry="2.646" rx="2.646" y="139.323" x="37.605" height="25.135" width="25.135"/><rect transform="rotate(-45)" ry="2.646" rx="2.646" y="139.323" x="71.856" height="25.135" width="25.135"/><path d="M102.748 45.826a2.64 2.64 0 0 0 0 3.741l13.865 13.865c.284.283.531.51.79.517.132-.095.144-.189.177-.283l.058-32.515c-.002-.08-.002-.08-.039-.126-.053-.005-.065.018-.135.085zM127.099 21.545a.535.535 0 0 0-.036.233l-.058 32.688c.04.697.004.954.41 1.428.309.305.516.085 1.466-.883L158.76 25.03a2.642 2.642 0 0 0 0-3.742L144.894 7.422a2.64 2.64 0 0 0-3.742 0l-13.905 13.905c-.057.067-.118.13-.148.218z"/></g></svg>