<svg xmlns="http://www.w3.org/2000/svg" viewBox="0 0 285.75 95.25" height="360" width="1080">
  <g fill="#fff">
    <circle transform="rotate(-24.88)" r="8.82" cy="130.65" cx="128.78"/>
    <path d="M78.12 37.57c-.3 0-.53.24-.53.53v11.3H66.3c-.29 0-.52.23-.52.53v9.1c0 .29.23.52.52.52h11.3v11.3c0 .3.24.53.53.53h9.1c.3 0 .53-.24.53-.53v-11.3h11.3c.29 0 .53-.23.53-.53v-9.1c0-.29-.24-.52-.53-.52h-11.3V38.1c0-.3-.24-.53-.53-.53z"/>
    <circle transform="rotate(-24.88)" r="8.82" cy="130.72" cx="151.38"/>
    <circle transform="rotate(-24.88)" r="8.82" cy="131.05" cx="173.98"/>
    <rect transform="rotate(-27.22)" ry="2.65" rx="2.65" y="102.34" x="135.74" height="4.54" width="18.98"/>
    <path d="M82.55 35.77a18.7 18.7 0 0 0-7.27 1.52 18.7 18.7 0 0 0-9.8 24.58 18.7 18.7 0 0 0 24.58 9.8 18.7 18.7 0 0 0 9.8-24.59 18.7 18.7 0 0 0-17.3-11.31zm.02 2.24a16.46 16.46 0 0 1 15.22 9.96 16.46 16.46 0 0 1-8.61 21.63 16.46 16.46 0 0 1-21.63-8.62 16.46 16.46 0 0 1 8.61-21.63 16.46 16.46 0 0 1 6.4-1.34z"/>
  </g>
</svg>
