<svg xmlns="http://www.w3.org/2000/svg" width="566.93" height="90.32">
  <path d="M492.03 89.96c8.25-.16 16.44-.4 24.63-1.5 7.38-.99 15.09-2 22.25-4.03a75.63 75.63 0 0 0 15.9-6.56c6.83-3.66 12.6-10.15 12.6-16.24-.02-7.51-6.75-11.4-13.13-15.04a87.75 87.75 0 0 0-16.04-6.07c-7.16-2.03-14.4-3.1-21.79-4.08-8.18-1.1-16.16-1.37-24.42-1.54-7.86-.15-16.08.16-23.94.35-6.06.14-11.97.41-18.03.32-8.96-.14-17.99-.47-26.94-1.09a283.16 283.16 0 0 1-34.25-4.33c-5.13-1-8.49-2.03-12.67-3.25a131.6 131.6 0 0 1-12.31-4.14 60.16 60.16 0 0 1-7.16-3.46c-1.82-1.02-3.68-2.23-5.46-3.3-1.69-1.02-3.26-2.05-5.03-2.92a132.35 132.35 0 0 0-12.29-5.48 120.94 120.94 0 0 0-17.1-4.9C310.91 1.47 304.83.87 298.79.32c-3.05-.27-14.85-.49-14.85-.49s-11.8.22-14.86.5c-6.04.54-12.12 1.14-18.05 2.39a120.98 120.98 0 0 0-17.1 4.9c-4.2 1.54-8.28 3.5-12.3 5.47-1.76.86-3.34 1.9-5.02 2.91-1.79 1.08-3.65 2.3-5.47 3.31a60.72 60.72 0 0 1-7.15 3.46 131.8 131.8 0 0 1-12.31 4.14c-4.19 1.22-7.55 2.25-12.68 3.25a282.35 282.35 0 0 1-34.25 4.33c-8.95.62-17.97.95-26.93 1.09-6.07.1-11.98-.19-18.03-.32-7.86-.19-16.09-.5-23.95-.35-8.25.17-16.24.44-24.42 1.54-7.38.98-14.63 2.05-21.79 4.08a87.66 87.66 0 0 0-16.04 6.07C7.21 50.24.48 54.12.47 61.63c0 6.1 5.77 12.58 12.6 16.24a75.65 75.65 0 0 0 15.9 6.56c7.15 2.03 14.86 3.04 22.25 4.03 8.18 1.1 16.37 1.34 24.62 1.5 0 0 345.26.4 416.19 0z"/>
  <linearGradient id="a" gradientUnits="userSpaceOnUse" x1="284.45" y1="-415.99" x2="284.45" y2="-475.99" gradientTransform="matrix(1 0 0 -1 -.13 -389.26)">
    <stop offset="0" stop-color="#f1f3f2"/>
    <stop offset=".19" stop-color="#a4b5d3"/>
    <stop offset=".59" stop-color="#f1f3f2"/>
    <stop offset=".6" stop-color="#5878b5"/>
    <stop offset="1" stop-color="#f1f3f2"/>
  </linearGradient>
  <path fill="url(#a)" d="M265.3 41.53a207.6 207.6 0 0 1-17-1.72c-2.92-.43-5.82-1.06-8.71-1.66-1.86-.39-3.73-.74-5.56-1.26-3.46-.97-6.95-1.95-10.22-3.45-3.81-1.74-9.4-5.42-10.83-6.4-1.42-.98-2-1.67-2.6-1.67-.76.02-1.44.39-2.24.7-4.7 1.81-9.4 3.7-14.23 5.13a188.75 188.75 0 0 1-18.82 4.44c-6.26 1.18-12.59 2-18.93 2.68-7.37.77-14.77 1.2-22.18 1.53-6.22.29-12.46.36-18.69.42-8.47.08-16.94-.16-25.41-.06-8.06.09-16.14-.05-24.18.6-7.37.6-14.77 1.35-21.98 3-5.55 1.28-10.33 2.49-16.25 5.31-5.47 2.6-12.7 7.28-12.74 13.46-.04 6.12 7.12 10.47 12.45 13.48 2.81 1.6 11.5 4.31 17.46 5.71 6.87 1.61 13.93 2.44 20.96 3.06 8.42.73 16.89.64 25.33.77H477.7c8.45-.13 16.92-.04 25.33-.77 7.03-.62 14.1-1.44 20.97-3.06 5.96-1.4 14.64-4.11 17.46-5.7 5.32-3.02 12.48-7.37 12.45-13.49-.04-6.18-7.28-10.85-12.75-13.46-5.92-2.82-10.7-4.03-16.25-5.3-7.2-1.66-14.6-2.42-21.98-3.01-8.03-.65-16.11-.51-24.17-.6-8.48-.1-16.95.14-25.42.06a524.5 524.5 0 0 1-18.68-.42c-7.41-.34-14.82-.76-22.19-1.53-6.34-.67-12.67-1.5-18.93-2.68-6.33-1.2-12.64-2.6-18.81-4.44-4.84-1.44-9.53-3.32-14.24-5.13-.8-.31-1.73-.73-2.28-.57-.51.1-1.7.94-2.55 1.54a72.82 72.82 0 0 1-10.84 6.4c-3.27 1.5-6.75 2.48-10.21 3.45-1.83.51-3.7.87-5.56 1.26-2.9.6-5.79 1.23-8.72 1.65a209.7 209.7 0 0 1-17 1.72c-14.1.4-16.64.3-19.97.3-9.49-.01-12.01.08-18.05-.3z"/>
  <linearGradient id="b" gradientUnits="userSpaceOnUse" x1="1.76" y1="261.54" x2="1.76" y2="259.41" gradientTransform="matrix(2.5123 0 0 -12.4474 281.8 3263.65)">
    <stop offset="0" stop-color="#f1f3f2"/>
    <stop offset=".9" stop-color="#a4b5d3"/>
    <stop offset="1" stop-color="#5878b5"/>
  </linearGradient>
  <path fill="url(#b)" d="M343.19 22.24c0 7.39-25.5 13.38-56.95 13.38-31.45 0-56.95-6-56.95-13.38 0-7.4 25.5-13.39 56.95-13.39 31.45 0 56.95 6 56.95 13.39z"/>
  <g>
    <path d="M91.21 80.45c-8.45-.13-17.58.04-26.33-.68-5.46-.46-10.98-.9-16.28-2.3-5.43-1.42-11.2-2.72-15.67-6.1-2.92-2.23-6.6-5.3-6.6-8.84 0-2.27 1.8-4.3 3.48-5.8 4.46-3.98 10.62-5.68 16.35-7.39 6.58-1.96 13.51-2.56 20.35-3.15 8.2-.72 16.64-.4 24.7-.5M476.42 80.45c8.44-.13 17.65.04 26.44-.68 5.47-.46 10.98-.9 16.29-2.3 5.42-1.42 11.2-2.72 15.67-6.1 2.92-2.23 6.6-5.3 6.6-8.84 0-2.27-1.8-4.3-3.48-5.8-4.47-3.98-10.62-5.68-16.35-7.39-6.58-1.96-13.51-2.56-20.35-3.15-8.25-.72-16.76-.4-24.82-.5"/>
    <path d="M87.73 45.7h389.85v34.75L88.3 80.33z"/>
  </g>
  <g>
    <path fill="#0F0E43" d="M302.6 15.68a977 977 0 0 0-3.34 11.12l-1.11 3.77.55-.02.55-.02.55-.03.55-.02 1.11-3.62 1.12-3.58a1419.41 1419.41 0 0 1 2.22-7.05 1.67 1.67 0 0 1 .46-.78 1.09 1.09 0 0 1 1.18-.2 1.58 1.58 0 0 1 .82 1.03c.31 1 .63 1.97.94 2.93l.94 2.88.94 2.84.94 2.8-1.47.09-1.48.09-1.48.08-1.48.07v2.16a392.86 392.86 0 0 0 8.8-.68 557.47 557.47 0 0 1-4.45-13.67 3.95 3.95 0 0 0-2.28-2.59 3.49 3.49 0 0 0-2.32-.1 3.3 3.3 0 0 0-1.78 1.4c-.21.33-.38.7-.49 1.1zm2.6 9.05l.2-.63.2-.62.18-.62.2-.61.2.6.2.61.2.6.2.61-.39.01-.4.02-.4.01-.38.02zm-.32-7.1l-1 3.16-.99 3.19-1 3.22-1 3.25.65-.03.64-.03.65-.04.64-.04.42-1.33.4-1.33.42-1.33.41-1.32v2.47l1.3-.07 1.29-.06 1.3-.07 1.29-.07-.77-2.34a666.06 666.06 0 0 1-2.49-7.74 7.04 7.04 0 0 0-.26-.7c-.1-.23-.22-.45-.34-.6-.13-.17-.26-.27-.4-.27-.13 0-.27.09-.4.24-.11.15-.23.36-.33.59a8.51 8.51 0 0 0-.43 1.26zm-14.08-2.12h1.93l1.93.03 1.92.02c.65 0 1.29.02 1.93.03v-.61-.6-.61-.61l-1.97-.05-1.98-.03a213.97 213.97 0 0 0-3.95-.05c-.53 0-1.04.12-1.5.34a3.8 3.8 0 0 0-1.23.92 4.85 4.85 0 0 0-1.13 3.07v9.09a4.75 4.75 0 0 0 1.14 3.07c.34.39.76.7 1.22.92.46.22.97.34 1.5.33l1.98-.03a331.43 331.43 0 0 0 3.95-.1l1.98-.08v-2.84-2.83-2.83-2.84h-6.25v2.25h1a172.75 172.75 0 0 0 2.03 0l1-.01v6.73l-1.37.03-1.38.03a126.45 126.45 0 0 1-2.75.04 1.66 1.66 0 0 1-1.3-.6 2.26 2.26 0 0 1-.54-1.46v-2.16-2.17-2.17-2.17a2.26 2.26 0 0 1 .54-1.46c.17-.18.36-.33.58-.44.22-.1.46-.16.72-.15zm1.47 6.59v2.47h.96l.32-.01v.61h-.32l-.32.01h-.64a.51.51 0 0 1-.22-.04.55.55 0 0 1-.17-.13.7.7 0 0 1-.12-.2.7.7 0 0 1-.05-.24v-1.34-1.34-1.34-1.34c0-.08.02-.16.05-.24.03-.07.06-.14.11-.2s.11-.1.18-.13a.5.5 0 0 1 .22-.04h3.12l1.56.01h1.56v-.6-.6-.6-.61l-1.79-.02-1.79-.02-1.79-.02-1.79-.01c-.25 0-.5.06-.71.16-.22.1-.42.25-.59.44-.16.18-.3.4-.4.65-.09.25-.14.52-.14.8v7.43a2.27 2.27 0 0 0 .54 1.46c.17.19.37.34.59.44.22.1.46.16.72.15l1.1-.01 1.1-.02 1.1-.02 1.11-.02V26.2v-1.38-1.38-1.37h-1.75l-.87.01h-.88zm-14.14-6.54l1.93-.02 1.93-.02 1.92-.02h1.93v-.62-.62-.62-.62a434.6 434.6 0 0 0-7.9.1c-.53 0-1.03.14-1.5.36a4.4 4.4 0 0 0-2.35 3.95v8.73a4.58 4.58 0 0 0 1.13 3.03c.35.4.76.72 1.22.95.46.24.97.38 1.5.4l1.98.05 1.97.05a256.12 256.12 0 0 0 3.96.05v-.62-.62-.62-.62a248.09 248.09 0 0 1-3.86-.04l-1.93-.03-1.93-.04c-.25-.01-.5-.07-.71-.18-.22-.11-.42-.27-.59-.45a2.14 2.14 0 0 1-.53-1.45v-2.1-2.1-2.11-2.1a2.22 2.22 0 0 1 .54-1.44 1.82 1.82 0 0 1 1.29-.61zm6.05 5.93v-.57-.57-.56-.57h-5.13a.62.62 0 0 1 .34-.56.53.53 0 0 1 .2-.05 812.25 812.25 0 0 0 3.13 0l1.56-.01h1.56v-.62-.62-.62-.62h-1.78l-1.8.02-1.79.01-1.78.02a1.72 1.72 0 0 0-1.3.6 2.1 2.1 0 0 0-.54 1.44v3.25l1.83.02h1.84l1.83.01h1.83zm0 .82v2.27l-1.28-.01-1.28-.01-1.29-.02-1.28-.01a.62.62 0 0 0 .34.57c.06.03.13.05.2.05l1.57.02a405.03 405.03 0 0 0 4.68.04v2.47l-1.79-.01-1.79-.02-1.79-.03-1.79-.04c-.25 0-.49-.07-.71-.17-.22-.11-.42-.27-.58-.45a2.15 2.15 0 0 1-.54-1.45v-.81-.81-.82-.81l1.83.02h1.84l1.83.02 1.83.01zm-18.86 2.66l-1.15-.04-1.15-.05-1.16-.05-1.15-.05v2l1.76.12 1.76.1a521.02 521.02 0 0 0 3.53.19H267.85a2.25 2.25 0 0 0 1.69-.72 2.76 2.76 0 0 0 .5-2.86c-.12-.32-.3-.6-.53-.85a2.5 2.5 0 0 0-1.75-.8l-.7-.01-.69-.01-.7-.01-.69-.02a3.33 3.33 0 0 1-1.46-1.14 2.85 2.85 0 0 1-.35-2.99 3.38 3.38 0 0 1 1.74-1.69 3.2 3.2 0 0 1 1.2-.28l1.72-.05 1.73-.05 1.72-.04 1.72-.04v-.6-.6-.6-.6l-1.8.07a545.35 545.35 0 0 0-5.36.22c-.7.03-1.38.22-2 .52a5.67 5.67 0 0 0-2.73 2.87c-.26.63-.4 1.3-.4 2 0 .71.15 1.39.43 2a5.87 5.87 0 0 0 2.86 2.83 5.3 5.3 0 0 0 2.02.48v-.01-.01.01h.01v.01l.41.02.41.01a57.96 57.96 0 0 0 .82.03c.05 0 .1.01.14.03a.39.39 0 0 1 .2.21.39.39 0 0 1 0 .3c-.02.05-.05.09-.08.12s-.07.06-.12.08a.32.32 0 0 1-.14.02 57.34 57.34 0 0 0-1.17-.04l-.59-.02-.59-.01zm3.04-6.5h1.16l1.15-.02h1.16l1.16-.02v-.54-.55-.55-.55l-1.77.03-1.76.04-1.77.04-1.77.04h-.02-.02-.05c-.33.02-.64.11-.93.25a2.66 2.66 0 0 0-1.45 2.35 2.57 2.57 0 0 0 2.47 2.57h.7l.7.01.7.01h.69a3.24 3.24 0 0 1 1.45 1.2 3.41 3.41 0 0 1 .62 1.89 3.1 3.1 0 0 1-3.21 3.1 329.14 329.14 0 0 1-5.16-.32l-1.71-.11v2.2a274.19 274.19 0 0 0 7.14.56 4.6 4.6 0 0 0 3.64-1.4c.46-.47.84-1.06 1.1-1.71a5.86 5.86 0 0 0-.03-4.35 5.69 5.69 0 0 0-2.86-2.97 4.94 4.94 0 0 0-2.02-.42v.03l-.01-.01v-.01c0-.01 0 0 0 0h-1.64a.35.35 0 0 1-.26-.1.4.4 0 0 1-.08-.42.4.4 0 0 1 .2-.21c.04-.02.09-.03.14-.03h.58l.59-.01a114.5 114.5 0 0 1 1.17-.02z"/>
  </g>
  <linearGradient id="c" gradientUnits="userSpaceOnUse" x1="284.85" y1="-415.7" x2="284.85" y2="-480.58" gradientTransform="matrix(1 0 0 -1 -1.13 -390.26)">
    <stop offset="0" stop-color="#f1f3f2"/>
    <stop offset=".19" stop-color="#a4b5d3"/>
    <stop offset=".59" stop-color="#f1f3f2"/>
    <stop offset=".6" stop-color="#5878b5"/>
    <stop offset="1" stop-color="#f1f3f2"/>
  </linearGradient>
  <path fill="url(#c)" d="M413.98 49.74l4.44 6.65h12.13l-4.44-6.65h-12.13zm36.84 0l-4.44 6.65h12.14l4.43-6.65h-12.13zm-386.57.57v6.08H123.55c0-3.32-2.4-6.02-5.38-6.08H64.25zm65.48 0v6.08h39.03v-6.08h-39.03zm50.05 0c-3 .02-5.45 2.73-5.45 6.08h46.13v-6.08h-40.68zm51.57 0c-3 .04-5.41 2.75-5.41 6.08h43.68c0-3.35-2.46-6.08-5.48-6.08h-32.79zm63.93 0v6.08H340.9c0-3.33-2.43-6.04-5.42-6.08h-40.2zm57.85 0v.03c-2.82.25-5.04 2.86-5.04 6.05h44.6c0-3.33-2.42-6.04-5.41-6.08h-34.15zm46.06 0v6.08h10.93v-6.08h-10.93zm68 0v6.08h39.04v-6.08H467.2zm-427.93 5.3a7.05 7.05 0 0 0 0 14.1 7.05 7.05 0 0 0 0-14.1zm488.92 0a7.05 7.05 0 1 0-.02 14.1 7.05 7.05 0 0 0 .02-14.1zM64.25 58.4v18.07H75.1V58.42H64.25zm24.1 0v18.07h10.87V58.42H88.36zm24.15 0v18.07h10.96V58.42H112.5zm17.23 0v11.57c.15 3.61 3.46 6.5 7.5 6.5h31.53v-6.09H143.1c-1.34 0-2.4-1.1-2.4-2.43v-1.52h26.16v-5.58H143.1c-1.34 0-2.4-1.1-2.4-2.44H129.72zm44.6 0v11.76h.03c.24 3.31 3.13 5.97 6.78 6.27v.03h32.03v-.03a7.8 7.8 0 0 0-.5-15.59H193.81v5.58h13.52c1.1 0 1.97.9 1.97 2s-.87 1.96-1.97 1.96h-20.08c-1.1 0-1.97-.87-1.97-1.96V58.42h-10.96zm51.6 0v18.07h10.94V58.42h-10.93zm32.73 0v5.4H238.8v7.1h19.86v5.57h10.96V58.42h-10.96zm36.62 0v18.07h10.93V58.42h-10.93zm34.66 0v10.02c0 1.1-.87 1.96-1.97 1.96h-20.24v6.09h26.3v-.03c3.84-.3 6.87-3.19 6.87-6.72V58.42h-10.96zm18.15 0v18.07h10.93V58.42h-10.93zm33.64 0v3.49a1.95 1.95 0 0 1-1.96 1.9H361.46v7.1h15.27l5.54 5.57h13.09l-7.54-7.57a7.8 7.8 0 0 0 4.88-7.22v-3.26h-10.97zm17.46 0v18.07h10.93V58.42h-10.93zm20.56 0l12.03 18.07H445.15l12.04-18.06h-12.14l-6.59 9.88-6.59-9.88h-12.13zm47.45 0v11.57c.14 3.61 3.46 6.5 7.5 6.5h31.53v-6.09h-25.66a2.44 2.44 0 0 1-2.44-2.43v-1.52h26.17v-5.58h-23.73a2.44 2.44 0 0 1-2.44-2.44H467.2z"/>
</svg>
