<svg xmlns="http://www.w3.org/2000/svg" viewBox="0 0 285.75 95.25" height="360" width="1080">
  <defs>
    <clipPath id="a">
      <path d="M0 452h610V0H0z"/>
    </clipPath>
  </defs>
  <g fill="#fff">
    <path d="M66.364 21.754c1.312-1.268 3.936-3.804 5.413-5.17 1.477-1.368 1.808-1.566 2.183-1.707a3.174 3.174 0 0 1 1.308-.202c.47.032.985.189 1.447.453.463.265.882.64 1.224 1.08.342.442.606.949.837 1.474.23.526.43 1.084.52 1.878.087.794.065 1.83.054 3.241-.01 1.412-.01 3.197-.053 4.377-.043 1.18-.134 1.797-.31 2.359a4.946 4.946 0 0 1-.772 1.521c-.33.43-.728.76-1.15 1.03-.423.27-.871.477-1.335.576-.463.1-.94.09-1.315-.006-.374-.097-.633-.272-.965-.493-.33-.222-.68-.452-2.099-1.826a236.947 236.947 0 0 1-5.162-5.214c-1.27-1.332-1.336-1.486-1.325-1.64.011-.155.1-.31.144-.386.044-.077.044-.077 1.356-1.345zM53.8 21.338c-1.311-1.268-3.935-3.803-5.412-5.17-1.478-1.367-1.808-1.566-2.184-1.707a3.174 3.174 0 0 0-1.308-.201 3.46 3.46 0 0 0-1.447.453 4.22 4.22 0 0 0-1.224 1.08c-.341.441-.606.948-.836 1.474a6.067 6.067 0 0 0-.52 1.878c-.088.793-.066 1.83-.055 3.24.011 1.412.011 3.198.054 4.377.042 1.18.133 1.797.31 2.36.176.562.44 1.09.772 1.52.33.43.727.761 1.15 1.03.423.27.87.477 1.334.577.463.099.94.09 1.315-.007.374-.096.634-.272.965-.493.331-.221.68-.451 2.1-1.826a236.947 236.947 0 0 0 5.161-5.214c1.27-1.331 1.336-1.485 1.325-1.64-.011-.154-.1-.309-.143-.386-.044-.077-.044-.077-1.356-1.345zM57.913 16.732c-1.268-1.312-3.803-3.936-5.17-5.413-1.367-1.478-1.566-1.809-1.707-2.184a3.174 3.174 0 0 1-.201-1.308 3.46 3.46 0 0 1 .453-1.447 4.22 4.22 0 0 1 1.08-1.224c.441-.342.948-.606 1.474-.836a6.067 6.067 0 0 1 1.878-.52c.793-.088 1.83-.066 3.24-.055 1.412.011 3.198.011 4.377.054 1.18.042 1.797.133 2.36.31.562.176 1.09.44 1.52.771.43.331.761.728 1.03 1.15.27.424.477.872.577 1.335.099.463.09.94-.007 1.315-.096.374-.272.634-.493.965-.221.331-.451.68-1.826 2.1a236.944 236.944 0 0 1-5.214 5.161c-1.331 1.27-1.486 1.336-1.64 1.325-.154-.011-.309-.1-.386-.143-.077-.044-.077-.044-1.345-1.356zM61.81 29.273c1.267 1.312 3.803 3.936 5.17 5.413 1.367 1.477 1.565 1.808 1.706 2.183.141.375.234.838.202 1.309a3.46 3.46 0 0 1-.453 1.447 4.22 4.22 0 0 1-1.08 1.223c-.442.342-.949.607-1.474.837a6.067 6.067 0 0 1-1.878.52c-.794.088-1.83.066-3.241.055-1.412-.012-3.197-.012-4.377-.054-1.18-.042-1.797-.134-2.359-.31a4.946 4.946 0 0 1-1.521-.772c-.43-.33-.76-.727-1.03-1.15-.27-.423-.477-.871-.576-1.334-.1-.464-.09-.94.006-1.315.097-.375.272-.634.493-.965.221-.332.452-.68 1.826-2.1a236.945 236.945 0 0 1 5.214-5.162c1.332-1.27 1.486-1.335 1.64-1.324.155.01.31.099.386.143.077.044.077.044 1.345 1.356zM66.364 66.249c1.312-1.268 3.936-3.803 5.413-5.17 1.477-1.367 1.808-1.566 2.183-1.707a3.174 3.174 0 0 1 1.308-.201c.47.032.985.188 1.447.453.463.264.882.639 1.224 1.08.342.44.606.948.837 1.474.23.525.43 1.083.52 1.877.087.794.065 1.83.054 3.241-.01 1.412-.01 3.197-.053 4.377-.043 1.18-.134 1.797-.31 2.36a4.946 4.946 0 0 1-.772 1.52c-.33.43-.728.761-1.15 1.03-.423.27-.871.477-1.335.576-.463.1-.94.09-1.315-.006-.374-.096-.633-.272-.965-.493-.33-.221-.68-.452-2.099-1.826a236.951 236.951 0 0 1-5.162-5.214c-1.27-1.331-1.336-1.486-1.325-1.64.011-.155.1-.309.144-.386.044-.077.044-.077 1.356-1.345zM53.8 65.834c-1.311-1.268-3.935-3.804-5.412-5.17-1.478-1.368-1.808-1.566-2.184-1.707a3.174 3.174 0 0 0-1.308-.202 3.46 3.46 0 0 0-1.447.453 4.22 4.22 0 0 0-1.224 1.08c-.341.441-.606.949-.836 1.474a6.067 6.067 0 0 0-.52 1.878c-.088.794-.066 1.83-.055 3.241.011 1.411.011 3.197.054 4.377.042 1.18.133 1.796.31 2.359.176.562.44 1.091.771 1.521.331.43.728.76 1.15 1.03.424.27.872.477 1.335.576.463.1.94.09 1.315-.006.374-.097.634-.272.965-.494.331-.22.68-.451 2.1-1.826a236.945 236.945 0 0 0 5.161-5.214c1.27-1.33 1.336-1.485 1.325-1.64-.011-.154-.1-.308-.143-.385-.044-.077-.044-.077-1.356-1.345zM57.913 61.227c-1.268-1.312-3.803-3.936-5.17-5.413-1.367-1.477-1.566-1.808-1.707-2.183a3.174 3.174 0 0 1-.201-1.309 3.46 3.46 0 0 1 .453-1.447 4.22 4.22 0 0 1 1.08-1.223c.441-.342.948-.607 1.474-.837a6.067 6.067 0 0 1 1.878-.52c.793-.088 1.83-.066 3.24-.055 1.412.011 3.198.011 4.377.054 1.18.042 1.797.134 2.36.31.562.177 1.09.441 1.52.772.43.33.761.727 1.03 1.15.27.423.477.87.577 1.334.099.463.09.94-.007 1.315-.096.375-.272.634-.493.965-.221.332-.451.68-1.826 2.1a236.947 236.947 0 0 1-5.214 5.162c-1.331 1.27-1.486 1.335-1.64 1.324-.154-.01-.309-.1-.386-.143-.077-.044-.077-.044-1.345-1.356zM61.81 73.768c1.267 1.312 3.803 3.936 5.17 5.413 1.367 1.478 1.565 1.808 1.706 2.183.141.376.234.838.202 1.309a3.46 3.46 0 0 1-.453 1.447 4.22 4.22 0 0 1-1.08 1.224c-.442.341-.949.606-1.474.836a6.066 6.066 0 0 1-1.878.52c-.794.088-1.83.066-3.241.055-1.412-.011-3.197-.011-4.377-.054-1.18-.042-1.797-.134-2.359-.31a4.946 4.946 0 0 1-1.521-.772c-.43-.33-.76-.727-1.03-1.15-.27-.423-.477-.87-.576-1.334-.1-.463-.09-.94.006-1.315.097-.375.272-.634.493-.965.221-.331.452-.68 1.826-2.1a236.936 236.936 0 0 1 5.214-5.161c1.332-1.27 1.486-1.336 1.64-1.325.155.011.31.1.386.143.077.044.077.044 1.345 1.356zM231.95 66.249c1.311-1.268 3.935-3.803 5.412-5.17 1.478-1.367 1.808-1.566 2.184-1.707a3.174 3.174 0 0 1 1.308-.201c.47.032.984.188 1.447.453.463.264.882.639 1.224 1.08.341.44.606.948.836 1.474.23.525.431 1.083.52 1.877.088.794.066 1.83.055 3.241-.011 1.412-.011 3.197-.054 4.377-.042 1.18-.133 1.797-.31 2.36a4.946 4.946 0 0 1-.771 1.52c-.331.43-.728.761-1.15 1.03-.424.27-.872.477-1.335.576-.463.1-.94.09-1.315-.006-.374-.096-.634-.272-.965-.493-.331-.221-.68-.452-2.1-1.826a236.94 236.94 0 0 1-5.161-5.214c-1.27-1.331-1.336-1.486-1.325-1.64.011-.155.1-.309.143-.386.044-.077.044-.077 1.356-1.345zM227.395 73.768c1.268 1.312 3.803 3.936 5.17 5.413 1.367 1.478 1.566 1.808 1.707 2.183.14.376.233.838.201 1.309-.032.47-.188.984-.453 1.447a4.22 4.22 0 0 1-1.08 1.224c-.44.341-.948.606-1.474.836a6.066 6.066 0 0 1-1.877.52c-.794.088-1.83.066-3.242.055-1.41-.011-3.196-.011-4.376-.054-1.18-.042-1.797-.134-2.36-.31a4.946 4.946 0 0 1-1.52-.772c-.43-.33-.761-.727-1.03-1.15-.27-.423-.477-.87-.576-1.334-.1-.463-.09-.94.006-1.315s.272-.634.493-.965c.22-.331.451-.68 1.826-2.1a236.92 236.92 0 0 1 5.214-5.161c1.331-1.27 1.485-1.336 1.64-1.325.154.011.309.1.386.143.077.044.077.044 1.345 1.356z"/>
    <rect width="14.817" height="6.747" x="107.744" y="84.769" rx="3.175" ry="3.175"/>
    <rect width="14.817" height="6.747" x="129.837" y="84.769" rx="3.175" ry="3.175"/>
  </g>
</svg>
