<?xml version="1.0" encoding="UTF-8" standalone="no"?>
<svg
   xmlns:dc="http://purl.org/dc/elements/1.1/"
   xmlns:cc="http://creativecommons.org/ns#"
   xmlns:rdf="http://www.w3.org/1999/02/22-rdf-syntax-ns#"
   xmlns:svg="http://www.w3.org/2000/svg"
   xmlns="http://www.w3.org/2000/svg"
   xmlns:sodipodi="http://sodipodi.sourceforge.net/DTD/sodipodi-0.dtd"
   xmlns:inkscape="http://www.inkscape.org/namespaces/inkscape"
   inkscape:version="1.0 (4035a4fb49, 2020-05-01)"
   sodipodi:docname="system.svg"
   id="svg6"
   height="94.79"
   width="566.93"
   version="1.2">
  <sodipodi:namedview
     inkscape:current-layer="svg6"
     inkscape:window-maximized="1"
     inkscape:window-y="-11"
     inkscape:window-x="-11"
     inkscape:cy="47.395"
     inkscape:cx="283.465"
     inkscape:zoom="2.4817879"
     inkscape:pagecheckerboard="true"
     showgrid="false"
     id="namedview9"
     inkscape:window-height="986"
     inkscape:window-width="1920"
     inkscape:pageshadow="2"
     inkscape:pageopacity="0"
     guidetolerance="10"
     gridtolerance="10"
     objecttolerance="10"
     borderopacity="1"
     bordercolor="#666666"
     pagecolor="#ffffff" />
  <metadata
     id="metadata12">
    <rdf:RDF>
      <cc:Work
         rdf:about="">
        <dc:format>image/svg+xml</dc:format>
        <dc:type
           rdf:resource="http://purl.org/dc/dcmitype/StillImage" />
        <dc:title></dc:title>
      </cc:Work>
    </rdf:RDF>
  </metadata>
  <defs
     id="defs10" />
  <path
     id="path2"
     fill="#fff"
     d="M556.36 78.93h-2.29v-.79h5.45v.8h-2.27v6.14h-.9zm6.85 6.15l-1.9-5.64v5.64h-.9v-6.94h1.26l2 5.9 2-5.9h1.26v6.94h-.91v-5.64l-1.9 5.64zm-440.4-65.74c0-2.4-.45-5.52-1.52-6.84 6.97 0 22.04.05 28.5.05 14.86 0 37.28 8.25 37.28 36.05 0 20.64-15.83 36-37.28 36-4.7 0-22.67-.05-29.05-.05a18.75 18.75 0 0 0 2.07-8.27V19.34zm10.69 58.2c6.86.9 13.19 1.17 18.92.35 5.54-.8 24.16-4.8 24.05-29.53-.11-23.43-14.58-28.79-25.73-29.44a74 74 0 0 0-17.24.88v57.74zm59.69-42.9l10.67-1.66v9.4c2.74-6.77 11.26-12.21 23.37-7.5l-2.84 7.43c-11.08-5.26-20.53-.64-20.53 11.67v25.39c0 1.2.27 3.65.99 5.21h-11.1c1.13-1.38 1.65-4 1.65-5.21V42.74c0-2.66-.55-6.77-2.21-8.1zm337.53 5.1v32.43c0 10.18 7.02 12.9 12.22 12.9 2.2.11 5.31-.4 7.49-.88l1.33-6.29a21.6 21.6 0 0 1-7.25 1.2c-3.26 0-5.61-2.16-5.61-5.55 0-3.04-.08-32.8 0-33.76h-.04c.44 0 7.2-.02 7.88 0 2.22.08 3.92.21 5.39.8v-5.92l-13.23-.01.05-15.18-9.84 2.71c1.36 1.27 1.8 4.99 1.8 7.44v5.08l-6.27.02v5h6.08zm-42.52 34.3c4.22 3.02 10.86 5.7 15.73 5.7 6.75 0 11.58-3.29 11.58-9.47 0-11.41-26.02-9.52-26.02-24 0-9.8 8.76-13.48 17.1-13.48 2.69 0 8.8.58 12.7 2.09l-.03 6.69c-3.46-2.96-8.74-3.67-12.21-3.67-5.53 0-9.67 2.74-9.67 8.1 0 7.9 26 7.44 26 23.63 0 10.47-9.07 15.35-19.06 15.35a53.2 53.2 0 0 1-14.16-2.07l-1.97-8.87zm-157.1-34.2l.03-6.58-10.81 1.68c1.3 1.36 2.3 5.62 2.3 8.66v35.42c0 1.2-.52 4.14-1.64 5.52h11.78c-1.11-1.38-1.63-4.32-1.63-5.52V52.37c0-9.75 6.03-13.16 12.03-13.16 5.44 0 10.35 2.35 10.35 13.16v26.65c0 1.2-.52 4.14-1.64 5.52h11.43c-1.13-1.38-1.64-4.31-1.64-5.52V52.37c0-10.8 6.68-13.16 12.12-13.16 5.43 0 11.12 3.4 11.12 13.16v26.65c0 1.2-.52 4.14-1.65 5.52h11.01c-1.13-1.38-1.64-4.31-1.64-5.52v-31.7c0-5.41-5.51-14.07-18.39-14.07-7.5 0-11.82 3.33-15.1 6.2-2.8-3.26-7.34-6.32-14.65-6.32-7.12 0-11.32 4.17-13.37 6.7zm-25.48 16.61c-1.54 1.46-4.77 2.58-8.1 3.02-8.77 1.15-16.36 2.6-16.36 11.14 0 5.06 5.52 9.05 9.9 9.05 11.57 0 14.56-8.36 14.56-14.94v-8.27zm-27.35-20.88c4.42-1.77 11.55-2.58 16.02-2.58 11.42 0 19 5.7 19 18.95V73.9c0 4.07.07 7.92 1.52 10.63h-9.18l-.33-5.78c-3.47 4.49-7.63 6.5-14.68 6.5-13.9 0-16.94-9.5-16.94-14.07 0-16.3 15.51-16.49 22.25-17.45 3.73-.53 8.52-1.58 9.24-5.08 1.19-5.78-2.94-10.1-11.38-10.1a29.7 29.7 0 0 0-15.52 4.41v-7.4zm197.3 20.88c-1.54 1.46-4.77 2.58-8.1 3.02-8.77 1.15-16.36 2.6-16.36 11.14 0 5.06 5.52 9.05 9.9 9.05 11.57 0 14.56-8.36 14.56-14.94v-8.27zm-27.35-20.88c4.42-1.77 11.56-2.58 16.03-2.58 11.41 0 19 5.7 19 18.95V73.9c0 4.07-.89 7.84 1.5 10.63h-9.17l-.33-5.78c-3.48 4.49-7.63 6.5-14.68 6.5-13.9 0-16.94-9.5-16.94-14.07 0-16.3 15.51-16.49 22.25-17.45 3.72-.53 8.52-1.58 9.24-5.08 1.19-5.78-2.94-10.1-11.39-10.1-6.2 0-11.27 1.88-15.51 4.41v-7.4zm-9.77 6.73c-3.44-2-8.88-3.6-12.67-3.6-13.31 0-19.41 8.19-19.41 19.98 0 11.68 5.96 20.62 18.98 20.62 4.46 0 10.54-2 15.25-4.9l-1.92 8.6a46.22 46.22 0 0 1-14.19 2.1c-18.3 0-26.87-12.97-26.87-26.48 0-14.92 11.5-25.41 27.07-25.41 6.8 0 11.77 1.67 13.78 2.24l-.02 6.86zm-204.8 17c0-1.23.17-2.4.3-3.55h35.4c0-12.16-6.08-22.6-20.5-22.6-14.96 0-23.85 11.7-23.85 26.63 0 13.5 9.9 25.56 26.83 25.56 5.36 0 9.84-1.32 14.67-3.02l1.7-8.63c-4.13 3.4-10.81 5.42-16.84 5.42-10.85 0-17.76-7.85-17.71-19.8zm1.43-8.94c1.15-5.92 6.62-11.96 13.18-11.96 10.02 0 12.92 7.82 12.92 11.96 0 0-26.1.02-26.1 0z" />
  <path
     id="path4"
     d="M65.06 1.29c3.97.6 8.02 1.98 10.14 2.63 4.26 1.3 11.18 5.35 13.62 7.29 1.16.92 3.58 3.32 4.53 4.53.92 1.18 2.67 3.74 3.78 5.31a92.09 92.09 0 0 1 5.65 10.03c1.98 3.97 2.12 5.13 2.72 8.45l1.31 5.86c.12 1.02.23 4.73-1.96 5.25a4.82 4.82 0 0 1-5.15-1.95c-1.31-2.04-1.13-4.93-2.62-8.24-1.16-2.67-1.66-6.56-3.52-9.35l-1.45-2.46c-2.58-3.96-5.26-7.1-6.85-9.15a33.28 33.28 0 0 0-6.54-5.73c-2.3-1.4-6.03-3-8.71-3.81a51.02 51.02 0 0 0-6.8-1.66c-3.1-.35-5.13-.84-8.07-1.05-3.63-.25-5.36-.58-10.07-.03-1.78.49-4.6.68-7.15 1.65a62.8 62.8 0 0 0-7.7 3.83A59.94 59.94 0 0 0 19.6 20.6c-3.05 3.26-4.58 5.01-6.69 9.15-.93 2.05-2.73 5.21-3.46 7.45-.5 2.27-1.44 6.5-1.29 8.55.08 3.68-.25 4.44.03 7.45.01 2.71.9 4.6 1.27 6.81.32 1.53 1.79 6.83 2.7 8.06 4.12 8.9 9.67 12.76 15.85 15.54 1.74.89 7.2 2.35 8.77 2.76 2.69.49 6.22.81 9.63.88 3.58.07 8.52-.42 11.52-1.52 3.24-1.2 7-2.9 6.95-2.84 1.5-.83 3.8-2.19 4.52-2.78 1.38-.89 2.21-1.23 3.03-2.08 1.18-1.04 1.9-1.63 2.8-2.91.5-.72 1.29-1.83 2.05-2.8.83-1.37 1.31-2.8 2.12-4.57.97-2.63.82-2.5 1-5.28.18-.8-.02-3.52-.16-3.98-.44-2.5-.28-4.7-.86-7.14-.77-3.28-1.41-5.74-2.4-8.9-.93-3.55-3.66-6.83-5.7-9.18-1.27-1.46-5.2-4.9-10.66-7.05a48.53 48.53 0 0 0-5.65-1.4c-3.4-.35-3.96-.12-7.23.12-1.12.2-3.73.73-4.69 1.06-2.8.99-3.83 1.62-6.7 3.37a17.68 17.68 0 0 0-3.7 2.65c-1.1 1-1.87 2.72-2.75 3.72a27.18 27.18 0 0 0-3.46 6.2 19.27 19.27 0 0 0-1.14 7.8c0 1.62.44 4.6.61 5.24.18.65.62 2.67.71 3.08.1.4 1.15 2.54 1.3 2.85a17.23 17.23 0 0 0 3.63 4.92 15.19 15.19 0 0 0 6.17 3.64c1.83 1 4.92 1.17 6.62 1.17.84-.05 2.99-.18 4.1-.45 2.28-.54 2.7-.56 5.03-1.57 2.1-.98 3.53-1.33 4.99-2.4 0 0 2-1.58 2.92-2.73.48-.6 1.3-3.5 1.16-5.3-.07-2.44.29-3.84-.21-5.85a21.35 21.35 0 0 0-2.28-5.8c-.94-1.46-2.96-2.89-5.26-4.02-1.28-.64-4.33-1.23-5.62-1.38a7 7 0 0 0-5.76 2.1c-1.08 1.24-3.22 3.8-2.36 6.46.77 2.4 1.7 4.96 5.3 4.77 2.47.51 5.33-.23 6.28.2 1.42.8 1.96 2.58 1.45 3.81-.36 2.39-2.65 2.67-5.08 2.86-2.18.36-7.72-.7-8.93-1.62-.82-.48-2.07-1.64-2.95-2.43a11.84 11.84 0 0 1-1.83-2.74c-.6-1.1-.9-1.93-1.06-2.65-.19-.86-.56-2.5-.42-4.15.1-1.1.4-1.58.69-3.2A15.64 15.64 0 0 1 37 39.7c1.53-1.55 3.48-3.4 5.38-4.27 1.67-.88 4.6-1.2 7.26-1.05 2.16.2 4.7.47 6.4 1.03 2.88 1.03 3.7 1.24 6.07 2.73 2 1.24 4.01 3.52 5.14 5.4a29.12 29.12 0 0 1 2.76 17.65 11.16 11.16 0 0 1-1.24 4.09 12.67 12.67 0 0 1-3.83 4.73c-.76.7-1.95 1.56-2.92 2.06-1.37.84-2.3 1.27-3.73 2a27.9 27.9 0 0 1-4.65 1.8c-2.07.82-3.67.85-6.28 1.24-2.57.64-9.6.18-13.8-1.66a26.3 26.3 0 0 1-8.5-5.9c-1.35-1.43-2.68-4-3.07-4.53-1.94-3.73-2.31-7.23-2.63-7.97-.42-1-.63-3.25-.91-4.78-.32-1.73-.12-8.94 1.61-13.58.99-1.84 1.56-3.49 2.22-4.35 1.2-1.7 1.77-2.75 2.78-3.96 1.53-1.85 2.64-3.36 4.13-4.43 3.8-3.08 6.96-4.7 11.25-6.74 5.32-2.17 6.92-1.72 11.96-1.64 2.27.02 5.57.73 7.19 1.03 3.01.4 4.74 1.12 6.77 1.69 2.18.6 3.44 1.58 5.23 2.66a35.5 35.5 0 0 1 4.34 3.3c2.93 2.15 4.34 4.4 6.13 7.18.33.46 2.46 5 2.8 6.26.16.64.64 2.45.95 3.51.4 1.69.59 3.18 1.03 5.08a87.1 87.1 0 0 1 1.37 9.11c.5 2.97-.3 9.02-.76 10.87a30.95 30.95 0 0 1-6.43 11.76 35.3 35.3 0 0 1-5 4.72c-1.43 1.19-2.66 1.89-4.87 3.2-3 1.79-5.27 2.93-9.47 4.57-1.71.55-3.87 1.28-6.2 1.76-4.49.4-9.11.8-14.16.2a78.38 78.38 0 0 1-13.09-2.94 67.98 67.98 0 0 1-6.18-2.68 37.2 37.2 0 0 1-4.29-2.92c-2-1.23-6.47-5.45-9.37-9.37-.63-1.22-2.9-4.86-3.4-6.45-1.32-2.7-2.23-5.96-2.77-7.35C1.66 59.5.7 57.42.33 54.16c.04-.77-.15-2.58-.33-3.58.25-2.24-.09-4.34.36-6.78.39-2.05.9-2.9 1.03-4.76.12-.8 1.14-3.18 1.41-4.25.83-1.75 1.03-3.19 2.1-5.14 1.56-3.05 3.18-6.56 5.67-9.62.71-.95 2.73-3.23 3.42-4.02 1.62-1.62 2.57-1.88 4.42-3.5.19-.13 1.4-1.52 2.68-2 2.11-1.62 3.94-2.22 5.95-3.7 4.03-2.02 5.5-2.7 9.5-4.36 2.31-.82 5.53-1.28 6.7-1.73 2.2-.14 4.44-.84 6.76-.7 2.61-.02 5.24.16 7.86.4 1.77.1 4.07.19 7.2.87z"
     fill="#CF3311" />
  <g
     style="font-style:normal;font-weight:normal;font-size:40px;line-height:1.25;font-family:sans-serif;fill:#ffffff;fill-opacity:1;stroke:none"
     id="text16"
     aria-label="VMU">
    <path
       id="path11"
       d="M 337.90201,0.73518562 327.31607,29.817217 h -5.15625 L 311.57388,0.73518562 h 4.14063 L 324.8356,26.321123 333.9567,0.73518562 Z" />
    <path
       id="path13"
       d="m 368.21451,29.817217 h -3.86719 V 4.7586231 L 356.26138,21.809404 H 353.9567 L 345.92935,4.7586231 V 29.817217 h -3.61328 V 0.73518562 h 5.27344 l 7.7539,16.19140638 7.5,-16.19140638 h 5.3711 z" />
    <path
       id="path15"
       d="m 397.9606,18.137529 q 0,3.164063 -0.70312,5.527344 -0.6836,2.34375 -2.26563,3.90625 -1.5039,1.484375 -3.51562,2.167969 -2.01172,0.683594 -4.6875,0.683594 -2.73438,0 -4.76563,-0.722657 -2.03125,-0.722656 -3.41797,-2.128906 -1.58203,-1.601562 -2.28515,-3.867187 -0.6836,-2.265625 -0.6836,-5.566407 V 0.73518562 h 3.86719 V 18.332842 q 0,2.363281 0.3125,3.730469 0.33203,1.367187 1.09375,2.480468 0.85938,1.269532 2.32422,1.914063 1.48437,0.644531 3.55469,0.644531 2.08984,0 3.55468,-0.625 1.46485,-0.644531 2.34375,-1.933594 0.76172,-1.113281 1.07422,-2.539062 0.33203,-1.445313 0.33203,-3.574219 V 0.73518562 h 3.86719 z" />
  </g>
</svg>
