<svg xmlns="http://www.w3.org/2000/svg" width="566.93" height="118.86">
  <path fill="#fff" d="M177.64 103.67c0-1.56 1.43-1.95 4.8-2.34 4.17-.4 4.43-2.21 4.43-8.19 0-14.04-.91-39.77-1.43-53.68-.13-1.95-.13-2.6-.65-2.6s-.65.78-1.17 1.95c-2.47 6.5-6.5 19.24-16.5 51.21-3.65 12.09-3.26 14.56-5.73 14.56-1.56 0-1.95-1.04-3.25-6.5-4.29-16.12-14.3-49-17.54-59.14-.4-1.17-.65-1.82-1.3-1.82-.52 0-.52 1.04-.78 2.86a753.81 753.81 0 0 0-1.69 44.45c0 8.58-.13 16.25 4.29 16.9 2.34.39 5.72.52 5.72 2.34 0 1.04-.78 1.82-2.6 1.82-2.6 0-4.68-.52-9.62-.52-4.55 0-7.15.52-8.97.52-1.3 0-2.08-.26-2.08-1.82 0-1.95 1.95-1.7 4.16-2.21 3.77-.78 4.29-3.77 4.68-10.14.78-13.9 2.2-44.32 2.2-55.1.14-7.02 0-8.32-4.41-8.97-2.2-.26-4.29-.52-4.29-2.08 0-1.82 1.69-1.95 3.51-1.95 2.73 0 6.37.39 9.23.39 2.2 0 5.59-.4 7.67-.4 1.43 0 1.95.4 2.6 2.35 4.8 15.85 9.62 31.7 14.3 47.43 1.03 3.78 1.82 6.76 2.73 6.76.77 0 1.42-1.81 2.6-5.59 4.93-15.85 9.87-31.7 14.81-47.44.78-2.46 1.56-3.5 2.99-3.5 1.95 0 5.2.38 7.67.38 2.6 0 6.36-.39 9.1-.38 1.43 0 2.72.51 2.72 1.81 0 1.7-1.68 2.09-5.46 2.34-2.33.26-2.98 1.95-2.98 7.8 0 12.87 1.56 43.28 1.95 59.27 0 4.8 1.16 6.63 3.77 6.89 3.25.78 4.67 1.04 4.67 2.47 0 1.43-1.16 1.69-2.98 1.69-2.73 0-5.85-.52-11.83-.52-5.2 0-9.49.52-12.35.52-1.69 0-2.99-.52-2.99-1.7v-.12zM239.63 57.01c0-6.1-1.43-8.58-5.46-8.58-6.23 0-9.1 4.68-11.17 11.05-.91 2.73-2.47 4.94-4.42 6.24a8.99 8.99 0 0 1-5.2 1.82c-2.47 0-3.38-1.05-3.38-3.38 0-7.54 11.18-19.37 27.3-19.37 4.8 0 8.57.65 10.78 2.6 2.21 1.7 2.73 4.16 2.73 8.2v37.16c0 3.25 1.04 5.59 3.64 5.59a4.25 4.25 0 0 0 3.9-2.34c.52-1.17 1.04-2.47 1.81-2.47.78 0 1.05.65 1.05 2.21 0 2.86-4.42 10.53-11.96 10.53-5.46 0-7.02-4.42-8.06-7.02-.4-1.04-.78-1.82-1.43-1.82-1.04 0-3.12 2.47-6.37 4.8a19.51 19.51 0 0 1-12.22 4.43c-6.1 0-10.91-4.16-10.91-11.7 0-6.89 4.8-11.57 15.33-18.06 4.16-2.73 7.28-4.55 9.62-6.11 3.5-2.08 4.42-3.25 4.42-6.24v-7.54zm-17.68 35.61c0 4.81 2.74 7.28 6.5 7.28 2.86 0 5.6-1.7 8.06-4.16 2.34-2.34 3.12-4.16 3.12-7.4V75.06c0-1.56-.26-1.94-.9-1.94-.65 0-1.3.26-3 1.3a49.76 49.76 0 0 0-7.53 6.1c-3.64 3.38-6.24 7.28-6.24 11.96v.13zM259.78 77.67c0-18.97 12.34-32.88 28.07-32.88 3.51 0 8.19.65 11.18 2.47 2.73 1.56 2.99 2.08 3.12 5.2v4.68c0 1.17-.13 3.12-.4 4.29-.26 2.34-1.17 3.12-2.85 3.12-2.34 0-3-3.38-5.46-8.84-1.82-4.29-3.51-6.5-7.28-6.5C278.62 49.21 272 59.1 272 73c0 18.45 7.03 26.64 15.73 26.64 4.68 0 8.19-1.95 10.79-5.72 1.56-2.34 2.6-5.59 3.64-5.59.78 0 1.3.78 1.3 1.82 0 6.11-6.5 16.5-19.62 16.5-14.43 0-24.05-11.82-24.05-28.84v-.14zM312.41 60.78c0-4.16-.9-5.2-4.94-5.85-1.56-.26-2.2-.65-2.2-1.56 0-1.17 1.17-1.69 4.16-2.6a47.24 47.24 0 0 0 10.52-4.68c1.3-.78 2.08-1.3 2.6-1.3.78 0 1.04.52 1.04 1.95V94.7c0 4.42-.04 6.64 1.64 7.15 2.3.7 3.25.78 3.25 2.08 0 1.17-.52 1.56-2.08 1.56-2.73 0-2.68-.52-8.4-.52-6.24 0-6.05.52-8.52.52-1.04 0-1.95-.52-1.95-1.56 0-1.3.9-1.7 2.6-2.08 2.07-.47 2.29-1.56 2.29-6.76V60.78zm5.6-24.18c-3.39 0-6.5-2.73-6.5-7.66 0-4.81 2.85-7.8 6.62-7.8 3.64 0 6.5 2.86 6.5 7.67 0 5.06-2.86 7.8-6.5 7.8H318zM338.93 60.78c0-4.42-.53-4.94-3.77-5.33-2.34-.26-3.12-.4-3.12-1.43 0-1.3 1.3-1.56 4.03-2.47 4.67-1.69 8.32-3.77 10.26-5.33 1.17-.9 1.82-1.43 2.48-1.43.77 0 1.04 1.04 1.04 2.21v5.2c0 1.82.13 2.2.52 2.2 1.17 0 3.25-2.2 6.1-4.4 3-2.22 7.02-4.56 11.83-4.56 4.42 0 8.58 1.43 11.56 4.55 2.73 2.86 4.3 7.02 4.3 12.48V95.6c0 4.55 1.15 5.98 4.14 6.37 0 0 1.92.65 1.92 1.95 0 1.17-.9 1.56-2.34 1.56-1.56 0-3.33-.52-9.44-.52-5.85 0-6.48.52-8.55.52-1.44 0-2.08-.4-2.08-1.7 0-.9.93-1.34 2.2-1.68 1.2-.31 2.97-1.69 2.97-5.33V63.77c0-3.12-.65-5.85-2.21-7.93a9.57 9.57 0 0 0-7.8-3.64c-3.38 0-6.63 1.3-9.1 3.51-2.34 2.2-3.64 4.8-3.64 7.93v33.14c0 3.38.63 4.78 3.77 5.33.55.1 1.15.37 1.15 1.54 0 1.3-.9 1.69-1.95 1.69-1.56 0-1.15-.38-8.81-.38-6.63 0-6.74.53-8.82.53-1.56 0-2.47-.52-2.47-1.7s1.05-1.78 2.34-1.94c2.82-.36 3.49-2.08 3.49-7.28v-33.8zM407.78 92.36c0 5.07 1.43 7.28 4.55 7.28 2.47 0 4.03-1.7 5.07-3.25 1.17-1.56 1.95-3.12 2.99-3.12.78 0 1.3.39 1.3 1.3 0 1.95-3.51 12.09-13.65 12.09-3.77 0-6.63-1.04-8.57-3.12-2.08-2.34-2.86-5.46-2.86-10.4V53.11c0-1.43-.65-1.95-1.56-2.08-.91-.13-2.08-.13-3.12-.13-1.17 0-2.21-.13-2.21-1.56 0-.91.78-1.82 2.47-3.38 4.03-3.12 7.4-6.63 11.83-14.43 1.17-2.2 1.56-2.99 2.47-2.99.9 0 1.3.52 1.3 2.73v12.35c0 1.95.64 2.73 2.6 2.73h7.02c2.2 0 2.73.52 2.73 2.34 0 2.08-.53 2.73-3 2.73-2.2 0-4.54-.13-6.75-.13-2.08 0-2.6.52-2.6 2.86v38.21z"/>
  <path fill="#fff" d="M446.13 106.66c-15.08 0-25.48-14.04-25.48-30.94 0-16.63 10-30.93 25.6-30.93 15.86 0 25.6 14.43 25.6 30.8 0 17.03-10.4 31.07-25.6 31.07h-.13zm.51-3.64c8.97 0 13.13-13.65 13.13-26 0-14.42-4.55-28.59-13.78-28.59-8.96 0-13.25 13-13.25 26 0 14.42 4.68 28.59 13.77 28.59h.13zM472.89 61.3c0-10.92 9.48-16.5 20.66-16.5 4.16 0 8.84.77 11.31 2.07.65.4.91 1.3 1.04 3.12.13 1.17.13 2.6.13 4.55v3.38c-.13 2.08-.39 3.25-1.56 3.25-1.69 0-1.95-2.47-4.03-6.89-1.56-3.38-3.77-5.98-7.93-5.98-5.06 0-9.1 3.51-9.1 8.32 0 6.24 6.24 9.23 12.74 13 6.37 3.76 13 8.31 13 17.67 0 12.6-10.14 19.37-22.36 19.37-3.9 0-7.67-.65-10.27-1.56-.9-.26-1.81-.52-2.47-1.04-.64-.4-1.17-1.04-1.3-3.64-.13-1.82-.13-4.3-.13-7.67 0-5.2.4-6.63 1.7-6.63 1.81 0 1.94 2.08 3.89 7.54 1.95 5.07 4.94 9.36 10.27 9.36 5.85 0 10-3.9 10-9.75 0-7.67-6.1-11.05-12.08-14.7-6.5-3.63-13.52-7.79-13.52-17.15v-.13z"/>
  <path fill="#fff" d="M514.16 27.77c0-3.77-.52-4.68-4.03-5.07-2.2-.52-2.98-.65-2.98-1.82 0-1.3.9-1.43 3.64-2.21 5.2-1.56 8.45-2.73 10.52-3.9 1.7-.78 2.47-1.17 3.26-1.17.77 0 .9.52.9 2.34v36.91c0 .78.26 1.17.78 1.17s1.17-.4 1.69-.91c3.25-2.99 8.31-7.67 15.85-7.67 9.75 0 15.47 6.63 15.73 16.9V95.6c0 4.42 1.17 6.1 4.3 6.5 2.07.26 3.1.65 3.1 1.82s-.9 1.56-1.94 1.56c-1.17 0-5.07-.52-10.78-.52-6.24 0-8.58.52-10.4.52-1.43 0-2.21-.52-2.21-1.7s.9-1.42 2.34-1.68c3.25-.52 4.29-1.69 4.29-5.33V63.77c0-3.25-.52-6.1-2.08-8.06-1.82-2.47-4.55-3.64-8.06-3.64-3.38 0-6.63 1.3-9.1 3.5a10.54 10.54 0 0 0-3.51 8.07v32.75c0 3.38 1.17 5.07 5.07 5.72 1.95.4 2.47.65 2.47 1.82s-.91 1.56-1.95 1.56c-1.56 0-3.51-.52-11.44-.52-6.37 0-8.45.52-10.66.52-1.17 0-2.08-.4-2.08-1.69 0-1.17 1.18-1.82 2.47-1.95 4.16-.39 4.81-1.95 4.81-7.28v-66.8z"/>
  <path fill="green" d="M66.34 21.2C70.77 16.32 73.08 9.5 73.4.32L73.4 0l-.32.07C57.53 3.25 49.5 13 49.2 29.04v.31l.3-.05c7.41-1.16 12.92-3.81 16.83-8.1z"/>
  <path fill="#00F" d="M12.82 103.7l.29.41a90.75 90.75 0 0 0 8.76 10.73c2.47 2.6 6.4 4.02 11.08 4.02 3.42 0 6.97-.8 9.26-2.1 4.74-2.68 7.26-2.69 9.09-2.69.37 0 .71 0 1.04-.02l.3-.02c.4-.02.81-.05 1.27-.05 1.63 0 4.06.32 8.47 2.81a23.09 23.09 0 0 0 8.88 1.94c7.66 0 14.38-4.78 20.53-14.63l.25-.4H12.82z"/>
  <path fill="green" d="M92.95 42.27a50.75 50.75 0 0 1 3.31-3.02l.2-.16-.17-.2a29.17 29.17 0 0 0-22.85-11.1h-.42c-4.65 0-8.76.87-11.9 2.51a25.24 25.24 0 0 1-7.1 2.62c-.05 0-.39.02-1.3.02-1.1 0-2.06-.02-2.17-.03l-.08-.01c-1.3-.17-4.62-.72-7.3-2.15a25.14 25.14 0 0 0-11.78-2.98h-.27c-10.7.12-19.65 5.34-25.21 14.5h87.04z"/>
  <path fill="#FF0" d="M83.97 57.49c1.06-5.1 3.9-10.04 8.53-14.77l.44-.45H5.91l-.08.13A41 41 0 0 0 .56 57.49h83.41z"/>
  <path fill="#F60" d="M86.01 72.52a23.13 23.13 0 0 1-2.09-14.72l.06-.31H.57l-.03.22a54 54 0 0 0-.06 14.81h85.53z"/>
  <path fill="red" d="M4.58 88.3H99.9l.56-1.22-.23-.11a32.82 32.82 0 0 1-14.16-14.3l-.07-.15H.48l.04.3a66.67 66.67 0 0 0 4.06 15.47z"/>
  <path fill="purple" d="M12.83 103.7h79.2c3.02-4.9 5.51-10.3 7.7-15.04l.18-.37H4.59l.15.36a77.87 77.87 0 0 0 8.09 15.05z"/>
</svg>
