<svg xmlns="http://www.w3.org/2000/svg" viewBox="0 0 285.75 95.25" height="360" width="1080">
  <g fill="#fff">
    <path d="M142.87 36.12A20.58 20.58 0 0 0 122.3 56.7a20.58 20.58 0 0 0 20.57 20.58 20.58 20.58 0 0 0 20.58-20.58 20.58 20.58 0 0 0-20.58-20.58zm0 6.95a13.63 13.63 0 0 1 13.64 13.63 13.63 13.63 0 0 1-13.64 13.63 13.63 13.63 0 0 1-13.63-13.63 13.63 13.63 0 0 1 13.63-13.63zM176.85 48.17l-2.54-2.92-1.12-11.67a599.2 599.2 0 0 1-1.14-12.65c-.01-.93.07-1.02 1.75-1.97l1.77-.99 1.06 1.06 1.06 1.06 1.77 14.87c1.75 14.7 1.77 14.88 1.25 15.28-1.24.97-1.22.99-3.86-2.07zM108.9 48.17l2.54-2.92 1.12-11.67a599.2 599.2 0 0 0 1.14-12.65c.01-.93-.07-1.02-1.75-1.97l-1.77-.99-1.06 1.06-1.06 1.06-1.77 14.87c-1.75 14.7-1.77 14.88-1.25 15.28 1.24.97 1.22.99 3.86-2.07z"/>
    <circle r="10.21" cy="56.7" cx="142.88"/>
  </g>
</svg>
