<svg xmlns="http://www.w3.org/2000/svg" width="566.93" height="72.71">
  <g fill="#fff">
    <path d="M122.88 3.13c2.8-3.58 8.6-4.2 12.05-1.19a9.36 9.36 0 0 1 2.9 4.58c6.36 21.92 12.76 43.82 19.12 65.74h-11.28c-1.77-6.04-3.5-12.1-5.25-18.14-7.27-.02-14.53 0-21.8-.01-1.78 6.04-3.54 12.1-5.29 18.15h-11.21c6.05-20.91 12.1-41.82 18.19-62.72.72-2.18 1-4.62 2.57-6.4m6.63 13.42c-2.66 9.08-5.27 18.18-7.92 27.26 5.28.02 10.56.01 15.84.01l-7.92-27.27zM202.06 3.6a8.61 8.61 0 0 1 9.08-3.34c3.05.7 5.39 3.33 6.2 6.3l19.1 65.69c-3.76.02-7.52 0-11.29.01-1.75-6.05-3.48-12.1-5.24-18.15h-21.77c-1.73 6.06-3.52 12.1-5.25 18.15h-11.2c6.04-21.02 12.16-42.02 18.26-63.02.63-1.9.88-4 2.11-5.64m-.91 40.23h15.77c-2.61-9.1-5.27-18.2-7.88-27.3-2.63 9.1-5.28 18.2-7.9 27.3zM148.53.15h40.8v11H174.3v61.1h-10.76v-61.1h-15.02v-11zM248.4.6a9.21 9.21 0 0 1 3.22-.45h12.87a19.94 19.94 0 0 1 17.23 11.11c2.16 4.22 2.39 9.13 1.84 13.76-.37 4.85-2.4 9.7-6.13 12.9-1.97 1.76-4.42 2.82-6.53 4.38-1.15.88-1.21 2.6-.61 3.82 5.69 8.78 11.6 17.43 17.41 26.14-4.25 0-8.5-.01-12.74 0-5.57-8.35-11.07-16.75-16.6-25.11a9.3 9.3 0 0 1-1.1-8.25 7.8 7.8 0 0 1 4.6-4.4c3.88-1.48 7.7-3.8 9.84-7.45 1.63-2.75 1.55-6.14.82-9.15a8.9 8.9 0 0 0-8.69-6.83c-2.77.02-5.55-.02-8.33.01-1.25-.03-2.43 1.06-2.42 2.33v58.85h-10.84V8.9A9.04 9.04 0 0 1 248.4.6zM293.38.15h11.4v72.11h-11.4V.16zM32.15 0h5.48v12.88c.03 3.59-.08 7.17-.22 10.75a130.6 130.6 0 0 1-1.43 15.46 39.32 39.32 0 0 1-3.32 10.15c-2.47 5.2-6.34 9.6-10.7 13.3a40.06 40.06 0 0 1-13.44 7.62A46.07 46.07 0 0 1 0 72.26v-10.8c3.5-.53 6.85-1.77 9.97-3.41a35.98 35.98 0 0 0 9.83-7.69c2.9-3.2 5.2-6.9 6.95-10.84 2.06-4.53 3.17-9.42 3.92-14.32.94-6.22 1.33-12.51 1.48-18.8.02-2.13 0-4.27 0-6.4zM39.84.01c3.36-.02 6.72 0 10.08 0v72.25c-3.35 0-6.7-.02-10.06 0-.04-7.67 0-15.35-.02-23.03V0zM52.17 0h5.44c-.05 7.35.2 14.7 1.07 22 .72 5.67 1.73 11.38 3.98 16.65a40.41 40.41 0 0 0 9.25 13.69 35.42 35.42 0 0 0 13.54 8.1c1.4.44 2.85.8 4.32 1.01v10.8a45.61 45.61 0 0 1-17.8-6.57c-2.13-1.37-4.06-3-5.9-4.7a40.27 40.27 0 0 1-7.86-9.65 42.28 42.28 0 0 1-3.7-8.99A60.12 60.12 0 0 1 53 32.76c-.63-6.95-.87-13.93-.83-20.9V0z"/>
    <path d="M32.15 0c0 2.14.02 4.27 0 6.4-.15 6.29-.54 12.58-1.48 18.8-.75 4.9-1.86 9.79-3.92 14.32a40.96 40.96 0 0 1-6.95 10.84 35.97 35.97 0 0 1-9.83 7.7A31.6 31.6 0 0 1 0 61.45v10.8c2.9-.4 5.75-1.15 8.52-2.1a40.07 40.07 0 0 0 13.44-7.62c4.36-3.7 8.23-8.1 10.7-13.3a39.36 39.36 0 0 0 3.32-10.14c.86-5.12 1.18-10.3 1.43-15.47.14-3.58.25-7.16.23-10.74V0h-5.49M39.84.01v49.22c.02 7.68-.02 15.36.02 23.04 3.36-.03 6.71 0 10.06-.01V0C46.56 0 43.2 0 39.84.01M52.17 0v11.85c-.05 6.97.19 13.96.82 20.9.33 3.22.69 6.46 1.53 9.58.92 3.12 2.09 6.17 3.7 9a40.25 40.25 0 0 0 7.84 9.64 43.9 43.9 0 0 0 5.91 4.7c2.9 1.9 6.07 3.37 9.35 4.5 2.75.94 5.57 1.69 8.45 2.08v-10.8c-1.47-.22-2.9-.57-4.32-1.02a35.42 35.42 0 0 1-13.54-8.1 40.36 40.36 0 0 1-9.24-13.68c-2.26-5.28-3.27-10.99-3.99-16.66-.87-7.3-1.12-14.65-1.06-21.99h-5.45M437.87 34.49c5.29-3.11 8.58-8.38 8.58-14.23 0-13.82-14.6-20.1-28.15-20.1-13.56 0-28.14 6.29-28.14 20.1 0 5.85 3.29 11.12 8.57 14.23-7.51 3.48-11.71 9.4-11.71 16.78 0 13.91 15.73 21.2 31.28 21.2s31.28-7.29 31.28-21.2c0-7.38-4.2-13.3-11.7-16.78zm-19.57-8.76c-3.45 0-6.27-2.23-6.27-4.97 0-2.75 2.82-4.98 6.27-4.98 3.46 0 6.27 2.23 6.27 4.98 0 2.74-2.8 4.97-6.27 4.97zm0 17.73c3.85 0 6.98 2.56 6.98 5.72 0 3.07-3.13 5.57-6.98 5.57-3.85 0-6.98-2.5-6.98-5.56 0-3.17 3.13-5.73 6.98-5.73z"/>
    <path d="M498.23 11.92C492.46 4.22 483.98.15 473.7.15s-18.75 4.07-24.52 11.77c-4.86 6.48-7.53 15.18-7.53 24.51 0 18.06 9.9 36.28 32.06 36.28s32.06-18.22 32.06-36.28c0-9.33-2.68-18.03-7.54-24.5zM473.7 51.23c-7.72 0-8.56-10.04-8.56-14.88 0-4.8.85-14.72 8.56-14.72 7.73 0 8.57 9.92 8.57 14.72 0 4.84-.84 14.88-8.57 14.88z"/>
    <path d="M559.4 11.92C553.62 4.22 545.14.15 534.87.15c-10.27 0-18.76 4.07-24.53 11.77-4.85 6.48-7.53 15.18-7.53 24.51 0 18.06 9.91 36.28 32.06 36.28 22.15 0 32.06-18.22 32.06-36.28 0-9.33-2.68-18.03-7.53-24.5zm-24.53 39.31c-7.72 0-8.57-10.04-8.57-14.88 0-4.8.85-14.72 8.57-14.72s8.56 9.92 8.56 14.72c0 4.84-.84 14.88-8.56 14.88zM336.52 1.17v22.01h30.14l-22.49 49.2h25.47l30.24-71.21z"/>
  </g>
</svg>
