<svg xmlns="http://www.w3.org/2000/svg" width="566.931" height="154.093" viewBox="-.003 -.001 566.931 154.093" enable-background="new -.003 -.001 566.931 154.093"><defs><filter height="1.371" width="1.177" y="-.185" x="-.089" id="a" color-interpolation-filters="sRGB"><feGaussianBlur stdDeviation=".757"/></filter></defs><path d="M434.007 150.117c-.957-.565-3.282-2.518-5.166-4.344-4.1-3.973-5.397-4.413-7.702-2.605-1.434 1.124-1.662 1.657-1.544 3.601.076 1.255-.08 2.282-.34 2.282-1.023 0-4.122-3.73-5.503-6.626-2.82-5.916-3.281-11.566-1.085-13.332.613-.495 2.244-.704 4.856-.627 5.533.161 8.408 1.821 14.807 8.547 5.336 5.607 6.13 6.026 9.245 4.879 2.046-.754 2.24-2.355.967-8.026-1.232-5.493-2.413-8.577-3.671-9.588-.68-.548-1.037-.34-1.988 1.148-.636.998-1.93 2.53-2.872 3.403l-1.715 1.59-5.858-3.508c-3.222-1.93-7.88-4.299-10.352-5.265-2.47-.965-4.72-1.976-5-2.246-.733-.71-.681-2.428.289-9.553 1.177-8.678 1.204-31.93.057-35.063-.45-1.214-.825-2.384-.83-2.6-.057-.631 2.677-2.964 9.957-8.634 6.352-4.945 13.547-11.45 15.779-14.262 1.524-1.92 3.115-1.062 5.054 2.724 2.475 4.835 5.26 8.403 11.51 14.743 3.056 3.1 5.556 6.085 5.556 6.632 0 .547-.68 1.427-1.513 1.955l-1.513.961.386 11.665c.213 6.415.628 14.149.922 17.186.867 8.945.712 19.506-.334 22.952-3.233 10.624-11.47 20.584-18.6 22.491-1.661.444-2.358.358-3.777-.478zm4.77-56.006c0-19.672-.057-19.905-1.321-22.477-1.276-2.51-4.663-5.96-5.85-5.96-.318 0-1.002.932-1.518 2.07-.797 1.76-.97 4.98-1.155 21.397l-.219 19.325 1.49 1.929c1.846 2.391 4.612 3.89 6.861 3.722l1.71-.133zM122.954 136.05c-.692-.467-2.082-2.022-3.09-3.45-2.681-3.802-8.834-9.653-12.432-11.823-5.038-3.04-13.167-5.377-16.163-4.648-3.27.795-4.49 3.75-3.262 7.9.643 2.174-.283 2.698-2.391 1.356-4.768-3.03-10.093-13.442-10.094-19.735 0-5.432.734-6.737 4.791-8.52 6.57-2.886 11.6-3.262 22.222-1.66 4.769.719 5.645.49 7.148-1.867 2.143-3.362 1.817-3.784-4.958-6.396-18.425-7.104-30.098-16.16-32.842-25.483-1.263-4.292-1.162-6.042.6-10.312 3.684-8.926 10.777-18.737 30.805-42.61l3.937-4.694 3.77-.167c3.073-.132 4.86.19 9.648 1.74 3.233 1.045 7.036 2.388 8.451 2.985 8.32 3.51 15.902 4.944 18.635 3.527.671-.346 4.81-6.109 5.479-7.02 1.67-2.273 4.264-2.832 6.56-.3 4.147 6.297-5.037 27.287-12.15 37.033-1.776 2.333-1.818 3.575-.156 4.7 11.213 7.6 14.437 10.009 18.105 13.526 2.383 2.285 5.417 5.924 6.739 8.085 3.29 5.378 3.917 8.89 3.018 16.929-1.246 11.15-4.01 18.178-8.745 22.226-13.396 11.457-31.65 24.797-38.476 28.12-3.39 1.65-3.512 1.662-5.149.553zm26.224-23.746c2.37-1.685 4.458-3.44 4.64-3.9.431-1.096-1.086-3.89-2.99-5.497-.833-.703-3.058-2.013-4.944-2.91-3.27-1.555-5.909-2.392-18.718-5.934l-5.623-1.554-2.212 2.297c-2.259 2.347-2.835 4.471-1.5 5.534.392.312 2.07.996 3.73 1.52 4.42 1.395 14.941 8.377 18.581 12.33 1.876 2.037 4.203 1.552 9.036-1.886zM164.64 93.23c.889-5.386-1.44-10.117-8.133-16.527-5.556-5.321-12.328-9.536-16.922-10.533-3.71-.804-4.386-.56-6.203 2.228-2.05 3.147-1.908 4.59.565 5.733 1.107.513 2.486.931 3.064.931 2.303 0 13.33 5.173 17.435 8.179 2.212 1.62 3.422 3.172 5.581 7.16 1.516 2.8 3.09 5.09 3.498 5.09.427 0 .9-.958 1.115-2.26zm-42.678-23.56c1.7-1.208 4.273-4.76 4.273-5.897 0-1.716-3.592-3.44-9.249-4.44-5.497-.971-8.386-1.908-13.707-4.441-5.497-2.619-13.377-8.673-14.86-11.416-1.476-2.733-2.901-2.083-3.416 1.557-.485 3.412.986 5.871 6.587 11.026 3.72 3.423 12.502 9.064 14.113 9.064.334 0 1.049.236 1.594.524 3.145 1.67 10.627 4.088 13.524 4.372.312.057.827-.127 1.141-.352zm15.51-27.876c1.643-1.732 3.578-5.415 3.578-6.812 0-1.1-.375-1.188-6.41-1.505-7.472-.392-8.896-.783-19.442-5.325-9.358-4.03-12.44-4.592-15.416-2.81-3.628 2.172-3.47 5.545.363 7.827 4.322 2.571 12.909 5.043 28.568 8.221 2.775.565 5.19 1.165 5.366 1.336.7.678 2.272.248 3.39-.932zm195.36 90.929c-.468-.45-2.993-3.485-5.614-6.74-8.925-11.085-10.078-13.325-7.863-15.267 1.166-1.022 1.186-1.431 1.186-25.285 0-15.657-.208-24.624-.59-25.314-.381-.687-1.193-1.068-2.28-1.068-3.44 0-2.15-2.154 9.984-16.645 2.198-2.625 4.741-5.824 5.65-7.108l1.655-2.334.989 1.27c1.262 1.621 1.685 4.693 1.685 12.214 0 6.65.07 6.784 4.56 9.486 2.852 1.715 4 4.398 4.392 10.272.392 5.877.07 6.112-4.493 3.274-4.662-2.9-4.524-3.543-4.335 20.072l.161 20.395 1.599 1.332c.879.732 2.225 1.332 2.991 1.332.862 0 1.393.317 1.393.833 0 .731-2.222 5.766-7.237 16.395-1.626 3.448-2.542 4.138-3.834 2.886zm-137.41-1.755c-.883-1.139-1.753-2.194-1.936-2.346-.755-.63-7.865-9.812-8.983-11.602-2.406-3.85-2.567-4.852-.993-6.178l1.415-1.193v-23.23c0-14.398-.23-24.016-.597-25.3-.541-1.881-.772-2.07-2.56-2.07-1.083 0-1.968-.156-1.968-.346 0-1.134 4.137-6.926 9.235-12.93 3.234-3.81 6.759-8.252 7.832-9.873l1.952-2.947 1.317 1.484c1.248 1.406 1.317 1.913 1.317 9.639 0 9.12-.12 8.818 4.774 11.66 2.85 1.654 4.104 4.476 4.604 10.357.479 5.633-.075 6.068-4.404 3.46-4.887-2.944-4.688-3.752-4.688 19.154 0 15.866.161 20.16.788 21.299.71 1.286 1.651 1.84 4.765 2.81.936.288.925.496-.173 3.35-.645 1.671-2.139 4.971-3.32 7.333-1.18 2.362-2.638 5.474-3.24 6.916-1.39 3.328-2.857 3.486-5.129.553zm341.083-1.19c-4.084-4.12-6.616-4.984-9.84-3.355-1.193.602-2.407 1.094-2.698 1.094-.852 0-2.922-2.336-3.776-4.262-.769-1.734-.664-2.017 4.241-11.596 2.767-5.4 5.18-10.384 5.365-11.077.438-1.64-.999-2.558-5.842-3.738-5.33-1.3-5.387-1.394-4.174-6.927 1.1-5.02 1.462-19.728.565-22.927-.565-2.006-.513-2.064 4.757-5.313 4.428-2.73 11.407-9.373 12.478-11.878 1.002-2.344 1.858-2.262 4.021.38 1.248 1.528 2.736 2.525 4.988 3.342 3.89 1.41 5.946 1.28 6.718-.427.896-1.98 2.1-1.225 4.141 2.597 1.461 2.736 1.806 3.926 1.515 5.24-.282 1.283-6.38 14.189-8.038 17.016-.132.225.609.905 1.642 1.516 1.426.843 2.878 1.112 6.012 1.113h4.13l-.057 1.794c-.057.987-.392 2.277-.855 2.867-.636.815-.837 2.792-.837 8.245 0 3.945-.288 9.38-.648 12.076-.485 3.666-.485 5.061 0 5.531 1.937 1.877-.363 5.148-6.717 9.557-2.649 1.838-6.151 5.016-8.541 7.75-2.228 2.55-4.346 4.635-4.704 4.635-.358 0-2.107-1.467-3.884-3.261zm7.73-18.017c.635-1.47.803-3.805.684-9.465-.132-6.452-.3-7.6-1.156-8.123-.7-.426-1.278-.438-1.942-.057-.88.536-4.202 6.167-4.94 8.375-.18.536-1.238 2.596-2.348 4.57-1.11 1.974-2.02 4.137-2.021 4.807 0 1.127.305 1.232 4.129 1.409 2.272.104 4.72.236 5.442.3 1.01.086 1.504-.34 2.152-1.843zm-3.622-29.66c1.548-1.169 6.711-10.492 6.711-12.118 0-1.359-.438-1.728-3.781-3.198-3.877-1.703-5.075-1.974-5.526-1.248-.138.225-.438 3.785-.666 7.906-.363 6.619-.3 7.6.547 8.42 1.147 1.111 1.516 1.144 2.713.237zm-265.3 47.334c-1.742-1.374-3.369-2.841-3.614-3.259-.248-.42-1.804-2.17-3.461-3.891-3.825-3.972-4.108-5.32-4.113-19.552 0-5.957-.27-11.753-.59-12.88-.387-1.36-1.444-2.73-3.13-4.07-2.534-2.012-3.448-4.442-1.832-4.871.392-.104 2.122-.502 3.847-.883 6.162-1.364 6.473-2.612 1.052-4.225-2.532-.753-3.632-1.399-4.217-2.48-.723-1.334-.646-1.743.893-4.693 4.452-8.543 17.464-22.282 21.1-22.282 2.151 0 7.687 3.773 12.227 8.332 4.174 4.192 9.776 8.104 12.32 8.602 2.126.415 4.18 4.07 3.619 6.434-.23.966-.599 9.831-.82 19.7-.219 9.871-.602 18.506-.847 19.189-.386 1.073-.254 1.242.985 1.242 3.457 0 2.182 3.348-4.629 12.147-5.099 6.59-7.67 9.138-8.635 8.559-.363-.22-1.548-1.737-2.628-3.374-1.135-1.718-2.379-2.973-2.945-2.97-.536 0-3.13 1.742-5.76 3.865s-4.979 3.86-5.219 3.86c-.242 0-1.862-1.125-3.604-2.5zm13.544-14.806l1.768-2.12.167-17.431c.092-9.587-.057-17.638-.311-17.892-.657-.636-7.76 2.098-9.056 3.486-.95 1.016-1.076 2.39-1.248 13.626-.248 15.92-.057 17.525 2.574 20.487 2.47 2.798 3.67 2.766 6.106-.156zm-6.702-43.673c3.143-1.444 5.336-2.781 5.336-3.256-2.157-4.407-11.165-8.385-14.8-5.901-2.171 1.498-2.623 3.224-1.706 6.522.877 3.162 2.553 5.084 4.431 5.084.771 0 3.804-1.102 6.739-2.45zm87.95 59.608c-1.094-.755-4.142-3.635-6.774-6.4-3.783-3.975-4.881-5.51-5.245-7.326-.253-1.263-.473-7.266-.484-13.34-.057-6.073-.294-11.972-.62-13.107-.363-1.265-1.7-3.12-3.455-4.795-2.502-2.386-2.784-2.877-2.235-3.872.346-.628 1.159-1.14 1.804-1.14.646 0 2.56-.392 4.254-.868 4.375-1.233 4.237-2.543-.41-3.892-2.251-.653-3.798-1.468-4.357-2.296-.796-1.177-.755-1.516.501-4.138 2.723-5.693 12.703-17.62 17.745-21.207 2.28-1.622 3.073-1.901 4.572-1.61 2.692.524 5.795 2.75 11.655 8.37 4.828 4.631 10.662 8.524 12.775 8.524 1.255 0 3.56 4.715 3.028 6.196-.248.692-.636 9.333-.862 19.203-.225 9.87-.593 18.608-.816 19.418-.346 1.264-.213 1.499.933 1.657 2.496.345 2.06 2.74-1.416 7.794-3.977 5.783-10.523 13.222-11.392 12.947-.363-.115-1.64-1.559-2.829-3.206-1.189-1.648-2.534-3.076-2.988-3.173-.951-.208-2.893 1.06-7.524 4.901-1.805 1.496-3.412 2.723-3.573 2.726-.161 0-1.186-.612-2.28-1.366zm11.238-14.78c2.949-3.125 3.015-3.605 3.015-21.612 0-9.26-.213-16.968-.49-17.128-.564-.34-7.291 2.12-8.764 3.2-1.485 1.09-2.368 10.391-1.947 20.494.415 10.011.873 12.007 3.29 14.423 2.186 2.185 3.288 2.326 4.894.623zM371.12 72.905c.541-.276 2.84-1.316 5.101-2.314 2.262-.998 4.23-2.111 4.373-2.474-1.46-5.08-11.727-8.656-14.995-5.983-1.96 1.6-2.249 3.543-1.015 6.853 1.348 3.615 2.048 4.417 3.849 4.417.934 0 2.142-.225 2.687-.502zM228.4 130.14c-1.561-1.655-12.134-17.025-12.134-17.637 0-.265.547-2.026 1.217-3.915 1.121-3.162 1.24-4.895 1.5-21.971l.283-18.538-1.5-1.144c-.825-.628-1.5-1.444-1.5-1.812 0-.626 4.804-7.588 9.798-14.2 1.239-1.64 2.49-2.763 2.907-2.608.403.15 1.234 1.542 1.848 3.093 1.34 3.388 4.821 7.418 6.02 6.973 1.157-.432 3.89-4.367 4.788-6.895.409-1.155 1.04-2.1 1.402-2.1.704 0 10.223 17.134 10.255 18.46.057.432-1.447 2.645-3.239 4.912-5.045 6.383-5.437 6.629-6.55 4.098-.364-.835-1.937-3.21-3.486-5.279-2.012-2.684-2.994-3.59-3.432-3.166-.415.403-.62 7.795-.633 23.086l-.057 22.492 1.567 2.2c2.177 3.054 2.016 4.213-.908 6.534-1.855 1.473-2.792 2.805-3.735 5.313-1.398 3.714-2.46 4.216-4.45 2.104zm252.257-3.1c-2.35-2.319-6.544-6.204-9.32-8.634l-5.045-4.417.088-20.982c.057-11.54.322-21.976.606-23.19.438-1.846.346-2.378-.53-3.237-.885-.864-.962-1.347-.479-3.037 1.783-6.263 9.054-16.736 10.913-15.716 1.208.662 5.77 4.23 7.905 6.18 2.59 2.368 2.704 3.84.564 7.25l-1.56 2.485-.161 21.94c-.122 15.358.057 22.286.466 23.09.764 1.383 5.5 4.389 6.913 4.389.554 0 1.274-.478 1.599-1.068.38-.69.584-9.611.576-25.261l-.057-24.194-1.694-1.61c-2.718-2.586-2.32-3.84 2.82-8.88 2.478-2.43 4.77-4.418 5.093-4.418.58 0 7.006 7.489 10.755 12.536 1.49 2.005 1.805 2.822 1.382 3.588-1.072 1.943-1.8 13.276-1.8 28.028 0 13.705.092 15.149 1.1 17.064 1.087 2.064 1.087 2.124 0 4.564-1.437 3.249-5.337 9.66-8.171 13.433l-2.264 3.014-1.882-3.843c-1.036-2.113-2.401-4.185-3.035-4.604-1.043-.69-1.325-.582-2.997 1.138-1.016 1.044-2.616 3.424-3.556 5.287-1.266 2.509-2.005 3.38-2.849 3.354-.638-.057-3.022-1.89-5.414-4.249z" color="#000" overflow="visible" fill="#a40000" fill-rule="evenodd"/><g transform="translate(1125.923 -410.49) scale(.90626)"><path d="M-1168.874 531.422l-28.001.617c-4.924 6.789-35.071 2.443-21.042 55.363 2.672 10.076-5.084 9.09-6.666 17.913-.274 1.523-4.44 2.673-7.124.148-1.012 2.926-.98 6.96 2.108 9.369l5.99-5.08c5.093.542-.538 7.109-.538 7.109l80.793.385c2.113-32.668-16.648-55.347-25.52-85.824z" fill="#c00"/><path d="M-1202.388 547.185c-3.598 1.212-12.652 4.826-14.547 7.881-2.66 12.284 4.122 25.381 3.062 38.45-.436 3.102-2.624 5.454-4.577 7.73 1.764-.887 3.826-2.812 5.644-4.178 2.34-1.785 3.37-4.958 2.393-7.76-.451-2.97 2.151-5.224 3.95-7.22 4.463-4.25 9.525-7.932 15.055-10.669-3.783-7.163-5.29-15.327-9.26-22.408-.457-.692-.908-1.508-1.72-1.825zm-18.114 52.685c-1.501 3.817-4.497 7.262-8.517 8.615-2.573.454.138 4.714 2.099 2.618 4.135-2.023 6.02-6.973 6.418-11.233z" opacity=".2"/><path d="M-1168.568 531.424l-27.999.617c-4.924 6.788-33.85 1.933-19.82 54.853 2.671 10.076-6.154 10.514-7.737 17.912-.164.769 2.097-2.793 2.27-3.765 2.703-5.516 9.516-3.104 6.845-13.18-14.03-52.92 14.67-49.032 19.594-55.82l26.854-.592c-.003-.008-.003-.017-.007-.025z" opacity=".4" fill="#fff"/><g color="#000"><path d="M-1136.197 556.622c-.603-.02-1.484.18-1.622.766l-13.365 54.453c-.088.374 3.416 3.915 4.9 5.402h8.487l1.22-5.134-.68-2.86 1.558-1.517 1.284-5.82-2.046-2.116 2.445-1.066 8.45-40.226a1.261 1.261 0 0 0-1.187-1.552z" overflow="visible" fill="#2d3c50"/><path d="M-1134.916 557.884l-13.537 57.133 2.172 2.226h5.851l1.478-6.189-.748-2.308 1.584-1.815 1.074-4.787-2.152-2.997 3.07-1.647 8.627-37.838z" overflow="visible" fill="#618599"/><path d="M-1126.453 529.916c-3.294-.001-5.99 2.696-5.99 5.99 0 1.804.953 3.366 2.318 4.49l-4.002 12.705c-4.025-.61-7.562-1.197-11.529-1.779a1.245 1.245 0 0 0-1.27.626l-4.03 7.664c-.446.806.107 1.8 1.027 1.846l12.643.679c-.632 3.254-3.123 23.873-1.505 27.006 2.972-1.272 9.562-23.45 10.573-25.637l1.668.644.374.144 10.12 3.546a1.245 1.245 0 0 0 1.66-1.366l-.777-8.24a1.245 1.245 0 0 0-.888-1s-6.38-2.07-10.525-2.971l2.281-12.867c2.256-.888 3.837-3.008 3.841-5.488v-.003c.001-3.293-2.696-5.99-5.99-5.99z" overflow="visible" fill="#2d3c50"/><path d="M-1126.453 531.163a4.743 4.743 0 0 0-2.313 8.884l-3.492 14.954c-4.401-.695-8.7-1.196-13.071-1.837l-3.416 6.138 13.435 1.14c-1.654 7.73-3.696 28.968-3.319 27.936.1 1.063 8.977-24.43 9.593-27.115l13.005 4.593-1.185-7.323s-7.907-2.411-11.673-3.102l4.663-15.704c2.145-.499 2.513-1.618 2.517-3.82a4.743 4.743 0 0 0-4.744-4.745z" overflow="visible" fill="#425b68"/></g><path d="M-1136.916 561.25l-12.713 52.56 1.849 1.97c1.595-7.053 8.344-29.049 8.344-29.049 1.123-17.104 2.52-25.482 2.52-25.482z" fill="#fff" fill-rule="evenodd"/><path d="M-1130.116 547.875c-.684.012-1.124.168-1.168.413-.075.399.896.911 2.167 1.144 1.27.234 2.36.1 2.432-.299.075-.398-.895-.91-2.167-1.144-.44-.08-.88-.12-1.264-.114zm-.835 3.07c-.684.012-1.124.168-1.169.414-.07.398.9.908 2.168 1.14 1.269.233 2.356.1 2.429-.299.07-.397-.9-.908-2.167-1.14-.44-.08-.877-.12-1.261-.114zm-13.934 1.85l-.395 1.184 28.312 4.735c-3.87-1.568-7.84-2.574-11.85-3.354.393-.062.63-.193.666-.367.076-.397-.893-.91-2.164-1.143-.44-.081-.88-.12-1.264-.114-.684.011-1.124.167-1.169.413-.03.184.165.403.546.61-4.22-.7-8.465-1.25-12.682-1.964z" color="#000" overflow="visible" opacity=".4" fill="#fff"/><path d="M-1123.176 523.201c-4.43.162-9.118 1.182-9.118 1.182l-18.964-.513c-3.226 11.75 1.68 17.576 5.453 27.406.361-.435 9.132-8.999 12.159-12.184 0 0 1.744 5.37 2.519 5.95 1.26.646 5.333 2.391 8.697-.94l.628-1.18 9.399-3.199c1.327-7.64-4.143-15.483-4.143-15.483-1.406-.924-3.971-1.136-6.63-1.039z" color="#000" overflow="visible" fill="#2d3c50"/><path d="M-1174.876 525.43c-1.852.032-3.843.597-6.112.597-4.365 0-8.42 2.324-11.772 6.28-5.176-.411-9.828-2.283-13.536-.696-19.199 6.378-24.626 19.435-25.809 26.998 7.03-.479 10.63-1.278 19.341-2.537l10.761-5.75c2.83 13.018-1.524 33.557-3.559 42.773-1.201 2.634-2.215 4.246-1.727 5.269 1.853 2.156 4.54 1.258 8.128 1.326-.836 2.85-1.402 6.18-1.055 8.875-4.928 1.322-9.452 4.899-10.399 9.306h63.055c-5.427-5.276-13.664-9.195-20.412-9.926 2.353-3.062 3.449-6.06 4.169-9.486 5.32-.762 11.509-1.563 12.548-3.367-.38-13.305-3.575-33.34-4.844-41.915-.078-.53-.74-5.22-.82-5.661l1.217 3.976 10.177-4.574c1.938 1.005-1.356-17.968-3.897-17.898-2.718.753-12.32 1.662-14.916 2.378-1.488.41-3.868-3.778-5.26-3.38-1.712-2.123-3.426-2.622-5.278-2.589zm-1.816 74.104v.003c-.647 2.818-.67 5.541-.067 7.629-4.455-.292-8.654.54-12.776.359a25.687 25.687 0 0 1-.28-.01c1.159-2.478 1.89-5.186 2.105-7.737 3.565-.017 7.316-.09 11.018-.245z"/><path d="M-1178.186 482.626c-5.242-.02-12.483 1.031-18.428 2.738-2.973.853-5.611 1.857-7.569 3.073-.976.607-1.808 1.27-2.404 2.1a3.848 3.848 0 0 0-.684 2.666c1.488 12.716 3.18 25.512 4.798 38.248.067.523.403.976.885 1.19 6.134 2.719 12.067 4.154 17.14 4.584 5.07.43 9.274-.086 12.121-1.582a1.514 1.514 0 0 0 .771-1.68l-.01-.046 2.7.743a.421.421 0 0 0 .34-.052l7.852-5.078c.369-.21.547-.583.628-.943.081-.36.071-.729-.032-1.06-.149-.486-.957-3.602-1.985-7.689s-2.32-9.284-3.585-14.393c-2.531-10.217-4.954-20.09-4.954-20.09-.013-.047-.026-.095-.043-.142a2.835 2.835 0 0 0-1.236-1.492c-.54-.328-1.16-.516-1.78-.666-1.256-.305-2.778-.421-4.524-.429zm4.917 21.65l.512 2.513-2.51 1.498a1.51 1.51 0 0 0-.7 1.619l-.01-.025 2.569 16.11-3.62-15.589a1.513 1.513 0 0 0-1.584-1.162l-6.819.52-.715-3.036c3.424.166 6.513-.184 8.934-.875a19.883 19.883 0 0 0 3.94-1.572z" color="#000" overflow="visible" fill="#2c3e46"/><path d="M-1194.896 501.301l5.768 33.497 8.559.5c3.009-1.824 6.154-2.337 9.544-2.924l2.536-1.065-1.887-35.32z" fill-rule="evenodd"/><path d="M-1178.186 484.133c-10.059-.04-28.752 4.155-27.615 9.098l4.831 38.029c11.969 5.305 23.133 5.576 27.95 3.045l-5.153-23.179-8.419.239-3.427-6.182c8.233 1.005 18.328-3.327 19.88-4.544l-.112.711.193 5.985-4.43 2.247 5.436 23.31c1.276-1.053 7.54-4.922 7.54-4.922-.846-2.758-10.549-42.255-10.549-42.255-.38-1.084-2.772-1.568-6.125-1.582z" fill="#425b68"/><path d="M-1170.216 501.318l-1.13.706-.114 4.654-4.32 2.041 4.577 23.656 2.225.494-4.496-23.163 3.591-2.244zm-9.005 8.179l-7.568 1.017.34 1.538 8.244-.875z" fill="#70979f"/><path d="M-1171.676 484.843c.343 1.693-6.876 5.599-15.752 7.232-8.877 1.632-18.251 1.39-18.594-.302-.342-1.693 7.685-5.058 16.562-6.691 8.877-1.633 17.442-1.931 17.784-.239z" color="#000" overflow="visible" fill="#2c3e46"/><path d="M-1198.496 531.904c-3.763-36.595 4.901-44.658 10.658-47.167-6.024.394-14.779 2.585-18.367 7.412.362 1.631 5.645 38.503 5.645 38.503z" opacity=".3"/><path d="M-1148.716 526.228c2.332 2.927 5.753 12.646 5 20.634 3.265-4.31 5.432-6.207 9.837-10.354 2.312.695 4.07 6.287 4.07 6.287 1.927 1.086 4.946 1.745 6.533-1.584 0 0-2.845-5.036-3.47-7.29 2.188 1.406 8.154-1.503 8.154-1.503.192.183-3.524 2.297-3.791 2.864-.051.106 2.902-.118 2.871.04-.038.19-2.778 1.006-2.802 1.231-.154 1.475 1.163 2.958 1.485 2.829l6.265-2.508c1.04-1.33-2.998-11.234-2.998-11.234-.165-.826-8.302-.952-14.188.958-4.63.094-16.462-.974-16.966-.37z" color="#000" overflow="visible" fill="#618599"/><path d="M-1148.806 526.028l2.505 4.034 15.1-1.479s2.352-1.603 13.138-2.975l-13.911 1.059z" color="#000" overflow="visible" opacity=".6" fill="#fff" fill-rule="evenodd"/><g fill-rule="evenodd"><path d="M-1193.992 459.016c-10.567-.775-24.433.993-27.246 8.114-.019.08 3.237-.347 5.505-.44-2.933.238-14.854 3.486-15.238 10.74-.52.404 5.421-.893 5.421-.893-11.047 6.3-14.355 9.825-12.199 17.249.026.634 1.525-1.207 4.68-3.328-10.148 13.017 7.693 29.405 20.246 35.438 1.58.924-2.341-4.088 1.047-12.416.442-1.087-4.102-3.641-4.358-4.64-.468-2.523 6.134-2.828 1.214-8.79 2.657-3.522 8.157-2.661 11.996-5.15 2.037-1.355 3.101-3.035 3.817-4.292.716-1.256 1.096-1.992 1.996-2.638.9-.646 2.542-1.322 5.919-1.653 1.623-.159 2.489-.89 3.224-1.235.736-.345.811-.262.699-.324a2.134 2.134 0 0 0 2.126-.044c15.237-5.829 2.951-24.25-8.849-25.698z" fill="maroon"/><path d="M-1186.241 482.89c7.986-.048 7.866-13.145-1.362-19.375-5.603-3.783-18.161-3.235-30.704 2.505-.33.15 11.284-2.265 16.519.949-8.068-2.318-23.314 2.937-26.757 8.656a1687.28 1687.28 0 0 0 16.01-4.567c-10.693 4.854-21.23 11.256-22.792 18.11-.414.787 8.812-4.203 16.276-7.598-8.991 6.548-14.707 5.722-14.579 17.18.305 13.63 20.097 25.899 20.097 25.899s-3.345-6.756-1.573-10.162c1.453-2.792-2.897-3.232-3.385-5.633-.194-1.71 1.36-3.123 1.36-3.123-1.04.927-5.954.659-5.794.24.179-.383 3.09-.82 4.603-6.036-1.282 1.836-3.695 1.315-3.695 1.315-.196-2.9 2.697-3.018 6.625-5.422 18.76 11.397 23.923-6.357 24.641-11.774 1.472-.242 2.873-2.065 4.51-1.165z" fill="#c00"/><path d="M-1195.778 464.134c1.03 1.638 3.177 2.991 5.2 4.722-3.062-1.854-18.548.668-21.449-.324 3.75 3.412 25.694.44 24.638 13.702l.41-.147c.7-5.237.205-8.309-.986-10.5 1.87 2.584 3.175 4.897 1.161 10.402l.413-.226c9.745-16.91-3.584-14.622-9.387-17.63zm-4.719 9.908c-7.088-.241-15.987 1.873-23.944 5.921 4.92 1.226 31.349-9.831 36.712 2.344l.308-.054c-.711-5.374-5.988-7.97-13.076-8.21z" color="#000" overflow="visible" opacity=".2"/><path d="M-1198.366 461.109c-5.824.096-12.886 1.68-19.941 4.91-.214.097 4.57-.86 9.393-.69 4.547-1.313 8.834-2.64 15.957-3.816-1.633-.3-3.449-.437-5.409-.404zm-15.547 6.325c-6.388 1.581-12.587 4.797-14.63 8.19 1.296-.36 2.887-.691 4.402-1.12zm-9.026 9.198c-7.533 3.61-11.68 9.43-12.387 12.536-.193.366 1.809-.58 4.633-1.968.2-3.447 6.298-8.12 7.754-10.568zm-7.716 12.482c-1.968 1.957-3.032 4.62-2.976 9.635.112 5.012 2.867 9.836 6.296 13.938-4.19-7.352-4.593-15.658-3.32-23.573z" opacity=".3" fill="#fff"/><path d="M-1214.732 494.895c.134-.173 13.807 6.28 22.694-7.427-.535 1.855-7.167 18.367-22.694 7.427z" color="#000" overflow="visible" opacity=".3"/><path d="M94.976-55.9c-1.972 4.568-7.632 3.32-11.415 2.63-2.41 1.603-6.966 5.302-8.21.366-.41-3.98 4.754-3.586 6.226-6.692 3.181-2.19 6.435 2.213 10.04.809 1.957-.516 5.893.231 3.359 2.887z" color="#000" overflow="visible" opacity=".3" fill="#fff" filter="url(#a)" transform="translate(-1350.51 578.924) scale(1.62811)"/></g><g color="#000"><path d="M-1190.737 487.042l.075-5.073 4.332-.9 2.66 4.733c-2.03 1.487-4.596 2.177-7.067 1.24z" overflow="visible" fill="#888a85"/><path d="M-1185.926 479.775c1.629.685 1.138 2.317.653 2.788-2.08 1.74-4.722 1.415-5.959.763l-.336-1.792c.752-.928 3.825.496 5.642-1.76z" overflow="visible" fill="#d3d7cf"/></g><ellipse ry="1.119" rx="1.323" cy="1273.242" cx="-157.459" transform="rotate(59.748)" color="#000" overflow="visible" fill="#fff"/><ellipse ry="1.119" rx="1.323" cy="1227.734" cx="360.12" transform="rotate(83.121)" color="#000" overflow="visible" fill="#fff"/><g color="#000"><path d="M-1212.572 543.756c-8.946-.961-19.238 8.333-25.044 13.766 6.178 2.586 5.802 11.371 19.726 8.626 0 0 .268.329.64.915-1.242-.573-4.084 3.213-4.084 3.213-.762 3.706 4.467 6.67 4.467 6.67 1.413 2.908 5.127 3.624 5.82 3.514 2.168-.344 5.322-1.17 7.853-2.332.264-.121.211-1.09.476-1.204 1.366-.585 2.988-.66 4.177-1.357.298-.175.042-.994.326-1.173 1.668-1.05 3.09-1.46 4.157-2.506l.05-9.47c-3.451-3.382-12.324-6.433-12.324-6.433z" overflow="visible" fill="#2d3c50"/><path d="M-1234.241 557.302c1.891-2.055 6.38-9.527 21.035-11.72 0 0 3.688 9.642 6.492 11.606 6.794 3.438 9.981 5.148 11.197 5.835l-.166 7.776c-.023 1.072-1.218 1.685-2.67 2.201l-.054-4.465c-.325 1.64-1.234 4.069-1.502 5.531-1.004 1.14-2.664 1.44-3.456 1.532-.237.124 1.156-3.268-.198-4.764-.27.83-1.18 5.21-1.56 5.454-3.91 2.386-9.525 2.222-10.38-1.084-2.032-1.01-3.75-2.89-3.54-4.15 0 0 1.583-1.979 3.366-1.887.267-.18.71 2.964 2.582 4.154 1.07-6.19-3.775-4.624-4.694-11.957l-.191 3.142c-13.308.184-11.52-5.143-16.261-7.204z" overflow="visible" fill="#618599"/><path d="M-1213.671 545.81c-7.07-.028-15.478 6.455-19.712 11.065 2.517 2.306 2.63 5.111 7.764 6.542 3.448-5.657-4.913-11.794 12.232-16.353.442-.722.105-.583-.284-1.255z" overflow="visible" opacity=".4" fill="#fff" fill-rule="evenodd"/><path d="M-1223.21 548.36c.152.349-8.35 4.78-10.383 8.451 4.66 6.523 8.638 7.171 15.475 7.672.194.015.14-3.472.341-3.457 0 0 .555 3.455.938 3.483l1.818 2.738c2.138 2.451 2.482 3.506 1.922 6.48l-2.752-4.495c-1.79.344-2.099 1.06-3.011 1.624.308 1.154-.522 2.105 3.546 4.44 1.38 2.337 3.075 2.6 4.087 2.586 1.49-.021 1.245-1.235 2.404-2.306l1.559-8.194c-5.173-3.422-3.11-4.175-6.214-6.717-.274-.224 6.268-3.21 6.268-3.21s-9.104 1.924-9.334 1.858c-9.65-.293-17.047-2.502-6.664-10.952z" overflow="visible" opacity=".3" fill="#fff" fill-rule="evenodd"/><path d="M-1206.6 567.347c3.076.822 9.569-1.04 11.034-4.64l.463 9.593c-4.698 3.18-11.024 4.653-15.593 6.226.422-.423 1.869-1.285 2.22-2.253 1.019-2.8 1.876-8.926 1.876-8.926z" overflow="visible" opacity=".7" fill="#2d3c50"/></g></g><g><path d="M57.252 80.856l-.687.086-.594.945c-3.051 4.779-4.099 6.72-4.542 8.446-.212.826-.181 1.16.162 1.942.744 1.698 3.116 3.2 6.677 4.234 1.308.38 1.374.458 1.068 1.12-.214.464-.369.522-1.26.463-1.989-.13-2.9.014-4.029.66-.697.397-.796.651-.655 1.666.164 1.176 1.409 3.04 2.36 3.53.422.217.573.105.399-.291-.332-.756-.181-1.33.397-1.53.53-.184 2.082.12 3.084.608.716.349 1.99 1.348 2.58 2.015.223.251.518.521.657.598.328.182.354.175.932-.187 1.165-.73 4.157-3.512 6.315-5.865.762-.832 1.086-2.19 1.026-4.292-.043-1.516-.246-2.165-.988-3.118-.298-.383-.951-1.007-1.447-1.396-.763-.599-1.409-.998-3.66-2.24-.333-.184-.36-.421-.096-.885.624-1.094 1.205-3.618 1.13-4.903-.046-.775-.053-.793-.436-1.14-.487-.436-.807-.43-1.054.022-.1.18-.278.391-.392.467-.464.308-1.891.164-3.506-.36a27.088 27.088 0 0 0-1.627-.425c-.917-.213-1.255-.243-1.814-.17zm-.842 3.94c.452-.022 1.11.135 2.247.513 2.05.681 2.316.734 3.695.688 1.115-.036 1.188-.028 1.216.178.039.261-.221.984-.478 1.333-.174.238-.449.345-.595.229-.039-.03-.503-.106-1.026-.168-2.951-.345-4.584-.674-5.443-1.085-.762-.366-.882-.99-.273-1.454.187-.142.386-.22.657-.234zm-2.646 3.52c.1-.02.23.073.38.287.343.489 1.946 1.495 3.02 1.897 1.042.389 1.596.51 2.628.604 1.062.097 1.76.363 1.805.684.03.212-.346.916-.626 1.169a.367.367 0 0 1-.202.088c-.539-.007-1.972-.345-2.592-.607a.834.834 0 0 0-.305-.07c-.295.025-2.05-.893-2.82-1.473-1.159-.874-1.496-1.305-1.496-1.95 0-.387.081-.6.208-.628zm9.761 3.685c.137-.026.315-.005.577.03.868.112 2.223.791 3.38 1.697 1.391 1.092 1.937 1.938 1.914 2.958-.018.247-.069.43-.145.437-.075.007-.42-.398-.77-.898-.499-.71-.764-.98-1.212-1.248-.83-.497-2.983-1.281-3.405-1.245-.107.01-.365-.048-.582-.126-.482-.174-.549-.446-.255-1.066.163-.344.27-.497.499-.54zm-2.042 5.23l1.068.208c2.439.458 2.947.565 3.586.804.369.137.808.354.979.472.39.27.741.764.69.976-.02.089-.358.446-.749.799-.796.72-1.208.853-1.605.502-.769-.68-2.88-1.822-3.726-2.013-.318-.071-.64-.169-.72-.22-.273-.178-.223-.59.13-1.065l.347-.464z" color="#000" overflow="visible" fill="#f57900"/></g></svg>