<svg xmlns="http://www.w3.org/2000/svg" viewBox="0 0 285.75 95.25" height="360" width="1080">
  <defs>
    <clipPath id="a">
      <path d="M0 452h610V0H0z"/>
    </clipPath>
  </defs>
  <path d="M73.76 30.08c-.3 0-.53.23-.53.53v11.3h-11.3c-.3 0-.53.23-.53.52v9.1c0 .3.24.53.53.53h11.3v11.3c0 .29.23.53.53.53h9.1c.29 0 .52-.24.52-.53v-11.3h11.3c.3 0 .53-.24.53-.53v-9.1c0-.3-.24-.53-.53-.53h-11.3V30.6c0-.29-.23-.52-.53-.52z" fill="#fff"/>
  <path d="M78.19 28.27a18.7 18.7 0 0 0-7.28 1.53 18.7 18.7 0 0 0-9.8 24.58 18.7 18.7 0 0 0 24.59 9.79 18.7 18.7 0 0 0 9.8-24.58 18.7 18.7 0 0 0-17.31-11.32zm.01 2.25a16.46 16.46 0 0 1 15.23 9.95A16.46 16.46 0 0 1 84.8 62.1a16.46 16.46 0 0 1-21.63-8.61 16.46 16.46 0 0 1 8.62-21.63 16.46 16.46 0 0 1 6.4-1.34z" fill="#fff"/>
  <rect width="14.82" height="5.26" x="145.19" y="54.3" rx="2.65" ry="2.65" fill="#fff"/>
  <rect width="14.82" height="5.26" x="119.69" y="54.3" rx="2.65" ry="2.65" fill="#fff"/>
  <circle cx="190.31" cy="56.24" r="8.82" fill="#fff"/>
  <circle cx="214.36" cy="56.24" r="8.82" fill="#fff"/>
  <circle cx="214.36" cy="20.67" r="2.46" fill="#fff"/>
  <rect width="16.62" height="6.87" x="12.37" y="-217.8" rx="2.65" ry="2.65" transform="rotate(90)" fill="none" stroke="#fff" stroke-width="1.49"/>
  <circle r="2.46" cy="20.67" cx="190.31" fill="#fff"/>
  <rect transform="rotate(90)" ry="2.65" rx="2.65" y="-193.74" x="12.37" height="6.87" width="16.62" fill="none" stroke="#fff" stroke-width="1.49"/>
</svg>
